<?xml version="1.0" encoding="UTF-8" standalone="no"?>
<!-- Created with Inkscape (http://www.inkscape.org/) -->

<svg
   width="49.0mm"
   height="49.0mm"
   viewBox="0 0 49.0 49.0"
   version="1.1"
   id="svg5"
   inkscape:version="1.1 (c4e8f9ed74, 2021-05-24)"
   sodipodi:docname="alpaka_svg2shenzhen.svg"
   xmlns:inkscape="http://www.inkscape.org/namespaces/inkscape"
   xmlns:sodipodi="http://sodipodi.sourceforge.net/DTD/sodipodi-0.dtd"
   xmlns="http://www.w3.org/2000/svg"
   xmlns:svg="http://www.w3.org/2000/svg">
  <sodipodi:namedview
     id="namedview7"
     pagecolor="#ffffff"
     bordercolor="#666666"
     borderopacity="1.0"
     inkscape:pageshadow="2"
     inkscape:pageopacity="0.0"
     inkscape:pagecheckerboard="0"
     inkscape:document-units="mm"
     showgrid="false"
     inkscape:zoom="9.4074074"
     inkscape:cx="75.366142"
     inkscape:cy="61.334646"
     inkscape:window-width="1920"
     inkscape:window-height="1051"
     inkscape:window-x="0"
     inkscape:window-y="0"
     inkscape:window-maximized="1"
     inkscape:current-layer="g856" />
  <defs
     id="defs2" />
  <g
     inkscape:label="[fixed] BG"
     inkscape:groupmode="layer"
     sodipodi:insensitive="true"
     id="g852"
     style="display:none">
    <rect
       x="0"
       y="0"
       width="49"
       height="49"
       style="fill:#ffffff;fill-opacity:1;stroke:none"
       id="rect850" />
  </g>
  <g
     inkscape:label="Edge.Cuts"
     inkscape:groupmode="layer"
     id="g854"
     style="display:none">
    <path
       id="path1046"
       style="display:inline;fill:none;fill-opacity:1;stroke:#000000;stroke-width:0.377953;stroke-linecap:round;stroke-miterlimit:4;stroke-dasharray:none;stroke-opacity:1"
       d="M 26.3652 -0.564453 L 25.9023 -0.552734 L 25.5539 -0.530051 L 25.2115 -0.485771 L 24.8756 -0.420668 L 24.5468 -0.335518 L 24.2255 -0.231094 L 23.9123 -0.108172 L 23.6075 0.0324736 L 23.3117 0.190069 L 23.0254 0.363838 L 22.7491 0.553007 L 22.4832 0.756801 L 22.2283 0.974446 L 21.9848 1.20517 L 21.7532 1.44819 L 21.5341 1.70274 L 21.3278 1.96804 L 21.135 2.24331 L 20.956 2.52779 L 20.7914 2.8207 L 20.6417 3.12126 L 20.5073 3.4287 L 20.3887 3.74225 L 20.2865 4.06112 L 20.2011 4.38455 L 20.1329 4.71175 L 20.0826 5.04196 L 20.0506 5.37441 L 20.0373 5.70831 L 20.0433 6.04289 L 20.069 6.37737 L 20.115 6.71099 L 20.1816 7.04297 L 19.9555 7.21568 L 19.7391 7.39968 L 19.3364 7.79912 L 18.9749 8.23649 L 18.6559 8.70697 L 18.3808 9.20576 L 18.1508 9.72803 L 17.9674 10.269 L 17.8317 10.8238 L 17.7451 11.3876 L 17.7089 11.9557 L 17.7245 12.5232 L 17.7932 13.0853 L 17.9163 13.6372 L 18.0951 14.1741 L 18.2057 14.4354 L 18.3309 14.6912 L 18.4706 14.9408 L 18.625 15.1836 L 18.3572 15.6279 L 18.1365 16.0937 L 17.9622 16.5772 L 17.8333 17.0748 L 17.749 17.5826 L 17.7087 18.0972 L 17.7114 18.6146 L 17.7563 19.1313 L 17.8427 19.6436 L 17.9696 20.1478 L 18.1364 20.6401 L 18.3422 21.1169 L 18.5862 21.5745 L 18.8675 22.0091 L 19.1854 22.4172 L 19.5391 22.7949 L 19.5407 23.1831 L 19.498 23.5512 L 19.4171 23.9022 L 19.3043 24.2389 L 19.1658 24.5644 L 19.0077 24.8814 L 18.658 25.5018 L 18.3051 26.1235 L 18.143 26.442 L 17.9987 26.7697 L 17.8785 27.1092 L 17.7886 27.4636 L 17.7352 27.8357 L 17.7246 28.2285 L 17.6816 28.4372 L 17.6556 28.6427 L 17.6492 29.0448 L 17.6955 29.4363 L 17.7846 29.8187 L 17.9065 30.1936 L 18.0513 30.5626 L 18.37 31.2889 L 18.524 31.6494 L 18.6611 32.0102 L 18.7715 32.3728 L 18.8452 32.7387 L 18.8722 33.1097 L 18.8652 33.2975 L 18.8427 33.4871 L 18.8036 33.6787 L 18.7467 33.8725 L 18.6706 34.0688 L 18.5742 34.2676 L 18.5086 34.4878 L 18.4625 34.7047 L 18.4348 34.9184 L 18.4238 35.1291 L 18.4471 35.5424 L 18.5213 35.9462 L 18.6354 36.3421 L 18.7784 36.7316 L 19.1068 37.4979 L 19.2702 37.8777 L 19.4183 38.2575 L 19.5402 38.6388 L 19.6247 39.0232 L 19.6609 39.4122 L 19.6574 39.609 L 19.6377 39.8075 L 19.6004 40.008 L 19.5441 40.2106 L 19.4675 40.4155 L 19.3691 40.623 L 19.3018 40.9176 L 19.2666 41.2144 L 19.2602 41.5127 L 19.2793 41.8116 L 19.3206 42.1103 L 19.3808 42.4079 L 19.5449 42.9966 L 19.7453 43.571 L 19.9556 44.1243 L 20.1495 44.6497 L 20.3008 45.1406 L 20.1834 45.6257 L 20.1071 46.1162 L 20.071 46.6094 L 20.074 47.1027 L 20.115 47.5937 L 20.1931 48.0796 L 20.3073 48.5581 L 20.4564 49.0265 L 20.6395 49.4821 L 20.8556 49.9226 L 21.1036 50.3452 L 21.3826 50.7475 L 21.6914 51.1269 L 22.0291 51.4807 L 22.3947 51.8064 L 22.7871 52.1016 L 22.686 52.3033 L 22.6023 52.5057 L 22.5349 52.7084 L 22.4829 52.9114 L 22.421 53.3181 L 22.4087 53.7249 L 22.4379 54.131 L 22.5007 54.5356 L 22.5891 54.9379 L 22.6951 55.3371 L 22.9283 56.1229 L 23.1364 56.8867 L 23.2112 57.2583 L 23.2558 57.6219 L 23.2623 57.9769 L 23.2227 58.3223 L 22.9964 58.6741 L 22.8166 59.0384 L 22.6795 59.4134 L 22.5814 59.7972 L 22.5185 60.1881 L 22.4872 60.5841 L 22.4835 60.9835 L 22.5039 61.3844 L 22.5446 61.7851 L 22.6019 62.1838 L 22.7512 62.9674 L 23.084 64.4297 L 22.7912 64.8087 L 22.5315 65.2104 L 22.3054 65.632 L 22.1133 66.0703 L 21.9555 66.5225 L 21.8324 66.9855 L 21.7444 67.4564 L 21.6919 67.9323 L 21.6752 68.4101 L 21.6949 68.887 L 21.7511 69.3598 L 21.8444 69.8257 L 21.9752 70.2817 L 22.1437 70.7248 L 22.3504 71.1521 L 22.5957 71.5605 L 22.3571 71.9045 L 22.1607 72.2655 L 22.0037 72.6411 L 21.8831 73.0291 L 21.7959 73.427 L 21.739 73.8326 L 21.7097 74.2433 L 21.7048 74.6568 L 21.7214 75.0709 L 21.7565 75.483 L 21.8703 76.2921 L 22.0226 77.0651 L 22.1895 77.7832 L 22.024 78.199 L 21.8913 78.6235 L 21.791 79.0549 L 21.7225 79.4913 L 21.6854 79.931 L 21.6792 80.372 L 21.7034 80.8126 L 21.7575 81.2507 L 21.841 81.6847 L 21.9535 82.1126 L 22.0944 82.5326 L 22.2633 82.9428 L 22.4597 83.3415 L 22.6831 83.7266 L 22.933 84.0965 L 23.209 84.4492 L 23.0167 84.8035 L 22.8588 85.1687 L 22.7331 85.5431 L 22.6373 85.9249 L 22.569 86.3127 L 22.5261 86.7047 L 22.5062 87.0993 L 22.507 87.4948 L 22.5262 87.8896 L 22.5617 88.282 L 22.672 89.0531 L 22.8196 89.7949 L 22.9863 90.4941 L 22.8827 90.6765 L 22.7949 90.861 L 22.6621 91.2355 L 22.5785 91.616 L 22.5347 92.0007 L 22.5213 92.388 L 22.5289 92.7762 L 22.5695 93.5486 L 22.5838 93.9295 L 22.5815 94.3045 L 22.5532 94.672 L 22.4896 95.0303 L 22.3812 95.3777 L 22.3072 95.5468 L 22.2186 95.7126 L 22.114 95.8748 L 21.9924 96.0332 L 21.8526 96.1876 L 21.6934 96.3379 L 21.4933 96.6158 L 21.3311 96.9087 L 21.2029 97.2143 L 21.1051 97.5307 L 21.0338 97.8557 L 20.9853 98.1873 L 20.9557 98.5233 L 20.9414 98.8617 L 20.9431 99.5373 L 20.9603 100.197 L 20.9626 100.825 L 20.9488 101.122 L 20.9199 101.404 L 20.608 101.79 L 20.3287 102.196 L 20.0823 102.62 L 19.8691 103.059 L 19.6896 103.511 L 19.5441 103.974 L 19.4329 104.446 L 19.3564 104.924 L 19.3149 105.406 L 19.3088 105.889 L 19.3385 106.372 L 19.4042 106.851 L 19.5064 107.325 L 19.6454 107.792 L 19.8215 108.248 L 20.0352 108.691 L 19.8417 108.923 L 19.6613 109.163 L 19.3397 109.665 L 19.0705 110.194 L 18.8537 110.744 L 18.6892 111.311 L 18.5772 111.889 L 18.5176 112.476 L 18.5104 113.064 L 18.5558 113.65 L 18.6536 114.23 L 18.8039 114.797 L 19.0067 115.348 L 19.2621 115.878 L 19.4095 116.133 L 19.5701 116.381 L 19.7438 116.622 L 19.9306 116.854 L 20.1306 117.077 L 20.3438 117.291 L 20.2447 117.664 L 20.1692 118.04 L 20.1168 118.418 L 20.0872 118.796 L 20.08 119.174 L 20.0948 119.552 L 20.1314 119.927 L 20.1893 120.3 L 20.2683 120.669 L 20.3678 121.033 L 20.4877 121.392 L 20.6275 121.744 L 20.7869 122.089 L 20.9655 122.425 L 21.1629 122.753 L 21.3789 123.07 L 21.1922 123.509 L 21.0509 123.956 L 20.9525 124.408 L 20.8946 124.865 L 20.8746 125.324 L 20.8902 125.783 L 20.9388 126.24 L 21.018 126.695 L 21.1252 127.144 L 21.2581 127.586 L 21.4142 128.02 L 21.5909 128.443 L 21.7858 128.854 L 21.9965 129.251 L 22.2204 129.631 L 22.4551 129.994 L 22.4241 130.459 L 22.4468 130.904 L 22.5158 131.333 L 22.6237 131.747 L 22.7631 132.15 L 22.9265 132.544 L 23.2958 133.315 L 23.6722 134.081 L 23.8444 134.469 L 23.9962 134.862 L 24.1201 135.265 L 24.2086 135.679 L 24.2544 136.106 L 24.25 136.551 L 24.4809 137.251 L 24.6843 137.986 L 24.8576 138.743 L 24.9981 139.509 L 25.1032 140.271 L 25.1703 141.016 L 25.1967 141.732 L 25.1797 142.404 L 25.0819 142.762 L 25.001 143.127 L 24.9378 143.497 L 24.8926 143.872 L 24.8662 144.25 L 24.8591 144.628 L 24.8718 145.006 L 24.9051 145.382 L 24.9593 145.753 L 25.0352 146.119 L 25.1332 146.478 L 25.254 146.828 L 25.3982 147.168 L 25.5663 147.496 L 25.7589 147.81 L 25.9766 148.109 L 25.8255 148.525 L 25.7253 148.939 L 25.669 149.352 L 25.6491 149.762 L 25.6585 150.171 L 25.6901 150.579 L 25.7905 151.391 L 25.8925 152.201 L 25.9261 152.605 L 25.9385 153.009 L 25.9223 153.414 L 25.8705 153.818 L 25.7757 154.223 L 25.6309 154.629 L 25.7457 155.062 L 25.8356 155.485 L 25.9027 155.9 L 25.9494 156.309 L 25.9776 156.712 L 25.9897 157.111 L 25.9741 157.902 L 25.92 158.695 L 25.8448 159.501 L 25.766 160.33 L 25.7012 161.195 L 25.8849 161.611 L 26.0361 162.011 L 26.1564 162.4 L 26.2473 162.778 L 26.3106 163.148 L 26.3477 163.512 L 26.3604 163.872 L 26.3501 164.231 L 26.3186 164.59 L 26.2674 164.952 L 26.1981 165.319 L 26.1123 165.693 L 25.8978 166.471 L 25.6367 167.303 L 25.6024 167.509 L 25.584 167.713 L 25.5904 168.109 L 25.6463 168.494 L 25.742 168.869 L 25.8681 169.235 L 26.0149 169.595 L 26.3324 170.303 L 26.4839 170.655 L 26.6179 171.006 L 26.7246 171.36 L 26.7947 171.718 L 26.8184 172.081 L 26.8098 172.266 L 26.7861 172.452 L 26.7461 172.641 L 26.6884 172.832 L 26.612 173.026 L 26.5156 173.223 L 26.4244 173.602 L 26.3819 173.975 L 26.3832 174.343 L 26.4231 174.706 L 26.4966 175.064 L 26.5987 175.417 L 26.7243 175.765 L 26.8684 176.108 L 27.1918 176.78 L 27.5284 177.434 L 27.838 178.071 L 27.97 178.383 L 28.0801 178.691 L 28.0138 179.137 L 27.9854 179.578 L 27.9935 180.013 L 28.0365 180.44 L 28.1129 180.859 L 28.2211 181.268 L 28.3595 181.667 L 28.5267 182.054 L 28.7211 182.429 L 28.9412 182.789 L 29.1853 183.135 L 29.452 183.464 L 29.7398 183.777 L 30.0471 184.071 L 30.3723 184.346 L 30.7139 184.6 L 31.0704 184.834 L 31.4402 185.044 L 31.8218 185.231 L 32.2137 185.393 L 32.6142 185.529 L 33.0219 185.639 L 33.4353 185.72 L 33.8527 185.772 L 34.2727 185.794 L 34.6937 185.785 L 35.1141 185.743 L 35.5325 185.668 L 35.9472 185.559 L 36.3568 185.414 L 36.7597 185.232 L 37.1543 185.012 L 37.9667 185.275 L 38.3925 185.393 L 38.8285 185.498 L 39.2725 185.588 L 39.7225 185.659 L 40.1762 185.708 L 40.6316 185.734 L 41.0865 185.732 L 41.5388 185.701 L 41.9863 185.636 L 42.427 185.537 L 42.8586 185.398 L 43.2791 185.219 L 43.6863 184.995 L 44.0781 184.725 L 44.3325 184.571 L 44.5723 184.396 L 44.7981 184.201 L 45.0106 183.99 L 45.2106 183.765 L 45.3988 183.528 L 45.7425 183.029 L 46.0475 182.511 L 46.3195 181.994 L 46.7871 181.041 L 47.2398 181.051 L 47.683 181.024 L 48.1158 180.963 L 48.5372 180.869 L 48.9465 180.743 L 49.3426 180.587 L 49.7247 180.403 L 50.0919 180.192 L 50.4433 179.957 L 50.7779 179.697 L 51.0949 179.416 L 51.3934 179.114 L 51.6724 178.794 L 51.9311 178.456 L 52.1685 178.103 L 52.3838 177.736 L 52.5761 177.357 L 52.7444 176.966 L 52.8878 176.567 L 53.0055 176.16 L 53.0965 175.747 L 53.16 175.329 L 53.195 174.909 L 53.2006 174.487 L 53.176 174.066 L 53.1202 173.646 L 53.0323 173.23 L 52.9114 172.82 L 52.7566 172.416 L 52.5671 172.02 L 52.3419 171.634 L 52.0801 171.26 L 52.1289 170.964 L 52.1644 170.653 L 52.2042 169.996 L 52.2234 168.606 L 52.2392 167.91 L 52.2833 167.236 L 52.3216 166.914 L 52.3739 166.605 L 52.4424 166.31 L 52.5293 166.033 L 52.7704 165.684 L 52.9767 165.325 L 53.1534 164.966 L 53.3062 164.618 L 53.5614 163.993 L 53.6747 163.736 L 53.7858 163.529 L 53.9001 163.382 L 53.9601 163.334 L 54.0229 163.305 L 54.0893 163.296 L 54.1599 163.309 L 54.2353 163.344 L 54.3164 163.402 L 54.4978 163.596 L 54.7096 163.899 L 54.9572 164.322 L 55.2461 164.875 L 55.3375 164.985 L 55.4114 165.1 L 55.4691 165.222 L 55.5116 165.349 L 55.5558 165.618 L 55.5532 165.906 L 55.5128 166.21 L 55.444 166.528 L 55.2571 167.195 L 55.0657 167.89 L 54.9911 168.241 L 54.9428 168.592 L 54.93 168.94 L 54.9617 169.283 L 54.9971 169.452 L 55.0471 169.619 L 55.1128 169.784 L 55.1953 169.945 L 55.1815 170.216 L 55.1377 170.491 L 55.0693 170.772 L 54.9813 171.058 L 54.768 171.642 L 54.5393 172.241 L 54.3371 172.852 L 54.259 173.162 L 54.2031 173.474 L 54.1747 173.788 L 54.1791 174.104 L 54.2213 174.421 L 54.3066 174.738 L 54.3279 175.148 L 54.391 175.539 L 54.4921 175.913 L 54.627 176.271 L 54.7918 176.615 L 54.9824 176.945 L 55.1949 177.265 L 55.4251 177.573 L 55.9227 178.167 L 56.4432 178.736 L 56.9543 179.294 L 57.4238 179.852 L 57.6721 180.364 L 57.9525 180.852 L 58.2633 181.314 L 58.6025 181.75 L 58.9684 182.159 L 59.3591 182.543 L 59.7728 182.899 L 60.2076 183.229 L 60.6618 183.531 L 61.1335 183.805 L 61.6208 184.051 L 62.122 184.269 L 62.6351 184.458 L 63.1585 184.619 L 63.6901 184.75 L 64.2282 184.851 L 64.771 184.923 L 65.3167 184.964 L 65.8633 184.975 L 66.4091 184.956 L 66.9523 184.905 L 67.4909 184.823 L 68.0232 184.709 L 68.5473 184.563 L 69.0615 184.385 L 69.5638 184.174 L 70.0524 183.93 L 70.5256 183.653 L 70.9814 183.343 L 71.4181 182.998 L 71.8337 182.62 L 72.2266 182.207 L 72.5144 182.061 L 72.817 181.929 L 73.4557 181.697 L 74.1209 181.483 L 74.7908 181.256 L 75.1207 181.13 L 75.4436 180.99 L 75.7568 180.832 L 76.0576 180.654 L 76.3432 180.451 L 76.611 180.221 L 76.8582 179.958 L 77.082 179.66 L 77.3223 179.413 L 77.532 179.149 L 77.7138 178.87 L 77.8704 178.577 L 78.0044 178.274 L 78.1186 177.962 L 78.2156 177.642 L 78.2981 177.318 L 78.4304 176.662 L 78.5368 176.012 L 78.6388 175.382 L 78.7578 174.789 L 78.9819 174.599 L 79.1944 174.398 L 79.395 174.187 L 79.5839 173.967 L 79.9258 173.502 L 80.2197 173.007 L 80.4651 172.487 L 80.6615 171.947 L 80.8085 171.39 L 80.9056 170.823 L 80.9522 170.249 L 80.948 169.673 L 80.8925 169.1 L 80.7852 168.534 L 80.6255 167.98 L 80.4131 167.444 L 80.1475 166.929 L 79.9945 166.68 L 79.8281 166.439 L 80.0731 166.065 L 80.2886 165.672 L 80.4744 165.265 L 80.63 164.844 L 80.7552 164.413 L 80.8497 163.974 L 80.9132 163.53 L 80.9453 163.083 L 80.9457 162.635 L 80.9141 162.189 L 80.8502 161.747 L 80.7537 161.313 L 80.6242 160.888 L 80.4615 160.474 L 80.2653 160.075 L 80.0352 159.693 L 80.2794 159.29 L 80.4844 158.87 L 80.6509 158.435 L 80.7796 157.988 L 80.8712 157.532 L 80.9266 157.07 L 80.9465 156.603 L 80.9316 156.134 L 80.8827 155.667 L 80.8005 155.204 L 80.6858 154.747 L 80.5393 154.299 L 80.3617 153.863 L 80.1539 153.441 L 79.9165 153.036 L 79.6504 152.65 L 79.6633 152.423 L 79.6935 152.224 L 79.7402 152.051 L 79.8025 151.903 L 79.8797 151.778 L 79.9708 151.673 L 80.075 151.589 L 80.1914 151.523 L 80.3192 151.473 L 80.4575 151.438 L 80.7624 151.405 L 81.0992 151.413 L 81.4611 151.447 L 82.2328 151.545 L 82.6291 151.582 L 83.0232 151.595 L 83.4083 151.569 L 83.5953 151.538 L 83.7775 151.493 L 83.9541 151.431 L 84.1242 151.352 L 84.2869 151.254 L 84.4414 151.135 L 84.9947 150.721 L 85.5108 150.3 L 86.0093 149.9 L 86.258 149.716 L 86.5096 149.547 L 86.7666 149.398 L 87.0312 149.271 L 87.3061 149.169 L 87.5935 149.097 L 87.896 149.058 L 88.2159 149.055 L 88.5558 149.092 L 88.918 149.172 L 89.0985 149.123 L 89.275 149.092 L 89.4479 149.077 L 89.6175 149.078 L 89.9478 149.122 L 90.2682 149.214 L 90.5813 149.345 L 90.8893 149.507 L 91.4997 149.885 L 92.1184 150.277 L 92.4368 150.455 L 92.7645 150.61 L 93.1037 150.732 L 93.457 150.813 L 93.8265 150.842 L 94.0182 150.835 L 94.2148 150.812 L 94.59 150.719 L 94.9328 150.652 L 95.246 150.61 L 95.5325 150.594 L 95.795 150.605 L 96.0363 150.643 L 96.2592 150.708 L 96.4664 150.801 L 96.6608 150.922 L 96.8451 151.072 L 97.022 151.251 L 97.1945 151.46 L 97.3652 151.698 L 97.5369 151.966 L 97.8945 152.596 L 98.335 153.002 L 98.7679 153.432 L 98.9696 153.657 L 99.1553 153.887 L 99.3202 154.124 L 99.4596 154.367 L 99.5687 154.617 L 99.6429 154.872 L 99.6775 155.134 L 99.6676 155.402 L 99.6086 155.676 L 99.4958 155.957 L 99.3245 156.244 L 99.0898 156.537 L 98.9357 157.021 L 98.82 157.514 L 98.7427 158.015 L 98.7034 158.519 L 98.7019 159.025 L 98.738 159.528 L 98.8114 160.027 L 98.9218 160.517 L 99.069 160.997 L 99.2528 161.463 L 99.4729 161.912 L 99.7291 162.34 L 100.021 162.746 L 100.349 163.126 L 100.711 163.478 L 101.109 163.797 L 100.88 164.168 L 100.694 164.551 L 100.547 164.944 L 100.437 165.346 L 100.362 165.755 L 100.319 166.17 L 100.304 166.588 L 100.317 167.009 L 100.353 167.43 L 100.411 167.851 L 100.488 168.269 L 100.58 168.682 L 100.803 169.491 L 101.059 170.264 L 101.162 171.019 L 101.295 171.78 L 101.46 172.542 L 101.66 173.301 L 101.895 174.05 L 102.168 174.785 L 102.481 175.501 L 102.835 176.192 L 103.233 176.853 L 103.448 177.171 L 103.676 177.479 L 103.914 177.778 L 104.165 178.066 L 104.428 178.342 L 104.704 178.607 L 104.992 178.859 L 105.293 179.097 L 105.608 179.322 L 105.935 179.532 L 106.277 179.727 L 106.632 179.906 L 107.001 180.069 L 107.385 180.215 L 107.997 180.45 L 108.62 180.63 L 109.25 180.759 L 109.886 180.837 L 110.524 180.866 L 111.162 180.849 L 111.799 180.788 L 112.431 180.684 L 113.056 180.54 L 113.672 180.357 L 114.277 180.137 L 114.867 179.882 L 115.441 179.594 L 115.996 179.275 L 116.529 178.928 L 117.039 178.553 L 117.367 178.501 L 117.688 178.429 L 118.002 178.339 L 118.309 178.231 L 118.607 178.105 L 118.897 177.963 L 119.178 177.805 L 119.45 177.632 L 119.712 177.445 L 119.964 177.244 L 120.205 177.03 L 120.435 176.804 L 120.654 176.566 L 120.861 176.318 L 121.055 176.06 L 121.237 175.792 L 121.406 175.516 L 121.561 175.232 L 121.703 174.942 L 121.829 174.645 L 121.941 174.342 L 122.038 174.034 L 122.119 173.723 L 122.184 173.408 L 122.233 173.09 L 122.264 172.77 L 122.279 172.45 L 122.275 172.128 L 122.253 171.807 L 122.213 171.487 L 122.153 171.169 L 122.074 170.854 L 122.262 170.565 L 122.43 170.265 L 122.577 169.954 L 122.704 169.633 L 122.811 169.304 L 122.898 168.969 L 122.965 168.628 L 123.013 168.283 L 123.041 167.935 L 123.049 167.586 L 123.039 167.237 L 123.009 166.889 L 122.96 166.544 L 122.892 166.203 L 122.806 165.868 L 122.701 165.539 L 122.891 165.278 L 123.064 165.004 L 123.22 164.718 L 123.358 164.421 L 123.479 164.116 L 123.582 163.803 L 123.668 163.484 L 123.737 163.159 L 123.789 162.831 L 123.823 162.5 L 123.84 162.169 L 123.839 161.837 L 123.821 161.508 L 123.785 161.181 L 123.732 160.858 L 123.662 160.541 L 123.687 160.502 L 124.306 160.582 L 124.928 160.621 L 124.964 161.243 L 125.046 161.856 L 125.172 162.453 L 125.338 163.029 L 125.051 163.464 L 124.802 163.917 L 124.592 164.387 L 124.42 164.87 L 124.287 165.364 L 124.192 165.866 L 124.137 166.373 L 124.12 166.882 L 124.142 167.391 L 124.203 167.896 L 124.303 168.396 L 124.443 168.887 L 124.622 169.366 L 124.841 169.831 L 125.099 170.279 L 125.396 170.707 L 125.234 171.083 L 125.103 171.463 L 125.001 171.848 L 124.927 172.235 L 124.882 172.623 L 124.864 173.012 L 124.872 173.4 L 124.906 173.786 L 124.965 174.169 L 125.048 174.548 L 125.154 174.921 L 125.282 175.288 L 125.432 175.646 L 125.603 175.996 L 125.794 176.335 L 126.004 176.664 L 126.233 176.98 L 126.479 177.282 L 126.742 177.569 L 127.021 177.841 L 127.316 178.095 L 127.624 178.331 L 127.947 178.548 L 128.282 178.744 L 128.63 178.918 L 128.988 179.07 L 129.357 179.197 L 129.736 179.299 L 130.124 179.375 L 130.519 179.423 L 130.923 179.442 L 131.332 179.432 L 131.654 179.642 L 131.983 179.834 L 132.318 180.009 L 132.66 180.166 L 133.006 180.306 L 133.358 180.43 L 133.713 180.536 L 134.073 180.627 L 134.435 180.701 L 134.801 180.759 L 135.168 180.802 L 135.537 180.83 L 136.278 180.84 L 137.019 180.792 L 137.756 180.687 L 138.485 180.529 L 139.202 180.318 L 139.901 180.057 L 140.58 179.748 L 141.234 179.393 L 141.858 178.994 L 142.449 178.553 L 142.775 178.502 L 143.093 178.432 L 143.404 178.344 L 143.706 178.238 L 144 178.116 L 144.285 177.978 L 144.561 177.824 L 144.828 177.656 L 145.086 177.474 L 145.333 177.279 L 145.57 177.071 L 145.796 176.851 L 146.012 176.62 L 146.216 176.379 L 146.59 175.867 L 146.914 175.322 L 147.188 174.75 L 147.407 174.154 L 147.57 173.543 L 147.63 173.232 L 147.674 172.919 L 147.703 172.606 L 147.717 172.291 L 147.714 171.976 L 147.695 171.662 L 147.66 171.35 L 147.607 171.039 L 147.932 170.701 L 148.211 170.342 L 148.447 169.964 L 148.644 169.57 L 148.805 169.162 L 148.932 168.741 L 149.03 168.311 L 149.101 167.873 L 149.148 167.431 L 149.175 166.985 L 149.181 166.095 L 149.145 165.221 L 149.092 164.381 L 149.127 163.956 L 149.189 163.533 L 149.274 163.11 L 149.374 162.687 L 149.6 161.842 L 149.818 160.997 L 149.91 160.574 L 149.983 160.151 L 150.031 159.727 L 150.048 159.303 L 150.028 158.877 L 149.966 158.451 L 149.855 158.024 L 149.689 157.596 L 149.957 157.221 L 150.188 156.823 L 150.383 156.403 L 150.542 155.967 L 150.664 155.517 L 150.751 155.056 L 150.802 154.589 L 150.818 154.118 L 150.798 153.648 L 150.743 153.18 L 150.654 152.72 L 150.529 152.27 L 150.371 151.834 L 150.178 151.415 L 149.951 151.017 L 149.689 150.643 L 149.833 150.303 L 149.939 149.957 L 150.012 149.606 L 150.055 149.251 L 150.07 148.893 L 150.06 148.534 L 150.029 148.175 L 149.98 147.818 L 149.838 147.111 L 149.66 146.425 L 149.291 145.158 L 149.494 144.86 L 149.647 144.548 L 149.757 144.224 L 149.831 143.89 L 149.877 143.549 L 149.902 143.203 L 149.918 142.506 L 149.938 141.818 L 149.968 141.484 L 150.022 141.159 L 150.105 140.846 L 150.227 140.546 L 150.394 140.264 L 150.613 140 L 150.73 139.592 L 150.868 139.208 L 151.024 138.844 L 151.198 138.499 L 151.387 138.169 L 151.591 137.853 L 152.034 137.249 L 152.514 136.668 L 153.019 136.088 L 153.537 135.489 L 154.053 134.852 L 154.106 134.462 L 154.197 134.101 L 154.322 133.765 L 154.476 133.45 L 154.655 133.154 L 154.856 132.873 L 155.073 132.604 L 155.304 132.343 L 156.277 131.319 L 156.513 131.051 L 156.737 130.772 L 156.945 130.479 L 157.135 130.168 L 157.299 129.944 L 157.432 129.707 L 157.536 129.459 L 157.62 129.202 L 157.742 128.673 L 157.842 128.141 L 157.964 127.625 L 158.046 127.38 L 158.15 127.147 L 158.281 126.929 L 158.444 126.727 L 158.645 126.545 L 158.889 126.385 L 159.117 126.094 L 159.327 125.79 L 159.519 125.474 L 159.693 125.147 L 159.848 124.811 L 159.984 124.467 L 160.1 124.115 L 160.196 123.758 L 160.272 123.396 L 160.326 123.03 L 160.359 122.663 L 160.37 122.294 L 160.359 121.926 L 160.325 121.559 L 160.268 121.194 L 160.188 120.834 L 160.441 120.478 L 160.65 120.105 L 160.817 119.717 L 160.946 119.317 L 161.039 118.907 L 161.099 118.489 L 161.13 118.066 L 161.133 117.64 L 161.112 117.213 L 161.07 116.788 L 161.01 116.367 L 160.934 115.952 L 160.747 115.152 L 160.533 114.404 L 160.839 113.997 L 161.107 113.567 L 161.338 113.119 L 161.531 112.654 L 161.686 112.176 L 161.802 111.688 L 161.88 111.193 L 161.92 110.693 L 161.92 110.192 L 161.882 109.693 L 161.805 109.197 L 161.688 108.71 L 161.531 108.232 L 161.335 107.768 L 161.099 107.32 L 160.822 106.891 L 160.991 106.644 L 161.145 106.389 L 161.285 106.127 L 161.411 105.858 L 161.621 105.304 L 161.776 104.733 L 161.876 104.149 L 161.922 103.557 L 161.914 102.964 L 161.852 102.374 L 161.738 101.793 L 161.571 101.226 L 161.352 100.679 L 161.082 100.156 L 160.928 99.9059 L 160.762 99.6639 L 160.582 99.4308 L 160.391 99.2072 L 160.186 98.9938 L 159.97 98.7914 L 159.741 98.6005 L 159.5 98.4218 L 159.535 98.0738 L 159.547 97.7241 L 159.538 97.3739 L 159.507 97.0245 L 159.455 96.677 L 159.382 96.3326 L 159.29 95.9925 L 159.178 95.6579 L 159.046 95.33 L 158.897 95.01 L 158.729 94.699 L 158.543 94.3984 L 158.34 94.1092 L 158.121 93.8326 L 157.885 93.5699 L 157.633 93.3222 L 157.86 93.0437 L 158.093 92.8051 L 158.333 92.6034 L 158.58 92.4356 L 158.833 92.2989 L 159.093 92.1901 L 159.359 92.1063 L 159.632 92.0446 L 159.911 92.0019 L 160.196 91.9753 L 160.786 91.9584 L 162.041 91.9863 L 162.502 91.9398 L 162.947 91.8558 L 163.375 91.7363 L 163.785 91.5832 L 164.178 91.3983 L 164.551 91.1836 L 164.906 90.941 L 165.24 90.6723 L 165.554 90.3796 L 165.847 90.0647 L 166.117 89.7295 L 166.366 89.3759 L 166.591 89.0058 L 166.792 88.6212 L 166.969 88.224 L 167.121 87.816 L 167.248 87.3992 L 167.348 86.9754 L 167.421 86.5467 L 167.467 86.1148 L 167.484 85.6817 L 167.473 85.2494 L 167.433 84.8196 L 167.362 84.3944 L 167.261 83.9756 L 167.128 83.5652 L 166.964 83.165 L 166.767 82.777 L 166.537 82.4031 L 166.273 82.0451 L 165.974 81.705 L 165.641 81.3847 L 165.361 81.0629 L 165.055 80.7943 L 164.726 80.5717 L 164.38 80.3881 L 164.018 80.2361 L 163.644 80.1086 L 162.878 79.8985 L 162.109 79.7002 L 161.733 79.5875 L 161.366 79.4562 L 161.014 79.2992 L 160.679 79.1092 L 160.365 78.879 L 160.076 78.6015 L 159.575 78.4179 L 159.06 78.2728 L 158.535 78.1666 L 158.004 78.0998 L 157.47 78.0725 L 156.937 78.0852 L 156.407 78.1382 L 155.886 78.2318 L 155.375 78.3664 L 154.88 78.5423 L 154.402 78.7599 L 153.947 79.0194 L 153.517 79.3213 L 153.116 79.6659 L 152.747 80.0534 L 152.414 80.4843 L 152.019 80.4414 L 151.625 80.4295 L 151.233 80.4473 L 150.843 80.4936 L 150.458 80.5671 L 150.078 80.6666 L 149.704 80.7907 L 149.338 80.9383 L 148.981 81.1081 L 148.633 81.2987 L 148.297 81.509 L 147.972 81.7376 L 147.661 81.9833 L 147.364 82.2449 L 147.083 82.5211 L 146.818 82.8105 L 146.61 82.4339 L 146.373 82.0792 L 146.11 81.747 L 145.823 81.4374 L 145.515 81.1509 L 145.186 80.8877 L 144.839 80.6482 L 144.476 80.4327 L 144.098 80.2416 L 143.709 80.0751 L 143.309 79.9337 L 142.9 79.8176 L 142.486 79.7271 L 142.066 79.6627 L 141.645 79.6247 L 141.223 79.6133 L 141.068 79.3263 L 140.896 79.0519 L 140.708 78.7903 L 140.506 78.5415 L 140.289 78.3059 L 140.06 78.0836 L 139.818 77.8748 L 139.565 77.6796 L 139.301 77.4983 L 139.027 77.331 L 138.745 77.178 L 138.454 77.0394 L 138.157 76.9154 L 137.853 76.8062 L 137.544 76.712 L 137.23 76.633 L 136.913 76.5693 L 136.593 76.5211 L 136.271 76.4887 L 135.947 76.4722 L 135.624 76.4718 L 135.301 76.4877 L 134.98 76.5201 L 134.661 76.5692 L 134.345 76.6351 L 134.034 76.718 L 133.727 76.8182 L 133.426 76.9357 L 133.132 77.0709 L 132.846 77.2239 L 132.568 77.3948 L 132.299 77.584 L 132.139 77.4351 L 131.974 77.3017 L 131.631 77.0774 L 131.272 76.9046 L 130.899 76.7763 L 130.516 76.6861 L 130.124 76.6273 L 129.728 76.593 L 129.328 76.5768 L 128.53 76.5715 L 127.753 76.5581 L 127.378 76.5316 L 127.016 76.483 L 126.67 76.4057 L 126.342 76.2929 L 125.963 75.998 L 125.561 75.7363 L 125.139 75.5083 L 124.7 75.3143 L 124.247 75.1548 L 123.783 75.0301 L 123.311 74.9407 L 122.834 74.8869 L 122.355 74.8692 L 121.877 74.888 L 121.402 74.9437 L 120.935 75.0366 L 120.478 75.1672 L 120.033 75.3358 L 119.605 75.543 L 119.195 75.789 L 118.911 75.6094 L 118.613 75.4498 L 118.305 75.3099 L 117.986 75.1897 L 117.659 75.089 L 117.326 75.0077 L 116.987 74.9454 L 116.644 74.9022 L 116.299 74.8778 L 115.952 74.8721 L 115.607 74.8849 L 115.263 74.916 L 114.923 74.9653 L 114.588 75.0326 L 114.26 75.1178 L 113.939 75.2207 L 113.537 74.9316 L 113.113 74.6865 L 112.669 74.4843 L 112.209 74.3243 L 111.735 74.2055 L 111.252 74.1271 L 110.763 74.0882 L 110.27 74.0879 L 109.777 74.1253 L 109.287 74.1995 L 108.804 74.3097 L 108.33 74.455 L 107.869 74.6344 L 107.423 74.8472 L 106.997 75.0924 L 106.594 75.3691 L 106.403 75.2578 L 106.211 75.1628 L 105.822 75.0179 L 105.429 74.9268 L 105.032 74.8817 L 104.633 74.875 L 104.233 74.8991 L 103.832 74.9464 L 103.433 75.0091 L 102.64 75.1502 L 102.25 75.2133 L 101.865 75.2613 L 101.487 75.2864 L 101.115 75.2811 L 100.753 75.2376 L 100.4 75.1484 L 100.013 75.0035 L 99.624 74.9051 L 99.2335 74.8488 L 98.8427 74.8304 L 98.4524 74.8457 L 98.0635 74.8904 L 97.677 74.9602 L 97.2937 75.0509 L 96.5404 75.2782 L 95.8108 75.538 L 95.112 75.7965 L 94.4512 76.0195 L 94.0409 75.8508 L 93.6313 75.74 L 93.2226 75.6795 L 92.815 75.6611 L 92.4088 75.6771 L 92.0042 75.7196 L 91.2011 75.8524 L 90.4079 75.9962 L 90.0155 76.0526 L 89.6264 76.0881 L 89.2408 76.0948 L 88.8589 76.0648 L 88.481 75.9903 L 88.1074 75.8633 L 87.7236 75.7649 L 87.3365 75.698 L 86.9475 75.6613 L 86.5579 75.6535 L 86.169 75.6734 L 85.7822 75.7197 L 85.3988 75.7911 L 85.02 75.8864 L 84.6472 76.0042 L 84.2818 76.1434 L 83.925 76.3027 L 83.5781 76.4807 L 83.2425 76.6763 L 82.9194 76.8881 L 82.6103 77.1149 L 82.3164 77.3554 L 81.9312 77.235 L 81.5503 77.171 L 81.1736 77.1568 L 80.8011 77.1852 L 80.4325 77.2494 L 80.0679 77.3425 L 79.707 77.4575 L 79.3498 77.5875 L 78.6458 77.8648 L 77.955 78.1189 L 77.6143 78.22 L 77.2766 78.2944 L 76.9416 78.3354 L 76.6094 78.3359 L 75.8713 78.2283 L 75.1565 78.1556 L 74.4635 78.0878 L 73.7911 77.9946 L 73.4622 77.929 L 73.1378 77.8457 L 72.818 77.741 L 72.5023 77.6111 L 72.1909 77.4522 L 71.8833 77.2605 L 71.5795 77.0322 L 71.2793 76.7636 L 71.0766 76.7643 L 70.8886 76.7472 L 70.7145 76.7132 L 70.5534 76.6632 L 70.4047 76.5983 L 70.2676 76.5194 L 70.1414 76.4274 L 70.0251 76.3234 L 69.8197 76.0827 L 69.6453 75.805 L 69.4957 75.4979 L 69.3648 75.169 L 69.1345 74.4764 L 68.9053 73.788 L 68.7758 73.4645 L 68.6282 73.1649 L 68.4563 72.8968 L 68.2539 72.6679 L 68.3101 72.3214 L 68.3171 71.9848 L 68.2824 71.6568 L 68.2138 71.3364 L 68.1188 71.0223 L 68.0051 70.7133 L 67.7519 70.1062 L 67.5154 69.5055 L 67.4224 69.2047 L 67.3565 68.902 L 67.3252 68.5961 L 67.3363 68.2861 L 67.3972 67.9705 L 67.5156 67.6484 L 67.5182 67.2571 L 67.4747 66.8789 L 67.3933 66.5121 L 67.2822 66.1549 L 67.1495 65.8057 L 67.0032 65.4627 L 66.7023 64.7883 L 66.564 64.4534 L 66.4445 64.1179 L 66.3521 63.7798 L 66.2947 63.4376 L 66.2805 63.0895 L 66.3176 62.7337 L 66.4141 62.3685 L 66.4872 62.1818 L 66.5781 61.9922 L 66.6515 61.6852 L 66.6875 61.3811 L 66.6921 61.0795 L 66.6712 60.7801 L 66.6308 60.4829 L 66.5767 60.1874 L 66.4513 59.6007 L 66.3425 59.0182 L 66.3092 58.7279 L 66.2977 58.4378 L 66.3142 58.1478 L 66.3644 57.8575 L 66.4543 57.5668 L 66.5899 57.2754 L 66.5478 56.9297 L 66.5288 56.595 L 66.5305 56.2697 L 66.5507 55.9523 L 66.5872 55.6412 L 66.6378 55.3349 L 66.7719 54.7306 L 67.1096 53.5117 L 67.2771 52.8726 L 67.4199 52.1972 L 67.4521 51.8806 L 67.4576 51.5683 L 67.4413 51.2599 L 67.408 50.9549 L 67.3099 50.3527 L 67.2015 49.7576 L 67.1216 49.1653 L 67.1044 48.8689 L 67.1086 48.5717 L 67.1393 48.273 L 67.2011 47.9724 L 67.2989 47.6693 L 67.4375 47.3633 L 67.9563 46.7484 L 68.4547 46.0778 L 68.6894 45.7235 L 68.9108 45.3577 L 69.1161 44.9812 L 69.3026 44.5947 L 69.4676 44.1992 L 69.6083 43.7953 L 69.722 43.3838 L 69.8059 42.9657 L 69.8573 42.5417 L 69.8735 42.1125 L 69.8517 41.6791 L 69.7891 41.2422 L 69.9551 40.9569 L 70.1034 40.6615 L 70.2339 40.3571 L 70.3466 40.0449 L 70.4415 39.726 L 70.5184 39.4017 L 70.5773 39.073 L 70.6182 38.7411 L 70.641 38.4073 L 70.6458 38.0725 L 70.6323 37.7381 L 70.6007 37.4052 L 70.5508 37.0748 L 70.4826 36.7483 L 70.396 36.4268 L 70.291 36.1113 L 70.5502 35.7453 L 70.776 35.3566 L 70.9686 34.9482 L 71.1277 34.5234 L 71.2531 34.0853 L 71.3449 33.6371 L 71.4027 33.1821 L 71.4266 32.7233 L 71.4164 32.2639 L 71.3719 31.8071 L 71.2931 31.3561 L 71.1798 30.914 L 71.0318 30.4841 L 70.8491 30.0695 L 70.6315 29.6733 L 70.3789 29.2988 L 70.5219 28.8454 L 70.6109 28.3916 L 70.6496 27.9388 L 70.6417 27.4882 L 70.5907 27.0414 L 70.5004 26.5995 L 70.3744 26.1641 L 70.2163 25.7364 L 70.0299 25.3179 L 69.8188 24.9098 L 69.5867 24.5136 L 69.3372 24.1305 L 69.0739 23.7621 L 68.8005 23.4096 L 68.2383 22.7578 L 68.0533 22.3327 L 67.9259 21.9133 L 67.8488 21.4987 L 67.8144 21.0878 L 67.8154 20.6796 L 67.8443 20.2732 L 67.8937 19.8675 L 67.9562 19.4615 L 68.0905 18.6448 L 68.1475 18.232 L 68.1878 17.815 L 68.2039 17.3926 L 68.1885 16.964 L 68.1341 16.5281 L 68.0332 16.084 L 67.9024 15.7125 L 67.8271 15.3353 L 67.7987 14.9528 L 67.8088 14.5656 L 67.8488 14.1743 L 67.9104 13.7794 L 68.0639 12.9809 L 68.139 12.5785 L 68.2015 12.1746 L 68.2432 11.7698 L 68.2553 11.3647 L 68.2296 10.9599 L 68.1574 10.5557 L 68.0303 10.1529 L 67.9436 9.95215 L 67.8399 9.75192 L 67.6043 9.45605 L 67.4038 9.15321 L 67.2343 8.84398 L 67.0917 8.52894 L 66.9721 8.20865 L 66.8714 7.88369 L 66.7108 7.22207 L 66.4404 5.86813 L 66.2663 5.185 L 66.1554 4.84391 L 66.0234 4.50391 L 65.8334 4.10943 L 65.616 3.73849 L 65.373 3.39119 L 65.1061 3.06762 L 64.8172 2.7679 L 64.508 2.49214 L 64.1803 2.24043 L 63.8359 2.01288 L 63.4765 1.8096 L 63.1038 1.6307 L 62.7197 1.47627 L 62.326 1.34643 L 61.9243 1.24127 L 61.5165 1.16091 L 61.1044 1.10545 L 60.6896 1.075 L 60.2741 1.06965 L 59.8594 1.08952 L 59.4475 1.13471 L 59.0401 1.20532 L 58.6389 1.30147 L 58.2458 1.42325 L 57.8624 1.57077 L 57.4906 1.74414 L 57.1321 1.94347 L 56.7887 2.16884 L 56.4622 2.42039 L 56.1543 2.6982 L 55.8668 3.00238 L 55.6015 3.33304 L 55.3602 3.69029 L 55.1445 4.07422 L 55.012 4.22725 L 54.8944 4.38516 L 54.7005 4.71428 L 54.5559 5.05899 L 54.4532 5.41668 L 54.3855 5.78475 L 54.3455 6.16061 L 54.3262 6.54165 L 54.3204 6.92528 L 54.321 7.68989 L 54.313 8.06567 L 54.2901 8.43364 L 54.2451 8.7912 L 54.1709 9.13574 L 54.0603 9.46467 L 53.9062 9.77539 L 53.8016 9.88124 L 53.6936 9.96638 L 53.5825 10.032 L 53.4681 10.0794 L 53.3507 10.1096 L 53.2304 10.1241 L 52.9812 10.1101 L 52.7212 10.0472 L 52.4512 9.94509 L 52.1719 9.81337 L 51.8839 9.66175 L 51.2849 9.33757 L 50.9754 9.18437 L 50.6601 9.05 L 50.3397 8.94415 L 50.015 8.8765 L 49.6867 8.85673 L 49.5214 8.86783 L 49.3555 8.89453 L 49.0908 8.87904 L 48.8336 8.81544 L 48.5822 8.71071 L 48.335 8.57181 L 48.0901 8.4057 L 47.846 8.21935 L 47.3531 7.81381 L 46.8426 7.41092 L 46.5766 7.22788 L 46.3011 7.0664 L 46.0144 6.93344 L 45.7148 6.83598 L 45.4007 6.78097 L 45.0703 6.77539 L 44.877 6.69059 L 44.6845 6.62262 L 44.3017 6.53336 L 43.9221 6.49996 L 43.5456 6.51474 L 43.1723 6.57005 L 42.8023 6.65824 L 42.4356 6.77162 L 42.0723 6.90255 L 41.356 7.18639 L 40.6537 7.44846 L 40.3079 7.55217 L 39.9659 7.62746 L 39.6275 7.66666 L 39.293 7.66211 L 39.0099 7.51526 L 38.7138 7.41587 L 38.4071 7.35803 L 38.0923 7.33583 L 37.772 7.34336 L 37.4486 7.37472 L 36.8024 7.48529 L 36.1737 7.62028 L 35.5824 7.73243 L 35.307 7.76518 L 35.0485 7.7745 L 34.8092 7.75448 L 34.5918 7.69922 L 34.4748 7.35434 L 34.3303 7.02913 L 34.1626 6.72067 L 33.9763 6.42607 L 33.5651 5.86685 L 33.132 5.32825 L 32.7119 4.78707 L 32.5179 4.50827 L 32.3403 4.22011 L 32.1836 3.91971 L 32.0522 3.60416 L 31.9504 3.27056 L 31.8828 2.91602 L 31.6774 2.53011 L 31.4462 2.1629 L 31.191 1.81518 L 30.9131 1.48777 L 30.614 1.18146 L 30.2954 0.897066 L 29.9587 0.635389 L 29.6055 0.397235 L 29.2372 0.183412 L 28.8553 -0.00527661 L 28.4615 -0.168024 L 28.0572 -0.304025 L 27.6438 -0.412475 L 27.2231 -0.492566 L 26.7964 -0.543494 L 26.3652 -0.564453 L 26.3652 -0.564453"
       transform="scale(0.264583, 0.264583)" />
  </g>
  <g
     inkscape:label="B.Cu"
     inkscape:groupmode="layer"
     id="g856"
     style="display:inline">
    <circle
       style="display:inline;fill:#ff0000;fill-opacity:1;stroke:none;stroke-width:0.011498;stroke-linecap:round;stroke-miterlimit:4;stroke-dasharray:none;stroke-opacity:1"
       id="circle1295"
       cx="13.512328"
       cy="17.276302"
       r="2.2995958" />
  </g>
  <g
     inkscape:label="B.Mask"
     inkscape:groupmode="layer"
     id="g858"
     style="display:inline">
    <circle
       style="display:inline;fill:#eeeeee;fill-opacity:1;stroke:none;stroke-width:0.01;stroke-linecap:round;stroke-miterlimit:4;stroke-dasharray:none;stroke-opacity:1"
       id="path1785"
       cx="13.512328"
       cy="17.276302"
       r="2" />
  </g>
  <g
     inkscape:label="B.SilkS"
     inkscape:groupmode="layer"
     id="g860"
     style="display:inline" />
  <g
     inkscape:label="F.Cu"
     inkscape:groupmode="layer"
     id="g862"
     style="display:inline">
    <path
       id="path1271"
       style="display:inline;fill:#800000;stroke-width:436.109;stroke-linecap:round"
       d="m 8.8709053,11.033912 c 0,0.493475 -0.4366269,0.893516 -0.9752339,0.893516 -0.5386071,0 -0.9752341,-0.181819 -0.9752341,-0.893516 0,-0.629255 0.4366274,-0.893517 0.9752341,-0.893517 0.5386066,0 0.9752339,0.299273 0.9752339,0.893517 z"
       sodipodi:nodetypes="sssss" />
    <path
       id="path1291"
       style="display:inline;fill:#800000;stroke-width:436.109;stroke-linecap:round"
       d="m 15.137954,11.033912 c 0,0.493475 0.436626,0.893516 0.975233,0.893516 0.538607,0 0.975235,-0.181819 0.975235,-0.893516 0,-0.629255 -0.436628,-0.893517 -0.975235,-0.893517 -0.538606,0 -0.975233,0.299273 -0.975233,0.893517 z"
       sodipodi:nodetypes="sssss" />
  </g>
  <g
     inkscape:label="F.Mask"
     inkscape:groupmode="layer"
     id="g864"
     style="display:inline">
    <path
       id="path12477"
       style="display:inline;fill:#eeeeee;stroke-width:397.015;stroke-linecap:round"
       d="m 8.7834827,11.033912 c 0,0.449239 -0.3974865,0.813419 -0.8878114,0.813419 -0.4903249,0 -0.8878115,-0.16552 -0.8878115,-0.813419 0,-0.572847 0.397487,-0.81342 0.8878115,-0.81342 0.4903245,0 0.8878114,0.272446 0.8878114,0.81342 z"
       sodipodi:nodetypes="sssss" />
    <path
       id="path15095"
       style="display:inline;fill:#eeeeee;stroke-width:397.015;stroke-linecap:round"
       d="m 15.225376,11.033912 c 0,0.449239 0.397487,0.813419 0.887811,0.813419 0.490325,0 0.887812,-0.16552 0.887812,-0.813419 0,-0.572847 -0.397487,-0.81342 -0.887812,-0.81342 -0.490324,0 -0.887811,0.272446 -0.887811,0.81342 z"
       sodipodi:nodetypes="sssss" />
  </g>
  <g
     inkscape:label="F.SilkS"
     inkscape:groupmode="layer"
     id="g866"
     style="display:inline">
    <path
       id="path8285"
       style="color:#000000;fill:#000000;fill-opacity:1;stroke:#000000;stroke-width:0.0377953;stroke-linecap:round;stroke-miterlimit:4;stroke-dasharray:none;stroke-opacity:1"
       d="m 45.320312,32.525391 c -2.9218,0 -5.585487,0.89624 -7.558593,2.402343 -1.973105,1.506104 -3.300782,2.865131 -3.300781,5.28711 0,2.421978 1.271356,5.69891 3.210937,7.611328 1.939582,1.912414 5.604808,3.884768 7.734375,3.884766 2.015138,0 5.281121,-1.814145 7.220703,-3.726563 1.939578,-1.912414 3.667969,-3.365131 3.667969,-5.787109 0,-2.421978 -0.612835,-5.159913 -2.585938,-6.666016 -1.973106,-1.506103 -5.466866,-3.005859 -8.388672,-3.005859 z m 0,1.949218 c 2.519452,0 4.782289,0.788163 6.375,2.003907 1.592712,1.215743 2.501954,2.811548 2.501954,4.542968 0,1.731421 -0.967514,3.812555 -2.59375,5.416016 -1.626237,1.603457 -3.555906,3.460938 -5.980469,3.460938 -2.424559,0 -4.957748,-1.857481 -6.583985,-3.460938 -1.626236,-1.603461 -2.595703,-3.684595 -2.595703,-5.416016 0,-1.73142 0.909244,-3.327225 2.501953,-4.542968 1.592712,-1.215742 3.855552,-2.003907 6.375,-2.003907 z"
       transform="scale(0.26458333)" />
    <path
       style="color:#000000;display:inline;fill:#000000;stroke-width:0.105044;stroke-linecap:round;-inkscape-stroke:none"
       d="M 6.9577913,0.15430943 C 6.2197114,0.15425691 5.6167227,0.7571752 5.6166408,1.4952551 v 2.101e-4 c 2.101e-4,0.1741212 0.045921,0.3412149 0.111198,0.5010082 -0.4422406,0.2256261 -0.741165,0.6695779 -0.7414591,1.1792774 v 2.101e-4 2.101e-4 c 3.151e-4,0.3091388 0.1115247,0.6033374 0.303436,0.8401422 -0.1919113,0.2368059 -0.3031493,0.5310045 -0.303436,0.8401434 v 2.1e-4 c 4.41e-5,0.4407196 0.2251786,0.8386108 0.5783549,1.0869547 -0.093249,0.1854575 -0.1578983,0.383891 -0.1581808,0.5935368 v 2.101e-4 4.202e-4 c 3.88e-5,0.02736 0.00444,0.054367 0.00616,0.081654 C 5.1463704,6.8711902 4.9866433,7.2174872 4.9863807,7.587608 v 2.101e-4 C 4.9864858,7.9638834 5.1513778,8.3130827 5.422762,8.5646 5.2885762,8.7772994 5.1966285,9.0140444 5.1964678,9.2685144 v 2.101e-4 2.101e-4 C 5.1966779,9.6448654 5.3615899,9.9938515 5.632849,10.245306 5.4986633,10.458005 5.4067155,10.69475 5.4065548,10.94922 v 2.1e-4 2.1e-4 c 4.202e-4,0.335173 0.1322141,0.651384 0.3551374,0.896358 -0.08651,0.180117 -0.144855,0.372521 -0.1450503,0.573841 v 2.1e-4 c 2.1e-4,0.550632 0.3463043,1.017447 0.8370655,1.221131 -0.1209387,0.204716 -0.2066238,0.427924 -0.2068044,0.669447 v 2.1e-4 2.1e-4 c 4.201e-4,0.359634 0.1490378,0.696396 0.3984258,0.944981 -0.2495655,0.248711 -0.3981706,0.585538 -0.3984258,0.945391 v 2.1e-4 c 1.029e-4,0.311711 0.1099123,0.609813 0.303436,0.846914 -0.3163322,0.251147 -0.5135525,0.629744 -0.5135231,1.04387 v 2.1e-4 c 3.152e-4,0.309069 0.1115573,0.60319 0.3034361,0.839937 -0.1919912,0.236879 -0.303205,0.531102 -0.3034361,0.840348 v 2.11e-4 2.1e-4 c 3.152e-4,0.266211 0.096832,0.515696 0.2435287,0.734894 -0.1467794,0.219331 -0.2432892,0.468934 -0.2435287,0.735304 v 2.1e-4 c 4.73e-5,0.414112 0.1973589,0.792573 0.513728,1.043664 -0.1936635,0.237194 -0.3035947,0.535248 -0.3036409,0.84712 v 2.1e-4 c 3.151e-4,0.266212 0.096832,0.515696 0.2435287,0.734894 -0.1467794,0.219332 -0.2432892,0.468934 -0.2435287,0.735304 v 2.1e-4 2.1e-4 c 3.151e-4,0.209646 0.064932,0.408081 0.1581808,0.593537 -0.3531763,0.248344 -0.5783108,0.646235 -0.5783549,1.086955 v 2.1e-4 c 3.151e-4,0.209646 0.064932,0.40808 0.1581808,0.593537 -0.3531762,0.248344 -0.5783108,0.646235 -0.5783549,1.086955 1.03e-4,0.31171 0.1099123,0.609812 0.3034361,0.846913 -0.3163323,0.251147 -0.5135525,0.629744 -0.5135231,1.04387 1.05e-4,0.440644 0.2252301,0.838455 0.5783549,1.086749 -0.093267,0.185515 -0.1579371,0.384035 -0.1581808,0.593741 v 2.1e-4 2.1e-4 c 2.1e-4,0.375931 0.1651221,0.724917 0.4363812,0.976372 -0.1341857,0.212699 -0.2261335,0.449444 -0.2262942,0.703914 v 2.1e-4 2.1e-4 c 3.151e-4,0.386851 0.1748386,0.745998 0.4618217,0.998734 -0.017555,0.08671 -0.041493,0.172455 -0.041648,0.261173 v 4.2e-4 2.1e-4 c 3.151e-4,0.386851 0.1748386,0.745998 0.4618217,0.998734 -0.017555,0.08671 -0.041493,0.172455 -0.041648,0.261173 v 2.1e-4 4.2e-4 c 2.1e-4,0.27488 0.09819,0.534921 0.2544017,0.758899 -0.021584,0.0961 -0.044255,0.192419 -0.044315,0.291126 v 2.1e-4 2.1e-4 c 3.151e-4,0.266212 0.096832,0.515696 0.2435287,0.734894 -0.1467794,0.219332 -0.2432892,0.468934 -0.2435287,0.735304 v 2.1e-4 2.11e-4 c 4.202e-4,0.335172 0.1322141,0.651383 0.3551374,0.896357 -0.08651,0.180117 -0.144855,0.372521 -0.1450504,0.573841 v 2.1e-4 c 6.62e-5,0.222481 0.067529,0.435398 0.1723365,0.630055 -0.1048523,0.194736 -0.1723102,0.407691 -0.1723365,0.630262 v 2.1e-4 c 3.152e-4,0.266336 0.096947,0.51581 0.2437336,0.735098 -0.1467868,0.21929 -0.2434458,0.468763 -0.2437336,0.7351 v 2.1e-4 2.1e-4 c 3.152e-4,0.359695 0.1488068,0.696548 0.3982211,0.945186 -0.2494143,0.248639 -0.3978996,0.585493 -0.3982211,0.945187 v 2.1e-4 c 1.051e-4,0.376065 0.1649971,0.725265 0.4363813,0.976782 -0.1341343,0.212626 -0.2260873,0.449332 -0.2262942,0.70371 v 2.1e-4 2.1e-4 c 2.101e-4,0.406661 0.1929071,0.780055 0.5036752,1.03238 -0.049348,0.141226 -0.083297,0.287366 -0.083501,0.437818 v 2.1e-4 c -5.26e-5,0.738176 0.602976,1.341204 1.3411504,1.341152 h 2.101e-4 2.101e-4 c 0.03338,-5.7e-5 0.066632,-0.0014 0.099914,-0.0039 0.2373616,-0.01791 0.4591105,-0.109212 0.6540597,-0.243529 0.070631,0.01141 0.1407479,0.02168 0.2082414,0.02626 0.215058,0.137891 0.461307,0.220838 0.717866,0.221166 h 2.1e-4 c 0.727505,5.3e-5 1.321035,-0.586407 1.338075,-1.309966 0.111843,0.02974 0.225999,0.04937 0.342416,0.04944 h 2.1e-4 c 0.738176,5.3e-5 1.341204,-0.602976 1.341152,-1.341152 -3.3e-5,-0.376099 -0.164827,-0.725383 -0.436177,-0.976986 0.134043,-0.21258 0.225887,-0.449216 0.22609,-0.703504 v -2.1e-4 c -8.8e-5,-0.209692 -0.06465,-0.408372 -0.15777,-0.593947 0.352977,-0.2484 0.577934,-0.646177 0.577944,-1.08675 -7.9e-5,-0.266432 -0.09641,-0.516262 -0.243118,-0.735714 0.146531,-0.219179 0.242845,-0.468589 0.243118,-0.734689 v -2.1e-4 c -7e-5,-0.335367 -0.131819,-0.651722 -0.354727,-0.896973 0.08629,-0.179956 0.144464,-0.372149 0.14464,-0.573226 v -2.1e-4 c 1.2e-5,-0.184694 -0.05084,-0.361098 -0.123713,-0.528911 0.203372,0.118793 0.433294,0.189176 0.673345,0.189161 h 2.1e-4 c 0.198694,-2.11e-4 0.390851,-0.04837 0.567276,-0.131305 0.01213,0.100406 0.0352,0.197776 0.06955,0.292974 -0.180287,0.233401 -0.297062,0.510437 -0.297281,0.808136 v 2.11e-4 c 5.7e-5,0.311776 0.109868,0.609758 0.303436,0.846913 -0.316292,0.251123 -0.513513,0.629596 -0.513523,1.043664 3.7e-5,0.52431 0.315622,0.980369 0.779825,1.198768 -0.226086,0.245935 -0.359374,0.564523 -0.359651,0.901898 v 2.1e-4 2.1e-4 c 1.05e-4,0.201267 0.05844,0.393523 0.144845,0.573636 -0.222931,0.245113 -0.354687,0.561287 -0.354932,0.896562 v 2.1e-4 2.11e-4 c 4.2e-4,0.502343 0.289154,0.950529 0.729764,1.179482 0.294538,0.828682 1.06615,1.427935 1.988441,1.427935 0.689562,0 1.293383,-0.340076 1.681312,-0.854094 0.03082,0.0022 0.0614,0.0077 0.09232,0.0078 h 2.1e-4 2.1e-4 c 0.738176,5.4e-5 1.341204,-0.602976 1.341152,-1.341151 0,-0.107774 -0.03622,-0.210093 -0.06175,-0.31431 0.417359,-0.235112 0.692054,-0.668035 0.692015,-1.1563 -1.05e-4,-0.359749 -0.14866,-0.696812 -0.398016,-0.945596 0.249285,-0.248673 0.397755,-0.585369 0.398016,-0.944981 v -2.1e-4 c -2.4e-5,-0.309321 -0.111106,-0.603723 -0.303025,-0.840758 0.191699,-0.236773 0.302775,-0.530763 0.303025,-0.839733 v -2.1e-4 c -1.02e-4,-0.375947 -0.164974,-0.725037 -0.436176,-0.976576 0.134102,-0.212613 0.225886,-0.449362 0.226089,-0.703709 v -2.1e-4 c 1.2e-5,-0.06304 -0.02732,-0.121681 -0.03611,-0.183827 0.228456,0.16899 0.506294,0.263994 0.795623,0.26425 h 2.1e-4 c 0.509707,-2.1e-4 0.953755,-0.299061 1.179483,-0.741254 0.15982,0.06528 0.326865,0.110796 0.501009,0.110993 h 2.1e-4 2.1e-4 c 0.209708,-2.1e-4 0.408227,-0.06491 0.593741,-0.158181 0.248294,0.353125 0.646106,0.57823 1.086749,0.578355 h 2.1e-4 c 0.279675,-2.1e-4 0.538345,-0.108218 0.763617,-0.268353 0.0098,0.555214 0.368036,1.024405 0.876457,1.214976 -0.01409,0.07776 -0.03982,0.153557 -0.04001,0.23286 v 2.1e-4 4.2e-4 c 8e-5,0.155296 0.0347,0.306496 0.0872,0.451974 -0.180287,0.233403 -0.297062,0.510437 -0.297282,0.808138 v 2.1e-4 2.1e-4 c 3.15e-4,0.516295 0.306422,0.968906 0.761976,1.191177 v 0.02565 c -0.215786,0.243946 -0.341513,0.555628 -0.341802,0.883638 v 2.1e-4 2.1e-4 c 2.1e-4,0.25471 0.08397,0.498016 0.21973,0.711916 -0.0041,0.0427 -0.0096,0.0853 -0.0096,0.128226 v 2.1e-4 c 2.1e-4,0.205566 0.05287,0.406124 0.143615,0.59005 0.0944,1.101922 1.002458,1.968744 2.116052,1.968744 0.566496,0 1.07758,-0.229366 1.458095,-0.594152 0.707218,-0.03523 1.275343,-0.618948 1.275293,-1.334586 8e-6,-0.155377 -0.03452,-0.306809 -0.08699,-0.452385 0.180174,-0.233364 0.296858,-0.510333 0.297076,-0.807932 v -2.1e-4 c 8e-6,-0.201467 -0.05819,-0.394146 -0.14464,-0.574457 0.222675,-0.245001 0.354412,-0.560928 0.354727,-0.895946 v -2.1e-4 c 8e-6,-0.155377 -0.03452,-0.306809 -0.08699,-0.452385 0.180174,-0.233364 0.296858,-0.510333 0.297076,-0.807932 v -2.1e-4 c -7e-5,-0.335367 -0.131819,-0.651721 -0.354727,-0.896973 0.08629,-0.179956 0.144465,-0.372149 0.14464,-0.573225 v -2.1e-4 c -2.9e-5,-0.262818 -0.0947,-0.50893 -0.237579,-0.726484 0.05238,-0.07761 0.0962,-0.158825 0.131304,-0.24558 0.0086,2.1e-4 0.01706,0.002 0.02565,0.002 0.1299,-6e-6 0.2571,-0.0228 0.380578,-0.0595 0.08367,0.463499 0.397644,0.840489 0.839527,1.006119 -0.01409,0.07776 -0.03982,0.153557 -0.04001,0.232861 v 2.1e-4 4.2e-4 c 2.1e-4,0.328107 0.125946,0.639831 0.341802,0.883843 v 0.146486 c -0.339837,0.250982 -0.551704,0.64263 -0.551889,1.070336 v 2.1e-4 c 1.05e-4,0.254412 0.09196,0.491242 0.226089,0.703914 -0.271201,0.251539 -0.436075,0.600629 -0.436177,0.976576 3.4e-5,0.3761 0.164828,0.725385 0.436177,0.976988 -0.134042,0.212581 -0.225887,0.449215 -0.226089,0.703504 v 2.1e-4 c -5.3e-5,0.738081 0.602865,1.341069 1.340945,1.341151 h 2.1e-4 4.2e-4 c 0.04574,-1.05e-4 0.09099,-0.0073 0.136434,-0.0121 0.34078,0.239132 0.751651,0.389604 1.201846,0.389604 0.56599,0 1.07515,-0.2303 1.455017,-0.593946 0.708667,-0.03366 1.278422,-0.618104 1.278371,-1.334792 -6.8e-5,-0.150557 -0.03401,-0.29687 -0.0833,-0.438228 0.310693,-0.252343 0.503238,-0.625575 0.50347,-1.032176 v -2.1e-4 c -1.3e-5,-0.182264 -0.04554,-0.359253 -0.117148,-0.526038 0.07135,-0.166175 0.11687,-0.34239 0.117148,-0.523986 v -4.2e-4 -2.1e-4 c -5e-5,-0.04286 -0.0057,-0.08539 -0.0098,-0.128022 0.135841,-0.213885 0.219616,-0.457175 0.219935,-0.711916 v -2.1e-4 c 9e-6,-0.201467 -0.05819,-0.394146 -0.144639,-0.574457 0.222674,-0.245001 0.354411,-0.560928 0.354726,-0.895946 v -2.1e-4 c -1.05e-4,-0.335422 -0.131921,-0.651948 -0.354931,-0.897178 0.08628,-0.179881 0.144613,-0.372017 0.144844,-0.573021 v -2.1e-4 c 3.3e-5,-0.30939 -0.111073,-0.603871 -0.303025,-0.840964 0.191667,-0.236715 0.302719,-0.530626 0.303025,-0.839528 v -2.1e-4 c -4.1e-5,-0.150589 -0.03401,-0.296836 -0.0833,-0.438229 0.29018,-0.235623 0.470394,-0.577421 0.493213,-0.953597 0.04661,-0.05387 0.09283,-0.108182 0.138074,-0.163515 0.374256,-0.200634 0.629758,-0.563952 0.691195,-0.984168 0.05426,-0.09196 0.108667,-0.187331 0.161668,-0.285998 0.425311,-0.23436 0.699534,-0.6758 0.699812,-1.165942 v -2.1e-4 c 2e-5,-0.04417 -0.0098,-0.08741 -0.01416,-0.131304 0.391297,-0.241985 0.644118,-0.66134 0.644418,-1.129013 v -2.1e-4 c 8e-6,-0.155377 -0.03452,-0.30681 -0.08699,-0.452385 0.180175,-0.233365 0.296859,-0.510334 0.297077,-0.807933 v -2.1e-4 c 5.6e-5,-0.311908 -0.10981,-0.610056 -0.303436,-0.847324 0.316187,-0.251073 0.513437,-0.629508 0.513523,-1.043459 -2.2e-5,-0.359872 -0.148582,-0.696923 -0.398016,-0.945802 0.249244,-0.248651 0.397731,-0.585216 0.398016,-0.944777 v -2.1e-4 c -3e-5,-0.488243 -0.274878,-0.921034 -0.69222,-1.156094 0.02563,-0.104209 0.06186,-0.206519 0.06196,-0.31431 v -2.1e-4 C 41.91277,25.364317 41.628311,24.924503 41.205,24.694837 l 0.227732,-0.1828 c 0.131389,-0.07317 0.249022,-0.167481 0.348981,-0.279842 l 2.11e-4,-2.1e-4 0.06545,-0.05252 c 0.103326,-0.0829 0.187241,-0.170726 0.273688,-0.257684 0.173981,0.07959 0.358802,0.133333 0.551478,0.133561 h 2.1e-4 c 0.737988,-8.2e-5 1.340864,-0.60296 1.340947,-1.340946 5.2e-5,-0.738081 -0.602866,-1.34107 -1.340947,-1.341152 h -2.1e-4 c -0.02728,1.6e-5 -0.05424,0.0043 -0.08145,0.0059 -0.251903,-0.266447 -0.598474,-0.426048 -0.96878,-0.426124 -0.488264,-3.9e-5 -0.921187,0.274656 -1.156299,0.692015 -0.104217,-0.02553 -0.206536,-0.06175 -0.314311,-0.06175 -0.549495,2.1e-4 -1.021433,0.345732 -1.224823,0.843016 -0.01194,-3.16e-4 -0.02375,-0.0027 -0.0357,-0.0027 h -2.1e-4 -2.1e-4 c -0.05354,7.7e-5 -0.104568,0.01879 -0.157565,0.02523 -0.12419,-0.612569 -0.666263,-1.075668 -1.312635,-1.07567 h -2.1e-4 -2.1e-4 c -0.07907,2.1e-4 -0.154703,0.0258 -0.232245,0.0398 -0.193327,-0.515613 -0.672985,-0.880103 -1.237954,-0.88015 h -2.1e-4 c -0.359492,2.1e-4 -0.696107,0.14868 -0.944777,0.397811 -0.248905,-0.249379 -0.585952,-0.397831 -0.945802,-0.397811 h -2.1e-4 c -0.209609,2.1e-4 -0.408083,0.0648 -0.593537,0.157976 -0.248384,-0.353093 -0.646282,-0.578145 -1.086955,-0.57815 h -2.1e-4 c -0.308938,2.1e-4 -0.602938,0.111194 -0.839732,0.30282 -0.237056,-0.191846 -0.531469,-0.302845 -0.840759,-0.30282 h -2.1e-4 c -0.201076,2.1e-4 -0.393268,0.05835 -0.573226,0.14464 -0.245309,-0.222948 -0.561738,-0.354718 -0.897179,-0.354727 -0.37593,7.9e-5 -0.725016,0.164792 -0.976576,0.435971 -0.212797,-0.134082 -0.449626,-0.225879 -0.70412,-0.225884 h -2.1e-4 c -0.26603,3.15e-4 -0.515366,0.09662 -0.734484,0.243118 -0.219523,-0.146763 -0.469397,-0.243089 -0.735921,-0.243118 -0.37593,7.9e-5 -0.725016,0.164792 -0.976576,0.435972 -0.212797,-0.134083 -0.449626,-0.22588 -0.70412,-0.225885 h -2.1e-4 c -0.26603,3.15e-4 -0.515366,0.09662 -0.734484,0.243118 -0.219523,-0.146763 -0.469397,-0.243089 -0.73592,-0.243118 h -2.1e-4 c -0.406532,2.1e-4 -0.779645,0.192841 -1.031971,0.50347 -0.141495,-0.0493 -0.287743,-0.08331 -0.438434,-0.0833 -0.375931,7.9e-5 -0.725017,0.164792 -0.976576,0.435972 -0.212797,-0.134083 -0.449626,-0.22588 -0.70412,-0.225885 h -2.1e-4 -2.1e-4 c -0.150201,2.1e-4 -0.29599,0.03408 -0.436998,0.0833 -0.234716,-0.289044 -0.574815,-0.468651 -0.94929,-0.492596 -0.06364,-0.103099 -0.139369,-0.196618 -0.228347,-0.279022 -0.03522,-0.334916 -0.194313,-0.639778 -0.446229,-0.861685 0.01734,-0.08627 0.04091,-0.171697 0.04103,-0.259942 v -2.1e-4 c 0,-0.297875 -0.11677,-0.575152 -0.297076,-0.808753 0.05241,-0.145333 0.08688,-0.296438 0.08699,-0.451565 v -2.1e-4 c -3.2e-5,-0.3761 -0.164827,-0.725384 -0.436176,-0.976986 0.134043,-0.212581 0.225886,-0.449217 0.226089,-0.703505 v -2.1e-4 c 1.5e-5,-0.222641 -0.06746,-0.435668 -0.172336,-0.630467 0.104807,-0.194657 0.17227,-0.407574 0.172336,-0.630055 -2.3e-5,-0.155454 -0.03464,-0.306965 -0.08719,-0.452591 0.180194,-0.233273 0.296952,-0.510188 0.297281,-0.807727 v -2.1e-4 c 1.5e-5,-0.222641 -0.06746,-0.435668 -0.172336,-0.630467 0.104807,-0.194657 0.17227,-0.407574 0.172336,-0.630055 -1.7e-5,-0.04414 -0.0098,-0.08745 -0.01416,-0.131305 0.391297,-0.241953 0.644078,-0.661347 0.644417,-1.129013 v -2.1e-4 c 1.6e-5,-0.09884 -0.02234,-0.195302 -0.04391,-0.291536 0.156139,-0.223955 0.253783,-0.483877 0.253992,-0.758694 v -2.1e-4 c 4.5e-5,-0.2014989 -0.0582,-0.3941119 -0.144639,-0.5744569 0.222736,-0.2450161 0.35441,-0.5610837 0.354726,-0.8961526 v -2.1e-4 c -5.4e-5,-0.2977911 -0.11682,-0.5750114 -0.297075,-0.8085473 0.05243,-0.145395 0.08691,-0.2965778 0.08699,-0.4517691 v -8.71e-5 c -8.2e-5,-0.4679268 -0.252907,-0.8877438 -0.644417,-1.1298323 0.0043,-0.0436 0.01411,-0.086607 0.01416,-0.130484 V 6.1173076 C 17.752791,5.8508752 17.656463,5.6010449 17.509752,5.3815933 17.656284,5.1624147 17.752597,4.9130046 17.75287,4.6469042 V 4.6466941 C 17.752791,4.3802617 17.656463,4.1304315 17.509752,3.9109798 17.656284,3.6918012 17.752597,3.4423911 17.75287,3.1762907 v -2.101e-4 c -2.5e-5,-0.3870454 -0.174384,-0.7465779 -0.461412,-0.9995542 0.01743,-0.086551 0.04114,-0.1722252 0.04124,-0.2607621 V 1.9155542 C 17.332616,1.1774732 16.729629,0.57455599 15.991547,0.57460851 15.25356,0.57469045 14.650683,1.1775678 14.650601,1.9155542 v 2.101e-4 c 9.5e-5,0.112781 0.02377,0.223355 0.05191,0.332364 -0.03002,0.1435272 -0.05367,0.29652 -0.07406,0.453205 -0.160623,0.1067074 -0.291642,0.2452818 -0.393093,0.4088903 -0.0449,-0.00458 -0.08918,-0.01454 -0.134381,-0.014566 h -2.1e-4 -2.1e-4 c -0.02728,1.58e-5 -0.05424,0.00428 -0.08145,0.00595 -0.251904,-0.2664471 -0.598474,-0.4260482 -0.96878,-0.4261238 h -2.11e-4 c -0.107791,9.67e-5 -0.2101,0.036326 -0.31431,0.061959 -0.23506,-0.4173421 -0.667851,-0.6921895 -1.156094,-0.69222 -0.375931,7.88e-5 -0.725017,0.1647923 -0.976576,0.4359716 C 10.390329,2.3471066 10.1535,2.2553101 9.8990057,2.2553048 c -0.3701598,1.051e-4 -0.7165324,0.1598185 -0.96837,0.4261238 -0.00808,-5.252e-4 -0.016123,-0.00129 -0.024208,-0.00164 0.00468,-0.045091 0.022676,-0.088095 0.022772,-0.1335618 V 2.546018 2.5458079 C 8.9291252,2.0808822 8.6798853,1.6617617 8.2911423,1.4186426 8.2502531,0.71666622 7.6696082,0.15437561 6.9577871,0.15442708 Z m 0,0.43658713 c 0.501775,-3.571e-5 0.9038323,0.4018818 0.9043596,0.90353814 -2.101e-4,0.00966 -6.303e-4,0.019276 -0.00123,0.028928 l -0.00841,0.1454612 0.1310995,0.063601 c 0.3117547,0.15155 0.5089508,0.4666239 0.5090064,0.8132654 -2.101e-4,0.1004132 -0.017262,0.1999829 -0.050264,0.2948204 L 8.3188444,3.1952374 8.6881375,3.127123 c 0.052885,-0.00977 0.1066601,-0.014947 0.1604372,-0.015182 0.044585,1.79e-5 0.089056,0.00347 0.133151,0.010053 L 9.107696,3.140664 9.186068,3.0401342 C 9.3574749,2.820255 9.620215,2.6918751 9.89901,2.6917669 c 0.222726,5.2e-6 0.437474,0.082214 0.603385,0.2308089 L 10.689298,3.089989 10.82922,2.8817476 c 0.168112,-0.2501422 0.449102,-0.4000047 0.750486,-0.4000677 0.373133,2.31e-5 0.706609,0.2277312 0.842401,0.5752772 l 0.08063,0.2068044 0.205573,-0.084117 c 0.108559,-0.044505 0.224682,-0.067572 0.342007,-0.067704 0.278854,5.68e-5 0.541706,0.128442 0.713148,0.3483674 l 0.07837,0.1005298 0.12597,-0.01867 c 0.04391,-0.00655 0.08835,-0.010011 0.132741,-0.010053 0.06497,3.68e-5 0.129806,0.00722 0.193263,0.021132 l 0.172133,0.037545 0.07324,-0.1600265 c 0.08212,-0.1794532 0.220664,-0.3270057 0.394529,-0.4203799 l 0.100325,-0.053958 0.01313,-0.1134554 c 0.0222,-0.1916761 0.05195,-0.3735915 0.08822,-0.5410151 l 0.01231,-0.057036 -0.01764,-0.055599 c -0.02826,-0.08858 -0.04278,-0.1809133 -0.04288,-0.2738936 5.6e-5,-0.502002 0.402357,-0.9043029 0.904359,-0.9043586 0.502069,-3.57e-5 0.904509,0.4022905 0.904564,0.9043586 -1.05e-4,0.093974 -0.01502,0.1873409 -0.0439,0.2767655 l -0.04924,0.1526419 0.1311,0.092733 c 0.239892,0.1696285 0.382199,0.4445757 0.382219,0.7383814 -3.16e-4,0.2175147 -0.07898,0.4274336 -0.221576,0.5916913 l -0.124124,0.1432037 0.124124,0.1432037 c 0.14279,0.1644814 0.221511,0.3746965 0.221576,0.5925106 -3.16e-4,0.2175147 -0.07898,0.4274336 -0.221576,0.5916912 l -0.124124,0.1432038 0.124124,0.1432037 c 0.14279,0.1644813 0.221511,0.3746965 0.221576,0.5925106 -7.6e-5,0.064786 -0.0073,0.1293663 -0.02113,0.1926487 l -0.03775,0.1721317 0.160438,0.073244 c 0.322502,0.1472973 0.528643,0.46795 0.528705,0.8224981 -9.6e-5,0.1331994 -0.02975,0.2648263 -0.08658,0.3852965 l -0.06442,0.1368444 0.105454,0.1085309 c 0.163964,0.168806 0.25559,0.3945215 0.255633,0.6298504 -3.15e-4,0.2647654 -0.116438,0.5158163 -0.318003,0.6875025 l -0.146897,0.1249441 0.10607,0.1612586 c 0.09708,0.1476344 0.148783,0.3204163 0.148743,0.4971105 -2.1e-4,0.211363 -0.07454,0.415999 -0.209882,0.578355 l -0.07591,0.09109 0.03508,0.113251 c 0.02686,0.08671 0.04064,0.176969 0.04062,0.267738 -3.16e-4,0.354284 -0.20643,0.674689 -0.528705,0.821883 l -0.160438,0.07324 0.03775,0.172132 c 0.01393,0.06351 0.02111,0.128244 0.02113,0.193264 -5.4e-5,0.180993 -0.05451,0.357596 -0.156129,0.507369 l -0.08309,0.122686 0.08309,0.122688 c 0.101684,0.149867 0.156141,0.326673 0.156129,0.507779 -3.15e-4,0.235049 -0.09202,0.460464 -0.255837,0.62903 l -0.105454,0.108531 0.06463,0.136845 c 0.05701,0.12072 0.08656,0.252613 0.08658,0.386117 -5.4e-5,0.180993 -0.05451,0.357595 -0.156129,0.507368 l -0.08309,0.122687 0.08309,0.122687 c 0.101645,0.14981 0.1561,0.32654 0.156129,0.507574 -2.1e-4,0.222655 -0.08237,0.437197 -0.231013,0.602975 l -0.167823,0.187109 0.208651,0.140126 c 0.250366,0.168102 0.400246,0.449127 0.400272,0.750692 -1.05e-4,0.133143 -0.02978,0.264671 -0.08658,0.385091 l -0.06442,0.136844 0.105455,0.108531 c 0.164004,0.168847 0.255633,0.39467 0.255633,0.630056 -1.06e-4,0.09392 -0.01503,0.187188 -0.04391,0.27656 l -0.04924,0.152642 0.130895,0.09273 c 0.231574,0.163765 0.37278,0.426173 0.381808,0.70966 l 0.0033,0.100529 0.07837,0.06278 c 0.104533,0.08378 0.189251,0.189732 0.247837,0.310207 l 0.0634,0.130278 0.144639,-0.0076 c 0.01,-5.25e-4 0.01995,-8.4e-4 0.02996,-0.0011 0.31701,3.15e-4 0.610173,0.165884 0.773874,0.437408 l 0.105044,0.174184 0.181159,-0.09253 c 0.126846,-0.06479 0.267279,-0.09881 0.40971,-0.09909 0.222726,5e-6 0.437474,0.08221 0.603385,0.230809 l 0.186904,0.167413 0.139921,-0.208241 c 0.168113,-0.250142 0.449102,-0.400005 0.750487,-0.400068 0.142823,-1.2e-5 0.283699,0.03382 0.410942,0.09868 l 0.180954,0.09232 0.105043,-0.173978 c 0.163741,-0.271329 0.456774,-0.436928 0.77367,-0.437203 0.217872,2.4e-5 0.428192,0.07875 0.592717,0.221576 l 0.143203,0.124124 0.143204,-0.124124 c 0.164216,-0.142559 0.37403,-0.221264 0.591485,-0.221576 0.222726,5e-6 0.437474,0.08221 0.603385,0.230809 l 0.186904,0.167413 0.139921,-0.208241 c 0.168113,-0.250143 0.449102,-0.400005 0.750487,-0.400068 0.217871,2.4e-5 0.428192,0.07875 0.592716,0.221576 l 0.143204,0.124124 0.143204,-0.124124 c 0.164215,-0.142559 0.374029,-0.221264 0.591485,-0.221576 0.222726,5e-6 0.437474,0.08221 0.603385,0.230809 l 0.186904,0.167413 0.139921,-0.208241 c 0.168112,-0.250143 0.449102,-0.400005 0.750486,-0.400068 0.265131,7e-6 0.51661,0.116167 0.688528,0.318002 l 0.124944,0.146897 0.161259,-0.106068 c 0.147295,-0.09686 0.319596,-0.14855 0.495879,-0.148744 0.259115,-2.2e-5 0.505485,0.110863 0.677243,0.304872 l 0.163515,0.184852 0.163515,-0.184852 c 0.171561,-0.193784 0.417615,-0.304645 0.676423,-0.304872 0.34949,4e-6 0.666641,0.200377 0.816754,0.515985 l 0.113866,0.239631 0.213165,-0.157976 c 0.155419,-0.115048 0.343547,-0.17721 0.536911,-0.177466 0.30872,-1.8e-5 0.595584,0.157056 0.761976,0.417096 l 0.183827,0.287434 0.183826,-0.287434 c 0.166228,-0.259783 0.452751,-0.416818 0.761155,-0.417096 0.43279,3.7e-5 0.80249,0.303649 0.88692,0.728124 l 0.04903,0.246811 0.237579,-0.0835 c 0.09552,-0.03354 0.19584,-0.05082 0.297076,-0.05109 0.496771,2e-6 0.897041,0.394513 0.904359,0.891228 l 0.0043,0.296666 0.281895,-0.09253 c 0.09035,-0.0296 0.184972,-0.04475 0.280047,-0.04493 0.04609,1.3e-5 0.09211,0.0036 0.137665,0.01067 l 0.197367,0.03036 0.0478,-0.193879 c 0.100008,-0.404789 0.460728,-0.68736 0.877687,-0.687502 0.117374,0 0.233569,0.02288 0.342213,0.06729 l 0.205368,0.08391 0.08063,-0.206394 c 0.135898,-0.347414 0.469351,-0.575101 0.8424,-0.575072 0.278853,5.7e-5 0.541705,0.128442 0.713147,0.348368 l 0.07837,0.100529 0.125971,-0.01867 c 0.04397,-0.0066 0.08848,-0.01002 0.132945,-0.01005 0.502069,5.6e-5 0.904395,0.402497 0.904359,0.904565 -5.5e-5,0.501932 -0.402249,0.90419 -0.904153,0.904358 -0.17002,-2.1e-4 -0.336364,-0.04838 -0.480288,-0.138895 l -0.153051,-0.09622 -0.123098,0.132331 c -0.10594,0.113756 -0.217088,0.22237 -0.342417,0.322927 l -0.08289,0.06647 -0.01395,0.01682 c -0.07764,0.09324 -0.173196,0.16995 -0.281073,0.225475 l -0.01949,0.01005 -0.304052,0.243939 c -0.05318,0.04267 -0.11618,0.08209 -0.189571,0.132945 l -0.06258,0.04329 -0.02216,0.07283 c -0.0041,0.01365 -0.0085,0.02718 -0.01334,0.04062 l -0.08453,0.238195 0.247632,0.04924 c 0.424475,0.08443 0.728087,0.45413 0.728124,0.88692 -1.05e-4,0.117325 -0.0232,0.233449 -0.0677,0.342007 l -0.08412,0.205574 0.206804,0.08063 c 0.347546,0.135792 0.575254,0.469267 0.575277,0.8424 -3.15e-4,0.308436 -0.15725,0.59476 -0.417096,0.760949 l -0.28764,0.184031 0.28764,0.184031 c 0.260103,0.166355 0.417077,0.453021 0.417096,0.761772 -7.2e-5,0.347627 -0.198367,0.663264 -0.511472,0.814292 l -0.313694,0.151411 0.272661,0.216446 c 0.216393,0.171701 0.342467,0.432397 0.342418,0.708634 -2.1e-4,0.235083 -0.09184,0.460601 -0.255633,0.629235 l -0.105454,0.108532 0.06442,0.136843 c 0.05692,0.120684 0.08659,0.252477 0.08658,0.385912 -3.15e-4,0.354246 -0.20629,0.67464 -0.5285,0.821884 l -0.160233,0.07324 0.03755,0.171927 c 0.01387,0.06352 0.02096,0.128455 0.02093,0.193469 -3.15e-4,0.351485 -0.203278,0.670012 -0.52173,0.818806 l -0.06709,0.03139 -0.03406,0.06565 c -0.05845,0.112436 -0.124619,0.224348 -0.192853,0.339955 l -0.02462,0.04185 -0.0047,0.04842 c -0.03032,0.317912 -0.225158,0.595652 -0.513934,0.732022 l -0.04514,0.02113 -0.03139,0.03878 c -0.062,0.07647 -0.125549,0.151532 -0.190801,0.22568 l -0.05622,0.06381 0.0018,0.08514 c 6.1e-5,0.0028 2.1e-4,0.0056 2.1e-4,0.0084 -3.15e-4,0.31693 -0.166015,0.60997 -0.437408,0.77367 l -0.174183,0.105044 0.09253,0.181159 c 0.06492,0.127228 0.09885,0.267899 0.09889,0.410737 -3.15e-4,0.258776 -0.111274,0.504725 -0.305077,0.676217 l -0.184852,0.163515 0.184852,0.163515 c 0.194113,0.171767 0.305104,0.41825 0.305077,0.677449 -2.1e-4,0.176301 -0.05203,0.348602 -0.148949,0.495879 l -0.106069,0.161258 0.146898,0.124944 c 0.201853,0.171851 0.31811,0.423224 0.318207,0.688322 -3.15e-4,0.264766 -0.116438,0.515817 -0.318003,0.687503 l -0.146897,0.124944 0.10607,0.161258 c 0.09705,0.147588 0.14875,0.320269 0.148743,0.496905 -3.15e-4,0.194645 -0.06345,0.383834 -0.179928,0.539785 l -0.05478,0.07345 0.01395,0.09048 c 0.007,0.04508 0.01058,0.09062 0.01067,0.136229 v 2.1e-4 c 0,1.05e-4 0,3.15e-4 0,4.2e-4 -3.15e-4,0.147085 -0.03653,0.291872 -0.105453,0.421815 l -0.05437,0.102377 0.05437,0.102376 c 0.0692,0.13046 0.10541,0.275783 0.105453,0.423457 -2.1e-4,0.317068 -0.165906,0.610314 -0.437408,0.77408 l -0.174183,0.105044 0.09253,0.181159 c 0.0649,0.127179 0.09882,0.267751 0.09889,0.410531 3.5e-5,0.50184 -0.402021,0.903924 -0.903743,0.90436 -0.0047,-1.06e-4 -0.0093,-2.11e-4 -0.01395,-4.21e-4 l -0.0993,-0.0045 -0.06852,0.0716 c -0.307748,0.321741 -0.733444,0.521114 -1.211283,0.521114 -0.382217,0 -0.728238,-0.131624 -1.013301,-0.349803 l -0.07632,-0.05847 -0.09458,0.01682 c -0.05109,0.0091 -0.102813,0.01377 -0.154693,0.01395 -0.501998,-5.6e-5 -0.904282,-0.402388 -0.904359,-0.904359 v -2.1e-4 c 2.1e-4,-0.222582 0.08242,-0.437042 0.231014,-0.602769 l 0.167823,-0.187109 -0.20865,-0.140126 c -0.250366,-0.168102 -0.400247,-0.449127 -0.400274,-0.750692 8.2e-5,-0.301507 0.149956,-0.582417 0.400274,-0.750487 l 0.20865,-0.140126 -0.167823,-0.187108 C 33.867308,42.899406 33.785112,42.684839 33.784925,42.4622 v -2.11e-4 c 2.1e-4,-0.320066 0.168974,-0.615436 0.444588,-0.778183 l 0.107301,-0.06319 v -0.545939 l -0.06647,-0.06442 c -0.175839,-0.170239 -0.275103,-0.40419 -0.275329,-0.648931 0,-6.8e-5 0,-1.05e-4 0,-2.1e-4 3.15e-4,-0.101288 0.01768,-0.201728 0.05129,-0.297282 l 0.0835,-0.237579 -0.247016,-0.04903 c -0.424151,-0.08428 -0.727542,-0.453512 -0.728124,-0.885895 v -4.2e-4 c 0,-7e-5 0,-1.05e-4 0,-2.1e-4 5.8e-5,-0.02075 9.45e-4,-0.04147 0.0025,-0.06216 l 0.02934,-0.410326 -0.356368,0.205573 c -0.137406,0.07925 -0.293147,0.12104 -0.45177,0.121046 -0.04609,-1.3e-5 -0.09211,-0.0036 -0.137664,-0.01067 l -0.197162,-0.03036 -0.04801,0.193674 c -0.03438,0.138617 -0.101107,0.267162 -0.194699,0.375038 l -0.124124,0.142999 0.124124,0.143203 c 0.142827,0.164525 0.221551,0.374845 0.221575,0.592717 -2.1e-4,0.176284 -0.05189,0.348584 -0.148742,0.495879 l -0.10607,0.161258 0.146897,0.124944 c 0.201793,0.171882 0.317947,0.42325 0.318002,0.688322 -2.1e-4,0.235083 -0.09184,0.460602 -0.255633,0.629236 l -0.105454,0.108531 0.06442,0.136844 c 0.05693,0.120683 0.08659,0.252477 0.08658,0.385911 -3.15e-4,0.264766 -0.116437,0.515817 -0.318002,0.687503 l -0.146897,0.124944 0.10607,0.161259 c 0.09705,0.147587 0.14875,0.320268 0.148742,0.496904 -2.1e-4,0.235083 -0.09184,0.460602 -0.255633,0.629236 l -0.105454,0.108531 0.06442,0.136844 c 0.05693,0.120682 0.08659,0.252476 0.08658,0.385911 3.6e-5,0.501771 -0.401913,0.903811 -0.903538,0.904359 -0.0036,-1.05e-4 -0.0073,-2.1e-4 -0.01087,-4.2e-4 l -0.09971,-0.0049 -0.06893,0.07222 c -0.307482,0.322083 -0.734915,0.520909 -1.213746,0.520909 -0.899342,0 -1.626627,-0.700296 -1.686851,-1.601298 l -0.0033,-0.0478 -0.02277,-0.04206 C 27.520437,45.2821 27.482501,45.133904 27.482315,44.983206 v -2.1e-4 c 1.1e-5,-0.04574 0.0035,-0.09142 0.01046,-0.136638 l 0.01375,-0.09027 -0.05457,-0.07345 c -0.11638,-0.155917 -0.179438,-0.345026 -0.179723,-0.539579 v -4.21e-4 c 3.15e-4,-0.244608 0.09958,-0.478368 0.275328,-0.64852 l 0.06647,-0.06442 v -0.481724 l -0.148128,-0.05026 c -0.36739,-0.124672 -0.613435,-0.467595 -0.613848,-0.85553 v -4.2e-4 c 3.15e-4,-0.23509 0.09199,-0.460636 0.255839,-0.629235 l 0.105453,-0.108532 -0.06463,-0.136844 c -0.05693,-0.120558 -0.08648,-0.252383 -0.08658,-0.385707 0,-6.7e-5 0,-1.05e-4 0,-2.1e-4 3.15e-4,-0.101288 0.01768,-0.201728 0.05129,-0.297281 l 0.0835,-0.237579 -0.247016,-0.04903 c -0.424288,-0.08431 -0.727737,-0.453742 -0.728124,-0.886304 v -2.11e-4 c 1.4e-5,-0.04608 0.0036,-0.09213 0.01067,-0.137663 L 26.262816,38.9758 26.068937,38.928 c -0.05815,-0.01435 -0.114675,-0.03457 -0.168849,-0.06011 l -0.136844,-0.06442 -0.108531,0.105453 c -0.168623,0.163958 -0.394254,0.255773 -0.629441,0.256044 -0.349467,-9.9e-5 -0.666509,-0.200571 -0.816549,-0.51619 l -0.113866,-0.239631 -0.213163,0.157976 c -0.155391,0.115099 -0.343545,0.177358 -0.536913,0.177671 -0.172347,-2.1e-4 -0.341037,-0.04974 -0.486237,-0.142589 l -0.245169,-0.156744 -0.08186,0.279432 c -0.113119,0.386116 -0.465103,0.649934 -0.86743,0.650162 -0.26501,-2.1e-4 -0.516168,-0.116585 -0.687912,-0.318413 l -0.125355,-0.147307 -0.161463,0.106684 c -0.05252,0.03471 -0.108436,0.06391 -0.167003,0.08699 l -0.205779,0.08104 0.08371,0.204753 c 0.04444,0.108696 0.06732,0.224989 0.06729,0.342417 -2.1e-4,0.222582 -0.08242,0.437043 -0.231014,0.60277 l -0.167822,0.187108 0.208651,0.140126 c 0.250316,0.16807 0.400191,0.44898 0.400272,0.750487 -3.15e-4,0.258836 -0.11123,0.504894 -0.305077,0.676423 l -0.184852,0.163515 0.184852,0.163515 c 0.19407,0.171729 0.305057,0.418103 0.305077,0.677243 -3.15e-4,0.308529 -0.157341,0.594974 -0.417301,0.761156 l -0.287844,0.184031 0.287844,0.184031 c 0.260117,0.166283 0.417191,0.452842 0.417301,0.761566 3e-5,0.373049 -0.227656,0.706502 -0.575072,0.8424 l -0.206394,0.08063 0.08391,0.205368 c 0.04442,0.108644 0.06729,0.224839 0.06729,0.342212 3.6e-5,0.501994 -0.402215,0.904376 -0.904154,0.904564 -0.05001,-1.05e-4 -0.09985,-0.0044 -0.149153,-0.01272 l -0.140742,-0.02401 -0.07817,0.119405 c -0.303419,0.46175 -0.816713,0.763617 -1.406393,0.763617 -0.758867,0 -1.38648,-0.502905 -1.60376,-1.20164 l -0.03016,-0.09704 -0.09376,-0.03939 c -0.335854,-0.141171 -0.553505,-0.468468 -0.55394,-0.832756 v -4.21e-4 c 3.15e-4,-0.264832 0.116545,-0.516019 0.318208,-0.687706 L 15.552266,45.220757 15.446197,45.0595 c -0.09697,-0.147362 -0.148762,-0.319893 -0.148948,-0.49629 v -4.2e-4 c 3.15e-4,-0.259373 0.111925,-0.505937 0.306514,-0.677449 l 0.07386,-0.06504 v -0.445204 l -0.155719,-0.04678 c -0.383596,-0.114925 -0.644799,-0.465757 -0.644827,-0.8662 8e-6,-0.347687 0.198312,-0.663442 0.511471,-0.814497 l 0.313695,-0.151411 -0.272663,-0.216446 c -0.216248,-0.171586 -0.342303,-0.431974 -0.342416,-0.708018 v -2.11e-4 c 2.1e-4,-0.235164 0.09194,-0.460792 0.255838,-0.62944 l 0.105454,-0.108531 -0.06463,-0.136845 c -0.0569,-0.120497 -0.08645,-0.252247 -0.08658,-0.385501 v -2.1e-4 c 0,-6.7e-5 0,-1.05e-4 0,-2.1e-4 1.05e-4,-0.07147 0.0087,-0.142486 0.02564,-0.211933 l 0.187314,-0.769977 -0.555171,0.565224 c -0.16985,0.172946 -0.401816,0.270517 -0.644213,0.270815 -0.251476,1.6e-5 -0.491272,-0.104664 -0.662472,-0.28887 l -0.253992,-0.273072 -0.113865,0.355138 c -0.02623,0.08172 -0.06413,0.159311 -0.112224,0.230398 l -0.08289,0.122483 0.08309,0.122482 c 0.101684,0.149866 0.15614,0.326672 0.156129,0.507779 -2.1e-4,0.176284 -0.05189,0.348584 -0.148743,0.495879 l -0.10607,0.161258 0.146897,0.124944 c 0.201793,0.171882 0.317947,0.42325 0.318003,0.688322 -3.15e-4,0.217515 -0.07898,0.427434 -0.221576,0.591692 l -0.124123,0.143203 0.124123,0.143204 c 0.14279,0.164481 0.221512,0.374697 0.221576,0.592511 -7e-6,0.349353 -0.200355,0.666366 -0.515779,0.816549 l -0.239221,0.113866 0.157565,0.213164 c 0.115005,0.155561 0.177179,0.343661 0.177261,0.537117 -2.1e-4,0.222582 -0.08242,0.437044 -0.231014,0.60277 l -0.167823,0.187109 0.208651,0.140126 c 0.250366,0.168102 0.400247,0.449127 0.400273,0.750691 3.6e-5,0.502065 -0.402322,0.904489 -0.904359,0.904565 -0.134136,-8.5e-5 -0.266613,-0.03002 -0.387758,-0.08761 l -0.205163,-0.09766 -0.08945,0.209061 c -0.01305,0.03053 -0.0397,0.07284 -0.07242,0.133766 l -0.03078,0.05745 0.0057,0.06504 c 0.0022,0.02544 0.0034,0.05098 0.0035,0.07652 -3.15e-4,0.501771 -0.402532,0.903873 -0.904359,0.903949 -0.190995,-2.1e-4 -0.376783,-0.06092 -0.531167,-0.173363 l -0.05191,-0.03796 -0.06422,-0.0037 C 9.9914744,48.187923 9.8988313,48.1788 9.8171547,48.160291 l -0.1040183,-0.02359 -0.082475,0.0675 c -0.1435409,0.117406 -0.3195823,0.187926 -0.5044967,0.20188 h -2.101e-4 c -0.02249,0.0017 -0.045148,0.0026 -0.067704,0.0027 -0.5019389,-2.1e-4 -0.9041894,-0.40257 -0.9041537,-0.904565 2.101e-4,-0.142681 0.034341,-0.283079 0.099299,-0.41012 L 8.3461294,46.912695 8.1715356,46.807446 C 7.8999739,46.643801 7.7342604,46.350812 7.7339232,46.033776 v -4.2e-4 c 3.151e-4,-0.222588 0.082574,-0.437076 0.2312186,-0.602769 l 0.1678228,-0.187109 -0.20865,-0.140126 C 7.6739339,44.93532 7.5239549,44.654402 7.5238362,44.352864 7.5241513,44.044181 7.6815538,43.757601 7.9417529,43.591505 L 8.230007,43.407473 7.9417529,43.223442 C 7.6816115,43.057382 7.5242521,42.770891 7.5238362,42.462287 v -4.2e-4 c 3.151e-4,-0.217597 0.079036,-0.42765 0.2217804,-0.591895 L 7.870151,41.726767 7.7456166,41.583563 C 7.6028268,41.419267 7.5241208,41.209133 7.5238362,40.991462 v -2.1e-4 c 6.19e-5,-0.180978 0.054515,-0.357605 0.1561282,-0.507369 L 7.763056,40.361196 7.6799644,40.238509 C 7.5783832,40.088793 7.5239307,39.912267 7.5238362,39.731345 v -2.1e-4 c 2.1e-4,-0.17656 0.052203,-0.349066 0.1493582,-0.496494 L 7.779469,39.073177 7.6323671,38.948027 C 7.4306258,38.776441 7.3141935,38.525558 7.3137491,38.260731 v -2.1e-4 c 0,-6.9e-5 0,-1.05e-4 0,-2.1e-4 3.152e-4,-0.217654 0.078998,-0.427813 0.2217805,-0.5921 L 7.6600639,37.525006 7.5355296,37.381802 C 7.3928217,37.2176 7.314122,37.007652 7.3137491,36.790112 v -2.1e-4 c 0,-6.8e-5 0,-1.05e-4 0,-2.1e-4 9.56e-5,-0.09058 0.013768,-0.180608 0.040621,-0.267122 l 0.035288,-0.113455 -0.076116,-0.0913 c -0.1353474,-0.162269 -0.209568,-0.366648 -0.20988,-0.577943 v -4.2e-4 c 0,-6.8e-5 0,-1.05e-4 0,-2.1e-4 2.101e-4,-0.09402 0.015099,-0.187534 0.04411,-0.276969 l 0.049649,-0.152847 -0.1313044,-0.09273 C 6.8262989,35.047276 6.6838105,34.772539 6.683488,34.478926 v -2.1e-4 c 2.101e-4,-0.09402 0.015099,-0.187535 0.04411,-0.27697 L 6.7772467,34.0489 6.6459423,33.956166 C 6.4061805,33.78679 6.2637026,33.512141 6.2633139,33.218604 v -2.1e-4 c 0,-6.8e-5 0,-1.05e-4 0,-2.1e-4 2.101e-4,-0.222644 0.082536,-0.437239 0.2312187,-0.602974 l 0.1678227,-0.187109 -0.20865,-0.140126 C 6.2034874,32.120053 6.0535368,31.839221 6.0532269,31.537898 v -4.2e-4 c 3.151e-4,-0.193367 0.062571,-0.381521 0.1776706,-0.536911 L 6.3888735,30.787402 6.149243,30.673537 C 5.8336239,30.523496 5.6331515,30.206455 5.6330528,29.856988 5.6330286,29.509203 5.8314516,29.193318 6.1447292,29.042285 L 6.4586287,28.890874 6.1855565,28.674428 C 5.9691931,28.502832 5.8432312,28.242353 5.8431398,27.966204 5.8431745,27.616676 6.0436564,27.299516 6.35933,27.14945 L 6.5989605,27.035584 6.4409845,26.82242 C 6.3258778,26.667021 6.2636185,26.478891 6.2633139,26.285508 v -2.1e-4 C 6.263419,25.935853 6.4638935,25.618785 6.7795041,25.468749 L 7.0191346,25.354883 6.8611586,25.14172 C 6.7460929,24.986375 6.6838357,24.798324 6.683488,24.605012 v -4.2e-4 c 3.151e-4,-0.217653 0.078998,-0.427813 0.2217805,-0.5921 L 7.0298028,23.869287 6.9052685,23.726084 C 6.7624713,23.561779 6.6837632,23.35167 6.683488,23.133983 6.6835909,22.857852 6.8095486,22.597349 7.0259047,22.42576 L 7.2989768,22.209313 6.9850774,22.057902 C 6.6718534,21.906895 6.4734409,21.59113 6.473401,21.243405 6.473611,21.025677 6.5523538,20.815439 6.6951814,20.6511 L 6.8197158,20.507895 6.6951814,20.364691 C 6.5524735,20.200489 6.4737739,19.990541 6.473401,19.773001 v -4.2e-4 c 3.151e-4,-0.25901 0.1115835,-0.505119 0.3056924,-0.676628 l 0.1850572,-0.16372 -0.1850572,-0.16372 C 6.5850202,18.597034 6.4737476,18.35106 6.473401,18.09209 v -2.1e-4 c 5.46e-5,-0.347702 0.1984608,-0.663494 0.5116764,-0.814497 L 7.2989768,17.125972 7.0259047,16.909526 C 6.8095948,16.737972 6.6836414,16.477581 6.683488,16.201508 v -2.11e-4 C 6.6838031,15.892555 6.8411562,15.60586 7.1014047,15.439732 L 7.3896588,15.2557 7.1014047,15.071669 C 6.8413127,14.905641 6.6839596,14.619265 6.683488,14.310719 v -4.2e-4 c 3.151e-4,-0.23525 0.092198,-0.461016 0.2562484,-0.629646 l 0.2942038,-0.30241 -0.4168915,-0.06545 C 6.3759069,13.243386 6.0534989,12.866473 6.0532269,12.419926 v -2.1e-4 c 2.101e-4,-0.17656 0.052204,-0.349066 0.1493582,-0.496494 L 6.3088597,11.761758 6.1617578,11.636608 C 5.9600165,11.465022 5.8435842,11.214139 5.8431398,10.949312 v -2.1e-4 c 0,-6.9e-5 0,-1.06e-4 0,-2.11e-4 2.101e-4,-0.222644 0.082536,-0.437238 0.2312187,-0.602974 L 6.2421813,10.158809 6.0335312,10.018683 C 5.7833134,9.8507602 5.6333627,9.5699284 5.6330528,9.2686058 V 9.2681856 C 5.6332629,9.0455417 5.7155886,8.8309472 5.8642714,8.6652117 L 6.0320942,8.4781029 5.8234442,8.337977 C 5.5730635,8.1699451 5.4230845,7.8890273 5.4229658,7.5874893 5.4231758,7.3088005 5.5516955,7.0462526 5.771538,6.8749581 L 5.8722726,6.7963803 5.8531925,6.6702052 C 5.8465748,6.6262623 5.8432344,6.5816987 5.8431398,6.53726 v -2.101e-4 c -1e-6,-1.05e-4 0,-3.151e-4 0,-4.201e-4 C 5.84356,6.3433906 5.9057846,6.1554174 6.0208104,6.0001284 L 6.1787864,5.7869636 5.9391559,5.6730985 C 5.6234823,5.5230323 5.4230004,5.2058712 5.4229658,4.8563431 5.4232809,4.5973152 5.5345419,4.3512319 5.7286582,4.1797158 L 5.9137154,4.0159949 5.7286582,3.8522752 C 5.5345924,3.6808042 5.4233229,3.434806 5.4229658,3.1758527 v -2.101e-4 c 0,-6.83e-5 0,-1.051e-4 0,-2.101e-4 C 5.4233859,2.7732083 5.6872763,2.4212284 6.0733322,2.3082079 L 6.3529696,2.2263485 6.1958151,1.9809732 C 6.102881,1.8357432 6.0534391,1.6671557 6.0532269,1.4947362 6.053437,0.99276576 6.4557925,0.59054677 6.9577902,0.59058248 Z"
       id="rect1078" />
    <path
       id="circle8852"
       style="display:inline;stroke:#000000;stroke-width:0.377953;stroke-linecap:round;stroke-miterlimit:4;stroke-dasharray:none"
       d="m 31.818359,26.646484 c -1.901499,0.06087 -3.427734,2.028025 -3.427734,4.445313 0,2.455657 0.26829,4.447265 3.517578,4.447265 3.204197,10e-7 3.519531,-1.991608 3.519531,-4.447265 0,-2.455657 -1.576055,-4.445313 -3.519531,-4.445313 -0.03037,0 -0.05966,-9.66e-4 -0.08984,0 z m 1.376953,3.432484 c 0.596394,2.81e-4 1.079798,0.734794 1.080079,1.331188 -2.81e-4,0.596394 -0.483685,1.079797 -1.080079,1.080078 -0.596394,-2.81e-4 -1.079797,-0.483684 -1.080078,-1.080078 2.81e-4,-0.596394 0.483684,-1.330907 1.080078,-1.331188 z"
       transform="scale(0.26458333)"
       sodipodi:nodetypes="sssssssccccc" />
    <path
       id="path12194"
       style="display:inline;stroke:#000000;stroke-width:0.377953;stroke-linecap:round;stroke-miterlimit:4;stroke-dasharray:none"
       d="m 58.328125,26.646484 c -1.901502,0.06087 -3.429688,2.028025 -3.429687,4.445313 0,2.455657 0.315349,4.447266 3.519531,4.447265 3.249286,0 3.519531,-1.991608 3.519531,-4.447265 0,-2.455657 -1.576057,-4.445313 -3.519531,-4.445313 -0.03037,0 -0.05966,-9.66e-4 -0.08984,0 z m -1.197266,3.428419 c 0.597157,-7.98e-4 1.081751,0.738096 1.082032,1.335253 -2.81e-4,0.597157 -0.484875,1.080876 -1.082032,1.080078 -0.596394,-2.81e-4 -1.079797,-0.483684 -1.080078,-1.080078 2.81e-4,-0.596394 0.483684,-1.334972 1.080078,-1.335253 z"
       transform="scale(0.26458333)"
       sodipodi:nodetypes="sssssssccccc" />
    <path
       id="path4308"
       style="display:inline;fill:#000000;fill-opacity:1;stroke:#000000;stroke-width:0.055538;stroke-linecap:round;stroke-miterlimit:4;stroke-dasharray:none"
       d="m 11.253907,9.9933179 a 0.75476225,0.37058515 26.681408 0 0 -0.295024,0.1347921 0.75476225,0.37058515 26.681408 0 0 0.507984,0.669857 0.75476225,0.37058515 26.681408 0 0 0.33339,0.119405 c 0.0095,0.126829 0.0174,0.311147 0.0053,0.501419 -0.01089,0.17169 -0.03939,0.345299 -0.08904,0.473721 -0.04965,0.128423 -0.110215,0.199023 -0.182186,0.227322 -0.04509,0.01773 -0.08012,0.01502 -0.137254,-0.01005 -0.05714,-0.02507 -0.12566,-0.07778 -0.186903,-0.139716 -0.122487,-0.123868 -0.208651,-0.271431 -0.208651,-0.271431 -0.05448,-0.09547 -0.176166,-0.128485 -0.271431,-0.07365 -0.09546,0.05448 -0.128484,0.176166 -0.07365,0.27143 0,0 0.103682,0.184069 0.27061,0.352881 0.08347,0.08441 0.184158,0.168715 0.310208,0.224038 0.126049,0.05532 0.287933,0.07696 0.441921,0.01641 0.171663,-0.0675 0.287782,-0.203583 0.364165,-0.354932 0.03557,0.06019 0.07824,0.117456 0.130689,0.16885 0.107273,0.105122 0.269695,0.179201 0.444999,0.163515 0.595391,-0.05328 0.876251,-0.612617 0.876251,-0.612617 0.05136,-0.09683 0.01453,-0.216955 -0.08227,-0.268354 -0.09699,-0.0511 -0.217044,-0.0139 -0.268147,0.08309 0,0 -0.21042,0.37098 -0.560712,0.402325 -0.06046,0.0054 -0.0874,-0.0075 -0.13192,-0.05109 -0.04452,-0.04363 -0.09254,-0.125238 -0.129458,-0.222602 -0.07296,-0.192436 -0.102793,-0.332745 -0.114276,-0.543067 -0.0051,-0.09275 -0.01173,-0.211228 -0.01764,-0.315951 a 0.37058515,0.75476225 63.318592 0 0 0.490546,-0.140947 0.37058515,0.75476225 63.318592 0 0 0.507983,-0.669857 0.37058515,0.75476225 63.318592 0 0 -0.840963,0.0078 0.37058515,0.75476225 63.318592 0 0 -0.274303,0.178492 0.75476225,0.37058515 26.681408 0 0 -0.274303,-0.178492 0.75476225,0.37058515 26.681408 0 0 -0.54594,-0.1425882 z" />
  </g>
  <g
     inkscape:label="Dwgs.User"
     inkscape:groupmode="layer"
     id="g868"
     style="display:inline" />
  <g
     inkscape:label="Drill"
     inkscape:groupmode="layer"
     id="g870"
     style="display:inline" />
</svg>
