<?xml version="1.0" encoding="UTF-8" standalone="no"?>
<!-- Created with Inkscape (http://www.inkscape.org/) -->

<svg
   width="210mm"
   height="297mm"
   viewBox="0 0 210 297"
   version="1.1"
   id="svg5"
   inkscape:version="1.1 (c4e8f9ed74, 2021-05-24)"
   sodipodi:docname="alpaka_sketch.svg"
   xmlns:inkscape="http://www.inkscape.org/namespaces/inkscape"
   xmlns:sodipodi="http://sodipodi.sourceforge.net/DTD/sodipodi-0.dtd"
   xmlns="http://www.w3.org/2000/svg"
   xmlns:svg="http://www.w3.org/2000/svg">
  <sodipodi:namedview
     id="namedview7"
     pagecolor="#ffffff"
     bordercolor="#666666"
     borderopacity="1.0"
     inkscape:pageshadow="2"
     inkscape:pageopacity="0.0"
     inkscape:pagecheckerboard="0"
     inkscape:document-units="mm"
     showgrid="false"
     inkscape:zoom="0.8315052"
     inkscape:cx="209.25906"
     inkscape:cy="444.97617"
     inkscape:window-width="1920"
     inkscape:window-height="1051"
     inkscape:window-x="0"
     inkscape:window-y="0"
     inkscape:window-maximized="1"
     inkscape:current-layer="layer1" />
  <defs
     id="defs2" />
  <g
     inkscape:label="Konturen"
     inkscape:groupmode="layer"
     id="layer1"
     style="display:inline">
    <path
       id="path10703"
       style="display:inline;fill:#b2b2b2;fill-opacity:1;stroke:none;stroke-width:4.91339;stroke-linecap:round;stroke-miterlimit:4;stroke-dasharray:none"
       d="m 204.27148,119.67188 a 10.688694,10.688694 0 0 0 -10.68945,10.6875 10.688694,10.688694 0 0 0 1.68555,5.74804 10.688694,10.688694 0 0 0 -7.68555,10.25196 10.688694,10.688694 0 0 0 3.61133,8 10.688694,10.688694 0 0 0 -3.61133,8 10.688694,10.688694 0 0 0 6.09961,9.65234 10.688694,10.688694 0 0 0 -2.09961,6.34766 10.688694,10.688694 0 0 0 0.11914,1.57617 10.688694,10.688694 0 0 0 -4.11914,8.42383 10.688694,10.688694 0 0 0 4.73242,8.87109 10.688694,10.688694 0 0 0 -2.73242,7.13086 10.688694,10.688694 0 0 0 4.73242,8.86914 10.688694,10.688694 0 0 0 -2.73242,7.13086 10.688694,10.688694 0 0 0 3.76367,8.1289 10.688694,10.688694 0 0 0 -1.76367,5.8711 10.688694,10.688694 0 0 0 9.02735,10.55469 10.688694,10.688694 0 0 0 -3.02735,7.44531 10.688694,10.688694 0 0 0 4.9375,8.99805 10.688694,10.688694 0 0 0 -4.9375,9.00195 10.688694,10.688694 0 0 0 4.04688,8.37109 10.688694,10.688694 0 0 0 -6.04688,9.62891 10.688694,10.688694 0 0 0 3.61133,7.99805 10.688694,10.688694 0 0 0 -3.61133,8.00195 10.688694,10.688694 0 0 0 2.62109,6.99805 10.688694,10.688694 0 0 0 -2.62109,7.00195 10.688694,10.688694 0 0 0 6.04688,9.62695 10.688694,10.688694 0 0 0 -4.04688,8.37305 10.688694,10.688694 0 0 0 2.62109,6.99805 10.688694,10.688694 0 0 0 -2.62109,7.00195 10.688694,10.688694 0 0 0 2.09961,6.34765 10.688694,10.688694 0 0 0 -6.09961,9.65235 10.688694,10.688694 0 0 0 2.09961,6.34765 10.688694,10.688694 0 0 0 -6.09961,9.65235 10.688694,10.688694 0 0 0 4.04688,8.37109 10.688694,10.688694 0 0 0 -6.04688,9.62891 10.688694,10.688694 0 0 0 6.09961,9.65039 10.688694,10.688694 0 0 0 -2.09961,6.34961 10.688694,10.688694 0 0 0 4.73242,8.86914 10.688694,10.688694 0 0 0 -2.73242,7.13086 10.688694,10.688694 0 0 0 4.52149,8.7207 10.688694,10.688694 0 0 0 -0.52149,3.2793 10.688694,10.688694 0 0 0 4.52149,8.7207 10.688694,10.688694 0 0 0 -0.52149,3.2793 10.688694,10.688694 0 0 0 2.48047,6.83789 10.688694,10.688694 0 0 0 -0.48047,3.16211 10.688694,10.688694 0 0 0 2.62109,6.99805 10.688694,10.688694 0 0 0 -2.62109,7.00195 10.688694,10.688694 0 0 0 3.76367,8.1289 10.688694,10.688694 0 0 0 -1.76367,5.8711 10.688694,10.688694 0 0 0 1.84375,5.99805 10.688694,10.688694 0 0 0 -1.84375,6 10.688694,10.688694 0 0 0 2.62109,7 10.688694,10.688694 0 0 0 -2.62109,7 10.688694,10.688694 0 0 0 4.9375,9 10.688694,10.688694 0 0 0 -4.9375,9 10.688694,10.688694 0 0 0 4.73242,8.87109 10.688694,10.688694 0 0 0 -2.73242,7.12891 10.688694,10.688694 0 0 0 5.17188,9.14843 10.688694,10.688694 0 0 0 -1.17188,4.85157 10.688694,10.688694 0 0 0 10.68945,10.68945 10.688694,10.688694 0 0 0 0.79883,-0.0312 10.688694,10.688694 0 0 0 5.96289,-2.38477 c 0.95637,0.21673 1.95127,0.30916 2.95899,0.36719 a 10.688694,10.688694 0 0 0 6.27929,2.04883 10.688694,10.688694 0 0 0 10.68946,-10.68945 10.688694,10.688694 0 0 0 -0.041,-0.9043 c 0.25793,-0.48018 0.55354,-0.93631 0.76953,-1.44141 a 10.688694,10.688694 0 0 0 4.58203,1.03516 10.688694,10.688694 0 0 0 10.68946,-10.68945 10.688694,10.688694 0 0 0 -4.73047,-8.87305 10.688694,10.688694 0 0 0 2.73047,-7.12695 10.688694,10.688694 0 0 0 -2.09375,-6.34961 10.688694,10.688694 0 0 0 6.09375,-9.65039 10.688694,10.688694 0 0 0 -2.61719,-7.00391 10.688694,10.688694 0 0 0 2.61719,-6.99609 10.688694,10.688694 0 0 0 -3.75782,-8.13477 10.688694,10.688694 0 0 0 1.75782,-5.86328 10.688694,10.688694 0 0 0 -1.84375,-6.00195 10.688694,10.688694 0 0 0 1.32422,-2.72266 10.688694,10.688694 0 0 0 7.83007,3.41211 10.688694,10.688694 0 0 0 7.61524,-3.19922 10.688694,10.688694 0 0 0 -0.30274,2.51172 10.688694,10.688694 0 0 0 1.02344,4.55859 10.688694,10.688694 0 0 0 -3.02344,7.44141 10.688694,10.688694 0 0 0 4.04493,8.37109 10.688694,10.688694 0 0 0 -6.04493,9.62696 10.688694,10.688694 0 0 0 7.6211,10.23828 v 1.75195 a 10.688694,10.688694 0 0 0 -3.6211,8.00977 10.688694,10.688694 0 0 0 1.75977,5.86914 10.688694,10.688694 0 0 0 -3.75977,8.13086 10.688694,10.688694 0 0 0 6.54688,9.8457 c 2.32417,7.47411 9.10464,12.90039 17.25195,12.90039 6.32666,0 11.87096,-3.25497 15.125,-8.20703 a 10.688694,10.688694 0 0 0 1.76367,0.15039 10.688694,10.688694 0 0 0 10.68946,-10.68945 10.688694,10.688694 0 0 0 -0.79492,-4.04493 10.688694,10.688694 0 0 0 6.79492,-9.95507 10.688694,10.688694 0 0 0 -4.93164,-9.00196 10.688694,10.688694 0 0 0 4.93164,-8.99804 10.688694,10.688694 0 0 0 -3.60547,-8.00391 10.688694,10.688694 0 0 0 3.60547,-7.99609 10.688694,10.688694 0 0 0 -4.73047,-8.8711 10.688694,10.688694 0 0 0 2.73047,-7.12695 10.688694,10.688694 0 0 0 -0.79492,-4.04688 10.688694,10.688694 0 0 0 1.9746,-1.02734 10.688694,10.688694 0 0 0 8.13086,3.76172 10.688694,10.688694 0 0 0 10.25391,-7.6836 10.688694,10.688694 0 0 0 5.74609,1.6836 10.688694,10.688694 0 0 0 6.34961,-2.09961 10.688694,10.688694 0 0 0 9.65039,6.09961 10.688694,10.688694 0 0 0 7.44141,-3.02539 10.688694,10.688694 0 0 0 1.99609,0.70898 10.688694,10.688694 0 0 0 -0.125,1.62891 10.688694,10.688694 0 0 0 8.60547,10.47656 10.688694,10.688694 0 0 0 -0.60547,3.52149 10.688694,10.688694 0 0 0 1.02344,4.55859 10.688694,10.688694 0 0 0 -3.02344,7.44141 10.688694,10.688694 0 0 0 7.25391,10.11523 v 2.21484 a 10.688694,10.688694 0 0 0 -3.25391,7.66993 10.688694,10.688694 0 0 0 2.12305,6.38281 10.688694,10.688694 0 0 0 -0.12305,1.61719 10.688694,10.688694 0 0 0 1.30079,5.0996 c 0.64346,9.62661 8.48562,17.1836 18.13281,17.1836 5.13703,0 9.75861,-2.14487 13.05859,-5.60156 a 10.688694,10.688694 0 0 0 0.19531,0.008 10.688694,10.688694 0 0 0 10.68946,-10.68945 10.688694,10.688694 0 0 0 -1.02149,-4.56055 10.688694,10.688694 0 0 0 3.02149,-7.43945 10.688694,10.688694 0 0 0 -1.75782,-5.87305 10.688694,10.688694 0 0 0 3.75782,-8.12695 10.688694,10.688694 0 0 0 -1.02149,-4.56055 10.688694,10.688694 0 0 0 3.02149,-7.43945 10.688694,10.688694 0 0 0 -3.75782,-8.13477 10.688694,10.688694 0 0 0 1.75782,-5.86328 10.688694,10.688694 0 0 0 -2.61719,-7.00586 10.688694,10.688694 0 0 0 2.30078,-4.43164 10.688694,10.688694 0 0 0 1.62695,0.125 10.688694,10.688694 0 0 0 5.33985,-1.42969 10.688694,10.688694 0 0 0 -0.0274,0.74219 10.688694,10.688694 0 0 0 8.60547,10.47656 10.688694,10.688694 0 0 0 -0.60547,3.52149 10.688694,10.688694 0 0 0 3.25391,7.67187 v 3.12891 a 10.688694,10.688694 0 0 0 -5.25391,9.19922 10.688694,10.688694 0 0 0 2.73047,7.1289 10.688694,10.688694 0 0 0 -4.73047,8.8711 10.688694,10.688694 0 0 0 4.73047,8.87304 10.688694,10.688694 0 0 0 -2.73047,7.12696 10.688694,10.688694 0 0 0 10.6875,10.68945 10.688694,10.688694 0 0 0 1.83594,-0.16406 c 3.04215,2.32838 6.79064,3.75781 10.91016,3.75781 5.13046,0 9.73437,-2.15273 13.0332,-5.60156 a 10.688694,10.688694 0 0 0 0.2207,0.008 10.688694,10.688694 0 0 0 10.68946,-10.68945 10.688694,10.688694 0 0 0 -1.16797,-4.85352 10.688694,10.688694 0 0 0 5.16797,-9.14648 10.688694,10.688694 0 0 0 -1.2461,-5.00782 10.688694,10.688694 0 0 0 1.2461,-4.99218 10.688694,10.688694 0 0 0 -0.125,-1.61719 10.688694,10.688694 0 0 0 2.125,-6.38281 10.688694,10.688694 0 0 0 -1.75782,-5.87305 10.688694,10.688694 0 0 0 3.75782,-8.12695 10.688694,10.688694 0 0 0 -3.75977,-8.13477 10.688694,10.688694 0 0 0 1.75977,-5.86328 10.688694,10.688694 0 0 0 -3.60547,-8.00586 10.688694,10.688694 0 0 0 3.60547,-7.99414 10.688694,10.688694 0 0 0 -1.16797,-4.85547 10.688694,10.688694 0 0 0 5.16797,-9.14453 10.688694,10.688694 0 0 0 -0.002,-0.125 c 0.63842,-0.72546 1.26211,-1.46171 1.8711,-2.21289 a 10.688694,10.688694 0 0 0 6.07617,-8.65039 c 0.64914,-1.09984 1.29766,-2.19709 1.88867,-3.33399 a 10.688694,10.688694 0 0 0 6.16406,-9.67773 10.688694,10.688694 0 0 0 -0.24609,-2.28516 10.688694,10.688694 0 0 0 6.24609,-9.71484 10.688694,10.688694 0 0 0 -1.02148,-4.56055 10.688694,10.688694 0 0 0 3.02148,-7.43945 10.688694,10.688694 0 0 0 -4.04492,-8.375 10.688694,10.688694 0 0 0 6.04492,-9.625 10.688694,10.688694 0 0 0 -4.92968,-9.00391 10.688694,10.688694 0 0 0 4.92968,-8.99609 10.688694,10.688694 0 0 0 -6.79882,-9.95508 10.688694,10.688694 0 0 0 0.79882,-4.04492 10.688694,10.688694 0 0 0 -8.60351,-10.48242 10.688694,10.688694 0 0 0 0.1582,-0.48047 c 0.64219,-0.44501 1.29217,-0.84828 1.92188,-1.35352 l 2.73047,-2.1914 a 10.688694,10.688694 0 0 0 3.32226,-2.66407 l 0.625,-0.50195 c 1.29518,-1.03917 2.42761,-2.14877 3.48047,-3.2793 a 10.688694,10.688694 0 0 0 5.67773,1.64063 10.688694,10.688694 0 0 0 10.6875,-10.6875 10.688694,10.688694 0 0 0 -10.6875,-10.68945 10.688694,10.688694 0 0 0 -1.57226,0.11718 10.688694,10.688694 0 0 0 -8.42774,-4.11718 10.688694,10.688694 0 0 0 -9.95507,6.79492 10.688694,10.688694 0 0 0 -4.04493,-0.79492 10.688694,10.688694 0 0 0 -10.37304,8.125 10.688694,10.688694 0 0 0 -1.62696,-0.125 10.688694,10.688694 0 0 0 -3.3125,0.53124 10.688694,10.688694 0 0 0 -10.6875,-10.53124 10.688694,10.688694 0 0 0 -3.51757,0.60351 10.688694,10.688694 0 0 0 -10.48243,-8.60351 10.688694,10.688694 0 0 0 -8.99609,4.92773 10.688694,10.688694 0 0 0 -9.00391,-4.92773 10.688694,10.688694 0 0 0 -6.34765,2.09765 10.688694,10.688694 0 0 0 -9.65235,-6.09765 10.688694,10.688694 0 0 0 -7.99609,3.60351 10.688694,10.688694 0 0 0 -8.00391,-3.60351 10.688694,10.688694 0 0 0 -5.86328,1.75781 10.688694,10.688694 0 0 0 -8.13672,-3.75781 10.688694,10.688694 0 0 0 -8.86914,4.72656 10.688694,10.688694 0 0 0 -7.13086,-2.72656 10.688694,10.688694 0 0 0 -6.99414,2.61718 10.688694,10.688694 0 0 0 -7.00586,-2.61718 10.688694,10.688694 0 0 0 -8.86914,4.72656 10.688694,10.688694 0 0 0 -7.13086,-2.72656 10.688694,10.688694 0 0 0 -6.99414,2.61718 10.688694,10.688694 0 0 0 -7.00586,-2.61718 10.688694,10.688694 0 0 0 -9.14453,5.16601 10.688694,10.688694 0 0 0 -4.85547,-1.16601 10.688694,10.688694 0 0 0 -8.86914,4.72656 10.688694,10.688694 0 0 0 -7.13086,-2.72656 10.688694,10.688694 0 0 0 -4.8457,1.16992 10.688694,10.688694 0 0 0 -9.1543,-5.16992 10.688694,10.688694 0 0 0 -0.38867,0.0137 10.688694,10.688694 0 0 0 -2.92773,-3.66602 10.688694,10.688694 0 0 0 -4.51172,-8.38672 10.688694,10.688694 0 0 0 0.51758,-3.27148 10.688694,10.688694 0 0 0 -3.02149,-7.44727 10.688694,10.688694 0 0 0 1.02149,-4.55273 10.688694,10.688694 0 0 0 -4.73047,-8.87305 10.688694,10.688694 0 0 0 2.73047,-7.12695 10.688694,10.688694 0 0 0 -1.84375,-6.00195 10.688694,10.688694 0 0 0 1.84375,-5.99805 10.688694,10.688694 0 0 0 -1.02344,-4.5625 10.688694,10.688694 0 0 0 3.02344,-7.4375 10.688694,10.688694 0 0 0 -1.84375,-6.00195 10.688694,10.688694 0 0 0 1.84375,-5.99805 10.688694,10.688694 0 0 0 -0.24805,-2.28516 10.688694,10.688694 0 0 0 6.24805,-9.71484 10.688694,10.688694 0 0 0 -0.47852,-3.16406 10.688694,10.688694 0 0 0 2.47852,-6.83594 10.688694,10.688694 0 0 0 -1.75782,-5.875 10.688694,10.688694 0 0 0 3.75782,-8.12695 10.688694,10.688694 0 0 0 -3.02149,-7.44532 10.688694,10.688694 0 0 0 1.02149,-4.55468 10.688694,10.688694 0 0 0 -6.24805,-9.72071 10.688694,10.688694 0 0 0 0.24805,-2.27929 10.688694,10.688694 0 0 0 -2.61719,-7.00391 10.688694,10.688694 0 0 0 2.61719,-6.99609 10.688694,10.688694 0 0 0 -2.61719,-7.00391 10.688694,10.688694 0 0 0 2.61719,-6.99609 10.688694,10.688694 0 0 0 -4.51758,-8.72657 10.688694,10.688694 0 0 0 0.51758,-3.27343 10.688694,10.688694 0 0 0 -10.68946,-10.6875 10.688694,10.688694 0 0 0 -10.6875,10.6875 10.688694,10.688694 0 0 0 0.50586,3.24023 8.0265236,24.518967 0 0 0 -0.87304,5.35156 10.688694,10.688694 0 0 0 -4.66211,4.96875 10.688694,10.688694 0 0 0 -2.28321,-0.24804 10.688694,10.688694 0 0 0 -1.57226,0.11718 10.688694,10.688694 0 0 0 -8.42774,-4.11718 10.688694,10.688694 0 0 0 -4.04492,0.79882 10.688694,10.688694 0 0 0 -9.95508,-6.79882 10.688694,10.688694 0 0 0 -8.86914,4.72656 10.688694,10.688694 0 0 0 -7.13086,-2.72656 10.688694,10.688694 0 0 0 -8.42578,4.11718 10.688694,10.688694 0 0 0 -1.57422,-0.11718 10.688694,10.688694 0 0 0 -1.90429,0.17773 10.688694,10.688694 0 0 0 0.59375,-3.49023 10.688694,10.688694 0 0 0 -6.01563,-9.61133 10.688694,10.688694 0 0 0 0.0156,-0.38867 10.688694,10.688694 0 0 0 -10.68946,-10.6875 z"
       transform="scale(0.26458333)" />
    <path
       style="color:#000000;fill:#000000;stroke-linecap:round;-inkscape-stroke:none"
       d="m 204.27148,117.59375 c -7.02642,-5e-4 -12.76679,5.7392 -12.76757,12.76562 v 0.002 c 0.002,1.65761 0.43716,3.24832 1.05859,4.76953 -4.21007,2.14793 -7.05579,6.37429 -7.05859,11.22656 v 0.002 0.002 c 0.003,2.94296 1.0617,5.74369 2.88867,7.99804 -1.82697,2.25436 -2.88594,5.05509 -2.88867,7.99805 v 0.002 c 4.2e-4,4.19559 2.14367,7.98346 5.50586,10.34766 -0.88772,1.76553 -1.50317,3.65459 -1.50586,5.65039 v 0.002 0.004 c 3.7e-4,0.26046 0.0423,0.51757 0.0586,0.77734 -2.53551,2.3966 -4.05609,5.6933 -4.05859,9.2168 v 0.002 c 0.001,3.58009 1.57075,6.90442 4.15429,9.29883 -1.27743,2.02487 -2.15276,4.27865 -2.15429,6.70117 v 0.002 0.002 c 0.002,3.57881 1.57194,6.90111 4.15429,9.29492 -1.27743,2.02487 -2.15276,4.27865 -2.15429,6.70117 v 0.002 0.002 c 0.004,3.1908 1.25866,6.20108 3.38086,8.5332 -0.82356,1.71469 -1.379,3.54635 -1.38086,5.46289 v 0.002 c 0.002,5.24194 3.29677,9.68596 7.96875,11.625 -1.15132,1.94887 -1.96703,4.07378 -1.96875,6.37304 v 0.002 0.002 c 0.004,3.42367 1.41882,6.6296 3.79296,8.99609 -2.37583,2.3677 -3.79053,5.57425 -3.79296,9 v 0.002 c 9.8e-4,2.96744 1.04635,5.80533 2.88867,8.0625 -3.01144,2.39089 -4.88895,5.99508 -4.88867,9.9375 v 0.002 c 0.003,2.9423 1.06201,5.74229 2.88867,7.99609 -1.82773,2.25505 -2.88647,5.05602 -2.88867,8 v 0.002 0.002 c 0.003,2.5343 0.92183,4.90936 2.31836,6.99609 -1.39732,2.08801 -2.31608,4.46419 -2.31836,7 v 0.002 c 4.5e-4,3.94229 1.87883,7.54518 4.89062,9.93554 -1.84365,2.25805 -2.89018,5.09548 -2.89062,8.06446 v 0.002 c 0.003,2.5343 0.92183,4.90936 2.31836,6.99609 -1.39732,2.08801 -2.31608,4.46419 -2.31836,7 v 0.002 0.002 c 0.003,1.9958 0.61814,3.88487 1.50586,5.65039 -3.36219,2.3642 -5.50544,6.15207 -5.50586,10.34766 v 0.002 c 0.003,1.9958 0.61814,3.88487 1.50586,5.65039 -3.36219,2.3642 -5.50544,6.15207 -5.50586,10.34766 9.8e-4,2.96744 1.04635,5.80533 2.88867,8.0625 -3.01144,2.39089 -4.88895,5.99508 -4.88867,9.9375 0.001,4.19487 2.14416,7.98198 5.50586,10.3457 -0.88789,1.76608 -1.50354,3.65596 -1.50586,5.65234 v 0.002 0.002 c 0.002,3.57881 1.57194,6.90111 4.15429,9.29492 -1.27743,2.02487 -2.15276,4.27865 -2.15429,6.70117 v 0.002 0.002 c 0.003,3.68277 1.66444,7.1018 4.39648,9.50781 -0.16712,0.82547 -0.39501,1.64175 -0.39648,2.48633 v 0.004 0.002 c 0.003,3.68277 1.66444,7.1018 4.39648,9.50781 -0.16712,0.82547 -0.39501,1.64175 -0.39648,2.48633 v 0.002 0.004 c 0.002,2.61682 0.93476,5.09237 2.42187,7.22461 -0.20548,0.91482 -0.4213,1.83181 -0.42187,2.77148 v 0.002 0.002 c 0.003,2.5343 0.92183,4.90936 2.31836,6.99609 -1.39732,2.08801 -2.31608,4.46419 -2.31836,7 v 0.002 0.002 c 0.004,3.1908 1.25866,6.20108 3.38086,8.5332 -0.82356,1.71469 -1.379,3.54635 -1.38086,5.46289 v 0.002 c 6.3e-4,2.11799 0.64287,4.14493 1.64062,5.99804 -0.99818,1.85386 -1.64037,3.88116 -1.64062,6 v 0.002 c 0.003,2.53549 0.92292,4.91044 2.32031,6.99804 -1.39739,2.08761 -2.31757,4.46256 -2.32031,6.99805 v 0.002 0.002 c 0.003,3.42424 1.41662,6.63104 3.79101,8.99804 -2.37439,2.36701 -3.78795,5.57381 -3.79101,8.99805 v 0.002 c 0.001,3.58009 1.57075,6.90442 4.15429,9.29883 -1.27694,2.02417 -2.15232,4.27758 -2.15429,6.69922 v 0.002 0.002 c 0.002,3.87136 1.83645,7.42602 4.79492,9.82812 -0.46979,1.34445 -0.79298,2.73568 -0.79492,4.16797 v 0.002 c -5e-4,7.02733 5.74025,12.76808 12.76757,12.76758 h 0.002 0.002 c 0.31777,-5.4e-4 0.63433,-0.0129 0.95117,-0.0371 2.25965,-0.17052 4.37067,-1.03968 6.22656,-2.31836 0.6724,0.1086 1.3399,0.20637 1.98243,0.25 2.04732,1.3127 4.39158,2.10235 6.83398,2.10547 h 0.002 c 6.92575,5e-4 12.57608,-5.58251 12.73829,-12.4707 1.06473,0.28315 2.15148,0.47 3.25976,0.4707 h 0.002 c 7.02733,5.1e-4 12.76808,-5.74025 12.76758,-12.76758 -3.1e-4,-3.58041 -1.56913,-6.90555 -4.15234,-9.30078 1.27607,-2.02373 2.15041,-4.27647 2.15234,-6.69726 v -0.002 c -8.4e-4,-1.99624 -0.61549,-3.88764 -1.50195,-5.65429 3.3603,-2.36474 5.50186,-6.15152 5.50195,-10.34571 -7.5e-4,-2.5364 -0.91778,-4.91475 -2.31445,-7.0039 1.39496,-2.08655 2.31185,-4.4609 2.31445,-6.99414 v -0.002 c -6.7e-4,-3.19265 -1.2549,-6.2043 -3.37695,-8.53906 0.8215,-1.71316 1.37528,-3.54281 1.37695,-5.45703 v -0.002 c 1.2e-4,-1.75826 -0.484,-3.43761 -1.17773,-5.03516 1.93607,1.13089 4.1249,1.80093 6.41015,1.80078 h 0.002 c 1.89154,-0.002 3.72085,-0.46046 5.40039,-1.25 0.11551,0.95585 0.33506,1.8828 0.66211,2.78907 -1.71631,2.22195 -2.82799,4.85929 -2.83008,7.69335 v 0.002 c 5.5e-4,2.96807 1.04593,5.80482 2.88867,8.0625 -3.01105,2.39066 -4.88857,5.99367 -4.88867,9.93554 3.6e-4,4.99136 3.00468,9.33298 7.42383,11.41211 -2.15231,2.34127 -3.42119,5.37418 -3.42383,8.58594 v 0.002 0.002 c 0.001,1.91604 0.55639,3.74629 1.37891,5.46094 -2.12227,2.33344 -3.37657,5.34337 -3.37891,8.53515 v 0.002 0.002 c 0.004,4.78224 2.75271,9.04891 6.94726,11.22851 2.80396,7.88894 10.1496,13.59375 18.92969,13.59375 6.56453,0 12.31283,-3.23748 16.00586,-8.13086 0.29342,0.021 0.5845,0.0736 0.87891,0.0742 h 0.002 0.002 c 7.02733,5.1e-4 12.76808,-5.74025 12.76758,-12.76758 0,-1.02599 -0.34482,-2.00005 -0.58789,-2.99218 3.9732,-2.23824 6.58826,-6.35961 6.58789,-11.00782 -0.001,-3.42476 -1.41522,-6.63356 -3.78906,-9.00195 2.37316,-2.36733 3.78658,-5.57263 3.78906,-8.99609 v -0.002 c -2.3e-4,-2.94469 -1.05771,-5.74736 -2.88476,-8.0039 1.82495,-2.25405 2.88238,-5.05279 2.88476,-7.99414 v -0.002 c -9.7e-4,-3.57897 -1.57053,-6.90226 -4.15234,-9.29687 1.27664,-2.02405 2.15041,-4.27787 2.15234,-6.69922 v -0.002 c 1.1e-4,-0.60011 -0.26009,-1.15838 -0.34375,-1.75 2.17487,1.60876 4.81985,2.51318 7.57422,2.51562 h 0.002 c 4.85234,-0.002 9.07962,-2.84702 11.22852,-7.05664 1.52146,0.62144 3.11171,1.05477 4.76953,1.05664 h 0.002 0.002 c 1.99639,-0.002 3.88627,-0.61797 5.65234,-1.50586 2.36372,3.3617 6.15084,5.50467 10.3457,5.50586 h 0.002 c 2.66247,-0.002 5.12497,-1.03022 7.26953,-2.55468 0.0936,5.28556 3.50365,9.75219 8.34375,11.5664 -0.13417,0.74026 -0.3791,1.46184 -0.38086,2.2168 v 0.002 0.004 c 7.6e-4,1.47839 0.3303,2.9178 0.83008,4.30273 -1.71631,2.22196 -2.82799,4.85929 -2.83008,7.69336 v 0.002 0.002 c 0.003,4.91506 2.91709,9.22385 7.25391,11.33984 v 0.24414 c -2.05426,2.32233 -3.25116,5.2895 -3.25391,8.41211 v 0.002 0.002 c 0.002,2.4248 0.79942,4.74104 2.0918,6.77734 -0.0391,0.40651 -0.0918,0.81205 -0.0918,1.2207 v 0.002 c 0.002,1.95696 0.50334,3.86624 1.36719,5.61719 0.8987,10.49015 9.54327,18.74218 20.14453,18.74218 5.39296,0 10.25841,-2.18354 13.88086,-5.65625 6.73262,-0.3354 12.1411,-5.8923 12.14062,-12.70508 8e-5,-1.47916 -0.32862,-2.92078 -0.82812,-4.30664 1.71523,-2.22159 2.82604,-4.8583 2.82812,-7.6914 v -0.002 c 8e-5,-1.91794 -0.55396,-3.75222 -1.37695,-5.46875 2.11983,-2.33238 3.37395,-5.33996 3.37695,-8.52929 v -0.002 c 8e-5,-1.47916 -0.32862,-2.92078 -0.82812,-4.30664 1.71523,-2.22159 2.82604,-4.8583 2.82812,-7.6914 v -0.002 c -6.7e-4,-3.19265 -1.2549,-6.2043 -3.37695,-8.53906 0.8215,-1.71316 1.37528,-3.54281 1.37695,-5.45703 v -0.002 c -2.8e-4,-2.50199 -0.90157,-4.84494 -2.26172,-6.91602 0.49869,-0.73886 0.91581,-1.512 1.25,-2.33789 0.0817,0.002 0.16238,0.0195 0.24414,0.0195 1.23663,-5e-5 2.44756,-0.21704 3.62305,-0.5664 0.79658,4.41245 3.78552,8.00134 7.99219,9.57812 -0.13417,0.74026 -0.3791,1.46184 -0.38086,2.2168 v 0.002 0.004 c 0.002,3.12353 1.19899,6.0911 3.25391,8.41406 v 1.39453 c -3.2352,2.38931 -5.25214,6.11775 -5.25391,10.18945 v 0.002 c 0.001,2.42197 0.87547,4.67656 2.15234,6.70117 -2.5818,2.39461 -4.15137,5.7179 -4.15234,9.29687 3.2e-4,3.58042 1.56914,6.90556 4.15234,9.30079 -1.27606,2.02374 -2.15041,4.27647 -2.15234,6.69726 v 0.002 c -5e-4,7.02643 5.7392,12.7668 12.76562,12.76758 h 0.002 0.004 c 0.4354,-0.001 0.86623,-0.0696 1.29883,-0.11523 3.24418,2.2765 7.15561,3.70898 11.44141,3.70898 5.38815,0 10.23528,-2.19243 13.85156,-5.65429 6.74642,-0.32041 12.17041,-5.88427 12.16992,-12.70704 -6.5e-4,-1.43328 -0.32375,-2.82616 -0.79297,-4.17187 2.95776,-2.40227 4.79076,-5.95539 4.79297,-9.82617 v -0.002 c -1.2e-4,-1.73513 -0.43353,-3.42004 -1.11523,-5.00781 0.67919,-1.58197 1.11258,-3.25951 1.11523,-4.98828 v -0.004 -0.002 c -4.8e-4,-0.40806 -0.0542,-0.81288 -0.0937,-1.21875 1.29318,-2.03615 2.09071,-4.35224 2.09375,-6.77734 v -0.002 c 8e-5,-1.91794 -0.55396,-3.75222 -1.37695,-5.46875 2.11983,-2.33238 3.37395,-5.33996 3.37695,-8.52929 v -0.002 c -0.001,-3.19317 -1.25587,-6.20645 -3.3789,-8.54101 0.82139,-1.71244 1.3767,-3.54155 1.3789,-5.45508 v -0.002 c 3.1e-4,-2.94535 -1.0574,-5.74877 -2.88476,-8.00586 1.82464,-2.2535 2.88184,-5.05149 2.88476,-7.99219 v -0.002 c -3.9e-4,-1.43359 -0.32381,-2.82584 -0.79297,-4.17188 2.76247,-2.2431 4.47809,-5.49697 4.69532,-9.07812 0.44376,-0.51287 0.88371,-1.02987 1.31445,-1.55664 3.56286,-1.91001 5.99521,-5.36874 6.58008,-9.36914 0.51657,-0.87544 1.03449,-1.78337 1.53906,-2.72266 4.0489,-2.23108 6.65946,-6.43353 6.66211,-11.09961 v -0.002 c 1.9e-4,-0.42048 -0.0936,-0.83216 -0.13477,-1.25 3.72509,-2.30366 6.13191,-6.29587 6.13477,-10.74805 v -0.002 c 8e-5,-1.47917 -0.32863,-2.92079 -0.82813,-4.30664 1.71524,-2.2216 2.82605,-4.85831 2.82813,-7.69141 v -0.002 c 5.3e-4,-2.96932 -1.04538,-5.80765 -2.88867,-8.06641 3.01006,-2.39018 4.88785,-5.99283 4.88867,-9.93359 -2.1e-4,-3.42593 -1.41448,-6.63461 -3.78906,-9.00391 2.37277,-2.36712 3.78635,-5.57117 3.78906,-8.99414 v -0.002 c -2.9e-4,-4.64801 -2.6168,-8.76812 -6.58984,-11.00586 0.24402,-0.99206 0.58892,-1.96603 0.58984,-2.99219 v -0.002 c -4.1e-4,-4.77313 -2.70842,-8.9601 -6.73828,-11.14649 l 2.16797,-1.74023 c 1.25081,-0.69656 2.37066,-1.5944 3.32226,-2.66406 l 0.002,-0.002 0.62304,-0.5 c 0.98365,-0.78921 1.78251,-1.62529 2.60547,-2.45312 1.65628,0.75767 3.41575,1.26931 5.25,1.27148 h 0.002 c 7.02554,-7.8e-4 12.76484,-5.74009 12.76563,-12.76562 5e-4,-7.02643 -5.7392,-12.7668 -12.76563,-12.76758 h -0.002 c -0.25967,1.5e-4 -0.51639,0.0407 -0.77539,0.0566 -2.39809,-2.53654 -5.69739,-4.05592 -9.22266,-4.05664 -4.6482,-3.7e-4 -8.76957,2.61469 -11.00781,6.58789 -0.99213,-0.24306 -1.96619,-0.58789 -2.99219,-0.58789 -5.23112,0.002 -9.72391,3.29132 -11.66015,8.02539 -0.11368,-0.003 -0.22608,-0.0254 -0.33985,-0.0254 h -0.002 -0.002 c -0.50973,7.3e-4 -0.99547,0.17889 -1.5,0.24023 -1.18227,-5.83157 -6.34273,-10.24021 -12.4961,-10.24023 h -0.002 -0.002 c -0.75275,0.002 -1.47275,0.24562 -2.21094,0.37891 -1.84045,-4.90857 -6.40673,-8.37846 -11.78516,-8.37891 h -0.002 c -3.42231,0.002 -6.62684,1.41541 -8.99414,3.78711 -2.36955,-2.37406 -5.57819,-3.7873 -9.00391,-3.78711 h -0.002 c -1.99545,0.002 -3.88489,0.61693 -5.65039,1.50391 -2.36458,-3.3614 -6.15252,-5.50386 -10.34766,-5.50391 h -0.002 c -2.94105,0.002 -5.73989,1.05855 -7.99414,2.88281 -2.25674,-1.82635 -5.05951,-2.88305 -8.00391,-2.88281 h -0.002 c -1.91421,0.002 -3.74386,0.55546 -5.45703,1.37695 -2.33531,-2.12243 -5.34767,-3.37686 -8.54102,-3.37695 -3.57881,7.5e-4 -6.90206,1.5688 -9.29687,4.15039 -2.0258,-1.27645 -4.28038,-2.15034 -6.70313,-2.15039 h -0.002 c -2.53257,0.003 -4.90621,0.91978 -6.99219,2.31445 -2.08983,-1.39716 -4.46859,-2.31417 -7.00586,-2.31445 -3.57881,7.5e-4 -6.90206,1.5688 -9.29687,4.15039 -2.0258,-1.27645 -4.28038,-2.15034 -6.70313,-2.15039 h -0.002 c -2.53257,0.003 -4.90621,0.91978 -6.99219,2.31445 -2.08983,-1.39716 -4.46859,-2.31417 -7.00586,-2.31445 h -0.002 c -3.87012,0.002 -7.42211,1.83582 -9.82422,4.79297 -1.34701,-0.4693 -2.73927,-0.79309 -4.17383,-0.79297 -3.57881,7.5e-4 -6.90206,1.5688 -9.29687,4.15039 -2.0258,-1.27645 -4.28038,-2.15034 -6.70313,-2.15039 h -0.002 -0.002 c -1.42989,0.002 -2.81778,0.32446 -4.16016,0.79297 -2.23446,-2.75166 -5.47216,-4.4615 -9.03711,-4.68945 -0.60581,-0.98149 -1.32677,-1.87178 -2.17383,-2.65625 -0.33533,-3.18836 -1.84983,-6.0906 -4.24804,-8.20313 0.16504,-0.82131 0.38949,-1.63453 0.39062,-2.47461 v -0.002 c 0,-2.83573 -1.11164,-5.47537 -2.82812,-7.69922 0.49895,-1.38355 0.82712,-2.82205 0.82812,-4.29883 v -0.002 c -3.1e-4,-3.58042 -1.56913,-6.90556 -4.15234,-9.30078 1.27607,-2.02374 2.15041,-4.27648 2.15234,-6.69727 v -0.002 c 1.4e-4,-2.11951 -0.64219,-4.1475 -1.64062,-6.00196 0.99775,-1.85311 1.63999,-3.88005 1.64062,-5.99804 -2.2e-4,-1.4799 -0.32981,-2.92226 -0.83008,-4.3086 1.71543,-2.22073 2.82695,-4.85692 2.83008,-7.68945 v -0.002 c 1.4e-4,-2.11951 -0.64219,-4.1475 -1.64062,-6.00196 0.99775,-1.85311 1.63999,-3.88005 1.64062,-5.99804 -1.6e-4,-0.42019 -0.0933,-0.83248 -0.13476,-1.25 3.72509,-2.30336 6.13153,-6.29594 6.13476,-10.74805 v -0.002 c 1.5e-4,-0.94093 -0.21265,-1.85925 -0.41797,-2.77539 1.48642,-2.13202 2.41598,-4.60644 2.41797,-7.22266 v -0.002 c 4.3e-4,-1.91824 -0.55404,-3.75189 -1.37695,-5.46875 2.12042,-2.33252 3.37394,-5.34144 3.37695,-8.53125 v -0.002 c -5.2e-4,-2.83493 -1.11211,-5.47403 -2.82812,-7.69726 0.4991,-1.38414 0.82739,-2.82338 0.82812,-4.30078 v -0.002 c -7.8e-4,-4.4546 -2.40764,-8.4512 -6.13476,-10.75585 0.0412,-0.41507 0.13437,-0.82449 0.13476,-1.24219 v -0.002 c -7.5e-4,-2.5364 -0.91778,-4.91475 -2.31445,-7.0039 1.39496,-2.08655 2.31185,-4.4609 2.31445,-6.99414 v -0.002 c -7.5e-4,-2.5364 -0.91778,-4.91475 -2.31445,-7.0039 1.39496,-2.08655 2.31185,-4.4609 2.31445,-6.99414 v -0.002 c -2.4e-4,-3.68462 -1.66011,-7.10732 -4.39258,-9.51562 0.16597,-0.82395 0.3916,-1.63956 0.39258,-2.48242 v -0.002 c -7.8e-4,-7.02643 -5.74114,-12.76612 -12.76758,-12.76562 -7.02553,7.8e-4 -12.76484,5.74009 -12.76562,12.76562 v 0.002 c 9.1e-4,1.07366 0.22631,2.12631 0.49414,3.16406 -0.28575,1.36636 -0.5109,2.82283 -0.70508,4.31445 -1.52911,1.01584 -2.77639,2.33505 -3.74219,3.89258 -0.42747,-0.0436 -0.84899,-0.13842 -1.27929,-0.13867 h -0.002 -0.002 c -0.25967,1.5e-4 -0.51639,0.0407 -0.77539,0.0566 -2.39809,-2.53654 -5.69739,-4.05592 -9.22266,-4.05664 h -0.002 c -1.02616,9.2e-4 -2.00013,0.34582 -2.99219,0.58984 -2.23774,-3.97304 -6.35785,-6.58955 -11.00586,-6.58984 -3.57881,7.5e-4 -6.90206,1.5688 -9.29687,4.15039 -2.0258,-1.27645 -4.28038,-2.15034 -6.70313,-2.15039 -3.52387,0.001 -6.82129,1.52145 -9.21875,4.05664 -0.0769,-0.005 -0.15349,-0.0123 -0.23046,-0.0156 0.0446,-0.42926 0.21587,-0.83865 0.21679,-1.27149 v -0.002 -0.002 c -7.1e-4,-4.42603 -2.37344,-8.416 -6.07422,-10.73046 -0.38926,-6.68272 -5.91692,-12.03565 -12.69336,-12.03516 z m 0,4.15625 c 4.77683,-3.4e-4 8.60436,3.82586 8.60938,8.60156 -0.002,0.092 -0.006,0.18351 -0.0117,0.27539 l -0.0801,1.38477 1.24805,0.60547 c 2.96789,1.44274 4.84517,4.4422 4.8457,7.74218 -0.002,0.95592 -0.16433,1.90381 -0.47851,2.80665 l -1.17578,3.37695 3.51562,-0.64844 c 0.50346,-0.093 1.01539,-0.14229 1.52734,-0.14453 0.42444,1.7e-4 0.8478,0.033 1.26758,0.0957 l 1.19922,0.17774 0.74609,-0.95703 c 1.63177,-2.09322 4.13302,-3.31538 6.78711,-3.31641 2.12032,5e-5 4.16469,0.78267 5.74414,2.19727 l 1.7793,1.59375 1.33203,-1.98243 c 1.60041,-2.38132 4.27539,-3.80799 7.14453,-3.80859 3.55217,2.2e-4 6.72682,2.16797 8.01954,5.47656 l 0.76757,1.96875 1.95703,-0.80078 c 1.03346,-0.42368 2.13894,-0.64328 3.25586,-0.64453 2.65465,5.4e-4 5.15696,1.22275 6.78907,3.31641 l 0.74609,0.95703 1.19922,-0.17774 c 0.41798,-0.0624 0.84106,-0.0953 1.26367,-0.0957 0.61846,3.5e-4 1.23574,0.0687 1.83984,0.20117 l 1.63868,0.35742 0.69726,-1.52343 c 0.78181,-1.70837 2.10069,-3.11305 3.75586,-4.00196 l 0.95508,-0.51367 0.125,-1.08008 c 0.21136,-1.82473 0.49459,-3.55654 0.83984,-5.15039 l 0.11719,-0.54297 -0.16797,-0.52929 c -0.26908,-0.84327 -0.40725,-1.72227 -0.4082,-2.60743 5.3e-4,-4.77899 3.83038,-8.60884 8.60937,-8.60937 4.77963,-3.4e-4 8.6108,3.82975 8.61133,8.60937 -0.001,0.89462 -0.14295,1.78346 -0.41797,2.63477 l -0.46875,1.45313 1.24805,0.88281 c 2.28374,1.61484 3.63848,4.2323 3.63867,7.02929 -0.003,2.07071 -0.75187,4.06911 -2.10937,5.63282 l -1.18164,1.36328 1.18164,1.36328 c 1.35934,1.56584 2.10876,3.56706 2.10937,5.64062 -0.003,2.07071 -0.75187,4.06911 -2.10937,5.63282 l -1.18164,1.36328 1.18164,1.36328 c 1.35934,1.56584 2.10876,3.56706 2.10937,5.64062 -7.2e-4,0.61675 -0.0691,1.23155 -0.20117,1.83399 l -0.35937,1.63867 1.52734,0.69727 c 3.07018,1.40225 5.03261,4.45482 5.0332,7.83007 -9.1e-4,1.26804 -0.28325,2.52111 -0.82422,3.66797 l -0.61328,1.30274 1.00391,1.0332 c 1.56092,1.60701 2.43318,3.75579 2.43359,5.99609 -0.003,2.52053 -1.10847,4.9105 -3.02734,6.54493 l -1.39844,1.18945 1.00977,1.53516 c 0.92418,1.40546 1.41639,3.05032 1.41601,4.73242 -0.002,2.01215 -0.70962,3.96026 -1.99804,5.50586 l -0.72266,0.86718 0.33398,1.07813 c 0.25566,0.82542 0.38686,1.68472 0.38672,2.54883 -0.003,3.37274 -1.96518,6.42295 -5.0332,7.82422 l -1.52734,0.69726 0.35937,1.63867 c 0.13258,0.60462 0.20093,1.22087 0.20117,1.83985 -5.2e-4,1.72303 -0.51891,3.40426 -1.48633,4.83008 l -0.79101,1.16796 0.79101,1.16797 c 0.96802,1.42671 1.48644,3.10988 1.48633,4.83399 -0.003,2.23763 -0.87602,4.38355 -2.43554,5.98828 l -1.00391,1.0332 0.61523,1.30274 c 0.5427,1.14924 0.82403,2.40484 0.82422,3.67578 -5.2e-4,1.72303 -0.51891,3.40426 -1.48633,4.83008 l -0.79101,1.16796 0.79101,1.16797 c 0.96765,1.42617 1.48605,3.10861 1.48633,4.83203 -0.002,2.11965 -0.7842,4.16206 -2.19922,5.74024 l -1.59765,1.78125 1.98633,1.33398 c 2.38345,1.60031 3.81029,4.27563 3.81054,7.14649 -0.001,1.2675 -0.28347,2.51963 -0.82422,3.66601 l -0.61328,1.30274 1.00391,1.0332 c 1.5613,1.6074 2.43359,3.7572 2.43359,5.99805 -0.001,0.89409 -0.14311,1.782 -0.41797,2.63281 l -0.46875,1.45313 1.2461,0.88281 c 2.20455,1.55902 3.54881,4.05711 3.63476,6.75586 l 0.0312,0.95703 0.7461,0.59765 c 0.99514,0.79758 1.80164,1.80623 2.35937,2.95313 l 0.60352,1.24023 1.37695,-0.0723 c 0.0951,-0.005 0.18989,-0.008 0.28516,-0.01 3.0179,0.003 5.80877,1.57919 7.36718,4.16407 l 1,1.6582 1.72461,-0.88086 c 1.20756,-0.61683 2.54446,-0.94066 3.90039,-0.94336 2.12032,5e-5 4.16469,0.78267 5.74414,2.19727 l 1.7793,1.59375 1.33203,-1.98243 c 1.60041,-2.38132 4.27539,-3.80799 7.14453,-3.80859 1.35966,-1.2e-4 2.70078,0.32193 3.91211,0.93945 l 1.72266,0.87891 1,-1.65625 c 1.55879,-2.58301 4.34842,-4.15949 7.36523,-4.16211 2.07411,2.3e-4 4.07633,0.74968 5.64258,2.10937 l 1.36328,1.18165 1.36328,-1.18165 c 1.56331,-1.35714 3.56071,-2.1064 5.63086,-2.10937 2.12032,5e-5 4.16469,0.78267 5.74414,2.19727 l 1.7793,1.59375 1.33203,-1.98243 c 1.60041,-2.38132 4.27539,-3.80799 7.14453,-3.80859 2.07411,2.3e-4 4.07633,0.74968 5.64258,2.10937 l 1.36328,1.18165 1.36328,-1.18165 c 1.56331,-1.35714 3.56071,-2.1064 5.63086,-2.10937 2.12032,5e-5 4.16469,0.78267 5.74414,2.19727 l 1.7793,1.59375 1.33203,-1.98243 c 1.60041,-2.38132 4.27539,-3.80799 7.14453,-3.80859 2.52401,7e-5 4.91805,1.10589 6.55469,3.02734 l 1.18945,1.39844 1.53516,-1.00976 c 1.40223,-0.92206 3.04251,-1.41417 4.7207,-1.41602 2.46674,-2.1e-4 4.81215,1.0554 6.44727,2.90234 l 1.55664,1.75977 1.55664,-1.75977 c 1.63323,-1.8448 3.97563,-2.90018 6.43945,-2.90234 3.3271,4e-5 6.34633,1.90756 7.77539,4.91211 l 1.08399,2.28125 2.0293,-1.50391 c 1.47957,-1.09524 3.27052,-1.68701 5.11132,-1.68945 2.93897,-1.7e-4 5.66988,1.49515 7.25391,3.9707 l 1.75,2.73633 1.75,-2.73633 c 1.58247,-2.4731 4.31013,-3.96805 7.24609,-3.9707 4.12011,3.5e-4 7.6396,2.8907 8.44336,6.93164 l 0.4668,2.34961 2.26172,-0.79492 c 0.90936,-0.31928 1.86437,-0.4838 2.82812,-0.48633 4.72919,2e-5 8.53971,3.75571 8.60938,8.48437 l 0.041,2.82422 2.6836,-0.88086 c 0.86014,-0.2818 1.76091,-0.42602 2.66601,-0.42773 0.43878,1.2e-4 0.87691,0.0346 1.31055,0.10156 l 1.87891,0.28906 0.45508,-1.8457 c 0.95206,-3.85353 4.38606,-6.54357 8.35546,-6.54492 1.11738,0 2.22354,0.21778 3.25782,0.64062 l 1.95507,0.79883 0.76758,-1.96484 c 1.29373,-3.30734 4.46816,-5.47489 8.01953,-5.47461 2.65465,5.4e-4 5.15696,1.22275 6.78907,3.31641 l 0.74609,0.95703 1.19922,-0.17774 c 0.41862,-0.0625 0.84237,-0.0954 1.26562,-0.0957 4.77963,5.3e-4 8.60972,3.83171 8.60938,8.61133 -5.3e-4,4.77833 -3.82936,8.60777 -8.60742,8.60937 -1.61856,-0.002 -3.20214,-0.46058 -4.57227,-1.32226 l -1.45703,-0.91602 -1.17187,1.25977 c -1.00854,1.08294 -2.06665,2.11693 -3.25977,3.07422 l -0.78906,0.63281 -0.13282,0.16015 c -0.73909,0.8876 -1.6488,1.6179 -2.67578,2.14649 l -0.18554,0.0957 -2.89453,2.32227 c -0.50625,0.40617 -1.10602,0.78147 -1.80469,1.26562 l -0.59571,0.41211 -0.21093,0.69336 c -0.0394,0.13 -0.0814,0.25873 -0.12696,0.38672 l -0.80468,2.26758 2.35742,0.46875 c 4.04094,0.80376 6.93129,4.32326 6.93164,8.44336 -0.001,1.11692 -0.22085,2.2224 -0.64453,3.25586 l -0.80078,1.95703 1.96875,0.76758 c 3.30859,1.29272 5.47634,4.46736 5.47656,8.01953 -0.003,2.93627 -1.497,5.66204 -3.9707,7.24414 l -2.73829,1.75195 2.73829,1.75195 c 2.47615,1.58367 3.97052,4.31269 3.9707,7.25196 -6.9e-4,3.30936 -1.88843,6.31418 -4.86914,7.75195 l -2.98633,1.44141 2.5957,2.06054 c 2.06003,1.63457 3.26024,4.11636 3.25977,6.7461 -0.002,2.23796 -0.87427,4.38486 -2.43359,5.99023 l -1.00391,1.03321 0.61328,1.30273 c 0.54192,1.14889 0.82429,2.40354 0.82422,3.67383 -0.003,3.37237 -1.96385,6.42248 -5.03125,7.82422 l -1.52539,0.69726 0.35742,1.63672 c 0.13205,0.60467 0.1995,1.22288 0.19922,1.8418 -0.003,3.34609 -1.93518,6.37843 -4.9668,7.79492 l -0.63867,0.29883 -0.32422,0.625 c -0.55643,1.07038 -1.18636,2.13576 -1.83594,3.23633 l -0.23437,0.39843 -0.0449,0.46094 c -0.28864,3.02648 -2.14348,5.67053 -4.89258,6.96875 l -0.42969,0.20117 -0.29883,0.36914 c -0.59019,0.728 -1.19521,1.44256 -1.8164,2.14844 l -0.53516,0.60742 0.0176,0.81055 c 5.8e-4,0.027 0.002,0.0531 0.002,0.0801 -0.003,3.01713 -1.58044,5.80683 -4.16406,7.36523 l -1.6582,1 0.88086,1.72461 c 0.61807,1.2112 0.94103,2.55037 0.9414,3.91016 -0.003,2.46352 -1.05931,4.80492 -2.90429,6.4375 l -1.75977,1.55664 1.75977,1.55664 c 1.84793,1.6352 2.90455,3.98168 2.90429,6.44922 -0.002,1.67836 -0.49535,3.31864 -1.41797,4.7207 l -1.00976,1.53516 1.39844,1.18945 c 1.92162,1.63599 3.02837,4.02903 3.02929,6.55273 -0.003,2.52053 -1.10847,4.9105 -3.02734,6.54493 l -1.39844,1.18945 1.00977,1.53516 c 0.92388,1.40501 1.41608,3.04891 1.41601,4.73046 -0.003,1.853 -0.60402,3.65405 -1.71289,5.13868 l -0.52148,0.69922 0.13281,0.86132 c 0.0662,0.42913 0.10075,0.86269 0.10156,1.29688 v 0.002 c 0,0.001 0,0.003 0,0.004 -0.003,1.40023 -0.34775,2.77858 -1.0039,4.01562 l -0.51758,0.97461 0.51758,0.97461 c 0.65876,1.24196 1.00349,2.62542 1.0039,4.03125 -0.002,3.01845 -1.5794,5.81011 -4.16406,7.36914 l -1.6582,1 0.88086,1.72461 c 0.61783,1.21073 0.94078,2.54895 0.9414,3.9082 3.4e-4,4.77745 -3.82718,8.60523 -8.60351,8.60938 -0.0443,-0.001 -0.0886,-0.002 -0.13282,-0.004 l -0.94531,-0.043 -0.65234,0.68165 c -2.92972,3.06293 -6.98229,4.96093 -11.53125,4.96093 -3.63865,0 -6.93273,-1.25304 -9.64649,-3.33008 l -0.72656,-0.55664 -0.90039,0.16016 c -0.48632,0.0862 -0.97877,0.1311 -1.47266,0.13281 -4.77895,-5.3e-4 -8.60864,-3.83068 -8.60937,-8.60937 v -0.002 c 0.002,-2.11895 0.78463,-4.16058 2.19922,-5.73828 l 1.59765,-1.78125 -1.98632,-1.33398 c -2.38345,-1.60031 -3.81029,-4.27563 -3.81055,-7.14649 7.8e-4,-2.8703 1.42756,-5.54453 3.81055,-7.14453 l 1.98632,-1.33398 -1.59765,-1.78125 c -1.41495,-1.57809 -2.19744,-3.62074 -2.19922,-5.74024 v -0.002 c 0.002,-3.04699 1.60861,-5.85887 4.23242,-7.4082 l 1.02149,-0.60156 v -5.19727 l -0.63282,-0.61328 c -1.67396,-1.62066 -2.61894,-3.84784 -2.62109,-6.17774 0,-6.5e-4 0,-0.001 0,-0.002 0.003,-0.96425 0.16834,-1.92042 0.48828,-2.83008 l 0.79492,-2.26172 -2.35156,-0.46679 c -4.03786,-0.80237 -6.9261,-4.31737 -6.93164,-8.4336 v -0.004 c 0,-6.6e-4 0,-0.001 0,-0.002 5.5e-4,-0.19752 0.009,-0.39477 0.0234,-0.59179 l 0.27929,-3.90625 -3.39257,1.95703 c -1.30809,0.75446 -2.79072,1.15228 -4.30079,1.15234 -0.43877,-1.2e-4 -0.8769,-0.0346 -1.31054,-0.10156 l -1.87696,-0.28906 -0.45703,1.84375 c -0.32728,1.31962 -0.96252,2.54335 -1.85351,3.57031 l -1.18164,1.36133 1.18164,1.36328 c 1.3597,1.56625 2.10914,3.56847 2.10937,5.64258 -0.002,1.6782 -0.49395,3.31847 -1.41601,4.7207 l -1.00977,1.53516 1.39844,1.18945 c 1.92104,1.63629 3.02681,4.02928 3.02734,6.55273 -0.002,2.23796 -0.87427,4.38487 -2.43359,5.99024 l -1.00391,1.0332 0.61328,1.30274 c 0.54193,1.14888 0.82429,2.40354 0.82422,3.67382 -0.003,2.52053 -1.10847,4.9105 -3.02734,6.54493 l -1.39844,1.18945 1.00977,1.53516 c 0.92388,1.40501 1.41608,3.04891 1.41601,4.73046 -0.002,2.23796 -0.87427,4.38487 -2.43359,5.99024 l -1.00391,1.0332 0.61328,1.30274 c 0.54193,1.14888 0.82429,2.40354 0.82422,3.67382 3.4e-4,4.77679 -3.82616,8.60416 -8.60156,8.60938 -0.0343,-0.001 -0.0692,-0.002 -0.10352,-0.004 l -0.94921,-0.0469 -0.65625,0.6875 c -2.92718,3.06618 -6.99629,4.95898 -11.55469,4.95898 -8.56162,0 -15.48527,-6.66672 -16.0586,-15.24414 l -0.0312,-0.45508 -0.21679,-0.40039 c -0.68591,-1.26004 -1.04706,-2.67085 -1.04883,-4.10547 v -0.002 c 1e-4,-0.43546 0.0337,-0.87033 0.0996,-1.30078 l 0.13086,-0.85937 -0.51953,-0.69922 c -1.10792,-1.48431 -1.70823,-3.2846 -1.71094,-5.13672 v -0.004 c 0.003,-2.32864 0.94799,-4.554 2.62109,-6.17383 l 0.63282,-0.61328 v -4.58594 l -1.41016,-0.47851 c -3.4975,-1.18686 -5.83982,-4.45144 -5.84375,-8.14453 v -0.004 c 0.003,-2.23802 0.87572,-4.38519 2.43555,-5.99023 l 1.0039,-1.03321 -0.61523,-1.30273 c -0.54197,-1.1477 -0.82328,-2.40266 -0.82422,-3.67188 0,-6.4e-4 0,-0.001 0,-0.002 0.003,-0.96425 0.16834,-1.92042 0.48828,-2.83008 l 0.79492,-2.26172 -2.35156,-0.46679 c -4.03916,-0.80262 -6.92795,-4.31956 -6.93164,-8.4375 v -0.002 c 1.4e-4,-0.43864 0.0347,-0.87702 0.10156,-1.31054 l 0.28906,-1.87891 -1.8457,-0.45508 c -0.55355,-0.13665 -1.09169,-0.32913 -1.60742,-0.57226 l -1.30274,-0.61328 -1.0332,1.0039 c -1.60526,1.56086 -3.75324,2.43492 -5.99219,2.4375 -3.32688,-9.4e-4 -6.34507,-1.90941 -7.77343,-4.91406 l -1.08399,-2.28125 -2.02929,1.50391 c -1.4793,1.09573 -3.2705,1.68842 -5.11133,1.6914 -1.64072,-0.002 -3.24663,-0.47354 -4.62891,-1.35742 l -2.33398,-1.49219 -0.7793,2.66016 c -1.07687,3.67577 -4.42771,6.18728 -8.25781,6.18945 -2.52286,-0.002 -4.91385,-1.10987 -6.54883,-3.03125 l -1.19336,-1.40234 -1.53711,1.01562 c -0.49995,0.33046 -1.03229,0.60839 -1.58984,0.82813 l -1.95899,0.77148 0.79688,1.94922 c 0.42305,1.03477 0.64083,2.14187 0.64062,3.25977 -0.002,2.11895 -0.78463,4.16059 -2.19922,5.73828 l -1.59765,1.78125 1.98633,1.33398 c 2.38298,1.6 3.80977,4.27423 3.81054,7.14453 -0.003,2.46408 -1.0589,4.80652 -2.90429,6.43946 l -1.75977,1.55664 1.75977,1.55664 c 1.84752,1.63483 2.9041,3.98028 2.90429,6.44726 -0.003,2.93715 -1.49787,5.66407 -3.97265,7.2461 l -2.74024,1.75195 2.74024,1.75195 c 2.47628,1.58299 3.9716,4.31099 3.97265,7.25 2.8e-4,3.55138 -2.16726,6.72581 -5.47461,8.01954 l -1.96484,0.76757 0.79883,1.95508 c 0.42285,1.03428 0.64062,2.14044 0.64062,3.25781 3.4e-4,4.77892 -3.82903,8.60954 -8.60742,8.61133 -0.47609,-0.001 -0.95053,-0.0415 -1.41992,-0.12109 l -1.33985,-0.22852 -0.74414,1.13672 c -2.88851,4.3958 -7.775,7.26953 -13.38867,7.26953 -7.22431,0 -13.1991,-4.78759 -15.26758,-11.43945 l -0.28711,-0.92383 -0.89257,-0.375 c -3.19729,-1.34393 -5.2693,-4.45975 -5.27344,-7.92773 v -0.004 c 0.003,-2.52117 1.1095,-4.91244 3.0293,-6.54687 l 1.39843,-1.18946 -1.00976,-1.53515 c -0.92314,-1.40286 -1.4162,-3.04533 -1.41797,-4.72461 v -0.004 c 0.003,-2.46919 1.06551,-4.81645 2.91797,-6.44922 l 0.70312,-0.61914 v -4.23828 l -1.48242,-0.44531 c -3.65178,-1.09407 -6.1384,-4.43394 -6.13867,-8.2461 8e-5,-3.30993 1.88791,-6.31588 4.86914,-7.7539 l 2.98633,-1.44141 -2.59571,-2.06054 c -2.05865,-1.63348 -3.25868,-4.11233 -3.25976,-6.74024 v -0.002 c 0.002,-2.23873 0.87527,-4.38668 2.43555,-5.99219 l 1.0039,-1.0332 -0.61523,-1.30274 c -0.54169,-1.14712 -0.823,-2.40136 -0.82422,-3.66992 v -0.002 c 0,-6.4e-4 0,-0.001 0,-0.002 0.001,-0.68038 0.0833,-1.35645 0.24414,-2.01757 l 1.7832,-7.33008 -5.28515,5.38086 c -1.61695,1.64642 -3.82523,2.57528 -6.13282,2.57812 -2.39402,1.5e-4 -4.67684,-0.99639 -6.30664,-2.75 l -2.41797,-2.59961 -1.08398,3.38086 c -0.2497,0.77797 -0.61053,1.51662 -1.06836,2.19336 l -0.78906,1.16602 0.79101,1.16601 c 0.96802,1.42671 1.48644,3.10988 1.48633,4.83399 -0.002,1.6782 -0.49395,3.31847 -1.41601,4.7207 l -1.00977,1.53516 1.39844,1.18945 c 1.92104,1.63629 3.02681,4.02928 3.02734,6.55273 -0.003,2.07071 -0.75187,4.06911 -2.10937,5.63282 l -1.18164,1.36328 1.18164,1.36328 c 1.35934,1.56584 2.10876,3.56706 2.10937,5.64062 -7e-5,3.3258 -1.90735,6.34372 -4.91015,7.77344 l -2.27735,1.08399 1.5,2.02929 c 1.09483,1.48092 1.68672,3.27161 1.6875,5.11328 -0.002,2.11895 -0.78463,4.1606 -2.19922,5.73829 l -1.59765,1.78125 1.98633,1.33398 c 2.38345,1.60031 3.81029,4.27563 3.81054,7.14648 3.4e-4,4.77959 -3.83005,8.61061 -8.60937,8.61133 -1.27696,-8.1e-4 -2.53812,-0.28576 -3.69141,-0.83398 l -1.95312,-0.92969 -0.85157,1.99024 c -0.12428,0.29063 -0.37789,0.69341 -0.68945,1.27343 l -0.29297,0.54688 0.0547,0.61914 c 0.0213,0.24223 0.0325,0.48535 0.0332,0.72851 -0.003,4.77679 -3.83205,8.60475 -8.60937,8.60547 -1.81825,-0.002 -3.58692,-0.5799 -5.05664,-1.65039 l -0.49414,-0.36133 -0.61133,-0.0352 c -0.95964,-0.0553 -1.84159,-0.14215 -2.61914,-0.31836 l -0.99024,-0.22461 -0.78515,0.64258 c -1.36649,1.11769 -3.04238,1.78903 -4.80274,1.92187 h -0.002 c -0.2141,0.0164 -0.4298,0.025 -0.64453,0.0254 -4.77839,-0.002 -8.60776,-3.83241 -8.60742,-8.61133 0.002,-1.35831 0.32692,-2.69488 0.94531,-3.90429 l 0.88281,-1.72656 -1.66211,-1.00196 c -2.58523,-1.55787 -4.1628,-4.34709 -4.16601,-7.36523 v -0.004 c 0.003,-2.119 0.78609,-4.1609 2.20117,-5.73828 l 1.59765,-1.78125 -1.98632,-1.33398 c -2.38359,-1.59964 -3.81137,-4.27394 -3.8125,-7.14454 0.003,-2.93862 1.50145,-5.66682 3.97851,-7.24804 l 2.74414,-1.75196 -2.74414,-1.75195 c -2.47651,-1.58086 -3.97455,-4.30822 -3.97851,-7.24609 v -0.004 c 0.003,-2.07149 0.75241,-4.07117 2.11132,-5.63476 l 1.18555,-1.36329 -1.18555,-1.36328 c -1.35934,-1.56408 -2.10861,-3.56452 -2.11132,-5.63672 v -0.002 c 5.9e-4,-1.72289 0.51898,-3.40435 1.48632,-4.83008 l 0.79102,-1.16797 -0.79102,-1.16796 c -0.96704,-1.42528 -1.48542,-3.10578 -1.48632,-4.82813 v -0.002 c 0.002,-1.68083 0.49697,-3.32306 1.42187,-4.72656 l 1.01172,-1.53711 -1.40039,-1.19141 c -1.92055,-1.63348 -3.02897,-4.02185 -3.0332,-6.54297 v -0.002 c 0,-6.5e-4 0,-0.001 0,-0.002 0.003,-2.07203 0.75205,-4.07272 2.11132,-5.63671 l 1.18555,-1.36329 -1.18555,-1.36328 c -1.35856,-1.56318 -2.10777,-3.56186 -2.11132,-5.63281 v -0.002 c 0,-6.5e-4 0,-0.001 0,-0.002 9.1e-4,-0.86234 0.13107,-1.71936 0.38671,-2.54296 l 0.33594,-1.08008 -0.72461,-0.86914 c -1.2885,-1.5448 -1.99507,-3.49046 -1.99804,-5.50196 v -0.004 c 0,-6.5e-4 0,-0.001 0,-0.002 0.002,-0.89506 0.14374,-1.7853 0.41992,-2.63671 l 0.47265,-1.45508 -1.25,-0.88281 c -2.28303,-1.61282 -3.6395,-4.22828 -3.64257,-7.02344 v -0.002 c 0.002,-0.89506 0.14374,-1.7853 0.41992,-2.63671 l 0.47265,-1.45508 -1.25,-0.88281 c -2.2825,-1.61244 -3.63887,-4.22706 -3.64257,-7.02149 v -0.002 c 0,-6.5e-4 0,-0.001 0,-0.002 0.002,-2.11954 0.78573,-4.16245 2.20117,-5.74023 l 1.59765,-1.78125 -1.98632,-1.33398 c -2.38204,-1.5986 -3.80955,-4.27208 -3.8125,-7.14063 v -0.004 c 0.003,-1.84083 0.59567,-3.63203 1.6914,-5.11132 l 1.50391,-2.0293 -2.28125,-1.08398 c -3.00465,-1.42837 -4.91312,-4.44656 -4.91406,-7.77344 -2.3e-4,-3.31086 1.88873,-6.31804 4.87109,-7.75586 l 2.98828,-1.44141 -2.59961,-2.06054 c -2.05975,-1.63357 -3.25889,-4.11329 -3.25976,-6.74219 3.3e-4,-3.32746 1.90889,-6.34678 4.91406,-7.77539 l 2.28125,-1.08399 -1.50391,-2.02929 c -1.0958,-1.47938 -1.6885,-3.27035 -1.6914,-5.11133 v -0.002 c 0.001,-3.32667 1.90949,-6.34511 4.91406,-7.77343 l 2.28125,-1.08399 -1.50391,-2.02929 c -1.09541,-1.47886 -1.68809,-3.26908 -1.6914,-5.10938 v -0.004 c 0.003,-2.07203 0.75205,-4.07272 2.11132,-5.63671 l 1.18555,-1.36329 -1.18555,-1.36328 c -1.35941,-1.56416 -2.1087,-3.56437 -2.11132,-5.63672 9.8e-4,-2.62873 1.20008,-5.10868 3.25976,-6.74218 l 2.59961,-2.06055 -2.98828,-1.44141 c -2.98185,-1.43757 -4.87071,-4.44361 -4.87109,-7.7539 0.002,-2.07274 0.75162,-4.07418 2.11132,-5.63867 l 1.18555,-1.36329 -1.18555,-1.36328 c -1.35856,-1.56318 -2.10777,-3.56186 -2.11132,-5.63281 v -0.004 c 0.003,-2.46574 1.06226,-4.80866 2.91015,-6.4414 l 1.76172,-1.5586 -1.76172,-1.55859 c -1.84755,-1.63245 -2.90685,-3.97409 -2.91015,-6.43945 v -0.002 c 5.2e-4,-3.31008 1.88932,-6.31637 4.87109,-7.7539 l 2.98828,-1.44141 -2.59961,-2.06054 c -2.05924,-1.63317 -3.2583,-4.11206 -3.25976,-6.74024 v -0.002 c 0.003,-2.93919 1.50098,-5.66848 3.97851,-7.25 l 2.74414,-1.75196 -2.74414,-1.75195 c -2.47604,-1.58056 -3.97402,-4.30682 -3.97851,-7.24414 v -0.004 c 0.003,-2.23955 0.87771,-4.38881 2.43945,-5.99414 l 2.80078,-2.8789 -3.96875,-0.62305 c -4.19961,-0.66077 -7.26889,-4.24893 -7.27148,-8.5 v -0.002 c 0.002,-1.68083 0.49697,-3.32306 1.42187,-4.72656 l 1.01172,-1.53711 -1.40039,-1.19141 c -1.92055,-1.63348 -3.02897,-4.02185 -3.0332,-6.54297 v -0.002 c 0,-6.5e-4 0,-0.001 0,-0.002 0.002,-2.11954 0.78573,-4.16245 2.20117,-5.74023 l 1.59765,-1.78125 -1.98632,-1.33398 c -2.38204,-1.5986 -3.80955,-4.27208 -3.8125,-7.14063 v -0.004 c 0.002,-2.11954 0.78573,-4.16245 2.20117,-5.74023 l 1.59765,-1.78125 -1.98632,-1.33398 c -2.38359,-1.59964 -3.81137,-4.27394 -3.8125,-7.14454 0.002,-2.65308 1.22549,-5.1525 3.31836,-6.7832 l 0.95898,-0.74805 -0.18164,-1.20117 c -0.063,-0.41833 -0.0948,-0.84257 -0.0957,-1.26562 v -0.002 c -1e-5,-0.001 0,-0.003 0,-0.004 0.004,-1.83961 0.59637,-3.62909 1.6914,-5.10742 l 1.50391,-2.0293 -2.28125,-1.08398 c -3.00517,-1.42861 -4.91373,-4.44794 -4.91406,-7.7754 0.003,-2.46591 1.06219,-4.80859 2.91015,-6.4414 l 1.76172,-1.5586 -1.76172,-1.55859 c -1.84748,-1.63238 -2.90675,-3.97425 -2.91015,-6.43945 v -0.002 c 0,-6.5e-4 0,-0.001 0,-0.002 0.004,-3.82912 2.5162,-7.17992 6.1914,-8.25586 l 2.66211,-0.77929 -1.49609,-2.33594 c -0.88472,-1.38257 -1.3554,-2.9875 -1.35742,-4.62891 0.002,-4.77869 3.83237,-8.60776 8.61132,-8.60742 z"
       id="rect1078"
       transform="scale(0.26458333)" />
    <g
       id="path4051"
       style="display:inline">
      <path
         style="color:#000000;fill:#b2b2b2;stroke-width:1.3;stroke-linecap:round;-inkscape-stroke:none"
         d="m 73.291062,58.061901 c 0,2.767958 -2.939638,6.070165 -6.565865,6.070165 -3.626227,1e-6 -6.565866,-3.302206 -6.565866,-6.070165 0,-2.767959 2.939639,-5.011832 6.565866,-5.011832 3.626227,0 6.565865,2.243874 6.565865,5.011832 z"
         id="path8283" />
      <path
         style="color:#000000;fill:#000000;stroke-linecap:round;-inkscape-stroke:none"
         d="m 66.724609,52.400391 c -1.947182,0 -3.722169,0.597847 -5.037109,1.601562 -1.31494,1.003715 -2.200215,1.909373 -2.200215,3.523456 0,1.614083 0.84707,3.797753 2.139668,5.072247 1.292598,1.274494 3.735557,2.588712 5.154768,2.588711 1.342954,0 3.519451,-1.209352 4.812049,-2.483846 1.292598,-1.274494 2.44507,-2.242398 2.44507,-3.856481 0,-1.614083 -0.408619,-3.437898 -1.723558,-4.441613 -1.31494,-1.003715 -3.64349,-2.004036 -5.590673,-2.004036 z m 0,1.298828 c 1.679041,0 3.186613,0.525727 4.248047,1.335937 1.061434,0.81021 1.667969,1.873471 1.667969,3.027344 0,1.153873 -0.64474,2.540779 -1.728516,3.609375 -1.083775,1.068596 -2.370004,2.306169 -3.98581,2.306169 -1.615805,0 -3.303461,-1.237573 -4.387237,-2.306169 -1.083775,-1.068596 -1.730468,-2.455502 -1.730468,-3.609375 0,-1.153873 0.606535,-2.217134 1.667968,-3.027344 1.061434,-0.810209 2.569007,-1.335937 4.248047,-1.335937 z"
         id="path8285"
         sodipodi:nodetypes="ssssssssssssssssss" />
    </g>
    <path
       id="path4308"
       style="display:inline;fill:#000000;fill-opacity:1;stroke:#000000;stroke-width:0.528714;stroke-linecap:round;stroke-miterlimit:4;stroke-dasharray:none"
       d="m 245.16992,211.25977 a 7.1852338,3.5279201 26.681408 0 0 -2.80859,1.2832 7.1852338,3.5279201 26.681408 0 0 4.83594,6.37695 7.1852338,3.5279201 26.681408 0 0 3.17382,1.13672 c 0.0901,1.20739 0.16564,2.96208 0.0508,4.77344 -0.10364,1.63447 -0.37498,3.2872 -0.84766,4.50976 -0.47266,1.22257 -1.04923,1.89467 -1.73438,2.16407 -0.42926,0.16879 -0.7627,0.14301 -1.30664,-0.0957 -0.54394,-0.23871 -1.19627,-0.74048 -1.77929,-1.33008 -1.16606,-1.1792 -1.98633,-2.58398 -1.98633,-2.58398 -0.51865,-0.90882 -1.67708,-1.22316 -2.58399,-0.70117 -0.90881,0.51865 -1.22315,1.67708 -0.70117,2.58398 0,0 0.98703,1.75231 2.57617,3.35938 0.79459,0.80353 1.75316,1.60614 2.95313,2.13281 1.19997,0.52667 2.74109,0.73264 4.20703,0.15625 1.63421,-0.64256 2.73965,-1.93809 3.4668,-3.37891 0.33864,0.57304 0.74488,1.11817 1.24414,1.60743 1.02123,1.00075 2.56746,1.70597 4.23633,1.55664 5.66805,-0.5072 8.34179,-5.83203 8.34179,-5.83203 0.48898,-0.92176 0.13837,-2.06538 -0.7832,-2.55469 -0.92335,-0.48647 -2.06623,-0.13232 -2.55273,0.79101 0,0 -2.00317,3.53168 -5.3379,3.83008 -0.57557,0.0515 -0.83202,-0.071 -1.25586,-0.48633 -0.42382,-0.41534 -0.881,-1.19225 -1.23242,-2.11914 -0.69455,-1.83196 -0.97858,-3.16769 -1.08789,-5.16992 -0.0482,-0.88298 -0.11169,-2.01087 -0.16797,-3.00781 a 3.5279201,7.1852338 63.318592 0 0 4.66993,-1.3418 3.5279201,7.1852338 63.318592 0 0 4.83593,-6.37695 3.5279201,7.1852338 63.318592 0 0 -8.00586,0.0742 3.5279201,7.1852338 63.318592 0 0 -2.61132,1.69922 7.1852338,3.5279201 26.681408 0 0 -2.61133,-1.69922 7.1852338,3.5279201 26.681408 0 0 -5.19727,-1.35742 z"
       transform="scale(0.26458333)" />
    <ellipse
       style="fill:none;fill-opacity:1;stroke:none;stroke-width:1.1;stroke-linecap:round;stroke-miterlimit:4;stroke-dasharray:none;stroke-opacity:1"
       id="path10955"
       cx="103.45097"
       cy="53.629787"
       rx="3.9806488"
       ry="4.7202621" />
    <g
       id="g12192">
      <path
         id="circle8852"
         style="stroke:#000000;stroke-width:0.3;stroke-linecap:round"
         d="m 60.131683,51.445453 c 0,1.636528 -0.209779,2.963196 -2.345157,2.963196 -2.165429,0 -2.345157,-1.326668 -2.345157,-2.963196 0,-1.636528 1.049963,-2.963196 2.345157,-2.963196 1.295194,0 2.345157,1.326668 2.345157,2.963196 z"
         sodipodi:nodetypes="sssss" />
      <circle
         style="fill:#b2b2b2;fill-opacity:1;stroke:none;stroke-width:1.1;stroke-linecap:round;stroke-miterlimit:4;stroke-dasharray:none;stroke-opacity:1"
         id="path10957"
         cx="58.643887"
         cy="51.657112"
         r="0.72013813" />
    </g>
    <g
       id="g12198"
       transform="matrix(-1,0,0,1,133.76896,0)">
      <path
         id="path12194"
         style="stroke:#000000;stroke-width:0.3;stroke-linecap:round"
         d="m 60.66085,51.445453 c 0,1.636528 -0.209779,2.963196 -2.345157,2.963196 -2.165429,0 -2.345157,-1.326668 -2.345157,-2.963196 0,-1.636528 1.049963,-2.963196 2.345157,-2.963196 1.295194,0 2.345157,1.326668 2.345157,2.963196 z"
         sodipodi:nodetypes="sssss" />
      <circle
         style="fill:#b2b2b2;fill-opacity:1;stroke:none;stroke-width:1.1;stroke-linecap:round;stroke-miterlimit:4;stroke-dasharray:none;stroke-opacity:1"
         id="circle12196"
         cx="59.173054"
         cy="51.657112"
         r="0.72013813" />
    </g>
    <path
       id="path12477"
       style="fill:#eeeeee;stroke-width:1000;stroke-linecap:round"
       d="m 58.645374,58.516857 c 0,1.131542 -1.001188,2.048839 -2.236217,2.048839 -1.235029,0 -2.236217,-0.416912 -2.236217,-2.048839 0,-1.442884 1.001189,-2.048838 2.236217,-2.048838 1.235028,0 2.236217,0.686235 2.236217,2.048838 z"
       sodipodi:nodetypes="sssss" />
    <path
       id="path15095"
       style="fill:#eeeeee;stroke-width:1000;stroke-linecap:round"
       d="m 74.871197,58.516857 c 0,1.131542 1.001188,2.048839 2.236217,2.048839 1.235029,0 2.236217,-0.416912 2.236217,-2.048839 0,-1.442884 -1.001189,-2.048838 -2.236217,-2.048838 -1.235028,0 -2.236217,0.686235 -2.236217,2.048838 z"
       sodipodi:nodetypes="sssss" />
  </g>
</svg>
