%TF.GenerationSoftware,KiCad,Pcbnew,5.1.10*%
%TF.CreationDate,2021-09-11T14:18:55+02:00*%
%TF.ProjectId,alpaka_svg2shenzhen,616c7061-6b61-45f7-9376-67327368656e,rev?*%
%TF.SameCoordinates,Original*%
%TF.FileFunction,Legend,Bot*%
%TF.FilePolarity,Positive*%
%FSLAX46Y46*%
G04 Gerber Fmt 4.6, Leading zero omitted, Abs format (unit mm)*
G04 Created by KiCad (PCBNEW 5.1.10) date 2021-09-11 14:18:55*
%MOMM*%
%LPD*%
G01*
G04 APERTURE LIST*
%ADD10C,0.150000*%
%ADD11C,0.254000*%
%ADD12C,0.120000*%
G04 APERTURE END LIST*
D10*
X99966019Y-60599580D02*
X100061257Y-60551961D01*
X100108876Y-60504342D01*
X100156495Y-60409104D01*
X100156495Y-60123390D01*
X100108876Y-60028152D01*
X100061257Y-59980533D01*
X99966019Y-59932914D01*
X99823161Y-59932914D01*
X99727923Y-59980533D01*
X99680304Y-60028152D01*
X99632685Y-60123390D01*
X99632685Y-60409104D01*
X99680304Y-60504342D01*
X99727923Y-60551961D01*
X99823161Y-60599580D01*
X99966019Y-60599580D01*
X99204114Y-60599580D02*
X99204114Y-59599580D01*
X99204114Y-59980533D02*
X99108876Y-59932914D01*
X98918400Y-59932914D01*
X98823161Y-59980533D01*
X98775542Y-60028152D01*
X98727923Y-60123390D01*
X98727923Y-60409104D01*
X98775542Y-60504342D01*
X98823161Y-60551961D01*
X98918400Y-60599580D01*
X99108876Y-60599580D01*
X99204114Y-60551961D01*
X97918400Y-60551961D02*
X98013638Y-60599580D01*
X98204114Y-60599580D01*
X98299352Y-60551961D01*
X98346971Y-60456723D01*
X98346971Y-60075771D01*
X98299352Y-59980533D01*
X98204114Y-59932914D01*
X98013638Y-59932914D01*
X97918400Y-59980533D01*
X97870780Y-60075771D01*
X97870780Y-60171009D01*
X98346971Y-60266247D01*
X97442209Y-60599580D02*
X97442209Y-59932914D01*
X97442209Y-60123390D02*
X97394590Y-60028152D01*
X97346971Y-59980533D01*
X97251733Y-59932914D01*
X97156495Y-59932914D01*
X96680304Y-60599580D02*
X96775542Y-60551961D01*
X96823161Y-60456723D01*
X96823161Y-59599580D01*
X95870780Y-60599580D02*
X95870780Y-60075771D01*
X95918400Y-59980533D01*
X96013638Y-59932914D01*
X96204114Y-59932914D01*
X96299352Y-59980533D01*
X95870780Y-60551961D02*
X95966019Y-60599580D01*
X96204114Y-60599580D01*
X96299352Y-60551961D01*
X96346971Y-60456723D01*
X96346971Y-60361485D01*
X96299352Y-60266247D01*
X96204114Y-60218628D01*
X95966019Y-60218628D01*
X95870780Y-60171009D01*
X95394590Y-60599580D02*
X95394590Y-59599580D01*
X95394590Y-59980533D02*
X95299352Y-59932914D01*
X95108876Y-59932914D01*
X95013638Y-59980533D01*
X94966019Y-60028152D01*
X94918400Y-60123390D01*
X94918400Y-60409104D01*
X94966019Y-60504342D01*
X95013638Y-60551961D01*
X95108876Y-60599580D01*
X95299352Y-60599580D01*
X95394590Y-60551961D01*
X94489828Y-60504342D02*
X94442209Y-60551961D01*
X94489828Y-60599580D01*
X94537447Y-60551961D01*
X94489828Y-60504342D01*
X94489828Y-60599580D01*
X93585066Y-60599580D02*
X93585066Y-59599580D01*
X93585066Y-60551961D02*
X93680304Y-60599580D01*
X93870780Y-60599580D01*
X93966019Y-60551961D01*
X94013638Y-60504342D01*
X94061257Y-60409104D01*
X94061257Y-60123390D01*
X94013638Y-60028152D01*
X93966019Y-59980533D01*
X93870780Y-59932914D01*
X93680304Y-59932914D01*
X93585066Y-59980533D01*
X92727923Y-60551961D02*
X92823161Y-60599580D01*
X93013638Y-60599580D01*
X93108876Y-60551961D01*
X93156495Y-60456723D01*
X93156495Y-60075771D01*
X93108876Y-59980533D01*
X93013638Y-59932914D01*
X92823161Y-59932914D01*
X92727923Y-59980533D01*
X92680304Y-60075771D01*
X92680304Y-60171009D01*
X93156495Y-60266247D01*
X84676571Y-47703266D02*
X84200380Y-47703266D01*
X84771809Y-47988980D02*
X84438476Y-46988980D01*
X84105142Y-47988980D01*
X83628952Y-47988980D02*
X83724190Y-47941361D01*
X83771809Y-47846123D01*
X83771809Y-46988980D01*
X82867047Y-47941361D02*
X82962285Y-47988980D01*
X83152761Y-47988980D01*
X83248000Y-47941361D01*
X83295619Y-47846123D01*
X83295619Y-47465171D01*
X83248000Y-47369933D01*
X83152761Y-47322314D01*
X82962285Y-47322314D01*
X82867047Y-47369933D01*
X82819428Y-47465171D01*
X82819428Y-47560409D01*
X83295619Y-47655647D01*
X82486095Y-47988980D02*
X81962285Y-47322314D01*
X82486095Y-47322314D02*
X81962285Y-47988980D01*
X80819428Y-47988980D02*
X80819428Y-46988980D01*
X80248000Y-47988980D02*
X80676571Y-47417552D01*
X80248000Y-46988980D02*
X80819428Y-47560409D01*
X79390857Y-47322314D02*
X79390857Y-47988980D01*
X79819428Y-47322314D02*
X79819428Y-47846123D01*
X79771809Y-47941361D01*
X79676571Y-47988980D01*
X79533714Y-47988980D01*
X79438476Y-47941361D01*
X79390857Y-47893742D01*
X79057523Y-47322314D02*
X78676571Y-47322314D01*
X78914666Y-46988980D02*
X78914666Y-47846123D01*
X78867047Y-47941361D01*
X78771809Y-47988980D01*
X78676571Y-47988980D01*
X78390857Y-47941361D02*
X78295619Y-47988980D01*
X78105142Y-47988980D01*
X78009904Y-47941361D01*
X77962285Y-47846123D01*
X77962285Y-47798504D01*
X78009904Y-47703266D01*
X78105142Y-47655647D01*
X78248000Y-47655647D01*
X78343238Y-47608028D01*
X78390857Y-47512790D01*
X78390857Y-47465171D01*
X78343238Y-47369933D01*
X78248000Y-47322314D01*
X78105142Y-47322314D01*
X78009904Y-47369933D01*
X77105142Y-47941361D02*
X77200380Y-47988980D01*
X77390857Y-47988980D01*
X77486095Y-47941361D01*
X77533714Y-47893742D01*
X77581333Y-47798504D01*
X77581333Y-47512790D01*
X77533714Y-47417552D01*
X77486095Y-47369933D01*
X77390857Y-47322314D01*
X77200380Y-47322314D01*
X77105142Y-47369933D01*
X76676571Y-47988980D02*
X76676571Y-46988980D01*
X76248000Y-47988980D02*
X76248000Y-47465171D01*
X76295619Y-47369933D01*
X76390857Y-47322314D01*
X76533714Y-47322314D01*
X76628952Y-47369933D01*
X76676571Y-47417552D01*
X75390857Y-47941361D02*
X75486095Y-47988980D01*
X75676571Y-47988980D01*
X75771809Y-47941361D01*
X75819428Y-47846123D01*
X75819428Y-47465171D01*
X75771809Y-47369933D01*
X75676571Y-47322314D01*
X75486095Y-47322314D01*
X75390857Y-47369933D01*
X75343238Y-47465171D01*
X75343238Y-47560409D01*
X75819428Y-47655647D01*
X74914666Y-47988980D02*
X74914666Y-47322314D01*
X74914666Y-47512790D02*
X74867047Y-47417552D01*
X74819428Y-47369933D01*
X74724190Y-47322314D01*
X74628952Y-47322314D01*
X73867047Y-47988980D02*
X73867047Y-47465171D01*
X73914666Y-47369933D01*
X74009904Y-47322314D01*
X74200380Y-47322314D01*
X74295619Y-47369933D01*
X73867047Y-47941361D02*
X73962285Y-47988980D01*
X74200380Y-47988980D01*
X74295619Y-47941361D01*
X74343238Y-47846123D01*
X74343238Y-47750885D01*
X74295619Y-47655647D01*
X74200380Y-47608028D01*
X73962285Y-47608028D01*
X73867047Y-47560409D01*
X83533714Y-49638980D02*
X84105142Y-49638980D01*
X83819428Y-49638980D02*
X83819428Y-48638980D01*
X83914666Y-48781838D01*
X84009904Y-48877076D01*
X84105142Y-48924695D01*
X82581333Y-49638980D02*
X83152761Y-49638980D01*
X82867047Y-49638980D02*
X82867047Y-48638980D01*
X82962285Y-48781838D01*
X83057523Y-48877076D01*
X83152761Y-48924695D01*
X82152761Y-49258028D02*
X81390857Y-49258028D01*
X80724190Y-48638980D02*
X80628952Y-48638980D01*
X80533714Y-48686600D01*
X80486095Y-48734219D01*
X80438476Y-48829457D01*
X80390857Y-49019933D01*
X80390857Y-49258028D01*
X80438476Y-49448504D01*
X80486095Y-49543742D01*
X80533714Y-49591361D01*
X80628952Y-49638980D01*
X80724190Y-49638980D01*
X80819428Y-49591361D01*
X80867047Y-49543742D01*
X80914666Y-49448504D01*
X80962285Y-49258028D01*
X80962285Y-49019933D01*
X80914666Y-48829457D01*
X80867047Y-48734219D01*
X80819428Y-48686600D01*
X80724190Y-48638980D01*
X79914666Y-49638980D02*
X79724190Y-49638980D01*
X79628952Y-49591361D01*
X79581333Y-49543742D01*
X79486095Y-49400885D01*
X79438476Y-49210409D01*
X79438476Y-48829457D01*
X79486095Y-48734219D01*
X79533714Y-48686600D01*
X79628952Y-48638980D01*
X79819428Y-48638980D01*
X79914666Y-48686600D01*
X79962285Y-48734219D01*
X80009904Y-48829457D01*
X80009904Y-49067552D01*
X79962285Y-49162790D01*
X79914666Y-49210409D01*
X79819428Y-49258028D01*
X79628952Y-49258028D01*
X79533714Y-49210409D01*
X79486095Y-49162790D01*
X79438476Y-49067552D01*
X79009904Y-49258028D02*
X78248000Y-49258028D01*
X77819428Y-48734219D02*
X77771809Y-48686600D01*
X77676571Y-48638980D01*
X77438476Y-48638980D01*
X77343238Y-48686600D01*
X77295619Y-48734219D01*
X77248000Y-48829457D01*
X77248000Y-48924695D01*
X77295619Y-49067552D01*
X77867047Y-49638980D01*
X77248000Y-49638980D01*
X76628952Y-48638980D02*
X76533714Y-48638980D01*
X76438476Y-48686600D01*
X76390857Y-48734219D01*
X76343238Y-48829457D01*
X76295619Y-49019933D01*
X76295619Y-49258028D01*
X76343238Y-49448504D01*
X76390857Y-49543742D01*
X76438476Y-49591361D01*
X76533714Y-49638980D01*
X76628952Y-49638980D01*
X76724190Y-49591361D01*
X76771809Y-49543742D01*
X76819428Y-49448504D01*
X76867047Y-49258028D01*
X76867047Y-49019933D01*
X76819428Y-48829457D01*
X76771809Y-48734219D01*
X76724190Y-48686600D01*
X76628952Y-48638980D01*
X75914666Y-48734219D02*
X75867047Y-48686600D01*
X75771809Y-48638980D01*
X75533714Y-48638980D01*
X75438476Y-48686600D01*
X75390857Y-48734219D01*
X75343238Y-48829457D01*
X75343238Y-48924695D01*
X75390857Y-49067552D01*
X75962285Y-49638980D01*
X75343238Y-49638980D01*
X74390857Y-49638980D02*
X74962285Y-49638980D01*
X74676571Y-49638980D02*
X74676571Y-48638980D01*
X74771809Y-48781838D01*
X74867047Y-48877076D01*
X74962285Y-48924695D01*
D11*
%TO.C,BT1*%
X79668350Y-61364259D02*
X79483932Y-61408168D01*
X79483932Y-61408168D02*
X79290719Y-61443300D01*
X79290719Y-61443300D02*
X79106300Y-61460859D01*
X85420590Y-61460859D02*
X84876100Y-61460859D01*
X84876100Y-61460859D02*
X84691681Y-61443300D01*
X84691681Y-61443300D02*
X84498468Y-61408168D01*
X84498468Y-61408168D02*
X84314050Y-61364259D01*
X87326290Y-60600218D02*
X87185781Y-60731950D01*
X87185781Y-60731950D02*
X87027700Y-60854900D01*
X87027700Y-60854900D02*
X86869631Y-60969068D01*
X86869631Y-60969068D02*
X86711550Y-61065668D01*
X86711550Y-61065668D02*
X86535909Y-61162281D01*
X86535909Y-61162281D02*
X86360268Y-61241309D01*
X86360268Y-61241309D02*
X86175840Y-61311568D01*
X86175840Y-61311568D02*
X85991418Y-61364259D01*
X85991418Y-61364259D02*
X85798218Y-61408168D01*
X85798218Y-61408168D02*
X85613790Y-61434518D01*
X85613790Y-61434518D02*
X85420590Y-61460859D01*
X88459181Y-59476118D02*
X87326290Y-60600218D01*
X86667640Y-52204591D02*
X88459181Y-53697541D01*
X75523219Y-53697541D02*
X77314760Y-52204591D01*
X76656110Y-60600218D02*
X75514441Y-59476118D01*
X79106300Y-61460859D02*
X78561810Y-61460859D01*
X78561810Y-61460859D02*
X78368610Y-61434518D01*
X78368610Y-61434518D02*
X78184182Y-61408168D01*
X78184182Y-61408168D02*
X77990982Y-61364259D01*
X77990982Y-61364259D02*
X77806550Y-61311568D01*
X77806550Y-61311568D02*
X77622132Y-61241309D01*
X77622132Y-61241309D02*
X77446491Y-61162281D01*
X77446491Y-61162281D02*
X77270850Y-61065668D01*
X77270850Y-61065668D02*
X77112769Y-60969068D01*
X77112769Y-60969068D02*
X76954700Y-60854900D01*
X76954700Y-60854900D02*
X76796619Y-60731950D01*
X76796619Y-60731950D02*
X76656110Y-60600218D01*
X88626031Y-53504332D02*
X86834500Y-52011382D01*
X86667640Y-52204591D02*
X86702768Y-52169460D01*
X86702768Y-52169460D02*
X86729109Y-52134332D01*
X86729109Y-52134332D02*
X86755459Y-52099200D01*
X86755459Y-52099200D02*
X86781809Y-52064082D01*
X86781809Y-52064082D02*
X86799368Y-52046510D01*
X86799368Y-52046510D02*
X86816931Y-52028950D01*
X86816931Y-52028950D02*
X86825718Y-52020169D01*
X86825718Y-52020169D02*
X86834500Y-52011382D01*
X88459181Y-53697541D02*
X88494300Y-53662410D01*
X88494300Y-53662410D02*
X88520650Y-53627282D01*
X88520650Y-53627282D02*
X88547000Y-53592150D01*
X88547000Y-53592150D02*
X88573340Y-53557019D01*
X88573340Y-53557019D02*
X88590909Y-53539460D01*
X88590909Y-53539460D02*
X88608468Y-53521891D01*
X88608468Y-53521891D02*
X88617250Y-53513110D01*
X88617250Y-53513110D02*
X88626031Y-53504332D01*
X75356369Y-53504332D02*
X77147900Y-52011382D01*
X75523219Y-53697541D02*
X75488100Y-53662410D01*
X75488100Y-53662410D02*
X75461750Y-53627282D01*
X75461750Y-53627282D02*
X75426619Y-53592150D01*
X75426619Y-53592150D02*
X75409060Y-53557019D01*
X75409060Y-53557019D02*
X75382710Y-53539460D01*
X75382710Y-53539460D02*
X75373932Y-53521891D01*
X75373932Y-53521891D02*
X75365150Y-53513110D01*
X75365150Y-53513110D02*
X75356369Y-53504332D01*
X77314760Y-52204591D02*
X77279632Y-52169460D01*
X77279632Y-52169460D02*
X77253291Y-52134332D01*
X77253291Y-52134332D02*
X77218160Y-52099200D01*
X77218160Y-52099200D02*
X77200591Y-52064082D01*
X77200591Y-52064082D02*
X77174250Y-52046510D01*
X77174250Y-52046510D02*
X77165469Y-52028950D01*
X77165469Y-52028950D02*
X77156682Y-52020169D01*
X77156682Y-52020169D02*
X77147900Y-52011382D01*
X88713850Y-59476118D02*
X88713850Y-59442340D01*
X88713850Y-53731319D02*
X88713850Y-53697541D01*
X88459181Y-53697541D02*
X88713850Y-53697541D01*
X88459181Y-59476118D02*
X88713850Y-59476118D01*
X75268541Y-59476118D02*
X75268541Y-59442340D01*
X75268541Y-53731319D02*
X75268541Y-53697541D01*
X75523219Y-53697541D02*
X75268541Y-53697541D01*
X75514441Y-59476118D02*
X75268541Y-59476118D01*
X86753700Y-52197000D02*
X84848700Y-52197000D01*
X79133700Y-52197000D02*
X77228700Y-52197000D01*
D12*
%TO.C,D1*%
X96429200Y-48463200D02*
G75*
G03*
X96429200Y-48463200I-2500000J0D01*
G01*
X96489200Y-46918200D02*
X96489200Y-50008200D01*
X90939200Y-48463662D02*
G75*
G02*
X96489200Y-46918370I2990000J462D01*
G01*
X90939200Y-48462738D02*
G75*
G03*
X96489200Y-50008030I2990000J-462D01*
G01*
%TO.C,SW1*%
X103103600Y-57048000D02*
X103103600Y-58448000D01*
X103103600Y-58448000D02*
X106903600Y-58448000D01*
X106903600Y-49248000D02*
X103103600Y-49248000D01*
X103103600Y-49248000D02*
X103103600Y-50648000D01*
X103103600Y-55648000D02*
X103103600Y-54548000D01*
X103103600Y-54548000D02*
X103103600Y-54548000D01*
X103103600Y-53148000D02*
X103103600Y-52048000D01*
X103103600Y-52048000D02*
X103103600Y-52048000D01*
X106903600Y-58448000D02*
X106903600Y-56748000D01*
X106903600Y-56748000D02*
X107203600Y-56748000D01*
X107203600Y-56748000D02*
X107203600Y-55948000D01*
X107203600Y-55948000D02*
X106903600Y-55948000D01*
X106903600Y-55948000D02*
X106903600Y-54248000D01*
X106903600Y-54248000D02*
X107203600Y-54248000D01*
X107203600Y-54248000D02*
X107203600Y-53448000D01*
X107203600Y-53448000D02*
X106903600Y-53448000D01*
X106903600Y-53448000D02*
X106903600Y-51748000D01*
X106903600Y-51748000D02*
X107203600Y-51748000D01*
X107203600Y-51748000D02*
X107203600Y-50948000D01*
X107203600Y-50948000D02*
X106903600Y-50948000D01*
X106903600Y-50948000D02*
X106903600Y-49248000D01*
X106903600Y-49248000D02*
X106903600Y-49248000D01*
X108803600Y-51848000D02*
X108303600Y-51848000D01*
X108303600Y-51848000D02*
X108303600Y-51848000D01*
X108803600Y-51848000D02*
X108803600Y-52348000D01*
X108803600Y-52348000D02*
X108803600Y-52348000D01*
X108803600Y-55848000D02*
X108803600Y-55348000D01*
X108803600Y-55348000D02*
X108803600Y-55348000D01*
X108803600Y-55848000D02*
X108303600Y-55848000D01*
X108303600Y-55848000D02*
X108303600Y-55848000D01*
X108003600Y-55848000D02*
X107503600Y-55848000D01*
X107503600Y-55848000D02*
X107503600Y-55848000D01*
X108003600Y-51848000D02*
X107503600Y-51848000D01*
X107503600Y-51848000D02*
X107503600Y-51848000D01*
X108803600Y-52648000D02*
X108803600Y-53148000D01*
X108803600Y-53148000D02*
X108803600Y-53148000D01*
X108803600Y-55048000D02*
X108803600Y-54548000D01*
X108803600Y-54548000D02*
X108803600Y-54548000D01*
X108803600Y-54248000D02*
X108803600Y-53448000D01*
X108803600Y-53448000D02*
X108803600Y-53448000D01*
%TO.C,D1*%
D10*
X98731295Y-48966380D02*
X98731295Y-47966380D01*
X98493200Y-47966380D01*
X98350342Y-48014000D01*
X98255104Y-48109238D01*
X98207485Y-48204476D01*
X98159866Y-48394952D01*
X98159866Y-48537809D01*
X98207485Y-48728285D01*
X98255104Y-48823523D01*
X98350342Y-48918761D01*
X98493200Y-48966380D01*
X98731295Y-48966380D01*
X97207485Y-48966380D02*
X97778914Y-48966380D01*
X97493200Y-48966380D02*
X97493200Y-47966380D01*
X97588438Y-48109238D01*
X97683676Y-48204476D01*
X97778914Y-48252095D01*
%TO.C,SW1*%
X100608361Y-52514666D02*
X100655980Y-52657523D01*
X100655980Y-52895619D01*
X100608361Y-52990857D01*
X100560742Y-53038476D01*
X100465504Y-53086095D01*
X100370266Y-53086095D01*
X100275028Y-53038476D01*
X100227409Y-52990857D01*
X100179790Y-52895619D01*
X100132171Y-52705142D01*
X100084552Y-52609904D01*
X100036933Y-52562285D01*
X99941695Y-52514666D01*
X99846457Y-52514666D01*
X99751219Y-52562285D01*
X99703600Y-52609904D01*
X99655980Y-52705142D01*
X99655980Y-52943238D01*
X99703600Y-53086095D01*
X99655980Y-53419428D02*
X100655980Y-53657523D01*
X99941695Y-53848000D01*
X100655980Y-54038476D01*
X99655980Y-54276571D01*
X100655980Y-55181333D02*
X100655980Y-54609904D01*
X100655980Y-54895619D02*
X99655980Y-54895619D01*
X99798838Y-54800380D01*
X99894076Y-54705142D01*
X99941695Y-54609904D01*
%TD*%
M02*
