%TF.GenerationSoftware,KiCad,Pcbnew,5.1.10*%
%TF.CreationDate,2021-10-07T15:14:53+02:00*%
%TF.ProjectId,alpaka_svg2shenzhen,616c7061-6b61-45f7-9376-67327368656e,rev?*%
%TF.SameCoordinates,Original*%
%TF.FileFunction,Copper,L2,Bot*%
%TF.FilePolarity,Positive*%
%FSLAX46Y46*%
G04 Gerber Fmt 4.6, Leading zero omitted, Abs format (unit mm)*
G04 Created by KiCad (PCBNEW 5.1.10) date 2021-10-07 15:14:53*
%MOMM*%
%LPD*%
G01*
G04 APERTURE LIST*
%TA.AperFunction,EtchedComponent*%
%ADD10C,1.000000*%
%TD*%
%TA.AperFunction,ComponentPad*%
%ADD11R,1.800000X1.800000*%
%TD*%
%TA.AperFunction,ComponentPad*%
%ADD12C,1.800000*%
%TD*%
%TA.AperFunction,SMDPad,CuDef*%
%ADD13R,2.500000X1.250000*%
%TD*%
%TA.AperFunction,Conductor*%
%ADD14C,0.250000*%
%TD*%
G04 APERTURE END LIST*
D10*
%TO.C,G\u002A\u002A\u002A*%
G36*
X73091909Y-52903974D02*
G01*
X73384615Y-52982233D01*
X73667399Y-53100239D01*
X73674452Y-53103773D01*
X73943385Y-53262200D01*
X74185347Y-53452079D01*
X74398197Y-53670575D01*
X74579796Y-53914854D01*
X74728005Y-54182082D01*
X74840683Y-54469424D01*
X74909274Y-54739380D01*
X74926924Y-54869566D01*
X74936807Y-55026878D01*
X74938955Y-55196833D01*
X74933401Y-55364948D01*
X74920180Y-55516741D01*
X74907295Y-55600814D01*
X74828865Y-55901732D01*
X74713427Y-56184646D01*
X74563417Y-56446925D01*
X74381272Y-56685936D01*
X74169427Y-56899047D01*
X73930320Y-57083624D01*
X73666385Y-57237037D01*
X73380060Y-57356652D01*
X73242873Y-57399221D01*
X73154956Y-57421875D01*
X73072932Y-57438095D01*
X72985548Y-57449209D01*
X72881552Y-57456541D01*
X72749694Y-57461417D01*
X72705383Y-57462543D01*
X72522750Y-57464272D01*
X72375439Y-57459661D01*
X72256872Y-57448415D01*
X72206033Y-57440159D01*
X71945919Y-57372638D01*
X71687251Y-57270978D01*
X71438984Y-57140120D01*
X71210076Y-56985005D01*
X71009482Y-56810573D01*
X70947755Y-56746021D01*
X70751819Y-56500196D01*
X70592892Y-56237362D01*
X70471214Y-55961019D01*
X70387027Y-55674666D01*
X70340572Y-55381805D01*
X70332091Y-55085935D01*
X70361825Y-54790558D01*
X70430015Y-54499172D01*
X70536902Y-54215280D01*
X70682728Y-53942380D01*
X70747631Y-53843404D01*
X70830309Y-53736222D01*
X70936006Y-53617423D01*
X71054381Y-53497242D01*
X71175090Y-53385914D01*
X71287791Y-53293674D01*
X71342045Y-53255162D01*
X71613757Y-53100168D01*
X71898555Y-52983427D01*
X72192604Y-52905188D01*
X72492069Y-52865700D01*
X72793115Y-52865212D01*
X73091909Y-52903974D01*
G37*
X73091909Y-52903974D02*
X73384615Y-52982233D01*
X73667399Y-53100239D01*
X73674452Y-53103773D01*
X73943385Y-53262200D01*
X74185347Y-53452079D01*
X74398197Y-53670575D01*
X74579796Y-53914854D01*
X74728005Y-54182082D01*
X74840683Y-54469424D01*
X74909274Y-54739380D01*
X74926924Y-54869566D01*
X74936807Y-55026878D01*
X74938955Y-55196833D01*
X74933401Y-55364948D01*
X74920180Y-55516741D01*
X74907295Y-55600814D01*
X74828865Y-55901732D01*
X74713427Y-56184646D01*
X74563417Y-56446925D01*
X74381272Y-56685936D01*
X74169427Y-56899047D01*
X73930320Y-57083624D01*
X73666385Y-57237037D01*
X73380060Y-57356652D01*
X73242873Y-57399221D01*
X73154956Y-57421875D01*
X73072932Y-57438095D01*
X72985548Y-57449209D01*
X72881552Y-57456541D01*
X72749694Y-57461417D01*
X72705383Y-57462543D01*
X72522750Y-57464272D01*
X72375439Y-57459661D01*
X72256872Y-57448415D01*
X72206033Y-57440159D01*
X71945919Y-57372638D01*
X71687251Y-57270978D01*
X71438984Y-57140120D01*
X71210076Y-56985005D01*
X71009482Y-56810573D01*
X70947755Y-56746021D01*
X70751819Y-56500196D01*
X70592892Y-56237362D01*
X70471214Y-55961019D01*
X70387027Y-55674666D01*
X70340572Y-55381805D01*
X70332091Y-55085935D01*
X70361825Y-54790558D01*
X70430015Y-54499172D01*
X70536902Y-54215280D01*
X70682728Y-53942380D01*
X70747631Y-53843404D01*
X70830309Y-53736222D01*
X70936006Y-53617423D01*
X71054381Y-53497242D01*
X71175090Y-53385914D01*
X71287791Y-53293674D01*
X71342045Y-53255162D01*
X71613757Y-53100168D01*
X71898555Y-52983427D01*
X72192604Y-52905188D01*
X72492069Y-52865700D01*
X72793115Y-52865212D01*
X73091909Y-52903974D01*
%TD*%
%TO.P,BT1,3*%
%TO.N,Net-(BT1-Pad1)*%
%TA.AperFunction,SMDPad,CuDef*%
G36*
G01*
X82088000Y-69991600D02*
X84088000Y-69991600D01*
G75*
G02*
X84338000Y-70241600I0J-250000D01*
G01*
X84338000Y-74841600D01*
G75*
G02*
X84088000Y-75091600I-250000J0D01*
G01*
X82088000Y-75091600D01*
G75*
G02*
X81838000Y-74841600I0J250000D01*
G01*
X81838000Y-70241600D01*
G75*
G02*
X82088000Y-69991600I250000J0D01*
G01*
G37*
%TD.AperFunction*%
%TO.P,BT1,2*%
%TA.AperFunction,SMDPad,CuDef*%
G36*
G01*
X66788000Y-69991600D02*
X68788000Y-69991600D01*
G75*
G02*
X69038000Y-70241600I0J-250000D01*
G01*
X69038000Y-74841600D01*
G75*
G02*
X68788000Y-75091600I-250000J0D01*
G01*
X66788000Y-75091600D01*
G75*
G02*
X66538000Y-74841600I0J250000D01*
G01*
X66538000Y-70241600D01*
G75*
G02*
X66788000Y-69991600I250000J0D01*
G01*
G37*
%TD.AperFunction*%
%TO.P,BT1,1*%
%TO.N,Net-(BT1-Pad2)*%
%TA.AperFunction,SMDPad,CuDef*%
G36*
G01*
X70338000Y-72491600D02*
X70338000Y-72491600D01*
G75*
G02*
X75438000Y-67391600I5100000J0D01*
G01*
X75438000Y-67391600D01*
G75*
G02*
X80538000Y-72491600I0J-5100000D01*
G01*
X80538000Y-72491600D01*
G75*
G02*
X75438000Y-77591600I-5100000J0D01*
G01*
X75438000Y-77591600D01*
G75*
G02*
X70338000Y-72491600I0J5100000D01*
G01*
G37*
%TD.AperFunction*%
%TD*%
D11*
%TO.P,D1,1*%
%TO.N,Net-(D1-Pad1)*%
X85801200Y-63550800D03*
D12*
%TO.P,D1,2*%
%TO.N,Net-(BT1-Pad1)*%
X83261200Y-63550800D03*
%TD*%
D13*
%TO.P,SW1,1*%
%TO.N,Net-(BT1-Pad2)*%
X95910400Y-64810000D03*
%TO.P,SW1,2*%
%TO.N,Net-(D1-Pad1)*%
X95910400Y-67310000D03*
%TO.P,SW1,3*%
%TO.N,Net-(SW1-Pad3)*%
X95910400Y-69810000D03*
%TD*%
D14*
%TO.N,Net-(BT1-Pad2)*%
X75438000Y-72491600D02*
X80111600Y-67818000D01*
X80111600Y-67818000D02*
X90525600Y-67818000D01*
X93533600Y-64810000D02*
X95910400Y-64810000D01*
X90525600Y-67818000D02*
X93533600Y-64810000D01*
%TO.N,Net-(BT1-Pad1)*%
X73163011Y-77916611D02*
X67788000Y-72541600D01*
X77712989Y-77916611D02*
X73163011Y-77916611D01*
X83088000Y-72541600D02*
X77712989Y-77916611D01*
X67788000Y-69991600D02*
X67788000Y-72541600D01*
X74228800Y-63550800D02*
X67788000Y-69991600D01*
X83261200Y-63550800D02*
X74228800Y-63550800D01*
%TO.N,Net-(D1-Pad1)*%
X97485401Y-65734999D02*
X95910400Y-67310000D01*
X97485401Y-63924999D02*
X97485401Y-65734999D01*
X96695401Y-63134999D02*
X97485401Y-63924999D01*
X86217001Y-63134999D02*
X96695401Y-63134999D01*
X85801200Y-63550800D02*
X86217001Y-63134999D01*
%TD*%
M02*
