%TF.GenerationSoftware,KiCad,Pcbnew,5.1.10*%
%TF.CreationDate,2021-09-11T11:57:41+02:00*%
%TF.ProjectId,alpaka_svg2shenzhen,616c7061-6b61-45f7-9376-67327368656e,rev?*%
%TF.SameCoordinates,Original*%
%TF.FileFunction,Other,User*%
%FSLAX46Y46*%
G04 Gerber Fmt 4.6, Leading zero omitted, Abs format (unit mm)*
G04 Created by KiCad (PCBNEW 5.1.10) date 2021-09-11 11:57:41*
%MOMM*%
%LPD*%
G01*
G04 APERTURE LIST*
%ADD10C,0.050000*%
G04 APERTURE END LIST*
D10*
%TO.C,D1*%
X90699200Y-45213200D02*
X97149200Y-45213200D01*
X90699200Y-51713200D02*
X90699200Y-45213200D01*
X97149200Y-51713200D02*
X90699200Y-51713200D01*
X97149200Y-45213200D02*
X97149200Y-51713200D01*
%TO.C,SW1*%
X102753600Y-48848000D02*
X102753600Y-48848000D01*
X102753600Y-50348000D02*
X102753600Y-48848000D01*
X100503600Y-50348000D02*
X102753600Y-50348000D01*
X100503600Y-57348000D02*
X100503600Y-50348000D01*
X102753600Y-57348000D02*
X100503600Y-57348000D01*
X102753600Y-58848000D02*
X102753600Y-57348000D01*
X107253600Y-58848000D02*
X102753600Y-58848000D01*
X107253600Y-57098000D02*
X107253600Y-58848000D01*
X107503600Y-57098000D02*
X107253600Y-57098000D01*
X107503600Y-56348000D02*
X107503600Y-57098000D01*
X109253600Y-56348000D02*
X107503600Y-56348000D01*
X109253600Y-51348000D02*
X109253600Y-56348000D01*
X107753600Y-51348000D02*
X109253600Y-51348000D01*
X107753600Y-50598000D02*
X107753600Y-51348000D01*
X107253600Y-50598000D02*
X107753600Y-50598000D01*
X107253600Y-48848000D02*
X107253600Y-50598000D01*
X102753600Y-48848000D02*
X107253600Y-48848000D01*
%TD*%
M02*
