%TF.GenerationSoftware,KiCad,Pcbnew,5.1.10*%
%TF.CreationDate,2021-10-07T15:14:53+02:00*%
%TF.ProjectId,alpaka_svg2shenzhen,616c7061-6b61-45f7-9376-67327368656e,rev?*%
%TF.SameCoordinates,Original*%
%TF.FileFunction,Legend,Top*%
%TF.FilePolarity,Positive*%
%FSLAX46Y46*%
G04 Gerber Fmt 4.6, Leading zero omitted, Abs format (unit mm)*
G04 Created by KiCad (PCBNEW 5.1.10) date 2021-10-07 15:14:53*
%MOMM*%
%LPD*%
G01*
G04 APERTURE LIST*
%ADD10C,0.010000*%
G04 APERTURE END LIST*
D10*
%TO.C,G\u002A\u002A\u002A*%
G36*
X72137001Y-47865810D02*
G01*
X72247161Y-47901531D01*
X72324869Y-47960134D01*
X72368217Y-48040341D01*
X72377093Y-48108749D01*
X72358483Y-48202199D01*
X72306917Y-48306568D01*
X72227906Y-48415108D01*
X72126964Y-48521066D01*
X72009603Y-48617693D01*
X71907575Y-48683750D01*
X71825023Y-48725407D01*
X71725667Y-48767394D01*
X71621410Y-48805546D01*
X71524153Y-48835697D01*
X71445795Y-48853682D01*
X71412888Y-48856900D01*
X71355523Y-48856900D01*
X71370605Y-49082062D01*
X71389925Y-49266277D01*
X71421418Y-49439377D01*
X71463086Y-49594884D01*
X71512930Y-49726319D01*
X71568953Y-49827204D01*
X71617288Y-49881908D01*
X71661686Y-49913444D01*
X71703543Y-49922262D01*
X71764008Y-49912755D01*
X71764861Y-49912563D01*
X71843001Y-49890047D01*
X71915303Y-49856663D01*
X71987931Y-49807639D01*
X72067047Y-49738201D01*
X72158816Y-49643574D01*
X72262072Y-49527448D01*
X72312631Y-49472247D01*
X72351815Y-49442550D01*
X72394365Y-49430542D01*
X72448909Y-49428400D01*
X72546030Y-49445241D01*
X72617564Y-49492095D01*
X72660960Y-49563460D01*
X72673669Y-49653831D01*
X72653139Y-49757706D01*
X72628326Y-49815535D01*
X72572987Y-49900248D01*
X72490927Y-49996195D01*
X72392305Y-50093817D01*
X72287276Y-50183559D01*
X72185997Y-50255864D01*
X72123300Y-50290737D01*
X71936544Y-50363236D01*
X71765899Y-50397270D01*
X71609502Y-50392702D01*
X71465493Y-50349398D01*
X71332012Y-50267221D01*
X71288080Y-50229839D01*
X71170131Y-50122041D01*
X71124945Y-50179486D01*
X71006236Y-50301218D01*
X70870632Y-50389392D01*
X70723935Y-50441631D01*
X70571942Y-50455556D01*
X70479209Y-50444242D01*
X70327742Y-50392422D01*
X70176394Y-50300631D01*
X70028330Y-50171119D01*
X69915790Y-50043647D01*
X69822258Y-49918120D01*
X69759988Y-49814646D01*
X69726993Y-49729079D01*
X69721282Y-49657272D01*
X69723525Y-49642733D01*
X69759848Y-49559527D01*
X69825013Y-49497143D01*
X69908371Y-49461160D01*
X69999271Y-49457154D01*
X70050648Y-49471430D01*
X70099503Y-49504898D01*
X70156871Y-49563838D01*
X70197677Y-49616727D01*
X70282539Y-49732766D01*
X70356295Y-49819313D01*
X70426685Y-49884781D01*
X70480545Y-49924198D01*
X70559784Y-49966704D01*
X70623496Y-49974333D01*
X70681117Y-49946394D01*
X70721764Y-49906581D01*
X70787908Y-49804267D01*
X70838107Y-49665712D01*
X70872548Y-49490041D01*
X70891420Y-49276380D01*
X70895473Y-49099191D01*
X70895633Y-48844066D01*
X70752758Y-48797766D01*
X70600005Y-48736360D01*
X70454819Y-48655772D01*
X70322524Y-48560987D01*
X70208445Y-48456989D01*
X70117904Y-48348764D01*
X70056225Y-48241297D01*
X70028732Y-48139573D01*
X70027800Y-48118916D01*
X70037911Y-48048774D01*
X70058617Y-47990870D01*
X70115917Y-47924036D01*
X70203238Y-47879417D01*
X70314936Y-47856430D01*
X70445361Y-47854490D01*
X70588868Y-47873014D01*
X70739808Y-47911419D01*
X70892535Y-47969120D01*
X71041402Y-48045533D01*
X71128422Y-48101448D01*
X71202461Y-48153213D01*
X71287172Y-48095154D01*
X71491702Y-47976581D01*
X71700887Y-47897205D01*
X71911123Y-47858248D01*
X71996300Y-47854246D01*
X72137001Y-47865810D01*
G37*
X72137001Y-47865810D02*
X72247161Y-47901531D01*
X72324869Y-47960134D01*
X72368217Y-48040341D01*
X72377093Y-48108749D01*
X72358483Y-48202199D01*
X72306917Y-48306568D01*
X72227906Y-48415108D01*
X72126964Y-48521066D01*
X72009603Y-48617693D01*
X71907575Y-48683750D01*
X71825023Y-48725407D01*
X71725667Y-48767394D01*
X71621410Y-48805546D01*
X71524153Y-48835697D01*
X71445795Y-48853682D01*
X71412888Y-48856900D01*
X71355523Y-48856900D01*
X71370605Y-49082062D01*
X71389925Y-49266277D01*
X71421418Y-49439377D01*
X71463086Y-49594884D01*
X71512930Y-49726319D01*
X71568953Y-49827204D01*
X71617288Y-49881908D01*
X71661686Y-49913444D01*
X71703543Y-49922262D01*
X71764008Y-49912755D01*
X71764861Y-49912563D01*
X71843001Y-49890047D01*
X71915303Y-49856663D01*
X71987931Y-49807639D01*
X72067047Y-49738201D01*
X72158816Y-49643574D01*
X72262072Y-49527448D01*
X72312631Y-49472247D01*
X72351815Y-49442550D01*
X72394365Y-49430542D01*
X72448909Y-49428400D01*
X72546030Y-49445241D01*
X72617564Y-49492095D01*
X72660960Y-49563460D01*
X72673669Y-49653831D01*
X72653139Y-49757706D01*
X72628326Y-49815535D01*
X72572987Y-49900248D01*
X72490927Y-49996195D01*
X72392305Y-50093817D01*
X72287276Y-50183559D01*
X72185997Y-50255864D01*
X72123300Y-50290737D01*
X71936544Y-50363236D01*
X71765899Y-50397270D01*
X71609502Y-50392702D01*
X71465493Y-50349398D01*
X71332012Y-50267221D01*
X71288080Y-50229839D01*
X71170131Y-50122041D01*
X71124945Y-50179486D01*
X71006236Y-50301218D01*
X70870632Y-50389392D01*
X70723935Y-50441631D01*
X70571942Y-50455556D01*
X70479209Y-50444242D01*
X70327742Y-50392422D01*
X70176394Y-50300631D01*
X70028330Y-50171119D01*
X69915790Y-50043647D01*
X69822258Y-49918120D01*
X69759988Y-49814646D01*
X69726993Y-49729079D01*
X69721282Y-49657272D01*
X69723525Y-49642733D01*
X69759848Y-49559527D01*
X69825013Y-49497143D01*
X69908371Y-49461160D01*
X69999271Y-49457154D01*
X70050648Y-49471430D01*
X70099503Y-49504898D01*
X70156871Y-49563838D01*
X70197677Y-49616727D01*
X70282539Y-49732766D01*
X70356295Y-49819313D01*
X70426685Y-49884781D01*
X70480545Y-49924198D01*
X70559784Y-49966704D01*
X70623496Y-49974333D01*
X70681117Y-49946394D01*
X70721764Y-49906581D01*
X70787908Y-49804267D01*
X70838107Y-49665712D01*
X70872548Y-49490041D01*
X70891420Y-49276380D01*
X70895473Y-49099191D01*
X70895633Y-48844066D01*
X70752758Y-48797766D01*
X70600005Y-48736360D01*
X70454819Y-48655772D01*
X70322524Y-48560987D01*
X70208445Y-48456989D01*
X70117904Y-48348764D01*
X70056225Y-48241297D01*
X70028732Y-48139573D01*
X70027800Y-48118916D01*
X70037911Y-48048774D01*
X70058617Y-47990870D01*
X70115917Y-47924036D01*
X70203238Y-47879417D01*
X70314936Y-47856430D01*
X70445361Y-47854490D01*
X70588868Y-47873014D01*
X70739808Y-47911419D01*
X70892535Y-47969120D01*
X71041402Y-48045533D01*
X71128422Y-48101448D01*
X71202461Y-48153213D01*
X71287172Y-48095154D01*
X71491702Y-47976581D01*
X71700887Y-47897205D01*
X71911123Y-47858248D01*
X71996300Y-47854246D01*
X72137001Y-47865810D01*
G36*
X74692809Y-44891746D02*
G01*
X74765014Y-44906599D01*
X74898131Y-44948095D01*
X75009114Y-45001926D01*
X75112389Y-45076617D01*
X75213633Y-45171737D01*
X75336925Y-45315993D01*
X75431246Y-45470755D01*
X75499152Y-45642712D01*
X75543202Y-45838550D01*
X75565954Y-46064955D01*
X75567475Y-46096868D01*
X75568964Y-46359676D01*
X75549034Y-46587384D01*
X75506830Y-46781898D01*
X75441498Y-46945122D01*
X75352181Y-47078959D01*
X75238025Y-47185315D01*
X75098174Y-47266094D01*
X75030191Y-47293345D01*
X74932702Y-47318078D01*
X74806099Y-47335808D01*
X74663095Y-47346051D01*
X74516403Y-47348321D01*
X74378738Y-47342134D01*
X74262814Y-47327002D01*
X74245283Y-47323302D01*
X74068901Y-47265752D01*
X73922275Y-47179353D01*
X73804152Y-47062765D01*
X73713280Y-46914650D01*
X73648406Y-46733669D01*
X73632980Y-46668819D01*
X73615648Y-46556226D01*
X73604322Y-46417345D01*
X73599003Y-46263993D01*
X73599179Y-46223988D01*
X74029618Y-46223988D01*
X74041277Y-46296635D01*
X74049999Y-46317894D01*
X74102355Y-46374850D01*
X74177917Y-46409348D01*
X74262393Y-46418582D01*
X74341491Y-46399743D01*
X74371830Y-46381117D01*
X74437951Y-46305554D01*
X74464825Y-46215938D01*
X74454139Y-46126415D01*
X74416946Y-46046127D01*
X74361646Y-45977404D01*
X74298311Y-45930309D01*
X74242298Y-45914733D01*
X74183332Y-45933153D01*
X74120908Y-45982309D01*
X74065734Y-46053044D01*
X74052053Y-46077383D01*
X74033274Y-46143372D01*
X74029618Y-46223988D01*
X73599179Y-46223988D01*
X73599690Y-46107992D01*
X73606385Y-45961161D01*
X73619087Y-45835319D01*
X73632952Y-45760198D01*
X73700006Y-45555331D01*
X73793005Y-45372514D01*
X73908322Y-45214481D01*
X74042333Y-45083965D01*
X74191412Y-44983700D01*
X74351935Y-44916420D01*
X74520275Y-44884857D01*
X74692809Y-44891746D01*
G37*
X74692809Y-44891746D02*
X74765014Y-44906599D01*
X74898131Y-44948095D01*
X75009114Y-45001926D01*
X75112389Y-45076617D01*
X75213633Y-45171737D01*
X75336925Y-45315993D01*
X75431246Y-45470755D01*
X75499152Y-45642712D01*
X75543202Y-45838550D01*
X75565954Y-46064955D01*
X75567475Y-46096868D01*
X75568964Y-46359676D01*
X75549034Y-46587384D01*
X75506830Y-46781898D01*
X75441498Y-46945122D01*
X75352181Y-47078959D01*
X75238025Y-47185315D01*
X75098174Y-47266094D01*
X75030191Y-47293345D01*
X74932702Y-47318078D01*
X74806099Y-47335808D01*
X74663095Y-47346051D01*
X74516403Y-47348321D01*
X74378738Y-47342134D01*
X74262814Y-47327002D01*
X74245283Y-47323302D01*
X74068901Y-47265752D01*
X73922275Y-47179353D01*
X73804152Y-47062765D01*
X73713280Y-46914650D01*
X73648406Y-46733669D01*
X73632980Y-46668819D01*
X73615648Y-46556226D01*
X73604322Y-46417345D01*
X73599003Y-46263993D01*
X73599179Y-46223988D01*
X74029618Y-46223988D01*
X74041277Y-46296635D01*
X74049999Y-46317894D01*
X74102355Y-46374850D01*
X74177917Y-46409348D01*
X74262393Y-46418582D01*
X74341491Y-46399743D01*
X74371830Y-46381117D01*
X74437951Y-46305554D01*
X74464825Y-46215938D01*
X74454139Y-46126415D01*
X74416946Y-46046127D01*
X74361646Y-45977404D01*
X74298311Y-45930309D01*
X74242298Y-45914733D01*
X74183332Y-45933153D01*
X74120908Y-45982309D01*
X74065734Y-46053044D01*
X74052053Y-46077383D01*
X74033274Y-46143372D01*
X74029618Y-46223988D01*
X73599179Y-46223988D01*
X73599690Y-46107992D01*
X73606385Y-45961161D01*
X73619087Y-45835319D01*
X73632952Y-45760198D01*
X73700006Y-45555331D01*
X73793005Y-45372514D01*
X73908322Y-45214481D01*
X74042333Y-45083965D01*
X74191412Y-44983700D01*
X74351935Y-44916420D01*
X74520275Y-44884857D01*
X74692809Y-44891746D01*
G36*
X67770401Y-44910185D02*
G01*
X67933959Y-44970209D01*
X68088776Y-45066465D01*
X68230694Y-45199362D01*
X68319931Y-45314109D01*
X68433744Y-45517888D01*
X68511728Y-45743745D01*
X68553938Y-45991915D01*
X68560429Y-46262632D01*
X68557613Y-46316900D01*
X68533466Y-46555002D01*
X68492480Y-46756242D01*
X68432878Y-46923321D01*
X68352883Y-47058939D01*
X68250720Y-47165798D01*
X68124611Y-47246597D01*
X67972781Y-47304038D01*
X67895902Y-47322920D01*
X67741041Y-47344982D01*
X67568471Y-47351933D01*
X67395586Y-47344053D01*
X67239778Y-47321621D01*
X67197510Y-47311715D01*
X67097169Y-47283676D01*
X67024546Y-47257059D01*
X66965896Y-47224727D01*
X66907479Y-47179539D01*
X66858435Y-47135579D01*
X66771881Y-47040923D01*
X66703939Y-46931105D01*
X66652773Y-46800574D01*
X66616550Y-46643780D01*
X66593433Y-46455171D01*
X66584281Y-46306317D01*
X66582083Y-46159179D01*
X67694668Y-46159179D01*
X67695961Y-46246841D01*
X67725740Y-46324112D01*
X67781823Y-46383506D01*
X67862025Y-46417538D01*
X67914663Y-46422733D01*
X68003688Y-46403841D01*
X68047909Y-46375108D01*
X68103964Y-46300600D01*
X68125275Y-46211800D01*
X68112513Y-46117606D01*
X68066351Y-46026914D01*
X68017519Y-45972942D01*
X67947253Y-45926184D01*
X67881890Y-45920262D01*
X67815774Y-45955413D01*
X67786277Y-45982627D01*
X67724045Y-46068612D01*
X67694668Y-46159179D01*
X66582083Y-46159179D01*
X66581212Y-46100915D01*
X66592373Y-45925306D01*
X66619625Y-45768794D01*
X66664832Y-45620685D01*
X66729855Y-45470284D01*
X66729880Y-45470233D01*
X66838244Y-45288060D01*
X66966963Y-45139262D01*
X67111881Y-45024247D01*
X67268840Y-44943424D01*
X67433684Y-44897200D01*
X67602257Y-44885984D01*
X67770401Y-44910185D01*
G37*
X67770401Y-44910185D02*
X67933959Y-44970209D01*
X68088776Y-45066465D01*
X68230694Y-45199362D01*
X68319931Y-45314109D01*
X68433744Y-45517888D01*
X68511728Y-45743745D01*
X68553938Y-45991915D01*
X68560429Y-46262632D01*
X68557613Y-46316900D01*
X68533466Y-46555002D01*
X68492480Y-46756242D01*
X68432878Y-46923321D01*
X68352883Y-47058939D01*
X68250720Y-47165798D01*
X68124611Y-47246597D01*
X67972781Y-47304038D01*
X67895902Y-47322920D01*
X67741041Y-47344982D01*
X67568471Y-47351933D01*
X67395586Y-47344053D01*
X67239778Y-47321621D01*
X67197510Y-47311715D01*
X67097169Y-47283676D01*
X67024546Y-47257059D01*
X66965896Y-47224727D01*
X66907479Y-47179539D01*
X66858435Y-47135579D01*
X66771881Y-47040923D01*
X66703939Y-46931105D01*
X66652773Y-46800574D01*
X66616550Y-46643780D01*
X66593433Y-46455171D01*
X66584281Y-46306317D01*
X66582083Y-46159179D01*
X67694668Y-46159179D01*
X67695961Y-46246841D01*
X67725740Y-46324112D01*
X67781823Y-46383506D01*
X67862025Y-46417538D01*
X67914663Y-46422733D01*
X68003688Y-46403841D01*
X68047909Y-46375108D01*
X68103964Y-46300600D01*
X68125275Y-46211800D01*
X68112513Y-46117606D01*
X68066351Y-46026914D01*
X68017519Y-45972942D01*
X67947253Y-45926184D01*
X67881890Y-45920262D01*
X67815774Y-45955413D01*
X67786277Y-45982627D01*
X67724045Y-46068612D01*
X67694668Y-46159179D01*
X66582083Y-46159179D01*
X66581212Y-46100915D01*
X66592373Y-45925306D01*
X66619625Y-45768794D01*
X66664832Y-45620685D01*
X66729855Y-45470284D01*
X66729880Y-45470233D01*
X66838244Y-45288060D01*
X66966963Y-45139262D01*
X67111881Y-45024247D01*
X67268840Y-44943424D01*
X67433684Y-44897200D01*
X67602257Y-44885984D01*
X67770401Y-44910185D01*
G36*
X71234654Y-46498575D02*
G01*
X71350528Y-46500695D01*
X71443435Y-46505188D01*
X71523057Y-46512921D01*
X71599074Y-46524762D01*
X71681167Y-46541579D01*
X71750410Y-46557475D01*
X72020265Y-46630486D01*
X72289789Y-46721443D01*
X72552708Y-46827243D01*
X72802748Y-46944782D01*
X73033636Y-47070955D01*
X73239097Y-47202660D01*
X73412857Y-47336793D01*
X73509717Y-47427817D01*
X73654709Y-47606325D01*
X73779703Y-47819721D01*
X73883142Y-48064784D01*
X73963470Y-48338299D01*
X73975558Y-48391233D01*
X73994864Y-48504846D01*
X74009581Y-48642163D01*
X74019469Y-48793016D01*
X74024287Y-48947235D01*
X74023793Y-49094654D01*
X74017746Y-49225104D01*
X74005906Y-49328417D01*
X73998616Y-49363371D01*
X73923293Y-49576199D01*
X73805901Y-49790846D01*
X73727165Y-49904650D01*
X73668835Y-49976570D01*
X73585186Y-50070550D01*
X73482411Y-50180380D01*
X73366705Y-50299851D01*
X73244262Y-50422757D01*
X73121275Y-50542889D01*
X73003939Y-50654038D01*
X72898448Y-50749996D01*
X72810995Y-50824555D01*
X72802826Y-50831116D01*
X72506366Y-51048317D01*
X72200597Y-51235754D01*
X71892409Y-51389557D01*
X71619502Y-51495746D01*
X71380535Y-51557697D01*
X71147939Y-51582350D01*
X70926702Y-51569328D01*
X70846462Y-51554381D01*
X70634232Y-51494471D01*
X70402673Y-51407326D01*
X70160479Y-51297439D01*
X69916347Y-51169303D01*
X69678971Y-51027410D01*
X69457047Y-50876254D01*
X69302396Y-50756567D01*
X69061193Y-50531140D01*
X68845632Y-50275279D01*
X68658260Y-49994028D01*
X68501623Y-49692432D01*
X68378269Y-49375534D01*
X68290743Y-49048379D01*
X68241593Y-48716011D01*
X68238588Y-48675515D01*
X68794131Y-48675515D01*
X68800817Y-48905570D01*
X68845463Y-49139444D01*
X68927374Y-49375212D01*
X69045857Y-49610946D01*
X69200218Y-49844722D01*
X69389763Y-50074612D01*
X69613798Y-50298692D01*
X69871629Y-50515034D01*
X69917485Y-50549939D01*
X70049909Y-50642690D01*
X70200941Y-50737543D01*
X70358683Y-50827791D01*
X70511237Y-50906725D01*
X70646705Y-50967639D01*
X70683967Y-50982033D01*
X70921512Y-51047873D01*
X71160686Y-51072503D01*
X71397985Y-51055843D01*
X71612620Y-51003652D01*
X71779450Y-50936942D01*
X71951350Y-50844589D01*
X72131605Y-50724241D01*
X72323499Y-50573551D01*
X72530316Y-50390168D01*
X72704884Y-50222150D01*
X72926207Y-49981871D01*
X73108440Y-49739638D01*
X73251508Y-49496959D01*
X73355334Y-49255344D01*
X73419844Y-49016300D01*
X73444962Y-48781335D01*
X73430613Y-48551958D01*
X73376723Y-48329678D01*
X73283214Y-48116002D01*
X73150013Y-47912439D01*
X72977044Y-47720497D01*
X72835922Y-47596785D01*
X72588178Y-47424753D01*
X72315000Y-47283062D01*
X72021289Y-47172521D01*
X71711945Y-47093939D01*
X71391868Y-47048128D01*
X71065958Y-47035897D01*
X70739114Y-47058057D01*
X70416237Y-47115416D01*
X70229942Y-47165986D01*
X69937394Y-47274511D01*
X69670103Y-47411107D01*
X69430979Y-47573720D01*
X69222933Y-47760298D01*
X69048875Y-47968787D01*
X69008767Y-48027523D01*
X68897412Y-48234565D01*
X68826098Y-48451204D01*
X68794131Y-48675515D01*
X68238588Y-48675515D01*
X68236323Y-48645010D01*
X68236321Y-48412518D01*
X68267244Y-48197550D01*
X68331055Y-47995947D01*
X68429721Y-47803550D01*
X68565207Y-47616201D01*
X68739476Y-47429740D01*
X68864388Y-47315766D01*
X69150780Y-47089620D01*
X69445064Y-46902520D01*
X69753452Y-46751421D01*
X70082158Y-46633277D01*
X70435144Y-46545492D01*
X70531267Y-46527583D01*
X70620998Y-46514656D01*
X70714429Y-46505971D01*
X70821653Y-46500794D01*
X70952763Y-46498386D01*
X71086133Y-46497962D01*
X71234654Y-46498575D01*
G37*
X71234654Y-46498575D02*
X71350528Y-46500695D01*
X71443435Y-46505188D01*
X71523057Y-46512921D01*
X71599074Y-46524762D01*
X71681167Y-46541579D01*
X71750410Y-46557475D01*
X72020265Y-46630486D01*
X72289789Y-46721443D01*
X72552708Y-46827243D01*
X72802748Y-46944782D01*
X73033636Y-47070955D01*
X73239097Y-47202660D01*
X73412857Y-47336793D01*
X73509717Y-47427817D01*
X73654709Y-47606325D01*
X73779703Y-47819721D01*
X73883142Y-48064784D01*
X73963470Y-48338299D01*
X73975558Y-48391233D01*
X73994864Y-48504846D01*
X74009581Y-48642163D01*
X74019469Y-48793016D01*
X74024287Y-48947235D01*
X74023793Y-49094654D01*
X74017746Y-49225104D01*
X74005906Y-49328417D01*
X73998616Y-49363371D01*
X73923293Y-49576199D01*
X73805901Y-49790846D01*
X73727165Y-49904650D01*
X73668835Y-49976570D01*
X73585186Y-50070550D01*
X73482411Y-50180380D01*
X73366705Y-50299851D01*
X73244262Y-50422757D01*
X73121275Y-50542889D01*
X73003939Y-50654038D01*
X72898448Y-50749996D01*
X72810995Y-50824555D01*
X72802826Y-50831116D01*
X72506366Y-51048317D01*
X72200597Y-51235754D01*
X71892409Y-51389557D01*
X71619502Y-51495746D01*
X71380535Y-51557697D01*
X71147939Y-51582350D01*
X70926702Y-51569328D01*
X70846462Y-51554381D01*
X70634232Y-51494471D01*
X70402673Y-51407326D01*
X70160479Y-51297439D01*
X69916347Y-51169303D01*
X69678971Y-51027410D01*
X69457047Y-50876254D01*
X69302396Y-50756567D01*
X69061193Y-50531140D01*
X68845632Y-50275279D01*
X68658260Y-49994028D01*
X68501623Y-49692432D01*
X68378269Y-49375534D01*
X68290743Y-49048379D01*
X68241593Y-48716011D01*
X68238588Y-48675515D01*
X68794131Y-48675515D01*
X68800817Y-48905570D01*
X68845463Y-49139444D01*
X68927374Y-49375212D01*
X69045857Y-49610946D01*
X69200218Y-49844722D01*
X69389763Y-50074612D01*
X69613798Y-50298692D01*
X69871629Y-50515034D01*
X69917485Y-50549939D01*
X70049909Y-50642690D01*
X70200941Y-50737543D01*
X70358683Y-50827791D01*
X70511237Y-50906725D01*
X70646705Y-50967639D01*
X70683967Y-50982033D01*
X70921512Y-51047873D01*
X71160686Y-51072503D01*
X71397985Y-51055843D01*
X71612620Y-51003652D01*
X71779450Y-50936942D01*
X71951350Y-50844589D01*
X72131605Y-50724241D01*
X72323499Y-50573551D01*
X72530316Y-50390168D01*
X72704884Y-50222150D01*
X72926207Y-49981871D01*
X73108440Y-49739638D01*
X73251508Y-49496959D01*
X73355334Y-49255344D01*
X73419844Y-49016300D01*
X73444962Y-48781335D01*
X73430613Y-48551958D01*
X73376723Y-48329678D01*
X73283214Y-48116002D01*
X73150013Y-47912439D01*
X72977044Y-47720497D01*
X72835922Y-47596785D01*
X72588178Y-47424753D01*
X72315000Y-47283062D01*
X72021289Y-47172521D01*
X71711945Y-47093939D01*
X71391868Y-47048128D01*
X71065958Y-47035897D01*
X70739114Y-47058057D01*
X70416237Y-47115416D01*
X70229942Y-47165986D01*
X69937394Y-47274511D01*
X69670103Y-47411107D01*
X69430979Y-47573720D01*
X69222933Y-47760298D01*
X69048875Y-47968787D01*
X69008767Y-48027523D01*
X68897412Y-48234565D01*
X68826098Y-48451204D01*
X68794131Y-48675515D01*
X68238588Y-48675515D01*
X68236323Y-48645010D01*
X68236321Y-48412518D01*
X68267244Y-48197550D01*
X68331055Y-47995947D01*
X68429721Y-47803550D01*
X68565207Y-47616201D01*
X68739476Y-47429740D01*
X68864388Y-47315766D01*
X69150780Y-47089620D01*
X69445064Y-46902520D01*
X69753452Y-46751421D01*
X70082158Y-46633277D01*
X70435144Y-46545492D01*
X70531267Y-46527583D01*
X70620998Y-46514656D01*
X70714429Y-46505971D01*
X70821653Y-46500794D01*
X70952763Y-46498386D01*
X71086133Y-46497962D01*
X71234654Y-46498575D01*
%TD*%
M02*
