%TF.GenerationSoftware,KiCad,Pcbnew,5.1.10*%
%TF.CreationDate,2021-09-11T14:18:55+02:00*%
%TF.ProjectId,alpaka_svg2shenzhen,616c7061-6b61-45f7-9376-67327368656e,rev?*%
%TF.SameCoordinates,Original*%
%TF.FileFunction,Copper,L2,Bot*%
%TF.FilePolarity,Positive*%
%FSLAX46Y46*%
G04 Gerber Fmt 4.6, Leading zero omitted, Abs format (unit mm)*
G04 Created by KiCad (PCBNEW 5.1.10) date 2021-09-11 14:18:55*
%MOMM*%
%LPD*%
G01*
G04 APERTURE LIST*
%TA.AperFunction,EtchedComponent*%
%ADD10C,0.010000*%
%TD*%
%TA.AperFunction,ComponentPad*%
%ADD11R,1.800000X1.800000*%
%TD*%
%TA.AperFunction,ComponentPad*%
%ADD12C,1.800000*%
%TD*%
%TA.AperFunction,SMDPad,CuDef*%
%ADD13R,2.500000X1.250000*%
%TD*%
%TA.AperFunction,Conductor*%
%ADD14C,0.250000*%
%TD*%
G04 APERTURE END LIST*
D10*
%TO.C,G\u002A\u002A\u002A*%
G36*
X79441909Y-39391174D02*
G01*
X79734615Y-39469433D01*
X80017399Y-39587439D01*
X80024452Y-39590973D01*
X80293385Y-39749400D01*
X80535347Y-39939279D01*
X80748197Y-40157775D01*
X80929796Y-40402054D01*
X81078005Y-40669282D01*
X81190683Y-40956624D01*
X81259274Y-41226580D01*
X81276924Y-41356766D01*
X81286807Y-41514078D01*
X81288955Y-41684033D01*
X81283401Y-41852148D01*
X81270180Y-42003941D01*
X81257295Y-42088014D01*
X81178865Y-42388932D01*
X81063427Y-42671846D01*
X80913417Y-42934125D01*
X80731272Y-43173136D01*
X80519427Y-43386247D01*
X80280320Y-43570824D01*
X80016385Y-43724237D01*
X79730060Y-43843852D01*
X79592873Y-43886421D01*
X79504956Y-43909075D01*
X79422932Y-43925295D01*
X79335548Y-43936409D01*
X79231552Y-43943741D01*
X79099694Y-43948617D01*
X79055383Y-43949743D01*
X78872750Y-43951472D01*
X78725439Y-43946861D01*
X78606872Y-43935615D01*
X78556033Y-43927359D01*
X78295919Y-43859838D01*
X78037251Y-43758178D01*
X77788984Y-43627320D01*
X77560076Y-43472205D01*
X77359482Y-43297773D01*
X77297755Y-43233221D01*
X77101819Y-42987396D01*
X76942892Y-42724562D01*
X76821214Y-42448219D01*
X76737027Y-42161866D01*
X76690572Y-41869005D01*
X76682091Y-41573135D01*
X76711825Y-41277758D01*
X76780015Y-40986372D01*
X76886902Y-40702480D01*
X77032728Y-40429580D01*
X77097631Y-40330604D01*
X77180309Y-40223422D01*
X77286006Y-40104623D01*
X77404381Y-39984442D01*
X77525090Y-39873114D01*
X77637791Y-39780874D01*
X77692045Y-39742362D01*
X77963757Y-39587368D01*
X78248555Y-39470627D01*
X78542604Y-39392388D01*
X78842069Y-39352900D01*
X79143115Y-39352412D01*
X79441909Y-39391174D01*
G37*
X79441909Y-39391174D02*
X79734615Y-39469433D01*
X80017399Y-39587439D01*
X80024452Y-39590973D01*
X80293385Y-39749400D01*
X80535347Y-39939279D01*
X80748197Y-40157775D01*
X80929796Y-40402054D01*
X81078005Y-40669282D01*
X81190683Y-40956624D01*
X81259274Y-41226580D01*
X81276924Y-41356766D01*
X81286807Y-41514078D01*
X81288955Y-41684033D01*
X81283401Y-41852148D01*
X81270180Y-42003941D01*
X81257295Y-42088014D01*
X81178865Y-42388932D01*
X81063427Y-42671846D01*
X80913417Y-42934125D01*
X80731272Y-43173136D01*
X80519427Y-43386247D01*
X80280320Y-43570824D01*
X80016385Y-43724237D01*
X79730060Y-43843852D01*
X79592873Y-43886421D01*
X79504956Y-43909075D01*
X79422932Y-43925295D01*
X79335548Y-43936409D01*
X79231552Y-43943741D01*
X79099694Y-43948617D01*
X79055383Y-43949743D01*
X78872750Y-43951472D01*
X78725439Y-43946861D01*
X78606872Y-43935615D01*
X78556033Y-43927359D01*
X78295919Y-43859838D01*
X78037251Y-43758178D01*
X77788984Y-43627320D01*
X77560076Y-43472205D01*
X77359482Y-43297773D01*
X77297755Y-43233221D01*
X77101819Y-42987396D01*
X76942892Y-42724562D01*
X76821214Y-42448219D01*
X76737027Y-42161866D01*
X76690572Y-41869005D01*
X76682091Y-41573135D01*
X76711825Y-41277758D01*
X76780015Y-40986372D01*
X76886902Y-40702480D01*
X77032728Y-40429580D01*
X77097631Y-40330604D01*
X77180309Y-40223422D01*
X77286006Y-40104623D01*
X77404381Y-39984442D01*
X77525090Y-39873114D01*
X77637791Y-39780874D01*
X77692045Y-39742362D01*
X77963757Y-39587368D01*
X78248555Y-39470627D01*
X78542604Y-39392388D01*
X78842069Y-39352900D01*
X79143115Y-39352412D01*
X79441909Y-39391174D01*
%TD*%
%TO.P,BT1,3*%
%TO.N,Net-(BT1-Pad2)*%
%TA.AperFunction,SMDPad,CuDef*%
G36*
G01*
X75341200Y-59142000D02*
X73341200Y-59142000D01*
G75*
G02*
X73091200Y-58892000I0J250000D01*
G01*
X73091200Y-54292000D01*
G75*
G02*
X73341200Y-54042000I250000J0D01*
G01*
X75341200Y-54042000D01*
G75*
G02*
X75591200Y-54292000I0J-250000D01*
G01*
X75591200Y-58892000D01*
G75*
G02*
X75341200Y-59142000I-250000J0D01*
G01*
G37*
%TD.AperFunction*%
%TO.P,BT1,2*%
%TA.AperFunction,SMDPad,CuDef*%
G36*
G01*
X90641200Y-59142000D02*
X88641200Y-59142000D01*
G75*
G02*
X88391200Y-58892000I0J250000D01*
G01*
X88391200Y-54292000D01*
G75*
G02*
X88641200Y-54042000I250000J0D01*
G01*
X90641200Y-54042000D01*
G75*
G02*
X90891200Y-54292000I0J-250000D01*
G01*
X90891200Y-58892000D01*
G75*
G02*
X90641200Y-59142000I-250000J0D01*
G01*
G37*
%TD.AperFunction*%
%TO.P,BT1,1*%
%TO.N,Net-(BT1-Pad1)*%
%TA.AperFunction,SMDPad,CuDef*%
G36*
G01*
X87091200Y-56642000D02*
X87091200Y-56642000D01*
G75*
G02*
X81991200Y-61742000I-5100000J0D01*
G01*
X81991200Y-61742000D01*
G75*
G02*
X76891200Y-56642000I0J5100000D01*
G01*
X76891200Y-56642000D01*
G75*
G02*
X81991200Y-51542000I5100000J0D01*
G01*
X81991200Y-51542000D01*
G75*
G02*
X87091200Y-56642000I0J-5100000D01*
G01*
G37*
%TD.AperFunction*%
%TD*%
D11*
%TO.P,D1,1*%
%TO.N,Net-(D1-Pad1)*%
X95199200Y-48463200D03*
D12*
%TO.P,D1,2*%
%TO.N,Net-(BT1-Pad1)*%
X92659200Y-48463200D03*
%TD*%
D13*
%TO.P,SW1,1*%
%TO.N,Net-(BT1-Pad2)*%
X102253600Y-51348000D03*
%TO.P,SW1,2*%
%TO.N,Net-(D1-Pad1)*%
X102253600Y-53848000D03*
%TO.P,SW1,3*%
%TO.N,Net-(SW1-Pad3)*%
X102253600Y-56348000D03*
%TD*%
D14*
%TO.N,Net-(BT1-Pad2)*%
X97009600Y-56592000D02*
X102253600Y-51348000D01*
X89641200Y-56592000D02*
X97009600Y-56592000D01*
X89641200Y-59142000D02*
X89641200Y-56592000D01*
X86716189Y-62067011D02*
X89641200Y-59142000D01*
X77266211Y-62067011D02*
X86716189Y-62067011D01*
X74341200Y-59142000D02*
X77266211Y-62067011D01*
X74341200Y-56592000D02*
X74341200Y-59142000D01*
%TO.N,Net-(BT1-Pad1)*%
X90170000Y-48463200D02*
X81991200Y-56642000D01*
X92659200Y-48463200D02*
X90170000Y-48463200D01*
%TO.N,Net-(D1-Pad1)*%
X103828601Y-50420003D02*
X103828601Y-52272999D01*
X103828601Y-52272999D02*
X102253600Y-53848000D01*
X101871798Y-48463200D02*
X103828601Y-50420003D01*
X95199200Y-48463200D02*
X101871798Y-48463200D01*
%TD*%
M02*
