%TF.GenerationSoftware,KiCad,Pcbnew,5.1.10*%
%TF.CreationDate,2021-09-11T14:18:55+02:00*%
%TF.ProjectId,alpaka_svg2shenzhen,616c7061-6b61-45f7-9376-67327368656e,rev?*%
%TF.SameCoordinates,Original*%
%TF.FileFunction,Legend,Top*%
%TF.FilePolarity,Positive*%
%FSLAX46Y46*%
G04 Gerber Fmt 4.6, Leading zero omitted, Abs format (unit mm)*
G04 Created by KiCad (PCBNEW 5.1.10) date 2021-09-11 14:18:55*
%MOMM*%
%LPD*%
G01*
G04 APERTURE LIST*
%ADD10C,0.010000*%
G04 APERTURE END LIST*
D10*
%TO.C,G\u002A\u002A\u002A*%
G36*
X72593937Y-24540458D02*
G01*
X72819093Y-24585377D01*
X73029965Y-24665848D01*
X73222227Y-24779419D01*
X73391556Y-24923635D01*
X73533629Y-25096045D01*
X73624226Y-25251536D01*
X73682035Y-25381920D01*
X73728607Y-25511256D01*
X73760474Y-25628419D01*
X73774172Y-25722287D01*
X73774444Y-25733589D01*
X73792375Y-25787111D01*
X73845295Y-25835488D01*
X73936874Y-25908932D01*
X74036117Y-26006520D01*
X74130791Y-26115026D01*
X74208667Y-26221226D01*
X74222625Y-26243454D01*
X74317031Y-26428630D01*
X74375742Y-26617679D01*
X74403223Y-26825018D01*
X74403335Y-26826892D01*
X74414763Y-27019768D01*
X74554906Y-26913451D01*
X74761784Y-26780214D01*
X74975911Y-26688040D01*
X75195314Y-26637150D01*
X75418022Y-26627760D01*
X75642063Y-26660091D01*
X75865463Y-26734361D01*
X75924928Y-26761399D01*
X76083156Y-26837504D01*
X76190704Y-26740809D01*
X76305534Y-26654252D01*
X76447749Y-26572400D01*
X76602481Y-26502555D01*
X76754864Y-26452017D01*
X76801133Y-26441024D01*
X77015564Y-26416780D01*
X77233136Y-26431040D01*
X77447434Y-26481127D01*
X77652041Y-26564365D01*
X77840543Y-26678077D01*
X78006523Y-26819589D01*
X78143565Y-26986223D01*
X78156987Y-27006576D01*
X78219672Y-27103969D01*
X78330611Y-27073845D01*
X78430717Y-27057597D01*
X78555564Y-27053214D01*
X78689457Y-27060030D01*
X78816701Y-27077376D01*
X78902429Y-27098158D01*
X79038096Y-27149950D01*
X79176272Y-27219072D01*
X79304198Y-27298080D01*
X79409114Y-27379529D01*
X79445364Y-27414935D01*
X79485770Y-27449540D01*
X79533512Y-27465950D01*
X79605829Y-27470100D01*
X79672838Y-27467397D01*
X79711698Y-27455560D01*
X79736443Y-27428998D01*
X79744556Y-27414835D01*
X79772314Y-27377088D01*
X79823209Y-27320008D01*
X79888940Y-27252606D01*
X79934697Y-27208460D01*
X80095261Y-27057350D01*
X80130816Y-26835100D01*
X80147990Y-26712433D01*
X80154499Y-26621658D01*
X80150782Y-26553817D01*
X80145841Y-26528183D01*
X80131175Y-26429898D01*
X80125934Y-26306348D01*
X80129806Y-26173469D01*
X80142478Y-26047195D01*
X80156788Y-25969680D01*
X80226274Y-25764049D01*
X80332253Y-25570409D01*
X80469419Y-25394071D01*
X80632462Y-25240341D01*
X80816075Y-25114528D01*
X81014949Y-25021940D01*
X81142714Y-24983755D01*
X81277349Y-24962327D01*
X81434136Y-24953420D01*
X81594788Y-24957034D01*
X81741018Y-24973170D01*
X81794053Y-24983755D01*
X81991643Y-25050297D01*
X82183034Y-25152340D01*
X82358683Y-25283188D01*
X82509045Y-25436139D01*
X82585456Y-25539241D01*
X82692288Y-25725262D01*
X82763254Y-25905657D01*
X82801379Y-26091520D01*
X82809689Y-26293946D01*
X82807234Y-26352525D01*
X82796211Y-26545849D01*
X82911422Y-26685183D01*
X83052774Y-26886175D01*
X83154489Y-27098549D01*
X83215762Y-27320177D01*
X83235800Y-27544183D01*
X83224868Y-27721237D01*
X83189529Y-27886674D01*
X83125970Y-28055751D01*
X83088103Y-28135187D01*
X83044097Y-28229983D01*
X83022302Y-28294602D01*
X83023380Y-28326443D01*
X83042311Y-28356545D01*
X83072911Y-28412511D01*
X83107568Y-28480258D01*
X83188013Y-28688822D01*
X83229005Y-28906688D01*
X83230543Y-29127812D01*
X83192627Y-29346150D01*
X83115257Y-29555657D01*
X83107568Y-29571442D01*
X83072054Y-29640811D01*
X83041664Y-29696278D01*
X83023380Y-29725257D01*
X83022429Y-29757689D01*
X83044497Y-29822687D01*
X83088103Y-29916513D01*
X83170180Y-30106039D01*
X83218485Y-30284144D01*
X83235686Y-30460956D01*
X83235800Y-30477091D01*
X83235800Y-30617688D01*
X83362404Y-30717154D01*
X83526189Y-30870984D01*
X83660329Y-31049029D01*
X83762802Y-31245504D01*
X83831585Y-31454622D01*
X83864655Y-31670596D01*
X83859991Y-31887641D01*
X83829193Y-32052683D01*
X83790027Y-32200850D01*
X83850236Y-32296100D01*
X83965425Y-32511277D01*
X84040979Y-32728543D01*
X84076070Y-32944937D01*
X84075464Y-33103275D01*
X84050774Y-33268250D01*
X84004248Y-33437947D01*
X83940491Y-33600592D01*
X83864105Y-33744413D01*
X83781019Y-33856201D01*
X83738188Y-33902885D01*
X83799202Y-34089034D01*
X83828988Y-34186931D01*
X83847224Y-34270023D01*
X83856461Y-34355662D01*
X83859249Y-34461205D01*
X83859217Y-34497433D01*
X83844471Y-34710983D01*
X83800277Y-34902233D01*
X83723626Y-35081945D01*
X83669929Y-35174430D01*
X83638468Y-35233118D01*
X83630512Y-35282950D01*
X83639034Y-35335897D01*
X83657032Y-35480689D01*
X83652045Y-35646219D01*
X83626029Y-35819019D01*
X83580940Y-35985621D01*
X83525102Y-36120257D01*
X83441933Y-36260072D01*
X83339309Y-36395204D01*
X83228259Y-36512203D01*
X83151047Y-36576380D01*
X83026530Y-36667017D01*
X83025331Y-36816028D01*
X83004565Y-37023805D01*
X82947865Y-37231473D01*
X82910462Y-37323183D01*
X82862286Y-37429017D01*
X82910650Y-37535272D01*
X82978635Y-37717490D01*
X83014108Y-37900149D01*
X83020006Y-38098955D01*
X83019298Y-38115819D01*
X82996559Y-38318291D01*
X82945616Y-38500283D01*
X82861964Y-38676392D01*
X82829502Y-38730767D01*
X82743783Y-38868350D01*
X82778396Y-39016517D01*
X82811777Y-39249446D01*
X82802870Y-39481601D01*
X82751656Y-39713171D01*
X82705097Y-39841207D01*
X82657774Y-39955382D01*
X82703149Y-40060859D01*
X82776776Y-40279311D01*
X82810041Y-40501344D01*
X82812467Y-40582850D01*
X82800101Y-40767856D01*
X82760322Y-40939750D01*
X82689106Y-41115014D01*
X82676107Y-41141336D01*
X82602704Y-41287095D01*
X82645889Y-41326177D01*
X82707276Y-41393068D01*
X82776327Y-41486413D01*
X82844356Y-41593618D01*
X82896640Y-41689746D01*
X82974257Y-41892416D01*
X83016095Y-42111648D01*
X83021385Y-42340198D01*
X82990096Y-42567465D01*
X82956059Y-42722367D01*
X83023304Y-42822004D01*
X83128672Y-43014997D01*
X83198459Y-43225499D01*
X83230394Y-43444894D01*
X83228812Y-43601750D01*
X83215765Y-43770935D01*
X83329438Y-43908745D01*
X83467169Y-44106384D01*
X83566337Y-44317641D01*
X83608725Y-44458409D01*
X83627156Y-44534992D01*
X83642665Y-44588349D01*
X83661502Y-44630748D01*
X83689918Y-44674458D01*
X83734161Y-44731750D01*
X83772235Y-44779413D01*
X83825924Y-44844667D01*
X83867050Y-44884762D01*
X83908876Y-44908076D01*
X83964670Y-44922990D01*
X84013764Y-44931984D01*
X84237597Y-44992067D01*
X84448065Y-45090514D01*
X84638590Y-45223903D01*
X84722181Y-45300490D01*
X84820222Y-45398530D01*
X84943469Y-45365548D01*
X85118985Y-45335639D01*
X85309095Y-45332387D01*
X85495974Y-45355225D01*
X85616906Y-45386962D01*
X85708206Y-45420371D01*
X85795437Y-45456943D01*
X85861587Y-45489477D01*
X85868304Y-45493363D01*
X85952749Y-45543720D01*
X86066317Y-45439925D01*
X86182400Y-45350456D01*
X86324351Y-45266449D01*
X86475828Y-45196620D01*
X86601300Y-45154542D01*
X86708650Y-45135484D01*
X86841204Y-45125817D01*
X86982890Y-45125537D01*
X87117635Y-45134635D01*
X87229366Y-45153105D01*
X87236163Y-45154814D01*
X87358553Y-45186529D01*
X87487844Y-45061966D01*
X87621141Y-44952893D01*
X87778319Y-44855205D01*
X87943674Y-44777565D01*
X88085380Y-44732255D01*
X88228979Y-44709380D01*
X88390146Y-44701397D01*
X88550398Y-44708286D01*
X88691252Y-44730029D01*
X88703033Y-44732886D01*
X88790392Y-44760631D01*
X88891758Y-44801157D01*
X88982550Y-44844366D01*
X89130717Y-44922727D01*
X89289467Y-44843663D01*
X89469860Y-44765993D01*
X89641480Y-44719563D01*
X89819415Y-44700643D01*
X89871550Y-44699767D01*
X90061721Y-44712917D01*
X90238382Y-44755040D01*
X90418059Y-44830142D01*
X90426307Y-44834274D01*
X90568126Y-44905770D01*
X90696088Y-44799068D01*
X90809943Y-44717031D01*
X90946047Y-44638814D01*
X91089127Y-44572005D01*
X91223906Y-44524195D01*
X91274883Y-44511496D01*
X91407095Y-44493800D01*
X91557365Y-44489243D01*
X91706493Y-44497543D01*
X91835278Y-44518417D01*
X91840894Y-44519800D01*
X91923231Y-44545653D01*
X92022383Y-44584171D01*
X92118166Y-44627453D01*
X92126575Y-44631635D01*
X92286100Y-44711770D01*
X92444075Y-44632397D01*
X92626771Y-44553443D01*
X92801252Y-44506710D01*
X92981876Y-44488602D01*
X93020457Y-44488100D01*
X93152718Y-44493057D01*
X93269124Y-44510364D01*
X93385155Y-44543675D01*
X93516290Y-44596646D01*
X93555455Y-44614406D01*
X93725694Y-44692910D01*
X93830622Y-44599940D01*
X93929829Y-44525523D01*
X94055891Y-44450611D01*
X94194094Y-44382732D01*
X94329727Y-44329415D01*
X94400372Y-44308394D01*
X94606070Y-44276945D01*
X94821267Y-44281599D01*
X95036846Y-44320436D01*
X95243690Y-44391537D01*
X95432682Y-44492983D01*
X95498441Y-44539487D01*
X95597115Y-44614807D01*
X95761166Y-44556747D01*
X95836800Y-44531589D01*
X95902642Y-44514948D01*
X95971159Y-44505160D01*
X96054820Y-44500562D01*
X96166093Y-44499489D01*
X96189800Y-44499541D01*
X96312492Y-44501286D01*
X96404780Y-44506580D01*
X96478541Y-44516882D01*
X96545653Y-44533649D01*
X96591967Y-44548928D01*
X96741993Y-44612201D01*
X96895032Y-44694544D01*
X96978258Y-44747981D01*
X97018227Y-44762937D01*
X97052342Y-44747981D01*
X97238203Y-44634834D01*
X97421840Y-44557243D01*
X97615565Y-44511006D01*
X97798731Y-44493153D01*
X98030379Y-44498878D01*
X98241109Y-44539396D01*
X98435784Y-44616608D01*
X98619272Y-44732416D01*
X98787192Y-44879456D01*
X98874251Y-44962820D01*
X98936447Y-45014528D01*
X98975476Y-45035888D01*
X98988275Y-45034819D01*
X99020373Y-45020347D01*
X99081251Y-44997717D01*
X99159224Y-44971215D01*
X99180684Y-44964274D01*
X99348861Y-44926328D01*
X99534834Y-44910871D01*
X99720183Y-44918468D01*
X99863061Y-44943366D01*
X99986891Y-44983810D01*
X100120412Y-45042345D01*
X100248457Y-45111287D01*
X100355859Y-45182953D01*
X100388194Y-45209382D01*
X100478769Y-45289108D01*
X100583243Y-45205008D01*
X100714112Y-45113919D01*
X100863834Y-45032675D01*
X101015141Y-44969926D01*
X101105683Y-44943268D01*
X101231595Y-44922896D01*
X101378374Y-44913599D01*
X101529287Y-44915373D01*
X101667603Y-44928210D01*
X101746894Y-44943501D01*
X101955429Y-45017266D01*
X102151297Y-45126881D01*
X102327653Y-45266941D01*
X102477655Y-45432044D01*
X102590946Y-45609933D01*
X102628769Y-45682821D01*
X102658507Y-45739548D01*
X102675378Y-45771017D01*
X102677384Y-45774414D01*
X102698639Y-45773565D01*
X102748604Y-45765273D01*
X102792599Y-45756380D01*
X102904385Y-45745635D01*
X103040332Y-45753144D01*
X103187269Y-45777194D01*
X103332027Y-45816074D01*
X103378992Y-45832587D01*
X103587528Y-45933280D01*
X103774585Y-46068782D01*
X103935901Y-46235229D01*
X104067215Y-46428754D01*
X104095618Y-46482435D01*
X104137943Y-46571663D01*
X104173517Y-46655268D01*
X104197114Y-46720572D01*
X104202827Y-46742604D01*
X104213718Y-46788637D01*
X104232132Y-46807561D01*
X104271736Y-46807486D01*
X104304257Y-46802781D01*
X104358612Y-46794020D01*
X104390376Y-46788042D01*
X104393589Y-46787029D01*
X104403771Y-46768770D01*
X104429303Y-46722351D01*
X104465241Y-46656765D01*
X104476318Y-46636517D01*
X104590929Y-46464938D01*
X104733379Y-46313130D01*
X104897634Y-46184100D01*
X105077662Y-46080858D01*
X105267430Y-46006411D01*
X105460907Y-45963767D01*
X105652060Y-45955934D01*
X105799342Y-45976774D01*
X105868899Y-45992425D01*
X105919004Y-46002626D01*
X105938787Y-46005168D01*
X106016033Y-45889352D01*
X106121429Y-45767780D01*
X106244011Y-45650890D01*
X106372816Y-45549117D01*
X106496880Y-45472902D01*
X106499040Y-45471809D01*
X106652594Y-45403459D01*
X106798351Y-45360052D01*
X106953181Y-45337677D01*
X107101217Y-45332278D01*
X107324642Y-45347506D01*
X107528675Y-45395686D01*
X107721252Y-45479618D01*
X107910312Y-45602103D01*
X107947883Y-45631065D01*
X108014952Y-45682061D01*
X108067574Y-45713357D01*
X108121834Y-45731241D01*
X108193813Y-45742001D01*
X108244217Y-45746926D01*
X108484309Y-45788564D01*
X108705991Y-45866036D01*
X108906353Y-45976390D01*
X109082487Y-46116676D01*
X109231483Y-46283943D01*
X109350433Y-46475241D01*
X109436428Y-46687618D01*
X109486559Y-46918125D01*
X109496048Y-47016821D01*
X109490778Y-47245037D01*
X109448455Y-47461672D01*
X109372627Y-47663933D01*
X109266839Y-47849026D01*
X109134639Y-48014157D01*
X108979573Y-48156533D01*
X108805187Y-48273361D01*
X108615028Y-48361846D01*
X108412643Y-48419196D01*
X108201577Y-48442617D01*
X107985378Y-48429316D01*
X107769168Y-48377031D01*
X107611619Y-48323986D01*
X107371243Y-48538584D01*
X107272868Y-48624845D01*
X107171533Y-48711026D01*
X107077761Y-48788342D01*
X107002075Y-48848009D01*
X106987378Y-48859017D01*
X106910523Y-48916190D01*
X106837812Y-48971106D01*
X106782996Y-49013366D01*
X106775930Y-49018954D01*
X106707970Y-49073059D01*
X106812066Y-49140511D01*
X106970567Y-49265281D01*
X107108680Y-49417735D01*
X107223304Y-49591014D01*
X107311339Y-49778261D01*
X107369685Y-49972615D01*
X107395241Y-50167218D01*
X107384906Y-50355210D01*
X107378026Y-50392537D01*
X107363037Y-50467648D01*
X107353075Y-50523962D01*
X107349928Y-50551188D01*
X107350258Y-50552230D01*
X107414478Y-50594784D01*
X107495488Y-50658377D01*
X107581394Y-50732914D01*
X107660303Y-50808301D01*
X107694833Y-50844719D01*
X107832986Y-51028134D01*
X107934077Y-51231143D01*
X107997190Y-51451301D01*
X108021406Y-51686163D01*
X108021654Y-51715672D01*
X108002172Y-51957039D01*
X107944221Y-52181122D01*
X107847310Y-52389334D01*
X107728392Y-52561824D01*
X107644291Y-52666298D01*
X107728017Y-52761416D01*
X107802783Y-52862866D01*
X107875768Y-52990949D01*
X107939281Y-53130379D01*
X107985633Y-53265870D01*
X107989898Y-53282005D01*
X108010459Y-53402085D01*
X108020077Y-53546110D01*
X108018792Y-53697141D01*
X108006645Y-53838238D01*
X107988360Y-53935599D01*
X107935156Y-54091872D01*
X107858610Y-54250713D01*
X107765977Y-54399982D01*
X107664514Y-54527540D01*
X107593432Y-54596312D01*
X107531129Y-54648736D01*
X107595566Y-54749153D01*
X107705297Y-54956738D01*
X107777404Y-55175569D01*
X107811645Y-55400331D01*
X107807776Y-55625706D01*
X107765552Y-55846380D01*
X107684731Y-56057036D01*
X107657867Y-56108600D01*
X107618459Y-56176702D01*
X107582182Y-56233734D01*
X107561733Y-56261394D01*
X107543653Y-56290361D01*
X107541014Y-56327867D01*
X107553182Y-56388650D01*
X107555805Y-56398978D01*
X107598497Y-56642026D01*
X107600360Y-56878259D01*
X107561703Y-57105548D01*
X107482835Y-57321758D01*
X107400406Y-57470813D01*
X107342675Y-57550185D01*
X107267654Y-57638316D01*
X107185340Y-57724793D01*
X107105733Y-57799207D01*
X107038832Y-57851145D01*
X107029641Y-57856873D01*
X107002813Y-57875408D01*
X106986171Y-57898676D01*
X106977031Y-57936569D01*
X106972711Y-57998975D01*
X106970920Y-58073383D01*
X106946094Y-58299748D01*
X106881131Y-58516903D01*
X106777935Y-58720578D01*
X106638414Y-58906503D01*
X106565245Y-58982319D01*
X106494292Y-59046243D01*
X106421548Y-59104973D01*
X106362382Y-59146127D01*
X106360770Y-59147083D01*
X106291189Y-59208084D01*
X106221407Y-59307733D01*
X106153423Y-59442403D01*
X106089236Y-59608464D01*
X106064645Y-59684252D01*
X105977303Y-59902414D01*
X105856980Y-60095328D01*
X105701913Y-60265346D01*
X105524093Y-60405573D01*
X105419250Y-60485729D01*
X105347287Y-60565331D01*
X105300384Y-60655472D01*
X105271278Y-60764304D01*
X105207295Y-60999696D01*
X105108822Y-61211367D01*
X104974530Y-61401905D01*
X104905648Y-61477772D01*
X104850868Y-61535337D01*
X104821104Y-61573782D01*
X104811449Y-61603929D01*
X104816997Y-61636605D01*
X104824084Y-61657689D01*
X104858287Y-61799509D01*
X104872634Y-61965009D01*
X104867326Y-62140587D01*
X104842562Y-62312642D01*
X104812751Y-62426850D01*
X104781825Y-62505454D01*
X104735579Y-62603117D01*
X104682277Y-62703743D01*
X104630181Y-62791233D01*
X104611346Y-62819206D01*
X104603296Y-62846994D01*
X104616421Y-62887100D01*
X104653953Y-62948987D01*
X104657434Y-62954166D01*
X104763150Y-63147612D01*
X104833823Y-63358711D01*
X104868572Y-63580118D01*
X104866517Y-63804486D01*
X104826777Y-64024470D01*
X104796948Y-64118475D01*
X104744784Y-64262183D01*
X104820288Y-64360517D01*
X104907854Y-64495818D01*
X104984672Y-64654931D01*
X105041978Y-64819380D01*
X105047234Y-64839005D01*
X105067911Y-64957733D01*
X105077774Y-65100560D01*
X105076840Y-65250664D01*
X105065126Y-65391220D01*
X105046574Y-65491129D01*
X105005751Y-65614505D01*
X104947264Y-65747769D01*
X104879443Y-65873849D01*
X104810618Y-65975680D01*
X104809270Y-65977375D01*
X104746050Y-66056567D01*
X104809392Y-66240335D01*
X104841866Y-66342166D01*
X104860977Y-66427406D01*
X104869880Y-66515614D01*
X104871731Y-66626346D01*
X104871728Y-66626810D01*
X104862009Y-66806823D01*
X104831960Y-66965610D01*
X104777318Y-67121109D01*
X104730464Y-67221270D01*
X104686319Y-67319005D01*
X104667439Y-67387751D01*
X104668576Y-67420729D01*
X104672252Y-67476383D01*
X104665773Y-67560327D01*
X104651052Y-67660272D01*
X104630003Y-67763931D01*
X104604539Y-67859015D01*
X104596554Y-67883368D01*
X104578020Y-67939951D01*
X104569973Y-67982863D01*
X104573106Y-68026217D01*
X104588111Y-68084128D01*
X104609763Y-68152384D01*
X104647830Y-68319405D01*
X104663540Y-68504572D01*
X104656418Y-68689848D01*
X104628133Y-68849295D01*
X104559961Y-69041734D01*
X104462577Y-69226398D01*
X104343227Y-69391160D01*
X104241277Y-69496517D01*
X104170291Y-69560017D01*
X104204861Y-69665850D01*
X104229927Y-69780904D01*
X104241660Y-69921811D01*
X104240279Y-70074316D01*
X104226006Y-70224168D01*
X104199061Y-70357113D01*
X104193873Y-70374933D01*
X104107950Y-70588778D01*
X103988339Y-70784564D01*
X103839690Y-70956589D01*
X103666657Y-71099152D01*
X103541991Y-71174005D01*
X103409821Y-71235146D01*
X103276361Y-71283595D01*
X103153583Y-71315605D01*
X103053460Y-71327428D01*
X103051765Y-71327433D01*
X102996703Y-71340046D01*
X102929292Y-71380559D01*
X102874903Y-71424159D01*
X102639423Y-71598914D01*
X102385234Y-71737472D01*
X102116550Y-71839102D01*
X101837585Y-71903072D01*
X101552551Y-71928650D01*
X101265663Y-71915105D01*
X100981132Y-71861703D01*
X100761800Y-71791243D01*
X100658793Y-71747426D01*
X100545986Y-71692940D01*
X100455191Y-71643754D01*
X100377802Y-71600361D01*
X100317033Y-71573916D01*
X100256053Y-71559638D01*
X100178027Y-71552745D01*
X100127108Y-71550565D01*
X99910506Y-71528974D01*
X99715569Y-71478461D01*
X99529652Y-71394881D01*
X99390063Y-71309048D01*
X99222993Y-71170914D01*
X99079508Y-71002467D01*
X98963321Y-70810775D01*
X98878145Y-70602904D01*
X98827694Y-70385922D01*
X98814834Y-70214277D01*
X98826453Y-70073560D01*
X98859136Y-69916088D01*
X98908539Y-69758967D01*
X98961672Y-69636004D01*
X99027095Y-69506401D01*
X98922291Y-69380466D01*
X98785087Y-69184499D01*
X98686694Y-68975669D01*
X98627119Y-68758036D01*
X98606369Y-68535660D01*
X98624452Y-68312602D01*
X98681373Y-68092921D01*
X98777142Y-67880679D01*
X98911764Y-67679935D01*
X98919255Y-67670593D01*
X99026442Y-67538004D01*
X98965733Y-67416593D01*
X98903553Y-67283282D01*
X98862328Y-67168403D01*
X98838272Y-67056039D01*
X98827598Y-66930274D01*
X98826049Y-66829517D01*
X98827970Y-66714398D01*
X98834592Y-66626387D01*
X98848143Y-66550331D01*
X98870851Y-66471075D01*
X98884826Y-66429827D01*
X98975971Y-66224715D01*
X99098722Y-66034163D01*
X99245101Y-65870558D01*
X99245135Y-65870527D01*
X99318889Y-65793753D01*
X99357592Y-65729423D01*
X99362537Y-65668271D01*
X99335018Y-65601030D01*
X99291537Y-65537987D01*
X99193091Y-65384353D01*
X99115166Y-65212591D01*
X99060342Y-65032548D01*
X99031194Y-64854068D01*
X99030301Y-64686997D01*
X99044684Y-64595096D01*
X99062224Y-64519676D01*
X98901304Y-64437044D01*
X98724331Y-64323940D01*
X98564945Y-64178457D01*
X98429380Y-64008375D01*
X98323868Y-63821469D01*
X98256360Y-63632348D01*
X98237682Y-63573086D01*
X98218998Y-63535572D01*
X98209833Y-63528564D01*
X98174968Y-63532593D01*
X98103197Y-63542645D01*
X97999413Y-63558018D01*
X97911271Y-63571425D01*
X97867164Y-63585146D01*
X97830392Y-63617054D01*
X97790542Y-63676847D01*
X97781838Y-63692029D01*
X97719518Y-63802337D01*
X97802565Y-63967036D01*
X97889984Y-64182999D01*
X97935159Y-64400927D01*
X97938159Y-64621795D01*
X97899057Y-64846579D01*
X97872861Y-64934165D01*
X97816116Y-65104554D01*
X97891856Y-65207732D01*
X97998808Y-65382228D01*
X98081597Y-65576808D01*
X98135898Y-65778682D01*
X98157387Y-65975062D01*
X98157565Y-65993433D01*
X98139918Y-66185837D01*
X98090047Y-66384535D01*
X98012560Y-66574944D01*
X97928029Y-66719958D01*
X97891598Y-66775376D01*
X97876237Y-66814542D01*
X97878923Y-66856012D01*
X97896020Y-66916352D01*
X97925210Y-67051853D01*
X97939623Y-67209131D01*
X97938607Y-67370056D01*
X97921513Y-67516499D01*
X97918168Y-67533094D01*
X97865741Y-67710554D01*
X97787454Y-67886631D01*
X97691902Y-68042412D01*
X97678757Y-68060059D01*
X97603022Y-68159277D01*
X97663703Y-68330480D01*
X97692021Y-68416021D01*
X97709949Y-68489323D01*
X97719724Y-68565395D01*
X97723587Y-68659245D01*
X97723992Y-68734517D01*
X97720746Y-68868834D01*
X97710653Y-68972564D01*
X97692412Y-69057091D01*
X97684024Y-69083767D01*
X97633660Y-69214179D01*
X97574583Y-69339190D01*
X97514175Y-69443749D01*
X97491809Y-69475785D01*
X97443887Y-69539720D01*
X97482373Y-69687451D01*
X97513922Y-69869855D01*
X97520369Y-70066833D01*
X97501070Y-70258408D01*
X97500800Y-70259921D01*
X97467507Y-70382383D01*
X97411600Y-70521175D01*
X97340102Y-70662397D01*
X97260035Y-70792149D01*
X97180107Y-70894692D01*
X97025421Y-71038025D01*
X96847368Y-71158136D01*
X96655757Y-71249805D01*
X96460398Y-71307811D01*
X96379235Y-71320922D01*
X96321388Y-71330708D01*
X96270298Y-71348479D01*
X96215186Y-71379887D01*
X96145271Y-71430580D01*
X96095378Y-71469702D01*
X95902877Y-71603475D01*
X95684859Y-71722157D01*
X95457551Y-71817690D01*
X95290217Y-71869437D01*
X95026811Y-71916778D01*
X94750438Y-71929187D01*
X94471533Y-71907007D01*
X94200537Y-71850580D01*
X94136633Y-71831601D01*
X93867358Y-71724877D01*
X93617359Y-71582556D01*
X93389569Y-71408093D01*
X93186920Y-71204944D01*
X93012345Y-70976562D01*
X92868776Y-70726402D01*
X92759145Y-70457920D01*
X92686386Y-70174570D01*
X92675583Y-70110350D01*
X92655429Y-70010154D01*
X92626606Y-69904031D01*
X92602947Y-69835183D01*
X92571678Y-69738870D01*
X92544002Y-69623116D01*
X92522592Y-69502860D01*
X92510120Y-69393038D01*
X92509095Y-69310530D01*
X92500926Y-69245746D01*
X92470112Y-69153975D01*
X92439224Y-69083767D01*
X92374091Y-68929623D01*
X92333510Y-68787078D01*
X92313524Y-68638007D01*
X92309788Y-68491019D01*
X92314600Y-68367714D01*
X92328496Y-68265439D01*
X92354790Y-68163285D01*
X92368502Y-68120806D01*
X92408877Y-68015321D01*
X92458186Y-67908603D01*
X92510802Y-67811109D01*
X92561100Y-67733297D01*
X92601965Y-67686837D01*
X92629252Y-67653859D01*
X92623556Y-67622545D01*
X92582049Y-67587670D01*
X92533258Y-67559953D01*
X92474586Y-67521905D01*
X92398829Y-67462549D01*
X92317817Y-67391498D01*
X92272214Y-67347853D01*
X92119983Y-67169532D01*
X92005946Y-66974115D01*
X91928388Y-66758627D01*
X91925035Y-66745694D01*
X91904793Y-66628288D01*
X91895091Y-66487935D01*
X91895944Y-66341397D01*
X91907367Y-66205435D01*
X91924486Y-66114151D01*
X91959911Y-66007082D01*
X92011804Y-65884922D01*
X92071489Y-65766373D01*
X92130288Y-65670137D01*
X92130889Y-65669284D01*
X92153647Y-65633526D01*
X92162258Y-65601597D01*
X92157354Y-65558878D01*
X92139568Y-65490749D01*
X92138740Y-65487796D01*
X92117681Y-65386046D01*
X92104562Y-65267948D01*
X92100268Y-65149776D01*
X92105686Y-65047803D01*
X92112567Y-65006877D01*
X92118732Y-64969658D01*
X92110709Y-64943802D01*
X92080780Y-64919994D01*
X92021225Y-64888915D01*
X92010484Y-64883649D01*
X91806452Y-64761078D01*
X91630759Y-64608188D01*
X91485821Y-64428128D01*
X91374053Y-64224047D01*
X91297871Y-63999092D01*
X91284004Y-63936638D01*
X91267868Y-63856141D01*
X91255075Y-63793650D01*
X91247663Y-63759075D01*
X91246688Y-63755330D01*
X91228516Y-63762150D01*
X91182643Y-63784780D01*
X91118432Y-63818572D01*
X91108308Y-63824040D01*
X90940271Y-63904124D01*
X90781600Y-63954282D01*
X90616515Y-63978641D01*
X90502084Y-63982600D01*
X90262544Y-63963303D01*
X90040252Y-63905367D01*
X89835058Y-63808720D01*
X89646812Y-63673293D01*
X89475363Y-63499013D01*
X89475075Y-63498671D01*
X89417341Y-63430058D01*
X89221112Y-63497671D01*
X89005014Y-63552011D01*
X88788737Y-63567533D01*
X88578697Y-63544066D01*
X88477796Y-63517586D01*
X88406361Y-63496018D01*
X88352972Y-63481941D01*
X88328143Y-63478099D01*
X88327615Y-63478409D01*
X88314119Y-63498016D01*
X88283357Y-63543510D01*
X88241611Y-63605597D01*
X88235493Y-63614719D01*
X88096291Y-63786111D01*
X87926513Y-63935123D01*
X87734601Y-64055798D01*
X87528996Y-64142184D01*
X87459394Y-64162198D01*
X87343612Y-64182167D01*
X87203422Y-64192115D01*
X87055600Y-64191826D01*
X86916921Y-64181087D01*
X86847496Y-64170027D01*
X86771404Y-64148859D01*
X86675548Y-64113958D01*
X86577346Y-64071837D01*
X86550306Y-64058902D01*
X86373814Y-63972017D01*
X86383814Y-64099017D01*
X86378953Y-64257861D01*
X86342756Y-64431314D01*
X86277752Y-64608580D01*
X86251650Y-64663610D01*
X86177512Y-64811333D01*
X86272909Y-64920386D01*
X86390161Y-65081224D01*
X86485831Y-65266517D01*
X86555372Y-65464346D01*
X86594235Y-65662796D01*
X86600932Y-65779861D01*
X86581408Y-65996016D01*
X86526719Y-66213905D01*
X86441024Y-66420055D01*
X86361790Y-66554637D01*
X86309013Y-66632306D01*
X86370968Y-66724106D01*
X86484903Y-66929186D01*
X86559856Y-67145818D01*
X86595983Y-67369424D01*
X86593443Y-67595426D01*
X86552392Y-67819246D01*
X86472989Y-68036306D01*
X86355390Y-68242030D01*
X86316904Y-68295311D01*
X86216707Y-68427606D01*
X86300778Y-68523115D01*
X86423087Y-68693129D01*
X86513225Y-68884834D01*
X86570702Y-69091844D01*
X86595028Y-69307771D01*
X86585714Y-69526229D01*
X86542269Y-69740829D01*
X86464203Y-69945184D01*
X86416652Y-70033787D01*
X86314594Y-70179075D01*
X86187102Y-70319241D01*
X86049441Y-70437931D01*
X86018923Y-70459802D01*
X85962410Y-70501536D01*
X85935196Y-70532540D01*
X85930004Y-70563402D01*
X85933790Y-70583707D01*
X85951887Y-70694174D01*
X85960045Y-70827738D01*
X85958186Y-70966328D01*
X85946230Y-71091873D01*
X85936259Y-71144885D01*
X85885335Y-71302629D01*
X85807840Y-71467920D01*
X85712288Y-71624617D01*
X85622288Y-71740055D01*
X85506550Y-71851346D01*
X85367478Y-71956117D01*
X85219762Y-72044523D01*
X85078095Y-72106723D01*
X85071861Y-72108827D01*
X84987429Y-72132642D01*
X84889172Y-72153922D01*
X84788117Y-72171043D01*
X84695289Y-72182377D01*
X84621717Y-72186299D01*
X84579171Y-72181481D01*
X84542739Y-72189881D01*
X84489999Y-72236968D01*
X84468651Y-72261411D01*
X84264576Y-72474243D01*
X84036363Y-72655738D01*
X83788322Y-72803613D01*
X83524760Y-72915588D01*
X83249988Y-72989378D01*
X83039718Y-73018243D01*
X82732833Y-73023292D01*
X82437613Y-72988010D01*
X82155692Y-72912998D01*
X81888702Y-72798861D01*
X81638277Y-72646201D01*
X81406050Y-72455620D01*
X81339975Y-72390939D01*
X81176058Y-72203019D01*
X81037604Y-71996582D01*
X80938998Y-71808899D01*
X80893449Y-71715694D01*
X80856600Y-71651079D01*
X80820487Y-71604728D01*
X80777149Y-71566316D01*
X80722365Y-71527995D01*
X80557611Y-71396821D01*
X80411096Y-71236976D01*
X80289252Y-71057510D01*
X80198509Y-70867468D01*
X80156788Y-70732353D01*
X80134365Y-70590388D01*
X80126227Y-70428133D01*
X80132383Y-70264825D01*
X80152846Y-70119703D01*
X80156422Y-70103752D01*
X80207596Y-69944618D01*
X80284516Y-69779647D01*
X80378373Y-69627458D01*
X80388156Y-69613924D01*
X80460644Y-69515176D01*
X80406067Y-69368263D01*
X80366365Y-69223512D01*
X80343101Y-69056665D01*
X80337186Y-68884289D01*
X80349534Y-68722951D01*
X80365919Y-68639002D01*
X80424096Y-68461492D01*
X80503719Y-68292026D01*
X80596146Y-68148475D01*
X80672318Y-68049266D01*
X80583517Y-67997126D01*
X80397220Y-67865335D01*
X80234545Y-67704972D01*
X80100330Y-67522431D01*
X79999409Y-67324101D01*
X79944501Y-67152525D01*
X79923107Y-67019444D01*
X79914406Y-66867268D01*
X79918395Y-66713621D01*
X79935071Y-66576130D01*
X79944594Y-66532339D01*
X80004513Y-66355750D01*
X80091826Y-66178617D01*
X80197772Y-66017111D01*
X80271066Y-65929677D01*
X80328087Y-65868323D01*
X80372105Y-65820020D01*
X80396576Y-65791994D01*
X80399467Y-65787913D01*
X80388880Y-65769216D01*
X80361007Y-65724406D01*
X80321673Y-65662838D01*
X80317982Y-65657123D01*
X80238885Y-65517205D01*
X80184193Y-65375559D01*
X80151013Y-65221083D01*
X80136448Y-65042678D01*
X80135187Y-64956267D01*
X80139978Y-64794549D01*
X80156391Y-64660805D01*
X80188108Y-64541424D01*
X80238810Y-64422798D01*
X80312178Y-64291316D01*
X80317397Y-64282695D01*
X80403073Y-64141670D01*
X80376861Y-64014510D01*
X80362524Y-63946970D01*
X80351524Y-63898839D01*
X80346780Y-63882003D01*
X80326580Y-63885776D01*
X80277712Y-63900906D01*
X80217731Y-63921648D01*
X80125922Y-63947610D01*
X80014417Y-63965125D01*
X79872808Y-63975750D01*
X79849133Y-63976813D01*
X79675654Y-63977918D01*
X79528664Y-63963717D01*
X79394368Y-63931919D01*
X79258974Y-63880237D01*
X79254101Y-63878065D01*
X79199486Y-63854972D01*
X79164012Y-63842546D01*
X79157292Y-63841885D01*
X79160791Y-63862866D01*
X79174700Y-63913197D01*
X79196030Y-63982073D01*
X79196494Y-63983508D01*
X79236672Y-64171771D01*
X79242532Y-64374128D01*
X79214342Y-64580261D01*
X79177587Y-64712266D01*
X79113181Y-64902182D01*
X79182358Y-64987432D01*
X79294617Y-65157225D01*
X79379036Y-65351918D01*
X79432331Y-65561929D01*
X79451190Y-65771944D01*
X79445592Y-65924315D01*
X79423849Y-66060524D01*
X79382209Y-66196576D01*
X79316923Y-66348473D01*
X79315191Y-66352116D01*
X79230081Y-66530882D01*
X79294166Y-66648449D01*
X79385652Y-66858850D01*
X79438895Y-67080661D01*
X79453244Y-67307329D01*
X79428045Y-67532301D01*
X79395009Y-67659557D01*
X79322343Y-67835987D01*
X79220647Y-68009297D01*
X79099345Y-68164956D01*
X79009487Y-68254167D01*
X78891242Y-68357887D01*
X78946661Y-68496412D01*
X79009110Y-68700537D01*
X79035682Y-68906585D01*
X79025106Y-69104708D01*
X79025075Y-69104911D01*
X79004306Y-69202036D01*
X78971836Y-69312730D01*
X78932414Y-69423820D01*
X78890789Y-69522134D01*
X78851708Y-69594497D01*
X78845194Y-69603909D01*
X78832801Y-69627977D01*
X78836867Y-69653895D01*
X78861770Y-69690861D01*
X78911887Y-69748072D01*
X78915894Y-69752460D01*
X79014645Y-69880434D01*
X79104212Y-70033469D01*
X79175299Y-70194294D01*
X79206692Y-70292899D01*
X79230660Y-70427752D01*
X79240850Y-70585087D01*
X79237310Y-70747373D01*
X79220087Y-70897081D01*
X79204828Y-70967600D01*
X79128749Y-71175048D01*
X79017109Y-71369220D01*
X78875197Y-71544817D01*
X78708305Y-71696541D01*
X78521722Y-71819094D01*
X78320738Y-71907177D01*
X78243937Y-71929932D01*
X78091655Y-71957354D01*
X77920575Y-71968808D01*
X77751492Y-71963315D01*
X77688796Y-71956113D01*
X77571043Y-71939209D01*
X77546271Y-72098548D01*
X77490693Y-72327222D01*
X77397605Y-72537022D01*
X77266171Y-72729555D01*
X77155272Y-72850646D01*
X76977692Y-72999699D01*
X76786560Y-73110176D01*
X76577897Y-73183790D01*
X76347726Y-73222255D01*
X76282416Y-73226784D01*
X76134775Y-73228538D01*
X76002614Y-73215699D01*
X75872673Y-73185421D01*
X75731690Y-73134860D01*
X75613858Y-73083360D01*
X75526369Y-73046182D01*
X75445925Y-73017475D01*
X75385076Y-73001500D01*
X75367250Y-72999600D01*
X75318638Y-73009140D01*
X75246427Y-73034507D01*
X75163941Y-73070821D01*
X75139148Y-73083139D01*
X75040996Y-73128087D01*
X74934120Y-73168909D01*
X74839990Y-73197487D01*
X74831244Y-73199556D01*
X74683565Y-73222077D01*
X74518143Y-73229410D01*
X74353995Y-73221594D01*
X74210140Y-73198668D01*
X74208475Y-73198267D01*
X74004382Y-73128142D01*
X73810133Y-73021490D01*
X73632817Y-72884031D01*
X73479522Y-72721481D01*
X73357337Y-72539560D01*
X73332423Y-72491600D01*
X73248019Y-72279113D01*
X73198833Y-72061936D01*
X73185631Y-71847008D01*
X73209174Y-71641269D01*
X73229902Y-71560267D01*
X73258642Y-71465017D01*
X73123542Y-71318111D01*
X73020315Y-71188153D01*
X72927361Y-71037941D01*
X72852781Y-70882286D01*
X72804680Y-70736000D01*
X72804391Y-70734767D01*
X72769725Y-70502640D01*
X72776439Y-70277670D01*
X72824860Y-70056869D01*
X72899013Y-69870323D01*
X72973387Y-69714964D01*
X72889688Y-69615702D01*
X72762745Y-69443612D01*
X72666842Y-69261219D01*
X72619028Y-69136683D01*
X72591688Y-69049775D01*
X72574519Y-68973456D01*
X72565345Y-68892439D01*
X72561992Y-68791439D01*
X72561804Y-68734517D01*
X72567535Y-68581501D01*
X72586172Y-68444595D01*
X72620867Y-68315494D01*
X72674773Y-68185890D01*
X72751041Y-68047478D01*
X72852825Y-67891950D01*
X72914786Y-67804458D01*
X72913413Y-67772356D01*
X72880127Y-67715255D01*
X72840702Y-67663726D01*
X72733845Y-67504727D01*
X72648627Y-67322387D01*
X72588635Y-67128236D01*
X72557456Y-66933804D01*
X72558174Y-66755433D01*
X72579670Y-66623288D01*
X72616136Y-66482352D01*
X72662715Y-66347986D01*
X72714551Y-66235550D01*
X72731835Y-66206111D01*
X72791455Y-66111873D01*
X72722043Y-65983861D01*
X72625409Y-65769322D01*
X72570313Y-65556740D01*
X72556545Y-65342733D01*
X72583897Y-65123915D01*
X72652158Y-64896904D01*
X72654408Y-64891040D01*
X72718089Y-64725908D01*
X72676639Y-64644658D01*
X72602237Y-64453655D01*
X72563696Y-64247202D01*
X72561455Y-64033026D01*
X72595951Y-63818858D01*
X72624391Y-63722133D01*
X72687556Y-63535749D01*
X72618530Y-63446966D01*
X72501020Y-63262701D01*
X72415119Y-63056279D01*
X72363957Y-62836862D01*
X72350165Y-62661071D01*
X72356134Y-62507434D01*
X72379441Y-62367829D01*
X72423759Y-62226729D01*
X72487908Y-62078751D01*
X72573018Y-61899985D01*
X72509010Y-61782417D01*
X72417101Y-61574517D01*
X72363417Y-61361148D01*
X72349101Y-61148138D01*
X72360122Y-61021296D01*
X72370448Y-60942548D01*
X72371268Y-60890338D01*
X72360560Y-60849541D01*
X72336305Y-60805028D01*
X72329849Y-60794664D01*
X72240818Y-60619252D01*
X72178389Y-60424496D01*
X72145533Y-60223479D01*
X72145218Y-60029284D01*
X72148772Y-59996637D01*
X72164445Y-59873591D01*
X72048924Y-59737416D01*
X71924342Y-59565622D01*
X71823218Y-59375507D01*
X71753771Y-59182612D01*
X71751998Y-59175934D01*
X71733629Y-59087620D01*
X71724779Y-58992183D01*
X71724458Y-58875421D01*
X71726741Y-58814097D01*
X71737072Y-58588011D01*
X71674499Y-58528347D01*
X71601476Y-58445456D01*
X71524358Y-58335927D01*
X71451629Y-58213543D01*
X71391774Y-58092089D01*
X71366442Y-58027912D01*
X71325329Y-57868773D01*
X71303230Y-57691204D01*
X71301540Y-57513976D01*
X71317881Y-57374026D01*
X71339987Y-57289534D01*
X71374864Y-57187348D01*
X71415636Y-57087273D01*
X71423017Y-57071128D01*
X71502281Y-56901239D01*
X71401073Y-56776490D01*
X71265321Y-56578584D01*
X71167252Y-56368224D01*
X71107536Y-56149623D01*
X71086846Y-55926994D01*
X71105853Y-55704552D01*
X71165230Y-55486511D01*
X71186768Y-55432457D01*
X71226768Y-55338398D01*
X71065937Y-55178457D01*
X70912117Y-54997489D01*
X70795313Y-54800198D01*
X70715621Y-54590971D01*
X70673138Y-54374199D01*
X70667960Y-54154270D01*
X70700182Y-53935572D01*
X70769902Y-53722495D01*
X70877214Y-53519427D01*
X71022216Y-53330757D01*
X71025397Y-53327274D01*
X71088170Y-53256690D01*
X71124847Y-53208857D01*
X71139571Y-53176899D01*
X71136485Y-53153941D01*
X71133154Y-53148420D01*
X71036583Y-52984873D01*
X70954038Y-52796987D01*
X70942162Y-52764267D01*
X70917022Y-52687028D01*
X70900599Y-52617589D01*
X70891094Y-52542796D01*
X70886707Y-52449497D01*
X70885670Y-52351517D01*
X70886876Y-52230153D01*
X70892277Y-52137684D01*
X70903518Y-52060748D01*
X70922245Y-51985983D01*
X70936185Y-51941397D01*
X71010823Y-51766214D01*
X71115975Y-51593224D01*
X71241800Y-51437417D01*
X71312968Y-51367413D01*
X71440718Y-51252698D01*
X71399572Y-51156708D01*
X71339369Y-50974251D01*
X71305672Y-50776990D01*
X71299690Y-50578814D01*
X71322630Y-50393612D01*
X71330366Y-50361005D01*
X71389916Y-50184547D01*
X71473977Y-50011892D01*
X71576094Y-49853475D01*
X71689812Y-49719734D01*
X71771827Y-49647174D01*
X71862473Y-49577961D01*
X71823681Y-49486621D01*
X71759746Y-49291139D01*
X71726088Y-49083740D01*
X71723832Y-48877087D01*
X71752831Y-48688839D01*
X71779025Y-48605807D01*
X71817958Y-48506650D01*
X71861469Y-48412055D01*
X71863956Y-48407154D01*
X71943383Y-48251625D01*
X71856460Y-48074453D01*
X71788778Y-47919931D01*
X71746473Y-47777599D01*
X71726150Y-47630937D01*
X71724410Y-47463423D01*
X71725461Y-47437264D01*
X71752167Y-47214857D01*
X71813224Y-47009010D01*
X71911650Y-46811050D01*
X71979886Y-46706525D01*
X71988624Y-46683904D01*
X71979817Y-46656256D01*
X71948905Y-46615831D01*
X71891325Y-46554878D01*
X71889591Y-46553113D01*
X71739958Y-46376082D01*
X71629874Y-46187997D01*
X71557215Y-45983976D01*
X71519853Y-45759140D01*
X71515559Y-45694600D01*
X71515113Y-45517838D01*
X71534450Y-45364344D01*
X71576976Y-45218347D01*
X71646095Y-45064078D01*
X71655741Y-45045402D01*
X71735028Y-44893621D01*
X71647879Y-44715621D01*
X71604974Y-44621390D01*
X71566968Y-44526202D01*
X71540291Y-44446529D01*
X71535098Y-44426579D01*
X71516818Y-44304090D01*
X71510529Y-44159975D01*
X71516014Y-44012835D01*
X71533057Y-43881271D01*
X71541885Y-43841672D01*
X71571527Y-43747083D01*
X71613344Y-43640013D01*
X71661467Y-43533369D01*
X71710027Y-43440061D01*
X71753154Y-43372996D01*
X71757419Y-43367648D01*
X71799822Y-43316113D01*
X71718840Y-43190818D01*
X71616027Y-43003895D01*
X71549452Y-42813605D01*
X71516677Y-42610578D01*
X71514278Y-42404533D01*
X71541025Y-42179112D01*
X71600740Y-41974925D01*
X71696219Y-41785501D01*
X71830256Y-41604368D01*
X71886815Y-41541710D01*
X72000705Y-41421071D01*
X71955688Y-41357851D01*
X71903570Y-41271761D01*
X71848938Y-41160374D01*
X71798843Y-41039632D01*
X71760339Y-40925477D01*
X71753699Y-40901194D01*
X71734025Y-40789347D01*
X71723690Y-40652999D01*
X71722943Y-40508993D01*
X71732035Y-40374174D01*
X71744686Y-40292850D01*
X71784110Y-40160294D01*
X71846696Y-40014347D01*
X71924896Y-39870754D01*
X72000689Y-39758774D01*
X72096320Y-39633198D01*
X72005638Y-39521865D01*
X71880263Y-39335396D01*
X71790575Y-39131059D01*
X71737276Y-38914824D01*
X71721067Y-38692659D01*
X71742651Y-38470533D01*
X71802729Y-38254414D01*
X71844999Y-38155492D01*
X71903692Y-38033202D01*
X71764788Y-37953763D01*
X71687356Y-37902489D01*
X71596216Y-37831636D01*
X71506089Y-37752989D01*
X71466750Y-37715171D01*
X71315552Y-37535506D01*
X71201850Y-37338410D01*
X71126539Y-37127730D01*
X71090517Y-36907312D01*
X71094680Y-36681003D01*
X71139926Y-36452649D01*
X71158525Y-36393432D01*
X71215324Y-36225681D01*
X71149701Y-36139432D01*
X71026550Y-35944260D01*
X70940513Y-35734400D01*
X70892021Y-35515177D01*
X70881507Y-35291914D01*
X70909404Y-35069935D01*
X70976143Y-34854561D01*
X71035223Y-34730334D01*
X71091803Y-34626377D01*
X70994388Y-34518028D01*
X70864737Y-34347434D01*
X70765053Y-34155057D01*
X70722953Y-34042350D01*
X70698575Y-33958832D01*
X70683522Y-33877223D01*
X70675896Y-33782811D01*
X70673798Y-33661350D01*
X70677957Y-33517013D01*
X70692927Y-33396818D01*
X70722527Y-33284801D01*
X70770576Y-33165000D01*
X70814393Y-33073626D01*
X70875429Y-32951568D01*
X70770624Y-32825632D01*
X70642524Y-32641919D01*
X70544503Y-32438230D01*
X70480039Y-32223918D01*
X70452607Y-32008337D01*
X70451868Y-31968017D01*
X70469735Y-31771230D01*
X70520268Y-31568818D01*
X70598868Y-31373064D01*
X70700936Y-31196249D01*
X70778149Y-31096768D01*
X70830707Y-31033738D01*
X70859847Y-30985701D01*
X70872295Y-30937926D01*
X70874779Y-30885101D01*
X70884915Y-30766675D01*
X70911814Y-30630868D01*
X70951163Y-30497013D01*
X70975525Y-30433627D01*
X71015949Y-30338570D01*
X70865833Y-30189018D01*
X70707003Y-30006457D01*
X70588319Y-29813912D01*
X70508064Y-29607684D01*
X70464520Y-29384076D01*
X70458267Y-29311600D01*
X70459190Y-29266613D01*
X70920678Y-29266613D01*
X70944507Y-29450689D01*
X71003414Y-29622641D01*
X71036744Y-29686126D01*
X71118268Y-29795505D01*
X71229873Y-29903307D01*
X71360094Y-29999813D01*
X71493710Y-30073600D01*
X71567775Y-30109163D01*
X71624334Y-30139727D01*
X71654344Y-30160270D01*
X71656907Y-30164238D01*
X71645789Y-30187667D01*
X71615314Y-30237091D01*
X71570804Y-30304111D01*
X71540676Y-30347703D01*
X71454992Y-30479115D01*
X71396559Y-30594653D01*
X71361439Y-30707068D01*
X71345696Y-30829110D01*
X71345392Y-30973530D01*
X71345621Y-30979345D01*
X71348594Y-31082275D01*
X71347131Y-31150365D01*
X71340553Y-31190945D01*
X71328183Y-31211340D01*
X71323903Y-31214258D01*
X71276927Y-31249580D01*
X71214958Y-31307889D01*
X71148290Y-31378216D01*
X71087213Y-31449594D01*
X71042022Y-31511059D01*
X71035727Y-31521315D01*
X70962822Y-31685913D01*
X70924307Y-31865633D01*
X70921454Y-32049342D01*
X70955381Y-32225422D01*
X71024876Y-32390739D01*
X71125595Y-32536372D01*
X71261410Y-32667102D01*
X71385679Y-32756344D01*
X71447210Y-32798482D01*
X71491493Y-32833572D01*
X71509254Y-32854242D01*
X71509281Y-32854628D01*
X71496433Y-32878200D01*
X71461972Y-32925023D01*
X71412296Y-32986604D01*
X71389675Y-33013378D01*
X71322896Y-33099222D01*
X71258208Y-33195412D01*
X71208520Y-33282602D01*
X71204467Y-33290933D01*
X71174519Y-33357398D01*
X71155401Y-33413474D01*
X71144715Y-33472350D01*
X71140064Y-33547215D01*
X71139050Y-33650767D01*
X71140227Y-33756172D01*
X71145215Y-33832214D01*
X71156201Y-33891831D01*
X71175373Y-33947961D01*
X71197833Y-33998538D01*
X71279586Y-34143486D01*
X71382402Y-34268145D01*
X71515384Y-34382932D01*
X71565305Y-34418938D01*
X71634382Y-34468633D01*
X71687757Y-34510213D01*
X71717534Y-34537377D01*
X71721133Y-34543302D01*
X71707890Y-34565364D01*
X71672602Y-34610230D01*
X71621926Y-34669591D01*
X71601633Y-34692425D01*
X71485355Y-34840532D01*
X71406143Y-34987729D01*
X71359966Y-35143258D01*
X71343939Y-35283188D01*
X71348625Y-35460791D01*
X71383005Y-35618038D01*
X71450274Y-35762296D01*
X71553628Y-35900936D01*
X71657634Y-36006483D01*
X71802086Y-36140223D01*
X71708305Y-36285980D01*
X71627481Y-36429115D01*
X71577513Y-36564785D01*
X71553692Y-36708488D01*
X71549990Y-36807210D01*
X71570227Y-36995796D01*
X71629072Y-37171834D01*
X71723523Y-37330583D01*
X71850582Y-37467302D01*
X72007248Y-37577248D01*
X72052024Y-37600650D01*
X72148288Y-37637146D01*
X72282269Y-37671593D01*
X72435588Y-37700558D01*
X72537160Y-37717502D01*
X72622520Y-37732285D01*
X72683574Y-37743465D01*
X72712229Y-37749600D01*
X72713270Y-37750019D01*
X72702641Y-37766559D01*
X72668077Y-37808526D01*
X72614415Y-37870291D01*
X72546488Y-37946225D01*
X72515394Y-37980412D01*
X72403042Y-38109074D01*
X72319093Y-38220206D01*
X72258633Y-38322395D01*
X72216746Y-38424227D01*
X72188518Y-38534289D01*
X72183789Y-38559679D01*
X72174888Y-38724377D01*
X72201727Y-38895049D01*
X72260986Y-39061340D01*
X72349348Y-39212896D01*
X72420451Y-39298220D01*
X72477039Y-39349579D01*
X72557094Y-39412806D01*
X72647758Y-39478027D01*
X72699394Y-39512400D01*
X72890523Y-39635377D01*
X72686556Y-39767508D01*
X72594038Y-39831186D01*
X72505752Y-39898488D01*
X72433535Y-39960057D01*
X72398470Y-39995203D01*
X72301634Y-40130702D01*
X72229081Y-40284846D01*
X72184596Y-40446223D01*
X72171964Y-40603418D01*
X72176820Y-40663632D01*
X72211347Y-40830615D01*
X72269697Y-40977366D01*
X72356598Y-41111629D01*
X72476776Y-41241146D01*
X72587836Y-41336826D01*
X72663214Y-41398158D01*
X72724625Y-41449983D01*
X72765511Y-41486639D01*
X72779371Y-41502224D01*
X72761599Y-41515879D01*
X72713299Y-41544179D01*
X72641875Y-41582973D01*
X72555944Y-41627493D01*
X72390064Y-41721334D01*
X72259683Y-41818349D01*
X72158073Y-41924694D01*
X72078503Y-42046522D01*
X72061440Y-42079764D01*
X71993375Y-42253466D01*
X71964186Y-42420534D01*
X71972697Y-42588041D01*
X71974836Y-42600894D01*
X72009576Y-42745707D01*
X72063026Y-42872058D01*
X72141457Y-42991178D01*
X72251143Y-43114300D01*
X72274682Y-43137746D01*
X72341669Y-43204431D01*
X72395728Y-43260018D01*
X72430694Y-43298050D01*
X72440800Y-43311703D01*
X72426684Y-43330093D01*
X72388417Y-43371604D01*
X72332117Y-43429764D01*
X72274804Y-43487307D01*
X72159118Y-43613166D01*
X72075623Y-43732608D01*
X72018054Y-43856924D01*
X71980150Y-43997405D01*
X71974248Y-44029179D01*
X71961787Y-44120765D01*
X71961940Y-44198109D01*
X71975393Y-44284475D01*
X71982779Y-44318527D01*
X72017268Y-44444798D01*
X72062265Y-44551864D01*
X72125583Y-44655057D01*
X72208973Y-44762450D01*
X72316487Y-44891641D01*
X72216663Y-45002079D01*
X72101771Y-45156309D01*
X72020111Y-45324964D01*
X71973968Y-45500936D01*
X71965625Y-45677122D01*
X71974836Y-45754728D01*
X72024375Y-45939075D01*
X72105850Y-46100263D01*
X72221343Y-46240821D01*
X72372937Y-46363282D01*
X72562716Y-46470177D01*
X72564179Y-46470873D01*
X72649880Y-46512858D01*
X72719376Y-46549189D01*
X72764951Y-46575678D01*
X72779140Y-46587532D01*
X72763938Y-46606366D01*
X72722863Y-46644940D01*
X72663163Y-46696630D01*
X72625433Y-46727913D01*
X72491730Y-46843400D01*
X72390054Y-46946414D01*
X72314622Y-47043523D01*
X72259652Y-47141294D01*
X72257704Y-47145514D01*
X72194456Y-47330070D01*
X72173312Y-47514246D01*
X72194054Y-47696687D01*
X72256464Y-47876036D01*
X72360322Y-48050938D01*
X72414637Y-48120810D01*
X72522574Y-48250436D01*
X72417300Y-48374810D01*
X72295088Y-48546170D01*
X72214989Y-48721497D01*
X72177004Y-48900449D01*
X72181131Y-49082684D01*
X72227371Y-49267859D01*
X72315723Y-49455632D01*
X72417834Y-49608964D01*
X72461317Y-49668480D01*
X72492369Y-49714242D01*
X72504299Y-49736390D01*
X72504300Y-49736428D01*
X72486444Y-49750231D01*
X72438410Y-49777188D01*
X72368500Y-49812805D01*
X72319092Y-49836661D01*
X72136211Y-49942169D01*
X71989689Y-50068765D01*
X71878471Y-50217727D01*
X71801505Y-50390332D01*
X71772672Y-50499226D01*
X71753150Y-50667794D01*
X71768141Y-50829557D01*
X71819196Y-50990336D01*
X71907863Y-51155955D01*
X71972621Y-51250397D01*
X72021529Y-51318781D01*
X72058957Y-51374356D01*
X72079073Y-51408328D01*
X72080967Y-51413836D01*
X72063114Y-51429100D01*
X72015114Y-51457306D01*
X71945304Y-51493762D01*
X71897257Y-51517243D01*
X71713445Y-51624196D01*
X71566383Y-51751983D01*
X71456183Y-51900448D01*
X71382955Y-52069434D01*
X71346811Y-52258784D01*
X71343939Y-52301188D01*
X71345657Y-52454574D01*
X71368592Y-52591764D01*
X71415981Y-52718523D01*
X71491059Y-52840614D01*
X71597061Y-52963803D01*
X71737222Y-53093852D01*
X71833312Y-53172999D01*
X71956075Y-53270823D01*
X71748646Y-53375163D01*
X71607635Y-53450179D01*
X71497892Y-53519164D01*
X71410354Y-53588961D01*
X71335961Y-53666414D01*
X71295135Y-53717717D01*
X71205544Y-53870735D01*
X71149479Y-54041504D01*
X71127785Y-54221097D01*
X71141308Y-54400586D01*
X71190895Y-54571045D01*
X71210221Y-54613643D01*
X71298743Y-54760665D01*
X71410295Y-54883900D01*
X71551841Y-54990016D01*
X71675705Y-55059295D01*
X71756326Y-55100923D01*
X71820509Y-55136226D01*
X71860271Y-55160683D01*
X71869300Y-55168964D01*
X71857862Y-55190537D01*
X71827119Y-55238357D01*
X71782421Y-55304259D01*
X71752046Y-55347787D01*
X71665113Y-55481066D01*
X71606186Y-55598971D01*
X71571314Y-55713899D01*
X71556550Y-55838244D01*
X71556854Y-55960433D01*
X71563479Y-56068612D01*
X71575225Y-56149497D01*
X71595167Y-56218081D01*
X71622820Y-56282002D01*
X71720168Y-56438936D01*
X71853131Y-56582811D01*
X72006222Y-56700836D01*
X72071498Y-56745149D01*
X72120160Y-56781585D01*
X72143565Y-56803575D01*
X72144467Y-56805871D01*
X72131415Y-56827568D01*
X72096608Y-56872500D01*
X72046568Y-56932400D01*
X72025374Y-56956843D01*
X71900941Y-57126104D01*
X71815073Y-57302737D01*
X71767487Y-57482731D01*
X71757897Y-57662074D01*
X71786017Y-57836755D01*
X71851563Y-58002760D01*
X71954249Y-58156079D01*
X72093789Y-58292699D01*
X72121909Y-58314541D01*
X72183143Y-58360614D01*
X72231145Y-58396959D01*
X72255675Y-58415819D01*
X72255827Y-58415941D01*
X72258169Y-58441304D01*
X72247649Y-58493595D01*
X72231918Y-58545255D01*
X72183937Y-58742356D01*
X72177349Y-58932183D01*
X72211578Y-59113030D01*
X72286052Y-59283190D01*
X72400197Y-59440954D01*
X72553439Y-59584616D01*
X72590759Y-59612999D01*
X72691989Y-59687309D01*
X72647692Y-59808246D01*
X72620792Y-59901747D01*
X72606635Y-60007033D01*
X72602903Y-60119683D01*
X72611971Y-60276788D01*
X72643358Y-60411667D01*
X72701996Y-60538943D01*
X72786965Y-60665509D01*
X72879180Y-60788002D01*
X72839907Y-60929634D01*
X72806630Y-61122446D01*
X72815150Y-61309108D01*
X72865267Y-61488801D01*
X72956782Y-61660706D01*
X73046370Y-61777114D01*
X73093615Y-61833625D01*
X73127074Y-61878424D01*
X73139300Y-61901249D01*
X73126715Y-61925345D01*
X73093606Y-61971884D01*
X73046940Y-62031118D01*
X73043405Y-62035417D01*
X72924024Y-62208839D01*
X72845579Y-62387741D01*
X72807880Y-62568974D01*
X72810736Y-62749391D01*
X72853955Y-62925847D01*
X72937348Y-63095194D01*
X73060723Y-63254285D01*
X73120926Y-63314068D01*
X73270596Y-63452639D01*
X73187562Y-63585328D01*
X73091477Y-63764013D01*
X73034016Y-63933876D01*
X73014044Y-64100645D01*
X73030430Y-64270045D01*
X73042020Y-64321267D01*
X73061716Y-64390310D01*
X73085970Y-64453758D01*
X73119926Y-64522187D01*
X73168726Y-64606176D01*
X73222999Y-64693397D01*
X73234826Y-64719767D01*
X73233094Y-64749793D01*
X73214759Y-64793314D01*
X73176775Y-64860170D01*
X73165646Y-64878711D01*
X73073953Y-65065581D01*
X73024535Y-65251497D01*
X73017336Y-65435738D01*
X73052299Y-65617585D01*
X73129367Y-65796316D01*
X73248482Y-65971212D01*
X73252491Y-65976131D01*
X73300338Y-66036338D01*
X73335353Y-66083766D01*
X73350758Y-66109174D01*
X73350967Y-66110338D01*
X73338195Y-66132284D01*
X73304699Y-66176492D01*
X73257704Y-66233430D01*
X73257265Y-66233943D01*
X73139323Y-66400576D01*
X73060227Y-66576789D01*
X73020566Y-66758725D01*
X73020930Y-66942530D01*
X73061908Y-67124349D01*
X73105249Y-67228875D01*
X73165368Y-67334585D01*
X73238764Y-67427749D01*
X73333338Y-67516495D01*
X73456990Y-67608955D01*
X73508007Y-67643306D01*
X73588174Y-67697265D01*
X73653381Y-67743244D01*
X73696572Y-67776125D01*
X73710800Y-67790423D01*
X73694035Y-67806633D01*
X73648860Y-67839558D01*
X73582955Y-67883786D01*
X73532220Y-67916294D01*
X73441623Y-67977833D01*
X73352781Y-68045747D01*
X73280269Y-68108640D01*
X73259018Y-68129927D01*
X73143484Y-68281532D01*
X73063607Y-68448315D01*
X73020918Y-68624312D01*
X73016947Y-68803563D01*
X73046385Y-68958216D01*
X73104197Y-69113574D01*
X73181571Y-69246444D01*
X73285150Y-69365453D01*
X73421579Y-69479227D01*
X73478876Y-69519789D01*
X73624601Y-69619359D01*
X73556576Y-69701097D01*
X73449304Y-69834068D01*
X73368510Y-69945558D01*
X73310272Y-70043548D01*
X73270671Y-70136023D01*
X73245786Y-70230964D01*
X73231698Y-70336354D01*
X73229233Y-70367679D01*
X73236355Y-70555162D01*
X73283610Y-70731851D01*
X73369600Y-70895144D01*
X73492924Y-71042434D01*
X73652182Y-71171118D01*
X73665951Y-71180217D01*
X73835581Y-71290703D01*
X73775570Y-71409610D01*
X73693183Y-71610329D01*
X73652397Y-71803730D01*
X73653176Y-71990134D01*
X73690419Y-72155267D01*
X73743904Y-72288053D01*
X73810791Y-72398279D01*
X73901950Y-72502632D01*
X73941437Y-72540705D01*
X74093661Y-72655059D01*
X74262296Y-72731783D01*
X74442547Y-72769887D01*
X74629618Y-72768381D01*
X74818712Y-72726273D01*
X74826627Y-72723601D01*
X74902896Y-72690758D01*
X74991696Y-72642812D01*
X75064285Y-72596547D01*
X75135020Y-72549423D01*
X75184778Y-72524529D01*
X75225399Y-72517353D01*
X75260791Y-72521647D01*
X75315751Y-72531122D01*
X75396444Y-72542789D01*
X75486514Y-72554302D01*
X75497067Y-72555549D01*
X75581210Y-72568724D01*
X75651405Y-72585760D01*
X75694711Y-72603391D01*
X75698725Y-72606440D01*
X75757959Y-72646325D01*
X75844443Y-72688258D01*
X75943816Y-72726495D01*
X76041719Y-72755289D01*
X76098192Y-72766280D01*
X76281046Y-72771221D01*
X76459980Y-72737600D01*
X76628528Y-72668913D01*
X76780226Y-72568655D01*
X76908607Y-72440322D01*
X77007208Y-72287410D01*
X77015444Y-72270340D01*
X77056600Y-72164197D01*
X77087729Y-72048466D01*
X77106074Y-71937098D01*
X77108879Y-71844041D01*
X77105219Y-71815985D01*
X77107786Y-71768655D01*
X77130838Y-71695774D01*
X77175806Y-71593065D01*
X77189421Y-71564728D01*
X77230087Y-71480496D01*
X77263736Y-71409524D01*
X77286028Y-71361045D01*
X77292482Y-71345636D01*
X77314436Y-71341690D01*
X77366602Y-71358610D01*
X77432227Y-71388961D01*
X77626788Y-71469570D01*
X77812507Y-71509628D01*
X77992253Y-71509267D01*
X78168894Y-71468615D01*
X78269907Y-71427173D01*
X78432176Y-71328523D01*
X78567216Y-71202428D01*
X78672369Y-71054352D01*
X78744977Y-70889760D01*
X78782382Y-70714118D01*
X78781926Y-70532889D01*
X78760869Y-70417788D01*
X78704478Y-70253657D01*
X78622722Y-70111374D01*
X78510267Y-69983802D01*
X78361780Y-69863804D01*
X78330889Y-69842509D01*
X78175293Y-69737514D01*
X78303746Y-69588637D01*
X78426797Y-69427883D01*
X78511650Y-69272709D01*
X78560706Y-69116706D01*
X78576369Y-68953467D01*
X78572759Y-68870995D01*
X78551480Y-68738636D01*
X78507930Y-68610552D01*
X78437867Y-68476691D01*
X78351827Y-68347407D01*
X78303023Y-68278042D01*
X78266214Y-68223140D01*
X78246556Y-68190524D01*
X78244822Y-68184970D01*
X78265352Y-68174445D01*
X78315487Y-68149899D01*
X78386620Y-68115527D01*
X78435477Y-68092084D01*
X78613388Y-67986605D01*
X78758856Y-67858558D01*
X78870921Y-67712241D01*
X78948624Y-67551950D01*
X78991005Y-67381981D01*
X78997104Y-67206631D01*
X78965962Y-67030196D01*
X78896619Y-66856973D01*
X78788116Y-66691257D01*
X78756730Y-66653752D01*
X78709532Y-66597274D01*
X78676173Y-66552535D01*
X78664068Y-66529768D01*
X78676656Y-66506244D01*
X78710006Y-66458789D01*
X78757891Y-66396088D01*
X78778628Y-66370038D01*
X78892456Y-66198827D01*
X78965353Y-66021364D01*
X78997597Y-65841086D01*
X78989468Y-65661425D01*
X78941244Y-65485818D01*
X78853203Y-65317700D01*
X78725626Y-65160504D01*
X78676588Y-65113153D01*
X78529703Y-64979094D01*
X78607779Y-64861504D01*
X78684786Y-64735493D01*
X78735531Y-64623844D01*
X78764613Y-64511940D01*
X78776630Y-64385161D01*
X78777695Y-64321267D01*
X78769214Y-64165073D01*
X78740663Y-64032875D01*
X78687381Y-63909236D01*
X78620826Y-63801752D01*
X78585331Y-63746953D01*
X78562793Y-63705975D01*
X78558508Y-63693036D01*
X78569407Y-63667413D01*
X78597318Y-63617642D01*
X78632574Y-63560276D01*
X78669748Y-63491679D01*
X78712796Y-63396405D01*
X78755722Y-63288414D01*
X78784675Y-63206120D01*
X78863253Y-62967371D01*
X79077514Y-63178215D01*
X79200405Y-63293375D01*
X79307778Y-63379370D01*
X79408648Y-63441536D01*
X79512024Y-63485210D01*
X79626920Y-63515729D01*
X79657651Y-63521771D01*
X79820231Y-63532245D01*
X79991394Y-63504082D01*
X80174144Y-63436770D01*
X80183651Y-63432363D01*
X80234229Y-63406537D01*
X80283471Y-63375639D01*
X80336642Y-63335124D01*
X80399006Y-63280453D01*
X80475830Y-63207082D01*
X80572378Y-63110469D01*
X80656945Y-63024088D01*
X80752272Y-62927639D01*
X80837052Y-62844583D01*
X80907193Y-62778704D01*
X80958602Y-62733788D01*
X80987185Y-62713620D01*
X80991697Y-62714533D01*
X80986932Y-62745086D01*
X80973427Y-62809527D01*
X80952798Y-62900695D01*
X80926665Y-63011432D01*
X80898160Y-63128445D01*
X80866863Y-63257781D01*
X80838333Y-63380717D01*
X80814570Y-63488245D01*
X80797573Y-63571357D01*
X80789972Y-63615834D01*
X80789600Y-63762445D01*
X80824066Y-63929548D01*
X80878811Y-64081961D01*
X80933981Y-64213073D01*
X80835175Y-64325378D01*
X80715146Y-64488409D01*
X80631813Y-64660957D01*
X80586709Y-64838312D01*
X80581367Y-65015763D01*
X80589669Y-65079894D01*
X80632289Y-65244205D01*
X80702190Y-65392801D01*
X80803427Y-65531682D01*
X80940053Y-65666845D01*
X81042483Y-65750017D01*
X81106467Y-65800583D01*
X81155022Y-65842209D01*
X81180105Y-65867881D01*
X81181859Y-65871532D01*
X81164402Y-65886674D01*
X81116413Y-65915937D01*
X81045447Y-65954964D01*
X80967832Y-65995006D01*
X80786362Y-66098486D01*
X80643170Y-66208620D01*
X80534315Y-66328937D01*
X80463516Y-66446623D01*
X80395087Y-66632692D01*
X80368552Y-66819458D01*
X80383915Y-67004860D01*
X80441179Y-67186839D01*
X80462070Y-67231613D01*
X80564197Y-67394870D01*
X80693372Y-67526851D01*
X80852120Y-67629744D01*
X80988233Y-67687781D01*
X81150883Y-67745149D01*
X81156908Y-67971628D01*
X81162933Y-68198108D01*
X81047759Y-68322509D01*
X80922223Y-68485559D01*
X80837574Y-68657851D01*
X80794021Y-68836893D01*
X80791777Y-69020193D01*
X80831053Y-69205262D01*
X80912059Y-69389607D01*
X80951700Y-69455659D01*
X81001351Y-69536334D01*
X81027336Y-69589375D01*
X81031699Y-69620781D01*
X81016478Y-69636552D01*
X81013586Y-69637628D01*
X80989737Y-69654878D01*
X80944436Y-69694663D01*
X80886083Y-69749500D01*
X80864931Y-69770077D01*
X80734293Y-69925908D01*
X80641151Y-70099234D01*
X80587267Y-70286295D01*
X80577989Y-70456791D01*
X80606538Y-70628008D01*
X80669105Y-70793027D01*
X80761880Y-70944932D01*
X80881052Y-71076805D01*
X81022810Y-71181729D01*
X81103202Y-71222911D01*
X81169922Y-71254721D01*
X81209652Y-71284881D01*
X81234927Y-71326911D01*
X81256310Y-71388075D01*
X81336418Y-71586973D01*
X81448229Y-71785997D01*
X81583440Y-71972885D01*
X81733745Y-72135376D01*
X81804728Y-72197788D01*
X81914344Y-72276317D01*
X82048092Y-72355695D01*
X82191624Y-72428581D01*
X82330591Y-72487635D01*
X82440503Y-72523042D01*
X82688368Y-72564389D01*
X82942568Y-72566772D01*
X83195800Y-72531302D01*
X83440757Y-72459091D01*
X83670135Y-72351250D01*
X83705137Y-72330620D01*
X83841903Y-72233930D01*
X83982175Y-72110986D01*
X84112768Y-71974441D01*
X84220497Y-71836945D01*
X84222166Y-71834509D01*
X84322344Y-71687893D01*
X84408780Y-71703455D01*
X84608309Y-71720813D01*
X84799831Y-71701189D01*
X84977504Y-71645912D01*
X85135486Y-71556312D01*
X85169241Y-71530324D01*
X85310122Y-71390327D01*
X85414084Y-71232028D01*
X85480016Y-71059432D01*
X85506806Y-70876540D01*
X85493344Y-70687356D01*
X85448878Y-70523100D01*
X85411524Y-70421209D01*
X85389203Y-70351305D01*
X85384431Y-70304932D01*
X85399729Y-70273636D01*
X85437613Y-70248961D01*
X85500603Y-70222452D01*
X85543512Y-70205380D01*
X85675683Y-70143069D01*
X85785371Y-70068886D01*
X85840238Y-70021417D01*
X85970700Y-69880053D01*
X86061336Y-69731930D01*
X86114648Y-69571022D01*
X86133138Y-69391306D01*
X86131689Y-69319554D01*
X86110069Y-69147473D01*
X86060874Y-68995491D01*
X85980761Y-68858392D01*
X85866385Y-68730964D01*
X85714402Y-68607994D01*
X85644892Y-68560562D01*
X85563736Y-68506883D01*
X85497425Y-68462061D01*
X85452911Y-68430862D01*
X85437133Y-68418114D01*
X85453728Y-68404758D01*
X85498762Y-68373316D01*
X85565111Y-68328664D01*
X85635705Y-68282166D01*
X85771874Y-68187226D01*
X85876399Y-68098711D01*
X85957280Y-68008204D01*
X86022518Y-67907285D01*
X86057355Y-67838505D01*
X86096371Y-67743482D01*
X86119031Y-67653009D01*
X86130506Y-67545385D01*
X86131550Y-67527043D01*
X86126340Y-67345744D01*
X86088861Y-67181555D01*
X86016534Y-67028702D01*
X85906779Y-66881409D01*
X85790929Y-66764278D01*
X85650823Y-66635897D01*
X85816715Y-66476240D01*
X85941021Y-66344279D01*
X86030290Y-66218211D01*
X86089061Y-66088905D01*
X86121874Y-65947229D01*
X86131483Y-65843186D01*
X86122752Y-65643788D01*
X86075876Y-65462751D01*
X85990849Y-65300060D01*
X85867664Y-65155701D01*
X85761243Y-65067377D01*
X85667863Y-65000097D01*
X85604380Y-64952851D01*
X85567982Y-64918799D01*
X85555857Y-64891102D01*
X85565193Y-64862920D01*
X85593178Y-64827413D01*
X85637000Y-64777742D01*
X85640484Y-64773679D01*
X85748373Y-64639582D01*
X85826475Y-64521414D01*
X85878804Y-64409622D01*
X85909378Y-64294652D01*
X85922213Y-64166951D01*
X85923264Y-64100995D01*
X85919850Y-64003737D01*
X85908067Y-63920891D01*
X85884244Y-63834141D01*
X85851507Y-63742918D01*
X85818963Y-63655019D01*
X85801196Y-63598590D01*
X85796809Y-63565977D01*
X85804404Y-63549529D01*
X85815168Y-63543858D01*
X85900346Y-63509652D01*
X86003526Y-63462471D01*
X86107887Y-63410497D01*
X86196605Y-63361911D01*
X86225324Y-63344376D01*
X86326843Y-63279231D01*
X86479946Y-63435892D01*
X86639418Y-63574861D01*
X86805664Y-63672644D01*
X86977996Y-63728986D01*
X87155724Y-63743631D01*
X87274391Y-63730565D01*
X87467428Y-63676320D01*
X87634431Y-63589264D01*
X87775882Y-63468922D01*
X87892262Y-63314820D01*
X87984056Y-63126483D01*
X88030122Y-62987767D01*
X88051938Y-62915422D01*
X88071374Y-62859516D01*
X88083880Y-62832739D01*
X88107129Y-62835457D01*
X88156369Y-62857692D01*
X88222606Y-62895128D01*
X88251449Y-62913138D01*
X88376988Y-62989760D01*
X88481986Y-63043074D01*
X88578307Y-63077016D01*
X88677815Y-63095518D01*
X88792374Y-63102516D01*
X88823800Y-63102922D01*
X88923048Y-63102234D01*
X88994993Y-63096758D01*
X89054622Y-63083596D01*
X89116923Y-63059847D01*
X89168173Y-63036310D01*
X89263077Y-62985631D01*
X89365297Y-62922332D01*
X89439342Y-62870035D01*
X89500885Y-62824221D01*
X89548175Y-62791917D01*
X89572632Y-62778910D01*
X89574051Y-62779158D01*
X89585889Y-62800162D01*
X89612025Y-62850323D01*
X89647929Y-62920880D01*
X89669871Y-62964547D01*
X89782545Y-63151296D01*
X89915392Y-63300987D01*
X90069004Y-63414097D01*
X90243978Y-63491105D01*
X90363466Y-63520931D01*
X90537571Y-63532259D01*
X90714122Y-63503858D01*
X90887436Y-63437543D01*
X91051827Y-63335130D01*
X91119464Y-63279460D01*
X91236611Y-63175048D01*
X91400747Y-63239947D01*
X91490993Y-63273966D01*
X91578760Y-63304271D01*
X91647064Y-63325041D01*
X91654842Y-63327039D01*
X91700031Y-63339248D01*
X91727706Y-63354564D01*
X91740361Y-63381559D01*
X91740487Y-63428807D01*
X91730577Y-63504881D01*
X91722257Y-63558864D01*
X91714738Y-63740498D01*
X91746025Y-63919685D01*
X91812795Y-64089830D01*
X91911723Y-64244336D01*
X92039488Y-64376608D01*
X92184024Y-64475379D01*
X92257728Y-64508164D01*
X92354574Y-64541716D01*
X92455966Y-64569732D01*
X92475659Y-64574227D01*
X92558597Y-64593258D01*
X92624616Y-64610109D01*
X92663620Y-64622127D01*
X92669569Y-64625147D01*
X92668288Y-64648793D01*
X92655453Y-64702467D01*
X92633571Y-64776268D01*
X92623294Y-64807867D01*
X92573626Y-64991918D01*
X92555752Y-65158997D01*
X92570164Y-65320631D01*
X92617354Y-65488352D01*
X92656481Y-65585149D01*
X92705003Y-65695447D01*
X92594173Y-65812634D01*
X92476661Y-65964606D01*
X92396943Y-66127918D01*
X92353671Y-66297787D01*
X92345494Y-66469430D01*
X92371065Y-66638063D01*
X92429034Y-66798903D01*
X92518054Y-66947167D01*
X92636775Y-67078072D01*
X92783847Y-67186834D01*
X92957924Y-67268669D01*
X93009508Y-67285566D01*
X93099467Y-67312467D01*
X93099467Y-67819960D01*
X93006180Y-67919690D01*
X92895319Y-68067325D01*
X92815073Y-68236413D01*
X92769653Y-68416384D01*
X92760800Y-68535651D01*
X92773660Y-68652531D01*
X92808609Y-68784527D01*
X92860204Y-68914601D01*
X92912275Y-69009683D01*
X92942973Y-69059431D01*
X92962826Y-69101903D01*
X92974260Y-69148551D01*
X92979706Y-69210829D01*
X92981592Y-69300189D01*
X92981848Y-69337767D01*
X92983953Y-69446690D01*
X92990356Y-69527286D01*
X93003336Y-69593511D01*
X93025172Y-69659322D01*
X93040611Y-69697600D01*
X93074121Y-69793581D01*
X93103602Y-69905264D01*
X93120332Y-69993933D01*
X93176245Y-70249966D01*
X93268770Y-70492679D01*
X93394706Y-70717723D01*
X93550850Y-70920748D01*
X93734001Y-71097404D01*
X93940958Y-71243344D01*
X94100916Y-71326072D01*
X94238042Y-71382773D01*
X94360615Y-71422069D01*
X94482490Y-71446699D01*
X94617517Y-71459403D01*
X94779551Y-71462920D01*
X94792800Y-71462891D01*
X94914115Y-71461664D01*
X95005459Y-71457813D01*
X95079187Y-71449641D01*
X95147651Y-71435454D01*
X95223205Y-71413556D01*
X95274980Y-71396707D01*
X95523009Y-71294022D01*
X95745222Y-71158649D01*
X95910976Y-71021419D01*
X96052217Y-70888570D01*
X96223171Y-70878881D01*
X96410062Y-70848889D01*
X96578719Y-70784040D01*
X96726461Y-70688849D01*
X96850609Y-70567831D01*
X96948482Y-70425502D01*
X97017400Y-70266377D01*
X97054683Y-70094972D01*
X97057650Y-69915800D01*
X97023622Y-69733379D01*
X96977344Y-69608359D01*
X96917435Y-69475350D01*
X97032695Y-69339440D01*
X97096274Y-69257664D01*
X97156171Y-69169104D01*
X97200327Y-69091709D01*
X97203335Y-69085440D01*
X97228489Y-69027204D01*
X97244697Y-68973500D01*
X97253866Y-68912254D01*
X97257900Y-68831392D01*
X97258717Y-68734517D01*
X97257653Y-68626757D01*
X97253162Y-68549149D01*
X97243296Y-68489534D01*
X97226105Y-68435756D01*
X97201986Y-68380644D01*
X97158869Y-68296240D01*
X97109686Y-68210762D01*
X97081485Y-68166919D01*
X97017715Y-68074233D01*
X97163790Y-67943448D01*
X97253319Y-67856649D01*
X97319789Y-67773601D01*
X97376735Y-67676772D01*
X97390124Y-67650271D01*
X97426171Y-67575254D01*
X97449406Y-67516787D01*
X97462638Y-67461376D01*
X97468672Y-67395528D01*
X97470316Y-67305751D01*
X97470374Y-67264531D01*
X97469221Y-67158971D01*
X97464152Y-67081836D01*
X97452737Y-67019245D01*
X97432549Y-66957315D01*
X97405017Y-66891009D01*
X97339669Y-66740834D01*
X97421830Y-66647592D01*
X97546149Y-66485885D01*
X97631113Y-66325638D01*
X97679098Y-66161205D01*
X97692633Y-66004360D01*
X97675585Y-65840501D01*
X97627722Y-65677254D01*
X97553970Y-65526042D01*
X97459254Y-65398286D01*
X97411175Y-65351554D01*
X97366302Y-65312523D01*
X97310297Y-65263548D01*
X97295833Y-65250859D01*
X97225144Y-65188793D01*
X97291033Y-65093027D01*
X97338267Y-65017576D01*
X97387767Y-64928210D01*
X97413652Y-64876222D01*
X97440014Y-64815185D01*
X97456746Y-64759582D01*
X97465965Y-64696607D01*
X97469786Y-64613457D01*
X97470383Y-64532933D01*
X97469371Y-64429148D01*
X97464732Y-64354511D01*
X97454060Y-64295854D01*
X97434951Y-64240009D01*
X97404999Y-64173809D01*
X97404661Y-64173100D01*
X97354153Y-64081109D01*
X97290142Y-63982755D01*
X97238932Y-63914908D01*
X97138926Y-63794300D01*
X97244089Y-63667933D01*
X97368216Y-63489823D01*
X97452670Y-63300395D01*
X97482433Y-63192254D01*
X97498551Y-63123939D01*
X97513018Y-63088273D01*
X97532982Y-63076498D01*
X97565594Y-63079852D01*
X97572986Y-63081312D01*
X97708745Y-63101207D01*
X97847421Y-63109047D01*
X97972407Y-63104326D01*
X98033415Y-63095358D01*
X98109428Y-63071835D01*
X98211099Y-63028997D01*
X98328898Y-62971064D01*
X98397563Y-62934044D01*
X98489124Y-62883527D01*
X98566794Y-62841431D01*
X98623425Y-62811573D01*
X98651872Y-62797770D01*
X98653645Y-62797267D01*
X98656805Y-62817258D01*
X98659067Y-62872548D01*
X98660308Y-62956108D01*
X98660403Y-63060911D01*
X98659743Y-63141225D01*
X98655717Y-63485183D01*
X98723481Y-63628239D01*
X98825859Y-63799182D01*
X98956535Y-63939023D01*
X99116017Y-64048144D01*
X99304816Y-64126924D01*
X99437449Y-64160826D01*
X99516011Y-64177321D01*
X99576497Y-64191038D01*
X99608666Y-64199622D01*
X99611239Y-64200816D01*
X99607650Y-64222088D01*
X99593253Y-64274679D01*
X99570575Y-64349731D01*
X99552431Y-64406862D01*
X99521018Y-64509745D01*
X99502563Y-64590023D01*
X99494572Y-64664505D01*
X99494556Y-64750001D01*
X99496049Y-64787299D01*
X99522889Y-64974143D01*
X99586670Y-65143731D01*
X99689577Y-65301282D01*
X99731986Y-65350960D01*
X99830467Y-65459903D01*
X99830467Y-66008583D01*
X99704610Y-66086266D01*
X99561706Y-66193842D01*
X99446820Y-66325363D01*
X99356878Y-66480267D01*
X99326646Y-66546476D01*
X99307330Y-66602083D01*
X99296513Y-66660223D01*
X99291781Y-66734034D01*
X99290717Y-66836653D01*
X99290717Y-66840100D01*
X99291740Y-66944000D01*
X99296411Y-67018775D01*
X99307125Y-67077614D01*
X99326282Y-67133705D01*
X99356133Y-67199933D01*
X99403345Y-67284918D01*
X99466999Y-67381062D01*
X99534185Y-67469020D01*
X99541342Y-67477488D01*
X99595318Y-67542589D01*
X99636655Y-67596316D01*
X99658947Y-67630174D01*
X99661095Y-67636238D01*
X99644535Y-67656873D01*
X99601860Y-67690380D01*
X99560554Y-67717885D01*
X99459314Y-67790173D01*
X99357802Y-67877990D01*
X99267506Y-67970316D01*
X99199911Y-68056129D01*
X99187668Y-68075679D01*
X99113229Y-68243661D01*
X99075290Y-68425951D01*
X99074782Y-68613907D01*
X99110572Y-68792297D01*
X99177819Y-68951146D01*
X99277655Y-69093141D01*
X99413512Y-69222446D01*
X99538789Y-69312112D01*
X99599979Y-69354407D01*
X99643817Y-69390195D01*
X99660942Y-69411826D01*
X99660948Y-69412006D01*
X99647929Y-69436679D01*
X99613043Y-69484103D01*
X99562815Y-69545625D01*
X99541190Y-69570756D01*
X99473974Y-69655883D01*
X99408999Y-69751702D01*
X99359392Y-69838720D01*
X99355981Y-69845767D01*
X99326168Y-69912084D01*
X99307108Y-69968085D01*
X99296428Y-70026892D01*
X99291755Y-70101631D01*
X99290717Y-70205425D01*
X99290717Y-70206698D01*
X99291471Y-70308578D01*
X99295597Y-70381599D01*
X99305884Y-70439230D01*
X99325125Y-70494941D01*
X99356111Y-70562203D01*
X99370428Y-70591330D01*
X99473178Y-70755696D01*
X99605219Y-70890551D01*
X99768991Y-70998269D01*
X99809300Y-71018455D01*
X99871831Y-71046943D01*
X99924523Y-71065728D01*
X99979130Y-71076820D01*
X100047408Y-71082230D01*
X100141113Y-71083967D01*
X100193118Y-71084086D01*
X100439353Y-71084156D01*
X100552951Y-71162175D01*
X100774371Y-71294648D01*
X100997861Y-71387491D01*
X101230916Y-71443059D01*
X101481028Y-71463707D01*
X101513217Y-71463950D01*
X101689289Y-71458500D01*
X101839381Y-71439974D01*
X101978692Y-71405108D01*
X102122421Y-71350637D01*
X102195717Y-71317385D01*
X102349370Y-71237602D01*
X102483198Y-71150264D01*
X102615258Y-71043124D01*
X102661087Y-71001740D01*
X102783217Y-70889168D01*
X102956686Y-70877548D01*
X103148348Y-70844728D01*
X103322197Y-70774944D01*
X103474502Y-70671155D01*
X103601530Y-70536323D01*
X103699549Y-70373407D01*
X103746829Y-70250995D01*
X103782904Y-70079229D01*
X103782529Y-69908063D01*
X103745005Y-69731761D01*
X103669633Y-69544584D01*
X103657867Y-69520833D01*
X103627048Y-69457236D01*
X103606987Y-69410861D01*
X103602039Y-69392076D01*
X103622169Y-69379587D01*
X103668875Y-69351328D01*
X103732374Y-69313215D01*
X103737620Y-69310077D01*
X103898503Y-69192329D01*
X104027980Y-69052645D01*
X104124099Y-68895701D01*
X104184907Y-68726173D01*
X104208453Y-68548737D01*
X104192784Y-68368071D01*
X104169121Y-68276371D01*
X104140141Y-68193167D01*
X104108834Y-68115050D01*
X104087271Y-68069324D01*
X104048267Y-67996797D01*
X104124825Y-67836490D01*
X104159472Y-67761464D01*
X104181707Y-67702164D01*
X104194272Y-67644894D01*
X104199907Y-67575956D01*
X104201354Y-67481653D01*
X104201383Y-67453933D01*
X104202128Y-67352545D01*
X104205884Y-67281935D01*
X104214933Y-67230553D01*
X104231556Y-67186848D01*
X104258036Y-67139273D01*
X104266200Y-67125850D01*
X104358234Y-66945884D01*
X104409450Y-66770752D01*
X104419870Y-66596770D01*
X104389519Y-66420251D01*
X104318418Y-66237511D01*
X104272335Y-66150870D01*
X104168037Y-65968973D01*
X104316357Y-65831651D01*
X104453026Y-65680685D01*
X104551609Y-65517432D01*
X104610982Y-65344909D01*
X104630020Y-65166132D01*
X104616594Y-65026702D01*
X104576736Y-64872201D01*
X104514729Y-64736429D01*
X104424265Y-64608107D01*
X104319940Y-64496125D01*
X104163330Y-64342899D01*
X104241009Y-64225906D01*
X104342496Y-64042512D01*
X104401886Y-63861107D01*
X104419330Y-63680973D01*
X104394980Y-63501396D01*
X104394106Y-63497956D01*
X104349638Y-63360286D01*
X104288253Y-63239406D01*
X104202698Y-63123515D01*
X104092549Y-63007413D01*
X104027768Y-62944032D01*
X103976167Y-62892470D01*
X103944144Y-62859184D01*
X103936800Y-62850183D01*
X103950997Y-62833835D01*
X103989324Y-62794614D01*
X104045383Y-62738980D01*
X104092549Y-62692953D01*
X104237081Y-62530810D01*
X104339605Y-62364844D01*
X104400358Y-62193982D01*
X104419574Y-62017153D01*
X104397491Y-61833288D01*
X104334343Y-61641315D01*
X104327648Y-61625856D01*
X104292393Y-61545800D01*
X104263166Y-61479422D01*
X104244537Y-61437103D01*
X104241000Y-61429061D01*
X104252525Y-61407317D01*
X104292932Y-61373500D01*
X104353472Y-61334931D01*
X104353473Y-61334930D01*
X104513171Y-61221524D01*
X104645863Y-61080990D01*
X104747938Y-60919347D01*
X104815786Y-60742616D01*
X104845795Y-60556815D01*
X104846967Y-60512280D01*
X104851025Y-60468245D01*
X104866681Y-60425134D01*
X104899158Y-60373508D01*
X104953678Y-60303930D01*
X104979258Y-60273203D01*
X105051989Y-60193332D01*
X105125754Y-60123645D01*
X105189185Y-60074635D01*
X105203904Y-60065852D01*
X105343816Y-59969735D01*
X105466741Y-59845297D01*
X105566165Y-59701636D01*
X105635573Y-59547853D01*
X105665441Y-59421183D01*
X105683450Y-59347425D01*
X105721758Y-59254270D01*
X105782884Y-59135942D01*
X105812996Y-59082517D01*
X105871745Y-58982319D01*
X105916811Y-58912336D01*
X105954112Y-58865260D01*
X105989563Y-58833785D01*
X106029083Y-58810602D01*
X106035808Y-58807350D01*
X106098698Y-58770269D01*
X106173923Y-58715713D01*
X106237212Y-58662529D01*
X106357189Y-58525115D01*
X106445149Y-58364549D01*
X106499168Y-58187453D01*
X106517322Y-58000447D01*
X106497688Y-57810154D01*
X106492142Y-57785018D01*
X106460820Y-57651687D01*
X106608974Y-57577078D01*
X106786099Y-57468126D01*
X106927996Y-57336611D01*
X107036514Y-57180405D01*
X107113498Y-56997379D01*
X107114255Y-56994956D01*
X107148414Y-56832351D01*
X107147395Y-56670531D01*
X107110497Y-56501950D01*
X107055057Y-56357997D01*
X107000804Y-56236978D01*
X107100576Y-56126008D01*
X107221010Y-55964950D01*
X107305014Y-55792360D01*
X107350991Y-55613253D01*
X107357344Y-55432644D01*
X107346833Y-55352117D01*
X107317166Y-55231441D01*
X107272393Y-55121200D01*
X107208142Y-55015314D01*
X107120045Y-54907703D01*
X107003730Y-54792285D01*
X106854828Y-54662979D01*
X106846724Y-54656267D01*
X106741383Y-54569185D01*
X106961476Y-54458710D01*
X107151747Y-54349045D01*
X107303114Y-54229234D01*
X107418480Y-54095786D01*
X107500746Y-53945209D01*
X107552815Y-53774010D01*
X107559449Y-53739348D01*
X107569337Y-53563861D01*
X107539993Y-53385702D01*
X107473416Y-53211814D01*
X107371602Y-53049133D01*
X107354618Y-53027610D01*
X107307678Y-52980170D01*
X107235537Y-52919421D01*
X107149101Y-52854154D01*
X107081953Y-52807855D01*
X107001703Y-52753659D01*
X106936432Y-52707142D01*
X106893201Y-52673505D01*
X106878967Y-52658387D01*
X106895751Y-52641340D01*
X106941145Y-52607429D01*
X107007708Y-52561984D01*
X107068579Y-52522565D01*
X107159286Y-52460801D01*
X107246309Y-52394194D01*
X107316700Y-52332969D01*
X107343470Y-52305480D01*
X107454740Y-52149016D01*
X107528588Y-51978684D01*
X107564961Y-51800140D01*
X107563810Y-51619036D01*
X107525083Y-51441025D01*
X107448729Y-51271762D01*
X107354039Y-51138794D01*
X107238169Y-51026702D01*
X107097073Y-50934568D01*
X106950983Y-50867639D01*
X106879472Y-50839125D01*
X106825177Y-50816809D01*
X106798465Y-50804966D01*
X106797499Y-50804373D01*
X106801276Y-50783499D01*
X106817635Y-50732538D01*
X106843504Y-50660736D01*
X106857208Y-50624661D01*
X106917418Y-50419888D01*
X106936931Y-50224506D01*
X106915965Y-50039667D01*
X106854739Y-49866519D01*
X106753472Y-49706214D01*
X106663721Y-49606947D01*
X106544271Y-49509799D01*
X106405726Y-49435317D01*
X106239219Y-49379165D01*
X106159000Y-49360043D01*
X106078414Y-49340586D01*
X106016541Y-49321609D01*
X105982851Y-49306196D01*
X105979383Y-49301575D01*
X105985362Y-49273305D01*
X106001252Y-49215705D01*
X106023981Y-49139741D01*
X106031353Y-49116034D01*
X106059896Y-49030699D01*
X106085633Y-48974159D01*
X106116389Y-48934231D01*
X106159982Y-48898730D01*
X106179520Y-48885232D01*
X106238011Y-48843703D01*
X106317086Y-48784948D01*
X106404340Y-48718269D01*
X106455633Y-48678189D01*
X106537227Y-48614946D01*
X106613670Y-48557692D01*
X106674574Y-48514106D01*
X106701761Y-48496225D01*
X106758914Y-48455649D01*
X106840804Y-48388948D01*
X106942663Y-48300356D01*
X107059726Y-48194110D01*
X107187227Y-48074444D01*
X107310549Y-47955259D01*
X107519991Y-47750002D01*
X107659854Y-47834435D01*
X107803111Y-47910646D01*
X107936303Y-47956778D01*
X108074552Y-47976777D01*
X108203938Y-47976357D01*
X108391833Y-47946213D01*
X108564535Y-47877938D01*
X108718177Y-47774193D01*
X108848897Y-47637637D01*
X108952827Y-47470930D01*
X108959968Y-47456160D01*
X108990768Y-47387859D01*
X109010446Y-47331056D01*
X109021465Y-47272427D01*
X109026289Y-47198652D01*
X109027382Y-47096408D01*
X109027383Y-47091600D01*
X109026388Y-46987976D01*
X109021792Y-46913531D01*
X109011181Y-46855129D01*
X108992138Y-46799631D01*
X108962247Y-46733901D01*
X108961222Y-46731767D01*
X108856338Y-46557659D01*
X108726345Y-46416842D01*
X108573740Y-46310780D01*
X108401024Y-46240938D01*
X108210694Y-46208779D01*
X108069564Y-46209384D01*
X107890110Y-46222048D01*
X107749663Y-46077568D01*
X107641221Y-45975202D01*
X107539290Y-45901776D01*
X107430202Y-45849016D01*
X107309082Y-45810916D01*
X107142848Y-45782646D01*
X106985491Y-45789549D01*
X106860444Y-45819144D01*
X106676021Y-45895977D01*
X106519952Y-46003477D01*
X106390719Y-46143052D01*
X106286804Y-46316108D01*
X106259713Y-46376254D01*
X106219028Y-46465056D01*
X106184844Y-46523769D01*
X106159996Y-46547670D01*
X106156725Y-46547910D01*
X106124934Y-46539410D01*
X106063828Y-46519872D01*
X105983881Y-46492712D01*
X105937558Y-46476433D01*
X105841826Y-46443946D01*
X105769057Y-46424876D01*
X105702996Y-46416692D01*
X105627391Y-46416867D01*
X105573289Y-46419769D01*
X105382833Y-46451520D01*
X105210269Y-46520316D01*
X105058506Y-46623605D01*
X104930454Y-46758838D01*
X104829023Y-46923465D01*
X104757122Y-47114936D01*
X104750254Y-47141037D01*
X104715402Y-47279783D01*
X104468976Y-47268036D01*
X104359777Y-47263585D01*
X104278930Y-47263549D01*
X104212542Y-47269599D01*
X104146719Y-47283406D01*
X104067570Y-47306639D01*
X104019277Y-47322111D01*
X103932502Y-47349796D01*
X103861295Y-47371739D01*
X103814899Y-47385135D01*
X103802319Y-47387933D01*
X103796546Y-47368270D01*
X103791977Y-47315285D01*
X103789199Y-47237987D01*
X103788633Y-47178496D01*
X103777227Y-46984605D01*
X103741399Y-46818120D01*
X103678740Y-46670282D01*
X103624718Y-46583229D01*
X103499145Y-46439109D01*
X103348217Y-46327895D01*
X103175417Y-46251498D01*
X102984224Y-46211829D01*
X102941967Y-46208338D01*
X102859918Y-46205506D01*
X102789372Y-46210016D01*
X102715444Y-46224193D01*
X102623251Y-46250362D01*
X102574922Y-46265676D01*
X102487838Y-46292749D01*
X102416929Y-46312913D01*
X102370991Y-46323778D01*
X102358293Y-46324482D01*
X102350458Y-46301265D01*
X102337010Y-46246943D01*
X102320482Y-46171957D01*
X102315558Y-46148249D01*
X102265845Y-45965947D01*
X102195397Y-45812940D01*
X102099133Y-45679192D01*
X102053161Y-45629744D01*
X101903870Y-45506943D01*
X101739510Y-45421454D01*
X101565331Y-45373455D01*
X101386581Y-45363118D01*
X101208511Y-45390620D01*
X101036370Y-45456135D01*
X100875406Y-45559838D01*
X100840253Y-45589342D01*
X100786568Y-45644747D01*
X100721576Y-45723843D01*
X100655446Y-45813840D01*
X100621671Y-45864287D01*
X100570395Y-45942021D01*
X100526772Y-46004399D01*
X100496122Y-46044042D01*
X100484628Y-46054433D01*
X100467786Y-46037848D01*
X100433009Y-45992739D01*
X100385437Y-45926071D01*
X100332371Y-45848058D01*
X100241891Y-45720324D01*
X100158675Y-45622960D01*
X100073682Y-45547273D01*
X99977868Y-45484566D01*
X99924986Y-45456326D01*
X99747253Y-45387704D01*
X99568433Y-45361085D01*
X99388110Y-45376520D01*
X99205873Y-45434064D01*
X99021309Y-45533769D01*
X98952020Y-45581596D01*
X98881478Y-45631409D01*
X98824369Y-45668537D01*
X98788639Y-45687982D01*
X98780915Y-45689270D01*
X98767853Y-45666958D01*
X98741241Y-45615570D01*
X98705752Y-45544241D01*
X98686752Y-45505220D01*
X98580600Y-45327387D01*
X98451742Y-45181494D01*
X98304136Y-45069043D01*
X98141742Y-44991536D01*
X97968520Y-44950475D01*
X97788427Y-44947360D01*
X97605424Y-44983695D01*
X97462363Y-45040802D01*
X97350806Y-45108567D01*
X97234490Y-45205899D01*
X97171586Y-45268086D01*
X97015971Y-45428831D01*
X96860970Y-45268719D01*
X96697830Y-45124833D01*
X96527662Y-45021954D01*
X96352119Y-44960292D01*
X96172856Y-44940060D01*
X95991527Y-44961468D01*
X95809787Y-45024728D01*
X95652313Y-45114184D01*
X95593150Y-45152418D01*
X95547973Y-45178661D01*
X95529040Y-45186600D01*
X95508483Y-45172453D01*
X95465438Y-45134262D01*
X95406861Y-45078395D01*
X95359424Y-45031259D01*
X95228472Y-44913070D01*
X95100217Y-44829025D01*
X94963733Y-44773189D01*
X94828161Y-44742677D01*
X94667867Y-44735061D01*
X94499880Y-44758388D01*
X94341968Y-44809781D01*
X94304577Y-44827475D01*
X94206504Y-44891060D01*
X94101437Y-44981855D01*
X94000689Y-45088901D01*
X93915572Y-45201237D01*
X93909974Y-45209817D01*
X93868202Y-45271586D01*
X93834246Y-45316215D01*
X93815127Y-45334521D01*
X93814642Y-45334581D01*
X93793034Y-45321436D01*
X93748537Y-45286245D01*
X93689395Y-45235645D01*
X93666475Y-45215267D01*
X93525031Y-45107069D01*
X93371708Y-45022812D01*
X93215127Y-44965743D01*
X93063908Y-44939106D01*
X92943782Y-44943156D01*
X92789956Y-44976368D01*
X92653095Y-45028709D01*
X92520250Y-45106298D01*
X92392134Y-45203840D01*
X92288052Y-45290180D01*
X92159301Y-45182179D01*
X91989028Y-45063515D01*
X91812318Y-44985363D01*
X91632771Y-44947107D01*
X91453991Y-44948133D01*
X91279579Y-44987828D01*
X91113139Y-45065575D01*
X90958272Y-45180762D01*
X90818581Y-45332774D01*
X90756141Y-45421484D01*
X90715033Y-45483142D01*
X90682665Y-45527725D01*
X90665690Y-45546105D01*
X90665300Y-45546175D01*
X90645710Y-45533279D01*
X90602011Y-45498612D01*
X90541877Y-45448366D01*
X90507447Y-45418819D01*
X90332127Y-45289687D01*
X90153815Y-45202408D01*
X89973908Y-45157003D01*
X89793804Y-45153493D01*
X89614900Y-45191899D01*
X89438596Y-45272244D01*
X89266287Y-45394548D01*
X89260304Y-45399625D01*
X89137708Y-45504240D01*
X89028379Y-45408038D01*
X88860873Y-45285432D01*
X88685682Y-45202941D01*
X88506719Y-45159968D01*
X88327900Y-45155915D01*
X88153142Y-45190187D01*
X87986360Y-45262186D01*
X87831469Y-45371314D01*
X87692385Y-45516974D01*
X87617139Y-45623257D01*
X87575414Y-45687758D01*
X87542680Y-45735450D01*
X87525025Y-45757526D01*
X87523919Y-45758100D01*
X87502416Y-45749651D01*
X87452270Y-45727171D01*
X87382995Y-45694957D01*
X87358601Y-45683418D01*
X87181714Y-45612781D01*
X87018830Y-45577059D01*
X86862185Y-45574861D01*
X86798967Y-45583154D01*
X86618853Y-45631402D01*
X86459062Y-45712354D01*
X86315551Y-45828788D01*
X86184279Y-45983486D01*
X86154064Y-46026738D01*
X86047710Y-46184347D01*
X85988170Y-46135265D01*
X85873878Y-46041984D01*
X85785092Y-45972139D01*
X85715449Y-45921299D01*
X85658588Y-45885033D01*
X85608149Y-45858908D01*
X85567119Y-45841946D01*
X85382862Y-45793494D01*
X85197520Y-45786705D01*
X85009654Y-45821687D01*
X84818537Y-45898191D01*
X84747934Y-45932637D01*
X84692073Y-45957938D01*
X84661566Y-45969324D01*
X84659787Y-45969537D01*
X84641878Y-45952425D01*
X84610281Y-45907645D01*
X84571636Y-45844659D01*
X84569300Y-45840616D01*
X84454153Y-45679297D01*
X84313778Y-45547630D01*
X84153245Y-45448512D01*
X83977623Y-45384837D01*
X83791979Y-45359504D01*
X83728407Y-45360096D01*
X83596597Y-45366179D01*
X83538827Y-45249931D01*
X83495839Y-45179076D01*
X83433512Y-45095164D01*
X83363656Y-45013807D01*
X83346794Y-44996100D01*
X83282918Y-44929384D01*
X83242317Y-44880236D01*
X83218382Y-44836239D01*
X83204506Y-44784974D01*
X83194080Y-44714025D01*
X83193256Y-44707586D01*
X83166218Y-44557765D01*
X83123352Y-44428079D01*
X83059804Y-44310934D01*
X82970716Y-44198732D01*
X82851232Y-44083877D01*
X82732121Y-43986243D01*
X82703621Y-43961284D01*
X82694192Y-43936706D01*
X82702235Y-43897733D01*
X82717719Y-43853100D01*
X82766218Y-43659489D01*
X82774036Y-43467030D01*
X82742111Y-43280407D01*
X82671377Y-43104304D01*
X82562771Y-42943404D01*
X82528093Y-42904261D01*
X82478938Y-42848682D01*
X82444144Y-42803560D01*
X82431467Y-42779330D01*
X82439513Y-42749620D01*
X82460390Y-42694568D01*
X82483535Y-42639966D01*
X82547091Y-42449357D01*
X82569239Y-42261835D01*
X82550899Y-42080175D01*
X82492995Y-41907155D01*
X82396448Y-41745552D01*
X82262182Y-41598141D01*
X82094855Y-41470099D01*
X82032039Y-41428091D01*
X81986157Y-41394483D01*
X81966209Y-41375913D01*
X81965985Y-41375076D01*
X81978851Y-41354759D01*
X82013458Y-41310525D01*
X82063557Y-41250216D01*
X82091117Y-41218041D01*
X82202117Y-41074963D01*
X82279982Y-40937822D01*
X82330369Y-40795613D01*
X82346674Y-40721127D01*
X82358527Y-40538949D01*
X82328988Y-40356554D01*
X82258846Y-40177305D01*
X82192674Y-40065289D01*
X82117742Y-39954021D01*
X82199264Y-39827890D01*
X82294064Y-39648465D01*
X82346713Y-39467740D01*
X82357389Y-39283916D01*
X82326271Y-39095194D01*
X82284446Y-38970862D01*
X82215375Y-38798208D01*
X82329183Y-38663945D01*
X82448292Y-38494980D01*
X82527416Y-38318276D01*
X82566314Y-38137106D01*
X82564740Y-37954744D01*
X82522452Y-37774463D01*
X82439205Y-37599536D01*
X82411606Y-37556493D01*
X82375049Y-37501820D01*
X82348110Y-37460389D01*
X82341324Y-37449348D01*
X82345240Y-37420959D01*
X82368863Y-37371523D01*
X82392937Y-37332931D01*
X82478498Y-37189575D01*
X82534466Y-37049677D01*
X82562261Y-36904288D01*
X82563305Y-36744458D01*
X82539018Y-36561237D01*
X82525926Y-36495251D01*
X82520784Y-36462321D01*
X82526655Y-36437868D01*
X82550457Y-36415009D01*
X82599107Y-36386860D01*
X82671265Y-36350617D01*
X82822448Y-36257453D01*
X82957138Y-36138678D01*
X83065869Y-36003718D01*
X83123420Y-35900378D01*
X83168856Y-35758844D01*
X83190534Y-35597330D01*
X83187443Y-35431556D01*
X83162539Y-35291299D01*
X83126144Y-35156846D01*
X83211233Y-35044098D01*
X83298828Y-34913544D01*
X83355923Y-34789148D01*
X83388326Y-34655295D01*
X83400090Y-34536183D01*
X83399345Y-34382477D01*
X83376095Y-34247257D01*
X83326399Y-34116260D01*
X83246313Y-33975223D01*
X83244031Y-33971668D01*
X83153502Y-33830966D01*
X83299922Y-33697332D01*
X83391940Y-33606064D01*
X83460643Y-33517968D01*
X83519568Y-33415378D01*
X83526279Y-33401955D01*
X83562190Y-33327192D01*
X83585335Y-33268844D01*
X83598513Y-33213431D01*
X83604522Y-33147474D01*
X83606158Y-33057493D01*
X83606217Y-33016864D01*
X83605205Y-32912725D01*
X83600589Y-32837781D01*
X83589992Y-32778913D01*
X83571041Y-32723001D01*
X83541360Y-32656926D01*
X83540889Y-32655933D01*
X83490759Y-32566758D01*
X83424965Y-32470944D01*
X83365227Y-32397831D01*
X83254893Y-32277312D01*
X83295361Y-32196747D01*
X83358188Y-32051462D01*
X83392684Y-31915159D01*
X83402811Y-31769447D01*
X83401025Y-31706388D01*
X83392721Y-31600083D01*
X83377177Y-31517227D01*
X83349967Y-31439030D01*
X83325157Y-31384358D01*
X83226113Y-31225761D01*
X83092335Y-31086536D01*
X82928950Y-30971798D01*
X82890994Y-30951104D01*
X82819634Y-30913828D01*
X82764526Y-30884715D01*
X82734963Y-30868686D01*
X82732475Y-30867172D01*
X82733198Y-30845766D01*
X82740177Y-30792499D01*
X82752058Y-30717155D01*
X82758090Y-30681826D01*
X82776044Y-30484850D01*
X82756831Y-30303797D01*
X82698988Y-30133342D01*
X82601047Y-29968157D01*
X82540349Y-29890349D01*
X82431075Y-29760016D01*
X82529072Y-29646933D01*
X82649847Y-29478464D01*
X82730306Y-29300778D01*
X82770447Y-29117568D01*
X82770272Y-28932528D01*
X82729781Y-28749350D01*
X82648972Y-28571729D01*
X82529072Y-28404767D01*
X82431075Y-28291684D01*
X82540399Y-28161350D01*
X82647609Y-28014653D01*
X82720175Y-27867916D01*
X82763958Y-27708789D01*
X82768941Y-27679739D01*
X82777641Y-27494771D01*
X82745607Y-27315367D01*
X82674383Y-27144895D01*
X82565511Y-26986722D01*
X82420536Y-26844215D01*
X82367032Y-26802664D01*
X82266660Y-26728984D01*
X82304579Y-26607150D01*
X82349905Y-26401861D01*
X82354475Y-26207948D01*
X82318245Y-26025179D01*
X82241169Y-25853320D01*
X82128456Y-25698095D01*
X82000348Y-25581539D01*
X81847674Y-25491496D01*
X81679983Y-25431430D01*
X81506823Y-25404804D01*
X81344842Y-25413828D01*
X81153642Y-25465536D01*
X80985517Y-25552020D01*
X80842547Y-25669514D01*
X80718810Y-25821202D01*
X80633476Y-25988784D01*
X80587604Y-26168801D01*
X80582251Y-26357796D01*
X80597954Y-26469296D01*
X80612494Y-26546893D01*
X80619639Y-26608999D01*
X80619162Y-26669397D01*
X80610836Y-26741868D01*
X80594434Y-26840194D01*
X80591577Y-26856267D01*
X80572913Y-26965754D01*
X80555568Y-27076015D01*
X80542104Y-27170376D01*
X80537339Y-27208949D01*
X80522741Y-27339382D01*
X80401587Y-27414163D01*
X80240322Y-27537790D01*
X80106788Y-27690493D01*
X80019418Y-27838523D01*
X79983685Y-27911514D01*
X79958266Y-27953402D01*
X79935590Y-27971453D01*
X79908085Y-27972932D01*
X79884035Y-27968451D01*
X79744529Y-27941698D01*
X79633758Y-27927498D01*
X79540309Y-27924970D01*
X79452769Y-27933235D01*
X79444152Y-27934581D01*
X79372365Y-27945112D01*
X79329279Y-27945730D01*
X79301871Y-27933687D01*
X79277120Y-27906233D01*
X79270850Y-27898002D01*
X79139996Y-27755975D01*
X78984550Y-27638677D01*
X78904453Y-27594160D01*
X78837986Y-27562648D01*
X78783807Y-27542136D01*
X78729431Y-27530273D01*
X78662369Y-27524707D01*
X78570134Y-27523087D01*
X78526662Y-27523017D01*
X78419874Y-27523965D01*
X78342078Y-27528367D01*
X78279946Y-27538554D01*
X78220153Y-27556860D01*
X78149369Y-27585617D01*
X78135994Y-27591405D01*
X78062722Y-27622461D01*
X78006412Y-27644849D01*
X77976495Y-27654871D01*
X77974068Y-27654905D01*
X77964473Y-27634352D01*
X77943585Y-27585018D01*
X77915854Y-27517418D01*
X77914787Y-27514784D01*
X77832327Y-27339121D01*
X77739143Y-27198565D01*
X77629048Y-27086134D01*
X77495855Y-26994846D01*
X77418768Y-26954999D01*
X77350814Y-26924382D01*
X77294132Y-26904824D01*
X77235422Y-26893878D01*
X77161384Y-26889092D01*
X77058721Y-26888017D01*
X77055133Y-26888017D01*
X76949728Y-26889193D01*
X76873686Y-26894181D01*
X76814069Y-26905168D01*
X76757938Y-26924339D01*
X76707362Y-26946799D01*
X76568539Y-27024300D01*
X76449412Y-27120478D01*
X76339203Y-27244767D01*
X76289554Y-27312516D01*
X76239028Y-27382037D01*
X76196110Y-27435888D01*
X76167246Y-27466210D01*
X76160285Y-27470100D01*
X76136676Y-27456770D01*
X76090780Y-27421310D01*
X76031222Y-27370518D01*
X76011308Y-27352698D01*
X75866636Y-27237237D01*
X75724861Y-27158176D01*
X75576678Y-27111375D01*
X75427984Y-27093314D01*
X75235480Y-27101256D01*
X75061742Y-27145309D01*
X74902853Y-27227186D01*
X74754894Y-27348598D01*
X74692345Y-27414873D01*
X74592216Y-27528442D01*
X74413814Y-27517312D01*
X74242694Y-27517072D01*
X74059495Y-27538703D01*
X74026036Y-27544599D01*
X73936746Y-27559568D01*
X73863714Y-27569157D01*
X73816416Y-27572274D01*
X73803869Y-27570224D01*
X73805031Y-27546242D01*
X73817850Y-27490776D01*
X73840116Y-27412344D01*
X73866602Y-27328558D01*
X73899088Y-27224157D01*
X73927279Y-27122646D01*
X73947576Y-27037602D01*
X73955323Y-26993850D01*
X73955936Y-26881790D01*
X73935871Y-26751267D01*
X73898721Y-26618504D01*
X73848077Y-26499725D01*
X73844444Y-26492950D01*
X73769454Y-26384806D01*
X73667001Y-26277507D01*
X73550347Y-26183459D01*
X73448343Y-26122420D01*
X73329800Y-26064281D01*
X73329800Y-25924971D01*
X73312373Y-25722679D01*
X73259200Y-25541722D01*
X73168945Y-25378774D01*
X73057283Y-25247137D01*
X72909918Y-25127518D01*
X72748659Y-25044763D01*
X72578758Y-24997979D01*
X72405465Y-24986272D01*
X72234029Y-25008750D01*
X72069701Y-25064518D01*
X71917732Y-25152683D01*
X71783370Y-25272352D01*
X71671867Y-25422631D01*
X71635867Y-25489026D01*
X71598023Y-25572530D01*
X71574913Y-25645551D01*
X71562082Y-25726421D01*
X71555758Y-25818495D01*
X71557555Y-25981532D01*
X71582719Y-26122729D01*
X71635208Y-26257868D01*
X71691269Y-26358850D01*
X71737386Y-26434319D01*
X71780600Y-26505167D01*
X71808658Y-26551290D01*
X71848360Y-26616730D01*
X71674147Y-26664473D01*
X71576930Y-26694162D01*
X71480545Y-26728619D01*
X71403793Y-26761052D01*
X71395346Y-26765216D01*
X71273871Y-26844999D01*
X71157199Y-26954636D01*
X71056633Y-27082151D01*
X70995299Y-27189137D01*
X70964287Y-27257840D01*
X70944470Y-27314787D01*
X70933366Y-27373326D01*
X70928498Y-27446806D01*
X70927385Y-27548575D01*
X70927383Y-27554767D01*
X70928341Y-27658062D01*
X70932910Y-27732487D01*
X70943630Y-27791491D01*
X70963043Y-27848523D01*
X70993690Y-27917032D01*
X70997258Y-27924583D01*
X71045915Y-28014429D01*
X71106180Y-28097850D01*
X71187546Y-28187213D01*
X71234150Y-28233216D01*
X71401167Y-28394282D01*
X71215276Y-28583066D01*
X71127554Y-28675070D01*
X71065222Y-28748618D01*
X71021530Y-28812801D01*
X70989728Y-28876714D01*
X70980863Y-28898850D01*
X70932579Y-29079603D01*
X70920678Y-29266613D01*
X70459190Y-29266613D01*
X70462263Y-29116854D01*
X70495843Y-28918394D01*
X70555675Y-28727997D01*
X70638425Y-28557440D01*
X70695905Y-28471859D01*
X70747955Y-28403617D01*
X70662818Y-28271893D01*
X70567483Y-28089350D01*
X70500364Y-27885727D01*
X70463585Y-27672331D01*
X70459270Y-27460469D01*
X70480391Y-27300767D01*
X70544700Y-27090383D01*
X70644551Y-26889061D01*
X70774414Y-26704992D01*
X70928760Y-26546369D01*
X71053674Y-26451377D01*
X71187588Y-26363333D01*
X71143462Y-26244675D01*
X71123401Y-26182106D01*
X71110161Y-26115622D01*
X71102452Y-26034239D01*
X71098984Y-25926970D01*
X71098441Y-25861433D01*
X71099040Y-25743963D01*
X71102834Y-25656634D01*
X71111426Y-25587282D01*
X71126423Y-25523744D01*
X71149428Y-25453857D01*
X71153841Y-25441601D01*
X71239250Y-25246036D01*
X71346559Y-25076849D01*
X71479671Y-24925003D01*
X71658675Y-24771035D01*
X71849789Y-24656650D01*
X72057226Y-24579972D01*
X72285202Y-24539125D01*
X72358819Y-24533545D01*
X72593937Y-24540458D01*
G37*
X72593937Y-24540458D02*
X72819093Y-24585377D01*
X73029965Y-24665848D01*
X73222227Y-24779419D01*
X73391556Y-24923635D01*
X73533629Y-25096045D01*
X73624226Y-25251536D01*
X73682035Y-25381920D01*
X73728607Y-25511256D01*
X73760474Y-25628419D01*
X73774172Y-25722287D01*
X73774444Y-25733589D01*
X73792375Y-25787111D01*
X73845295Y-25835488D01*
X73936874Y-25908932D01*
X74036117Y-26006520D01*
X74130791Y-26115026D01*
X74208667Y-26221226D01*
X74222625Y-26243454D01*
X74317031Y-26428630D01*
X74375742Y-26617679D01*
X74403223Y-26825018D01*
X74403335Y-26826892D01*
X74414763Y-27019768D01*
X74554906Y-26913451D01*
X74761784Y-26780214D01*
X74975911Y-26688040D01*
X75195314Y-26637150D01*
X75418022Y-26627760D01*
X75642063Y-26660091D01*
X75865463Y-26734361D01*
X75924928Y-26761399D01*
X76083156Y-26837504D01*
X76190704Y-26740809D01*
X76305534Y-26654252D01*
X76447749Y-26572400D01*
X76602481Y-26502555D01*
X76754864Y-26452017D01*
X76801133Y-26441024D01*
X77015564Y-26416780D01*
X77233136Y-26431040D01*
X77447434Y-26481127D01*
X77652041Y-26564365D01*
X77840543Y-26678077D01*
X78006523Y-26819589D01*
X78143565Y-26986223D01*
X78156987Y-27006576D01*
X78219672Y-27103969D01*
X78330611Y-27073845D01*
X78430717Y-27057597D01*
X78555564Y-27053214D01*
X78689457Y-27060030D01*
X78816701Y-27077376D01*
X78902429Y-27098158D01*
X79038096Y-27149950D01*
X79176272Y-27219072D01*
X79304198Y-27298080D01*
X79409114Y-27379529D01*
X79445364Y-27414935D01*
X79485770Y-27449540D01*
X79533512Y-27465950D01*
X79605829Y-27470100D01*
X79672838Y-27467397D01*
X79711698Y-27455560D01*
X79736443Y-27428998D01*
X79744556Y-27414835D01*
X79772314Y-27377088D01*
X79823209Y-27320008D01*
X79888940Y-27252606D01*
X79934697Y-27208460D01*
X80095261Y-27057350D01*
X80130816Y-26835100D01*
X80147990Y-26712433D01*
X80154499Y-26621658D01*
X80150782Y-26553817D01*
X80145841Y-26528183D01*
X80131175Y-26429898D01*
X80125934Y-26306348D01*
X80129806Y-26173469D01*
X80142478Y-26047195D01*
X80156788Y-25969680D01*
X80226274Y-25764049D01*
X80332253Y-25570409D01*
X80469419Y-25394071D01*
X80632462Y-25240341D01*
X80816075Y-25114528D01*
X81014949Y-25021940D01*
X81142714Y-24983755D01*
X81277349Y-24962327D01*
X81434136Y-24953420D01*
X81594788Y-24957034D01*
X81741018Y-24973170D01*
X81794053Y-24983755D01*
X81991643Y-25050297D01*
X82183034Y-25152340D01*
X82358683Y-25283188D01*
X82509045Y-25436139D01*
X82585456Y-25539241D01*
X82692288Y-25725262D01*
X82763254Y-25905657D01*
X82801379Y-26091520D01*
X82809689Y-26293946D01*
X82807234Y-26352525D01*
X82796211Y-26545849D01*
X82911422Y-26685183D01*
X83052774Y-26886175D01*
X83154489Y-27098549D01*
X83215762Y-27320177D01*
X83235800Y-27544183D01*
X83224868Y-27721237D01*
X83189529Y-27886674D01*
X83125970Y-28055751D01*
X83088103Y-28135187D01*
X83044097Y-28229983D01*
X83022302Y-28294602D01*
X83023380Y-28326443D01*
X83042311Y-28356545D01*
X83072911Y-28412511D01*
X83107568Y-28480258D01*
X83188013Y-28688822D01*
X83229005Y-28906688D01*
X83230543Y-29127812D01*
X83192627Y-29346150D01*
X83115257Y-29555657D01*
X83107568Y-29571442D01*
X83072054Y-29640811D01*
X83041664Y-29696278D01*
X83023380Y-29725257D01*
X83022429Y-29757689D01*
X83044497Y-29822687D01*
X83088103Y-29916513D01*
X83170180Y-30106039D01*
X83218485Y-30284144D01*
X83235686Y-30460956D01*
X83235800Y-30477091D01*
X83235800Y-30617688D01*
X83362404Y-30717154D01*
X83526189Y-30870984D01*
X83660329Y-31049029D01*
X83762802Y-31245504D01*
X83831585Y-31454622D01*
X83864655Y-31670596D01*
X83859991Y-31887641D01*
X83829193Y-32052683D01*
X83790027Y-32200850D01*
X83850236Y-32296100D01*
X83965425Y-32511277D01*
X84040979Y-32728543D01*
X84076070Y-32944937D01*
X84075464Y-33103275D01*
X84050774Y-33268250D01*
X84004248Y-33437947D01*
X83940491Y-33600592D01*
X83864105Y-33744413D01*
X83781019Y-33856201D01*
X83738188Y-33902885D01*
X83799202Y-34089034D01*
X83828988Y-34186931D01*
X83847224Y-34270023D01*
X83856461Y-34355662D01*
X83859249Y-34461205D01*
X83859217Y-34497433D01*
X83844471Y-34710983D01*
X83800277Y-34902233D01*
X83723626Y-35081945D01*
X83669929Y-35174430D01*
X83638468Y-35233118D01*
X83630512Y-35282950D01*
X83639034Y-35335897D01*
X83657032Y-35480689D01*
X83652045Y-35646219D01*
X83626029Y-35819019D01*
X83580940Y-35985621D01*
X83525102Y-36120257D01*
X83441933Y-36260072D01*
X83339309Y-36395204D01*
X83228259Y-36512203D01*
X83151047Y-36576380D01*
X83026530Y-36667017D01*
X83025331Y-36816028D01*
X83004565Y-37023805D01*
X82947865Y-37231473D01*
X82910462Y-37323183D01*
X82862286Y-37429017D01*
X82910650Y-37535272D01*
X82978635Y-37717490D01*
X83014108Y-37900149D01*
X83020006Y-38098955D01*
X83019298Y-38115819D01*
X82996559Y-38318291D01*
X82945616Y-38500283D01*
X82861964Y-38676392D01*
X82829502Y-38730767D01*
X82743783Y-38868350D01*
X82778396Y-39016517D01*
X82811777Y-39249446D01*
X82802870Y-39481601D01*
X82751656Y-39713171D01*
X82705097Y-39841207D01*
X82657774Y-39955382D01*
X82703149Y-40060859D01*
X82776776Y-40279311D01*
X82810041Y-40501344D01*
X82812467Y-40582850D01*
X82800101Y-40767856D01*
X82760322Y-40939750D01*
X82689106Y-41115014D01*
X82676107Y-41141336D01*
X82602704Y-41287095D01*
X82645889Y-41326177D01*
X82707276Y-41393068D01*
X82776327Y-41486413D01*
X82844356Y-41593618D01*
X82896640Y-41689746D01*
X82974257Y-41892416D01*
X83016095Y-42111648D01*
X83021385Y-42340198D01*
X82990096Y-42567465D01*
X82956059Y-42722367D01*
X83023304Y-42822004D01*
X83128672Y-43014997D01*
X83198459Y-43225499D01*
X83230394Y-43444894D01*
X83228812Y-43601750D01*
X83215765Y-43770935D01*
X83329438Y-43908745D01*
X83467169Y-44106384D01*
X83566337Y-44317641D01*
X83608725Y-44458409D01*
X83627156Y-44534992D01*
X83642665Y-44588349D01*
X83661502Y-44630748D01*
X83689918Y-44674458D01*
X83734161Y-44731750D01*
X83772235Y-44779413D01*
X83825924Y-44844667D01*
X83867050Y-44884762D01*
X83908876Y-44908076D01*
X83964670Y-44922990D01*
X84013764Y-44931984D01*
X84237597Y-44992067D01*
X84448065Y-45090514D01*
X84638590Y-45223903D01*
X84722181Y-45300490D01*
X84820222Y-45398530D01*
X84943469Y-45365548D01*
X85118985Y-45335639D01*
X85309095Y-45332387D01*
X85495974Y-45355225D01*
X85616906Y-45386962D01*
X85708206Y-45420371D01*
X85795437Y-45456943D01*
X85861587Y-45489477D01*
X85868304Y-45493363D01*
X85952749Y-45543720D01*
X86066317Y-45439925D01*
X86182400Y-45350456D01*
X86324351Y-45266449D01*
X86475828Y-45196620D01*
X86601300Y-45154542D01*
X86708650Y-45135484D01*
X86841204Y-45125817D01*
X86982890Y-45125537D01*
X87117635Y-45134635D01*
X87229366Y-45153105D01*
X87236163Y-45154814D01*
X87358553Y-45186529D01*
X87487844Y-45061966D01*
X87621141Y-44952893D01*
X87778319Y-44855205D01*
X87943674Y-44777565D01*
X88085380Y-44732255D01*
X88228979Y-44709380D01*
X88390146Y-44701397D01*
X88550398Y-44708286D01*
X88691252Y-44730029D01*
X88703033Y-44732886D01*
X88790392Y-44760631D01*
X88891758Y-44801157D01*
X88982550Y-44844366D01*
X89130717Y-44922727D01*
X89289467Y-44843663D01*
X89469860Y-44765993D01*
X89641480Y-44719563D01*
X89819415Y-44700643D01*
X89871550Y-44699767D01*
X90061721Y-44712917D01*
X90238382Y-44755040D01*
X90418059Y-44830142D01*
X90426307Y-44834274D01*
X90568126Y-44905770D01*
X90696088Y-44799068D01*
X90809943Y-44717031D01*
X90946047Y-44638814D01*
X91089127Y-44572005D01*
X91223906Y-44524195D01*
X91274883Y-44511496D01*
X91407095Y-44493800D01*
X91557365Y-44489243D01*
X91706493Y-44497543D01*
X91835278Y-44518417D01*
X91840894Y-44519800D01*
X91923231Y-44545653D01*
X92022383Y-44584171D01*
X92118166Y-44627453D01*
X92126575Y-44631635D01*
X92286100Y-44711770D01*
X92444075Y-44632397D01*
X92626771Y-44553443D01*
X92801252Y-44506710D01*
X92981876Y-44488602D01*
X93020457Y-44488100D01*
X93152718Y-44493057D01*
X93269124Y-44510364D01*
X93385155Y-44543675D01*
X93516290Y-44596646D01*
X93555455Y-44614406D01*
X93725694Y-44692910D01*
X93830622Y-44599940D01*
X93929829Y-44525523D01*
X94055891Y-44450611D01*
X94194094Y-44382732D01*
X94329727Y-44329415D01*
X94400372Y-44308394D01*
X94606070Y-44276945D01*
X94821267Y-44281599D01*
X95036846Y-44320436D01*
X95243690Y-44391537D01*
X95432682Y-44492983D01*
X95498441Y-44539487D01*
X95597115Y-44614807D01*
X95761166Y-44556747D01*
X95836800Y-44531589D01*
X95902642Y-44514948D01*
X95971159Y-44505160D01*
X96054820Y-44500562D01*
X96166093Y-44499489D01*
X96189800Y-44499541D01*
X96312492Y-44501286D01*
X96404780Y-44506580D01*
X96478541Y-44516882D01*
X96545653Y-44533649D01*
X96591967Y-44548928D01*
X96741993Y-44612201D01*
X96895032Y-44694544D01*
X96978258Y-44747981D01*
X97018227Y-44762937D01*
X97052342Y-44747981D01*
X97238203Y-44634834D01*
X97421840Y-44557243D01*
X97615565Y-44511006D01*
X97798731Y-44493153D01*
X98030379Y-44498878D01*
X98241109Y-44539396D01*
X98435784Y-44616608D01*
X98619272Y-44732416D01*
X98787192Y-44879456D01*
X98874251Y-44962820D01*
X98936447Y-45014528D01*
X98975476Y-45035888D01*
X98988275Y-45034819D01*
X99020373Y-45020347D01*
X99081251Y-44997717D01*
X99159224Y-44971215D01*
X99180684Y-44964274D01*
X99348861Y-44926328D01*
X99534834Y-44910871D01*
X99720183Y-44918468D01*
X99863061Y-44943366D01*
X99986891Y-44983810D01*
X100120412Y-45042345D01*
X100248457Y-45111287D01*
X100355859Y-45182953D01*
X100388194Y-45209382D01*
X100478769Y-45289108D01*
X100583243Y-45205008D01*
X100714112Y-45113919D01*
X100863834Y-45032675D01*
X101015141Y-44969926D01*
X101105683Y-44943268D01*
X101231595Y-44922896D01*
X101378374Y-44913599D01*
X101529287Y-44915373D01*
X101667603Y-44928210D01*
X101746894Y-44943501D01*
X101955429Y-45017266D01*
X102151297Y-45126881D01*
X102327653Y-45266941D01*
X102477655Y-45432044D01*
X102590946Y-45609933D01*
X102628769Y-45682821D01*
X102658507Y-45739548D01*
X102675378Y-45771017D01*
X102677384Y-45774414D01*
X102698639Y-45773565D01*
X102748604Y-45765273D01*
X102792599Y-45756380D01*
X102904385Y-45745635D01*
X103040332Y-45753144D01*
X103187269Y-45777194D01*
X103332027Y-45816074D01*
X103378992Y-45832587D01*
X103587528Y-45933280D01*
X103774585Y-46068782D01*
X103935901Y-46235229D01*
X104067215Y-46428754D01*
X104095618Y-46482435D01*
X104137943Y-46571663D01*
X104173517Y-46655268D01*
X104197114Y-46720572D01*
X104202827Y-46742604D01*
X104213718Y-46788637D01*
X104232132Y-46807561D01*
X104271736Y-46807486D01*
X104304257Y-46802781D01*
X104358612Y-46794020D01*
X104390376Y-46788042D01*
X104393589Y-46787029D01*
X104403771Y-46768770D01*
X104429303Y-46722351D01*
X104465241Y-46656765D01*
X104476318Y-46636517D01*
X104590929Y-46464938D01*
X104733379Y-46313130D01*
X104897634Y-46184100D01*
X105077662Y-46080858D01*
X105267430Y-46006411D01*
X105460907Y-45963767D01*
X105652060Y-45955934D01*
X105799342Y-45976774D01*
X105868899Y-45992425D01*
X105919004Y-46002626D01*
X105938787Y-46005168D01*
X106016033Y-45889352D01*
X106121429Y-45767780D01*
X106244011Y-45650890D01*
X106372816Y-45549117D01*
X106496880Y-45472902D01*
X106499040Y-45471809D01*
X106652594Y-45403459D01*
X106798351Y-45360052D01*
X106953181Y-45337677D01*
X107101217Y-45332278D01*
X107324642Y-45347506D01*
X107528675Y-45395686D01*
X107721252Y-45479618D01*
X107910312Y-45602103D01*
X107947883Y-45631065D01*
X108014952Y-45682061D01*
X108067574Y-45713357D01*
X108121834Y-45731241D01*
X108193813Y-45742001D01*
X108244217Y-45746926D01*
X108484309Y-45788564D01*
X108705991Y-45866036D01*
X108906353Y-45976390D01*
X109082487Y-46116676D01*
X109231483Y-46283943D01*
X109350433Y-46475241D01*
X109436428Y-46687618D01*
X109486559Y-46918125D01*
X109496048Y-47016821D01*
X109490778Y-47245037D01*
X109448455Y-47461672D01*
X109372627Y-47663933D01*
X109266839Y-47849026D01*
X109134639Y-48014157D01*
X108979573Y-48156533D01*
X108805187Y-48273361D01*
X108615028Y-48361846D01*
X108412643Y-48419196D01*
X108201577Y-48442617D01*
X107985378Y-48429316D01*
X107769168Y-48377031D01*
X107611619Y-48323986D01*
X107371243Y-48538584D01*
X107272868Y-48624845D01*
X107171533Y-48711026D01*
X107077761Y-48788342D01*
X107002075Y-48848009D01*
X106987378Y-48859017D01*
X106910523Y-48916190D01*
X106837812Y-48971106D01*
X106782996Y-49013366D01*
X106775930Y-49018954D01*
X106707970Y-49073059D01*
X106812066Y-49140511D01*
X106970567Y-49265281D01*
X107108680Y-49417735D01*
X107223304Y-49591014D01*
X107311339Y-49778261D01*
X107369685Y-49972615D01*
X107395241Y-50167218D01*
X107384906Y-50355210D01*
X107378026Y-50392537D01*
X107363037Y-50467648D01*
X107353075Y-50523962D01*
X107349928Y-50551188D01*
X107350258Y-50552230D01*
X107414478Y-50594784D01*
X107495488Y-50658377D01*
X107581394Y-50732914D01*
X107660303Y-50808301D01*
X107694833Y-50844719D01*
X107832986Y-51028134D01*
X107934077Y-51231143D01*
X107997190Y-51451301D01*
X108021406Y-51686163D01*
X108021654Y-51715672D01*
X108002172Y-51957039D01*
X107944221Y-52181122D01*
X107847310Y-52389334D01*
X107728392Y-52561824D01*
X107644291Y-52666298D01*
X107728017Y-52761416D01*
X107802783Y-52862866D01*
X107875768Y-52990949D01*
X107939281Y-53130379D01*
X107985633Y-53265870D01*
X107989898Y-53282005D01*
X108010459Y-53402085D01*
X108020077Y-53546110D01*
X108018792Y-53697141D01*
X108006645Y-53838238D01*
X107988360Y-53935599D01*
X107935156Y-54091872D01*
X107858610Y-54250713D01*
X107765977Y-54399982D01*
X107664514Y-54527540D01*
X107593432Y-54596312D01*
X107531129Y-54648736D01*
X107595566Y-54749153D01*
X107705297Y-54956738D01*
X107777404Y-55175569D01*
X107811645Y-55400331D01*
X107807776Y-55625706D01*
X107765552Y-55846380D01*
X107684731Y-56057036D01*
X107657867Y-56108600D01*
X107618459Y-56176702D01*
X107582182Y-56233734D01*
X107561733Y-56261394D01*
X107543653Y-56290361D01*
X107541014Y-56327867D01*
X107553182Y-56388650D01*
X107555805Y-56398978D01*
X107598497Y-56642026D01*
X107600360Y-56878259D01*
X107561703Y-57105548D01*
X107482835Y-57321758D01*
X107400406Y-57470813D01*
X107342675Y-57550185D01*
X107267654Y-57638316D01*
X107185340Y-57724793D01*
X107105733Y-57799207D01*
X107038832Y-57851145D01*
X107029641Y-57856873D01*
X107002813Y-57875408D01*
X106986171Y-57898676D01*
X106977031Y-57936569D01*
X106972711Y-57998975D01*
X106970920Y-58073383D01*
X106946094Y-58299748D01*
X106881131Y-58516903D01*
X106777935Y-58720578D01*
X106638414Y-58906503D01*
X106565245Y-58982319D01*
X106494292Y-59046243D01*
X106421548Y-59104973D01*
X106362382Y-59146127D01*
X106360770Y-59147083D01*
X106291189Y-59208084D01*
X106221407Y-59307733D01*
X106153423Y-59442403D01*
X106089236Y-59608464D01*
X106064645Y-59684252D01*
X105977303Y-59902414D01*
X105856980Y-60095328D01*
X105701913Y-60265346D01*
X105524093Y-60405573D01*
X105419250Y-60485729D01*
X105347287Y-60565331D01*
X105300384Y-60655472D01*
X105271278Y-60764304D01*
X105207295Y-60999696D01*
X105108822Y-61211367D01*
X104974530Y-61401905D01*
X104905648Y-61477772D01*
X104850868Y-61535337D01*
X104821104Y-61573782D01*
X104811449Y-61603929D01*
X104816997Y-61636605D01*
X104824084Y-61657689D01*
X104858287Y-61799509D01*
X104872634Y-61965009D01*
X104867326Y-62140587D01*
X104842562Y-62312642D01*
X104812751Y-62426850D01*
X104781825Y-62505454D01*
X104735579Y-62603117D01*
X104682277Y-62703743D01*
X104630181Y-62791233D01*
X104611346Y-62819206D01*
X104603296Y-62846994D01*
X104616421Y-62887100D01*
X104653953Y-62948987D01*
X104657434Y-62954166D01*
X104763150Y-63147612D01*
X104833823Y-63358711D01*
X104868572Y-63580118D01*
X104866517Y-63804486D01*
X104826777Y-64024470D01*
X104796948Y-64118475D01*
X104744784Y-64262183D01*
X104820288Y-64360517D01*
X104907854Y-64495818D01*
X104984672Y-64654931D01*
X105041978Y-64819380D01*
X105047234Y-64839005D01*
X105067911Y-64957733D01*
X105077774Y-65100560D01*
X105076840Y-65250664D01*
X105065126Y-65391220D01*
X105046574Y-65491129D01*
X105005751Y-65614505D01*
X104947264Y-65747769D01*
X104879443Y-65873849D01*
X104810618Y-65975680D01*
X104809270Y-65977375D01*
X104746050Y-66056567D01*
X104809392Y-66240335D01*
X104841866Y-66342166D01*
X104860977Y-66427406D01*
X104869880Y-66515614D01*
X104871731Y-66626346D01*
X104871728Y-66626810D01*
X104862009Y-66806823D01*
X104831960Y-66965610D01*
X104777318Y-67121109D01*
X104730464Y-67221270D01*
X104686319Y-67319005D01*
X104667439Y-67387751D01*
X104668576Y-67420729D01*
X104672252Y-67476383D01*
X104665773Y-67560327D01*
X104651052Y-67660272D01*
X104630003Y-67763931D01*
X104604539Y-67859015D01*
X104596554Y-67883368D01*
X104578020Y-67939951D01*
X104569973Y-67982863D01*
X104573106Y-68026217D01*
X104588111Y-68084128D01*
X104609763Y-68152384D01*
X104647830Y-68319405D01*
X104663540Y-68504572D01*
X104656418Y-68689848D01*
X104628133Y-68849295D01*
X104559961Y-69041734D01*
X104462577Y-69226398D01*
X104343227Y-69391160D01*
X104241277Y-69496517D01*
X104170291Y-69560017D01*
X104204861Y-69665850D01*
X104229927Y-69780904D01*
X104241660Y-69921811D01*
X104240279Y-70074316D01*
X104226006Y-70224168D01*
X104199061Y-70357113D01*
X104193873Y-70374933D01*
X104107950Y-70588778D01*
X103988339Y-70784564D01*
X103839690Y-70956589D01*
X103666657Y-71099152D01*
X103541991Y-71174005D01*
X103409821Y-71235146D01*
X103276361Y-71283595D01*
X103153583Y-71315605D01*
X103053460Y-71327428D01*
X103051765Y-71327433D01*
X102996703Y-71340046D01*
X102929292Y-71380559D01*
X102874903Y-71424159D01*
X102639423Y-71598914D01*
X102385234Y-71737472D01*
X102116550Y-71839102D01*
X101837585Y-71903072D01*
X101552551Y-71928650D01*
X101265663Y-71915105D01*
X100981132Y-71861703D01*
X100761800Y-71791243D01*
X100658793Y-71747426D01*
X100545986Y-71692940D01*
X100455191Y-71643754D01*
X100377802Y-71600361D01*
X100317033Y-71573916D01*
X100256053Y-71559638D01*
X100178027Y-71552745D01*
X100127108Y-71550565D01*
X99910506Y-71528974D01*
X99715569Y-71478461D01*
X99529652Y-71394881D01*
X99390063Y-71309048D01*
X99222993Y-71170914D01*
X99079508Y-71002467D01*
X98963321Y-70810775D01*
X98878145Y-70602904D01*
X98827694Y-70385922D01*
X98814834Y-70214277D01*
X98826453Y-70073560D01*
X98859136Y-69916088D01*
X98908539Y-69758967D01*
X98961672Y-69636004D01*
X99027095Y-69506401D01*
X98922291Y-69380466D01*
X98785087Y-69184499D01*
X98686694Y-68975669D01*
X98627119Y-68758036D01*
X98606369Y-68535660D01*
X98624452Y-68312602D01*
X98681373Y-68092921D01*
X98777142Y-67880679D01*
X98911764Y-67679935D01*
X98919255Y-67670593D01*
X99026442Y-67538004D01*
X98965733Y-67416593D01*
X98903553Y-67283282D01*
X98862328Y-67168403D01*
X98838272Y-67056039D01*
X98827598Y-66930274D01*
X98826049Y-66829517D01*
X98827970Y-66714398D01*
X98834592Y-66626387D01*
X98848143Y-66550331D01*
X98870851Y-66471075D01*
X98884826Y-66429827D01*
X98975971Y-66224715D01*
X99098722Y-66034163D01*
X99245101Y-65870558D01*
X99245135Y-65870527D01*
X99318889Y-65793753D01*
X99357592Y-65729423D01*
X99362537Y-65668271D01*
X99335018Y-65601030D01*
X99291537Y-65537987D01*
X99193091Y-65384353D01*
X99115166Y-65212591D01*
X99060342Y-65032548D01*
X99031194Y-64854068D01*
X99030301Y-64686997D01*
X99044684Y-64595096D01*
X99062224Y-64519676D01*
X98901304Y-64437044D01*
X98724331Y-64323940D01*
X98564945Y-64178457D01*
X98429380Y-64008375D01*
X98323868Y-63821469D01*
X98256360Y-63632348D01*
X98237682Y-63573086D01*
X98218998Y-63535572D01*
X98209833Y-63528564D01*
X98174968Y-63532593D01*
X98103197Y-63542645D01*
X97999413Y-63558018D01*
X97911271Y-63571425D01*
X97867164Y-63585146D01*
X97830392Y-63617054D01*
X97790542Y-63676847D01*
X97781838Y-63692029D01*
X97719518Y-63802337D01*
X97802565Y-63967036D01*
X97889984Y-64182999D01*
X97935159Y-64400927D01*
X97938159Y-64621795D01*
X97899057Y-64846579D01*
X97872861Y-64934165D01*
X97816116Y-65104554D01*
X97891856Y-65207732D01*
X97998808Y-65382228D01*
X98081597Y-65576808D01*
X98135898Y-65778682D01*
X98157387Y-65975062D01*
X98157565Y-65993433D01*
X98139918Y-66185837D01*
X98090047Y-66384535D01*
X98012560Y-66574944D01*
X97928029Y-66719958D01*
X97891598Y-66775376D01*
X97876237Y-66814542D01*
X97878923Y-66856012D01*
X97896020Y-66916352D01*
X97925210Y-67051853D01*
X97939623Y-67209131D01*
X97938607Y-67370056D01*
X97921513Y-67516499D01*
X97918168Y-67533094D01*
X97865741Y-67710554D01*
X97787454Y-67886631D01*
X97691902Y-68042412D01*
X97678757Y-68060059D01*
X97603022Y-68159277D01*
X97663703Y-68330480D01*
X97692021Y-68416021D01*
X97709949Y-68489323D01*
X97719724Y-68565395D01*
X97723587Y-68659245D01*
X97723992Y-68734517D01*
X97720746Y-68868834D01*
X97710653Y-68972564D01*
X97692412Y-69057091D01*
X97684024Y-69083767D01*
X97633660Y-69214179D01*
X97574583Y-69339190D01*
X97514175Y-69443749D01*
X97491809Y-69475785D01*
X97443887Y-69539720D01*
X97482373Y-69687451D01*
X97513922Y-69869855D01*
X97520369Y-70066833D01*
X97501070Y-70258408D01*
X97500800Y-70259921D01*
X97467507Y-70382383D01*
X97411600Y-70521175D01*
X97340102Y-70662397D01*
X97260035Y-70792149D01*
X97180107Y-70894692D01*
X97025421Y-71038025D01*
X96847368Y-71158136D01*
X96655757Y-71249805D01*
X96460398Y-71307811D01*
X96379235Y-71320922D01*
X96321388Y-71330708D01*
X96270298Y-71348479D01*
X96215186Y-71379887D01*
X96145271Y-71430580D01*
X96095378Y-71469702D01*
X95902877Y-71603475D01*
X95684859Y-71722157D01*
X95457551Y-71817690D01*
X95290217Y-71869437D01*
X95026811Y-71916778D01*
X94750438Y-71929187D01*
X94471533Y-71907007D01*
X94200537Y-71850580D01*
X94136633Y-71831601D01*
X93867358Y-71724877D01*
X93617359Y-71582556D01*
X93389569Y-71408093D01*
X93186920Y-71204944D01*
X93012345Y-70976562D01*
X92868776Y-70726402D01*
X92759145Y-70457920D01*
X92686386Y-70174570D01*
X92675583Y-70110350D01*
X92655429Y-70010154D01*
X92626606Y-69904031D01*
X92602947Y-69835183D01*
X92571678Y-69738870D01*
X92544002Y-69623116D01*
X92522592Y-69502860D01*
X92510120Y-69393038D01*
X92509095Y-69310530D01*
X92500926Y-69245746D01*
X92470112Y-69153975D01*
X92439224Y-69083767D01*
X92374091Y-68929623D01*
X92333510Y-68787078D01*
X92313524Y-68638007D01*
X92309788Y-68491019D01*
X92314600Y-68367714D01*
X92328496Y-68265439D01*
X92354790Y-68163285D01*
X92368502Y-68120806D01*
X92408877Y-68015321D01*
X92458186Y-67908603D01*
X92510802Y-67811109D01*
X92561100Y-67733297D01*
X92601965Y-67686837D01*
X92629252Y-67653859D01*
X92623556Y-67622545D01*
X92582049Y-67587670D01*
X92533258Y-67559953D01*
X92474586Y-67521905D01*
X92398829Y-67462549D01*
X92317817Y-67391498D01*
X92272214Y-67347853D01*
X92119983Y-67169532D01*
X92005946Y-66974115D01*
X91928388Y-66758627D01*
X91925035Y-66745694D01*
X91904793Y-66628288D01*
X91895091Y-66487935D01*
X91895944Y-66341397D01*
X91907367Y-66205435D01*
X91924486Y-66114151D01*
X91959911Y-66007082D01*
X92011804Y-65884922D01*
X92071489Y-65766373D01*
X92130288Y-65670137D01*
X92130889Y-65669284D01*
X92153647Y-65633526D01*
X92162258Y-65601597D01*
X92157354Y-65558878D01*
X92139568Y-65490749D01*
X92138740Y-65487796D01*
X92117681Y-65386046D01*
X92104562Y-65267948D01*
X92100268Y-65149776D01*
X92105686Y-65047803D01*
X92112567Y-65006877D01*
X92118732Y-64969658D01*
X92110709Y-64943802D01*
X92080780Y-64919994D01*
X92021225Y-64888915D01*
X92010484Y-64883649D01*
X91806452Y-64761078D01*
X91630759Y-64608188D01*
X91485821Y-64428128D01*
X91374053Y-64224047D01*
X91297871Y-63999092D01*
X91284004Y-63936638D01*
X91267868Y-63856141D01*
X91255075Y-63793650D01*
X91247663Y-63759075D01*
X91246688Y-63755330D01*
X91228516Y-63762150D01*
X91182643Y-63784780D01*
X91118432Y-63818572D01*
X91108308Y-63824040D01*
X90940271Y-63904124D01*
X90781600Y-63954282D01*
X90616515Y-63978641D01*
X90502084Y-63982600D01*
X90262544Y-63963303D01*
X90040252Y-63905367D01*
X89835058Y-63808720D01*
X89646812Y-63673293D01*
X89475363Y-63499013D01*
X89475075Y-63498671D01*
X89417341Y-63430058D01*
X89221112Y-63497671D01*
X89005014Y-63552011D01*
X88788737Y-63567533D01*
X88578697Y-63544066D01*
X88477796Y-63517586D01*
X88406361Y-63496018D01*
X88352972Y-63481941D01*
X88328143Y-63478099D01*
X88327615Y-63478409D01*
X88314119Y-63498016D01*
X88283357Y-63543510D01*
X88241611Y-63605597D01*
X88235493Y-63614719D01*
X88096291Y-63786111D01*
X87926513Y-63935123D01*
X87734601Y-64055798D01*
X87528996Y-64142184D01*
X87459394Y-64162198D01*
X87343612Y-64182167D01*
X87203422Y-64192115D01*
X87055600Y-64191826D01*
X86916921Y-64181087D01*
X86847496Y-64170027D01*
X86771404Y-64148859D01*
X86675548Y-64113958D01*
X86577346Y-64071837D01*
X86550306Y-64058902D01*
X86373814Y-63972017D01*
X86383814Y-64099017D01*
X86378953Y-64257861D01*
X86342756Y-64431314D01*
X86277752Y-64608580D01*
X86251650Y-64663610D01*
X86177512Y-64811333D01*
X86272909Y-64920386D01*
X86390161Y-65081224D01*
X86485831Y-65266517D01*
X86555372Y-65464346D01*
X86594235Y-65662796D01*
X86600932Y-65779861D01*
X86581408Y-65996016D01*
X86526719Y-66213905D01*
X86441024Y-66420055D01*
X86361790Y-66554637D01*
X86309013Y-66632306D01*
X86370968Y-66724106D01*
X86484903Y-66929186D01*
X86559856Y-67145818D01*
X86595983Y-67369424D01*
X86593443Y-67595426D01*
X86552392Y-67819246D01*
X86472989Y-68036306D01*
X86355390Y-68242030D01*
X86316904Y-68295311D01*
X86216707Y-68427606D01*
X86300778Y-68523115D01*
X86423087Y-68693129D01*
X86513225Y-68884834D01*
X86570702Y-69091844D01*
X86595028Y-69307771D01*
X86585714Y-69526229D01*
X86542269Y-69740829D01*
X86464203Y-69945184D01*
X86416652Y-70033787D01*
X86314594Y-70179075D01*
X86187102Y-70319241D01*
X86049441Y-70437931D01*
X86018923Y-70459802D01*
X85962410Y-70501536D01*
X85935196Y-70532540D01*
X85930004Y-70563402D01*
X85933790Y-70583707D01*
X85951887Y-70694174D01*
X85960045Y-70827738D01*
X85958186Y-70966328D01*
X85946230Y-71091873D01*
X85936259Y-71144885D01*
X85885335Y-71302629D01*
X85807840Y-71467920D01*
X85712288Y-71624617D01*
X85622288Y-71740055D01*
X85506550Y-71851346D01*
X85367478Y-71956117D01*
X85219762Y-72044523D01*
X85078095Y-72106723D01*
X85071861Y-72108827D01*
X84987429Y-72132642D01*
X84889172Y-72153922D01*
X84788117Y-72171043D01*
X84695289Y-72182377D01*
X84621717Y-72186299D01*
X84579171Y-72181481D01*
X84542739Y-72189881D01*
X84489999Y-72236968D01*
X84468651Y-72261411D01*
X84264576Y-72474243D01*
X84036363Y-72655738D01*
X83788322Y-72803613D01*
X83524760Y-72915588D01*
X83249988Y-72989378D01*
X83039718Y-73018243D01*
X82732833Y-73023292D01*
X82437613Y-72988010D01*
X82155692Y-72912998D01*
X81888702Y-72798861D01*
X81638277Y-72646201D01*
X81406050Y-72455620D01*
X81339975Y-72390939D01*
X81176058Y-72203019D01*
X81037604Y-71996582D01*
X80938998Y-71808899D01*
X80893449Y-71715694D01*
X80856600Y-71651079D01*
X80820487Y-71604728D01*
X80777149Y-71566316D01*
X80722365Y-71527995D01*
X80557611Y-71396821D01*
X80411096Y-71236976D01*
X80289252Y-71057510D01*
X80198509Y-70867468D01*
X80156788Y-70732353D01*
X80134365Y-70590388D01*
X80126227Y-70428133D01*
X80132383Y-70264825D01*
X80152846Y-70119703D01*
X80156422Y-70103752D01*
X80207596Y-69944618D01*
X80284516Y-69779647D01*
X80378373Y-69627458D01*
X80388156Y-69613924D01*
X80460644Y-69515176D01*
X80406067Y-69368263D01*
X80366365Y-69223512D01*
X80343101Y-69056665D01*
X80337186Y-68884289D01*
X80349534Y-68722951D01*
X80365919Y-68639002D01*
X80424096Y-68461492D01*
X80503719Y-68292026D01*
X80596146Y-68148475D01*
X80672318Y-68049266D01*
X80583517Y-67997126D01*
X80397220Y-67865335D01*
X80234545Y-67704972D01*
X80100330Y-67522431D01*
X79999409Y-67324101D01*
X79944501Y-67152525D01*
X79923107Y-67019444D01*
X79914406Y-66867268D01*
X79918395Y-66713621D01*
X79935071Y-66576130D01*
X79944594Y-66532339D01*
X80004513Y-66355750D01*
X80091826Y-66178617D01*
X80197772Y-66017111D01*
X80271066Y-65929677D01*
X80328087Y-65868323D01*
X80372105Y-65820020D01*
X80396576Y-65791994D01*
X80399467Y-65787913D01*
X80388880Y-65769216D01*
X80361007Y-65724406D01*
X80321673Y-65662838D01*
X80317982Y-65657123D01*
X80238885Y-65517205D01*
X80184193Y-65375559D01*
X80151013Y-65221083D01*
X80136448Y-65042678D01*
X80135187Y-64956267D01*
X80139978Y-64794549D01*
X80156391Y-64660805D01*
X80188108Y-64541424D01*
X80238810Y-64422798D01*
X80312178Y-64291316D01*
X80317397Y-64282695D01*
X80403073Y-64141670D01*
X80376861Y-64014510D01*
X80362524Y-63946970D01*
X80351524Y-63898839D01*
X80346780Y-63882003D01*
X80326580Y-63885776D01*
X80277712Y-63900906D01*
X80217731Y-63921648D01*
X80125922Y-63947610D01*
X80014417Y-63965125D01*
X79872808Y-63975750D01*
X79849133Y-63976813D01*
X79675654Y-63977918D01*
X79528664Y-63963717D01*
X79394368Y-63931919D01*
X79258974Y-63880237D01*
X79254101Y-63878065D01*
X79199486Y-63854972D01*
X79164012Y-63842546D01*
X79157292Y-63841885D01*
X79160791Y-63862866D01*
X79174700Y-63913197D01*
X79196030Y-63982073D01*
X79196494Y-63983508D01*
X79236672Y-64171771D01*
X79242532Y-64374128D01*
X79214342Y-64580261D01*
X79177587Y-64712266D01*
X79113181Y-64902182D01*
X79182358Y-64987432D01*
X79294617Y-65157225D01*
X79379036Y-65351918D01*
X79432331Y-65561929D01*
X79451190Y-65771944D01*
X79445592Y-65924315D01*
X79423849Y-66060524D01*
X79382209Y-66196576D01*
X79316923Y-66348473D01*
X79315191Y-66352116D01*
X79230081Y-66530882D01*
X79294166Y-66648449D01*
X79385652Y-66858850D01*
X79438895Y-67080661D01*
X79453244Y-67307329D01*
X79428045Y-67532301D01*
X79395009Y-67659557D01*
X79322343Y-67835987D01*
X79220647Y-68009297D01*
X79099345Y-68164956D01*
X79009487Y-68254167D01*
X78891242Y-68357887D01*
X78946661Y-68496412D01*
X79009110Y-68700537D01*
X79035682Y-68906585D01*
X79025106Y-69104708D01*
X79025075Y-69104911D01*
X79004306Y-69202036D01*
X78971836Y-69312730D01*
X78932414Y-69423820D01*
X78890789Y-69522134D01*
X78851708Y-69594497D01*
X78845194Y-69603909D01*
X78832801Y-69627977D01*
X78836867Y-69653895D01*
X78861770Y-69690861D01*
X78911887Y-69748072D01*
X78915894Y-69752460D01*
X79014645Y-69880434D01*
X79104212Y-70033469D01*
X79175299Y-70194294D01*
X79206692Y-70292899D01*
X79230660Y-70427752D01*
X79240850Y-70585087D01*
X79237310Y-70747373D01*
X79220087Y-70897081D01*
X79204828Y-70967600D01*
X79128749Y-71175048D01*
X79017109Y-71369220D01*
X78875197Y-71544817D01*
X78708305Y-71696541D01*
X78521722Y-71819094D01*
X78320738Y-71907177D01*
X78243937Y-71929932D01*
X78091655Y-71957354D01*
X77920575Y-71968808D01*
X77751492Y-71963315D01*
X77688796Y-71956113D01*
X77571043Y-71939209D01*
X77546271Y-72098548D01*
X77490693Y-72327222D01*
X77397605Y-72537022D01*
X77266171Y-72729555D01*
X77155272Y-72850646D01*
X76977692Y-72999699D01*
X76786560Y-73110176D01*
X76577897Y-73183790D01*
X76347726Y-73222255D01*
X76282416Y-73226784D01*
X76134775Y-73228538D01*
X76002614Y-73215699D01*
X75872673Y-73185421D01*
X75731690Y-73134860D01*
X75613858Y-73083360D01*
X75526369Y-73046182D01*
X75445925Y-73017475D01*
X75385076Y-73001500D01*
X75367250Y-72999600D01*
X75318638Y-73009140D01*
X75246427Y-73034507D01*
X75163941Y-73070821D01*
X75139148Y-73083139D01*
X75040996Y-73128087D01*
X74934120Y-73168909D01*
X74839990Y-73197487D01*
X74831244Y-73199556D01*
X74683565Y-73222077D01*
X74518143Y-73229410D01*
X74353995Y-73221594D01*
X74210140Y-73198668D01*
X74208475Y-73198267D01*
X74004382Y-73128142D01*
X73810133Y-73021490D01*
X73632817Y-72884031D01*
X73479522Y-72721481D01*
X73357337Y-72539560D01*
X73332423Y-72491600D01*
X73248019Y-72279113D01*
X73198833Y-72061936D01*
X73185631Y-71847008D01*
X73209174Y-71641269D01*
X73229902Y-71560267D01*
X73258642Y-71465017D01*
X73123542Y-71318111D01*
X73020315Y-71188153D01*
X72927361Y-71037941D01*
X72852781Y-70882286D01*
X72804680Y-70736000D01*
X72804391Y-70734767D01*
X72769725Y-70502640D01*
X72776439Y-70277670D01*
X72824860Y-70056869D01*
X72899013Y-69870323D01*
X72973387Y-69714964D01*
X72889688Y-69615702D01*
X72762745Y-69443612D01*
X72666842Y-69261219D01*
X72619028Y-69136683D01*
X72591688Y-69049775D01*
X72574519Y-68973456D01*
X72565345Y-68892439D01*
X72561992Y-68791439D01*
X72561804Y-68734517D01*
X72567535Y-68581501D01*
X72586172Y-68444595D01*
X72620867Y-68315494D01*
X72674773Y-68185890D01*
X72751041Y-68047478D01*
X72852825Y-67891950D01*
X72914786Y-67804458D01*
X72913413Y-67772356D01*
X72880127Y-67715255D01*
X72840702Y-67663726D01*
X72733845Y-67504727D01*
X72648627Y-67322387D01*
X72588635Y-67128236D01*
X72557456Y-66933804D01*
X72558174Y-66755433D01*
X72579670Y-66623288D01*
X72616136Y-66482352D01*
X72662715Y-66347986D01*
X72714551Y-66235550D01*
X72731835Y-66206111D01*
X72791455Y-66111873D01*
X72722043Y-65983861D01*
X72625409Y-65769322D01*
X72570313Y-65556740D01*
X72556545Y-65342733D01*
X72583897Y-65123915D01*
X72652158Y-64896904D01*
X72654408Y-64891040D01*
X72718089Y-64725908D01*
X72676639Y-64644658D01*
X72602237Y-64453655D01*
X72563696Y-64247202D01*
X72561455Y-64033026D01*
X72595951Y-63818858D01*
X72624391Y-63722133D01*
X72687556Y-63535749D01*
X72618530Y-63446966D01*
X72501020Y-63262701D01*
X72415119Y-63056279D01*
X72363957Y-62836862D01*
X72350165Y-62661071D01*
X72356134Y-62507434D01*
X72379441Y-62367829D01*
X72423759Y-62226729D01*
X72487908Y-62078751D01*
X72573018Y-61899985D01*
X72509010Y-61782417D01*
X72417101Y-61574517D01*
X72363417Y-61361148D01*
X72349101Y-61148138D01*
X72360122Y-61021296D01*
X72370448Y-60942548D01*
X72371268Y-60890338D01*
X72360560Y-60849541D01*
X72336305Y-60805028D01*
X72329849Y-60794664D01*
X72240818Y-60619252D01*
X72178389Y-60424496D01*
X72145533Y-60223479D01*
X72145218Y-60029284D01*
X72148772Y-59996637D01*
X72164445Y-59873591D01*
X72048924Y-59737416D01*
X71924342Y-59565622D01*
X71823218Y-59375507D01*
X71753771Y-59182612D01*
X71751998Y-59175934D01*
X71733629Y-59087620D01*
X71724779Y-58992183D01*
X71724458Y-58875421D01*
X71726741Y-58814097D01*
X71737072Y-58588011D01*
X71674499Y-58528347D01*
X71601476Y-58445456D01*
X71524358Y-58335927D01*
X71451629Y-58213543D01*
X71391774Y-58092089D01*
X71366442Y-58027912D01*
X71325329Y-57868773D01*
X71303230Y-57691204D01*
X71301540Y-57513976D01*
X71317881Y-57374026D01*
X71339987Y-57289534D01*
X71374864Y-57187348D01*
X71415636Y-57087273D01*
X71423017Y-57071128D01*
X71502281Y-56901239D01*
X71401073Y-56776490D01*
X71265321Y-56578584D01*
X71167252Y-56368224D01*
X71107536Y-56149623D01*
X71086846Y-55926994D01*
X71105853Y-55704552D01*
X71165230Y-55486511D01*
X71186768Y-55432457D01*
X71226768Y-55338398D01*
X71065937Y-55178457D01*
X70912117Y-54997489D01*
X70795313Y-54800198D01*
X70715621Y-54590971D01*
X70673138Y-54374199D01*
X70667960Y-54154270D01*
X70700182Y-53935572D01*
X70769902Y-53722495D01*
X70877214Y-53519427D01*
X71022216Y-53330757D01*
X71025397Y-53327274D01*
X71088170Y-53256690D01*
X71124847Y-53208857D01*
X71139571Y-53176899D01*
X71136485Y-53153941D01*
X71133154Y-53148420D01*
X71036583Y-52984873D01*
X70954038Y-52796987D01*
X70942162Y-52764267D01*
X70917022Y-52687028D01*
X70900599Y-52617589D01*
X70891094Y-52542796D01*
X70886707Y-52449497D01*
X70885670Y-52351517D01*
X70886876Y-52230153D01*
X70892277Y-52137684D01*
X70903518Y-52060748D01*
X70922245Y-51985983D01*
X70936185Y-51941397D01*
X71010823Y-51766214D01*
X71115975Y-51593224D01*
X71241800Y-51437417D01*
X71312968Y-51367413D01*
X71440718Y-51252698D01*
X71399572Y-51156708D01*
X71339369Y-50974251D01*
X71305672Y-50776990D01*
X71299690Y-50578814D01*
X71322630Y-50393612D01*
X71330366Y-50361005D01*
X71389916Y-50184547D01*
X71473977Y-50011892D01*
X71576094Y-49853475D01*
X71689812Y-49719734D01*
X71771827Y-49647174D01*
X71862473Y-49577961D01*
X71823681Y-49486621D01*
X71759746Y-49291139D01*
X71726088Y-49083740D01*
X71723832Y-48877087D01*
X71752831Y-48688839D01*
X71779025Y-48605807D01*
X71817958Y-48506650D01*
X71861469Y-48412055D01*
X71863956Y-48407154D01*
X71943383Y-48251625D01*
X71856460Y-48074453D01*
X71788778Y-47919931D01*
X71746473Y-47777599D01*
X71726150Y-47630937D01*
X71724410Y-47463423D01*
X71725461Y-47437264D01*
X71752167Y-47214857D01*
X71813224Y-47009010D01*
X71911650Y-46811050D01*
X71979886Y-46706525D01*
X71988624Y-46683904D01*
X71979817Y-46656256D01*
X71948905Y-46615831D01*
X71891325Y-46554878D01*
X71889591Y-46553113D01*
X71739958Y-46376082D01*
X71629874Y-46187997D01*
X71557215Y-45983976D01*
X71519853Y-45759140D01*
X71515559Y-45694600D01*
X71515113Y-45517838D01*
X71534450Y-45364344D01*
X71576976Y-45218347D01*
X71646095Y-45064078D01*
X71655741Y-45045402D01*
X71735028Y-44893621D01*
X71647879Y-44715621D01*
X71604974Y-44621390D01*
X71566968Y-44526202D01*
X71540291Y-44446529D01*
X71535098Y-44426579D01*
X71516818Y-44304090D01*
X71510529Y-44159975D01*
X71516014Y-44012835D01*
X71533057Y-43881271D01*
X71541885Y-43841672D01*
X71571527Y-43747083D01*
X71613344Y-43640013D01*
X71661467Y-43533369D01*
X71710027Y-43440061D01*
X71753154Y-43372996D01*
X71757419Y-43367648D01*
X71799822Y-43316113D01*
X71718840Y-43190818D01*
X71616027Y-43003895D01*
X71549452Y-42813605D01*
X71516677Y-42610578D01*
X71514278Y-42404533D01*
X71541025Y-42179112D01*
X71600740Y-41974925D01*
X71696219Y-41785501D01*
X71830256Y-41604368D01*
X71886815Y-41541710D01*
X72000705Y-41421071D01*
X71955688Y-41357851D01*
X71903570Y-41271761D01*
X71848938Y-41160374D01*
X71798843Y-41039632D01*
X71760339Y-40925477D01*
X71753699Y-40901194D01*
X71734025Y-40789347D01*
X71723690Y-40652999D01*
X71722943Y-40508993D01*
X71732035Y-40374174D01*
X71744686Y-40292850D01*
X71784110Y-40160294D01*
X71846696Y-40014347D01*
X71924896Y-39870754D01*
X72000689Y-39758774D01*
X72096320Y-39633198D01*
X72005638Y-39521865D01*
X71880263Y-39335396D01*
X71790575Y-39131059D01*
X71737276Y-38914824D01*
X71721067Y-38692659D01*
X71742651Y-38470533D01*
X71802729Y-38254414D01*
X71844999Y-38155492D01*
X71903692Y-38033202D01*
X71764788Y-37953763D01*
X71687356Y-37902489D01*
X71596216Y-37831636D01*
X71506089Y-37752989D01*
X71466750Y-37715171D01*
X71315552Y-37535506D01*
X71201850Y-37338410D01*
X71126539Y-37127730D01*
X71090517Y-36907312D01*
X71094680Y-36681003D01*
X71139926Y-36452649D01*
X71158525Y-36393432D01*
X71215324Y-36225681D01*
X71149701Y-36139432D01*
X71026550Y-35944260D01*
X70940513Y-35734400D01*
X70892021Y-35515177D01*
X70881507Y-35291914D01*
X70909404Y-35069935D01*
X70976143Y-34854561D01*
X71035223Y-34730334D01*
X71091803Y-34626377D01*
X70994388Y-34518028D01*
X70864737Y-34347434D01*
X70765053Y-34155057D01*
X70722953Y-34042350D01*
X70698575Y-33958832D01*
X70683522Y-33877223D01*
X70675896Y-33782811D01*
X70673798Y-33661350D01*
X70677957Y-33517013D01*
X70692927Y-33396818D01*
X70722527Y-33284801D01*
X70770576Y-33165000D01*
X70814393Y-33073626D01*
X70875429Y-32951568D01*
X70770624Y-32825632D01*
X70642524Y-32641919D01*
X70544503Y-32438230D01*
X70480039Y-32223918D01*
X70452607Y-32008337D01*
X70451868Y-31968017D01*
X70469735Y-31771230D01*
X70520268Y-31568818D01*
X70598868Y-31373064D01*
X70700936Y-31196249D01*
X70778149Y-31096768D01*
X70830707Y-31033738D01*
X70859847Y-30985701D01*
X70872295Y-30937926D01*
X70874779Y-30885101D01*
X70884915Y-30766675D01*
X70911814Y-30630868D01*
X70951163Y-30497013D01*
X70975525Y-30433627D01*
X71015949Y-30338570D01*
X70865833Y-30189018D01*
X70707003Y-30006457D01*
X70588319Y-29813912D01*
X70508064Y-29607684D01*
X70464520Y-29384076D01*
X70458267Y-29311600D01*
X70459190Y-29266613D01*
X70920678Y-29266613D01*
X70944507Y-29450689D01*
X71003414Y-29622641D01*
X71036744Y-29686126D01*
X71118268Y-29795505D01*
X71229873Y-29903307D01*
X71360094Y-29999813D01*
X71493710Y-30073600D01*
X71567775Y-30109163D01*
X71624334Y-30139727D01*
X71654344Y-30160270D01*
X71656907Y-30164238D01*
X71645789Y-30187667D01*
X71615314Y-30237091D01*
X71570804Y-30304111D01*
X71540676Y-30347703D01*
X71454992Y-30479115D01*
X71396559Y-30594653D01*
X71361439Y-30707068D01*
X71345696Y-30829110D01*
X71345392Y-30973530D01*
X71345621Y-30979345D01*
X71348594Y-31082275D01*
X71347131Y-31150365D01*
X71340553Y-31190945D01*
X71328183Y-31211340D01*
X71323903Y-31214258D01*
X71276927Y-31249580D01*
X71214958Y-31307889D01*
X71148290Y-31378216D01*
X71087213Y-31449594D01*
X71042022Y-31511059D01*
X71035727Y-31521315D01*
X70962822Y-31685913D01*
X70924307Y-31865633D01*
X70921454Y-32049342D01*
X70955381Y-32225422D01*
X71024876Y-32390739D01*
X71125595Y-32536372D01*
X71261410Y-32667102D01*
X71385679Y-32756344D01*
X71447210Y-32798482D01*
X71491493Y-32833572D01*
X71509254Y-32854242D01*
X71509281Y-32854628D01*
X71496433Y-32878200D01*
X71461972Y-32925023D01*
X71412296Y-32986604D01*
X71389675Y-33013378D01*
X71322896Y-33099222D01*
X71258208Y-33195412D01*
X71208520Y-33282602D01*
X71204467Y-33290933D01*
X71174519Y-33357398D01*
X71155401Y-33413474D01*
X71144715Y-33472350D01*
X71140064Y-33547215D01*
X71139050Y-33650767D01*
X71140227Y-33756172D01*
X71145215Y-33832214D01*
X71156201Y-33891831D01*
X71175373Y-33947961D01*
X71197833Y-33998538D01*
X71279586Y-34143486D01*
X71382402Y-34268145D01*
X71515384Y-34382932D01*
X71565305Y-34418938D01*
X71634382Y-34468633D01*
X71687757Y-34510213D01*
X71717534Y-34537377D01*
X71721133Y-34543302D01*
X71707890Y-34565364D01*
X71672602Y-34610230D01*
X71621926Y-34669591D01*
X71601633Y-34692425D01*
X71485355Y-34840532D01*
X71406143Y-34987729D01*
X71359966Y-35143258D01*
X71343939Y-35283188D01*
X71348625Y-35460791D01*
X71383005Y-35618038D01*
X71450274Y-35762296D01*
X71553628Y-35900936D01*
X71657634Y-36006483D01*
X71802086Y-36140223D01*
X71708305Y-36285980D01*
X71627481Y-36429115D01*
X71577513Y-36564785D01*
X71553692Y-36708488D01*
X71549990Y-36807210D01*
X71570227Y-36995796D01*
X71629072Y-37171834D01*
X71723523Y-37330583D01*
X71850582Y-37467302D01*
X72007248Y-37577248D01*
X72052024Y-37600650D01*
X72148288Y-37637146D01*
X72282269Y-37671593D01*
X72435588Y-37700558D01*
X72537160Y-37717502D01*
X72622520Y-37732285D01*
X72683574Y-37743465D01*
X72712229Y-37749600D01*
X72713270Y-37750019D01*
X72702641Y-37766559D01*
X72668077Y-37808526D01*
X72614415Y-37870291D01*
X72546488Y-37946225D01*
X72515394Y-37980412D01*
X72403042Y-38109074D01*
X72319093Y-38220206D01*
X72258633Y-38322395D01*
X72216746Y-38424227D01*
X72188518Y-38534289D01*
X72183789Y-38559679D01*
X72174888Y-38724377D01*
X72201727Y-38895049D01*
X72260986Y-39061340D01*
X72349348Y-39212896D01*
X72420451Y-39298220D01*
X72477039Y-39349579D01*
X72557094Y-39412806D01*
X72647758Y-39478027D01*
X72699394Y-39512400D01*
X72890523Y-39635377D01*
X72686556Y-39767508D01*
X72594038Y-39831186D01*
X72505752Y-39898488D01*
X72433535Y-39960057D01*
X72398470Y-39995203D01*
X72301634Y-40130702D01*
X72229081Y-40284846D01*
X72184596Y-40446223D01*
X72171964Y-40603418D01*
X72176820Y-40663632D01*
X72211347Y-40830615D01*
X72269697Y-40977366D01*
X72356598Y-41111629D01*
X72476776Y-41241146D01*
X72587836Y-41336826D01*
X72663214Y-41398158D01*
X72724625Y-41449983D01*
X72765511Y-41486639D01*
X72779371Y-41502224D01*
X72761599Y-41515879D01*
X72713299Y-41544179D01*
X72641875Y-41582973D01*
X72555944Y-41627493D01*
X72390064Y-41721334D01*
X72259683Y-41818349D01*
X72158073Y-41924694D01*
X72078503Y-42046522D01*
X72061440Y-42079764D01*
X71993375Y-42253466D01*
X71964186Y-42420534D01*
X71972697Y-42588041D01*
X71974836Y-42600894D01*
X72009576Y-42745707D01*
X72063026Y-42872058D01*
X72141457Y-42991178D01*
X72251143Y-43114300D01*
X72274682Y-43137746D01*
X72341669Y-43204431D01*
X72395728Y-43260018D01*
X72430694Y-43298050D01*
X72440800Y-43311703D01*
X72426684Y-43330093D01*
X72388417Y-43371604D01*
X72332117Y-43429764D01*
X72274804Y-43487307D01*
X72159118Y-43613166D01*
X72075623Y-43732608D01*
X72018054Y-43856924D01*
X71980150Y-43997405D01*
X71974248Y-44029179D01*
X71961787Y-44120765D01*
X71961940Y-44198109D01*
X71975393Y-44284475D01*
X71982779Y-44318527D01*
X72017268Y-44444798D01*
X72062265Y-44551864D01*
X72125583Y-44655057D01*
X72208973Y-44762450D01*
X72316487Y-44891641D01*
X72216663Y-45002079D01*
X72101771Y-45156309D01*
X72020111Y-45324964D01*
X71973968Y-45500936D01*
X71965625Y-45677122D01*
X71974836Y-45754728D01*
X72024375Y-45939075D01*
X72105850Y-46100263D01*
X72221343Y-46240821D01*
X72372937Y-46363282D01*
X72562716Y-46470177D01*
X72564179Y-46470873D01*
X72649880Y-46512858D01*
X72719376Y-46549189D01*
X72764951Y-46575678D01*
X72779140Y-46587532D01*
X72763938Y-46606366D01*
X72722863Y-46644940D01*
X72663163Y-46696630D01*
X72625433Y-46727913D01*
X72491730Y-46843400D01*
X72390054Y-46946414D01*
X72314622Y-47043523D01*
X72259652Y-47141294D01*
X72257704Y-47145514D01*
X72194456Y-47330070D01*
X72173312Y-47514246D01*
X72194054Y-47696687D01*
X72256464Y-47876036D01*
X72360322Y-48050938D01*
X72414637Y-48120810D01*
X72522574Y-48250436D01*
X72417300Y-48374810D01*
X72295088Y-48546170D01*
X72214989Y-48721497D01*
X72177004Y-48900449D01*
X72181131Y-49082684D01*
X72227371Y-49267859D01*
X72315723Y-49455632D01*
X72417834Y-49608964D01*
X72461317Y-49668480D01*
X72492369Y-49714242D01*
X72504299Y-49736390D01*
X72504300Y-49736428D01*
X72486444Y-49750231D01*
X72438410Y-49777188D01*
X72368500Y-49812805D01*
X72319092Y-49836661D01*
X72136211Y-49942169D01*
X71989689Y-50068765D01*
X71878471Y-50217727D01*
X71801505Y-50390332D01*
X71772672Y-50499226D01*
X71753150Y-50667794D01*
X71768141Y-50829557D01*
X71819196Y-50990336D01*
X71907863Y-51155955D01*
X71972621Y-51250397D01*
X72021529Y-51318781D01*
X72058957Y-51374356D01*
X72079073Y-51408328D01*
X72080967Y-51413836D01*
X72063114Y-51429100D01*
X72015114Y-51457306D01*
X71945304Y-51493762D01*
X71897257Y-51517243D01*
X71713445Y-51624196D01*
X71566383Y-51751983D01*
X71456183Y-51900448D01*
X71382955Y-52069434D01*
X71346811Y-52258784D01*
X71343939Y-52301188D01*
X71345657Y-52454574D01*
X71368592Y-52591764D01*
X71415981Y-52718523D01*
X71491059Y-52840614D01*
X71597061Y-52963803D01*
X71737222Y-53093852D01*
X71833312Y-53172999D01*
X71956075Y-53270823D01*
X71748646Y-53375163D01*
X71607635Y-53450179D01*
X71497892Y-53519164D01*
X71410354Y-53588961D01*
X71335961Y-53666414D01*
X71295135Y-53717717D01*
X71205544Y-53870735D01*
X71149479Y-54041504D01*
X71127785Y-54221097D01*
X71141308Y-54400586D01*
X71190895Y-54571045D01*
X71210221Y-54613643D01*
X71298743Y-54760665D01*
X71410295Y-54883900D01*
X71551841Y-54990016D01*
X71675705Y-55059295D01*
X71756326Y-55100923D01*
X71820509Y-55136226D01*
X71860271Y-55160683D01*
X71869300Y-55168964D01*
X71857862Y-55190537D01*
X71827119Y-55238357D01*
X71782421Y-55304259D01*
X71752046Y-55347787D01*
X71665113Y-55481066D01*
X71606186Y-55598971D01*
X71571314Y-55713899D01*
X71556550Y-55838244D01*
X71556854Y-55960433D01*
X71563479Y-56068612D01*
X71575225Y-56149497D01*
X71595167Y-56218081D01*
X71622820Y-56282002D01*
X71720168Y-56438936D01*
X71853131Y-56582811D01*
X72006222Y-56700836D01*
X72071498Y-56745149D01*
X72120160Y-56781585D01*
X72143565Y-56803575D01*
X72144467Y-56805871D01*
X72131415Y-56827568D01*
X72096608Y-56872500D01*
X72046568Y-56932400D01*
X72025374Y-56956843D01*
X71900941Y-57126104D01*
X71815073Y-57302737D01*
X71767487Y-57482731D01*
X71757897Y-57662074D01*
X71786017Y-57836755D01*
X71851563Y-58002760D01*
X71954249Y-58156079D01*
X72093789Y-58292699D01*
X72121909Y-58314541D01*
X72183143Y-58360614D01*
X72231145Y-58396959D01*
X72255675Y-58415819D01*
X72255827Y-58415941D01*
X72258169Y-58441304D01*
X72247649Y-58493595D01*
X72231918Y-58545255D01*
X72183937Y-58742356D01*
X72177349Y-58932183D01*
X72211578Y-59113030D01*
X72286052Y-59283190D01*
X72400197Y-59440954D01*
X72553439Y-59584616D01*
X72590759Y-59612999D01*
X72691989Y-59687309D01*
X72647692Y-59808246D01*
X72620792Y-59901747D01*
X72606635Y-60007033D01*
X72602903Y-60119683D01*
X72611971Y-60276788D01*
X72643358Y-60411667D01*
X72701996Y-60538943D01*
X72786965Y-60665509D01*
X72879180Y-60788002D01*
X72839907Y-60929634D01*
X72806630Y-61122446D01*
X72815150Y-61309108D01*
X72865267Y-61488801D01*
X72956782Y-61660706D01*
X73046370Y-61777114D01*
X73093615Y-61833625D01*
X73127074Y-61878424D01*
X73139300Y-61901249D01*
X73126715Y-61925345D01*
X73093606Y-61971884D01*
X73046940Y-62031118D01*
X73043405Y-62035417D01*
X72924024Y-62208839D01*
X72845579Y-62387741D01*
X72807880Y-62568974D01*
X72810736Y-62749391D01*
X72853955Y-62925847D01*
X72937348Y-63095194D01*
X73060723Y-63254285D01*
X73120926Y-63314068D01*
X73270596Y-63452639D01*
X73187562Y-63585328D01*
X73091477Y-63764013D01*
X73034016Y-63933876D01*
X73014044Y-64100645D01*
X73030430Y-64270045D01*
X73042020Y-64321267D01*
X73061716Y-64390310D01*
X73085970Y-64453758D01*
X73119926Y-64522187D01*
X73168726Y-64606176D01*
X73222999Y-64693397D01*
X73234826Y-64719767D01*
X73233094Y-64749793D01*
X73214759Y-64793314D01*
X73176775Y-64860170D01*
X73165646Y-64878711D01*
X73073953Y-65065581D01*
X73024535Y-65251497D01*
X73017336Y-65435738D01*
X73052299Y-65617585D01*
X73129367Y-65796316D01*
X73248482Y-65971212D01*
X73252491Y-65976131D01*
X73300338Y-66036338D01*
X73335353Y-66083766D01*
X73350758Y-66109174D01*
X73350967Y-66110338D01*
X73338195Y-66132284D01*
X73304699Y-66176492D01*
X73257704Y-66233430D01*
X73257265Y-66233943D01*
X73139323Y-66400576D01*
X73060227Y-66576789D01*
X73020566Y-66758725D01*
X73020930Y-66942530D01*
X73061908Y-67124349D01*
X73105249Y-67228875D01*
X73165368Y-67334585D01*
X73238764Y-67427749D01*
X73333338Y-67516495D01*
X73456990Y-67608955D01*
X73508007Y-67643306D01*
X73588174Y-67697265D01*
X73653381Y-67743244D01*
X73696572Y-67776125D01*
X73710800Y-67790423D01*
X73694035Y-67806633D01*
X73648860Y-67839558D01*
X73582955Y-67883786D01*
X73532220Y-67916294D01*
X73441623Y-67977833D01*
X73352781Y-68045747D01*
X73280269Y-68108640D01*
X73259018Y-68129927D01*
X73143484Y-68281532D01*
X73063607Y-68448315D01*
X73020918Y-68624312D01*
X73016947Y-68803563D01*
X73046385Y-68958216D01*
X73104197Y-69113574D01*
X73181571Y-69246444D01*
X73285150Y-69365453D01*
X73421579Y-69479227D01*
X73478876Y-69519789D01*
X73624601Y-69619359D01*
X73556576Y-69701097D01*
X73449304Y-69834068D01*
X73368510Y-69945558D01*
X73310272Y-70043548D01*
X73270671Y-70136023D01*
X73245786Y-70230964D01*
X73231698Y-70336354D01*
X73229233Y-70367679D01*
X73236355Y-70555162D01*
X73283610Y-70731851D01*
X73369600Y-70895144D01*
X73492924Y-71042434D01*
X73652182Y-71171118D01*
X73665951Y-71180217D01*
X73835581Y-71290703D01*
X73775570Y-71409610D01*
X73693183Y-71610329D01*
X73652397Y-71803730D01*
X73653176Y-71990134D01*
X73690419Y-72155267D01*
X73743904Y-72288053D01*
X73810791Y-72398279D01*
X73901950Y-72502632D01*
X73941437Y-72540705D01*
X74093661Y-72655059D01*
X74262296Y-72731783D01*
X74442547Y-72769887D01*
X74629618Y-72768381D01*
X74818712Y-72726273D01*
X74826627Y-72723601D01*
X74902896Y-72690758D01*
X74991696Y-72642812D01*
X75064285Y-72596547D01*
X75135020Y-72549423D01*
X75184778Y-72524529D01*
X75225399Y-72517353D01*
X75260791Y-72521647D01*
X75315751Y-72531122D01*
X75396444Y-72542789D01*
X75486514Y-72554302D01*
X75497067Y-72555549D01*
X75581210Y-72568724D01*
X75651405Y-72585760D01*
X75694711Y-72603391D01*
X75698725Y-72606440D01*
X75757959Y-72646325D01*
X75844443Y-72688258D01*
X75943816Y-72726495D01*
X76041719Y-72755289D01*
X76098192Y-72766280D01*
X76281046Y-72771221D01*
X76459980Y-72737600D01*
X76628528Y-72668913D01*
X76780226Y-72568655D01*
X76908607Y-72440322D01*
X77007208Y-72287410D01*
X77015444Y-72270340D01*
X77056600Y-72164197D01*
X77087729Y-72048466D01*
X77106074Y-71937098D01*
X77108879Y-71844041D01*
X77105219Y-71815985D01*
X77107786Y-71768655D01*
X77130838Y-71695774D01*
X77175806Y-71593065D01*
X77189421Y-71564728D01*
X77230087Y-71480496D01*
X77263736Y-71409524D01*
X77286028Y-71361045D01*
X77292482Y-71345636D01*
X77314436Y-71341690D01*
X77366602Y-71358610D01*
X77432227Y-71388961D01*
X77626788Y-71469570D01*
X77812507Y-71509628D01*
X77992253Y-71509267D01*
X78168894Y-71468615D01*
X78269907Y-71427173D01*
X78432176Y-71328523D01*
X78567216Y-71202428D01*
X78672369Y-71054352D01*
X78744977Y-70889760D01*
X78782382Y-70714118D01*
X78781926Y-70532889D01*
X78760869Y-70417788D01*
X78704478Y-70253657D01*
X78622722Y-70111374D01*
X78510267Y-69983802D01*
X78361780Y-69863804D01*
X78330889Y-69842509D01*
X78175293Y-69737514D01*
X78303746Y-69588637D01*
X78426797Y-69427883D01*
X78511650Y-69272709D01*
X78560706Y-69116706D01*
X78576369Y-68953467D01*
X78572759Y-68870995D01*
X78551480Y-68738636D01*
X78507930Y-68610552D01*
X78437867Y-68476691D01*
X78351827Y-68347407D01*
X78303023Y-68278042D01*
X78266214Y-68223140D01*
X78246556Y-68190524D01*
X78244822Y-68184970D01*
X78265352Y-68174445D01*
X78315487Y-68149899D01*
X78386620Y-68115527D01*
X78435477Y-68092084D01*
X78613388Y-67986605D01*
X78758856Y-67858558D01*
X78870921Y-67712241D01*
X78948624Y-67551950D01*
X78991005Y-67381981D01*
X78997104Y-67206631D01*
X78965962Y-67030196D01*
X78896619Y-66856973D01*
X78788116Y-66691257D01*
X78756730Y-66653752D01*
X78709532Y-66597274D01*
X78676173Y-66552535D01*
X78664068Y-66529768D01*
X78676656Y-66506244D01*
X78710006Y-66458789D01*
X78757891Y-66396088D01*
X78778628Y-66370038D01*
X78892456Y-66198827D01*
X78965353Y-66021364D01*
X78997597Y-65841086D01*
X78989468Y-65661425D01*
X78941244Y-65485818D01*
X78853203Y-65317700D01*
X78725626Y-65160504D01*
X78676588Y-65113153D01*
X78529703Y-64979094D01*
X78607779Y-64861504D01*
X78684786Y-64735493D01*
X78735531Y-64623844D01*
X78764613Y-64511940D01*
X78776630Y-64385161D01*
X78777695Y-64321267D01*
X78769214Y-64165073D01*
X78740663Y-64032875D01*
X78687381Y-63909236D01*
X78620826Y-63801752D01*
X78585331Y-63746953D01*
X78562793Y-63705975D01*
X78558508Y-63693036D01*
X78569407Y-63667413D01*
X78597318Y-63617642D01*
X78632574Y-63560276D01*
X78669748Y-63491679D01*
X78712796Y-63396405D01*
X78755722Y-63288414D01*
X78784675Y-63206120D01*
X78863253Y-62967371D01*
X79077514Y-63178215D01*
X79200405Y-63293375D01*
X79307778Y-63379370D01*
X79408648Y-63441536D01*
X79512024Y-63485210D01*
X79626920Y-63515729D01*
X79657651Y-63521771D01*
X79820231Y-63532245D01*
X79991394Y-63504082D01*
X80174144Y-63436770D01*
X80183651Y-63432363D01*
X80234229Y-63406537D01*
X80283471Y-63375639D01*
X80336642Y-63335124D01*
X80399006Y-63280453D01*
X80475830Y-63207082D01*
X80572378Y-63110469D01*
X80656945Y-63024088D01*
X80752272Y-62927639D01*
X80837052Y-62844583D01*
X80907193Y-62778704D01*
X80958602Y-62733788D01*
X80987185Y-62713620D01*
X80991697Y-62714533D01*
X80986932Y-62745086D01*
X80973427Y-62809527D01*
X80952798Y-62900695D01*
X80926665Y-63011432D01*
X80898160Y-63128445D01*
X80866863Y-63257781D01*
X80838333Y-63380717D01*
X80814570Y-63488245D01*
X80797573Y-63571357D01*
X80789972Y-63615834D01*
X80789600Y-63762445D01*
X80824066Y-63929548D01*
X80878811Y-64081961D01*
X80933981Y-64213073D01*
X80835175Y-64325378D01*
X80715146Y-64488409D01*
X80631813Y-64660957D01*
X80586709Y-64838312D01*
X80581367Y-65015763D01*
X80589669Y-65079894D01*
X80632289Y-65244205D01*
X80702190Y-65392801D01*
X80803427Y-65531682D01*
X80940053Y-65666845D01*
X81042483Y-65750017D01*
X81106467Y-65800583D01*
X81155022Y-65842209D01*
X81180105Y-65867881D01*
X81181859Y-65871532D01*
X81164402Y-65886674D01*
X81116413Y-65915937D01*
X81045447Y-65954964D01*
X80967832Y-65995006D01*
X80786362Y-66098486D01*
X80643170Y-66208620D01*
X80534315Y-66328937D01*
X80463516Y-66446623D01*
X80395087Y-66632692D01*
X80368552Y-66819458D01*
X80383915Y-67004860D01*
X80441179Y-67186839D01*
X80462070Y-67231613D01*
X80564197Y-67394870D01*
X80693372Y-67526851D01*
X80852120Y-67629744D01*
X80988233Y-67687781D01*
X81150883Y-67745149D01*
X81156908Y-67971628D01*
X81162933Y-68198108D01*
X81047759Y-68322509D01*
X80922223Y-68485559D01*
X80837574Y-68657851D01*
X80794021Y-68836893D01*
X80791777Y-69020193D01*
X80831053Y-69205262D01*
X80912059Y-69389607D01*
X80951700Y-69455659D01*
X81001351Y-69536334D01*
X81027336Y-69589375D01*
X81031699Y-69620781D01*
X81016478Y-69636552D01*
X81013586Y-69637628D01*
X80989737Y-69654878D01*
X80944436Y-69694663D01*
X80886083Y-69749500D01*
X80864931Y-69770077D01*
X80734293Y-69925908D01*
X80641151Y-70099234D01*
X80587267Y-70286295D01*
X80577989Y-70456791D01*
X80606538Y-70628008D01*
X80669105Y-70793027D01*
X80761880Y-70944932D01*
X80881052Y-71076805D01*
X81022810Y-71181729D01*
X81103202Y-71222911D01*
X81169922Y-71254721D01*
X81209652Y-71284881D01*
X81234927Y-71326911D01*
X81256310Y-71388075D01*
X81336418Y-71586973D01*
X81448229Y-71785997D01*
X81583440Y-71972885D01*
X81733745Y-72135376D01*
X81804728Y-72197788D01*
X81914344Y-72276317D01*
X82048092Y-72355695D01*
X82191624Y-72428581D01*
X82330591Y-72487635D01*
X82440503Y-72523042D01*
X82688368Y-72564389D01*
X82942568Y-72566772D01*
X83195800Y-72531302D01*
X83440757Y-72459091D01*
X83670135Y-72351250D01*
X83705137Y-72330620D01*
X83841903Y-72233930D01*
X83982175Y-72110986D01*
X84112768Y-71974441D01*
X84220497Y-71836945D01*
X84222166Y-71834509D01*
X84322344Y-71687893D01*
X84408780Y-71703455D01*
X84608309Y-71720813D01*
X84799831Y-71701189D01*
X84977504Y-71645912D01*
X85135486Y-71556312D01*
X85169241Y-71530324D01*
X85310122Y-71390327D01*
X85414084Y-71232028D01*
X85480016Y-71059432D01*
X85506806Y-70876540D01*
X85493344Y-70687356D01*
X85448878Y-70523100D01*
X85411524Y-70421209D01*
X85389203Y-70351305D01*
X85384431Y-70304932D01*
X85399729Y-70273636D01*
X85437613Y-70248961D01*
X85500603Y-70222452D01*
X85543512Y-70205380D01*
X85675683Y-70143069D01*
X85785371Y-70068886D01*
X85840238Y-70021417D01*
X85970700Y-69880053D01*
X86061336Y-69731930D01*
X86114648Y-69571022D01*
X86133138Y-69391306D01*
X86131689Y-69319554D01*
X86110069Y-69147473D01*
X86060874Y-68995491D01*
X85980761Y-68858392D01*
X85866385Y-68730964D01*
X85714402Y-68607994D01*
X85644892Y-68560562D01*
X85563736Y-68506883D01*
X85497425Y-68462061D01*
X85452911Y-68430862D01*
X85437133Y-68418114D01*
X85453728Y-68404758D01*
X85498762Y-68373316D01*
X85565111Y-68328664D01*
X85635705Y-68282166D01*
X85771874Y-68187226D01*
X85876399Y-68098711D01*
X85957280Y-68008204D01*
X86022518Y-67907285D01*
X86057355Y-67838505D01*
X86096371Y-67743482D01*
X86119031Y-67653009D01*
X86130506Y-67545385D01*
X86131550Y-67527043D01*
X86126340Y-67345744D01*
X86088861Y-67181555D01*
X86016534Y-67028702D01*
X85906779Y-66881409D01*
X85790929Y-66764278D01*
X85650823Y-66635897D01*
X85816715Y-66476240D01*
X85941021Y-66344279D01*
X86030290Y-66218211D01*
X86089061Y-66088905D01*
X86121874Y-65947229D01*
X86131483Y-65843186D01*
X86122752Y-65643788D01*
X86075876Y-65462751D01*
X85990849Y-65300060D01*
X85867664Y-65155701D01*
X85761243Y-65067377D01*
X85667863Y-65000097D01*
X85604380Y-64952851D01*
X85567982Y-64918799D01*
X85555857Y-64891102D01*
X85565193Y-64862920D01*
X85593178Y-64827413D01*
X85637000Y-64777742D01*
X85640484Y-64773679D01*
X85748373Y-64639582D01*
X85826475Y-64521414D01*
X85878804Y-64409622D01*
X85909378Y-64294652D01*
X85922213Y-64166951D01*
X85923264Y-64100995D01*
X85919850Y-64003737D01*
X85908067Y-63920891D01*
X85884244Y-63834141D01*
X85851507Y-63742918D01*
X85818963Y-63655019D01*
X85801196Y-63598590D01*
X85796809Y-63565977D01*
X85804404Y-63549529D01*
X85815168Y-63543858D01*
X85900346Y-63509652D01*
X86003526Y-63462471D01*
X86107887Y-63410497D01*
X86196605Y-63361911D01*
X86225324Y-63344376D01*
X86326843Y-63279231D01*
X86479946Y-63435892D01*
X86639418Y-63574861D01*
X86805664Y-63672644D01*
X86977996Y-63728986D01*
X87155724Y-63743631D01*
X87274391Y-63730565D01*
X87467428Y-63676320D01*
X87634431Y-63589264D01*
X87775882Y-63468922D01*
X87892262Y-63314820D01*
X87984056Y-63126483D01*
X88030122Y-62987767D01*
X88051938Y-62915422D01*
X88071374Y-62859516D01*
X88083880Y-62832739D01*
X88107129Y-62835457D01*
X88156369Y-62857692D01*
X88222606Y-62895128D01*
X88251449Y-62913138D01*
X88376988Y-62989760D01*
X88481986Y-63043074D01*
X88578307Y-63077016D01*
X88677815Y-63095518D01*
X88792374Y-63102516D01*
X88823800Y-63102922D01*
X88923048Y-63102234D01*
X88994993Y-63096758D01*
X89054622Y-63083596D01*
X89116923Y-63059847D01*
X89168173Y-63036310D01*
X89263077Y-62985631D01*
X89365297Y-62922332D01*
X89439342Y-62870035D01*
X89500885Y-62824221D01*
X89548175Y-62791917D01*
X89572632Y-62778910D01*
X89574051Y-62779158D01*
X89585889Y-62800162D01*
X89612025Y-62850323D01*
X89647929Y-62920880D01*
X89669871Y-62964547D01*
X89782545Y-63151296D01*
X89915392Y-63300987D01*
X90069004Y-63414097D01*
X90243978Y-63491105D01*
X90363466Y-63520931D01*
X90537571Y-63532259D01*
X90714122Y-63503858D01*
X90887436Y-63437543D01*
X91051827Y-63335130D01*
X91119464Y-63279460D01*
X91236611Y-63175048D01*
X91400747Y-63239947D01*
X91490993Y-63273966D01*
X91578760Y-63304271D01*
X91647064Y-63325041D01*
X91654842Y-63327039D01*
X91700031Y-63339248D01*
X91727706Y-63354564D01*
X91740361Y-63381559D01*
X91740487Y-63428807D01*
X91730577Y-63504881D01*
X91722257Y-63558864D01*
X91714738Y-63740498D01*
X91746025Y-63919685D01*
X91812795Y-64089830D01*
X91911723Y-64244336D01*
X92039488Y-64376608D01*
X92184024Y-64475379D01*
X92257728Y-64508164D01*
X92354574Y-64541716D01*
X92455966Y-64569732D01*
X92475659Y-64574227D01*
X92558597Y-64593258D01*
X92624616Y-64610109D01*
X92663620Y-64622127D01*
X92669569Y-64625147D01*
X92668288Y-64648793D01*
X92655453Y-64702467D01*
X92633571Y-64776268D01*
X92623294Y-64807867D01*
X92573626Y-64991918D01*
X92555752Y-65158997D01*
X92570164Y-65320631D01*
X92617354Y-65488352D01*
X92656481Y-65585149D01*
X92705003Y-65695447D01*
X92594173Y-65812634D01*
X92476661Y-65964606D01*
X92396943Y-66127918D01*
X92353671Y-66297787D01*
X92345494Y-66469430D01*
X92371065Y-66638063D01*
X92429034Y-66798903D01*
X92518054Y-66947167D01*
X92636775Y-67078072D01*
X92783847Y-67186834D01*
X92957924Y-67268669D01*
X93009508Y-67285566D01*
X93099467Y-67312467D01*
X93099467Y-67819960D01*
X93006180Y-67919690D01*
X92895319Y-68067325D01*
X92815073Y-68236413D01*
X92769653Y-68416384D01*
X92760800Y-68535651D01*
X92773660Y-68652531D01*
X92808609Y-68784527D01*
X92860204Y-68914601D01*
X92912275Y-69009683D01*
X92942973Y-69059431D01*
X92962826Y-69101903D01*
X92974260Y-69148551D01*
X92979706Y-69210829D01*
X92981592Y-69300189D01*
X92981848Y-69337767D01*
X92983953Y-69446690D01*
X92990356Y-69527286D01*
X93003336Y-69593511D01*
X93025172Y-69659322D01*
X93040611Y-69697600D01*
X93074121Y-69793581D01*
X93103602Y-69905264D01*
X93120332Y-69993933D01*
X93176245Y-70249966D01*
X93268770Y-70492679D01*
X93394706Y-70717723D01*
X93550850Y-70920748D01*
X93734001Y-71097404D01*
X93940958Y-71243344D01*
X94100916Y-71326072D01*
X94238042Y-71382773D01*
X94360615Y-71422069D01*
X94482490Y-71446699D01*
X94617517Y-71459403D01*
X94779551Y-71462920D01*
X94792800Y-71462891D01*
X94914115Y-71461664D01*
X95005459Y-71457813D01*
X95079187Y-71449641D01*
X95147651Y-71435454D01*
X95223205Y-71413556D01*
X95274980Y-71396707D01*
X95523009Y-71294022D01*
X95745222Y-71158649D01*
X95910976Y-71021419D01*
X96052217Y-70888570D01*
X96223171Y-70878881D01*
X96410062Y-70848889D01*
X96578719Y-70784040D01*
X96726461Y-70688849D01*
X96850609Y-70567831D01*
X96948482Y-70425502D01*
X97017400Y-70266377D01*
X97054683Y-70094972D01*
X97057650Y-69915800D01*
X97023622Y-69733379D01*
X96977344Y-69608359D01*
X96917435Y-69475350D01*
X97032695Y-69339440D01*
X97096274Y-69257664D01*
X97156171Y-69169104D01*
X97200327Y-69091709D01*
X97203335Y-69085440D01*
X97228489Y-69027204D01*
X97244697Y-68973500D01*
X97253866Y-68912254D01*
X97257900Y-68831392D01*
X97258717Y-68734517D01*
X97257653Y-68626757D01*
X97253162Y-68549149D01*
X97243296Y-68489534D01*
X97226105Y-68435756D01*
X97201986Y-68380644D01*
X97158869Y-68296240D01*
X97109686Y-68210762D01*
X97081485Y-68166919D01*
X97017715Y-68074233D01*
X97163790Y-67943448D01*
X97253319Y-67856649D01*
X97319789Y-67773601D01*
X97376735Y-67676772D01*
X97390124Y-67650271D01*
X97426171Y-67575254D01*
X97449406Y-67516787D01*
X97462638Y-67461376D01*
X97468672Y-67395528D01*
X97470316Y-67305751D01*
X97470374Y-67264531D01*
X97469221Y-67158971D01*
X97464152Y-67081836D01*
X97452737Y-67019245D01*
X97432549Y-66957315D01*
X97405017Y-66891009D01*
X97339669Y-66740834D01*
X97421830Y-66647592D01*
X97546149Y-66485885D01*
X97631113Y-66325638D01*
X97679098Y-66161205D01*
X97692633Y-66004360D01*
X97675585Y-65840501D01*
X97627722Y-65677254D01*
X97553970Y-65526042D01*
X97459254Y-65398286D01*
X97411175Y-65351554D01*
X97366302Y-65312523D01*
X97310297Y-65263548D01*
X97295833Y-65250859D01*
X97225144Y-65188793D01*
X97291033Y-65093027D01*
X97338267Y-65017576D01*
X97387767Y-64928210D01*
X97413652Y-64876222D01*
X97440014Y-64815185D01*
X97456746Y-64759582D01*
X97465965Y-64696607D01*
X97469786Y-64613457D01*
X97470383Y-64532933D01*
X97469371Y-64429148D01*
X97464732Y-64354511D01*
X97454060Y-64295854D01*
X97434951Y-64240009D01*
X97404999Y-64173809D01*
X97404661Y-64173100D01*
X97354153Y-64081109D01*
X97290142Y-63982755D01*
X97238932Y-63914908D01*
X97138926Y-63794300D01*
X97244089Y-63667933D01*
X97368216Y-63489823D01*
X97452670Y-63300395D01*
X97482433Y-63192254D01*
X97498551Y-63123939D01*
X97513018Y-63088273D01*
X97532982Y-63076498D01*
X97565594Y-63079852D01*
X97572986Y-63081312D01*
X97708745Y-63101207D01*
X97847421Y-63109047D01*
X97972407Y-63104326D01*
X98033415Y-63095358D01*
X98109428Y-63071835D01*
X98211099Y-63028997D01*
X98328898Y-62971064D01*
X98397563Y-62934044D01*
X98489124Y-62883527D01*
X98566794Y-62841431D01*
X98623425Y-62811573D01*
X98651872Y-62797770D01*
X98653645Y-62797267D01*
X98656805Y-62817258D01*
X98659067Y-62872548D01*
X98660308Y-62956108D01*
X98660403Y-63060911D01*
X98659743Y-63141225D01*
X98655717Y-63485183D01*
X98723481Y-63628239D01*
X98825859Y-63799182D01*
X98956535Y-63939023D01*
X99116017Y-64048144D01*
X99304816Y-64126924D01*
X99437449Y-64160826D01*
X99516011Y-64177321D01*
X99576497Y-64191038D01*
X99608666Y-64199622D01*
X99611239Y-64200816D01*
X99607650Y-64222088D01*
X99593253Y-64274679D01*
X99570575Y-64349731D01*
X99552431Y-64406862D01*
X99521018Y-64509745D01*
X99502563Y-64590023D01*
X99494572Y-64664505D01*
X99494556Y-64750001D01*
X99496049Y-64787299D01*
X99522889Y-64974143D01*
X99586670Y-65143731D01*
X99689577Y-65301282D01*
X99731986Y-65350960D01*
X99830467Y-65459903D01*
X99830467Y-66008583D01*
X99704610Y-66086266D01*
X99561706Y-66193842D01*
X99446820Y-66325363D01*
X99356878Y-66480267D01*
X99326646Y-66546476D01*
X99307330Y-66602083D01*
X99296513Y-66660223D01*
X99291781Y-66734034D01*
X99290717Y-66836653D01*
X99290717Y-66840100D01*
X99291740Y-66944000D01*
X99296411Y-67018775D01*
X99307125Y-67077614D01*
X99326282Y-67133705D01*
X99356133Y-67199933D01*
X99403345Y-67284918D01*
X99466999Y-67381062D01*
X99534185Y-67469020D01*
X99541342Y-67477488D01*
X99595318Y-67542589D01*
X99636655Y-67596316D01*
X99658947Y-67630174D01*
X99661095Y-67636238D01*
X99644535Y-67656873D01*
X99601860Y-67690380D01*
X99560554Y-67717885D01*
X99459314Y-67790173D01*
X99357802Y-67877990D01*
X99267506Y-67970316D01*
X99199911Y-68056129D01*
X99187668Y-68075679D01*
X99113229Y-68243661D01*
X99075290Y-68425951D01*
X99074782Y-68613907D01*
X99110572Y-68792297D01*
X99177819Y-68951146D01*
X99277655Y-69093141D01*
X99413512Y-69222446D01*
X99538789Y-69312112D01*
X99599979Y-69354407D01*
X99643817Y-69390195D01*
X99660942Y-69411826D01*
X99660948Y-69412006D01*
X99647929Y-69436679D01*
X99613043Y-69484103D01*
X99562815Y-69545625D01*
X99541190Y-69570756D01*
X99473974Y-69655883D01*
X99408999Y-69751702D01*
X99359392Y-69838720D01*
X99355981Y-69845767D01*
X99326168Y-69912084D01*
X99307108Y-69968085D01*
X99296428Y-70026892D01*
X99291755Y-70101631D01*
X99290717Y-70205425D01*
X99290717Y-70206698D01*
X99291471Y-70308578D01*
X99295597Y-70381599D01*
X99305884Y-70439230D01*
X99325125Y-70494941D01*
X99356111Y-70562203D01*
X99370428Y-70591330D01*
X99473178Y-70755696D01*
X99605219Y-70890551D01*
X99768991Y-70998269D01*
X99809300Y-71018455D01*
X99871831Y-71046943D01*
X99924523Y-71065728D01*
X99979130Y-71076820D01*
X100047408Y-71082230D01*
X100141113Y-71083967D01*
X100193118Y-71084086D01*
X100439353Y-71084156D01*
X100552951Y-71162175D01*
X100774371Y-71294648D01*
X100997861Y-71387491D01*
X101230916Y-71443059D01*
X101481028Y-71463707D01*
X101513217Y-71463950D01*
X101689289Y-71458500D01*
X101839381Y-71439974D01*
X101978692Y-71405108D01*
X102122421Y-71350637D01*
X102195717Y-71317385D01*
X102349370Y-71237602D01*
X102483198Y-71150264D01*
X102615258Y-71043124D01*
X102661087Y-71001740D01*
X102783217Y-70889168D01*
X102956686Y-70877548D01*
X103148348Y-70844728D01*
X103322197Y-70774944D01*
X103474502Y-70671155D01*
X103601530Y-70536323D01*
X103699549Y-70373407D01*
X103746829Y-70250995D01*
X103782904Y-70079229D01*
X103782529Y-69908063D01*
X103745005Y-69731761D01*
X103669633Y-69544584D01*
X103657867Y-69520833D01*
X103627048Y-69457236D01*
X103606987Y-69410861D01*
X103602039Y-69392076D01*
X103622169Y-69379587D01*
X103668875Y-69351328D01*
X103732374Y-69313215D01*
X103737620Y-69310077D01*
X103898503Y-69192329D01*
X104027980Y-69052645D01*
X104124099Y-68895701D01*
X104184907Y-68726173D01*
X104208453Y-68548737D01*
X104192784Y-68368071D01*
X104169121Y-68276371D01*
X104140141Y-68193167D01*
X104108834Y-68115050D01*
X104087271Y-68069324D01*
X104048267Y-67996797D01*
X104124825Y-67836490D01*
X104159472Y-67761464D01*
X104181707Y-67702164D01*
X104194272Y-67644894D01*
X104199907Y-67575956D01*
X104201354Y-67481653D01*
X104201383Y-67453933D01*
X104202128Y-67352545D01*
X104205884Y-67281935D01*
X104214933Y-67230553D01*
X104231556Y-67186848D01*
X104258036Y-67139273D01*
X104266200Y-67125850D01*
X104358234Y-66945884D01*
X104409450Y-66770752D01*
X104419870Y-66596770D01*
X104389519Y-66420251D01*
X104318418Y-66237511D01*
X104272335Y-66150870D01*
X104168037Y-65968973D01*
X104316357Y-65831651D01*
X104453026Y-65680685D01*
X104551609Y-65517432D01*
X104610982Y-65344909D01*
X104630020Y-65166132D01*
X104616594Y-65026702D01*
X104576736Y-64872201D01*
X104514729Y-64736429D01*
X104424265Y-64608107D01*
X104319940Y-64496125D01*
X104163330Y-64342899D01*
X104241009Y-64225906D01*
X104342496Y-64042512D01*
X104401886Y-63861107D01*
X104419330Y-63680973D01*
X104394980Y-63501396D01*
X104394106Y-63497956D01*
X104349638Y-63360286D01*
X104288253Y-63239406D01*
X104202698Y-63123515D01*
X104092549Y-63007413D01*
X104027768Y-62944032D01*
X103976167Y-62892470D01*
X103944144Y-62859184D01*
X103936800Y-62850183D01*
X103950997Y-62833835D01*
X103989324Y-62794614D01*
X104045383Y-62738980D01*
X104092549Y-62692953D01*
X104237081Y-62530810D01*
X104339605Y-62364844D01*
X104400358Y-62193982D01*
X104419574Y-62017153D01*
X104397491Y-61833288D01*
X104334343Y-61641315D01*
X104327648Y-61625856D01*
X104292393Y-61545800D01*
X104263166Y-61479422D01*
X104244537Y-61437103D01*
X104241000Y-61429061D01*
X104252525Y-61407317D01*
X104292932Y-61373500D01*
X104353472Y-61334931D01*
X104353473Y-61334930D01*
X104513171Y-61221524D01*
X104645863Y-61080990D01*
X104747938Y-60919347D01*
X104815786Y-60742616D01*
X104845795Y-60556815D01*
X104846967Y-60512280D01*
X104851025Y-60468245D01*
X104866681Y-60425134D01*
X104899158Y-60373508D01*
X104953678Y-60303930D01*
X104979258Y-60273203D01*
X105051989Y-60193332D01*
X105125754Y-60123645D01*
X105189185Y-60074635D01*
X105203904Y-60065852D01*
X105343816Y-59969735D01*
X105466741Y-59845297D01*
X105566165Y-59701636D01*
X105635573Y-59547853D01*
X105665441Y-59421183D01*
X105683450Y-59347425D01*
X105721758Y-59254270D01*
X105782884Y-59135942D01*
X105812996Y-59082517D01*
X105871745Y-58982319D01*
X105916811Y-58912336D01*
X105954112Y-58865260D01*
X105989563Y-58833785D01*
X106029083Y-58810602D01*
X106035808Y-58807350D01*
X106098698Y-58770269D01*
X106173923Y-58715713D01*
X106237212Y-58662529D01*
X106357189Y-58525115D01*
X106445149Y-58364549D01*
X106499168Y-58187453D01*
X106517322Y-58000447D01*
X106497688Y-57810154D01*
X106492142Y-57785018D01*
X106460820Y-57651687D01*
X106608974Y-57577078D01*
X106786099Y-57468126D01*
X106927996Y-57336611D01*
X107036514Y-57180405D01*
X107113498Y-56997379D01*
X107114255Y-56994956D01*
X107148414Y-56832351D01*
X107147395Y-56670531D01*
X107110497Y-56501950D01*
X107055057Y-56357997D01*
X107000804Y-56236978D01*
X107100576Y-56126008D01*
X107221010Y-55964950D01*
X107305014Y-55792360D01*
X107350991Y-55613253D01*
X107357344Y-55432644D01*
X107346833Y-55352117D01*
X107317166Y-55231441D01*
X107272393Y-55121200D01*
X107208142Y-55015314D01*
X107120045Y-54907703D01*
X107003730Y-54792285D01*
X106854828Y-54662979D01*
X106846724Y-54656267D01*
X106741383Y-54569185D01*
X106961476Y-54458710D01*
X107151747Y-54349045D01*
X107303114Y-54229234D01*
X107418480Y-54095786D01*
X107500746Y-53945209D01*
X107552815Y-53774010D01*
X107559449Y-53739348D01*
X107569337Y-53563861D01*
X107539993Y-53385702D01*
X107473416Y-53211814D01*
X107371602Y-53049133D01*
X107354618Y-53027610D01*
X107307678Y-52980170D01*
X107235537Y-52919421D01*
X107149101Y-52854154D01*
X107081953Y-52807855D01*
X107001703Y-52753659D01*
X106936432Y-52707142D01*
X106893201Y-52673505D01*
X106878967Y-52658387D01*
X106895751Y-52641340D01*
X106941145Y-52607429D01*
X107007708Y-52561984D01*
X107068579Y-52522565D01*
X107159286Y-52460801D01*
X107246309Y-52394194D01*
X107316700Y-52332969D01*
X107343470Y-52305480D01*
X107454740Y-52149016D01*
X107528588Y-51978684D01*
X107564961Y-51800140D01*
X107563810Y-51619036D01*
X107525083Y-51441025D01*
X107448729Y-51271762D01*
X107354039Y-51138794D01*
X107238169Y-51026702D01*
X107097073Y-50934568D01*
X106950983Y-50867639D01*
X106879472Y-50839125D01*
X106825177Y-50816809D01*
X106798465Y-50804966D01*
X106797499Y-50804373D01*
X106801276Y-50783499D01*
X106817635Y-50732538D01*
X106843504Y-50660736D01*
X106857208Y-50624661D01*
X106917418Y-50419888D01*
X106936931Y-50224506D01*
X106915965Y-50039667D01*
X106854739Y-49866519D01*
X106753472Y-49706214D01*
X106663721Y-49606947D01*
X106544271Y-49509799D01*
X106405726Y-49435317D01*
X106239219Y-49379165D01*
X106159000Y-49360043D01*
X106078414Y-49340586D01*
X106016541Y-49321609D01*
X105982851Y-49306196D01*
X105979383Y-49301575D01*
X105985362Y-49273305D01*
X106001252Y-49215705D01*
X106023981Y-49139741D01*
X106031353Y-49116034D01*
X106059896Y-49030699D01*
X106085633Y-48974159D01*
X106116389Y-48934231D01*
X106159982Y-48898730D01*
X106179520Y-48885232D01*
X106238011Y-48843703D01*
X106317086Y-48784948D01*
X106404340Y-48718269D01*
X106455633Y-48678189D01*
X106537227Y-48614946D01*
X106613670Y-48557692D01*
X106674574Y-48514106D01*
X106701761Y-48496225D01*
X106758914Y-48455649D01*
X106840804Y-48388948D01*
X106942663Y-48300356D01*
X107059726Y-48194110D01*
X107187227Y-48074444D01*
X107310549Y-47955259D01*
X107519991Y-47750002D01*
X107659854Y-47834435D01*
X107803111Y-47910646D01*
X107936303Y-47956778D01*
X108074552Y-47976777D01*
X108203938Y-47976357D01*
X108391833Y-47946213D01*
X108564535Y-47877938D01*
X108718177Y-47774193D01*
X108848897Y-47637637D01*
X108952827Y-47470930D01*
X108959968Y-47456160D01*
X108990768Y-47387859D01*
X109010446Y-47331056D01*
X109021465Y-47272427D01*
X109026289Y-47198652D01*
X109027382Y-47096408D01*
X109027383Y-47091600D01*
X109026388Y-46987976D01*
X109021792Y-46913531D01*
X109011181Y-46855129D01*
X108992138Y-46799631D01*
X108962247Y-46733901D01*
X108961222Y-46731767D01*
X108856338Y-46557659D01*
X108726345Y-46416842D01*
X108573740Y-46310780D01*
X108401024Y-46240938D01*
X108210694Y-46208779D01*
X108069564Y-46209384D01*
X107890110Y-46222048D01*
X107749663Y-46077568D01*
X107641221Y-45975202D01*
X107539290Y-45901776D01*
X107430202Y-45849016D01*
X107309082Y-45810916D01*
X107142848Y-45782646D01*
X106985491Y-45789549D01*
X106860444Y-45819144D01*
X106676021Y-45895977D01*
X106519952Y-46003477D01*
X106390719Y-46143052D01*
X106286804Y-46316108D01*
X106259713Y-46376254D01*
X106219028Y-46465056D01*
X106184844Y-46523769D01*
X106159996Y-46547670D01*
X106156725Y-46547910D01*
X106124934Y-46539410D01*
X106063828Y-46519872D01*
X105983881Y-46492712D01*
X105937558Y-46476433D01*
X105841826Y-46443946D01*
X105769057Y-46424876D01*
X105702996Y-46416692D01*
X105627391Y-46416867D01*
X105573289Y-46419769D01*
X105382833Y-46451520D01*
X105210269Y-46520316D01*
X105058506Y-46623605D01*
X104930454Y-46758838D01*
X104829023Y-46923465D01*
X104757122Y-47114936D01*
X104750254Y-47141037D01*
X104715402Y-47279783D01*
X104468976Y-47268036D01*
X104359777Y-47263585D01*
X104278930Y-47263549D01*
X104212542Y-47269599D01*
X104146719Y-47283406D01*
X104067570Y-47306639D01*
X104019277Y-47322111D01*
X103932502Y-47349796D01*
X103861295Y-47371739D01*
X103814899Y-47385135D01*
X103802319Y-47387933D01*
X103796546Y-47368270D01*
X103791977Y-47315285D01*
X103789199Y-47237987D01*
X103788633Y-47178496D01*
X103777227Y-46984605D01*
X103741399Y-46818120D01*
X103678740Y-46670282D01*
X103624718Y-46583229D01*
X103499145Y-46439109D01*
X103348217Y-46327895D01*
X103175417Y-46251498D01*
X102984224Y-46211829D01*
X102941967Y-46208338D01*
X102859918Y-46205506D01*
X102789372Y-46210016D01*
X102715444Y-46224193D01*
X102623251Y-46250362D01*
X102574922Y-46265676D01*
X102487838Y-46292749D01*
X102416929Y-46312913D01*
X102370991Y-46323778D01*
X102358293Y-46324482D01*
X102350458Y-46301265D01*
X102337010Y-46246943D01*
X102320482Y-46171957D01*
X102315558Y-46148249D01*
X102265845Y-45965947D01*
X102195397Y-45812940D01*
X102099133Y-45679192D01*
X102053161Y-45629744D01*
X101903870Y-45506943D01*
X101739510Y-45421454D01*
X101565331Y-45373455D01*
X101386581Y-45363118D01*
X101208511Y-45390620D01*
X101036370Y-45456135D01*
X100875406Y-45559838D01*
X100840253Y-45589342D01*
X100786568Y-45644747D01*
X100721576Y-45723843D01*
X100655446Y-45813840D01*
X100621671Y-45864287D01*
X100570395Y-45942021D01*
X100526772Y-46004399D01*
X100496122Y-46044042D01*
X100484628Y-46054433D01*
X100467786Y-46037848D01*
X100433009Y-45992739D01*
X100385437Y-45926071D01*
X100332371Y-45848058D01*
X100241891Y-45720324D01*
X100158675Y-45622960D01*
X100073682Y-45547273D01*
X99977868Y-45484566D01*
X99924986Y-45456326D01*
X99747253Y-45387704D01*
X99568433Y-45361085D01*
X99388110Y-45376520D01*
X99205873Y-45434064D01*
X99021309Y-45533769D01*
X98952020Y-45581596D01*
X98881478Y-45631409D01*
X98824369Y-45668537D01*
X98788639Y-45687982D01*
X98780915Y-45689270D01*
X98767853Y-45666958D01*
X98741241Y-45615570D01*
X98705752Y-45544241D01*
X98686752Y-45505220D01*
X98580600Y-45327387D01*
X98451742Y-45181494D01*
X98304136Y-45069043D01*
X98141742Y-44991536D01*
X97968520Y-44950475D01*
X97788427Y-44947360D01*
X97605424Y-44983695D01*
X97462363Y-45040802D01*
X97350806Y-45108567D01*
X97234490Y-45205899D01*
X97171586Y-45268086D01*
X97015971Y-45428831D01*
X96860970Y-45268719D01*
X96697830Y-45124833D01*
X96527662Y-45021954D01*
X96352119Y-44960292D01*
X96172856Y-44940060D01*
X95991527Y-44961468D01*
X95809787Y-45024728D01*
X95652313Y-45114184D01*
X95593150Y-45152418D01*
X95547973Y-45178661D01*
X95529040Y-45186600D01*
X95508483Y-45172453D01*
X95465438Y-45134262D01*
X95406861Y-45078395D01*
X95359424Y-45031259D01*
X95228472Y-44913070D01*
X95100217Y-44829025D01*
X94963733Y-44773189D01*
X94828161Y-44742677D01*
X94667867Y-44735061D01*
X94499880Y-44758388D01*
X94341968Y-44809781D01*
X94304577Y-44827475D01*
X94206504Y-44891060D01*
X94101437Y-44981855D01*
X94000689Y-45088901D01*
X93915572Y-45201237D01*
X93909974Y-45209817D01*
X93868202Y-45271586D01*
X93834246Y-45316215D01*
X93815127Y-45334521D01*
X93814642Y-45334581D01*
X93793034Y-45321436D01*
X93748537Y-45286245D01*
X93689395Y-45235645D01*
X93666475Y-45215267D01*
X93525031Y-45107069D01*
X93371708Y-45022812D01*
X93215127Y-44965743D01*
X93063908Y-44939106D01*
X92943782Y-44943156D01*
X92789956Y-44976368D01*
X92653095Y-45028709D01*
X92520250Y-45106298D01*
X92392134Y-45203840D01*
X92288052Y-45290180D01*
X92159301Y-45182179D01*
X91989028Y-45063515D01*
X91812318Y-44985363D01*
X91632771Y-44947107D01*
X91453991Y-44948133D01*
X91279579Y-44987828D01*
X91113139Y-45065575D01*
X90958272Y-45180762D01*
X90818581Y-45332774D01*
X90756141Y-45421484D01*
X90715033Y-45483142D01*
X90682665Y-45527725D01*
X90665690Y-45546105D01*
X90665300Y-45546175D01*
X90645710Y-45533279D01*
X90602011Y-45498612D01*
X90541877Y-45448366D01*
X90507447Y-45418819D01*
X90332127Y-45289687D01*
X90153815Y-45202408D01*
X89973908Y-45157003D01*
X89793804Y-45153493D01*
X89614900Y-45191899D01*
X89438596Y-45272244D01*
X89266287Y-45394548D01*
X89260304Y-45399625D01*
X89137708Y-45504240D01*
X89028379Y-45408038D01*
X88860873Y-45285432D01*
X88685682Y-45202941D01*
X88506719Y-45159968D01*
X88327900Y-45155915D01*
X88153142Y-45190187D01*
X87986360Y-45262186D01*
X87831469Y-45371314D01*
X87692385Y-45516974D01*
X87617139Y-45623257D01*
X87575414Y-45687758D01*
X87542680Y-45735450D01*
X87525025Y-45757526D01*
X87523919Y-45758100D01*
X87502416Y-45749651D01*
X87452270Y-45727171D01*
X87382995Y-45694957D01*
X87358601Y-45683418D01*
X87181714Y-45612781D01*
X87018830Y-45577059D01*
X86862185Y-45574861D01*
X86798967Y-45583154D01*
X86618853Y-45631402D01*
X86459062Y-45712354D01*
X86315551Y-45828788D01*
X86184279Y-45983486D01*
X86154064Y-46026738D01*
X86047710Y-46184347D01*
X85988170Y-46135265D01*
X85873878Y-46041984D01*
X85785092Y-45972139D01*
X85715449Y-45921299D01*
X85658588Y-45885033D01*
X85608149Y-45858908D01*
X85567119Y-45841946D01*
X85382862Y-45793494D01*
X85197520Y-45786705D01*
X85009654Y-45821687D01*
X84818537Y-45898191D01*
X84747934Y-45932637D01*
X84692073Y-45957938D01*
X84661566Y-45969324D01*
X84659787Y-45969537D01*
X84641878Y-45952425D01*
X84610281Y-45907645D01*
X84571636Y-45844659D01*
X84569300Y-45840616D01*
X84454153Y-45679297D01*
X84313778Y-45547630D01*
X84153245Y-45448512D01*
X83977623Y-45384837D01*
X83791979Y-45359504D01*
X83728407Y-45360096D01*
X83596597Y-45366179D01*
X83538827Y-45249931D01*
X83495839Y-45179076D01*
X83433512Y-45095164D01*
X83363656Y-45013807D01*
X83346794Y-44996100D01*
X83282918Y-44929384D01*
X83242317Y-44880236D01*
X83218382Y-44836239D01*
X83204506Y-44784974D01*
X83194080Y-44714025D01*
X83193256Y-44707586D01*
X83166218Y-44557765D01*
X83123352Y-44428079D01*
X83059804Y-44310934D01*
X82970716Y-44198732D01*
X82851232Y-44083877D01*
X82732121Y-43986243D01*
X82703621Y-43961284D01*
X82694192Y-43936706D01*
X82702235Y-43897733D01*
X82717719Y-43853100D01*
X82766218Y-43659489D01*
X82774036Y-43467030D01*
X82742111Y-43280407D01*
X82671377Y-43104304D01*
X82562771Y-42943404D01*
X82528093Y-42904261D01*
X82478938Y-42848682D01*
X82444144Y-42803560D01*
X82431467Y-42779330D01*
X82439513Y-42749620D01*
X82460390Y-42694568D01*
X82483535Y-42639966D01*
X82547091Y-42449357D01*
X82569239Y-42261835D01*
X82550899Y-42080175D01*
X82492995Y-41907155D01*
X82396448Y-41745552D01*
X82262182Y-41598141D01*
X82094855Y-41470099D01*
X82032039Y-41428091D01*
X81986157Y-41394483D01*
X81966209Y-41375913D01*
X81965985Y-41375076D01*
X81978851Y-41354759D01*
X82013458Y-41310525D01*
X82063557Y-41250216D01*
X82091117Y-41218041D01*
X82202117Y-41074963D01*
X82279982Y-40937822D01*
X82330369Y-40795613D01*
X82346674Y-40721127D01*
X82358527Y-40538949D01*
X82328988Y-40356554D01*
X82258846Y-40177305D01*
X82192674Y-40065289D01*
X82117742Y-39954021D01*
X82199264Y-39827890D01*
X82294064Y-39648465D01*
X82346713Y-39467740D01*
X82357389Y-39283916D01*
X82326271Y-39095194D01*
X82284446Y-38970862D01*
X82215375Y-38798208D01*
X82329183Y-38663945D01*
X82448292Y-38494980D01*
X82527416Y-38318276D01*
X82566314Y-38137106D01*
X82564740Y-37954744D01*
X82522452Y-37774463D01*
X82439205Y-37599536D01*
X82411606Y-37556493D01*
X82375049Y-37501820D01*
X82348110Y-37460389D01*
X82341324Y-37449348D01*
X82345240Y-37420959D01*
X82368863Y-37371523D01*
X82392937Y-37332931D01*
X82478498Y-37189575D01*
X82534466Y-37049677D01*
X82562261Y-36904288D01*
X82563305Y-36744458D01*
X82539018Y-36561237D01*
X82525926Y-36495251D01*
X82520784Y-36462321D01*
X82526655Y-36437868D01*
X82550457Y-36415009D01*
X82599107Y-36386860D01*
X82671265Y-36350617D01*
X82822448Y-36257453D01*
X82957138Y-36138678D01*
X83065869Y-36003718D01*
X83123420Y-35900378D01*
X83168856Y-35758844D01*
X83190534Y-35597330D01*
X83187443Y-35431556D01*
X83162539Y-35291299D01*
X83126144Y-35156846D01*
X83211233Y-35044098D01*
X83298828Y-34913544D01*
X83355923Y-34789148D01*
X83388326Y-34655295D01*
X83400090Y-34536183D01*
X83399345Y-34382477D01*
X83376095Y-34247257D01*
X83326399Y-34116260D01*
X83246313Y-33975223D01*
X83244031Y-33971668D01*
X83153502Y-33830966D01*
X83299922Y-33697332D01*
X83391940Y-33606064D01*
X83460643Y-33517968D01*
X83519568Y-33415378D01*
X83526279Y-33401955D01*
X83562190Y-33327192D01*
X83585335Y-33268844D01*
X83598513Y-33213431D01*
X83604522Y-33147474D01*
X83606158Y-33057493D01*
X83606217Y-33016864D01*
X83605205Y-32912725D01*
X83600589Y-32837781D01*
X83589992Y-32778913D01*
X83571041Y-32723001D01*
X83541360Y-32656926D01*
X83540889Y-32655933D01*
X83490759Y-32566758D01*
X83424965Y-32470944D01*
X83365227Y-32397831D01*
X83254893Y-32277312D01*
X83295361Y-32196747D01*
X83358188Y-32051462D01*
X83392684Y-31915159D01*
X83402811Y-31769447D01*
X83401025Y-31706388D01*
X83392721Y-31600083D01*
X83377177Y-31517227D01*
X83349967Y-31439030D01*
X83325157Y-31384358D01*
X83226113Y-31225761D01*
X83092335Y-31086536D01*
X82928950Y-30971798D01*
X82890994Y-30951104D01*
X82819634Y-30913828D01*
X82764526Y-30884715D01*
X82734963Y-30868686D01*
X82732475Y-30867172D01*
X82733198Y-30845766D01*
X82740177Y-30792499D01*
X82752058Y-30717155D01*
X82758090Y-30681826D01*
X82776044Y-30484850D01*
X82756831Y-30303797D01*
X82698988Y-30133342D01*
X82601047Y-29968157D01*
X82540349Y-29890349D01*
X82431075Y-29760016D01*
X82529072Y-29646933D01*
X82649847Y-29478464D01*
X82730306Y-29300778D01*
X82770447Y-29117568D01*
X82770272Y-28932528D01*
X82729781Y-28749350D01*
X82648972Y-28571729D01*
X82529072Y-28404767D01*
X82431075Y-28291684D01*
X82540399Y-28161350D01*
X82647609Y-28014653D01*
X82720175Y-27867916D01*
X82763958Y-27708789D01*
X82768941Y-27679739D01*
X82777641Y-27494771D01*
X82745607Y-27315367D01*
X82674383Y-27144895D01*
X82565511Y-26986722D01*
X82420536Y-26844215D01*
X82367032Y-26802664D01*
X82266660Y-26728984D01*
X82304579Y-26607150D01*
X82349905Y-26401861D01*
X82354475Y-26207948D01*
X82318245Y-26025179D01*
X82241169Y-25853320D01*
X82128456Y-25698095D01*
X82000348Y-25581539D01*
X81847674Y-25491496D01*
X81679983Y-25431430D01*
X81506823Y-25404804D01*
X81344842Y-25413828D01*
X81153642Y-25465536D01*
X80985517Y-25552020D01*
X80842547Y-25669514D01*
X80718810Y-25821202D01*
X80633476Y-25988784D01*
X80587604Y-26168801D01*
X80582251Y-26357796D01*
X80597954Y-26469296D01*
X80612494Y-26546893D01*
X80619639Y-26608999D01*
X80619162Y-26669397D01*
X80610836Y-26741868D01*
X80594434Y-26840194D01*
X80591577Y-26856267D01*
X80572913Y-26965754D01*
X80555568Y-27076015D01*
X80542104Y-27170376D01*
X80537339Y-27208949D01*
X80522741Y-27339382D01*
X80401587Y-27414163D01*
X80240322Y-27537790D01*
X80106788Y-27690493D01*
X80019418Y-27838523D01*
X79983685Y-27911514D01*
X79958266Y-27953402D01*
X79935590Y-27971453D01*
X79908085Y-27972932D01*
X79884035Y-27968451D01*
X79744529Y-27941698D01*
X79633758Y-27927498D01*
X79540309Y-27924970D01*
X79452769Y-27933235D01*
X79444152Y-27934581D01*
X79372365Y-27945112D01*
X79329279Y-27945730D01*
X79301871Y-27933687D01*
X79277120Y-27906233D01*
X79270850Y-27898002D01*
X79139996Y-27755975D01*
X78984550Y-27638677D01*
X78904453Y-27594160D01*
X78837986Y-27562648D01*
X78783807Y-27542136D01*
X78729431Y-27530273D01*
X78662369Y-27524707D01*
X78570134Y-27523087D01*
X78526662Y-27523017D01*
X78419874Y-27523965D01*
X78342078Y-27528367D01*
X78279946Y-27538554D01*
X78220153Y-27556860D01*
X78149369Y-27585617D01*
X78135994Y-27591405D01*
X78062722Y-27622461D01*
X78006412Y-27644849D01*
X77976495Y-27654871D01*
X77974068Y-27654905D01*
X77964473Y-27634352D01*
X77943585Y-27585018D01*
X77915854Y-27517418D01*
X77914787Y-27514784D01*
X77832327Y-27339121D01*
X77739143Y-27198565D01*
X77629048Y-27086134D01*
X77495855Y-26994846D01*
X77418768Y-26954999D01*
X77350814Y-26924382D01*
X77294132Y-26904824D01*
X77235422Y-26893878D01*
X77161384Y-26889092D01*
X77058721Y-26888017D01*
X77055133Y-26888017D01*
X76949728Y-26889193D01*
X76873686Y-26894181D01*
X76814069Y-26905168D01*
X76757938Y-26924339D01*
X76707362Y-26946799D01*
X76568539Y-27024300D01*
X76449412Y-27120478D01*
X76339203Y-27244767D01*
X76289554Y-27312516D01*
X76239028Y-27382037D01*
X76196110Y-27435888D01*
X76167246Y-27466210D01*
X76160285Y-27470100D01*
X76136676Y-27456770D01*
X76090780Y-27421310D01*
X76031222Y-27370518D01*
X76011308Y-27352698D01*
X75866636Y-27237237D01*
X75724861Y-27158176D01*
X75576678Y-27111375D01*
X75427984Y-27093314D01*
X75235480Y-27101256D01*
X75061742Y-27145309D01*
X74902853Y-27227186D01*
X74754894Y-27348598D01*
X74692345Y-27414873D01*
X74592216Y-27528442D01*
X74413814Y-27517312D01*
X74242694Y-27517072D01*
X74059495Y-27538703D01*
X74026036Y-27544599D01*
X73936746Y-27559568D01*
X73863714Y-27569157D01*
X73816416Y-27572274D01*
X73803869Y-27570224D01*
X73805031Y-27546242D01*
X73817850Y-27490776D01*
X73840116Y-27412344D01*
X73866602Y-27328558D01*
X73899088Y-27224157D01*
X73927279Y-27122646D01*
X73947576Y-27037602D01*
X73955323Y-26993850D01*
X73955936Y-26881790D01*
X73935871Y-26751267D01*
X73898721Y-26618504D01*
X73848077Y-26499725D01*
X73844444Y-26492950D01*
X73769454Y-26384806D01*
X73667001Y-26277507D01*
X73550347Y-26183459D01*
X73448343Y-26122420D01*
X73329800Y-26064281D01*
X73329800Y-25924971D01*
X73312373Y-25722679D01*
X73259200Y-25541722D01*
X73168945Y-25378774D01*
X73057283Y-25247137D01*
X72909918Y-25127518D01*
X72748659Y-25044763D01*
X72578758Y-24997979D01*
X72405465Y-24986272D01*
X72234029Y-25008750D01*
X72069701Y-25064518D01*
X71917732Y-25152683D01*
X71783370Y-25272352D01*
X71671867Y-25422631D01*
X71635867Y-25489026D01*
X71598023Y-25572530D01*
X71574913Y-25645551D01*
X71562082Y-25726421D01*
X71555758Y-25818495D01*
X71557555Y-25981532D01*
X71582719Y-26122729D01*
X71635208Y-26257868D01*
X71691269Y-26358850D01*
X71737386Y-26434319D01*
X71780600Y-26505167D01*
X71808658Y-26551290D01*
X71848360Y-26616730D01*
X71674147Y-26664473D01*
X71576930Y-26694162D01*
X71480545Y-26728619D01*
X71403793Y-26761052D01*
X71395346Y-26765216D01*
X71273871Y-26844999D01*
X71157199Y-26954636D01*
X71056633Y-27082151D01*
X70995299Y-27189137D01*
X70964287Y-27257840D01*
X70944470Y-27314787D01*
X70933366Y-27373326D01*
X70928498Y-27446806D01*
X70927385Y-27548575D01*
X70927383Y-27554767D01*
X70928341Y-27658062D01*
X70932910Y-27732487D01*
X70943630Y-27791491D01*
X70963043Y-27848523D01*
X70993690Y-27917032D01*
X70997258Y-27924583D01*
X71045915Y-28014429D01*
X71106180Y-28097850D01*
X71187546Y-28187213D01*
X71234150Y-28233216D01*
X71401167Y-28394282D01*
X71215276Y-28583066D01*
X71127554Y-28675070D01*
X71065222Y-28748618D01*
X71021530Y-28812801D01*
X70989728Y-28876714D01*
X70980863Y-28898850D01*
X70932579Y-29079603D01*
X70920678Y-29266613D01*
X70459190Y-29266613D01*
X70462263Y-29116854D01*
X70495843Y-28918394D01*
X70555675Y-28727997D01*
X70638425Y-28557440D01*
X70695905Y-28471859D01*
X70747955Y-28403617D01*
X70662818Y-28271893D01*
X70567483Y-28089350D01*
X70500364Y-27885727D01*
X70463585Y-27672331D01*
X70459270Y-27460469D01*
X70480391Y-27300767D01*
X70544700Y-27090383D01*
X70644551Y-26889061D01*
X70774414Y-26704992D01*
X70928760Y-26546369D01*
X71053674Y-26451377D01*
X71187588Y-26363333D01*
X71143462Y-26244675D01*
X71123401Y-26182106D01*
X71110161Y-26115622D01*
X71102452Y-26034239D01*
X71098984Y-25926970D01*
X71098441Y-25861433D01*
X71099040Y-25743963D01*
X71102834Y-25656634D01*
X71111426Y-25587282D01*
X71126423Y-25523744D01*
X71149428Y-25453857D01*
X71153841Y-25441601D01*
X71239250Y-25246036D01*
X71346559Y-25076849D01*
X71479671Y-24925003D01*
X71658675Y-24771035D01*
X71849789Y-24656650D01*
X72057226Y-24579972D01*
X72285202Y-24539125D01*
X72358819Y-24533545D01*
X72593937Y-24540458D01*
G36*
X77584654Y-32985775D02*
G01*
X77700528Y-32987895D01*
X77793435Y-32992388D01*
X77873057Y-33000121D01*
X77949074Y-33011962D01*
X78031167Y-33028779D01*
X78100410Y-33044675D01*
X78370265Y-33117686D01*
X78639789Y-33208643D01*
X78902708Y-33314443D01*
X79152748Y-33431982D01*
X79383636Y-33558155D01*
X79589097Y-33689860D01*
X79762857Y-33823993D01*
X79859717Y-33915017D01*
X80004709Y-34093525D01*
X80129703Y-34306921D01*
X80233142Y-34551984D01*
X80313470Y-34825499D01*
X80325558Y-34878433D01*
X80344864Y-34992046D01*
X80359581Y-35129363D01*
X80369469Y-35280216D01*
X80374287Y-35434435D01*
X80373793Y-35581854D01*
X80367746Y-35712304D01*
X80355906Y-35815617D01*
X80348616Y-35850571D01*
X80273293Y-36063399D01*
X80155901Y-36278046D01*
X80077165Y-36391850D01*
X80018835Y-36463770D01*
X79935186Y-36557750D01*
X79832411Y-36667580D01*
X79716705Y-36787051D01*
X79594262Y-36909957D01*
X79471275Y-37030089D01*
X79353939Y-37141238D01*
X79248448Y-37237196D01*
X79160995Y-37311755D01*
X79152826Y-37318316D01*
X78856366Y-37535517D01*
X78550597Y-37722954D01*
X78242409Y-37876757D01*
X77969502Y-37982946D01*
X77730535Y-38044897D01*
X77497939Y-38069550D01*
X77276702Y-38056528D01*
X77196462Y-38041581D01*
X76984232Y-37981671D01*
X76752673Y-37894526D01*
X76510479Y-37784639D01*
X76266347Y-37656503D01*
X76028971Y-37514610D01*
X75807047Y-37363454D01*
X75652396Y-37243767D01*
X75411193Y-37018340D01*
X75195632Y-36762479D01*
X75008260Y-36481228D01*
X74851623Y-36179632D01*
X74728269Y-35862734D01*
X74640743Y-35535579D01*
X74591593Y-35203211D01*
X74588588Y-35162715D01*
X75144131Y-35162715D01*
X75150817Y-35392770D01*
X75195463Y-35626644D01*
X75277374Y-35862412D01*
X75395857Y-36098146D01*
X75550218Y-36331922D01*
X75739763Y-36561812D01*
X75963798Y-36785892D01*
X76221629Y-37002234D01*
X76267485Y-37037139D01*
X76399909Y-37129890D01*
X76550941Y-37224743D01*
X76708683Y-37314991D01*
X76861237Y-37393925D01*
X76996705Y-37454839D01*
X77033967Y-37469233D01*
X77271512Y-37535073D01*
X77510686Y-37559703D01*
X77747985Y-37543043D01*
X77962620Y-37490852D01*
X78129450Y-37424142D01*
X78301350Y-37331789D01*
X78481605Y-37211441D01*
X78673499Y-37060751D01*
X78880316Y-36877368D01*
X79054884Y-36709350D01*
X79276207Y-36469071D01*
X79458440Y-36226838D01*
X79601508Y-35984159D01*
X79705334Y-35742544D01*
X79769844Y-35503500D01*
X79794962Y-35268535D01*
X79780613Y-35039158D01*
X79726723Y-34816878D01*
X79633214Y-34603202D01*
X79500013Y-34399639D01*
X79327044Y-34207697D01*
X79185922Y-34083985D01*
X78938178Y-33911953D01*
X78665000Y-33770262D01*
X78371289Y-33659721D01*
X78061945Y-33581139D01*
X77741868Y-33535328D01*
X77415958Y-33523097D01*
X77089114Y-33545257D01*
X76766237Y-33602616D01*
X76579942Y-33653186D01*
X76287394Y-33761711D01*
X76020103Y-33898307D01*
X75780979Y-34060920D01*
X75572933Y-34247498D01*
X75398875Y-34455987D01*
X75358767Y-34514723D01*
X75247412Y-34721765D01*
X75176098Y-34938404D01*
X75144131Y-35162715D01*
X74588588Y-35162715D01*
X74586323Y-35132210D01*
X74586321Y-34899718D01*
X74617244Y-34684750D01*
X74681055Y-34483147D01*
X74779721Y-34290750D01*
X74915207Y-34103401D01*
X75089476Y-33916940D01*
X75214388Y-33802966D01*
X75500780Y-33576820D01*
X75795064Y-33389720D01*
X76103452Y-33238621D01*
X76432158Y-33120477D01*
X76785144Y-33032692D01*
X76881267Y-33014783D01*
X76970998Y-33001856D01*
X77064429Y-32993171D01*
X77171653Y-32987994D01*
X77302763Y-32985586D01*
X77436133Y-32985162D01*
X77584654Y-32985775D01*
G37*
X77584654Y-32985775D02*
X77700528Y-32987895D01*
X77793435Y-32992388D01*
X77873057Y-33000121D01*
X77949074Y-33011962D01*
X78031167Y-33028779D01*
X78100410Y-33044675D01*
X78370265Y-33117686D01*
X78639789Y-33208643D01*
X78902708Y-33314443D01*
X79152748Y-33431982D01*
X79383636Y-33558155D01*
X79589097Y-33689860D01*
X79762857Y-33823993D01*
X79859717Y-33915017D01*
X80004709Y-34093525D01*
X80129703Y-34306921D01*
X80233142Y-34551984D01*
X80313470Y-34825499D01*
X80325558Y-34878433D01*
X80344864Y-34992046D01*
X80359581Y-35129363D01*
X80369469Y-35280216D01*
X80374287Y-35434435D01*
X80373793Y-35581854D01*
X80367746Y-35712304D01*
X80355906Y-35815617D01*
X80348616Y-35850571D01*
X80273293Y-36063399D01*
X80155901Y-36278046D01*
X80077165Y-36391850D01*
X80018835Y-36463770D01*
X79935186Y-36557750D01*
X79832411Y-36667580D01*
X79716705Y-36787051D01*
X79594262Y-36909957D01*
X79471275Y-37030089D01*
X79353939Y-37141238D01*
X79248448Y-37237196D01*
X79160995Y-37311755D01*
X79152826Y-37318316D01*
X78856366Y-37535517D01*
X78550597Y-37722954D01*
X78242409Y-37876757D01*
X77969502Y-37982946D01*
X77730535Y-38044897D01*
X77497939Y-38069550D01*
X77276702Y-38056528D01*
X77196462Y-38041581D01*
X76984232Y-37981671D01*
X76752673Y-37894526D01*
X76510479Y-37784639D01*
X76266347Y-37656503D01*
X76028971Y-37514610D01*
X75807047Y-37363454D01*
X75652396Y-37243767D01*
X75411193Y-37018340D01*
X75195632Y-36762479D01*
X75008260Y-36481228D01*
X74851623Y-36179632D01*
X74728269Y-35862734D01*
X74640743Y-35535579D01*
X74591593Y-35203211D01*
X74588588Y-35162715D01*
X75144131Y-35162715D01*
X75150817Y-35392770D01*
X75195463Y-35626644D01*
X75277374Y-35862412D01*
X75395857Y-36098146D01*
X75550218Y-36331922D01*
X75739763Y-36561812D01*
X75963798Y-36785892D01*
X76221629Y-37002234D01*
X76267485Y-37037139D01*
X76399909Y-37129890D01*
X76550941Y-37224743D01*
X76708683Y-37314991D01*
X76861237Y-37393925D01*
X76996705Y-37454839D01*
X77033967Y-37469233D01*
X77271512Y-37535073D01*
X77510686Y-37559703D01*
X77747985Y-37543043D01*
X77962620Y-37490852D01*
X78129450Y-37424142D01*
X78301350Y-37331789D01*
X78481605Y-37211441D01*
X78673499Y-37060751D01*
X78880316Y-36877368D01*
X79054884Y-36709350D01*
X79276207Y-36469071D01*
X79458440Y-36226838D01*
X79601508Y-35984159D01*
X79705334Y-35742544D01*
X79769844Y-35503500D01*
X79794962Y-35268535D01*
X79780613Y-35039158D01*
X79726723Y-34816878D01*
X79633214Y-34603202D01*
X79500013Y-34399639D01*
X79327044Y-34207697D01*
X79185922Y-34083985D01*
X78938178Y-33911953D01*
X78665000Y-33770262D01*
X78371289Y-33659721D01*
X78061945Y-33581139D01*
X77741868Y-33535328D01*
X77415958Y-33523097D01*
X77089114Y-33545257D01*
X76766237Y-33602616D01*
X76579942Y-33653186D01*
X76287394Y-33761711D01*
X76020103Y-33898307D01*
X75780979Y-34060920D01*
X75572933Y-34247498D01*
X75398875Y-34455987D01*
X75358767Y-34514723D01*
X75247412Y-34721765D01*
X75176098Y-34938404D01*
X75144131Y-35162715D01*
X74588588Y-35162715D01*
X74586323Y-35132210D01*
X74586321Y-34899718D01*
X74617244Y-34684750D01*
X74681055Y-34483147D01*
X74779721Y-34290750D01*
X74915207Y-34103401D01*
X75089476Y-33916940D01*
X75214388Y-33802966D01*
X75500780Y-33576820D01*
X75795064Y-33389720D01*
X76103452Y-33238621D01*
X76432158Y-33120477D01*
X76785144Y-33032692D01*
X76881267Y-33014783D01*
X76970998Y-33001856D01*
X77064429Y-32993171D01*
X77171653Y-32987994D01*
X77302763Y-32985586D01*
X77436133Y-32985162D01*
X77584654Y-32985775D01*
G36*
X74120401Y-31397385D02*
G01*
X74283959Y-31457409D01*
X74438776Y-31553665D01*
X74580694Y-31686562D01*
X74669931Y-31801309D01*
X74783744Y-32005088D01*
X74861728Y-32230945D01*
X74903938Y-32479115D01*
X74910429Y-32749832D01*
X74907613Y-32804100D01*
X74883466Y-33042202D01*
X74842480Y-33243442D01*
X74782878Y-33410521D01*
X74702883Y-33546139D01*
X74600720Y-33652998D01*
X74474611Y-33733797D01*
X74322781Y-33791238D01*
X74245902Y-33810120D01*
X74091041Y-33832182D01*
X73918471Y-33839133D01*
X73745586Y-33831253D01*
X73589778Y-33808821D01*
X73547510Y-33798915D01*
X73447169Y-33770876D01*
X73374546Y-33744259D01*
X73315896Y-33711927D01*
X73257479Y-33666739D01*
X73208435Y-33622779D01*
X73121881Y-33528123D01*
X73053939Y-33418305D01*
X73002773Y-33287774D01*
X72966550Y-33130980D01*
X72943433Y-32942371D01*
X72934281Y-32793517D01*
X72932083Y-32646379D01*
X74044668Y-32646379D01*
X74045961Y-32734041D01*
X74075740Y-32811312D01*
X74131823Y-32870706D01*
X74212025Y-32904738D01*
X74264663Y-32909933D01*
X74353688Y-32891041D01*
X74397909Y-32862308D01*
X74453964Y-32787800D01*
X74475275Y-32699000D01*
X74462513Y-32604806D01*
X74416351Y-32514114D01*
X74367519Y-32460142D01*
X74297253Y-32413384D01*
X74231890Y-32407462D01*
X74165774Y-32442613D01*
X74136277Y-32469827D01*
X74074045Y-32555812D01*
X74044668Y-32646379D01*
X72932083Y-32646379D01*
X72931212Y-32588115D01*
X72942373Y-32412506D01*
X72969625Y-32255994D01*
X73014832Y-32107885D01*
X73079855Y-31957484D01*
X73079880Y-31957433D01*
X73188244Y-31775260D01*
X73316963Y-31626462D01*
X73461881Y-31511447D01*
X73618840Y-31430624D01*
X73783684Y-31384400D01*
X73952257Y-31373184D01*
X74120401Y-31397385D01*
G37*
X74120401Y-31397385D02*
X74283959Y-31457409D01*
X74438776Y-31553665D01*
X74580694Y-31686562D01*
X74669931Y-31801309D01*
X74783744Y-32005088D01*
X74861728Y-32230945D01*
X74903938Y-32479115D01*
X74910429Y-32749832D01*
X74907613Y-32804100D01*
X74883466Y-33042202D01*
X74842480Y-33243442D01*
X74782878Y-33410521D01*
X74702883Y-33546139D01*
X74600720Y-33652998D01*
X74474611Y-33733797D01*
X74322781Y-33791238D01*
X74245902Y-33810120D01*
X74091041Y-33832182D01*
X73918471Y-33839133D01*
X73745586Y-33831253D01*
X73589778Y-33808821D01*
X73547510Y-33798915D01*
X73447169Y-33770876D01*
X73374546Y-33744259D01*
X73315896Y-33711927D01*
X73257479Y-33666739D01*
X73208435Y-33622779D01*
X73121881Y-33528123D01*
X73053939Y-33418305D01*
X73002773Y-33287774D01*
X72966550Y-33130980D01*
X72943433Y-32942371D01*
X72934281Y-32793517D01*
X72932083Y-32646379D01*
X74044668Y-32646379D01*
X74045961Y-32734041D01*
X74075740Y-32811312D01*
X74131823Y-32870706D01*
X74212025Y-32904738D01*
X74264663Y-32909933D01*
X74353688Y-32891041D01*
X74397909Y-32862308D01*
X74453964Y-32787800D01*
X74475275Y-32699000D01*
X74462513Y-32604806D01*
X74416351Y-32514114D01*
X74367519Y-32460142D01*
X74297253Y-32413384D01*
X74231890Y-32407462D01*
X74165774Y-32442613D01*
X74136277Y-32469827D01*
X74074045Y-32555812D01*
X74044668Y-32646379D01*
X72932083Y-32646379D01*
X72931212Y-32588115D01*
X72942373Y-32412506D01*
X72969625Y-32255994D01*
X73014832Y-32107885D01*
X73079855Y-31957484D01*
X73079880Y-31957433D01*
X73188244Y-31775260D01*
X73316963Y-31626462D01*
X73461881Y-31511447D01*
X73618840Y-31430624D01*
X73783684Y-31384400D01*
X73952257Y-31373184D01*
X74120401Y-31397385D01*
G36*
X81042809Y-31378946D02*
G01*
X81115014Y-31393799D01*
X81248131Y-31435295D01*
X81359114Y-31489126D01*
X81462389Y-31563817D01*
X81563633Y-31658937D01*
X81686925Y-31803193D01*
X81781246Y-31957955D01*
X81849152Y-32129912D01*
X81893202Y-32325750D01*
X81915954Y-32552155D01*
X81917475Y-32584068D01*
X81918964Y-32846876D01*
X81899034Y-33074584D01*
X81856830Y-33269098D01*
X81791498Y-33432322D01*
X81702181Y-33566159D01*
X81588025Y-33672515D01*
X81448174Y-33753294D01*
X81380191Y-33780545D01*
X81282702Y-33805278D01*
X81156099Y-33823008D01*
X81013095Y-33833251D01*
X80866403Y-33835521D01*
X80728738Y-33829334D01*
X80612814Y-33814202D01*
X80595283Y-33810502D01*
X80418901Y-33752952D01*
X80272275Y-33666553D01*
X80154152Y-33549965D01*
X80063280Y-33401850D01*
X79998406Y-33220869D01*
X79982980Y-33156019D01*
X79965648Y-33043426D01*
X79954322Y-32904545D01*
X79949003Y-32751193D01*
X79949179Y-32711188D01*
X80379618Y-32711188D01*
X80391277Y-32783835D01*
X80399999Y-32805094D01*
X80452355Y-32862050D01*
X80527917Y-32896548D01*
X80612393Y-32905782D01*
X80691491Y-32886943D01*
X80721830Y-32868317D01*
X80787951Y-32792754D01*
X80814825Y-32703138D01*
X80804139Y-32613615D01*
X80766946Y-32533327D01*
X80711646Y-32464604D01*
X80648311Y-32417509D01*
X80592298Y-32401933D01*
X80533332Y-32420353D01*
X80470908Y-32469509D01*
X80415734Y-32540244D01*
X80402053Y-32564583D01*
X80383274Y-32630572D01*
X80379618Y-32711188D01*
X79949179Y-32711188D01*
X79949690Y-32595192D01*
X79956385Y-32448361D01*
X79969087Y-32322519D01*
X79982952Y-32247398D01*
X80050006Y-32042531D01*
X80143005Y-31859714D01*
X80258322Y-31701681D01*
X80392333Y-31571165D01*
X80541412Y-31470900D01*
X80701935Y-31403620D01*
X80870275Y-31372057D01*
X81042809Y-31378946D01*
G37*
X81042809Y-31378946D02*
X81115014Y-31393799D01*
X81248131Y-31435295D01*
X81359114Y-31489126D01*
X81462389Y-31563817D01*
X81563633Y-31658937D01*
X81686925Y-31803193D01*
X81781246Y-31957955D01*
X81849152Y-32129912D01*
X81893202Y-32325750D01*
X81915954Y-32552155D01*
X81917475Y-32584068D01*
X81918964Y-32846876D01*
X81899034Y-33074584D01*
X81856830Y-33269098D01*
X81791498Y-33432322D01*
X81702181Y-33566159D01*
X81588025Y-33672515D01*
X81448174Y-33753294D01*
X81380191Y-33780545D01*
X81282702Y-33805278D01*
X81156099Y-33823008D01*
X81013095Y-33833251D01*
X80866403Y-33835521D01*
X80728738Y-33829334D01*
X80612814Y-33814202D01*
X80595283Y-33810502D01*
X80418901Y-33752952D01*
X80272275Y-33666553D01*
X80154152Y-33549965D01*
X80063280Y-33401850D01*
X79998406Y-33220869D01*
X79982980Y-33156019D01*
X79965648Y-33043426D01*
X79954322Y-32904545D01*
X79949003Y-32751193D01*
X79949179Y-32711188D01*
X80379618Y-32711188D01*
X80391277Y-32783835D01*
X80399999Y-32805094D01*
X80452355Y-32862050D01*
X80527917Y-32896548D01*
X80612393Y-32905782D01*
X80691491Y-32886943D01*
X80721830Y-32868317D01*
X80787951Y-32792754D01*
X80814825Y-32703138D01*
X80804139Y-32613615D01*
X80766946Y-32533327D01*
X80711646Y-32464604D01*
X80648311Y-32417509D01*
X80592298Y-32401933D01*
X80533332Y-32420353D01*
X80470908Y-32469509D01*
X80415734Y-32540244D01*
X80402053Y-32564583D01*
X80383274Y-32630572D01*
X80379618Y-32711188D01*
X79949179Y-32711188D01*
X79949690Y-32595192D01*
X79956385Y-32448361D01*
X79969087Y-32322519D01*
X79982952Y-32247398D01*
X80050006Y-32042531D01*
X80143005Y-31859714D01*
X80258322Y-31701681D01*
X80392333Y-31571165D01*
X80541412Y-31470900D01*
X80701935Y-31403620D01*
X80870275Y-31372057D01*
X81042809Y-31378946D01*
G36*
X78487001Y-34353010D02*
G01*
X78597161Y-34388731D01*
X78674869Y-34447334D01*
X78718217Y-34527541D01*
X78727093Y-34595949D01*
X78708483Y-34689399D01*
X78656917Y-34793768D01*
X78577906Y-34902308D01*
X78476964Y-35008266D01*
X78359603Y-35104893D01*
X78257575Y-35170950D01*
X78175023Y-35212607D01*
X78075667Y-35254594D01*
X77971410Y-35292746D01*
X77874153Y-35322897D01*
X77795795Y-35340882D01*
X77762888Y-35344100D01*
X77705523Y-35344100D01*
X77720605Y-35569262D01*
X77739925Y-35753477D01*
X77771418Y-35926577D01*
X77813086Y-36082084D01*
X77862930Y-36213519D01*
X77918953Y-36314404D01*
X77967288Y-36369108D01*
X78011686Y-36400644D01*
X78053543Y-36409462D01*
X78114008Y-36399955D01*
X78114861Y-36399763D01*
X78193001Y-36377247D01*
X78265303Y-36343863D01*
X78337931Y-36294839D01*
X78417047Y-36225401D01*
X78508816Y-36130774D01*
X78612072Y-36014648D01*
X78662631Y-35959447D01*
X78701815Y-35929750D01*
X78744365Y-35917742D01*
X78798909Y-35915600D01*
X78896030Y-35932441D01*
X78967564Y-35979295D01*
X79010960Y-36050660D01*
X79023669Y-36141031D01*
X79003139Y-36244906D01*
X78978326Y-36302735D01*
X78922987Y-36387448D01*
X78840927Y-36483395D01*
X78742305Y-36581017D01*
X78637276Y-36670759D01*
X78535997Y-36743064D01*
X78473300Y-36777937D01*
X78286544Y-36850436D01*
X78115899Y-36884470D01*
X77959502Y-36879902D01*
X77815493Y-36836598D01*
X77682012Y-36754421D01*
X77638080Y-36717039D01*
X77520131Y-36609241D01*
X77474945Y-36666686D01*
X77356236Y-36788418D01*
X77220632Y-36876592D01*
X77073935Y-36928831D01*
X76921942Y-36942756D01*
X76829209Y-36931442D01*
X76677742Y-36879622D01*
X76526394Y-36787831D01*
X76378330Y-36658319D01*
X76265790Y-36530847D01*
X76172258Y-36405320D01*
X76109988Y-36301846D01*
X76076993Y-36216279D01*
X76071282Y-36144472D01*
X76073525Y-36129933D01*
X76109848Y-36046727D01*
X76175013Y-35984343D01*
X76258371Y-35948360D01*
X76349271Y-35944354D01*
X76400648Y-35958630D01*
X76449503Y-35992098D01*
X76506871Y-36051038D01*
X76547677Y-36103927D01*
X76632539Y-36219966D01*
X76706295Y-36306513D01*
X76776685Y-36371981D01*
X76830545Y-36411398D01*
X76909784Y-36453904D01*
X76973496Y-36461533D01*
X77031117Y-36433594D01*
X77071764Y-36393781D01*
X77137908Y-36291467D01*
X77188107Y-36152912D01*
X77222548Y-35977241D01*
X77241420Y-35763580D01*
X77245473Y-35586391D01*
X77245633Y-35331266D01*
X77102758Y-35284966D01*
X76950005Y-35223560D01*
X76804819Y-35142972D01*
X76672524Y-35048187D01*
X76558445Y-34944189D01*
X76467904Y-34835964D01*
X76406225Y-34728497D01*
X76378732Y-34626773D01*
X76377800Y-34606116D01*
X76387911Y-34535974D01*
X76408617Y-34478070D01*
X76465917Y-34411236D01*
X76553238Y-34366617D01*
X76664936Y-34343630D01*
X76795361Y-34341690D01*
X76938868Y-34360214D01*
X77089808Y-34398619D01*
X77242535Y-34456320D01*
X77391402Y-34532733D01*
X77478422Y-34588648D01*
X77552461Y-34640413D01*
X77637172Y-34582354D01*
X77841702Y-34463781D01*
X78050887Y-34384405D01*
X78261123Y-34345448D01*
X78346300Y-34341446D01*
X78487001Y-34353010D01*
G37*
X78487001Y-34353010D02*
X78597161Y-34388731D01*
X78674869Y-34447334D01*
X78718217Y-34527541D01*
X78727093Y-34595949D01*
X78708483Y-34689399D01*
X78656917Y-34793768D01*
X78577906Y-34902308D01*
X78476964Y-35008266D01*
X78359603Y-35104893D01*
X78257575Y-35170950D01*
X78175023Y-35212607D01*
X78075667Y-35254594D01*
X77971410Y-35292746D01*
X77874153Y-35322897D01*
X77795795Y-35340882D01*
X77762888Y-35344100D01*
X77705523Y-35344100D01*
X77720605Y-35569262D01*
X77739925Y-35753477D01*
X77771418Y-35926577D01*
X77813086Y-36082084D01*
X77862930Y-36213519D01*
X77918953Y-36314404D01*
X77967288Y-36369108D01*
X78011686Y-36400644D01*
X78053543Y-36409462D01*
X78114008Y-36399955D01*
X78114861Y-36399763D01*
X78193001Y-36377247D01*
X78265303Y-36343863D01*
X78337931Y-36294839D01*
X78417047Y-36225401D01*
X78508816Y-36130774D01*
X78612072Y-36014648D01*
X78662631Y-35959447D01*
X78701815Y-35929750D01*
X78744365Y-35917742D01*
X78798909Y-35915600D01*
X78896030Y-35932441D01*
X78967564Y-35979295D01*
X79010960Y-36050660D01*
X79023669Y-36141031D01*
X79003139Y-36244906D01*
X78978326Y-36302735D01*
X78922987Y-36387448D01*
X78840927Y-36483395D01*
X78742305Y-36581017D01*
X78637276Y-36670759D01*
X78535997Y-36743064D01*
X78473300Y-36777937D01*
X78286544Y-36850436D01*
X78115899Y-36884470D01*
X77959502Y-36879902D01*
X77815493Y-36836598D01*
X77682012Y-36754421D01*
X77638080Y-36717039D01*
X77520131Y-36609241D01*
X77474945Y-36666686D01*
X77356236Y-36788418D01*
X77220632Y-36876592D01*
X77073935Y-36928831D01*
X76921942Y-36942756D01*
X76829209Y-36931442D01*
X76677742Y-36879622D01*
X76526394Y-36787831D01*
X76378330Y-36658319D01*
X76265790Y-36530847D01*
X76172258Y-36405320D01*
X76109988Y-36301846D01*
X76076993Y-36216279D01*
X76071282Y-36144472D01*
X76073525Y-36129933D01*
X76109848Y-36046727D01*
X76175013Y-35984343D01*
X76258371Y-35948360D01*
X76349271Y-35944354D01*
X76400648Y-35958630D01*
X76449503Y-35992098D01*
X76506871Y-36051038D01*
X76547677Y-36103927D01*
X76632539Y-36219966D01*
X76706295Y-36306513D01*
X76776685Y-36371981D01*
X76830545Y-36411398D01*
X76909784Y-36453904D01*
X76973496Y-36461533D01*
X77031117Y-36433594D01*
X77071764Y-36393781D01*
X77137908Y-36291467D01*
X77188107Y-36152912D01*
X77222548Y-35977241D01*
X77241420Y-35763580D01*
X77245473Y-35586391D01*
X77245633Y-35331266D01*
X77102758Y-35284966D01*
X76950005Y-35223560D01*
X76804819Y-35142972D01*
X76672524Y-35048187D01*
X76558445Y-34944189D01*
X76467904Y-34835964D01*
X76406225Y-34728497D01*
X76378732Y-34626773D01*
X76377800Y-34606116D01*
X76387911Y-34535974D01*
X76408617Y-34478070D01*
X76465917Y-34411236D01*
X76553238Y-34366617D01*
X76664936Y-34343630D01*
X76795361Y-34341690D01*
X76938868Y-34360214D01*
X77089808Y-34398619D01*
X77242535Y-34456320D01*
X77391402Y-34532733D01*
X77478422Y-34588648D01*
X77552461Y-34640413D01*
X77637172Y-34582354D01*
X77841702Y-34463781D01*
X78050887Y-34384405D01*
X78261123Y-34345448D01*
X78346300Y-34341446D01*
X78487001Y-34353010D01*
%TD*%
M02*
