%TF.GenerationSoftware,KiCad,Pcbnew,5.1.10*%
%TF.CreationDate,2021-09-11T11:57:41+02:00*%
%TF.ProjectId,alpaka_svg2shenzhen,616c7061-6b61-45f7-9376-67327368656e,rev?*%
%TF.SameCoordinates,Original*%
%TF.FileFunction,Soldermask,Bot*%
%TF.FilePolarity,Negative*%
%FSLAX46Y46*%
G04 Gerber Fmt 4.6, Leading zero omitted, Abs format (unit mm)*
G04 Created by KiCad (PCBNEW 5.1.10) date 2021-09-11 11:57:41*
%MOMM*%
%LPD*%
G01*
G04 APERTURE LIST*
%ADD10C,0.010000*%
%ADD11C,2.200000*%
%ADD12C,1.300000*%
G04 APERTURE END LIST*
D10*
%TO.C,G\u002A\u002A\u002A*%
G36*
X79135612Y-39656871D02*
G01*
X79337549Y-39677960D01*
X79456279Y-39701457D01*
X79731624Y-39790028D01*
X79987528Y-39914353D01*
X80221113Y-40071460D01*
X80429504Y-40258379D01*
X80609824Y-40472138D01*
X80759198Y-40709764D01*
X80874748Y-40968287D01*
X80953599Y-41244735D01*
X80954567Y-41249388D01*
X80982142Y-41443316D01*
X80990742Y-41655071D01*
X80980905Y-41869597D01*
X80953166Y-42071835D01*
X80920438Y-42208065D01*
X80816589Y-42485308D01*
X80678316Y-42739829D01*
X80507704Y-42969185D01*
X80306838Y-43170931D01*
X80077805Y-43342621D01*
X79841244Y-43473228D01*
X79671946Y-43545569D01*
X79513146Y-43596686D01*
X79350498Y-43629829D01*
X79169658Y-43648245D01*
X79044800Y-43653622D01*
X78856176Y-43654271D01*
X78705714Y-43645034D01*
X78613695Y-43631030D01*
X78329033Y-43551538D01*
X78064134Y-43436629D01*
X77821680Y-43288767D01*
X77604353Y-43110420D01*
X77414837Y-42904053D01*
X77255815Y-42672133D01*
X77129969Y-42417124D01*
X77055059Y-42198425D01*
X77007678Y-41968840D01*
X76986685Y-41721891D01*
X76992178Y-41472099D01*
X77024258Y-41233989D01*
X77047731Y-41133267D01*
X77072344Y-41056723D01*
X77109519Y-40958518D01*
X77152947Y-40854887D01*
X77174041Y-40808243D01*
X77316152Y-40551014D01*
X77489089Y-40322200D01*
X77690985Y-40123328D01*
X77919969Y-39955923D01*
X78174171Y-39821511D01*
X78451724Y-39721619D01*
X78530993Y-39700624D01*
X78715973Y-39668188D01*
X78922966Y-39653608D01*
X79135612Y-39656871D01*
G37*
X79135612Y-39656871D02*
X79337549Y-39677960D01*
X79456279Y-39701457D01*
X79731624Y-39790028D01*
X79987528Y-39914353D01*
X80221113Y-40071460D01*
X80429504Y-40258379D01*
X80609824Y-40472138D01*
X80759198Y-40709764D01*
X80874748Y-40968287D01*
X80953599Y-41244735D01*
X80954567Y-41249388D01*
X80982142Y-41443316D01*
X80990742Y-41655071D01*
X80980905Y-41869597D01*
X80953166Y-42071835D01*
X80920438Y-42208065D01*
X80816589Y-42485308D01*
X80678316Y-42739829D01*
X80507704Y-42969185D01*
X80306838Y-43170931D01*
X80077805Y-43342621D01*
X79841244Y-43473228D01*
X79671946Y-43545569D01*
X79513146Y-43596686D01*
X79350498Y-43629829D01*
X79169658Y-43648245D01*
X79044800Y-43653622D01*
X78856176Y-43654271D01*
X78705714Y-43645034D01*
X78613695Y-43631030D01*
X78329033Y-43551538D01*
X78064134Y-43436629D01*
X77821680Y-43288767D01*
X77604353Y-43110420D01*
X77414837Y-42904053D01*
X77255815Y-42672133D01*
X77129969Y-42417124D01*
X77055059Y-42198425D01*
X77007678Y-41968840D01*
X76986685Y-41721891D01*
X76992178Y-41472099D01*
X77024258Y-41233989D01*
X77047731Y-41133267D01*
X77072344Y-41056723D01*
X77109519Y-40958518D01*
X77152947Y-40854887D01*
X77174041Y-40808243D01*
X77316152Y-40551014D01*
X77489089Y-40322200D01*
X77690985Y-40123328D01*
X77919969Y-39955923D01*
X78174171Y-39821511D01*
X78451724Y-39721619D01*
X78530993Y-39700624D01*
X78715973Y-39668188D01*
X78922966Y-39653608D01*
X79135612Y-39656871D01*
%TD*%
%TO.C,BT1*%
G36*
G01*
X75381840Y-59192800D02*
X73300560Y-59192800D01*
G75*
G02*
X73040400Y-58932640I0J260160D01*
G01*
X73040400Y-54251360D01*
G75*
G02*
X73300560Y-53991200I260160J0D01*
G01*
X75381840Y-53991200D01*
G75*
G02*
X75642000Y-54251360I0J-260160D01*
G01*
X75642000Y-58932640D01*
G75*
G02*
X75381840Y-59192800I-260160J0D01*
G01*
G37*
G36*
G01*
X90681840Y-59192800D02*
X88600560Y-59192800D01*
G75*
G02*
X88340400Y-58932640I0J260160D01*
G01*
X88340400Y-54251360D01*
G75*
G02*
X88600560Y-53991200I260160J0D01*
G01*
X90681840Y-53991200D01*
G75*
G02*
X90942000Y-54251360I0J-260160D01*
G01*
X90942000Y-58932640D01*
G75*
G02*
X90681840Y-59192800I-260160J0D01*
G01*
G37*
G36*
G01*
X87142000Y-56642000D02*
X87142000Y-56642000D01*
G75*
G02*
X81991200Y-61792800I-5150800J0D01*
G01*
X81991200Y-61792800D01*
G75*
G02*
X76840400Y-56642000I0J5150800D01*
G01*
X76840400Y-56642000D01*
G75*
G02*
X81991200Y-51491200I5150800J0D01*
G01*
X81991200Y-51491200D01*
G75*
G02*
X87142000Y-56642000I0J-5150800D01*
G01*
G37*
%TD*%
%TO.C,D1*%
G36*
G01*
X96299200Y-47563200D02*
X96299200Y-49363200D01*
G75*
G02*
X96099200Y-49563200I-200000J0D01*
G01*
X94299200Y-49563200D01*
G75*
G02*
X94099200Y-49363200I0J200000D01*
G01*
X94099200Y-47563200D01*
G75*
G02*
X94299200Y-47363200I200000J0D01*
G01*
X96099200Y-47363200D01*
G75*
G02*
X96299200Y-47563200I0J-200000D01*
G01*
G37*
D11*
X92659200Y-48463200D03*
%TD*%
%TO.C,SW1*%
G36*
G01*
X101003600Y-50523000D02*
X103503600Y-50523000D01*
G75*
G02*
X103703600Y-50723000I0J-200000D01*
G01*
X103703600Y-51973000D01*
G75*
G02*
X103503600Y-52173000I-200000J0D01*
G01*
X101003600Y-52173000D01*
G75*
G02*
X100803600Y-51973000I0J200000D01*
G01*
X100803600Y-50723000D01*
G75*
G02*
X101003600Y-50523000I200000J0D01*
G01*
G37*
G36*
G01*
X101003600Y-53023000D02*
X103503600Y-53023000D01*
G75*
G02*
X103703600Y-53223000I0J-200000D01*
G01*
X103703600Y-54473000D01*
G75*
G02*
X103503600Y-54673000I-200000J0D01*
G01*
X101003600Y-54673000D01*
G75*
G02*
X100803600Y-54473000I0J200000D01*
G01*
X100803600Y-53223000D01*
G75*
G02*
X101003600Y-53023000I200000J0D01*
G01*
G37*
G36*
G01*
X101003600Y-55523000D02*
X103503600Y-55523000D01*
G75*
G02*
X103703600Y-55723000I0J-200000D01*
G01*
X103703600Y-56973000D01*
G75*
G02*
X103503600Y-57173000I-200000J0D01*
G01*
X101003600Y-57173000D01*
G75*
G02*
X100803600Y-56973000I0J200000D01*
G01*
X100803600Y-55723000D01*
G75*
G02*
X101003600Y-55523000I200000J0D01*
G01*
G37*
D12*
X105003600Y-50448000D03*
X105003600Y-57248000D03*
%TD*%
M02*
