%TF.GenerationSoftware,KiCad,Pcbnew,5.1.10*%
%TF.CreationDate,2021-09-11T14:18:55+02:00*%
%TF.ProjectId,alpaka_svg2shenzhen,616c7061-6b61-45f7-9376-67327368656e,rev?*%
%TF.SameCoordinates,Original*%
%TF.FileFunction,Soldermask,Top*%
%TF.FilePolarity,Negative*%
%FSLAX46Y46*%
G04 Gerber Fmt 4.6, Leading zero omitted, Abs format (unit mm)*
G04 Created by KiCad (PCBNEW 5.1.10) date 2021-09-11 14:18:55*
%MOMM*%
%LPD*%
G01*
G04 APERTURE LIST*
%ADD10C,0.010000*%
%ADD11C,2.200000*%
%ADD12C,1.300000*%
G04 APERTURE END LIST*
D10*
%TO.C,G\u002A\u002A\u002A*%
G36*
X73619347Y-34617355D02*
G01*
X73795534Y-34673333D01*
X73950070Y-34759187D01*
X74078877Y-34873012D01*
X74177875Y-35012905D01*
X74202164Y-35061909D01*
X74237708Y-35175749D01*
X74256884Y-35312949D01*
X74259265Y-35457653D01*
X74244428Y-35594006D01*
X74218990Y-35688790D01*
X74145480Y-35828485D01*
X74037866Y-35957401D01*
X73904198Y-36068632D01*
X73752527Y-36155276D01*
X73618721Y-36203574D01*
X73513010Y-36221768D01*
X73382242Y-36229645D01*
X73242384Y-36227323D01*
X73109406Y-36214922D01*
X73023938Y-36199115D01*
X72856712Y-36140620D01*
X72720453Y-36053433D01*
X72615067Y-35937419D01*
X72540458Y-35792443D01*
X72496531Y-35618370D01*
X72483133Y-35428767D01*
X72492496Y-35253025D01*
X72522533Y-35107404D01*
X72576167Y-34983596D01*
X72656320Y-34873289D01*
X72691652Y-34835861D01*
X72801002Y-34743138D01*
X72921817Y-34675910D01*
X73064075Y-34629760D01*
X73218334Y-34602639D01*
X73425587Y-34593155D01*
X73619347Y-34617355D01*
G37*
X73619347Y-34617355D02*
X73795534Y-34673333D01*
X73950070Y-34759187D01*
X74078877Y-34873012D01*
X74177875Y-35012905D01*
X74202164Y-35061909D01*
X74237708Y-35175749D01*
X74256884Y-35312949D01*
X74259265Y-35457653D01*
X74244428Y-35594006D01*
X74218990Y-35688790D01*
X74145480Y-35828485D01*
X74037866Y-35957401D01*
X73904198Y-36068632D01*
X73752527Y-36155276D01*
X73618721Y-36203574D01*
X73513010Y-36221768D01*
X73382242Y-36229645D01*
X73242384Y-36227323D01*
X73109406Y-36214922D01*
X73023938Y-36199115D01*
X72856712Y-36140620D01*
X72720453Y-36053433D01*
X72615067Y-35937419D01*
X72540458Y-35792443D01*
X72496531Y-35618370D01*
X72483133Y-35428767D01*
X72492496Y-35253025D01*
X72522533Y-35107404D01*
X72576167Y-34983596D01*
X72656320Y-34873289D01*
X72691652Y-34835861D01*
X72801002Y-34743138D01*
X72921817Y-34675910D01*
X73064075Y-34629760D01*
X73218334Y-34602639D01*
X73425587Y-34593155D01*
X73619347Y-34617355D01*
G36*
X81732782Y-34600183D02*
G01*
X81907825Y-34634775D01*
X82067953Y-34695242D01*
X82207610Y-34779955D01*
X82321239Y-34887283D01*
X82403283Y-35015596D01*
X82409996Y-35030585D01*
X82463641Y-35204288D01*
X82485264Y-35393229D01*
X82474897Y-35584998D01*
X82432573Y-35767181D01*
X82407909Y-35831800D01*
X82339604Y-35944307D01*
X82240043Y-36047344D01*
X82120296Y-36130796D01*
X82038813Y-36169015D01*
X81925512Y-36200311D01*
X81787728Y-36220494D01*
X81639500Y-36229091D01*
X81494867Y-36225631D01*
X81367870Y-36209643D01*
X81305351Y-36193634D01*
X81120395Y-36112544D01*
X80965203Y-36002087D01*
X80840850Y-35863182D01*
X80762695Y-35728807D01*
X80735835Y-35666232D01*
X80719124Y-35608987D01*
X80710290Y-35543584D01*
X80707066Y-35456537D01*
X80706855Y-35397017D01*
X80708472Y-35293238D01*
X80714454Y-35217653D01*
X80727314Y-35156163D01*
X80749568Y-35094667D01*
X80768348Y-35052180D01*
X80849679Y-34918371D01*
X80959789Y-34800381D01*
X81088055Y-34708278D01*
X81173728Y-34667956D01*
X81360177Y-34615144D01*
X81548381Y-34593096D01*
X81732782Y-34600183D01*
G37*
X81732782Y-34600183D02*
X81907825Y-34634775D01*
X82067953Y-34695242D01*
X82207610Y-34779955D01*
X82321239Y-34887283D01*
X82403283Y-35015596D01*
X82409996Y-35030585D01*
X82463641Y-35204288D01*
X82485264Y-35393229D01*
X82474897Y-35584998D01*
X82432573Y-35767181D01*
X82407909Y-35831800D01*
X82339604Y-35944307D01*
X82240043Y-36047344D01*
X82120296Y-36130796D01*
X82038813Y-36169015D01*
X81925512Y-36200311D01*
X81787728Y-36220494D01*
X81639500Y-36229091D01*
X81494867Y-36225631D01*
X81367870Y-36209643D01*
X81305351Y-36193634D01*
X81120395Y-36112544D01*
X80965203Y-36002087D01*
X80840850Y-35863182D01*
X80762695Y-35728807D01*
X80735835Y-35666232D01*
X80719124Y-35608987D01*
X80710290Y-35543584D01*
X80707066Y-35456537D01*
X80706855Y-35397017D01*
X80708472Y-35293238D01*
X80714454Y-35217653D01*
X80727314Y-35156163D01*
X80749568Y-35094667D01*
X80768348Y-35052180D01*
X80849679Y-34918371D01*
X80959789Y-34800381D01*
X81088055Y-34708278D01*
X81173728Y-34667956D01*
X81360177Y-34615144D01*
X81548381Y-34593096D01*
X81732782Y-34600183D01*
%TD*%
%TO.C,D1*%
G36*
G01*
X96299200Y-47563200D02*
X96299200Y-49363200D01*
G75*
G02*
X96099200Y-49563200I-200000J0D01*
G01*
X94299200Y-49563200D01*
G75*
G02*
X94099200Y-49363200I0J200000D01*
G01*
X94099200Y-47563200D01*
G75*
G02*
X94299200Y-47363200I200000J0D01*
G01*
X96099200Y-47363200D01*
G75*
G02*
X96299200Y-47563200I0J-200000D01*
G01*
G37*
D11*
X92659200Y-48463200D03*
%TD*%
D12*
%TO.C,SW1*%
X105003600Y-50448000D03*
X105003600Y-57248000D03*
%TD*%
M02*
