%TF.GenerationSoftware,KiCad,Pcbnew,5.1.10*%
%TF.CreationDate,2021-09-11T14:18:55+02:00*%
%TF.ProjectId,alpaka_svg2shenzhen,616c7061-6b61-45f7-9376-67327368656e,rev?*%
%TF.SameCoordinates,Original*%
%TF.FileFunction,Copper,L1,Top*%
%TF.FilePolarity,Positive*%
%FSLAX46Y46*%
G04 Gerber Fmt 4.6, Leading zero omitted, Abs format (unit mm)*
G04 Created by KiCad (PCBNEW 5.1.10) date 2021-09-11 14:18:55*
%MOMM*%
%LPD*%
G01*
G04 APERTURE LIST*
%TA.AperFunction,EtchedComponent*%
%ADD10C,0.010000*%
%TD*%
%TA.AperFunction,ComponentPad*%
%ADD11R,1.800000X1.800000*%
%TD*%
%TA.AperFunction,ComponentPad*%
%ADD12C,1.800000*%
%TD*%
G04 APERTURE END LIST*
D10*
%TO.C,G\u002A\u002A\u002A*%
G36*
X73449801Y-34521313D02*
G01*
X73588683Y-34531450D01*
X73699476Y-34551046D01*
X73883385Y-34618461D01*
X74040805Y-34716492D01*
X74169035Y-34842167D01*
X74265377Y-34992517D01*
X74327129Y-35164573D01*
X74344550Y-35260637D01*
X74351597Y-35464923D01*
X74319480Y-35653264D01*
X74248245Y-35825507D01*
X74137940Y-35981501D01*
X74113545Y-36008259D01*
X73965922Y-36134119D01*
X73793393Y-36227856D01*
X73599707Y-36288509D01*
X73388612Y-36315117D01*
X73163856Y-36306718D01*
X73030954Y-36285875D01*
X72848896Y-36231307D01*
X72696316Y-36146482D01*
X72573964Y-36032240D01*
X72482592Y-35889421D01*
X72422953Y-35718864D01*
X72400297Y-35581512D01*
X72393565Y-35357121D01*
X72420045Y-35156626D01*
X72479018Y-34981199D01*
X72569759Y-34832013D01*
X72691547Y-34710238D01*
X72843659Y-34617047D01*
X73025375Y-34553611D01*
X73035300Y-34551224D01*
X73157415Y-34531204D01*
X73300814Y-34521232D01*
X73449801Y-34521313D01*
G37*
X73449801Y-34521313D02*
X73588683Y-34531450D01*
X73699476Y-34551046D01*
X73883385Y-34618461D01*
X74040805Y-34716492D01*
X74169035Y-34842167D01*
X74265377Y-34992517D01*
X74327129Y-35164573D01*
X74344550Y-35260637D01*
X74351597Y-35464923D01*
X74319480Y-35653264D01*
X74248245Y-35825507D01*
X74137940Y-35981501D01*
X74113545Y-36008259D01*
X73965922Y-36134119D01*
X73793393Y-36227856D01*
X73599707Y-36288509D01*
X73388612Y-36315117D01*
X73163856Y-36306718D01*
X73030954Y-36285875D01*
X72848896Y-36231307D01*
X72696316Y-36146482D01*
X72573964Y-36032240D01*
X72482592Y-35889421D01*
X72422953Y-35718864D01*
X72400297Y-35581512D01*
X72393565Y-35357121D01*
X72420045Y-35156626D01*
X72479018Y-34981199D01*
X72569759Y-34832013D01*
X72691547Y-34710238D01*
X72843659Y-34617047D01*
X73025375Y-34553611D01*
X73035300Y-34551224D01*
X73157415Y-34531204D01*
X73300814Y-34521232D01*
X73449801Y-34521313D01*
G36*
X81801968Y-34529172D02*
G01*
X81974728Y-34562524D01*
X82124775Y-34621108D01*
X82259317Y-34707376D01*
X82328340Y-34766597D01*
X82436826Y-34896571D01*
X82514847Y-35053119D01*
X82561278Y-35232298D01*
X82574996Y-35430165D01*
X82562990Y-35589583D01*
X82524473Y-35776171D01*
X82461925Y-35930026D01*
X82372891Y-36054837D01*
X82254915Y-36154293D01*
X82147592Y-36213710D01*
X81993447Y-36268166D01*
X81815984Y-36302860D01*
X81630006Y-36316439D01*
X81450315Y-36307550D01*
X81338163Y-36287714D01*
X81150165Y-36221948D01*
X80981705Y-36122563D01*
X80838145Y-35993810D01*
X80724846Y-35839942D01*
X80689632Y-35773229D01*
X80659393Y-35706560D01*
X80639795Y-35651458D01*
X80628580Y-35595312D01*
X80623493Y-35525509D01*
X80622276Y-35429438D01*
X80622319Y-35397017D01*
X80629553Y-35233584D01*
X80652598Y-35100298D01*
X80694875Y-34986828D01*
X80759808Y-34882839D01*
X80814517Y-34816845D01*
X80945164Y-34697554D01*
X81095913Y-34609708D01*
X81270375Y-34551933D01*
X81472162Y-34522858D01*
X81599283Y-34518600D01*
X81801968Y-34529172D01*
G37*
X81801968Y-34529172D02*
X81974728Y-34562524D01*
X82124775Y-34621108D01*
X82259317Y-34707376D01*
X82328340Y-34766597D01*
X82436826Y-34896571D01*
X82514847Y-35053119D01*
X82561278Y-35232298D01*
X82574996Y-35430165D01*
X82562990Y-35589583D01*
X82524473Y-35776171D01*
X82461925Y-35930026D01*
X82372891Y-36054837D01*
X82254915Y-36154293D01*
X82147592Y-36213710D01*
X81993447Y-36268166D01*
X81815984Y-36302860D01*
X81630006Y-36316439D01*
X81450315Y-36307550D01*
X81338163Y-36287714D01*
X81150165Y-36221948D01*
X80981705Y-36122563D01*
X80838145Y-35993810D01*
X80724846Y-35839942D01*
X80689632Y-35773229D01*
X80659393Y-35706560D01*
X80639795Y-35651458D01*
X80628580Y-35595312D01*
X80623493Y-35525509D01*
X80622276Y-35429438D01*
X80622319Y-35397017D01*
X80629553Y-35233584D01*
X80652598Y-35100298D01*
X80694875Y-34986828D01*
X80759808Y-34882839D01*
X80814517Y-34816845D01*
X80945164Y-34697554D01*
X81095913Y-34609708D01*
X81270375Y-34551933D01*
X81472162Y-34522858D01*
X81599283Y-34518600D01*
X81801968Y-34529172D01*
%TD*%
D11*
%TO.P,D1,1*%
%TO.N,Net-(D1-Pad1)*%
X95199200Y-48463200D03*
D12*
%TO.P,D1,2*%
%TO.N,Net-(BT1-Pad1)*%
X92659200Y-48463200D03*
%TD*%
M02*
