%TF.GenerationSoftware,KiCad,Pcbnew,5.1.10*%
%TF.CreationDate,2021-10-07T15:14:53+02:00*%
%TF.ProjectId,alpaka_svg2shenzhen,616c7061-6b61-45f7-9376-67327368656e,rev?*%
%TF.SameCoordinates,Original*%
%TF.FileFunction,Soldermask,Bot*%
%TF.FilePolarity,Negative*%
%FSLAX46Y46*%
G04 Gerber Fmt 4.6, Leading zero omitted, Abs format (unit mm)*
G04 Created by KiCad (PCBNEW 5.1.10) date 2021-10-07 15:14:53*
%MOMM*%
%LPD*%
G01*
G04 APERTURE LIST*
%ADD10C,1.000000*%
%ADD11C,2.200000*%
%ADD12C,1.300000*%
G04 APERTURE END LIST*
D10*
%TO.C,G\u002A\u002A\u002A*%
G36*
X72785612Y-53169671D02*
G01*
X72987549Y-53190760D01*
X73106279Y-53214257D01*
X73381624Y-53302828D01*
X73637528Y-53427153D01*
X73871113Y-53584260D01*
X74079504Y-53771179D01*
X74259824Y-53984938D01*
X74409198Y-54222564D01*
X74524748Y-54481087D01*
X74603599Y-54757535D01*
X74604567Y-54762188D01*
X74632142Y-54956116D01*
X74640742Y-55167871D01*
X74630905Y-55382397D01*
X74603166Y-55584635D01*
X74570438Y-55720865D01*
X74466589Y-55998108D01*
X74328316Y-56252629D01*
X74157704Y-56481985D01*
X73956838Y-56683731D01*
X73727805Y-56855421D01*
X73491244Y-56986028D01*
X73321946Y-57058369D01*
X73163146Y-57109486D01*
X73000498Y-57142629D01*
X72819658Y-57161045D01*
X72694800Y-57166422D01*
X72506176Y-57167071D01*
X72355714Y-57157834D01*
X72263695Y-57143830D01*
X71979033Y-57064338D01*
X71714134Y-56949429D01*
X71471680Y-56801567D01*
X71254353Y-56623220D01*
X71064837Y-56416853D01*
X70905815Y-56184933D01*
X70779969Y-55929924D01*
X70705059Y-55711225D01*
X70657678Y-55481640D01*
X70636685Y-55234691D01*
X70642178Y-54984899D01*
X70674258Y-54746789D01*
X70697731Y-54646067D01*
X70722344Y-54569523D01*
X70759519Y-54471318D01*
X70802947Y-54367687D01*
X70824041Y-54321043D01*
X70966152Y-54063814D01*
X71139089Y-53835000D01*
X71340985Y-53636128D01*
X71569969Y-53468723D01*
X71824171Y-53334311D01*
X72101724Y-53234419D01*
X72180993Y-53213424D01*
X72365973Y-53180988D01*
X72572966Y-53166408D01*
X72785612Y-53169671D01*
G37*
X72785612Y-53169671D02*
X72987549Y-53190760D01*
X73106279Y-53214257D01*
X73381624Y-53302828D01*
X73637528Y-53427153D01*
X73871113Y-53584260D01*
X74079504Y-53771179D01*
X74259824Y-53984938D01*
X74409198Y-54222564D01*
X74524748Y-54481087D01*
X74603599Y-54757535D01*
X74604567Y-54762188D01*
X74632142Y-54956116D01*
X74640742Y-55167871D01*
X74630905Y-55382397D01*
X74603166Y-55584635D01*
X74570438Y-55720865D01*
X74466589Y-55998108D01*
X74328316Y-56252629D01*
X74157704Y-56481985D01*
X73956838Y-56683731D01*
X73727805Y-56855421D01*
X73491244Y-56986028D01*
X73321946Y-57058369D01*
X73163146Y-57109486D01*
X73000498Y-57142629D01*
X72819658Y-57161045D01*
X72694800Y-57166422D01*
X72506176Y-57167071D01*
X72355714Y-57157834D01*
X72263695Y-57143830D01*
X71979033Y-57064338D01*
X71714134Y-56949429D01*
X71471680Y-56801567D01*
X71254353Y-56623220D01*
X71064837Y-56416853D01*
X70905815Y-56184933D01*
X70779969Y-55929924D01*
X70705059Y-55711225D01*
X70657678Y-55481640D01*
X70636685Y-55234691D01*
X70642178Y-54984899D01*
X70674258Y-54746789D01*
X70697731Y-54646067D01*
X70722344Y-54569523D01*
X70759519Y-54471318D01*
X70802947Y-54367687D01*
X70824041Y-54321043D01*
X70966152Y-54063814D01*
X71139089Y-53835000D01*
X71340985Y-53636128D01*
X71569969Y-53468723D01*
X71824171Y-53334311D01*
X72101724Y-53234419D01*
X72180993Y-53213424D01*
X72365973Y-53180988D01*
X72572966Y-53166408D01*
X72785612Y-53169671D01*
%TD*%
%TO.C,BT1*%
G36*
G01*
X82047360Y-69940800D02*
X84128640Y-69940800D01*
G75*
G02*
X84388800Y-70200960I0J-260160D01*
G01*
X84388800Y-74882240D01*
G75*
G02*
X84128640Y-75142400I-260160J0D01*
G01*
X82047360Y-75142400D01*
G75*
G02*
X81787200Y-74882240I0J260160D01*
G01*
X81787200Y-70200960D01*
G75*
G02*
X82047360Y-69940800I260160J0D01*
G01*
G37*
G36*
G01*
X66747360Y-69940800D02*
X68828640Y-69940800D01*
G75*
G02*
X69088800Y-70200960I0J-260160D01*
G01*
X69088800Y-74882240D01*
G75*
G02*
X68828640Y-75142400I-260160J0D01*
G01*
X66747360Y-75142400D01*
G75*
G02*
X66487200Y-74882240I0J260160D01*
G01*
X66487200Y-70200960D01*
G75*
G02*
X66747360Y-69940800I260160J0D01*
G01*
G37*
G36*
G01*
X70287200Y-72491600D02*
X70287200Y-72491600D01*
G75*
G02*
X75438000Y-67340800I5150800J0D01*
G01*
X75438000Y-67340800D01*
G75*
G02*
X80588800Y-72491600I0J-5150800D01*
G01*
X80588800Y-72491600D01*
G75*
G02*
X75438000Y-77642400I-5150800J0D01*
G01*
X75438000Y-77642400D01*
G75*
G02*
X70287200Y-72491600I0J5150800D01*
G01*
G37*
%TD*%
%TO.C,D1*%
G36*
G01*
X86901200Y-62650800D02*
X86901200Y-64450800D01*
G75*
G02*
X86701200Y-64650800I-200000J0D01*
G01*
X84901200Y-64650800D01*
G75*
G02*
X84701200Y-64450800I0J200000D01*
G01*
X84701200Y-62650800D01*
G75*
G02*
X84901200Y-62450800I200000J0D01*
G01*
X86701200Y-62450800D01*
G75*
G02*
X86901200Y-62650800I0J-200000D01*
G01*
G37*
D11*
X83261200Y-63550800D03*
%TD*%
%TO.C,SW1*%
G36*
G01*
X94660400Y-63985000D02*
X97160400Y-63985000D01*
G75*
G02*
X97360400Y-64185000I0J-200000D01*
G01*
X97360400Y-65435000D01*
G75*
G02*
X97160400Y-65635000I-200000J0D01*
G01*
X94660400Y-65635000D01*
G75*
G02*
X94460400Y-65435000I0J200000D01*
G01*
X94460400Y-64185000D01*
G75*
G02*
X94660400Y-63985000I200000J0D01*
G01*
G37*
G36*
G01*
X94660400Y-66485000D02*
X97160400Y-66485000D01*
G75*
G02*
X97360400Y-66685000I0J-200000D01*
G01*
X97360400Y-67935000D01*
G75*
G02*
X97160400Y-68135000I-200000J0D01*
G01*
X94660400Y-68135000D01*
G75*
G02*
X94460400Y-67935000I0J200000D01*
G01*
X94460400Y-66685000D01*
G75*
G02*
X94660400Y-66485000I200000J0D01*
G01*
G37*
G36*
G01*
X94660400Y-68985000D02*
X97160400Y-68985000D01*
G75*
G02*
X97360400Y-69185000I0J-200000D01*
G01*
X97360400Y-70435000D01*
G75*
G02*
X97160400Y-70635000I-200000J0D01*
G01*
X94660400Y-70635000D01*
G75*
G02*
X94460400Y-70435000I0J200000D01*
G01*
X94460400Y-69185000D01*
G75*
G02*
X94660400Y-68985000I200000J0D01*
G01*
G37*
D12*
X98660400Y-63910000D03*
X98660400Y-70710000D03*
%TD*%
M02*
