%TF.GenerationSoftware,KiCad,Pcbnew,5.1.10*%
%TF.CreationDate,2021-10-07T15:14:53+02:00*%
%TF.ProjectId,alpaka_svg2shenzhen,616c7061-6b61-45f7-9376-67327368656e,rev?*%
%TF.SameCoordinates,Original*%
%TF.FileFunction,Profile,NP*%
%FSLAX46Y46*%
G04 Gerber Fmt 4.6, Leading zero omitted, Abs format (unit mm)*
G04 Created by KiCad (PCBNEW 5.1.10) date 2021-10-07 15:14:53*
%MOMM*%
%LPD*%
G01*
G04 APERTURE LIST*
%TA.AperFunction,Profile*%
%ADD10C,0.100000*%
%TD*%
G04 APERTURE END LIST*
D10*
X66092584Y-37733055D02*
X65970108Y-37736156D01*
X65970108Y-37736156D02*
X65878139Y-37742357D01*
X65878139Y-37742357D02*
X65787176Y-37753726D01*
X65787176Y-37753726D02*
X65698302Y-37771296D01*
X65698302Y-37771296D02*
X65611492Y-37793517D01*
X65611492Y-37793517D02*
X65526217Y-37821422D01*
X65526217Y-37821422D02*
X65443535Y-37853978D01*
X65443535Y-37853978D02*
X65362917Y-37891185D01*
X65362917Y-37891185D02*
X65284891Y-37932526D01*
X65284891Y-37932526D02*
X65208929Y-37978518D01*
X65208929Y-37978518D02*
X65136063Y-38028644D01*
X65136063Y-38028644D02*
X65065261Y-38082387D01*
X65065261Y-38082387D02*
X64998083Y-38140265D01*
X64998083Y-38140265D02*
X64933499Y-38201244D01*
X64933499Y-38201244D02*
X64872512Y-38265323D01*
X64872512Y-38265323D02*
X64814119Y-38333017D01*
X64814119Y-38333017D02*
X64759853Y-38403298D01*
X64759853Y-38403298D02*
X64708709Y-38476161D01*
X64708709Y-38476161D02*
X64661163Y-38551091D01*
X64661163Y-38551091D02*
X64617745Y-38628606D01*
X64617745Y-38628606D02*
X64578481Y-38708187D01*
X64578481Y-38708187D02*
X64542815Y-38789319D01*
X64542815Y-38789319D02*
X64511303Y-38872520D01*
X64511303Y-38872520D02*
X64484422Y-38956753D01*
X64484422Y-38956753D02*
X64461694Y-39042536D01*
X64461694Y-39042536D02*
X64443597Y-39128835D01*
X64443597Y-39128835D02*
X64430156Y-39216168D01*
X64430156Y-39216168D02*
X64421901Y-39304534D01*
X64421901Y-39304534D02*
X64418276Y-39392899D01*
X64418276Y-39392899D02*
X64419837Y-39481267D01*
X64419837Y-39481267D02*
X64426557Y-39569633D01*
X64426557Y-39569633D02*
X64438940Y-39658001D01*
X64438940Y-39658001D02*
X64456508Y-39745850D01*
X64456508Y-39745850D02*
X64396580Y-39791324D01*
X64396580Y-39791324D02*
X64339219Y-39840417D01*
X64339219Y-39840417D02*
X64232750Y-39945838D01*
X64232750Y-39945838D02*
X64137157Y-40061593D01*
X64137157Y-40061593D02*
X64052913Y-40186132D01*
X64052913Y-40186132D02*
X63980074Y-40317908D01*
X63980074Y-40317908D02*
X63919087Y-40456401D01*
X63919087Y-40456401D02*
X63870510Y-40599535D01*
X63870510Y-40599535D02*
X63834844Y-40746299D01*
X63834844Y-40746299D02*
X63811587Y-40895127D01*
X63811587Y-40895127D02*
X63802300Y-41045516D01*
X63802300Y-41045516D02*
X63806428Y-41195879D01*
X63806428Y-41195879D02*
X63824525Y-41344707D01*
X63824525Y-41344707D02*
X63857069Y-41490439D01*
X63857069Y-41490439D02*
X63904615Y-41632547D01*
X63904615Y-41632547D02*
X63933560Y-41701788D01*
X63933560Y-41701788D02*
X63966633Y-41769495D01*
X63966633Y-41769495D02*
X64003833Y-41835640D01*
X64003833Y-41835640D02*
X64044658Y-41899722D01*
X64044658Y-41899722D02*
X63973856Y-42017039D01*
X63973856Y-42017039D02*
X63915462Y-42140546D01*
X63915462Y-42140546D02*
X63869478Y-42268683D01*
X63869478Y-42268683D02*
X63835373Y-42399943D01*
X63835373Y-42399943D02*
X63812619Y-42534298D01*
X63812619Y-42534298D02*
X63802300Y-42670744D01*
X63802300Y-42670744D02*
X63802803Y-42807665D01*
X63802803Y-42807665D02*
X63814709Y-42944111D01*
X63814709Y-42944111D02*
X63837437Y-43080001D01*
X63837437Y-43080001D02*
X63871039Y-43213324D01*
X63871039Y-43213324D02*
X63915462Y-43343552D01*
X63915462Y-43343552D02*
X63969728Y-43469652D01*
X63969728Y-43469652D02*
X64034313Y-43590567D01*
X64034313Y-43590567D02*
X64108740Y-43705819D01*
X64108740Y-43705819D02*
X64192957Y-43813822D01*
X64192957Y-43813822D02*
X64286514Y-43913543D01*
X64286514Y-43913543D02*
X64287016Y-44016386D01*
X64287016Y-44016386D02*
X64275639Y-44113541D01*
X64275639Y-44113541D02*
X64254473Y-44206542D01*
X64254473Y-44206542D02*
X64224495Y-44295442D01*
X64224495Y-44295442D02*
X64187798Y-44381749D01*
X64187798Y-44381749D02*
X64145941Y-44465463D01*
X64145941Y-44465463D02*
X64053443Y-44629796D01*
X64053443Y-44629796D02*
X63959912Y-44794102D01*
X63959912Y-44794102D02*
X63917024Y-44878345D01*
X63917024Y-44878345D02*
X63878765Y-44965155D01*
X63878765Y-44965155D02*
X63847253Y-45055086D01*
X63847253Y-45055086D02*
X63823493Y-45148616D01*
X63823493Y-45148616D02*
X63809021Y-45247306D01*
X63809021Y-45247306D02*
X63806428Y-45351181D01*
X63806428Y-45351181D02*
X63795051Y-45406479D01*
X63795051Y-45406479D02*
X63788330Y-45460745D01*
X63788330Y-45460745D02*
X63786267Y-45567187D01*
X63786267Y-45567187D02*
X63798676Y-45670533D01*
X63798676Y-45670533D02*
X63822462Y-45771842D01*
X63822462Y-45771842D02*
X63854476Y-45871060D01*
X63854476Y-45871060D02*
X63892735Y-45968718D01*
X63892735Y-45968718D02*
X63976952Y-46160964D01*
X63976952Y-46160964D02*
X64017777Y-46256029D01*
X64017777Y-46256029D02*
X64053972Y-46351649D01*
X64053972Y-46351649D02*
X64083420Y-46447745D01*
X64083420Y-46447745D02*
X64103052Y-46544398D01*
X64103052Y-46544398D02*
X64110275Y-46642584D01*
X64110275Y-46642584D02*
X64108211Y-46692194D01*
X64108211Y-46692194D02*
X64102020Y-46742306D01*
X64102020Y-46742306D02*
X64091675Y-46792947D01*
X64091675Y-46792947D02*
X64076699Y-46844620D01*
X64076699Y-46844620D02*
X64056538Y-46896319D01*
X64056538Y-46896319D02*
X64031218Y-46949024D01*
X64031218Y-46949024D02*
X64013649Y-47007418D01*
X64013649Y-47007418D02*
X64001769Y-47064779D01*
X64001769Y-47064779D02*
X63994520Y-47121109D01*
X63994520Y-47121109D02*
X63991424Y-47176910D01*
X63991424Y-47176910D02*
X63997642Y-47286474D01*
X63997642Y-47286474D02*
X64017274Y-47392915D01*
X64017274Y-47392915D02*
X64047251Y-47497822D01*
X64047251Y-47497822D02*
X64085484Y-47601169D01*
X64085484Y-47601169D02*
X64172293Y-47803733D01*
X64172293Y-47803733D02*
X64215182Y-47904010D01*
X64215182Y-47904010D02*
X64254473Y-48004763D01*
X64254473Y-48004763D02*
X64287016Y-48105543D01*
X64287016Y-48105543D02*
X64309241Y-48207328D01*
X64309241Y-48207328D02*
X64318555Y-48310172D01*
X64318555Y-48310172D02*
X64318026Y-48362374D01*
X64318026Y-48362374D02*
X64312337Y-48414550D01*
X64312337Y-48414550D02*
X64302521Y-48467784D01*
X64302521Y-48467784D02*
X64288048Y-48521521D01*
X64288048Y-48521521D02*
X64267384Y-48575787D01*
X64267384Y-48575787D02*
X64241535Y-48630555D01*
X64241535Y-48630555D02*
X64223966Y-48708607D01*
X64223966Y-48708607D02*
X64214150Y-48787135D01*
X64214150Y-48787135D02*
X64212616Y-48865690D01*
X64212616Y-48865690D02*
X64217775Y-48945277D01*
X64217775Y-48945277D02*
X64228623Y-49023831D01*
X64228623Y-49023831D02*
X64244657Y-49102889D01*
X64244657Y-49102889D02*
X64288048Y-49258437D01*
X64288048Y-49258437D02*
X64341282Y-49410361D01*
X64341282Y-49410361D02*
X64396580Y-49557125D01*
X64396580Y-49557125D02*
X64448253Y-49696137D01*
X64448253Y-49696137D02*
X64488047Y-49825835D01*
X64488047Y-49825835D02*
X64457037Y-49953999D01*
X64457037Y-49953999D02*
X64436876Y-50083698D01*
X64436876Y-50083698D02*
X64427060Y-50214455D01*
X64427060Y-50214455D02*
X64428092Y-50345185D01*
X64428092Y-50345185D02*
X64438940Y-50474910D01*
X64438940Y-50474910D02*
X64459630Y-50603577D01*
X64459630Y-50603577D02*
X64489581Y-50730180D01*
X64489581Y-50730180D02*
X64529374Y-50854190D01*
X64529374Y-50854190D02*
X64577449Y-50974602D01*
X64577449Y-50974602D02*
X64634811Y-51090886D01*
X64634811Y-51090886D02*
X64700427Y-51203016D01*
X64700427Y-51203016D02*
X64774325Y-51309458D01*
X64774325Y-51309458D02*
X64855976Y-51409735D01*
X64855976Y-51409735D02*
X64945378Y-51503265D01*
X64945378Y-51503265D02*
X65042004Y-51589546D01*
X65042004Y-51589546D02*
X65145879Y-51667598D01*
X65145879Y-51667598D02*
X65118998Y-51720805D01*
X65118998Y-51720805D02*
X65096799Y-51774569D01*
X65096799Y-51774569D02*
X65079231Y-51828305D01*
X65079231Y-51828305D02*
X65065261Y-51882042D01*
X65065261Y-51882042D02*
X65049254Y-51989542D01*
X65049254Y-51989542D02*
X65045629Y-52097016D01*
X65045629Y-52097016D02*
X65053381Y-52204516D01*
X65053381Y-52204516D02*
X65069918Y-52311487D01*
X65069918Y-52311487D02*
X65093677Y-52417929D01*
X65093677Y-52417929D02*
X65121591Y-52523868D01*
X65121591Y-52523868D02*
X65183080Y-52731592D01*
X65183080Y-52731592D02*
X65238377Y-52933654D01*
X65238377Y-52933654D02*
X65258010Y-53031840D01*
X65258010Y-53031840D02*
X65269916Y-53127964D01*
X65269916Y-53127964D02*
X65271450Y-53222023D01*
X65271450Y-53222023D02*
X65261132Y-53313489D01*
X65261132Y-53313489D02*
X65201177Y-53406490D01*
X65201177Y-53406490D02*
X65153632Y-53503142D01*
X65153632Y-53503142D02*
X65117463Y-53602361D01*
X65117463Y-53602361D02*
X65091613Y-53703643D01*
X65091613Y-53703643D02*
X65074574Y-53806989D01*
X65074574Y-53806989D02*
X65066293Y-53911896D01*
X65066293Y-53911896D02*
X65065790Y-54017836D01*
X65065790Y-54017836D02*
X65070949Y-54123775D01*
X65070949Y-54123775D02*
X65081797Y-54229714D01*
X65081797Y-54229714D02*
X65096799Y-54335123D01*
X65096799Y-54335123D02*
X65136592Y-54542345D01*
X65136592Y-54542345D02*
X65224434Y-54929403D01*
X65224434Y-54929403D02*
X65146911Y-55029654D01*
X65146911Y-55029654D02*
X65078172Y-55136096D01*
X65078172Y-55136096D02*
X65018244Y-55247723D01*
X65018244Y-55247723D02*
X64967603Y-55363478D01*
X64967603Y-55363478D02*
X64925746Y-55482858D01*
X64925746Y-55482858D02*
X64893176Y-55605836D01*
X64893176Y-55605836D02*
X64869919Y-55730375D01*
X64869919Y-55730375D02*
X64855976Y-55855947D01*
X64855976Y-55855947D02*
X64851848Y-55982576D01*
X64851848Y-55982576D02*
X64857008Y-56108650D01*
X64857008Y-56108650D02*
X64872009Y-56233718D01*
X64872009Y-56233718D02*
X64896298Y-56357225D01*
X64896298Y-56357225D02*
X64930906Y-56477611D01*
X64930906Y-56477611D02*
X64975858Y-56594927D01*
X64975858Y-56594927D02*
X65030124Y-56708089D01*
X65030124Y-56708089D02*
X65095238Y-56816092D01*
X65095238Y-56816092D02*
X65032188Y-56907055D01*
X65032188Y-56907055D02*
X64980012Y-57002649D01*
X64980012Y-57002649D02*
X64938658Y-57101868D01*
X64938658Y-57101868D02*
X64906617Y-57204711D01*
X64906617Y-57204711D02*
X64883360Y-57310121D01*
X64883360Y-57310121D02*
X64868385Y-57417092D01*
X64868385Y-57417092D02*
X64860632Y-57526127D01*
X64860632Y-57526127D02*
X64859600Y-57635161D01*
X64859600Y-57635161D02*
X64863728Y-57744725D01*
X64863728Y-57744725D02*
X64873041Y-57853760D01*
X64873041Y-57853760D02*
X64903521Y-58068231D01*
X64903521Y-58068231D02*
X64943817Y-58272357D01*
X64943817Y-58272357D02*
X64987764Y-58462512D01*
X64987764Y-58462512D02*
X64943817Y-58572579D01*
X64943817Y-58572579D02*
X64908681Y-58684709D01*
X64908681Y-58684709D02*
X64882328Y-58798930D01*
X64882328Y-58798930D02*
X64864257Y-58914156D01*
X64864257Y-58914156D02*
X64854415Y-59030943D01*
X64854415Y-59030943D02*
X64852880Y-59147227D01*
X64852880Y-59147227D02*
X64859071Y-59264014D01*
X64859071Y-59264014D02*
X64873544Y-59379769D01*
X64873544Y-59379769D02*
X64895769Y-59494995D01*
X64895769Y-59494995D02*
X64925217Y-59608183D01*
X64925217Y-59608183D02*
X64962444Y-59719282D01*
X64962444Y-59719282D02*
X65007397Y-59827814D01*
X65007397Y-59827814D02*
X65059070Y-59933223D01*
X65059070Y-59933223D02*
X65118495Y-60035035D01*
X65118495Y-60035035D02*
X65184641Y-60132693D01*
X65184641Y-60132693D02*
X65257507Y-60226223D01*
X65257507Y-60226223D02*
X65206866Y-60319753D01*
X65206866Y-60319753D02*
X65165009Y-60416405D01*
X65165009Y-60416405D02*
X65131407Y-60515624D01*
X65131407Y-60515624D02*
X65106086Y-60616377D01*
X65106086Y-60616377D02*
X65088015Y-60719220D01*
X65088015Y-60719220D02*
X65076638Y-60823095D01*
X65076638Y-60823095D02*
X65071479Y-60927473D01*
X65071479Y-60927473D02*
X65071981Y-61031851D01*
X65071981Y-61031851D02*
X65076638Y-61136256D01*
X65076638Y-61136256D02*
X65086454Y-61240105D01*
X65086454Y-61240105D02*
X65115399Y-61444231D01*
X65115399Y-61444231D02*
X65154663Y-61640604D01*
X65154663Y-61640604D02*
X65198584Y-61825600D01*
X65198584Y-61825600D02*
X65171200Y-61873675D01*
X65171200Y-61873675D02*
X65147943Y-61922755D01*
X65147943Y-61922755D02*
X65112806Y-62021974D01*
X65112806Y-62021974D02*
X65090581Y-62122224D01*
X65090581Y-62122224D02*
X65079231Y-62224036D01*
X65079231Y-62224036D02*
X65075606Y-62326879D01*
X65075606Y-62326879D02*
X65077670Y-62429194D01*
X65077670Y-62429194D02*
X65088518Y-62633822D01*
X65088518Y-62633822D02*
X65092142Y-62734602D01*
X65092142Y-62734602D02*
X65091613Y-62833820D01*
X65091613Y-62833820D02*
X65083861Y-62930975D01*
X65083861Y-62930975D02*
X65067325Y-63025537D01*
X65067325Y-63025537D02*
X65038406Y-63117533D01*
X65038406Y-63117533D02*
X65018747Y-63162485D01*
X65018747Y-63162485D02*
X64995517Y-63206406D01*
X64995517Y-63206406D02*
X64967603Y-63249295D01*
X64967603Y-63249295D02*
X64935562Y-63291152D01*
X64935562Y-63291152D02*
X64898865Y-63331977D01*
X64898865Y-63331977D02*
X64856505Y-63371771D01*
X64856505Y-63371771D02*
X64803773Y-63445139D01*
X64803773Y-63445139D02*
X64760885Y-63522662D01*
X64760885Y-63522662D02*
X64726780Y-63603783D01*
X64726780Y-63603783D02*
X64700957Y-63687497D01*
X64700957Y-63687497D02*
X64681827Y-63773302D01*
X64681827Y-63773302D02*
X64668916Y-63861143D01*
X64668916Y-63861143D02*
X64661163Y-63950017D01*
X64661163Y-63950017D02*
X64657538Y-64039419D01*
X64657538Y-64039419D02*
X64658068Y-64218225D01*
X64658068Y-64218225D02*
X64662698Y-64392823D01*
X64662698Y-64392823D02*
X64663227Y-64558716D01*
X64663227Y-64558716D02*
X64659602Y-64637298D01*
X64659602Y-64637298D02*
X64651850Y-64712175D01*
X64651850Y-64712175D02*
X64569168Y-64814039D01*
X64569168Y-64814039D02*
X64495270Y-64921460D01*
X64495270Y-64921460D02*
X64430156Y-65033643D01*
X64430156Y-65033643D02*
X64373826Y-65150059D01*
X64373826Y-65150059D02*
X64326307Y-65269915D01*
X64326307Y-65269915D02*
X64288048Y-65392417D01*
X64288048Y-65392417D02*
X64258600Y-65516771D01*
X64258600Y-65516771D02*
X64237936Y-65643507D01*
X64237936Y-65643507D02*
X64227088Y-65771036D01*
X64227088Y-65771036D02*
X64225527Y-65898829D01*
X64225527Y-65898829D02*
X64233280Y-66026358D01*
X64233280Y-66026358D02*
X64250848Y-66153623D01*
X64250848Y-66153623D02*
X64277730Y-66278506D01*
X64277730Y-66278506D02*
X64314401Y-66402066D01*
X64314401Y-66402066D02*
X64361444Y-66522981D01*
X64361444Y-66522981D02*
X64417773Y-66640191D01*
X64417773Y-66640191D02*
X64366603Y-66701839D01*
X64366603Y-66701839D02*
X64319057Y-66764809D01*
X64319057Y-66764809D02*
X64233782Y-66897630D01*
X64233782Y-66897630D02*
X64162477Y-67037595D01*
X64162477Y-67037595D02*
X64105116Y-67183380D01*
X64105116Y-67183380D02*
X64061724Y-67333398D01*
X64061724Y-67333398D02*
X64032249Y-67486327D01*
X64032249Y-67486327D02*
X64016242Y-67641902D01*
X64016242Y-67641902D02*
X64014178Y-67797212D01*
X64014178Y-67797212D02*
X64026561Y-67952258D01*
X64026561Y-67952258D02*
X64052411Y-68105716D01*
X64052411Y-68105716D02*
X64092204Y-68255735D01*
X64092204Y-68255735D02*
X64145438Y-68401520D01*
X64145438Y-68401520D02*
X64213118Y-68541484D01*
X64213118Y-68541484D02*
X64252409Y-68609218D01*
X64252409Y-68609218D02*
X64294769Y-68674834D01*
X64294769Y-68674834D02*
X64340753Y-68738334D01*
X64340753Y-68738334D02*
X64389860Y-68799982D01*
X64389860Y-68799982D02*
X64443094Y-68858719D01*
X64443094Y-68858719D02*
X64499424Y-68915605D01*
X64499424Y-68915605D02*
X64473045Y-69014294D01*
X64473045Y-69014294D02*
X64453413Y-69113513D01*
X64453413Y-69113513D02*
X64439469Y-69213790D01*
X64439469Y-69213790D02*
X64431717Y-69313537D01*
X64431717Y-69313537D02*
X64429653Y-69413814D01*
X64429653Y-69413814D02*
X64433781Y-69514091D01*
X64433781Y-69514091D02*
X64443094Y-69613310D01*
X64443094Y-69613310D02*
X64458598Y-69711999D01*
X64458598Y-69711999D02*
X64479262Y-69809101D01*
X64479262Y-69809101D02*
X64505615Y-69905674D01*
X64505615Y-69905674D02*
X64537656Y-70000924D01*
X64537656Y-70000924D02*
X64574354Y-70093793D01*
X64574354Y-70093793D02*
X64616713Y-70184809D01*
X64616713Y-70184809D02*
X64663730Y-70274238D01*
X64663730Y-70274238D02*
X64715932Y-70360492D01*
X64715932Y-70360492D02*
X64773293Y-70444630D01*
X64773293Y-70444630D02*
X64723684Y-70561046D01*
X64723684Y-70561046D02*
X64686484Y-70678786D01*
X64686484Y-70678786D02*
X64660634Y-70798642D01*
X64660634Y-70798642D02*
X64645129Y-70919556D01*
X64645129Y-70919556D02*
X64639970Y-71041000D01*
X64639970Y-71041000D02*
X64644098Y-71162443D01*
X64644098Y-71162443D02*
X64657036Y-71283358D01*
X64657036Y-71283358D02*
X64677700Y-71403743D01*
X64677700Y-71403743D02*
X64706116Y-71522806D01*
X64706116Y-71522806D02*
X64741252Y-71639487D01*
X64741252Y-71639487D02*
X64782607Y-71754316D01*
X64782607Y-71754316D02*
X64829623Y-71866234D01*
X64829623Y-71866234D02*
X64880794Y-71974978D01*
X64880794Y-71974978D02*
X64936594Y-72079753D01*
X64936594Y-72079753D02*
X64996019Y-72180559D01*
X64996019Y-72180559D02*
X65058038Y-72276603D01*
X65058038Y-72276603D02*
X65049756Y-72399634D01*
X65049756Y-72399634D02*
X65055974Y-72517373D01*
X65055974Y-72517373D02*
X65074045Y-72630615D01*
X65074045Y-72630615D02*
X65102461Y-72740152D01*
X65102461Y-72740152D02*
X65139688Y-72847043D01*
X65139688Y-72847043D02*
X65182577Y-72951025D01*
X65182577Y-72951025D02*
X65280235Y-73155018D01*
X65280235Y-73155018D02*
X65379982Y-73357689D01*
X65379982Y-73357689D02*
X65425464Y-73460611D01*
X65425464Y-73460611D02*
X65465760Y-73564328D01*
X65465760Y-73564328D02*
X65498304Y-73671484D01*
X65498304Y-73671484D02*
X65522090Y-73781021D01*
X65522090Y-73781021D02*
X65533970Y-73893469D01*
X65533970Y-73893469D02*
X65532938Y-74011473D01*
X65532938Y-74011473D02*
X65593924Y-74196417D01*
X65593924Y-74196417D02*
X65647661Y-74391150D01*
X65647661Y-74391150D02*
X65693645Y-74591175D01*
X65693645Y-74591175D02*
X65730846Y-74794374D01*
X65730846Y-74794374D02*
X65758759Y-74995722D01*
X65758759Y-74995722D02*
X65776328Y-75192836D01*
X65776328Y-75192836D02*
X65783577Y-75382278D01*
X65783577Y-75382278D02*
X65778921Y-75560078D01*
X65778921Y-75560078D02*
X65753071Y-75654798D01*
X65753071Y-75654798D02*
X65731375Y-75751371D01*
X65731375Y-75751371D02*
X65714839Y-75849002D01*
X65714839Y-75849002D02*
X65702959Y-75948221D01*
X65702959Y-75948221D02*
X65695709Y-76048498D01*
X65695709Y-76048498D02*
X65694175Y-76148246D01*
X65694175Y-76148246D02*
X65697270Y-76248522D01*
X65697270Y-76248522D02*
X65706054Y-76347741D01*
X65706054Y-76347741D02*
X65720527Y-76445901D01*
X65720527Y-76445901D02*
X65740688Y-76543003D01*
X65740688Y-76543003D02*
X65766512Y-76638253D01*
X65766512Y-76638253D02*
X65798553Y-76730593D01*
X65798553Y-76730593D02*
X65836785Y-76820551D01*
X65836785Y-76820551D02*
X65881235Y-76907334D01*
X65881235Y-76907334D02*
X65932405Y-76990678D01*
X65932405Y-76990678D02*
X65989767Y-77069524D01*
X65989767Y-77069524D02*
X65949973Y-77179590D01*
X65949973Y-77179590D02*
X65923092Y-77289127D01*
X65923092Y-77289127D02*
X65908619Y-77398400D01*
X65908619Y-77398400D02*
X65902931Y-77506879D01*
X65902931Y-77506879D02*
X65905524Y-77614829D01*
X65905524Y-77614829D02*
X65913805Y-77722779D01*
X65913805Y-77722779D02*
X65940660Y-77937885D01*
X65940660Y-77937885D02*
X65967542Y-78152197D01*
X65967542Y-78152197D02*
X65976326Y-78259089D01*
X65976326Y-78259089D02*
X65979422Y-78366245D01*
X65979422Y-78366245D02*
X65975294Y-78473136D01*
X65975294Y-78473136D02*
X65961853Y-78580028D01*
X65961853Y-78580028D02*
X65936533Y-78687184D01*
X65936533Y-78687184D02*
X65898300Y-78794605D01*
X65898300Y-78794605D02*
X65928780Y-78909169D01*
X65928780Y-78909169D02*
X65952540Y-79020823D01*
X65952540Y-79020823D02*
X65970108Y-79130890D01*
X65970108Y-79130890D02*
X65982517Y-79239104D01*
X65982517Y-79239104D02*
X65990269Y-79345467D01*
X65990269Y-79345467D02*
X65993365Y-79451300D01*
X65993365Y-79451300D02*
X65989238Y-79660585D01*
X65989238Y-79660585D02*
X65974765Y-79870399D01*
X65974765Y-79870399D02*
X65955133Y-80083389D01*
X65955133Y-80083389D02*
X65933940Y-80302992D01*
X65933940Y-80302992D02*
X65916901Y-80531857D01*
X65916901Y-80531857D02*
X65965478Y-80641923D01*
X65965478Y-80641923D02*
X66005271Y-80748021D01*
X66005271Y-80748021D02*
X66037286Y-80850679D01*
X66037286Y-80850679D02*
X66061575Y-80950427D01*
X66061575Y-80950427D02*
X66078111Y-81048587D01*
X66078111Y-81048587D02*
X66087954Y-81144895D01*
X66087954Y-81144895D02*
X66091552Y-81239881D01*
X66091552Y-81239881D02*
X66088456Y-81334866D01*
X66088456Y-81334866D02*
X66080201Y-81430116D01*
X66080201Y-81430116D02*
X66066760Y-81525630D01*
X66066760Y-81525630D02*
X66048160Y-81622732D01*
X66048160Y-81622732D02*
X66025406Y-81721951D01*
X66025406Y-81721951D02*
X65969076Y-81927797D01*
X65969076Y-81927797D02*
X65899835Y-82147930D01*
X65899835Y-82147930D02*
X65890548Y-82202169D01*
X65890548Y-82202169D02*
X65885891Y-82256409D01*
X65885891Y-82256409D02*
X65887426Y-82361184D01*
X65887426Y-82361184D02*
X65902428Y-82463048D01*
X65902428Y-82463048D02*
X65927749Y-82562267D01*
X65927749Y-82562267D02*
X65960821Y-82658839D01*
X65960821Y-82658839D02*
X66000085Y-82754618D01*
X66000085Y-82754618D02*
X66083800Y-82941679D01*
X66083800Y-82941679D02*
X66124122Y-83034547D01*
X66124122Y-83034547D02*
X66159259Y-83127680D01*
X66159259Y-83127680D02*
X66187675Y-83221078D01*
X66187675Y-83221078D02*
X66206275Y-83316328D01*
X66206275Y-83316328D02*
X66212493Y-83411843D01*
X66212493Y-83411843D02*
X66210403Y-83461055D01*
X66210403Y-83461055D02*
X66203709Y-83510003D01*
X66203709Y-83510003D02*
X66193363Y-83560274D01*
X66193363Y-83560274D02*
X66177859Y-83610809D01*
X66177859Y-83610809D02*
X66157698Y-83661874D01*
X66157698Y-83661874D02*
X66132377Y-83714261D01*
X66132377Y-83714261D02*
X66108088Y-83814538D01*
X66108088Y-83814538D02*
X66097240Y-83913227D01*
X66097240Y-83913227D02*
X66097240Y-84010859D01*
X66097240Y-84010859D02*
X66108088Y-84106373D01*
X66108088Y-84106373D02*
X66127218Y-84201358D01*
X66127218Y-84201358D02*
X66154602Y-84294492D01*
X66154602Y-84294492D02*
X66187675Y-84387096D01*
X66187675Y-84387096D02*
X66225907Y-84477318D01*
X66225907Y-84477318D02*
X66311182Y-84655118D01*
X66311182Y-84655118D02*
X66400585Y-84828420D01*
X66400585Y-84828420D02*
X66482235Y-84996695D01*
X66482235Y-84996695D02*
X66517372Y-85079509D01*
X66517372Y-85079509D02*
X66546317Y-85161001D01*
X66546317Y-85161001D02*
X66528749Y-85279005D01*
X66528749Y-85279005D02*
X66521499Y-85395686D01*
X66521499Y-85395686D02*
X66523563Y-85511044D01*
X66523563Y-85511044D02*
X66534940Y-85623492D01*
X66534940Y-85623492D02*
X66555101Y-85734617D01*
X66555101Y-85734617D02*
X66583517Y-85842831D01*
X66583517Y-85842831D02*
X66620215Y-85948135D01*
X66620215Y-85948135D02*
X66664639Y-86051058D01*
X66664639Y-86051058D02*
X66715809Y-86150277D01*
X66715809Y-86150277D02*
X66774202Y-86245262D01*
X66774202Y-86245262D02*
X66838787Y-86336808D01*
X66838787Y-86336808D02*
X66909087Y-86423591D01*
X66909087Y-86423591D02*
X66985551Y-86506670D01*
X66985551Y-86506670D02*
X67066699Y-86584193D01*
X67066699Y-86584193D02*
X67152979Y-86657218D01*
X67152979Y-86657218D02*
X67242911Y-86724422D01*
X67242911Y-86724422D02*
X67337473Y-86786334D01*
X67337473Y-86786334D02*
X67435157Y-86841632D01*
X67435157Y-86841632D02*
X67536440Y-86891109D01*
X67536440Y-86891109D02*
X67639786Y-86934236D01*
X67639786Y-86934236D02*
X67745725Y-86970219D01*
X67745725Y-86970219D02*
X67853728Y-86999324D01*
X67853728Y-86999324D02*
X67963265Y-87021019D01*
X67963265Y-87021019D02*
X68073861Y-87034248D01*
X68073861Y-87034248D02*
X68184959Y-87040069D01*
X68184959Y-87040069D02*
X68296084Y-87037953D01*
X68296084Y-87037953D02*
X68407182Y-87026576D01*
X68407182Y-87026576D02*
X68518281Y-87006996D01*
X68518281Y-87006996D02*
X68627844Y-86978157D01*
X68627844Y-86978157D02*
X68736350Y-86939792D01*
X68736350Y-86939792D02*
X68842818Y-86891638D01*
X68842818Y-86891638D02*
X68947196Y-86833430D01*
X68947196Y-86833430D02*
X69162170Y-86903015D01*
X69162170Y-86903015D02*
X69274829Y-86934236D01*
X69274829Y-86934236D02*
X69390055Y-86962017D01*
X69390055Y-86962017D02*
X69507371Y-86985830D01*
X69507371Y-86985830D02*
X69626751Y-87004351D01*
X69626751Y-87004351D02*
X69746634Y-87017315D01*
X69746634Y-87017315D02*
X69867045Y-87024459D01*
X69867045Y-87024459D02*
X69987431Y-87023930D01*
X69987431Y-87023930D02*
X70107340Y-87015728D01*
X70107340Y-87015728D02*
X70225661Y-86998794D01*
X70225661Y-86998794D02*
X70342448Y-86972336D01*
X70342448Y-86972336D02*
X70456669Y-86935559D01*
X70456669Y-86935559D02*
X70567767Y-86888199D01*
X70567767Y-86888199D02*
X70675241Y-86828668D01*
X70675241Y-86828668D02*
X70779116Y-86757495D01*
X70779116Y-86757495D02*
X70846294Y-86716484D01*
X70846294Y-86716484D02*
X70909873Y-86670447D01*
X70909873Y-86670447D02*
X70969801Y-86618853D01*
X70969801Y-86618853D02*
X71025628Y-86563026D01*
X71025628Y-86563026D02*
X71078836Y-86503760D01*
X71078836Y-86503760D02*
X71128445Y-86440524D01*
X71128445Y-86440524D02*
X71219409Y-86308762D01*
X71219409Y-86308762D02*
X71300027Y-86171972D01*
X71300027Y-86171972D02*
X71372364Y-86034919D01*
X71372364Y-86034919D02*
X71495871Y-85782771D01*
X71495871Y-85782771D02*
X71615754Y-85785417D01*
X71615754Y-85785417D02*
X71733070Y-85778008D01*
X71733070Y-85778008D02*
X71847264Y-85762133D01*
X71847264Y-85762133D02*
X71958892Y-85737263D01*
X71958892Y-85737263D02*
X72067423Y-85703661D01*
X72067423Y-85703661D02*
X72171801Y-85662386D01*
X72171801Y-85662386D02*
X72273084Y-85613702D01*
X72273084Y-85613702D02*
X72370239Y-85557875D01*
X72370239Y-85557875D02*
X72463266Y-85495963D01*
X72463266Y-85495963D02*
X72551610Y-85427171D01*
X72551610Y-85427171D02*
X72635854Y-85352824D01*
X72635854Y-85352824D02*
X72714408Y-85272655D01*
X72714408Y-85272655D02*
X72788306Y-85187988D01*
X72788306Y-85187988D02*
X72857019Y-85098559D01*
X72857019Y-85098559D02*
X72919566Y-85005691D01*
X72919566Y-85005691D02*
X72976398Y-84908324D01*
X72976398Y-84908324D02*
X73027569Y-84808047D01*
X73027569Y-84808047D02*
X73041010Y-84776033D01*
X73041010Y-84776033D02*
X73131021Y-84792701D01*
X73131021Y-84792701D02*
X73221587Y-84804608D01*
X73221587Y-84804608D02*
X73312551Y-84812016D01*
X73312551Y-84812016D02*
X73403753Y-84814926D01*
X73403753Y-84814926D02*
X73563191Y-84807253D01*
X73563191Y-84807253D02*
X73721570Y-84785293D01*
X73721570Y-84785293D02*
X73781524Y-84864932D01*
X73781524Y-84864932D02*
X73912784Y-85022095D01*
X73912784Y-85022095D02*
X74050764Y-85172907D01*
X74050764Y-85172907D02*
X74186151Y-85320280D01*
X74186151Y-85320280D02*
X74310161Y-85468182D01*
X74310161Y-85468182D02*
X74375804Y-85603384D01*
X74375804Y-85603384D02*
X74450205Y-85732765D01*
X74450205Y-85732765D02*
X74532385Y-85855002D01*
X74532385Y-85855002D02*
X74621787Y-85970360D01*
X74621787Y-85970360D02*
X74718942Y-86078310D01*
X74718942Y-86078310D02*
X74822288Y-86180175D01*
X74822288Y-86180175D02*
X74931825Y-86274102D01*
X74931825Y-86274102D02*
X75046549Y-86361679D01*
X75046549Y-86361679D02*
X75166960Y-86441583D01*
X75166960Y-86441583D02*
X75291500Y-86514078D01*
X75291500Y-86514078D02*
X75420696Y-86579166D01*
X75420696Y-86579166D02*
X75552987Y-86637109D01*
X75552987Y-86637109D02*
X75688903Y-86686586D01*
X75688903Y-86686586D02*
X75827386Y-86729449D01*
X75827386Y-86729449D02*
X75967959Y-86764109D01*
X75967959Y-86764109D02*
X76110569Y-86791097D01*
X76110569Y-86791097D02*
X76254238Y-86809618D01*
X76254238Y-86809618D02*
X76398409Y-86820465D01*
X76398409Y-86820465D02*
X76543110Y-86823640D01*
X76543110Y-86823640D02*
X76687281Y-86818349D01*
X76687281Y-86818349D02*
X76831452Y-86804855D01*
X76831452Y-86804855D02*
X76973560Y-86783159D01*
X76973560Y-86783159D02*
X77114635Y-86753261D01*
X77114635Y-86753261D02*
X77253144Y-86714368D01*
X77253144Y-86714368D02*
X77389034Y-86667536D01*
X77389034Y-86667536D02*
X77522384Y-86611709D01*
X77522384Y-86611709D02*
X77651554Y-86547151D01*
X77651554Y-86547151D02*
X77776622Y-86473597D01*
X77776622Y-86473597D02*
X77897034Y-86391576D01*
X77897034Y-86391576D02*
X78012789Y-86300560D01*
X78012789Y-86300560D02*
X78122855Y-86200283D01*
X78122855Y-86200283D02*
X78226731Y-86091275D01*
X78226731Y-86091275D02*
X78302692Y-86052646D01*
X78302692Y-86052646D02*
X78382782Y-86017985D01*
X78382782Y-86017985D02*
X78551771Y-85956337D01*
X78551771Y-85956337D02*
X78727983Y-85899452D01*
X78727983Y-85899452D02*
X78905227Y-85839656D01*
X78905227Y-85839656D02*
X78992566Y-85806054D01*
X78992566Y-85806054D02*
X79077841Y-85769277D01*
X79077841Y-85769277D02*
X79160523Y-85727473D01*
X79160523Y-85727473D02*
X79240083Y-85680377D01*
X79240083Y-85680377D02*
X79316072Y-85626667D01*
X79316072Y-85626667D02*
X79386848Y-85565813D01*
X79386848Y-85565813D02*
X79451961Y-85495963D01*
X79451961Y-85495963D02*
X79511387Y-85417382D01*
X79511387Y-85417382D02*
X79574966Y-85351765D01*
X79574966Y-85351765D02*
X79630237Y-85281915D01*
X79630237Y-85281915D02*
X79678312Y-85208097D01*
X79678312Y-85208097D02*
X79720169Y-85130574D01*
X79720169Y-85130574D02*
X79755306Y-85050405D01*
X79755306Y-85050405D02*
X79785786Y-84967855D01*
X79785786Y-84967855D02*
X79811106Y-84883718D01*
X79811106Y-84883718D02*
X79833331Y-84797728D01*
X79833331Y-84797728D02*
X79867965Y-84624162D01*
X79867965Y-84624162D02*
X79896382Y-84452183D01*
X79896382Y-84452183D02*
X79923263Y-84285231D01*
X79923263Y-84285231D02*
X79954775Y-84128598D01*
X79954775Y-84128598D02*
X80014200Y-84078592D01*
X80014200Y-84078592D02*
X80070027Y-84025146D01*
X80070027Y-84025146D02*
X80123235Y-83969584D01*
X80123235Y-83969584D02*
X80173373Y-83911111D01*
X80173373Y-83911111D02*
X80263808Y-83788080D01*
X80263808Y-83788080D02*
X80341331Y-83656846D01*
X80341331Y-83656846D02*
X80406418Y-83519263D01*
X80406418Y-83519263D02*
X80458620Y-83376653D01*
X80458620Y-83376653D02*
X80497382Y-83229545D01*
X80497382Y-83229545D02*
X80523205Y-83078997D01*
X80523205Y-83078997D02*
X80535111Y-82927127D01*
X80535111Y-82927127D02*
X80534079Y-82774727D01*
X80534079Y-82774727D02*
X80519607Y-82623385D01*
X80519607Y-82623385D02*
X80491191Y-82473367D01*
X80491191Y-82473367D02*
X80448804Y-82327052D01*
X80448804Y-82327052D02*
X80392475Y-82184971D01*
X80392475Y-82184971D02*
X80322201Y-82049240D01*
X80322201Y-82049240D02*
X80281879Y-81983094D01*
X80281879Y-81983094D02*
X80237958Y-81919330D01*
X80237958Y-81919330D02*
X80302569Y-81820111D01*
X80302569Y-81820111D02*
X80359931Y-81716395D01*
X80359931Y-81716395D02*
X80409011Y-81608974D01*
X80409011Y-81608974D02*
X80450365Y-81497320D01*
X80450365Y-81497320D02*
X80483438Y-81383020D01*
X80483438Y-81383020D02*
X80508230Y-81267397D01*
X80508230Y-81267397D02*
X80525295Y-81149393D01*
X80525295Y-81149393D02*
X80533550Y-81031125D01*
X80533550Y-81031125D02*
X80533550Y-80912856D01*
X80533550Y-80912856D02*
X80525295Y-80794852D01*
X80525295Y-80794852D02*
X80508230Y-80677642D01*
X80508230Y-80677642D02*
X80482909Y-80562813D01*
X80482909Y-80562813D02*
X80448804Y-80450894D01*
X80448804Y-80450894D02*
X80405386Y-80341357D01*
X80405386Y-80341357D02*
X80353713Y-80235259D01*
X80353713Y-80235259D02*
X80292753Y-80134453D01*
X80292753Y-80134453D02*
X80357338Y-80027561D01*
X80357338Y-80027561D02*
X80411604Y-79916437D01*
X80411604Y-79916437D02*
X80455525Y-79801872D01*
X80455525Y-79801872D02*
X80489630Y-79683339D01*
X80489630Y-79683339D02*
X80513918Y-79562425D01*
X80513918Y-79562425D02*
X80528391Y-79440452D01*
X80528391Y-79440452D02*
X80534079Y-79317156D01*
X80534079Y-79317156D02*
X80529926Y-79193067D01*
X80529926Y-79193067D02*
X80517014Y-79068977D01*
X80517014Y-79068977D02*
X80495318Y-78946475D01*
X80495318Y-78946475D02*
X80464812Y-78825561D01*
X80464812Y-78825561D02*
X80426077Y-78707292D01*
X80426077Y-78707292D02*
X80379034Y-78591934D01*
X80379034Y-78591934D02*
X80324265Y-78480280D01*
X80324265Y-78480280D02*
X80261215Y-78372859D01*
X80261215Y-78372859D02*
X80190942Y-78270995D01*
X80190942Y-78270995D02*
X80194567Y-78210670D01*
X80194567Y-78210670D02*
X80202319Y-78158547D01*
X80202319Y-78158547D02*
X80214701Y-78112510D01*
X80214701Y-78112510D02*
X80231238Y-78073087D01*
X80231238Y-78073087D02*
X80251399Y-78040014D01*
X80251399Y-78040014D02*
X80275688Y-78012233D01*
X80275688Y-78012233D02*
X80303072Y-77990008D01*
X80303072Y-77990008D02*
X80334081Y-77972810D01*
X80334081Y-77972810D02*
X80367683Y-77959581D01*
X80367683Y-77959581D02*
X80404354Y-77950320D01*
X80404354Y-77950320D02*
X80484973Y-77941325D01*
X80484973Y-77941325D02*
X80574375Y-77943441D01*
X80574375Y-77943441D02*
X80669969Y-77952702D01*
X80669969Y-77952702D02*
X80874095Y-77978631D01*
X80874095Y-77978631D02*
X80979002Y-77988420D01*
X80979002Y-77988420D02*
X81083380Y-77992124D01*
X81083380Y-77992124D02*
X81185192Y-77984716D01*
X81185192Y-77984716D02*
X81234801Y-77976514D01*
X81234801Y-77976514D02*
X81282849Y-77964608D01*
X81282849Y-77964608D02*
X81329363Y-77948733D01*
X81329363Y-77948733D02*
X81374845Y-77927566D01*
X81374845Y-77927566D02*
X81417734Y-77901637D01*
X81417734Y-77901637D02*
X81458559Y-77870152D01*
X81458559Y-77870152D02*
X81604794Y-77760614D01*
X81604794Y-77760614D02*
X81741239Y-77649489D01*
X81741239Y-77649489D02*
X81873531Y-77543392D01*
X81873531Y-77543392D02*
X81939147Y-77494444D01*
X81939147Y-77494444D02*
X82005822Y-77449994D01*
X82005822Y-77449994D02*
X82073503Y-77410571D01*
X82073503Y-77410571D02*
X82143776Y-77376969D01*
X82143776Y-77376969D02*
X82216642Y-77349717D01*
X82216642Y-77349717D02*
X82292630Y-77331196D01*
X82292630Y-77331196D02*
X82372720Y-77320877D01*
X82372720Y-77320877D02*
X82456936Y-77319819D01*
X82456936Y-77319819D02*
X82547371Y-77329609D01*
X82547371Y-77329609D02*
X82642991Y-77350775D01*
X82642991Y-77350775D02*
X82690537Y-77337811D01*
X82690537Y-77337811D02*
X82737553Y-77329609D01*
X82737553Y-77329609D02*
X82783035Y-77325375D01*
X82783035Y-77325375D02*
X82827988Y-77325904D01*
X82827988Y-77325904D02*
X82915326Y-77337282D01*
X82915326Y-77337282D02*
X83000072Y-77361623D01*
X83000072Y-77361623D02*
X83083257Y-77396813D01*
X83083257Y-77396813D02*
X83164405Y-77439146D01*
X83164405Y-77439146D02*
X83326145Y-77539423D01*
X83326145Y-77539423D02*
X83489948Y-77643139D01*
X83489948Y-77643139D02*
X83574191Y-77690235D01*
X83574191Y-77690235D02*
X83660498Y-77730981D01*
X83660498Y-77730981D02*
X83750403Y-77763525D01*
X83750403Y-77763525D02*
X83843933Y-77784691D01*
X83843933Y-77784691D02*
X83941617Y-77792629D01*
X83941617Y-77792629D02*
X83992259Y-77790512D01*
X83992259Y-77790512D02*
X84044434Y-77784691D01*
X84044434Y-77784691D02*
X84143653Y-77760085D01*
X84143653Y-77760085D02*
X84234617Y-77742358D01*
X84234617Y-77742358D02*
X84317299Y-77730981D01*
X84317299Y-77730981D02*
X84393261Y-77727012D01*
X84393261Y-77727012D02*
X84462502Y-77729923D01*
X84462502Y-77729923D02*
X84526584Y-77739977D01*
X84526584Y-77739977D02*
X84585507Y-77756910D01*
X84585507Y-77756910D02*
X84640275Y-77781781D01*
X84640275Y-77781781D02*
X84691446Y-77813796D01*
X84691446Y-77813796D02*
X84740526Y-77853483D01*
X84740526Y-77853483D02*
X84787040Y-77900579D01*
X84787040Y-77900579D02*
X84833024Y-77955877D01*
X84833024Y-77955877D02*
X84877977Y-78018847D01*
X84877977Y-78018847D02*
X84923459Y-78089756D01*
X84923459Y-78089756D02*
X85018020Y-78256707D01*
X85018020Y-78256707D02*
X85134305Y-78364128D01*
X85134305Y-78364128D02*
X85249028Y-78477899D01*
X85249028Y-78477899D02*
X85302262Y-78537165D01*
X85302262Y-78537165D02*
X85351342Y-78598284D01*
X85351342Y-78598284D02*
X85395263Y-78660726D01*
X85395263Y-78660726D02*
X85431961Y-78725284D01*
X85431961Y-78725284D02*
X85460906Y-78791430D01*
X85460906Y-78791430D02*
X85480538Y-78858634D01*
X85480538Y-78858634D02*
X85489825Y-78928484D01*
X85489825Y-78928484D02*
X85487258Y-78999127D01*
X85487258Y-78999127D02*
X85471754Y-79071623D01*
X85471754Y-79071623D02*
X85441777Y-79145971D01*
X85441777Y-79145971D02*
X85396295Y-79221906D01*
X85396295Y-79221906D02*
X85334277Y-79299429D01*
X85334277Y-79299429D02*
X85293451Y-79427487D01*
X85293451Y-79427487D02*
X85262971Y-79557927D01*
X85262971Y-79557927D02*
X85242308Y-79690747D01*
X85242308Y-79690747D02*
X85231962Y-79824097D01*
X85231962Y-79824097D02*
X85231460Y-79957712D01*
X85231460Y-79957712D02*
X85241276Y-80090532D01*
X85241276Y-80090532D02*
X85260379Y-80222824D01*
X85260379Y-80222824D02*
X85289853Y-80352734D01*
X85289853Y-80352734D02*
X85328614Y-80479205D01*
X85328614Y-80479205D02*
X85377192Y-80602765D01*
X85377192Y-80602765D02*
X85435585Y-80721563D01*
X85435585Y-80721563D02*
X85503266Y-80834804D01*
X85503266Y-80834804D02*
X85580656Y-80942225D01*
X85580656Y-80942225D02*
X85667704Y-81042502D01*
X85667704Y-81042502D02*
X85763219Y-81136164D01*
X85763219Y-81136164D02*
X85868523Y-81220302D01*
X85868523Y-81220302D02*
X85807668Y-81318462D01*
X85807668Y-81318462D02*
X85758456Y-81419797D01*
X85758456Y-81419797D02*
X85719827Y-81523514D01*
X85719827Y-81523514D02*
X85690987Y-81630141D01*
X85690987Y-81630141D02*
X85670614Y-81738091D01*
X85670614Y-81738091D02*
X85659237Y-81848157D01*
X85659237Y-81848157D02*
X85655798Y-81958753D01*
X85655798Y-81958753D02*
X85658708Y-82070407D01*
X85658708Y-82070407D02*
X85668762Y-82181532D01*
X85668762Y-82181532D02*
X85683579Y-82293186D01*
X85683579Y-82293186D02*
X85704217Y-82403781D01*
X85704217Y-82403781D02*
X85728558Y-82512790D01*
X85728558Y-82512790D02*
X85787560Y-82726573D01*
X85787560Y-82726573D02*
X85855293Y-82931360D01*
X85855293Y-82931360D02*
X85882545Y-83131385D01*
X85882545Y-83131385D02*
X85917735Y-83332203D01*
X85917735Y-83332203D02*
X85961127Y-83533815D01*
X85961127Y-83533815D02*
X86014308Y-83734898D01*
X86014308Y-83734898D02*
X86076485Y-83932807D01*
X86076485Y-83932807D02*
X86148716Y-84127540D01*
X86148716Y-84127540D02*
X86231266Y-84316717D01*
X86231266Y-84316717D02*
X86324928Y-84499543D01*
X86324928Y-84499543D02*
X86430232Y-84674962D01*
X86430232Y-84674962D02*
X86487118Y-84758570D01*
X86487118Y-84758570D02*
X86547707Y-84840326D01*
X86547707Y-84840326D02*
X86610678Y-84919172D01*
X86610678Y-84919172D02*
X86676824Y-84995636D01*
X86676824Y-84995636D02*
X86746674Y-85068661D01*
X86746674Y-85068661D02*
X86819434Y-85138776D01*
X86819434Y-85138776D02*
X86895898Y-85205451D01*
X86895898Y-85205451D02*
X86975538Y-85268686D01*
X86975538Y-85268686D02*
X87058617Y-85327953D01*
X87058617Y-85327953D02*
X87145665Y-85383251D01*
X87145665Y-85383251D02*
X87235887Y-85435109D01*
X87235887Y-85435109D02*
X87330079Y-85482469D01*
X87330079Y-85482469D02*
X87427181Y-85525332D01*
X87427181Y-85525332D02*
X87529045Y-85564225D01*
X87529045Y-85564225D02*
X87690706Y-85626138D01*
X87690706Y-85626138D02*
X87855541Y-85673763D01*
X87855541Y-85673763D02*
X88022493Y-85707894D01*
X88022493Y-85707894D02*
X88191032Y-85728531D01*
X88191032Y-85728531D02*
X88359307Y-85736204D01*
X88359307Y-85736204D02*
X88528375Y-85732236D01*
X88528375Y-85732236D02*
X88696915Y-85715567D01*
X88696915Y-85715567D02*
X88864396Y-85688315D01*
X88864396Y-85688315D02*
X89029760Y-85649950D01*
X89029760Y-85649950D02*
X89192479Y-85601796D01*
X89192479Y-85601796D02*
X89352551Y-85543588D01*
X89352551Y-85543588D02*
X89508655Y-85475855D01*
X89508655Y-85475855D02*
X89660526Y-85399919D01*
X89660526Y-85399919D02*
X89807370Y-85315517D01*
X89807370Y-85315517D02*
X89948392Y-85223707D01*
X89948392Y-85223707D02*
X90083330Y-85124488D01*
X90083330Y-85124488D02*
X90170113Y-85110465D01*
X90170113Y-85110465D02*
X90255044Y-85091945D01*
X90255044Y-85091945D02*
X90338123Y-85067603D01*
X90338123Y-85067603D02*
X90419350Y-85039028D01*
X90419350Y-85039028D02*
X90498196Y-85005955D01*
X90498196Y-85005955D02*
X90574660Y-84968384D01*
X90574660Y-84968384D02*
X90649273Y-84926580D01*
X90649273Y-84926580D02*
X90720975Y-84880543D01*
X90720975Y-84880543D02*
X90790296Y-84831330D01*
X90790296Y-84831330D02*
X90856970Y-84778149D01*
X90856970Y-84778149D02*
X90921000Y-84721264D01*
X90921000Y-84721264D02*
X90982118Y-84661997D01*
X90982118Y-84661997D02*
X91039797Y-84598762D01*
X91039797Y-84598762D02*
X91094566Y-84533145D01*
X91094566Y-84533145D02*
X91145895Y-84465148D01*
X91145895Y-84465148D02*
X91193785Y-84393710D01*
X91193785Y-84393710D02*
X91238764Y-84320950D01*
X91238764Y-84320950D02*
X91279774Y-84245808D01*
X91279774Y-84245808D02*
X91317345Y-84168815D01*
X91317345Y-84168815D02*
X91350418Y-84090498D01*
X91350418Y-84090498D02*
X91380316Y-84010329D01*
X91380316Y-84010329D02*
X91405716Y-83928573D01*
X91405716Y-83928573D02*
X91427411Y-83846553D01*
X91427411Y-83846553D02*
X91444609Y-83763209D01*
X91444609Y-83763209D02*
X91457309Y-83679071D01*
X91457309Y-83679071D02*
X91465776Y-83594405D01*
X91465776Y-83594405D02*
X91469745Y-83509474D01*
X91469745Y-83509474D02*
X91468686Y-83424278D01*
X91468686Y-83424278D02*
X91463130Y-83344639D01*
X91463130Y-83344639D02*
X91577959Y-83371361D01*
X91577959Y-83371361D02*
X91694111Y-83390676D01*
X91694111Y-83390676D02*
X91810792Y-83402318D01*
X91810792Y-83402318D02*
X91928267Y-83406286D01*
X91928267Y-83406286D02*
X92055796Y-83401259D01*
X92055796Y-83401259D02*
X92183060Y-83386972D01*
X92183060Y-83386972D02*
X92170625Y-83452588D01*
X92170625Y-83452588D02*
X92158719Y-83555511D01*
X92158719Y-83555511D02*
X92153427Y-83658434D01*
X92153427Y-83658434D02*
X92155544Y-83761092D01*
X92155544Y-83761092D02*
X92164804Y-83862957D01*
X92164804Y-83862957D02*
X92180415Y-83964292D01*
X92180415Y-83964292D02*
X92202110Y-84064569D01*
X92202110Y-84064569D02*
X92230421Y-84163258D01*
X92230421Y-84163258D02*
X92264023Y-84260360D01*
X92264023Y-84260360D02*
X92303975Y-84355346D01*
X92303975Y-84355346D02*
X92349483Y-84447950D01*
X92349483Y-84447950D02*
X92399489Y-84537379D01*
X92399489Y-84537379D02*
X92455316Y-84624691D01*
X92455316Y-84624691D02*
X92515641Y-84708299D01*
X92515641Y-84708299D02*
X92580993Y-84787939D01*
X92580993Y-84787939D02*
X92650579Y-84863874D01*
X92650579Y-84863874D02*
X92724397Y-84935841D01*
X92724397Y-84935841D02*
X92802449Y-85003574D01*
X92802449Y-85003574D02*
X92883676Y-85065486D01*
X92883676Y-85065486D02*
X92969401Y-85122901D01*
X92969401Y-85122901D02*
X93057772Y-85175024D01*
X93057772Y-85175024D02*
X93149847Y-85221061D01*
X93149847Y-85221061D02*
X93244832Y-85261278D01*
X93244832Y-85261278D02*
X93342463Y-85294880D01*
X93342463Y-85294880D02*
X93442740Y-85321867D01*
X93442740Y-85321867D02*
X93545134Y-85341976D01*
X93545134Y-85341976D02*
X93650173Y-85354411D01*
X93650173Y-85354411D02*
X93756536Y-85359438D01*
X93756536Y-85359438D02*
X93865015Y-85357057D01*
X93865015Y-85357057D02*
X93950210Y-85412884D01*
X93950210Y-85412884D02*
X94036994Y-85463419D01*
X94036994Y-85463419D02*
X94125893Y-85509457D01*
X94125893Y-85509457D02*
X94216381Y-85551261D01*
X94216381Y-85551261D02*
X94307926Y-85588567D01*
X94307926Y-85588567D02*
X94400795Y-85621111D01*
X94400795Y-85621111D02*
X94494987Y-85648892D01*
X94494987Y-85648892D02*
X94589972Y-85673234D01*
X94589972Y-85673234D02*
X94686280Y-85692813D01*
X94686280Y-85692813D02*
X94782853Y-85707894D01*
X94782853Y-85707894D02*
X94879955Y-85719800D01*
X94879955Y-85719800D02*
X94977586Y-85726944D01*
X94977586Y-85726944D02*
X95173377Y-85729590D01*
X95173377Y-85729590D02*
X95369963Y-85716625D01*
X95369963Y-85716625D02*
X95564696Y-85689373D01*
X95564696Y-85689373D02*
X95757312Y-85647304D01*
X95757312Y-85647304D02*
X95947018Y-85591477D01*
X95947018Y-85591477D02*
X96131962Y-85522421D01*
X96131962Y-85522421D02*
X96311878Y-85440665D01*
X96311878Y-85440665D02*
X96484915Y-85346738D01*
X96484915Y-85346738D02*
X96649751Y-85241170D01*
X96649751Y-85241170D02*
X96806384Y-85124488D01*
X96806384Y-85124488D02*
X96892638Y-85110995D01*
X96892638Y-85110995D02*
X96977040Y-85092474D01*
X96977040Y-85092474D02*
X97059061Y-85069191D01*
X97059061Y-85069191D02*
X97138700Y-85041145D01*
X97138700Y-85041145D02*
X97216752Y-85008601D01*
X97216752Y-85008601D02*
X97292158Y-84972618D01*
X97292158Y-84972618D02*
X97365183Y-84931607D01*
X97365183Y-84931607D02*
X97435827Y-84887157D01*
X97435827Y-84887157D02*
X97504089Y-84839268D01*
X97504089Y-84839268D02*
X97569177Y-84787410D01*
X97569177Y-84787410D02*
X97632147Y-84732112D01*
X97632147Y-84732112D02*
X97691678Y-84674433D01*
X97691678Y-84674433D02*
X97749093Y-84612785D01*
X97749093Y-84612785D02*
X97802803Y-84549285D01*
X97802803Y-84549285D02*
X97902022Y-84413818D01*
X97902022Y-84413818D02*
X97987747Y-84269621D01*
X97987747Y-84269621D02*
X98060243Y-84118279D01*
X98060243Y-84118279D02*
X98117922Y-83960588D01*
X98117922Y-83960588D02*
X98161313Y-83798928D01*
X98161313Y-83798928D02*
X98176924Y-83716642D01*
X98176924Y-83716642D02*
X98188830Y-83633563D01*
X98188830Y-83633563D02*
X98196503Y-83550749D01*
X98196503Y-83550749D02*
X98200207Y-83467670D01*
X98200207Y-83467670D02*
X98199149Y-83384591D01*
X98199149Y-83384591D02*
X98194386Y-83301247D01*
X98194386Y-83301247D02*
X98185126Y-83218697D01*
X98185126Y-83218697D02*
X98171103Y-83136412D01*
X98171103Y-83136412D02*
X98257092Y-83046983D01*
X98257092Y-83046983D02*
X98330911Y-82951997D01*
X98330911Y-82951997D02*
X98393353Y-82851720D01*
X98393353Y-82851720D02*
X98445740Y-82747739D01*
X98445740Y-82747739D02*
X98488073Y-82639789D01*
X98488073Y-82639789D02*
X98521675Y-82528135D01*
X98521675Y-82528135D02*
X98547340Y-82414629D01*
X98547340Y-82414629D02*
X98566654Y-82298742D01*
X98566654Y-82298742D02*
X98578825Y-82182061D01*
X98578825Y-82182061D02*
X98586234Y-82063528D01*
X98586234Y-82063528D02*
X98587821Y-81828578D01*
X98587821Y-81828578D02*
X98578032Y-81597068D01*
X98578032Y-81597068D02*
X98564009Y-81374818D01*
X98564009Y-81374818D02*
X98573269Y-81262106D01*
X98573269Y-81262106D02*
X98589673Y-81150452D01*
X98589673Y-81150452D02*
X98611898Y-81038269D01*
X98611898Y-81038269D02*
X98638356Y-80926879D01*
X98638356Y-80926879D02*
X98698417Y-80703042D01*
X98698417Y-80703042D02*
X98756096Y-80479205D01*
X98756096Y-80479205D02*
X98780438Y-80367551D01*
X98780438Y-80367551D02*
X98799488Y-80255367D01*
X98799488Y-80255367D02*
X98812452Y-80143449D01*
X98812452Y-80143449D02*
X98816685Y-80031266D01*
X98816685Y-80031266D02*
X98811394Y-79918553D01*
X98811394Y-79918553D02*
X98794990Y-79805841D01*
X98794990Y-79805841D02*
X98765885Y-79692599D01*
X98765885Y-79692599D02*
X98721965Y-79579622D01*
X98721965Y-79579622D02*
X98792873Y-79480404D01*
X98792873Y-79480404D02*
X98853992Y-79374835D01*
X98853992Y-79374835D02*
X98905585Y-79263710D01*
X98905585Y-79263710D02*
X98947389Y-79148617D01*
X98947389Y-79148617D02*
X98979933Y-79029819D01*
X98979933Y-79029819D02*
X99002687Y-78907846D01*
X99002687Y-78907846D02*
X99016710Y-78783757D01*
X99016710Y-78783757D02*
X99020679Y-78659138D01*
X99020679Y-78659138D02*
X99015123Y-78535049D01*
X99015123Y-78535049D02*
X99000571Y-78411224D01*
X99000571Y-78411224D02*
X98977287Y-78289780D01*
X98977287Y-78289780D02*
X98944214Y-78170453D01*
X98944214Y-78170453D02*
X98902410Y-78055095D01*
X98902410Y-78055095D02*
X98851346Y-77943970D01*
X98851346Y-77943970D02*
X98791285Y-77839195D01*
X98791285Y-77839195D02*
X98721965Y-77739977D01*
X98721965Y-77739977D02*
X98759800Y-77650019D01*
X98759800Y-77650019D02*
X98788110Y-77558473D01*
X98788110Y-77558473D02*
X98807425Y-77465340D01*
X98807425Y-77465340D02*
X98818802Y-77371413D01*
X98818802Y-77371413D02*
X98822771Y-77276957D01*
X98822771Y-77276957D02*
X98820390Y-77181707D01*
X98820390Y-77181707D02*
X98811923Y-77087251D01*
X98811923Y-77087251D02*
X98798958Y-76992530D01*
X98798958Y-76992530D02*
X98761388Y-76805470D01*
X98761388Y-76805470D02*
X98714292Y-76624230D01*
X98714292Y-76624230D02*
X98616661Y-76288739D01*
X98616661Y-76288739D02*
X98670371Y-76209629D01*
X98670371Y-76209629D02*
X98710588Y-76127079D01*
X98710588Y-76127079D02*
X98739692Y-76041883D01*
X98739692Y-76041883D02*
X98759271Y-75953512D01*
X98759271Y-75953512D02*
X98771706Y-75863025D01*
X98771706Y-75863025D02*
X98778321Y-75771479D01*
X98778321Y-75771479D02*
X98782554Y-75587065D01*
X98782554Y-75587065D02*
X98787846Y-75405032D01*
X98787846Y-75405032D02*
X98796048Y-75316661D01*
X98796048Y-75316661D02*
X98809806Y-75230407D01*
X98809806Y-75230407D02*
X98832031Y-75147857D01*
X98832031Y-75147857D02*
X98864310Y-75068218D01*
X98864310Y-75068218D02*
X98908760Y-74993870D01*
X98908760Y-74993870D02*
X98966439Y-74924020D01*
X98966439Y-74924020D02*
X98997396Y-74816070D01*
X98997396Y-74816070D02*
X99033643Y-74714206D01*
X99033643Y-74714206D02*
X99074918Y-74618162D01*
X99074918Y-74618162D02*
X99120956Y-74526616D01*
X99120956Y-74526616D02*
X99171227Y-74439304D01*
X99171227Y-74439304D02*
X99224937Y-74356225D01*
X99224937Y-74356225D02*
X99342147Y-74195888D01*
X99342147Y-74195888D02*
X99469412Y-74042429D01*
X99469412Y-74042429D02*
X99603291Y-73888971D01*
X99603291Y-73888971D02*
X99740080Y-73730222D01*
X99740080Y-73730222D02*
X99876605Y-73561947D01*
X99876605Y-73561947D02*
X99890363Y-73458495D01*
X99890363Y-73458495D02*
X99914705Y-73363509D01*
X99914705Y-73363509D02*
X99947778Y-73274610D01*
X99947778Y-73274610D02*
X99988788Y-73190737D01*
X99988788Y-73190737D02*
X100035619Y-73112685D01*
X100035619Y-73112685D02*
X100088800Y-73038337D01*
X100088800Y-73038337D02*
X100146215Y-72967164D01*
X100146215Y-72967164D02*
X100207863Y-72898373D01*
X100207863Y-72898373D02*
X100465037Y-72626910D01*
X100465037Y-72626910D02*
X100527744Y-72556267D01*
X100527744Y-72556267D02*
X100586481Y-72482183D01*
X100586481Y-72482183D02*
X100641779Y-72404925D01*
X100641779Y-72404925D02*
X100692050Y-72322640D01*
X100692050Y-72322640D02*
X100735441Y-72263109D01*
X100735441Y-72263109D02*
X100770631Y-72200667D01*
X100770631Y-72200667D02*
X100797883Y-72135051D01*
X100797883Y-72135051D02*
X100820108Y-72066788D01*
X100820108Y-72066788D02*
X100852652Y-71926824D01*
X100852652Y-71926824D02*
X100879110Y-71786330D01*
X100879110Y-71786330D02*
X100911124Y-71649805D01*
X100911124Y-71649805D02*
X100932820Y-71584718D01*
X100932820Y-71584718D02*
X100960601Y-71523070D01*
X100960601Y-71523070D02*
X100995262Y-71465920D01*
X100995262Y-71465920D02*
X101038124Y-71412210D01*
X101038124Y-71412210D02*
X101091570Y-71364056D01*
X101091570Y-71364056D02*
X101156128Y-71321722D01*
X101156128Y-71321722D02*
X101216453Y-71244729D01*
X101216453Y-71244729D02*
X101271751Y-71164031D01*
X101271751Y-71164031D02*
X101323080Y-71080952D01*
X101323080Y-71080952D02*
X101368853Y-70993904D01*
X101368853Y-70993904D02*
X101409863Y-70905269D01*
X101409863Y-70905269D02*
X101445847Y-70814252D01*
X101445847Y-70814252D02*
X101476538Y-70721119D01*
X101476538Y-70721119D02*
X101501674Y-70626663D01*
X101501674Y-70626663D02*
X101521782Y-70530884D01*
X101521782Y-70530884D02*
X101536334Y-70433782D01*
X101536334Y-70433782D02*
X101545065Y-70336680D01*
X101545065Y-70336680D02*
X101547711Y-70239049D01*
X101547711Y-70239049D02*
X101545065Y-70141947D01*
X101545065Y-70141947D02*
X101535805Y-70044845D01*
X101535805Y-70044845D02*
X101520988Y-69948008D01*
X101520988Y-69948008D02*
X101499822Y-69853022D01*
X101499822Y-69853022D02*
X101566761Y-69759095D01*
X101566761Y-69759095D02*
X101622059Y-69660141D01*
X101622059Y-69660141D02*
X101665980Y-69557483D01*
X101665980Y-69557483D02*
X101700111Y-69451385D01*
X101700111Y-69451385D02*
X101724982Y-69342906D01*
X101724982Y-69342906D02*
X101741121Y-69232311D01*
X101741121Y-69232311D02*
X101748794Y-69120656D01*
X101748794Y-69120656D02*
X101749853Y-69008209D01*
X101749853Y-69008209D02*
X101744032Y-68894967D01*
X101744032Y-68894967D02*
X101733184Y-68782255D01*
X101733184Y-68782255D02*
X101717309Y-68671130D01*
X101717309Y-68671130D02*
X101697201Y-68561063D01*
X101697201Y-68561063D02*
X101647459Y-68349662D01*
X101647459Y-68349662D02*
X101591103Y-68151754D01*
X101591103Y-68151754D02*
X101671801Y-68043804D01*
X101671801Y-68043804D02*
X101742973Y-67930033D01*
X101742973Y-67930033D02*
X101804092Y-67811764D01*
X101804092Y-67811764D02*
X101855157Y-67688733D01*
X101855157Y-67688733D02*
X101896167Y-67562263D01*
X101896167Y-67562263D02*
X101927123Y-67433146D01*
X101927123Y-67433146D02*
X101947231Y-67302178D01*
X101947231Y-67302178D02*
X101958079Y-67169886D01*
X101958079Y-67169886D02*
X101958079Y-67037065D01*
X101958079Y-67037065D02*
X101947761Y-66905303D01*
X101947761Y-66905303D02*
X101927652Y-66774070D01*
X101927652Y-66774070D02*
X101896696Y-66644953D01*
X101896696Y-66644953D02*
X101855157Y-66518747D01*
X101855157Y-66518747D02*
X101803034Y-66395981D01*
X101803034Y-66395981D02*
X101741121Y-66277448D01*
X101741121Y-66277448D02*
X101667567Y-66163941D01*
X101667567Y-66163941D02*
X101712017Y-66098854D01*
X101712017Y-66098854D02*
X101753028Y-66031121D01*
X101753028Y-66031121D02*
X101790069Y-65961800D01*
X101790069Y-65961800D02*
X101823142Y-65890363D01*
X101823142Y-65890363D02*
X101878969Y-65744313D01*
X101878969Y-65744313D02*
X101919715Y-65592707D01*
X101919715Y-65592707D02*
X101946173Y-65438190D01*
X101946173Y-65438190D02*
X101958609Y-65281822D01*
X101958609Y-65281822D02*
X101956492Y-65125189D01*
X101956492Y-65125189D02*
X101940088Y-64968555D01*
X101940088Y-64968555D02*
X101909925Y-64815097D01*
X101909925Y-64815097D02*
X101865475Y-64665343D01*
X101865475Y-64665343D02*
X101807796Y-64520616D01*
X101807796Y-64520616D02*
X101736359Y-64381975D01*
X101736359Y-64381975D02*
X101695613Y-64315882D01*
X101695613Y-64315882D02*
X101651692Y-64251827D01*
X101651692Y-64251827D02*
X101604067Y-64190311D01*
X101604067Y-64190311D02*
X101553532Y-64130886D01*
X101553532Y-64130886D02*
X101499292Y-64074556D01*
X101499292Y-64074556D02*
X101442407Y-64020819D01*
X101442407Y-64020819D02*
X101381288Y-63970178D01*
X101381288Y-63970178D02*
X101317789Y-63923162D01*
X101317789Y-63923162D02*
X101327049Y-63831166D01*
X101327049Y-63831166D02*
X101330224Y-63738668D01*
X101330224Y-63738668D02*
X101327578Y-63645640D01*
X101327578Y-63645640D02*
X101319376Y-63553142D01*
X101319376Y-63553142D02*
X101305882Y-63461676D01*
X101305882Y-63461676D02*
X101286303Y-63370210D01*
X101286303Y-63370210D02*
X101261961Y-63280304D01*
X101261961Y-63280304D02*
X101232593Y-63191934D01*
X101232593Y-63191934D02*
X101197403Y-63105124D01*
X101197403Y-63105124D02*
X101157980Y-63020378D01*
X101157980Y-63020378D02*
X101113795Y-62938198D01*
X101113795Y-62938198D02*
X101064583Y-62858612D01*
X101064583Y-62858612D02*
X101010872Y-62782147D01*
X101010872Y-62782147D02*
X100952929Y-62708752D01*
X100952929Y-62708752D02*
X100890487Y-62639511D01*
X100890487Y-62639511D02*
X100823812Y-62573894D01*
X100823812Y-62573894D02*
X100883608Y-62499996D01*
X100883608Y-62499996D02*
X100945785Y-62436946D01*
X100945785Y-62436946D02*
X101008756Y-62383712D01*
X101008756Y-62383712D02*
X101074372Y-62339262D01*
X101074372Y-62339262D02*
X101141047Y-62303093D01*
X101141047Y-62303093D02*
X101210368Y-62274174D01*
X101210368Y-62274174D02*
X101280482Y-62251950D01*
X101280482Y-62251950D02*
X101352449Y-62235916D01*
X101352449Y-62235916D02*
X101426268Y-62224565D01*
X101426268Y-62224565D02*
X101501674Y-62217316D01*
X101501674Y-62217316D02*
X101657778Y-62213188D01*
X101657778Y-62213188D02*
X101990094Y-62220411D01*
X101990094Y-62220411D02*
X102112067Y-62208029D01*
X102112067Y-62208029D02*
X102229806Y-62185804D01*
X102229806Y-62185804D02*
X102343048Y-62154265D01*
X102343048Y-62154265D02*
X102451527Y-62113969D01*
X102451527Y-62113969D02*
X102555508Y-62064863D01*
X102555508Y-62064863D02*
X102654197Y-62008030D01*
X102654197Y-62008030D02*
X102748124Y-61943948D01*
X102748124Y-61943948D02*
X102836495Y-61872643D01*
X102836495Y-61872643D02*
X102919839Y-61795120D01*
X102919839Y-61795120D02*
X102997361Y-61711936D01*
X102997361Y-61711936D02*
X103068534Y-61623036D01*
X103068534Y-61623036D02*
X103134151Y-61529506D01*
X103134151Y-61529506D02*
X103193682Y-61431848D01*
X103193682Y-61431848D02*
X103246863Y-61330037D01*
X103246863Y-61330037D02*
X103293959Y-61225129D01*
X103293959Y-61225129D02*
X103334176Y-61117127D01*
X103334176Y-61117127D02*
X103367778Y-61006531D01*
X103367778Y-61006531D02*
X103394236Y-60894401D01*
X103394236Y-60894401D02*
X103413286Y-60781238D01*
X103413286Y-60781238D02*
X103425721Y-60667018D01*
X103425721Y-60667018D02*
X103430219Y-60552295D01*
X103430219Y-60552295D02*
X103427309Y-60438101D01*
X103427309Y-60438101D02*
X103416990Y-60324409D01*
X103416990Y-60324409D02*
X103397675Y-60211750D01*
X103397675Y-60211750D02*
X103371482Y-60100652D01*
X103371482Y-60100652D02*
X103335763Y-59992146D01*
X103335763Y-59992146D02*
X103292371Y-59886207D01*
X103292371Y-59886207D02*
X103240778Y-59783866D01*
X103240778Y-59783866D02*
X103179659Y-59684648D01*
X103179659Y-59684648D02*
X103109809Y-59590086D01*
X103109809Y-59590086D02*
X103030963Y-59500180D01*
X103030963Y-59500180D02*
X102942593Y-59415435D01*
X102942593Y-59415435D02*
X102868509Y-59330159D01*
X102868509Y-59330159D02*
X102787547Y-59259357D01*
X102787547Y-59259357D02*
X102700764Y-59200461D01*
X102700764Y-59200461D02*
X102608689Y-59151883D01*
X102608689Y-59151883D02*
X102513174Y-59111561D01*
X102513174Y-59111561D02*
X102414485Y-59077985D01*
X102414485Y-59077985D02*
X102211285Y-59022158D01*
X102211285Y-59022158D02*
X102008086Y-58969453D01*
X102008086Y-58969453D02*
X101908338Y-58940005D01*
X101908338Y-58940005D02*
X101811236Y-58905371D01*
X101811236Y-58905371D02*
X101718367Y-58863514D01*
X101718367Y-58863514D02*
X101629996Y-58813402D01*
X101629996Y-58813402D02*
X101546653Y-58752416D01*
X101546653Y-58752416D02*
X101470188Y-58679047D01*
X101470188Y-58679047D02*
X101337368Y-58630470D01*
X101337368Y-58630470D02*
X101201637Y-58592211D01*
X101201637Y-58592211D02*
X101062466Y-58563795D01*
X101062466Y-58563795D02*
X100921972Y-58546226D01*
X100921972Y-58546226D02*
X100780950Y-58539003D01*
X100780950Y-58539003D02*
X100639927Y-58542602D01*
X100639927Y-58542602D02*
X100499169Y-58556572D01*
X100499169Y-58556572D02*
X100361850Y-58581363D01*
X100361850Y-58581363D02*
X100226384Y-58617029D01*
X100226384Y-58617029D02*
X100095150Y-58663543D01*
X100095150Y-58663543D02*
X99968944Y-58720904D01*
X99968944Y-58720904D02*
X99848559Y-58789616D01*
X99848559Y-58789616D02*
X99735053Y-58869203D01*
X99735053Y-58869203D02*
X99628426Y-58960669D01*
X99628426Y-58960669D02*
X99530795Y-59062984D01*
X99530795Y-59062984D02*
X99442953Y-59177204D01*
X99442953Y-59177204D02*
X99338708Y-59165827D01*
X99338708Y-59165827D02*
X99234197Y-59162731D01*
X99234197Y-59162731D02*
X99130216Y-59167388D01*
X99130216Y-59167388D02*
X99027558Y-59179770D01*
X99027558Y-59179770D02*
X98925164Y-59198900D01*
X98925164Y-59198900D02*
X98824887Y-59225252D01*
X98824887Y-59225252D02*
X98725669Y-59258325D01*
X98725669Y-59258325D02*
X98629096Y-59297087D01*
X98629096Y-59297087D02*
X98534375Y-59342039D01*
X98534375Y-59342039D02*
X98442565Y-59392680D01*
X98442565Y-59392680D02*
X98353665Y-59448507D01*
X98353665Y-59448507D02*
X98267940Y-59508965D01*
X98267940Y-59508965D02*
X98185126Y-59573549D01*
X98185126Y-59573549D02*
X98106545Y-59642791D01*
X98106545Y-59642791D02*
X98032197Y-59716186D01*
X98032197Y-59716186D02*
X97962347Y-59792651D01*
X97962347Y-59792651D02*
X97907049Y-59692929D01*
X97907049Y-59692929D02*
X97844607Y-59598870D01*
X97844607Y-59598870D02*
X97774758Y-59511028D01*
X97774758Y-59511028D02*
X97698822Y-59429378D01*
X97698822Y-59429378D02*
X97617860Y-59353416D01*
X97617860Y-59353416D02*
X97530547Y-59283646D01*
X97530547Y-59283646D02*
X97438473Y-59220596D01*
X97438473Y-59220596D02*
X97342958Y-59163234D01*
X97342958Y-59163234D02*
X97242681Y-59113122D01*
X97242681Y-59113122D02*
X97139758Y-59068672D01*
X97139758Y-59068672D02*
X97033925Y-59031472D01*
X97033925Y-59031472D02*
X96925711Y-59000992D01*
X96925711Y-59000992D02*
X96816173Y-58976703D01*
X96816173Y-58976703D02*
X96705048Y-58959637D01*
X96705048Y-58959637D02*
X96593659Y-58949821D01*
X96593659Y-58949821D02*
X96482005Y-58946726D01*
X96482005Y-58946726D02*
X96440995Y-58870764D01*
X96440995Y-58870764D02*
X96395486Y-58798401D01*
X96395486Y-58798401D02*
X96345480Y-58729159D01*
X96345480Y-58729159D02*
X96292299Y-58663013D01*
X96292299Y-58663013D02*
X96234884Y-58600995D01*
X96234884Y-58600995D02*
X96174560Y-58542099D01*
X96174560Y-58542099D02*
X96110266Y-58486801D01*
X96110266Y-58486801D02*
X96043062Y-58435128D01*
X96043062Y-58435128D02*
X95973476Y-58387053D01*
X95973476Y-58387053D02*
X95900981Y-58342630D01*
X95900981Y-58342630D02*
X95826104Y-58302307D01*
X95826104Y-58302307D02*
X95749110Y-58265636D01*
X95749110Y-58265636D02*
X95670529Y-58233066D01*
X95670529Y-58233066D02*
X95590625Y-58204121D01*
X95590625Y-58204121D02*
X95508340Y-58178800D01*
X95508340Y-58178800D02*
X95425525Y-58158136D01*
X95425525Y-58158136D02*
X95341388Y-58141097D01*
X95341388Y-58141097D02*
X95257250Y-58128688D01*
X95257250Y-58128688D02*
X95171790Y-58119904D01*
X95171790Y-58119904D02*
X95086065Y-58115776D01*
X95086065Y-58115776D02*
X95000340Y-58115776D01*
X95000340Y-58115776D02*
X94915144Y-58119904D01*
X94915144Y-58119904D02*
X94830213Y-58128159D01*
X94830213Y-58128159D02*
X94745547Y-58141097D01*
X94745547Y-58141097D02*
X94662468Y-58158665D01*
X94662468Y-58158665D02*
X94579653Y-58180890D01*
X94579653Y-58180890D02*
X94498691Y-58207243D01*
X94498691Y-58207243D02*
X94419051Y-58238225D01*
X94419051Y-58238225D02*
X94340999Y-58273891D01*
X94340999Y-58273891D02*
X94265593Y-58314716D01*
X94265593Y-58314716D02*
X94192039Y-58359669D01*
X94192039Y-58359669D02*
X94120866Y-58409807D01*
X94120866Y-58409807D02*
X94078533Y-58370517D01*
X94078533Y-58370517D02*
X94035141Y-58334878D01*
X94035141Y-58334878D02*
X93944125Y-58275955D01*
X93944125Y-58275955D02*
X93848875Y-58229970D01*
X93848875Y-58229970D02*
X93750186Y-58195866D01*
X93750186Y-58195866D02*
X93649115Y-58172080D01*
X93649115Y-58172080D02*
X93545134Y-58156602D01*
X93545134Y-58156602D02*
X93440888Y-58147817D01*
X93440888Y-58147817D02*
X93334790Y-58143161D01*
X93334790Y-58143161D02*
X93123388Y-58142129D01*
X93123388Y-58142129D02*
X92917807Y-58138504D01*
X92917807Y-58138504D02*
X92818589Y-58131254D01*
X92818589Y-58131254D02*
X92723074Y-58118343D01*
X92723074Y-58118343D02*
X92631529Y-58098182D01*
X92631529Y-58098182D02*
X92544745Y-58068231D01*
X92544745Y-58068231D02*
X92444468Y-57990179D01*
X92444468Y-57990179D02*
X92338106Y-57920937D01*
X92338106Y-57920937D02*
X92226452Y-57860480D01*
X92226452Y-57860480D02*
X92110036Y-57809336D01*
X92110036Y-57809336D02*
X91990179Y-57766950D01*
X91990179Y-57766950D02*
X91867677Y-57733877D01*
X91867677Y-57733877D02*
X91742794Y-57710620D01*
X91742794Y-57710620D02*
X91616588Y-57696148D01*
X91616588Y-57696148D02*
X91489853Y-57691491D01*
X91489853Y-57691491D02*
X91363382Y-57696677D01*
X91363382Y-57696677D02*
X91237705Y-57711150D01*
X91237705Y-57711150D02*
X91114410Y-57735941D01*
X91114410Y-57735941D02*
X90993495Y-57770575D01*
X90993495Y-57770575D02*
X90875491Y-57814998D01*
X90875491Y-57814998D02*
X90762250Y-57869794D01*
X90762250Y-57869794D02*
X90653771Y-57934907D01*
X90653771Y-57934907D02*
X90578365Y-57887362D01*
X90578365Y-57887362D02*
X90499783Y-57844976D01*
X90499783Y-57844976D02*
X90418292Y-57808278D01*
X90418292Y-57808278D02*
X90333890Y-57776263D01*
X90333890Y-57776263D02*
X90247107Y-57749885D01*
X90247107Y-57749885D02*
X90159265Y-57728189D01*
X90159265Y-57728189D02*
X90069307Y-57711652D01*
X90069307Y-57711652D02*
X89979084Y-57700275D01*
X89979084Y-57700275D02*
X89887538Y-57693581D01*
X89887538Y-57693581D02*
X89795463Y-57692020D01*
X89795463Y-57692020D02*
X89704447Y-57695645D01*
X89704447Y-57695645D02*
X89613695Y-57703900D01*
X89613695Y-57703900D02*
X89523737Y-57716812D01*
X89523737Y-57716812D02*
X89434837Y-57734909D01*
X89434837Y-57734909D02*
X89348054Y-57757134D01*
X89348054Y-57757134D02*
X89263122Y-57784518D01*
X89263122Y-57784518D02*
X89156760Y-57708028D01*
X89156760Y-57708028D02*
X89044577Y-57642914D01*
X89044577Y-57642914D02*
X88926837Y-57589706D01*
X88926837Y-57589706D02*
X88805394Y-57547320D01*
X88805394Y-57547320D02*
X88679717Y-57515808D01*
X88679717Y-57515808D02*
X88552188Y-57495144D01*
X88552188Y-57495144D02*
X88423071Y-57484799D01*
X88423071Y-57484799D02*
X88292367Y-57484799D01*
X88292367Y-57484799D02*
X88161928Y-57494615D01*
X88161928Y-57494615D02*
X88032282Y-57514247D01*
X88032282Y-57514247D02*
X87904753Y-57543695D01*
X87904753Y-57543695D02*
X87779076Y-57581954D01*
X87779076Y-57581954D02*
X87657104Y-57629499D01*
X87657104Y-57629499D02*
X87539364Y-57685829D01*
X87539364Y-57685829D02*
X87426123Y-57750414D01*
X87426123Y-57750414D02*
X87319760Y-57823783D01*
X87319760Y-57823783D02*
X87268960Y-57794334D01*
X87268960Y-57794334D02*
X87218425Y-57769014D01*
X87218425Y-57769014D02*
X87115502Y-57730782D01*
X87115502Y-57730782D02*
X87011786Y-57706493D01*
X87011786Y-57706493D02*
X86906217Y-57694613D01*
X86906217Y-57694613D02*
X86800913Y-57693052D01*
X86800913Y-57693052D02*
X86694815Y-57699243D01*
X86694815Y-57699243D02*
X86588982Y-57712181D01*
X86588982Y-57712181D02*
X86483678Y-57728718D01*
X86483678Y-57728718D02*
X86273864Y-57765918D01*
X86273864Y-57765918D02*
X86170412Y-57782455D01*
X86170412Y-57782455D02*
X86068547Y-57795366D01*
X86068547Y-57795366D02*
X85968270Y-57802087D01*
X85968270Y-57802087D02*
X85870110Y-57800526D01*
X85870110Y-57800526D02*
X85774066Y-57789175D01*
X85774066Y-57789175D02*
X85680933Y-57765389D01*
X85680933Y-57765389D02*
X85578804Y-57727157D01*
X85578804Y-57727157D02*
X85475352Y-57700804D01*
X85475352Y-57700804D02*
X85372006Y-57686332D01*
X85372006Y-57686332D02*
X85268660Y-57681172D01*
X85268660Y-57681172D02*
X85165817Y-57685300D01*
X85165817Y-57685300D02*
X85062470Y-57697180D01*
X85062470Y-57697180D02*
X84960659Y-57715780D01*
X84960659Y-57715780D02*
X84858874Y-57739566D01*
X84858874Y-57739566D02*
X84659907Y-57799494D01*
X84659907Y-57799494D02*
X84466630Y-57868233D01*
X84466630Y-57868233D02*
X84281633Y-57936971D01*
X84281633Y-57936971D02*
X84106982Y-57995867D01*
X84106982Y-57995867D02*
X83998450Y-57951444D01*
X83998450Y-57951444D02*
X83889944Y-57921969D01*
X83889944Y-57921969D02*
X83781942Y-57905962D01*
X83781942Y-57905962D02*
X83673939Y-57900803D01*
X83673939Y-57900803D02*
X83566439Y-57905433D01*
X83566439Y-57905433D02*
X83459468Y-57916307D01*
X83459468Y-57916307D02*
X83247087Y-57951444D01*
X83247087Y-57951444D02*
X83037273Y-57989676D01*
X83037273Y-57989676D02*
X82933397Y-58004652D01*
X82933397Y-58004652D02*
X82830581Y-58013965D01*
X82830581Y-58013965D02*
X82728240Y-58015526D01*
X82728240Y-58015526D02*
X82627487Y-58007774D01*
X82627487Y-58007774D02*
X82527236Y-57988115D01*
X82527236Y-57988115D02*
X82428520Y-57954540D01*
X82428520Y-57954540D02*
X82326735Y-57928690D01*
X82326735Y-57928690D02*
X82224394Y-57910619D01*
X82224394Y-57910619D02*
X82121577Y-57901305D01*
X82121577Y-57901305D02*
X82018734Y-57899242D01*
X82018734Y-57899242D02*
X81915388Y-57904401D01*
X81915388Y-57904401D02*
X81813047Y-57916307D01*
X81813047Y-57916307D02*
X81711765Y-57935410D01*
X81711765Y-57935410D02*
X81611514Y-57960731D01*
X81611514Y-57960731D02*
X81512825Y-57991740D01*
X81512825Y-57991740D02*
X81416173Y-58028438D01*
X81416173Y-58028438D02*
X81322140Y-58070797D01*
X81322140Y-58070797D02*
X81230144Y-58117840D01*
X81230144Y-58117840D02*
X81141271Y-58169513D01*
X81141271Y-58169513D02*
X81055996Y-58225843D01*
X81055996Y-58225843D02*
X80973843Y-58285771D01*
X80973843Y-58285771D02*
X80896320Y-58349350D01*
X80896320Y-58349350D02*
X80794509Y-58317309D01*
X80794509Y-58317309D02*
X80693755Y-58300773D01*
X80693755Y-58300773D02*
X80594008Y-58296619D01*
X80594008Y-58296619D02*
X80495318Y-58304371D01*
X80495318Y-58304371D02*
X80397634Y-58321437D01*
X80397634Y-58321437D02*
X80301537Y-58345725D01*
X80301537Y-58345725D02*
X80205917Y-58376205D01*
X80205917Y-58376205D02*
X80111355Y-58410839D01*
X80111355Y-58410839D02*
X79925327Y-58484208D01*
X79925327Y-58484208D02*
X79742394Y-58551386D01*
X79742394Y-58551386D02*
X79651960Y-58578267D01*
X79651960Y-58578267D02*
X79563060Y-58597900D01*
X79563060Y-58597900D02*
X79474186Y-58608747D01*
X79474186Y-58608747D02*
X79386345Y-58608747D01*
X79386345Y-58608747D02*
X79191003Y-58580331D01*
X79191003Y-58580331D02*
X79001853Y-58561202D01*
X79001853Y-58561202D02*
X78818417Y-58543131D01*
X78818417Y-58543131D02*
X78640644Y-58518313D01*
X78640644Y-58518313D02*
X78553834Y-58501274D01*
X78553834Y-58501274D02*
X78468057Y-58479049D01*
X78468057Y-58479049D02*
X78383311Y-58451135D01*
X78383311Y-58451135D02*
X78299597Y-58417031D01*
X78299597Y-58417031D02*
X78217417Y-58374671D01*
X78217417Y-58374671D02*
X78135767Y-58324030D01*
X78135767Y-58324030D02*
X78055678Y-58263546D01*
X78055678Y-58263546D02*
X77976091Y-58192770D01*
X77976091Y-58192770D02*
X77922354Y-58192770D01*
X77922354Y-58192770D02*
X77872745Y-58188616D01*
X77872745Y-58188616D02*
X77826734Y-58179329D01*
X77826734Y-58179329D02*
X77783845Y-58166418D01*
X77783845Y-58166418D02*
X77744581Y-58148849D01*
X77744581Y-58148849D02*
X77708412Y-58128159D01*
X77708412Y-58128159D02*
X77674810Y-58103870D01*
X77674810Y-58103870D02*
X77644330Y-58076486D01*
X77644330Y-58076486D02*
X77590064Y-58012404D01*
X77590064Y-58012404D02*
X77543551Y-57939035D01*
X77543551Y-57939035D02*
X77504287Y-57857887D01*
X77504287Y-57857887D02*
X77469653Y-57770575D01*
X77469653Y-57770575D02*
X77408693Y-57587642D01*
X77408693Y-57587642D02*
X77347706Y-57405212D01*
X77347706Y-57405212D02*
X77313602Y-57319937D01*
X77313602Y-57319937D02*
X77274840Y-57240377D01*
X77274840Y-57240377D02*
X77229358Y-57169575D01*
X77229358Y-57169575D02*
X77175622Y-57109117D01*
X77175622Y-57109117D02*
X77190597Y-57017651D01*
X77190597Y-57017651D02*
X77192158Y-56928249D01*
X77192158Y-56928249D02*
X77183374Y-56841412D01*
X77183374Y-56841412D02*
X77164774Y-56756666D01*
X77164774Y-56756666D02*
X77139956Y-56673482D01*
X77139956Y-56673482D02*
X77110005Y-56591831D01*
X77110005Y-56591831D02*
X77042827Y-56431124D01*
X77042827Y-56431124D02*
X76980280Y-56272480D01*
X76980280Y-56272480D02*
X76955489Y-56192893D01*
X76955489Y-56192893D02*
X76937920Y-56112777D01*
X76937920Y-56112777D02*
X76929639Y-56031656D01*
X76929639Y-56031656D02*
X76932734Y-55949503D01*
X76932734Y-55949503D02*
X76948768Y-55866292D01*
X76948768Y-55866292D02*
X76980280Y-55781017D01*
X76980280Y-55781017D02*
X76980809Y-55677670D01*
X76980809Y-55677670D02*
X76969432Y-55577420D01*
X76969432Y-55577420D02*
X76947736Y-55480265D01*
X76947736Y-55480265D02*
X76918262Y-55385703D01*
X76918262Y-55385703D02*
X76883654Y-55293205D01*
X76883654Y-55293205D02*
X76844893Y-55202770D01*
X76844893Y-55202770D02*
X76765306Y-55024494D01*
X76765306Y-55024494D02*
X76728635Y-54935595D01*
X76728635Y-54935595D02*
X76697097Y-54846721D01*
X76697097Y-54846721D02*
X76672305Y-54757319D01*
X76672305Y-54757319D02*
X76657304Y-54666884D01*
X76657304Y-54666884D02*
X76653679Y-54574889D01*
X76653679Y-54574889D02*
X76663521Y-54480856D01*
X76663521Y-54480856D02*
X76688842Y-54384204D01*
X76688842Y-54384204D02*
X76707945Y-54334594D01*
X76707945Y-54334594D02*
X76732233Y-54284482D01*
X76732233Y-54284482D02*
X76751865Y-54203335D01*
X76751865Y-54203335D02*
X76761179Y-54122743D01*
X76761179Y-54122743D02*
X76762211Y-54043156D01*
X76762211Y-54043156D02*
X76757051Y-53963570D01*
X76757051Y-53963570D02*
X76746203Y-53885015D01*
X76746203Y-53885015D02*
X76731731Y-53806989D01*
X76731731Y-53806989D02*
X76698658Y-53651970D01*
X76698658Y-53651970D02*
X76669712Y-53497454D01*
X76669712Y-53497454D02*
X76660928Y-53420963D01*
X76660928Y-53420963D02*
X76657833Y-53343969D01*
X76657833Y-53343969D02*
X76662489Y-53267478D01*
X76662489Y-53267478D02*
X76675904Y-53190484D01*
X76675904Y-53190484D02*
X76699690Y-53113491D01*
X76699690Y-53113491D02*
X76735329Y-53036497D01*
X76735329Y-53036497D02*
X76723978Y-52945031D01*
X76723978Y-52945031D02*
X76719322Y-52856660D01*
X76719322Y-52856660D02*
X76719824Y-52770353D01*
X76719824Y-52770353D02*
X76725010Y-52686639D01*
X76725010Y-52686639D02*
X76734826Y-52603957D01*
X76734826Y-52603957D02*
X76748267Y-52522836D01*
X76748267Y-52522836D02*
X76783404Y-52363160D01*
X76783404Y-52363160D02*
X76872806Y-52040686D01*
X76872806Y-52040686D02*
X76917230Y-51871697D01*
X76917230Y-51871697D02*
X76954959Y-51692918D01*
X76954959Y-51692918D02*
X76963241Y-51609204D01*
X76963241Y-51609204D02*
X76964775Y-51526522D01*
X76964775Y-51526522D02*
X76960648Y-51444872D01*
X76960648Y-51444872D02*
X76951864Y-51364253D01*
X76951864Y-51364253D02*
X76926014Y-51205080D01*
X76926014Y-51205080D02*
X76897095Y-51047468D01*
X76897095Y-51047468D02*
X76875902Y-50890888D01*
X76875902Y-50890888D02*
X76871245Y-50812333D01*
X76871245Y-50812333D02*
X76872806Y-50733805D01*
X76872806Y-50733805D02*
X76880559Y-50654721D01*
X76880559Y-50654721D02*
X76897095Y-50575161D01*
X76897095Y-50575161D02*
X76922918Y-50495045D01*
X76922918Y-50495045D02*
X76959616Y-50413924D01*
X76959616Y-50413924D02*
X77097067Y-50251126D01*
X77097067Y-50251126D02*
X77228856Y-50073882D01*
X77228856Y-50073882D02*
X77290874Y-49979849D01*
X77290874Y-49979849D02*
X77349267Y-49883197D01*
X77349267Y-49883197D02*
X77403507Y-49783476D01*
X77403507Y-49783476D02*
X77453116Y-49681161D01*
X77453116Y-49681161D02*
X77496534Y-49576757D01*
X77496534Y-49576757D02*
X77533735Y-49469786D01*
X77533735Y-49469786D02*
X77564241Y-49360751D01*
X77564241Y-49360751D02*
X77586440Y-49250156D01*
X77586440Y-49250156D02*
X77599880Y-49138025D01*
X77599880Y-49138025D02*
X77604008Y-49024863D01*
X77604008Y-49024863D02*
X77598346Y-48910140D01*
X77598346Y-48910140D02*
X77581809Y-48794385D01*
X77581809Y-48794385D02*
X77625730Y-48718926D01*
X77625730Y-48718926D02*
X77664994Y-48640900D01*
X77664994Y-48640900D02*
X77699628Y-48560282D01*
X77699628Y-48560282D02*
X77729076Y-48477600D01*
X77729076Y-48477600D02*
X77754397Y-48393383D01*
X77754397Y-48393383D02*
X77774558Y-48307579D01*
X77774558Y-48307579D02*
X77790565Y-48220266D01*
X77790565Y-48220266D02*
X77800911Y-48132398D01*
X77800911Y-48132398D02*
X77807102Y-48044557D01*
X77807102Y-48044557D02*
X77808663Y-47955683D01*
X77808663Y-47955683D02*
X77805038Y-47867313D01*
X77805038Y-47867313D02*
X77796783Y-47778942D01*
X77796783Y-47778942D02*
X77783342Y-47691603D01*
X77783342Y-47691603D02*
X77765245Y-47605296D01*
X77765245Y-47605296D02*
X77742517Y-47520047D01*
X77742517Y-47520047D02*
X77714604Y-47436836D01*
X77714604Y-47436836D02*
X77783342Y-47340210D01*
X77783342Y-47340210D02*
X77842768Y-47237367D01*
X77842768Y-47237367D02*
X77893938Y-47128861D01*
X77893938Y-47128861D02*
X77935795Y-47016705D01*
X77935795Y-47016705D02*
X77969371Y-46900950D01*
X77969371Y-46900950D02*
X77993659Y-46782099D01*
X77993659Y-46782099D02*
X78008635Y-46661687D01*
X78008635Y-46661687D02*
X78014852Y-46540270D01*
X78014852Y-46540270D02*
X78012260Y-46418827D01*
X78012260Y-46418827D02*
X78000380Y-46297886D01*
X78000380Y-46297886D02*
X77979716Y-46178532D01*
X77979716Y-46178532D02*
X77949739Y-46061745D01*
X77949739Y-46061745D02*
X77910448Y-45948054D01*
X77910448Y-45948054D02*
X77862400Y-45838490D01*
X77862400Y-45838490D02*
X77804535Y-45733583D01*
X77804535Y-45733583D02*
X77737860Y-45634364D01*
X77737860Y-45634364D02*
X77775590Y-45514482D01*
X77775590Y-45514482D02*
X77799350Y-45394070D01*
X77799350Y-45394070D02*
X77809695Y-45274717D01*
X77809695Y-45274717D02*
X77807631Y-45155337D01*
X77807631Y-45155337D02*
X77793661Y-45036989D01*
X77793661Y-45036989D02*
X77769902Y-44920202D01*
X77769902Y-44920202D02*
X77736829Y-44804976D01*
X77736829Y-44804976D02*
X77694972Y-44691787D01*
X77694972Y-44691787D02*
X77645362Y-44581218D01*
X77645362Y-44581218D02*
X77589562Y-44473215D01*
X77589562Y-44473215D02*
X77528046Y-44368308D01*
X77528046Y-44368308D02*
X77462430Y-44267026D01*
X77462430Y-44267026D02*
X77392659Y-44169342D01*
X77392659Y-44169342D02*
X77320322Y-44076341D01*
X77320322Y-44076341D02*
X77171494Y-43903727D01*
X77171494Y-43903727D02*
X77122388Y-43791068D01*
X77122388Y-43791068D02*
X77088812Y-43680498D01*
X77088812Y-43680498D02*
X77068651Y-43570405D01*
X77068651Y-43570405D02*
X77059364Y-43461900D01*
X77059364Y-43461900D02*
X77059364Y-43353897D01*
X77059364Y-43353897D02*
X77067116Y-43246397D01*
X77067116Y-43246397D02*
X77080530Y-43138923D01*
X77080530Y-43138923D02*
X77097067Y-43031423D01*
X77097067Y-43031423D02*
X77132204Y-42815418D01*
X77132204Y-42815418D02*
X77147205Y-42706383D01*
X77147205Y-42706383D02*
X77158053Y-42595814D01*
X77158053Y-42595814D02*
X77162181Y-42484186D01*
X77162181Y-42484186D02*
X77158053Y-42370998D01*
X77158053Y-42370998D02*
X77144110Y-42255243D01*
X77144110Y-42255243D02*
X77117228Y-42137953D01*
X77117228Y-42137953D02*
X77082594Y-42039766D01*
X77082594Y-42039766D02*
X77062459Y-41940018D01*
X77062459Y-41940018D02*
X77055210Y-41838736D01*
X77055210Y-41838736D02*
X77057803Y-41736422D01*
X77057803Y-41736422D02*
X77068651Y-41632547D01*
X77068651Y-41632547D02*
X77084684Y-41528169D01*
X77084684Y-41528169D02*
X77125510Y-41316820D01*
X77125510Y-41316820D02*
X77145142Y-41210351D01*
X77145142Y-41210351D02*
X77161678Y-41103381D01*
X77161678Y-41103381D02*
X77172526Y-40996410D01*
X77172526Y-40996410D02*
X77176151Y-40889439D01*
X77176151Y-40889439D02*
X77169430Y-40781965D01*
X77169430Y-40781965D02*
X77150301Y-40675497D01*
X77150301Y-40675497D02*
X77116196Y-40568526D01*
X77116196Y-40568526D02*
X77093469Y-40515310D01*
X77093469Y-40515310D02*
X77066058Y-40462600D01*
X77066058Y-40462600D02*
X77003537Y-40384053D01*
X77003537Y-40384053D02*
X76950832Y-40303954D01*
X76950832Y-40303954D02*
X76905879Y-40222306D01*
X76905879Y-40222306D02*
X76868150Y-40139108D01*
X76868150Y-40139108D02*
X76836638Y-40054357D01*
X76836638Y-40054357D02*
X76809756Y-39968058D01*
X76809756Y-39968058D02*
X76767370Y-39793393D01*
X76767370Y-39793393D02*
X76695562Y-39434759D01*
X76695562Y-39434759D02*
X76649551Y-39254408D01*
X76649551Y-39254408D02*
X76620606Y-39163974D01*
X76620606Y-39163974D02*
X76585469Y-39074058D01*
X76585469Y-39074058D02*
X76535357Y-38969672D01*
X76535357Y-38969672D02*
X76477466Y-38871485D01*
X76477466Y-38871485D02*
X76413384Y-38779500D01*
X76413384Y-38779500D02*
X76342609Y-38694236D01*
X76342609Y-38694236D02*
X76266118Y-38614655D01*
X76266118Y-38614655D02*
X76184467Y-38541791D01*
X76184467Y-38541791D02*
X76097658Y-38475127D01*
X76097658Y-38475127D02*
X76006694Y-38415183D01*
X76006694Y-38415183D02*
X75911629Y-38361441D01*
X75911629Y-38361441D02*
X75812913Y-38313898D01*
X75812913Y-38313898D02*
X75711128Y-38273073D01*
X75711128Y-38273073D02*
X75607253Y-38238449D01*
X75607253Y-38238449D02*
X75500785Y-38211062D01*
X75500785Y-38211062D02*
X75392782Y-38189359D01*
X75392782Y-38189359D02*
X75283747Y-38174889D01*
X75283747Y-38174889D02*
X75174210Y-38166620D01*
X75174210Y-38166620D02*
X75064117Y-38165586D01*
X75064117Y-38165586D02*
X74954580Y-38170753D01*
X74954580Y-38170753D02*
X74845545Y-38182641D01*
X74845545Y-38182641D02*
X74737542Y-38201244D01*
X74737542Y-38201244D02*
X74631603Y-38226564D01*
X74631603Y-38226564D02*
X74527728Y-38259121D01*
X74527728Y-38259121D02*
X74426446Y-38297877D01*
X74426446Y-38297877D02*
X74327730Y-38343870D01*
X74327730Y-38343870D02*
X74233168Y-38396580D01*
X74233168Y-38396580D02*
X74142230Y-38456008D01*
X74142230Y-38456008D02*
X74055923Y-38522670D01*
X74055923Y-38522670D02*
X73974273Y-38596052D01*
X73974273Y-38596052D02*
X73898311Y-38676665D01*
X73898311Y-38676665D02*
X73828038Y-38764514D01*
X73828038Y-38764514D02*
X73763956Y-38858566D01*
X73763956Y-38858566D02*
X73707097Y-38960369D01*
X73707097Y-38960369D02*
X73671961Y-39000676D01*
X73671961Y-39000676D02*
X73640951Y-39042536D01*
X73640951Y-39042536D02*
X73589808Y-39129867D01*
X73589808Y-39129867D02*
X73551549Y-39220817D01*
X73551549Y-39220817D02*
X73524165Y-39315387D01*
X73524165Y-39315387D02*
X73506094Y-39413055D01*
X73506094Y-39413055D02*
X73495748Y-39512274D01*
X73495748Y-39512274D02*
X73490589Y-39613043D01*
X73490589Y-39613043D02*
X73489028Y-39714844D01*
X73489028Y-39714844D02*
X73489028Y-39916898D01*
X73489028Y-39916898D02*
X73486964Y-40016635D01*
X73486964Y-40016635D02*
X73480773Y-40113785D01*
X73480773Y-40113785D02*
X73468867Y-40208354D01*
X73468867Y-40208354D02*
X73449235Y-40299305D01*
X73449235Y-40299305D02*
X73420289Y-40386636D01*
X73420289Y-40386636D02*
X73379464Y-40468802D01*
X73379464Y-40468802D02*
X73351577Y-40496708D01*
X73351577Y-40496708D02*
X73323161Y-40519446D01*
X73323161Y-40519446D02*
X73293686Y-40536485D01*
X73293686Y-40536485D02*
X73263736Y-40549423D01*
X73263736Y-40549423D02*
X73232726Y-40557175D01*
X73232726Y-40557175D02*
X73200685Y-40561303D01*
X73200685Y-40561303D02*
X73134540Y-40557175D01*
X73134540Y-40557175D02*
X73065801Y-40540639D01*
X73065801Y-40540639D02*
X72994496Y-40513760D01*
X72994496Y-40513760D02*
X72920598Y-40478621D01*
X72920598Y-40478621D02*
X72844636Y-40438830D01*
X72844636Y-40438830D02*
X72685992Y-40353047D01*
X72685992Y-40353047D02*
X72603813Y-40312222D01*
X72603813Y-40312222D02*
X72520628Y-40277083D01*
X72520628Y-40277083D02*
X72435855Y-40248661D01*
X72435855Y-40248661D02*
X72350077Y-40231090D01*
X72350077Y-40231090D02*
X72263268Y-40225923D01*
X72263268Y-40225923D02*
X72219347Y-40228508D01*
X72219347Y-40228508D02*
X72175426Y-40235741D01*
X72175426Y-40235741D02*
X72105127Y-40231609D01*
X72105127Y-40231609D02*
X72037446Y-40214554D01*
X72037446Y-40214554D02*
X71970771Y-40187167D01*
X71970771Y-40187167D02*
X71905155Y-40150477D01*
X71905155Y-40150477D02*
X71840544Y-40106551D01*
X71840544Y-40106551D02*
X71775959Y-40056942D01*
X71775959Y-40056942D02*
X71645731Y-39949971D01*
X71645731Y-39949971D02*
X71510344Y-39843002D01*
X71510344Y-39843002D02*
X71440071Y-39794944D01*
X71440071Y-39794944D02*
X71367205Y-39752052D01*
X71367205Y-39752052D02*
X71291243Y-39716910D01*
X71291243Y-39716910D02*
X71212159Y-39691074D01*
X71212159Y-39691074D02*
X71128974Y-39676603D01*
X71128974Y-39676603D02*
X71041635Y-39675053D01*
X71041635Y-39675053D02*
X70990491Y-39652833D01*
X70990491Y-39652833D02*
X70939321Y-39634746D01*
X70939321Y-39634746D02*
X70838039Y-39610974D01*
X70838039Y-39610974D02*
X70737788Y-39602190D01*
X70737788Y-39602190D02*
X70638040Y-39606322D01*
X70638040Y-39606322D02*
X70539351Y-39620792D01*
X70539351Y-39620792D02*
X70441667Y-39644047D01*
X70441667Y-39644047D02*
X70344512Y-39674018D01*
X70344512Y-39674018D02*
X70248415Y-39708642D01*
X70248415Y-39708642D02*
X70058762Y-39783574D01*
X70058762Y-39783574D02*
X69873237Y-39853337D01*
X69873237Y-39853337D02*
X69781770Y-39880724D01*
X69781770Y-39880724D02*
X69691336Y-39900361D01*
X69691336Y-39900361D02*
X69601431Y-39910699D01*
X69601431Y-39910699D02*
X69513060Y-39909664D01*
X69513060Y-39909664D02*
X69438130Y-39870905D01*
X69438130Y-39870905D02*
X69359575Y-39844553D01*
X69359575Y-39844553D02*
X69278428Y-39829048D01*
X69278428Y-39829048D02*
X69195243Y-39823365D01*
X69195243Y-39823365D02*
X69110497Y-39825431D01*
X69110497Y-39825431D02*
X69025222Y-39833700D01*
X69025222Y-39833700D02*
X68854169Y-39862640D01*
X68854169Y-39862640D02*
X68687773Y-39898811D01*
X68687773Y-39898811D02*
X68531192Y-39928267D01*
X68531192Y-39928267D02*
X68458326Y-39937051D01*
X68458326Y-39937051D02*
X68390117Y-39939636D01*
X68390117Y-39939636D02*
X68326564Y-39933953D01*
X68326564Y-39933953D02*
X68269202Y-39919483D01*
X68269202Y-39919483D02*
X68238193Y-39828016D01*
X68238193Y-39828016D02*
X68199961Y-39742233D01*
X68199961Y-39742233D02*
X68155511Y-39660583D01*
X68155511Y-39660583D02*
X68106431Y-39582552D01*
X68106431Y-39582552D02*
X67997396Y-39434759D01*
X67997396Y-39434759D02*
X67883176Y-39292130D01*
X67883176Y-39292130D02*
X67771548Y-39148988D01*
X67771548Y-39148988D02*
X67720404Y-39075090D01*
X67720404Y-39075090D02*
X67673361Y-38999125D01*
X67673361Y-38999125D02*
X67632033Y-38919544D01*
X67632033Y-38919544D02*
X67597400Y-38835830D01*
X67597400Y-38835830D02*
X67570544Y-38747978D01*
X67570544Y-38747978D02*
X67552447Y-38653929D01*
X67552447Y-38653929D02*
X67498181Y-38551610D01*
X67498181Y-38551610D02*
X67436692Y-38454458D01*
X67436692Y-38454458D02*
X67369514Y-38362473D01*
X67369514Y-38362473D02*
X67295616Y-38276174D01*
X67295616Y-38276174D02*
X67216559Y-38195042D01*
X67216559Y-38195042D02*
X67132316Y-38119594D01*
X67132316Y-38119594D02*
X67043442Y-38050348D01*
X67043442Y-38050348D02*
X66949912Y-37987303D01*
X66949912Y-37987303D02*
X66852228Y-37930976D01*
X66852228Y-37930976D02*
X66751475Y-37880850D01*
X66751475Y-37880850D02*
X66647070Y-37837958D01*
X66647070Y-37837958D02*
X66540099Y-37801785D01*
X66540099Y-37801785D02*
X66431065Y-37773363D01*
X66431065Y-37773363D02*
X66319464Y-37752175D01*
X66319464Y-37752175D02*
X66206804Y-37738740D01*
X66206804Y-37738740D02*
X66092584Y-37733055D01*
X66092584Y-37733055D02*
X66092584Y-37733055D01*
X66092584Y-37733055D02*
X66092584Y-37733055D01*
M02*
