%TF.GenerationSoftware,KiCad,Pcbnew,5.1.10*%
%TF.CreationDate,2021-09-11T11:57:41+02:00*%
%TF.ProjectId,alpaka_svg2shenzhen,616c7061-6b61-45f7-9376-67327368656e,rev?*%
%TF.SameCoordinates,Original*%
%TF.FileFunction,Legend,Bot*%
%TF.FilePolarity,Positive*%
%FSLAX46Y46*%
G04 Gerber Fmt 4.6, Leading zero omitted, Abs format (unit mm)*
G04 Created by KiCad (PCBNEW 5.1.10) date 2021-09-11 11:57:41*
%MOMM*%
%LPD*%
G01*
G04 APERTURE LIST*
%ADD10C,0.254000*%
%ADD11C,0.120000*%
%ADD12C,0.150000*%
G04 APERTURE END LIST*
D10*
%TO.C,BT1*%
X79133700Y-52197000D02*
X77228700Y-52197000D01*
X86753700Y-52197000D02*
X84848700Y-52197000D01*
X75514441Y-59476118D02*
X75268541Y-59476118D01*
X75523219Y-53697541D02*
X75268541Y-53697541D01*
X75268541Y-53731319D02*
X75268541Y-53697541D01*
X75268541Y-59476118D02*
X75268541Y-59442340D01*
X88459181Y-59476118D02*
X88713850Y-59476118D01*
X88459181Y-53697541D02*
X88713850Y-53697541D01*
X88713850Y-53731319D02*
X88713850Y-53697541D01*
X88713850Y-59476118D02*
X88713850Y-59442340D01*
X77156682Y-52020169D02*
X77147900Y-52011382D01*
X77165469Y-52028950D02*
X77156682Y-52020169D01*
X77174250Y-52046510D02*
X77165469Y-52028950D01*
X77200591Y-52064082D02*
X77174250Y-52046510D01*
X77218160Y-52099200D02*
X77200591Y-52064082D01*
X77253291Y-52134332D02*
X77218160Y-52099200D01*
X77279632Y-52169460D02*
X77253291Y-52134332D01*
X77314760Y-52204591D02*
X77279632Y-52169460D01*
X75365150Y-53513110D02*
X75356369Y-53504332D01*
X75373932Y-53521891D02*
X75365150Y-53513110D01*
X75382710Y-53539460D02*
X75373932Y-53521891D01*
X75409060Y-53557019D02*
X75382710Y-53539460D01*
X75426619Y-53592150D02*
X75409060Y-53557019D01*
X75461750Y-53627282D02*
X75426619Y-53592150D01*
X75488100Y-53662410D02*
X75461750Y-53627282D01*
X75523219Y-53697541D02*
X75488100Y-53662410D01*
X75356369Y-53504332D02*
X77147900Y-52011382D01*
X88617250Y-53513110D02*
X88626031Y-53504332D01*
X88608468Y-53521891D02*
X88617250Y-53513110D01*
X88590909Y-53539460D02*
X88608468Y-53521891D01*
X88573340Y-53557019D02*
X88590909Y-53539460D01*
X88547000Y-53592150D02*
X88573340Y-53557019D01*
X88520650Y-53627282D02*
X88547000Y-53592150D01*
X88494300Y-53662410D02*
X88520650Y-53627282D01*
X88459181Y-53697541D02*
X88494300Y-53662410D01*
X86825718Y-52020169D02*
X86834500Y-52011382D01*
X86816931Y-52028950D02*
X86825718Y-52020169D01*
X86799368Y-52046510D02*
X86816931Y-52028950D01*
X86781809Y-52064082D02*
X86799368Y-52046510D01*
X86755459Y-52099200D02*
X86781809Y-52064082D01*
X86729109Y-52134332D02*
X86755459Y-52099200D01*
X86702768Y-52169460D02*
X86729109Y-52134332D01*
X86667640Y-52204591D02*
X86702768Y-52169460D01*
X88626031Y-53504332D02*
X86834500Y-52011382D01*
X76796619Y-60731950D02*
X76656110Y-60600218D01*
X76954700Y-60854900D02*
X76796619Y-60731950D01*
X77112769Y-60969068D02*
X76954700Y-60854900D01*
X77270850Y-61065668D02*
X77112769Y-60969068D01*
X77446491Y-61162281D02*
X77270850Y-61065668D01*
X77622132Y-61241309D02*
X77446491Y-61162281D01*
X77806550Y-61311568D02*
X77622132Y-61241309D01*
X77990982Y-61364259D02*
X77806550Y-61311568D01*
X78184182Y-61408168D02*
X77990982Y-61364259D01*
X78368610Y-61434518D02*
X78184182Y-61408168D01*
X78561810Y-61460859D02*
X78368610Y-61434518D01*
X79106300Y-61460859D02*
X78561810Y-61460859D01*
X76656110Y-60600218D02*
X75514441Y-59476118D01*
X75523219Y-53697541D02*
X77314760Y-52204591D01*
X86667640Y-52204591D02*
X88459181Y-53697541D01*
X88459181Y-59476118D02*
X87326290Y-60600218D01*
X85613790Y-61434518D02*
X85420590Y-61460859D01*
X85798218Y-61408168D02*
X85613790Y-61434518D01*
X85991418Y-61364259D02*
X85798218Y-61408168D01*
X86175840Y-61311568D02*
X85991418Y-61364259D01*
X86360268Y-61241309D02*
X86175840Y-61311568D01*
X86535909Y-61162281D02*
X86360268Y-61241309D01*
X86711550Y-61065668D02*
X86535909Y-61162281D01*
X86869631Y-60969068D02*
X86711550Y-61065668D01*
X87027700Y-60854900D02*
X86869631Y-60969068D01*
X87185781Y-60731950D02*
X87027700Y-60854900D01*
X87326290Y-60600218D02*
X87185781Y-60731950D01*
X84498468Y-61408168D02*
X84314050Y-61364259D01*
X84691681Y-61443300D02*
X84498468Y-61408168D01*
X84876100Y-61460859D02*
X84691681Y-61443300D01*
X85420590Y-61460859D02*
X84876100Y-61460859D01*
X79290719Y-61443300D02*
X79106300Y-61460859D01*
X79483932Y-61408168D02*
X79290719Y-61443300D01*
X79668350Y-61364259D02*
X79483932Y-61408168D01*
D11*
%TO.C,D1*%
X96489200Y-46918200D02*
X96489200Y-50008200D01*
X96429200Y-48463200D02*
G75*
G03*
X96429200Y-48463200I-2500000J0D01*
G01*
X90939200Y-48463662D02*
G75*
G02*
X96489200Y-46918370I2990000J462D01*
G01*
X90939200Y-48462738D02*
G75*
G03*
X96489200Y-50008030I2990000J-462D01*
G01*
%TO.C,SW1*%
X108803600Y-53448000D02*
X108803600Y-53448000D01*
X108803600Y-54248000D02*
X108803600Y-53448000D01*
X108803600Y-54548000D02*
X108803600Y-54548000D01*
X108803600Y-55048000D02*
X108803600Y-54548000D01*
X108803600Y-53148000D02*
X108803600Y-53148000D01*
X108803600Y-52648000D02*
X108803600Y-53148000D01*
X107503600Y-51848000D02*
X107503600Y-51848000D01*
X108003600Y-51848000D02*
X107503600Y-51848000D01*
X107503600Y-55848000D02*
X107503600Y-55848000D01*
X108003600Y-55848000D02*
X107503600Y-55848000D01*
X108303600Y-55848000D02*
X108303600Y-55848000D01*
X108803600Y-55848000D02*
X108303600Y-55848000D01*
X108803600Y-55348000D02*
X108803600Y-55348000D01*
X108803600Y-55848000D02*
X108803600Y-55348000D01*
X108803600Y-52348000D02*
X108803600Y-52348000D01*
X108803600Y-51848000D02*
X108803600Y-52348000D01*
X108303600Y-51848000D02*
X108303600Y-51848000D01*
X108803600Y-51848000D02*
X108303600Y-51848000D01*
X106903600Y-49248000D02*
X106903600Y-49248000D01*
X106903600Y-50948000D02*
X106903600Y-49248000D01*
X107203600Y-50948000D02*
X106903600Y-50948000D01*
X107203600Y-51748000D02*
X107203600Y-50948000D01*
X106903600Y-51748000D02*
X107203600Y-51748000D01*
X106903600Y-53448000D02*
X106903600Y-51748000D01*
X107203600Y-53448000D02*
X106903600Y-53448000D01*
X107203600Y-54248000D02*
X107203600Y-53448000D01*
X106903600Y-54248000D02*
X107203600Y-54248000D01*
X106903600Y-55948000D02*
X106903600Y-54248000D01*
X107203600Y-55948000D02*
X106903600Y-55948000D01*
X107203600Y-56748000D02*
X107203600Y-55948000D01*
X106903600Y-56748000D02*
X107203600Y-56748000D01*
X106903600Y-58448000D02*
X106903600Y-56748000D01*
X103103600Y-52048000D02*
X103103600Y-52048000D01*
X103103600Y-53148000D02*
X103103600Y-52048000D01*
X103103600Y-54548000D02*
X103103600Y-54548000D01*
X103103600Y-55648000D02*
X103103600Y-54548000D01*
X103103600Y-49248000D02*
X103103600Y-50648000D01*
X106903600Y-49248000D02*
X103103600Y-49248000D01*
X103103600Y-58448000D02*
X106903600Y-58448000D01*
X103103600Y-57048000D02*
X103103600Y-58448000D01*
%TO.C,D1*%
D12*
X98731295Y-48966380D02*
X98731295Y-47966380D01*
X98493200Y-47966380D01*
X98350342Y-48014000D01*
X98255104Y-48109238D01*
X98207485Y-48204476D01*
X98159866Y-48394952D01*
X98159866Y-48537809D01*
X98207485Y-48728285D01*
X98255104Y-48823523D01*
X98350342Y-48918761D01*
X98493200Y-48966380D01*
X98731295Y-48966380D01*
X97207485Y-48966380D02*
X97778914Y-48966380D01*
X97493200Y-48966380D02*
X97493200Y-47966380D01*
X97588438Y-48109238D01*
X97683676Y-48204476D01*
X97778914Y-48252095D01*
%TO.C,SW1*%
X100608361Y-52514666D02*
X100655980Y-52657523D01*
X100655980Y-52895619D01*
X100608361Y-52990857D01*
X100560742Y-53038476D01*
X100465504Y-53086095D01*
X100370266Y-53086095D01*
X100275028Y-53038476D01*
X100227409Y-52990857D01*
X100179790Y-52895619D01*
X100132171Y-52705142D01*
X100084552Y-52609904D01*
X100036933Y-52562285D01*
X99941695Y-52514666D01*
X99846457Y-52514666D01*
X99751219Y-52562285D01*
X99703600Y-52609904D01*
X99655980Y-52705142D01*
X99655980Y-52943238D01*
X99703600Y-53086095D01*
X99655980Y-53419428D02*
X100655980Y-53657523D01*
X99941695Y-53848000D01*
X100655980Y-54038476D01*
X99655980Y-54276571D01*
X100655980Y-55181333D02*
X100655980Y-54609904D01*
X100655980Y-54895619D02*
X99655980Y-54895619D01*
X99798838Y-54800380D01*
X99894076Y-54705142D01*
X99941695Y-54609904D01*
%TD*%
M02*
