%TF.GenerationSoftware,KiCad,Pcbnew,5.1.10*%
%TF.CreationDate,2021-10-07T15:14:53+02:00*%
%TF.ProjectId,alpaka_svg2shenzhen,616c7061-6b61-45f7-9376-67327368656e,rev?*%
%TF.SameCoordinates,Original*%
%TF.FileFunction,Copper,L1,Top*%
%TF.FilePolarity,Positive*%
%FSLAX46Y46*%
G04 Gerber Fmt 4.6, Leading zero omitted, Abs format (unit mm)*
G04 Created by KiCad (PCBNEW 5.1.10) date 2021-10-07 15:14:53*
%MOMM*%
%LPD*%
G01*
G04 APERTURE LIST*
%TA.AperFunction,EtchedComponent*%
%ADD10C,0.010000*%
%TD*%
%TA.AperFunction,ComponentPad*%
%ADD11R,1.800000X1.800000*%
%TD*%
%TA.AperFunction,ComponentPad*%
%ADD12C,1.800000*%
%TD*%
G04 APERTURE END LIST*
D10*
%TO.C,G\u002A\u002A\u002A*%
G36*
X75451968Y-48041972D02*
G01*
X75624728Y-48075324D01*
X75774775Y-48133908D01*
X75909317Y-48220176D01*
X75978340Y-48279397D01*
X76086826Y-48409371D01*
X76164847Y-48565919D01*
X76211278Y-48745098D01*
X76224996Y-48942965D01*
X76212990Y-49102383D01*
X76174473Y-49288971D01*
X76111925Y-49442826D01*
X76022891Y-49567637D01*
X75904915Y-49667093D01*
X75797592Y-49726510D01*
X75643447Y-49780966D01*
X75465984Y-49815660D01*
X75280006Y-49829239D01*
X75100315Y-49820350D01*
X74988163Y-49800514D01*
X74800165Y-49734748D01*
X74631705Y-49635363D01*
X74488145Y-49506610D01*
X74374846Y-49352742D01*
X74339632Y-49286029D01*
X74309393Y-49219360D01*
X74289795Y-49164258D01*
X74278580Y-49108112D01*
X74273493Y-49038309D01*
X74272276Y-48942238D01*
X74272319Y-48909817D01*
X74279553Y-48746384D01*
X74302598Y-48613098D01*
X74344875Y-48499628D01*
X74409808Y-48395639D01*
X74464517Y-48329645D01*
X74595164Y-48210354D01*
X74745913Y-48122508D01*
X74920375Y-48064733D01*
X75122162Y-48035658D01*
X75249283Y-48031400D01*
X75451968Y-48041972D01*
G37*
X75451968Y-48041972D02*
X75624728Y-48075324D01*
X75774775Y-48133908D01*
X75909317Y-48220176D01*
X75978340Y-48279397D01*
X76086826Y-48409371D01*
X76164847Y-48565919D01*
X76211278Y-48745098D01*
X76224996Y-48942965D01*
X76212990Y-49102383D01*
X76174473Y-49288971D01*
X76111925Y-49442826D01*
X76022891Y-49567637D01*
X75904915Y-49667093D01*
X75797592Y-49726510D01*
X75643447Y-49780966D01*
X75465984Y-49815660D01*
X75280006Y-49829239D01*
X75100315Y-49820350D01*
X74988163Y-49800514D01*
X74800165Y-49734748D01*
X74631705Y-49635363D01*
X74488145Y-49506610D01*
X74374846Y-49352742D01*
X74339632Y-49286029D01*
X74309393Y-49219360D01*
X74289795Y-49164258D01*
X74278580Y-49108112D01*
X74273493Y-49038309D01*
X74272276Y-48942238D01*
X74272319Y-48909817D01*
X74279553Y-48746384D01*
X74302598Y-48613098D01*
X74344875Y-48499628D01*
X74409808Y-48395639D01*
X74464517Y-48329645D01*
X74595164Y-48210354D01*
X74745913Y-48122508D01*
X74920375Y-48064733D01*
X75122162Y-48035658D01*
X75249283Y-48031400D01*
X75451968Y-48041972D01*
G36*
X67099801Y-48034113D02*
G01*
X67238683Y-48044250D01*
X67349476Y-48063846D01*
X67533385Y-48131261D01*
X67690805Y-48229292D01*
X67819035Y-48354967D01*
X67915377Y-48505317D01*
X67977129Y-48677373D01*
X67994550Y-48773437D01*
X68001597Y-48977723D01*
X67969480Y-49166064D01*
X67898245Y-49338307D01*
X67787940Y-49494301D01*
X67763545Y-49521059D01*
X67615922Y-49646919D01*
X67443393Y-49740656D01*
X67249707Y-49801309D01*
X67038612Y-49827917D01*
X66813856Y-49819518D01*
X66680954Y-49798675D01*
X66498896Y-49744107D01*
X66346316Y-49659282D01*
X66223964Y-49545040D01*
X66132592Y-49402221D01*
X66072953Y-49231664D01*
X66050297Y-49094312D01*
X66043565Y-48869921D01*
X66070045Y-48669426D01*
X66129018Y-48493999D01*
X66219759Y-48344813D01*
X66341547Y-48223038D01*
X66493659Y-48129847D01*
X66675375Y-48066411D01*
X66685300Y-48064024D01*
X66807415Y-48044004D01*
X66950814Y-48034032D01*
X67099801Y-48034113D01*
G37*
X67099801Y-48034113D02*
X67238683Y-48044250D01*
X67349476Y-48063846D01*
X67533385Y-48131261D01*
X67690805Y-48229292D01*
X67819035Y-48354967D01*
X67915377Y-48505317D01*
X67977129Y-48677373D01*
X67994550Y-48773437D01*
X68001597Y-48977723D01*
X67969480Y-49166064D01*
X67898245Y-49338307D01*
X67787940Y-49494301D01*
X67763545Y-49521059D01*
X67615922Y-49646919D01*
X67443393Y-49740656D01*
X67249707Y-49801309D01*
X67038612Y-49827917D01*
X66813856Y-49819518D01*
X66680954Y-49798675D01*
X66498896Y-49744107D01*
X66346316Y-49659282D01*
X66223964Y-49545040D01*
X66132592Y-49402221D01*
X66072953Y-49231664D01*
X66050297Y-49094312D01*
X66043565Y-48869921D01*
X66070045Y-48669426D01*
X66129018Y-48493999D01*
X66219759Y-48344813D01*
X66341547Y-48223038D01*
X66493659Y-48129847D01*
X66675375Y-48066411D01*
X66685300Y-48064024D01*
X66807415Y-48044004D01*
X66950814Y-48034032D01*
X67099801Y-48034113D01*
G36*
X66243937Y-38053258D02*
G01*
X66469093Y-38098177D01*
X66679965Y-38178648D01*
X66872227Y-38292219D01*
X67041556Y-38436435D01*
X67183629Y-38608845D01*
X67274226Y-38764336D01*
X67332035Y-38894720D01*
X67378607Y-39024056D01*
X67410474Y-39141219D01*
X67424172Y-39235087D01*
X67424444Y-39246389D01*
X67442375Y-39299911D01*
X67495295Y-39348288D01*
X67586874Y-39421732D01*
X67686117Y-39519320D01*
X67780791Y-39627826D01*
X67858667Y-39734026D01*
X67872625Y-39756254D01*
X67967031Y-39941430D01*
X68025742Y-40130479D01*
X68053223Y-40337818D01*
X68053335Y-40339692D01*
X68064763Y-40532568D01*
X68204906Y-40426251D01*
X68411784Y-40293014D01*
X68625911Y-40200840D01*
X68845314Y-40149950D01*
X69068022Y-40140560D01*
X69292063Y-40172891D01*
X69515463Y-40247161D01*
X69574928Y-40274199D01*
X69733156Y-40350304D01*
X69840704Y-40253609D01*
X69955534Y-40167052D01*
X70097749Y-40085200D01*
X70252481Y-40015355D01*
X70404864Y-39964817D01*
X70451133Y-39953824D01*
X70665564Y-39929580D01*
X70883136Y-39943840D01*
X71097434Y-39993927D01*
X71302041Y-40077165D01*
X71490543Y-40190877D01*
X71656523Y-40332389D01*
X71793565Y-40499023D01*
X71806987Y-40519376D01*
X71869672Y-40616769D01*
X71980611Y-40586645D01*
X72080717Y-40570397D01*
X72205564Y-40566014D01*
X72339457Y-40572830D01*
X72466701Y-40590176D01*
X72552429Y-40610958D01*
X72688096Y-40662750D01*
X72826272Y-40731872D01*
X72954198Y-40810880D01*
X73059114Y-40892329D01*
X73095364Y-40927735D01*
X73135770Y-40962340D01*
X73183512Y-40978750D01*
X73255829Y-40982900D01*
X73322838Y-40980197D01*
X73361698Y-40968360D01*
X73386443Y-40941798D01*
X73394556Y-40927635D01*
X73422314Y-40889888D01*
X73473209Y-40832808D01*
X73538940Y-40765406D01*
X73584697Y-40721260D01*
X73745261Y-40570150D01*
X73780816Y-40347900D01*
X73797990Y-40225233D01*
X73804499Y-40134458D01*
X73800782Y-40066617D01*
X73795841Y-40040983D01*
X73781175Y-39942698D01*
X73775934Y-39819148D01*
X73779806Y-39686269D01*
X73792478Y-39559995D01*
X73806788Y-39482480D01*
X73876274Y-39276849D01*
X73982253Y-39083209D01*
X74119419Y-38906871D01*
X74282462Y-38753141D01*
X74466075Y-38627328D01*
X74664949Y-38534740D01*
X74792714Y-38496555D01*
X74927349Y-38475127D01*
X75084136Y-38466220D01*
X75244788Y-38469834D01*
X75391018Y-38485970D01*
X75444053Y-38496555D01*
X75641643Y-38563097D01*
X75833034Y-38665140D01*
X76008683Y-38795988D01*
X76159045Y-38948939D01*
X76235456Y-39052041D01*
X76342288Y-39238062D01*
X76413254Y-39418457D01*
X76451379Y-39604320D01*
X76459689Y-39806746D01*
X76457234Y-39865325D01*
X76446211Y-40058649D01*
X76561422Y-40197983D01*
X76702774Y-40398975D01*
X76804489Y-40611349D01*
X76865762Y-40832977D01*
X76885800Y-41056983D01*
X76874868Y-41234037D01*
X76839529Y-41399474D01*
X76775970Y-41568551D01*
X76738103Y-41647987D01*
X76694097Y-41742783D01*
X76672302Y-41807402D01*
X76673380Y-41839243D01*
X76692311Y-41869345D01*
X76722911Y-41925311D01*
X76757568Y-41993058D01*
X76838013Y-42201622D01*
X76879005Y-42419488D01*
X76880543Y-42640612D01*
X76842627Y-42858950D01*
X76765257Y-43068457D01*
X76757568Y-43084242D01*
X76722054Y-43153611D01*
X76691664Y-43209078D01*
X76673380Y-43238057D01*
X76672429Y-43270489D01*
X76694497Y-43335487D01*
X76738103Y-43429313D01*
X76820180Y-43618839D01*
X76868485Y-43796944D01*
X76885686Y-43973756D01*
X76885800Y-43989891D01*
X76885800Y-44130488D01*
X77012404Y-44229954D01*
X77176189Y-44383784D01*
X77310329Y-44561829D01*
X77412802Y-44758304D01*
X77481585Y-44967422D01*
X77514655Y-45183396D01*
X77509991Y-45400441D01*
X77479193Y-45565483D01*
X77440027Y-45713650D01*
X77500236Y-45808900D01*
X77615425Y-46024077D01*
X77690979Y-46241343D01*
X77726070Y-46457737D01*
X77725464Y-46616075D01*
X77700774Y-46781050D01*
X77654248Y-46950747D01*
X77590491Y-47113392D01*
X77514105Y-47257213D01*
X77431019Y-47369001D01*
X77388188Y-47415685D01*
X77449202Y-47601834D01*
X77478988Y-47699731D01*
X77497224Y-47782823D01*
X77506461Y-47868462D01*
X77509249Y-47974005D01*
X77509217Y-48010233D01*
X77494471Y-48223783D01*
X77450277Y-48415033D01*
X77373626Y-48594745D01*
X77319929Y-48687230D01*
X77288468Y-48745918D01*
X77280512Y-48795750D01*
X77289034Y-48848697D01*
X77307032Y-48993489D01*
X77302045Y-49159019D01*
X77276029Y-49331819D01*
X77230940Y-49498421D01*
X77175102Y-49633057D01*
X77091933Y-49772872D01*
X76989309Y-49908004D01*
X76878259Y-50025003D01*
X76801047Y-50089180D01*
X76676530Y-50179817D01*
X76675331Y-50328828D01*
X76654565Y-50536605D01*
X76597865Y-50744273D01*
X76560462Y-50835983D01*
X76512286Y-50941817D01*
X76560650Y-51048072D01*
X76628635Y-51230290D01*
X76664108Y-51412949D01*
X76670006Y-51611755D01*
X76669298Y-51628619D01*
X76646559Y-51831091D01*
X76595616Y-52013083D01*
X76511964Y-52189192D01*
X76479502Y-52243567D01*
X76393783Y-52381150D01*
X76428396Y-52529317D01*
X76461777Y-52762246D01*
X76452870Y-52994401D01*
X76401656Y-53225971D01*
X76355097Y-53354007D01*
X76307774Y-53468182D01*
X76353149Y-53573659D01*
X76426776Y-53792111D01*
X76460041Y-54014144D01*
X76462467Y-54095650D01*
X76450101Y-54280656D01*
X76410322Y-54452550D01*
X76339106Y-54627814D01*
X76326107Y-54654136D01*
X76252704Y-54799895D01*
X76295889Y-54838977D01*
X76357276Y-54905868D01*
X76426327Y-54999213D01*
X76494356Y-55106418D01*
X76546640Y-55202546D01*
X76624257Y-55405216D01*
X76666095Y-55624448D01*
X76671385Y-55852998D01*
X76640096Y-56080265D01*
X76606059Y-56235167D01*
X76673304Y-56334804D01*
X76778672Y-56527797D01*
X76848459Y-56738299D01*
X76880394Y-56957694D01*
X76878812Y-57114550D01*
X76865765Y-57283735D01*
X76979438Y-57421545D01*
X77117169Y-57619184D01*
X77216337Y-57830441D01*
X77258725Y-57971209D01*
X77277156Y-58047792D01*
X77292665Y-58101149D01*
X77311502Y-58143548D01*
X77339918Y-58187258D01*
X77384161Y-58244550D01*
X77422235Y-58292213D01*
X77475924Y-58357467D01*
X77517050Y-58397562D01*
X77558876Y-58420876D01*
X77614670Y-58435790D01*
X77663764Y-58444784D01*
X77887597Y-58504867D01*
X78098065Y-58603314D01*
X78288590Y-58736703D01*
X78372181Y-58813290D01*
X78470222Y-58911330D01*
X78593469Y-58878348D01*
X78768985Y-58848439D01*
X78959095Y-58845187D01*
X79145974Y-58868025D01*
X79266906Y-58899762D01*
X79358206Y-58933171D01*
X79445437Y-58969743D01*
X79511587Y-59002277D01*
X79518304Y-59006163D01*
X79602749Y-59056520D01*
X79716317Y-58952725D01*
X79832400Y-58863256D01*
X79974351Y-58779249D01*
X80125828Y-58709420D01*
X80251300Y-58667342D01*
X80358650Y-58648284D01*
X80491204Y-58638617D01*
X80632890Y-58638337D01*
X80767635Y-58647435D01*
X80879366Y-58665905D01*
X80886163Y-58667614D01*
X81008553Y-58699329D01*
X81137844Y-58574766D01*
X81271141Y-58465693D01*
X81428319Y-58368005D01*
X81593674Y-58290365D01*
X81735380Y-58245055D01*
X81878979Y-58222180D01*
X82040146Y-58214197D01*
X82200398Y-58221086D01*
X82341252Y-58242829D01*
X82353033Y-58245686D01*
X82440392Y-58273431D01*
X82541758Y-58313957D01*
X82632550Y-58357166D01*
X82780717Y-58435527D01*
X82939467Y-58356463D01*
X83119860Y-58278793D01*
X83291480Y-58232363D01*
X83469415Y-58213443D01*
X83521550Y-58212567D01*
X83711721Y-58225717D01*
X83888382Y-58267840D01*
X84068059Y-58342942D01*
X84076307Y-58347074D01*
X84218126Y-58418570D01*
X84346088Y-58311868D01*
X84459943Y-58229831D01*
X84596047Y-58151614D01*
X84739127Y-58084805D01*
X84873906Y-58036995D01*
X84924883Y-58024296D01*
X85057095Y-58006600D01*
X85207365Y-58002043D01*
X85356493Y-58010343D01*
X85485278Y-58031217D01*
X85490894Y-58032600D01*
X85573231Y-58058453D01*
X85672383Y-58096971D01*
X85768166Y-58140253D01*
X85776575Y-58144435D01*
X85936100Y-58224570D01*
X86094075Y-58145197D01*
X86276771Y-58066243D01*
X86451252Y-58019510D01*
X86631876Y-58001402D01*
X86670457Y-58000900D01*
X86802718Y-58005857D01*
X86919124Y-58023164D01*
X87035155Y-58056475D01*
X87166290Y-58109446D01*
X87205455Y-58127206D01*
X87375694Y-58205710D01*
X87480622Y-58112740D01*
X87579829Y-58038323D01*
X87705891Y-57963411D01*
X87844094Y-57895532D01*
X87979727Y-57842215D01*
X88050372Y-57821194D01*
X88256070Y-57789745D01*
X88471267Y-57794399D01*
X88686846Y-57833236D01*
X88893690Y-57904337D01*
X89082682Y-58005783D01*
X89148441Y-58052287D01*
X89247115Y-58127607D01*
X89411166Y-58069547D01*
X89486800Y-58044389D01*
X89552642Y-58027748D01*
X89621159Y-58017960D01*
X89704820Y-58013362D01*
X89816093Y-58012289D01*
X89839800Y-58012341D01*
X89962492Y-58014086D01*
X90054780Y-58019380D01*
X90128541Y-58029682D01*
X90195653Y-58046449D01*
X90241967Y-58061728D01*
X90391993Y-58125001D01*
X90545032Y-58207344D01*
X90628258Y-58260781D01*
X90668227Y-58275737D01*
X90702342Y-58260781D01*
X90888203Y-58147634D01*
X91071840Y-58070043D01*
X91265565Y-58023806D01*
X91448731Y-58005953D01*
X91680379Y-58011678D01*
X91891109Y-58052196D01*
X92085784Y-58129408D01*
X92269272Y-58245216D01*
X92437192Y-58392256D01*
X92524251Y-58475620D01*
X92586447Y-58527328D01*
X92625476Y-58548688D01*
X92638275Y-58547619D01*
X92670373Y-58533147D01*
X92731251Y-58510517D01*
X92809224Y-58484015D01*
X92830684Y-58477074D01*
X92998861Y-58439128D01*
X93184834Y-58423671D01*
X93370183Y-58431268D01*
X93513061Y-58456166D01*
X93636891Y-58496610D01*
X93770412Y-58555145D01*
X93898457Y-58624087D01*
X94005859Y-58695753D01*
X94038194Y-58722182D01*
X94128769Y-58801908D01*
X94233243Y-58717808D01*
X94364112Y-58626719D01*
X94513834Y-58545475D01*
X94665141Y-58482726D01*
X94755683Y-58456068D01*
X94881595Y-58435696D01*
X95028374Y-58426399D01*
X95179287Y-58428173D01*
X95317603Y-58441010D01*
X95396894Y-58456301D01*
X95605429Y-58530066D01*
X95801297Y-58639681D01*
X95977653Y-58779741D01*
X96127655Y-58944844D01*
X96240946Y-59122733D01*
X96278769Y-59195621D01*
X96308507Y-59252348D01*
X96325378Y-59283817D01*
X96327384Y-59287214D01*
X96348639Y-59286365D01*
X96398604Y-59278073D01*
X96442599Y-59269180D01*
X96554385Y-59258435D01*
X96690332Y-59265944D01*
X96837269Y-59289994D01*
X96982027Y-59328874D01*
X97028992Y-59345387D01*
X97237528Y-59446080D01*
X97424585Y-59581582D01*
X97585901Y-59748029D01*
X97717215Y-59941554D01*
X97745618Y-59995235D01*
X97787943Y-60084463D01*
X97823517Y-60168068D01*
X97847114Y-60233372D01*
X97852827Y-60255404D01*
X97863718Y-60301437D01*
X97882132Y-60320361D01*
X97921736Y-60320286D01*
X97954257Y-60315581D01*
X98008612Y-60306820D01*
X98040376Y-60300842D01*
X98043589Y-60299829D01*
X98053771Y-60281570D01*
X98079303Y-60235151D01*
X98115241Y-60169565D01*
X98126318Y-60149317D01*
X98240929Y-59977738D01*
X98383379Y-59825930D01*
X98547634Y-59696900D01*
X98727662Y-59593658D01*
X98917430Y-59519211D01*
X99110907Y-59476567D01*
X99302060Y-59468734D01*
X99449342Y-59489574D01*
X99518899Y-59505225D01*
X99569004Y-59515426D01*
X99588787Y-59517968D01*
X99666033Y-59402152D01*
X99771429Y-59280580D01*
X99894011Y-59163690D01*
X100022816Y-59061917D01*
X100146880Y-58985702D01*
X100149040Y-58984609D01*
X100302594Y-58916259D01*
X100448351Y-58872852D01*
X100603181Y-58850477D01*
X100751217Y-58845078D01*
X100974642Y-58860306D01*
X101178675Y-58908486D01*
X101371252Y-58992418D01*
X101560312Y-59114903D01*
X101597883Y-59143865D01*
X101664952Y-59194861D01*
X101717574Y-59226157D01*
X101771834Y-59244041D01*
X101843813Y-59254801D01*
X101894217Y-59259726D01*
X102134309Y-59301364D01*
X102355991Y-59378836D01*
X102556353Y-59489190D01*
X102732487Y-59629476D01*
X102881483Y-59796743D01*
X103000433Y-59988041D01*
X103086428Y-60200418D01*
X103136559Y-60430925D01*
X103146048Y-60529621D01*
X103140778Y-60757837D01*
X103098455Y-60974472D01*
X103022627Y-61176733D01*
X102916839Y-61361826D01*
X102784639Y-61526957D01*
X102629573Y-61669333D01*
X102455187Y-61786161D01*
X102265028Y-61874646D01*
X102062643Y-61931996D01*
X101851577Y-61955417D01*
X101635378Y-61942116D01*
X101419168Y-61889831D01*
X101261619Y-61836786D01*
X101021243Y-62051384D01*
X100922868Y-62137645D01*
X100821533Y-62223826D01*
X100727761Y-62301142D01*
X100652075Y-62360809D01*
X100637378Y-62371817D01*
X100560523Y-62428990D01*
X100487812Y-62483906D01*
X100432996Y-62526166D01*
X100425930Y-62531754D01*
X100357970Y-62585859D01*
X100462066Y-62653311D01*
X100620567Y-62778081D01*
X100758680Y-62930535D01*
X100873304Y-63103814D01*
X100961339Y-63291061D01*
X101019685Y-63485415D01*
X101045241Y-63680018D01*
X101034906Y-63868010D01*
X101028026Y-63905337D01*
X101013037Y-63980448D01*
X101003075Y-64036762D01*
X100999928Y-64063988D01*
X101000258Y-64065030D01*
X101064478Y-64107584D01*
X101145488Y-64171177D01*
X101231394Y-64245714D01*
X101310303Y-64321101D01*
X101344833Y-64357519D01*
X101482986Y-64540934D01*
X101584077Y-64743943D01*
X101647190Y-64964101D01*
X101671406Y-65198963D01*
X101671654Y-65228472D01*
X101652172Y-65469839D01*
X101594221Y-65693922D01*
X101497310Y-65902134D01*
X101378392Y-66074624D01*
X101294291Y-66179098D01*
X101378017Y-66274216D01*
X101452783Y-66375666D01*
X101525768Y-66503749D01*
X101589281Y-66643179D01*
X101635633Y-66778670D01*
X101639898Y-66794805D01*
X101660459Y-66914885D01*
X101670077Y-67058910D01*
X101668792Y-67209941D01*
X101656645Y-67351038D01*
X101638360Y-67448399D01*
X101585156Y-67604672D01*
X101508610Y-67763513D01*
X101415977Y-67912782D01*
X101314514Y-68040340D01*
X101243432Y-68109112D01*
X101181129Y-68161536D01*
X101245566Y-68261953D01*
X101355297Y-68469538D01*
X101427404Y-68688369D01*
X101461645Y-68913131D01*
X101457776Y-69138506D01*
X101415552Y-69359180D01*
X101334731Y-69569836D01*
X101307867Y-69621400D01*
X101268459Y-69689502D01*
X101232182Y-69746534D01*
X101211733Y-69774194D01*
X101193653Y-69803161D01*
X101191014Y-69840667D01*
X101203182Y-69901450D01*
X101205805Y-69911778D01*
X101248497Y-70154826D01*
X101250360Y-70391059D01*
X101211703Y-70618348D01*
X101132835Y-70834558D01*
X101050406Y-70983613D01*
X100992675Y-71062985D01*
X100917654Y-71151116D01*
X100835340Y-71237593D01*
X100755733Y-71312007D01*
X100688832Y-71363945D01*
X100679641Y-71369673D01*
X100652813Y-71388208D01*
X100636171Y-71411476D01*
X100627031Y-71449369D01*
X100622711Y-71511775D01*
X100620920Y-71586183D01*
X100596094Y-71812548D01*
X100531131Y-72029703D01*
X100427935Y-72233378D01*
X100288414Y-72419303D01*
X100215245Y-72495119D01*
X100144292Y-72559043D01*
X100071548Y-72617773D01*
X100012382Y-72658927D01*
X100010770Y-72659883D01*
X99941189Y-72720884D01*
X99871407Y-72820533D01*
X99803423Y-72955203D01*
X99739236Y-73121264D01*
X99714645Y-73197052D01*
X99627303Y-73415214D01*
X99506980Y-73608128D01*
X99351913Y-73778146D01*
X99174093Y-73918373D01*
X99069250Y-73998529D01*
X98997287Y-74078131D01*
X98950384Y-74168272D01*
X98921278Y-74277104D01*
X98857295Y-74512496D01*
X98758822Y-74724167D01*
X98624530Y-74914705D01*
X98555648Y-74990572D01*
X98500868Y-75048137D01*
X98471104Y-75086582D01*
X98461449Y-75116729D01*
X98466997Y-75149405D01*
X98474084Y-75170489D01*
X98508287Y-75312309D01*
X98522634Y-75477809D01*
X98517326Y-75653387D01*
X98492562Y-75825442D01*
X98462751Y-75939650D01*
X98431825Y-76018254D01*
X98385579Y-76115917D01*
X98332277Y-76216543D01*
X98280181Y-76304033D01*
X98261346Y-76332006D01*
X98253296Y-76359794D01*
X98266421Y-76399900D01*
X98303953Y-76461787D01*
X98307434Y-76466966D01*
X98413150Y-76660412D01*
X98483823Y-76871511D01*
X98518572Y-77092918D01*
X98516517Y-77317286D01*
X98476777Y-77537270D01*
X98446948Y-77631275D01*
X98394784Y-77774983D01*
X98470288Y-77873317D01*
X98557854Y-78008618D01*
X98634672Y-78167731D01*
X98691978Y-78332180D01*
X98697234Y-78351805D01*
X98717911Y-78470533D01*
X98727774Y-78613360D01*
X98726840Y-78763464D01*
X98715126Y-78904020D01*
X98696574Y-79003929D01*
X98655751Y-79127305D01*
X98597264Y-79260569D01*
X98529443Y-79386649D01*
X98460618Y-79488480D01*
X98459270Y-79490175D01*
X98396050Y-79569367D01*
X98459392Y-79753135D01*
X98491866Y-79854966D01*
X98510977Y-79940206D01*
X98519880Y-80028414D01*
X98521731Y-80139146D01*
X98521728Y-80139610D01*
X98512009Y-80319623D01*
X98481960Y-80478410D01*
X98427318Y-80633909D01*
X98380464Y-80734070D01*
X98336319Y-80831805D01*
X98317439Y-80900551D01*
X98318576Y-80933529D01*
X98322252Y-80989183D01*
X98315773Y-81073127D01*
X98301052Y-81173072D01*
X98280003Y-81276731D01*
X98254539Y-81371815D01*
X98246554Y-81396168D01*
X98228020Y-81452751D01*
X98219973Y-81495663D01*
X98223106Y-81539017D01*
X98238111Y-81596928D01*
X98259763Y-81665184D01*
X98297830Y-81832205D01*
X98313540Y-82017372D01*
X98306418Y-82202648D01*
X98278133Y-82362095D01*
X98209961Y-82554534D01*
X98112577Y-82739198D01*
X97993227Y-82903960D01*
X97891277Y-83009317D01*
X97820291Y-83072817D01*
X97854861Y-83178650D01*
X97879927Y-83293704D01*
X97891660Y-83434611D01*
X97890279Y-83587116D01*
X97876006Y-83736968D01*
X97849061Y-83869913D01*
X97843873Y-83887733D01*
X97757950Y-84101578D01*
X97638339Y-84297364D01*
X97489690Y-84469389D01*
X97316657Y-84611952D01*
X97191991Y-84686805D01*
X97059821Y-84747946D01*
X96926361Y-84796395D01*
X96803583Y-84828405D01*
X96703460Y-84840228D01*
X96701765Y-84840233D01*
X96646703Y-84852846D01*
X96579292Y-84893359D01*
X96524903Y-84936959D01*
X96289423Y-85111714D01*
X96035234Y-85250272D01*
X95766550Y-85351902D01*
X95487585Y-85415872D01*
X95202551Y-85441450D01*
X94915663Y-85427905D01*
X94631132Y-85374503D01*
X94411800Y-85304043D01*
X94308793Y-85260226D01*
X94195986Y-85205740D01*
X94105191Y-85156554D01*
X94027802Y-85113161D01*
X93967033Y-85086716D01*
X93906053Y-85072438D01*
X93828027Y-85065545D01*
X93777108Y-85063365D01*
X93560506Y-85041774D01*
X93365569Y-84991261D01*
X93179652Y-84907681D01*
X93040063Y-84821848D01*
X92872993Y-84683714D01*
X92729508Y-84515267D01*
X92613321Y-84323575D01*
X92528145Y-84115704D01*
X92477694Y-83898722D01*
X92464834Y-83727077D01*
X92476453Y-83586360D01*
X92509136Y-83428888D01*
X92558539Y-83271767D01*
X92611672Y-83148804D01*
X92677095Y-83019201D01*
X92572291Y-82893266D01*
X92435087Y-82697299D01*
X92336694Y-82488469D01*
X92277119Y-82270836D01*
X92256369Y-82048460D01*
X92274452Y-81825402D01*
X92331373Y-81605721D01*
X92427142Y-81393479D01*
X92561764Y-81192735D01*
X92569255Y-81183393D01*
X92676442Y-81050804D01*
X92615733Y-80929393D01*
X92553553Y-80796082D01*
X92512328Y-80681203D01*
X92488272Y-80568839D01*
X92477598Y-80443074D01*
X92476049Y-80342317D01*
X92477970Y-80227198D01*
X92484592Y-80139187D01*
X92498143Y-80063131D01*
X92520851Y-79983875D01*
X92534826Y-79942627D01*
X92625971Y-79737515D01*
X92748722Y-79546963D01*
X92895101Y-79383358D01*
X92895135Y-79383327D01*
X92968889Y-79306553D01*
X93007592Y-79242223D01*
X93012537Y-79181071D01*
X92985018Y-79113830D01*
X92941537Y-79050787D01*
X92843091Y-78897153D01*
X92765166Y-78725391D01*
X92710342Y-78545348D01*
X92681194Y-78366868D01*
X92680301Y-78199797D01*
X92694684Y-78107896D01*
X92712224Y-78032476D01*
X92551304Y-77949844D01*
X92374331Y-77836740D01*
X92214945Y-77691257D01*
X92079380Y-77521175D01*
X91973868Y-77334269D01*
X91906360Y-77145148D01*
X91887682Y-77085886D01*
X91868998Y-77048372D01*
X91859833Y-77041364D01*
X91824968Y-77045393D01*
X91753197Y-77055445D01*
X91649413Y-77070818D01*
X91561271Y-77084225D01*
X91517164Y-77097946D01*
X91480392Y-77129854D01*
X91440542Y-77189647D01*
X91431838Y-77204829D01*
X91369518Y-77315137D01*
X91452565Y-77479836D01*
X91539984Y-77695799D01*
X91585159Y-77913727D01*
X91588159Y-78134595D01*
X91549057Y-78359379D01*
X91522861Y-78446965D01*
X91466116Y-78617354D01*
X91541856Y-78720532D01*
X91648808Y-78895028D01*
X91731597Y-79089608D01*
X91785898Y-79291482D01*
X91807387Y-79487862D01*
X91807565Y-79506233D01*
X91789918Y-79698637D01*
X91740047Y-79897335D01*
X91662560Y-80087744D01*
X91578029Y-80232758D01*
X91541598Y-80288176D01*
X91526237Y-80327342D01*
X91528923Y-80368812D01*
X91546020Y-80429152D01*
X91575210Y-80564653D01*
X91589623Y-80721931D01*
X91588607Y-80882856D01*
X91571513Y-81029299D01*
X91568168Y-81045894D01*
X91515741Y-81223354D01*
X91437454Y-81399431D01*
X91341902Y-81555212D01*
X91328757Y-81572859D01*
X91253022Y-81672077D01*
X91313703Y-81843280D01*
X91342021Y-81928821D01*
X91359949Y-82002123D01*
X91369724Y-82078195D01*
X91373587Y-82172045D01*
X91373992Y-82247317D01*
X91370746Y-82381634D01*
X91360653Y-82485364D01*
X91342412Y-82569891D01*
X91334024Y-82596567D01*
X91283660Y-82726979D01*
X91224583Y-82851990D01*
X91164175Y-82956549D01*
X91141809Y-82988585D01*
X91093887Y-83052520D01*
X91132373Y-83200251D01*
X91163922Y-83382655D01*
X91170369Y-83579633D01*
X91151070Y-83771208D01*
X91150800Y-83772721D01*
X91117507Y-83895183D01*
X91061600Y-84033975D01*
X90990102Y-84175197D01*
X90910035Y-84304949D01*
X90830107Y-84407492D01*
X90675421Y-84550825D01*
X90497368Y-84670936D01*
X90305757Y-84762605D01*
X90110398Y-84820611D01*
X90029235Y-84833722D01*
X89971388Y-84843508D01*
X89920298Y-84861279D01*
X89865186Y-84892687D01*
X89795271Y-84943380D01*
X89745378Y-84982502D01*
X89552877Y-85116275D01*
X89334859Y-85234957D01*
X89107551Y-85330490D01*
X88940217Y-85382237D01*
X88676811Y-85429578D01*
X88400438Y-85441987D01*
X88121533Y-85419807D01*
X87850537Y-85363380D01*
X87786633Y-85344401D01*
X87517358Y-85237677D01*
X87267359Y-85095356D01*
X87039569Y-84920893D01*
X86836920Y-84717744D01*
X86662345Y-84489362D01*
X86518776Y-84239202D01*
X86409145Y-83970720D01*
X86336386Y-83687370D01*
X86325583Y-83623150D01*
X86305429Y-83522954D01*
X86276606Y-83416831D01*
X86252947Y-83347983D01*
X86221678Y-83251670D01*
X86194002Y-83135916D01*
X86172592Y-83015660D01*
X86160120Y-82905838D01*
X86159095Y-82823330D01*
X86150926Y-82758546D01*
X86120112Y-82666775D01*
X86089224Y-82596567D01*
X86024091Y-82442423D01*
X85983510Y-82299878D01*
X85963524Y-82150807D01*
X85959788Y-82003819D01*
X85964600Y-81880514D01*
X85978496Y-81778239D01*
X86004790Y-81676085D01*
X86018502Y-81633606D01*
X86058877Y-81528121D01*
X86108186Y-81421403D01*
X86160802Y-81323909D01*
X86211100Y-81246097D01*
X86251965Y-81199637D01*
X86279252Y-81166659D01*
X86273556Y-81135345D01*
X86232049Y-81100470D01*
X86183258Y-81072753D01*
X86124586Y-81034705D01*
X86048829Y-80975349D01*
X85967817Y-80904298D01*
X85922214Y-80860653D01*
X85769983Y-80682332D01*
X85655946Y-80486915D01*
X85578388Y-80271427D01*
X85575035Y-80258494D01*
X85554793Y-80141088D01*
X85545091Y-80000735D01*
X85545944Y-79854197D01*
X85557367Y-79718235D01*
X85574486Y-79626951D01*
X85609911Y-79519882D01*
X85661804Y-79397722D01*
X85721489Y-79279173D01*
X85780288Y-79182937D01*
X85780889Y-79182084D01*
X85803647Y-79146326D01*
X85812258Y-79114397D01*
X85807354Y-79071678D01*
X85789568Y-79003549D01*
X85788740Y-79000596D01*
X85767681Y-78898846D01*
X85754562Y-78780748D01*
X85750268Y-78662576D01*
X85755686Y-78560603D01*
X85762567Y-78519677D01*
X85768732Y-78482458D01*
X85760709Y-78456602D01*
X85730780Y-78432794D01*
X85671225Y-78401715D01*
X85660484Y-78396449D01*
X85456452Y-78273878D01*
X85280759Y-78120988D01*
X85135821Y-77940928D01*
X85024053Y-77736847D01*
X84947871Y-77511892D01*
X84934004Y-77449438D01*
X84917868Y-77368941D01*
X84905075Y-77306450D01*
X84897663Y-77271875D01*
X84896688Y-77268130D01*
X84878516Y-77274950D01*
X84832643Y-77297580D01*
X84768432Y-77331372D01*
X84758308Y-77336840D01*
X84590271Y-77416924D01*
X84431600Y-77467082D01*
X84266515Y-77491441D01*
X84152084Y-77495400D01*
X83912544Y-77476103D01*
X83690252Y-77418167D01*
X83485058Y-77321520D01*
X83296812Y-77186093D01*
X83125363Y-77011813D01*
X83125075Y-77011471D01*
X83067341Y-76942858D01*
X82871112Y-77010471D01*
X82655014Y-77064811D01*
X82438737Y-77080333D01*
X82228697Y-77056866D01*
X82127796Y-77030386D01*
X82056361Y-77008818D01*
X82002972Y-76994741D01*
X81978143Y-76990899D01*
X81977615Y-76991209D01*
X81964119Y-77010816D01*
X81933357Y-77056310D01*
X81891611Y-77118397D01*
X81885493Y-77127519D01*
X81746291Y-77298911D01*
X81576513Y-77447923D01*
X81384601Y-77568598D01*
X81178996Y-77654984D01*
X81109394Y-77674998D01*
X80993612Y-77694967D01*
X80853422Y-77704915D01*
X80705600Y-77704626D01*
X80566921Y-77693887D01*
X80497496Y-77682827D01*
X80421404Y-77661659D01*
X80325548Y-77626758D01*
X80227346Y-77584637D01*
X80200306Y-77571702D01*
X80023814Y-77484817D01*
X80033814Y-77611817D01*
X80028953Y-77770661D01*
X79992756Y-77944114D01*
X79927752Y-78121380D01*
X79901650Y-78176410D01*
X79827512Y-78324133D01*
X79922909Y-78433186D01*
X80040161Y-78594024D01*
X80135831Y-78779317D01*
X80205372Y-78977146D01*
X80244235Y-79175596D01*
X80250932Y-79292661D01*
X80231408Y-79508816D01*
X80176719Y-79726705D01*
X80091024Y-79932855D01*
X80011790Y-80067437D01*
X79959013Y-80145106D01*
X80020968Y-80236906D01*
X80134903Y-80441986D01*
X80209856Y-80658618D01*
X80245983Y-80882224D01*
X80243443Y-81108226D01*
X80202392Y-81332046D01*
X80122989Y-81549106D01*
X80005390Y-81754830D01*
X79966904Y-81808111D01*
X79866707Y-81940406D01*
X79950778Y-82035915D01*
X80073087Y-82205929D01*
X80163225Y-82397634D01*
X80220702Y-82604644D01*
X80245028Y-82820571D01*
X80235714Y-83039029D01*
X80192269Y-83253629D01*
X80114203Y-83457984D01*
X80066652Y-83546587D01*
X79964594Y-83691875D01*
X79837102Y-83832041D01*
X79699441Y-83950731D01*
X79668923Y-83972602D01*
X79612410Y-84014336D01*
X79585196Y-84045340D01*
X79580004Y-84076202D01*
X79583790Y-84096507D01*
X79601887Y-84206974D01*
X79610045Y-84340538D01*
X79608186Y-84479128D01*
X79596230Y-84604673D01*
X79586259Y-84657685D01*
X79535335Y-84815429D01*
X79457840Y-84980720D01*
X79362288Y-85137417D01*
X79272288Y-85252855D01*
X79156550Y-85364146D01*
X79017478Y-85468917D01*
X78869762Y-85557323D01*
X78728095Y-85619523D01*
X78721861Y-85621627D01*
X78637429Y-85645442D01*
X78539172Y-85666722D01*
X78438117Y-85683843D01*
X78345289Y-85695177D01*
X78271717Y-85699099D01*
X78229171Y-85694281D01*
X78192739Y-85702681D01*
X78139999Y-85749768D01*
X78118651Y-85774211D01*
X77914576Y-85987043D01*
X77686363Y-86168538D01*
X77438322Y-86316413D01*
X77174760Y-86428388D01*
X76899988Y-86502178D01*
X76689718Y-86531043D01*
X76382833Y-86536092D01*
X76087613Y-86500810D01*
X75805692Y-86425798D01*
X75538702Y-86311661D01*
X75288277Y-86159001D01*
X75056050Y-85968420D01*
X74989975Y-85903739D01*
X74826058Y-85715819D01*
X74687604Y-85509382D01*
X74588998Y-85321699D01*
X74543449Y-85228494D01*
X74506600Y-85163879D01*
X74470487Y-85117528D01*
X74427149Y-85079116D01*
X74372365Y-85040795D01*
X74207611Y-84909621D01*
X74061096Y-84749776D01*
X73939252Y-84570310D01*
X73848509Y-84380268D01*
X73806788Y-84245153D01*
X73784365Y-84103188D01*
X73776227Y-83940933D01*
X73782383Y-83777625D01*
X73802846Y-83632503D01*
X73806422Y-83616552D01*
X73857596Y-83457418D01*
X73934516Y-83292447D01*
X74028373Y-83140258D01*
X74038156Y-83126724D01*
X74110644Y-83027976D01*
X74056067Y-82881063D01*
X74016365Y-82736312D01*
X73993101Y-82569465D01*
X73987186Y-82397089D01*
X73999534Y-82235751D01*
X74015919Y-82151802D01*
X74074096Y-81974292D01*
X74153719Y-81804826D01*
X74246146Y-81661275D01*
X74322318Y-81562066D01*
X74233517Y-81509926D01*
X74047220Y-81378135D01*
X73884545Y-81217772D01*
X73750330Y-81035231D01*
X73649409Y-80836901D01*
X73594501Y-80665325D01*
X73573107Y-80532244D01*
X73564406Y-80380068D01*
X73568395Y-80226421D01*
X73585071Y-80088930D01*
X73594594Y-80045139D01*
X73654513Y-79868550D01*
X73741826Y-79691417D01*
X73847772Y-79529911D01*
X73921066Y-79442477D01*
X73978087Y-79381123D01*
X74022105Y-79332820D01*
X74046576Y-79304794D01*
X74049467Y-79300713D01*
X74038880Y-79282016D01*
X74011007Y-79237206D01*
X73971673Y-79175638D01*
X73967982Y-79169923D01*
X73888885Y-79030005D01*
X73834193Y-78888359D01*
X73801013Y-78733883D01*
X73786448Y-78555478D01*
X73785187Y-78469067D01*
X73789978Y-78307349D01*
X73806391Y-78173605D01*
X73838108Y-78054224D01*
X73888810Y-77935598D01*
X73962178Y-77804116D01*
X73967397Y-77795495D01*
X74053073Y-77654470D01*
X74026861Y-77527310D01*
X74012524Y-77459770D01*
X74001524Y-77411639D01*
X73996780Y-77394803D01*
X73976580Y-77398576D01*
X73927712Y-77413706D01*
X73867731Y-77434448D01*
X73775922Y-77460410D01*
X73664417Y-77477925D01*
X73522808Y-77488550D01*
X73499133Y-77489613D01*
X73325654Y-77490718D01*
X73178664Y-77476517D01*
X73044368Y-77444719D01*
X72908974Y-77393037D01*
X72904101Y-77390865D01*
X72849486Y-77367772D01*
X72814012Y-77355346D01*
X72807292Y-77354685D01*
X72810791Y-77375666D01*
X72824700Y-77425997D01*
X72846030Y-77494873D01*
X72846494Y-77496308D01*
X72886672Y-77684571D01*
X72892532Y-77886928D01*
X72864342Y-78093061D01*
X72827587Y-78225066D01*
X72763181Y-78414982D01*
X72832358Y-78500232D01*
X72944617Y-78670025D01*
X73029036Y-78864718D01*
X73082331Y-79074729D01*
X73101190Y-79284744D01*
X73095592Y-79437115D01*
X73073849Y-79573324D01*
X73032209Y-79709376D01*
X72966923Y-79861273D01*
X72965191Y-79864916D01*
X72880081Y-80043682D01*
X72944166Y-80161249D01*
X73035652Y-80371650D01*
X73088895Y-80593461D01*
X73103244Y-80820129D01*
X73078045Y-81045101D01*
X73045009Y-81172357D01*
X72972343Y-81348787D01*
X72870647Y-81522097D01*
X72749345Y-81677756D01*
X72659487Y-81766967D01*
X72541242Y-81870687D01*
X72596661Y-82009212D01*
X72659110Y-82213337D01*
X72685682Y-82419385D01*
X72675106Y-82617508D01*
X72675075Y-82617711D01*
X72654306Y-82714836D01*
X72621836Y-82825530D01*
X72582414Y-82936620D01*
X72540789Y-83034934D01*
X72501708Y-83107297D01*
X72495194Y-83116709D01*
X72482801Y-83140777D01*
X72486867Y-83166695D01*
X72511770Y-83203661D01*
X72561887Y-83260872D01*
X72565894Y-83265260D01*
X72664645Y-83393234D01*
X72754212Y-83546269D01*
X72825299Y-83707094D01*
X72856692Y-83805699D01*
X72880660Y-83940552D01*
X72890850Y-84097887D01*
X72887310Y-84260173D01*
X72870087Y-84409881D01*
X72854828Y-84480400D01*
X72778749Y-84687848D01*
X72667109Y-84882020D01*
X72525197Y-85057617D01*
X72358305Y-85209341D01*
X72171722Y-85331894D01*
X71970738Y-85419977D01*
X71893937Y-85442732D01*
X71741655Y-85470154D01*
X71570575Y-85481608D01*
X71401492Y-85476115D01*
X71338796Y-85468913D01*
X71221043Y-85452009D01*
X71196271Y-85611348D01*
X71140693Y-85840022D01*
X71047605Y-86049822D01*
X70916171Y-86242355D01*
X70805272Y-86363446D01*
X70627692Y-86512499D01*
X70436560Y-86622976D01*
X70227897Y-86696590D01*
X69997726Y-86735055D01*
X69932416Y-86739584D01*
X69784775Y-86741338D01*
X69652614Y-86728499D01*
X69522673Y-86698221D01*
X69381690Y-86647660D01*
X69263858Y-86596160D01*
X69176369Y-86558982D01*
X69095925Y-86530275D01*
X69035076Y-86514300D01*
X69017250Y-86512400D01*
X68968638Y-86521940D01*
X68896427Y-86547307D01*
X68813941Y-86583621D01*
X68789148Y-86595939D01*
X68690996Y-86640887D01*
X68584120Y-86681709D01*
X68489990Y-86710287D01*
X68481244Y-86712356D01*
X68333565Y-86734877D01*
X68168143Y-86742210D01*
X68003995Y-86734394D01*
X67860140Y-86711468D01*
X67858475Y-86711067D01*
X67654382Y-86640942D01*
X67460133Y-86534290D01*
X67282817Y-86396831D01*
X67129522Y-86234281D01*
X67007337Y-86052360D01*
X66982423Y-86004400D01*
X66898019Y-85791913D01*
X66848833Y-85574736D01*
X66835631Y-85359808D01*
X66859174Y-85154069D01*
X66879902Y-85073067D01*
X66908642Y-84977817D01*
X66773542Y-84830911D01*
X66670315Y-84700953D01*
X66577361Y-84550741D01*
X66502781Y-84395086D01*
X66454680Y-84248800D01*
X66454391Y-84247567D01*
X66419725Y-84015440D01*
X66426439Y-83790470D01*
X66474860Y-83569669D01*
X66549013Y-83383123D01*
X66623387Y-83227764D01*
X66539688Y-83128502D01*
X66412745Y-82956412D01*
X66316842Y-82774019D01*
X66269028Y-82649483D01*
X66241688Y-82562575D01*
X66224519Y-82486256D01*
X66215345Y-82405239D01*
X66211992Y-82304239D01*
X66211804Y-82247317D01*
X66217535Y-82094301D01*
X66236172Y-81957395D01*
X66270867Y-81828294D01*
X66324773Y-81698690D01*
X66401041Y-81560278D01*
X66502825Y-81404750D01*
X66564786Y-81317258D01*
X66563413Y-81285156D01*
X66530127Y-81228055D01*
X66490702Y-81176526D01*
X66383845Y-81017527D01*
X66298627Y-80835187D01*
X66238635Y-80641036D01*
X66207456Y-80446604D01*
X66208174Y-80268233D01*
X66229670Y-80136088D01*
X66266136Y-79995152D01*
X66312715Y-79860786D01*
X66364551Y-79748350D01*
X66381835Y-79718911D01*
X66441455Y-79624673D01*
X66372043Y-79496661D01*
X66275409Y-79282122D01*
X66220313Y-79069540D01*
X66206545Y-78855533D01*
X66233897Y-78636715D01*
X66302158Y-78409704D01*
X66304408Y-78403840D01*
X66368089Y-78238708D01*
X66326639Y-78157458D01*
X66252237Y-77966455D01*
X66213696Y-77760002D01*
X66211455Y-77545826D01*
X66245951Y-77331658D01*
X66274391Y-77234933D01*
X66337556Y-77048549D01*
X66268530Y-76959766D01*
X66151020Y-76775501D01*
X66065119Y-76569079D01*
X66013957Y-76349662D01*
X66000165Y-76173871D01*
X66006134Y-76020234D01*
X66029441Y-75880629D01*
X66073759Y-75739529D01*
X66137908Y-75591551D01*
X66223018Y-75412785D01*
X66159010Y-75295217D01*
X66067101Y-75087317D01*
X66013417Y-74873948D01*
X65999101Y-74660938D01*
X66010122Y-74534096D01*
X66020448Y-74455348D01*
X66021268Y-74403138D01*
X66010560Y-74362341D01*
X65986305Y-74317828D01*
X65979849Y-74307464D01*
X65890818Y-74132052D01*
X65828389Y-73937296D01*
X65795533Y-73736279D01*
X65795218Y-73542084D01*
X65798772Y-73509437D01*
X65814445Y-73386391D01*
X65698924Y-73250216D01*
X65574342Y-73078422D01*
X65473218Y-72888307D01*
X65403771Y-72695412D01*
X65401998Y-72688734D01*
X65383629Y-72600420D01*
X65374779Y-72504983D01*
X65374458Y-72388221D01*
X65376741Y-72326897D01*
X65387072Y-72100811D01*
X65324499Y-72041147D01*
X65251476Y-71958256D01*
X65174358Y-71848727D01*
X65101629Y-71726343D01*
X65041774Y-71604889D01*
X65016442Y-71540712D01*
X64975329Y-71381573D01*
X64953230Y-71204004D01*
X64951540Y-71026776D01*
X64967881Y-70886826D01*
X64989987Y-70802334D01*
X65024864Y-70700148D01*
X65065636Y-70600073D01*
X65073017Y-70583928D01*
X65152281Y-70414039D01*
X65051073Y-70289290D01*
X64915321Y-70091384D01*
X64817252Y-69881024D01*
X64757536Y-69662423D01*
X64736846Y-69439794D01*
X64755853Y-69217352D01*
X64815230Y-68999311D01*
X64836768Y-68945257D01*
X64876768Y-68851198D01*
X64715937Y-68691257D01*
X64562117Y-68510289D01*
X64445313Y-68312998D01*
X64365621Y-68103771D01*
X64323138Y-67886999D01*
X64317960Y-67667070D01*
X64350182Y-67448372D01*
X64419902Y-67235295D01*
X64527214Y-67032227D01*
X64672216Y-66843557D01*
X64675397Y-66840074D01*
X64738170Y-66769490D01*
X64774847Y-66721657D01*
X64789571Y-66689699D01*
X64786485Y-66666741D01*
X64783154Y-66661220D01*
X64686583Y-66497673D01*
X64604038Y-66309787D01*
X64592162Y-66277067D01*
X64567022Y-66199828D01*
X64550599Y-66130389D01*
X64541094Y-66055596D01*
X64536707Y-65962297D01*
X64535670Y-65864317D01*
X64536876Y-65742953D01*
X64542277Y-65650484D01*
X64553518Y-65573548D01*
X64572245Y-65498783D01*
X64586185Y-65454197D01*
X64660823Y-65279014D01*
X64765975Y-65106024D01*
X64891800Y-64950217D01*
X64962968Y-64880213D01*
X65090718Y-64765498D01*
X65049572Y-64669508D01*
X64989369Y-64487051D01*
X64955672Y-64289790D01*
X64949690Y-64091614D01*
X64972630Y-63906412D01*
X64980366Y-63873805D01*
X65039916Y-63697347D01*
X65123977Y-63524692D01*
X65226094Y-63366275D01*
X65339812Y-63232534D01*
X65421827Y-63159974D01*
X65512473Y-63090761D01*
X65473681Y-62999421D01*
X65409746Y-62803939D01*
X65376088Y-62596540D01*
X65373832Y-62389887D01*
X65402831Y-62201639D01*
X65429025Y-62118607D01*
X65467958Y-62019450D01*
X65511469Y-61924855D01*
X65513956Y-61919954D01*
X65593383Y-61764425D01*
X65506460Y-61587253D01*
X65438778Y-61432731D01*
X65396473Y-61290399D01*
X65376150Y-61143737D01*
X65374410Y-60976223D01*
X65375461Y-60950064D01*
X65402167Y-60727657D01*
X65463224Y-60521810D01*
X65561650Y-60323850D01*
X65629886Y-60219325D01*
X65638624Y-60196704D01*
X65629817Y-60169056D01*
X65598905Y-60128631D01*
X65541325Y-60067678D01*
X65539591Y-60065913D01*
X65389958Y-59888882D01*
X65279874Y-59700797D01*
X65207215Y-59496776D01*
X65169853Y-59271940D01*
X65165559Y-59207400D01*
X65165113Y-59030638D01*
X65184450Y-58877144D01*
X65226976Y-58731147D01*
X65296095Y-58576878D01*
X65305741Y-58558202D01*
X65385028Y-58406421D01*
X65297879Y-58228421D01*
X65254974Y-58134190D01*
X65216968Y-58039002D01*
X65190291Y-57959329D01*
X65185098Y-57939379D01*
X65166818Y-57816890D01*
X65160529Y-57672775D01*
X65166014Y-57525635D01*
X65183057Y-57394071D01*
X65191885Y-57354472D01*
X65221527Y-57259883D01*
X65263344Y-57152813D01*
X65311467Y-57046169D01*
X65360027Y-56952861D01*
X65403154Y-56885796D01*
X65407419Y-56880448D01*
X65449822Y-56828913D01*
X65368840Y-56703618D01*
X65266027Y-56516695D01*
X65199452Y-56326405D01*
X65166677Y-56123378D01*
X65164278Y-55917333D01*
X65191025Y-55691912D01*
X65250740Y-55487725D01*
X65346219Y-55298301D01*
X65480256Y-55117168D01*
X65536815Y-55054510D01*
X65650705Y-54933871D01*
X65605688Y-54870651D01*
X65553570Y-54784561D01*
X65498938Y-54673174D01*
X65448843Y-54552432D01*
X65410339Y-54438277D01*
X65403699Y-54413994D01*
X65384025Y-54302147D01*
X65373690Y-54165799D01*
X65372943Y-54021793D01*
X65382035Y-53886974D01*
X65394686Y-53805650D01*
X65434110Y-53673094D01*
X65496696Y-53527147D01*
X65574896Y-53383554D01*
X65650689Y-53271574D01*
X65746320Y-53145998D01*
X65655638Y-53034665D01*
X65530263Y-52848196D01*
X65440575Y-52643859D01*
X65387276Y-52427624D01*
X65371067Y-52205459D01*
X65392651Y-51983333D01*
X65452729Y-51767214D01*
X65494999Y-51668292D01*
X65553692Y-51546002D01*
X65414788Y-51466563D01*
X65337356Y-51415289D01*
X65246216Y-51344436D01*
X65156089Y-51265789D01*
X65116750Y-51227971D01*
X64965552Y-51048306D01*
X64851850Y-50851210D01*
X64776539Y-50640530D01*
X64740517Y-50420112D01*
X64744680Y-50193803D01*
X64789926Y-49965449D01*
X64808525Y-49906232D01*
X64865324Y-49738481D01*
X64799701Y-49652232D01*
X64676550Y-49457060D01*
X64590513Y-49247200D01*
X64542021Y-49027977D01*
X64531507Y-48804714D01*
X64559404Y-48582735D01*
X64626143Y-48367361D01*
X64685223Y-48243134D01*
X64741803Y-48139177D01*
X64644388Y-48030828D01*
X64514737Y-47860234D01*
X64415053Y-47667857D01*
X64372953Y-47555150D01*
X64348575Y-47471632D01*
X64333522Y-47390023D01*
X64325896Y-47295611D01*
X64323798Y-47174150D01*
X64327957Y-47029813D01*
X64342927Y-46909618D01*
X64372527Y-46797601D01*
X64420576Y-46677800D01*
X64464393Y-46586426D01*
X64525429Y-46464368D01*
X64420624Y-46338432D01*
X64292524Y-46154719D01*
X64194503Y-45951030D01*
X64130039Y-45736718D01*
X64102607Y-45521137D01*
X64101868Y-45480817D01*
X64119735Y-45284030D01*
X64170268Y-45081618D01*
X64248868Y-44885864D01*
X64350936Y-44709049D01*
X64428149Y-44609568D01*
X64480707Y-44546538D01*
X64509847Y-44498501D01*
X64522295Y-44450726D01*
X64524779Y-44397901D01*
X64534915Y-44279475D01*
X64561814Y-44143668D01*
X64601163Y-44009813D01*
X64625525Y-43946427D01*
X64665949Y-43851370D01*
X64515833Y-43701818D01*
X64357003Y-43519257D01*
X64238319Y-43326712D01*
X64158064Y-43120484D01*
X64114520Y-42896876D01*
X64108267Y-42824400D01*
X64109190Y-42779413D01*
X64570678Y-42779413D01*
X64594507Y-42963489D01*
X64653414Y-43135441D01*
X64686744Y-43198926D01*
X64768268Y-43308305D01*
X64879873Y-43416107D01*
X65010094Y-43512613D01*
X65143710Y-43586400D01*
X65217775Y-43621963D01*
X65274334Y-43652527D01*
X65304344Y-43673070D01*
X65306907Y-43677038D01*
X65295789Y-43700467D01*
X65265314Y-43749891D01*
X65220804Y-43816911D01*
X65190676Y-43860503D01*
X65104992Y-43991915D01*
X65046559Y-44107453D01*
X65011439Y-44219868D01*
X64995696Y-44341910D01*
X64995392Y-44486330D01*
X64995621Y-44492145D01*
X64998594Y-44595075D01*
X64997131Y-44663165D01*
X64990553Y-44703745D01*
X64978183Y-44724140D01*
X64973903Y-44727058D01*
X64926927Y-44762380D01*
X64864958Y-44820689D01*
X64798290Y-44891016D01*
X64737213Y-44962394D01*
X64692022Y-45023859D01*
X64685727Y-45034115D01*
X64612822Y-45198713D01*
X64574307Y-45378433D01*
X64571454Y-45562142D01*
X64605381Y-45738222D01*
X64674876Y-45903539D01*
X64775595Y-46049172D01*
X64911410Y-46179902D01*
X65035679Y-46269144D01*
X65097210Y-46311282D01*
X65141493Y-46346372D01*
X65159254Y-46367042D01*
X65159281Y-46367428D01*
X65146433Y-46391000D01*
X65111972Y-46437823D01*
X65062296Y-46499404D01*
X65039675Y-46526178D01*
X64972896Y-46612022D01*
X64908208Y-46708212D01*
X64858520Y-46795402D01*
X64854467Y-46803733D01*
X64824519Y-46870198D01*
X64805401Y-46926274D01*
X64794715Y-46985150D01*
X64790064Y-47060015D01*
X64789050Y-47163567D01*
X64790227Y-47268972D01*
X64795215Y-47345014D01*
X64806201Y-47404631D01*
X64825373Y-47460761D01*
X64847833Y-47511338D01*
X64929586Y-47656286D01*
X65032402Y-47780945D01*
X65165384Y-47895732D01*
X65215305Y-47931738D01*
X65284382Y-47981433D01*
X65337757Y-48023013D01*
X65367534Y-48050177D01*
X65371133Y-48056102D01*
X65357890Y-48078164D01*
X65322602Y-48123030D01*
X65271926Y-48182391D01*
X65251633Y-48205225D01*
X65135355Y-48353332D01*
X65056143Y-48500529D01*
X65009966Y-48656058D01*
X64993939Y-48795988D01*
X64998625Y-48973591D01*
X65033005Y-49130838D01*
X65100274Y-49275096D01*
X65203628Y-49413736D01*
X65307634Y-49519283D01*
X65452086Y-49653023D01*
X65358305Y-49798780D01*
X65277481Y-49941915D01*
X65227513Y-50077585D01*
X65203692Y-50221288D01*
X65199990Y-50320010D01*
X65220227Y-50508596D01*
X65279072Y-50684634D01*
X65373523Y-50843383D01*
X65500582Y-50980102D01*
X65657248Y-51090048D01*
X65702024Y-51113450D01*
X65798288Y-51149946D01*
X65932269Y-51184393D01*
X66085588Y-51213358D01*
X66187160Y-51230302D01*
X66272520Y-51245085D01*
X66333574Y-51256265D01*
X66362229Y-51262400D01*
X66363270Y-51262819D01*
X66352641Y-51279359D01*
X66318077Y-51321326D01*
X66264415Y-51383091D01*
X66196488Y-51459025D01*
X66165394Y-51493212D01*
X66053042Y-51621874D01*
X65969093Y-51733006D01*
X65908633Y-51835195D01*
X65866746Y-51937027D01*
X65838518Y-52047089D01*
X65833789Y-52072479D01*
X65824888Y-52237177D01*
X65851727Y-52407849D01*
X65910986Y-52574140D01*
X65999348Y-52725696D01*
X66070451Y-52811020D01*
X66127039Y-52862379D01*
X66207094Y-52925606D01*
X66297758Y-52990827D01*
X66349394Y-53025200D01*
X66540523Y-53148177D01*
X66336556Y-53280308D01*
X66244038Y-53343986D01*
X66155752Y-53411288D01*
X66083535Y-53472857D01*
X66048470Y-53508003D01*
X65951634Y-53643502D01*
X65879081Y-53797646D01*
X65834596Y-53959023D01*
X65821964Y-54116218D01*
X65826820Y-54176432D01*
X65861347Y-54343415D01*
X65919697Y-54490166D01*
X66006598Y-54624429D01*
X66126776Y-54753946D01*
X66237836Y-54849626D01*
X66313214Y-54910958D01*
X66374625Y-54962783D01*
X66415511Y-54999439D01*
X66429371Y-55015024D01*
X66411599Y-55028679D01*
X66363299Y-55056979D01*
X66291875Y-55095773D01*
X66205944Y-55140293D01*
X66040064Y-55234134D01*
X65909683Y-55331149D01*
X65808073Y-55437494D01*
X65728503Y-55559322D01*
X65711440Y-55592564D01*
X65643375Y-55766266D01*
X65614186Y-55933334D01*
X65622697Y-56100841D01*
X65624836Y-56113694D01*
X65659576Y-56258507D01*
X65713026Y-56384858D01*
X65791457Y-56503978D01*
X65901143Y-56627100D01*
X65924682Y-56650546D01*
X65991669Y-56717231D01*
X66045728Y-56772818D01*
X66080694Y-56810850D01*
X66090800Y-56824503D01*
X66076684Y-56842893D01*
X66038417Y-56884404D01*
X65982117Y-56942564D01*
X65924804Y-57000107D01*
X65809118Y-57125966D01*
X65725623Y-57245408D01*
X65668054Y-57369724D01*
X65630150Y-57510205D01*
X65624248Y-57541979D01*
X65611787Y-57633565D01*
X65611940Y-57710909D01*
X65625393Y-57797275D01*
X65632779Y-57831327D01*
X65667268Y-57957598D01*
X65712265Y-58064664D01*
X65775583Y-58167857D01*
X65858973Y-58275250D01*
X65966487Y-58404441D01*
X65866663Y-58514879D01*
X65751771Y-58669109D01*
X65670111Y-58837764D01*
X65623968Y-59013736D01*
X65615625Y-59189922D01*
X65624836Y-59267528D01*
X65674375Y-59451875D01*
X65755850Y-59613063D01*
X65871343Y-59753621D01*
X66022937Y-59876082D01*
X66212716Y-59982977D01*
X66214179Y-59983673D01*
X66299880Y-60025658D01*
X66369376Y-60061989D01*
X66414951Y-60088478D01*
X66429140Y-60100332D01*
X66413938Y-60119166D01*
X66372863Y-60157740D01*
X66313163Y-60209430D01*
X66275433Y-60240713D01*
X66141730Y-60356200D01*
X66040054Y-60459214D01*
X65964622Y-60556323D01*
X65909652Y-60654094D01*
X65907704Y-60658314D01*
X65844456Y-60842870D01*
X65823312Y-61027046D01*
X65844054Y-61209487D01*
X65906464Y-61388836D01*
X66010322Y-61563738D01*
X66064637Y-61633610D01*
X66172574Y-61763236D01*
X66067300Y-61887610D01*
X65945088Y-62058970D01*
X65864989Y-62234297D01*
X65827004Y-62413249D01*
X65831131Y-62595484D01*
X65877371Y-62780659D01*
X65965723Y-62968432D01*
X66067834Y-63121764D01*
X66111317Y-63181280D01*
X66142369Y-63227042D01*
X66154299Y-63249190D01*
X66154300Y-63249228D01*
X66136444Y-63263031D01*
X66088410Y-63289988D01*
X66018500Y-63325605D01*
X65969092Y-63349461D01*
X65786211Y-63454969D01*
X65639689Y-63581565D01*
X65528471Y-63730527D01*
X65451505Y-63903132D01*
X65422672Y-64012026D01*
X65403150Y-64180594D01*
X65418141Y-64342357D01*
X65469196Y-64503136D01*
X65557863Y-64668755D01*
X65622621Y-64763197D01*
X65671529Y-64831581D01*
X65708957Y-64887156D01*
X65729073Y-64921128D01*
X65730967Y-64926636D01*
X65713114Y-64941900D01*
X65665114Y-64970106D01*
X65595304Y-65006562D01*
X65547257Y-65030043D01*
X65363445Y-65136996D01*
X65216383Y-65264783D01*
X65106183Y-65413248D01*
X65032955Y-65582234D01*
X64996811Y-65771584D01*
X64993939Y-65813988D01*
X64995657Y-65967374D01*
X65018592Y-66104564D01*
X65065981Y-66231323D01*
X65141059Y-66353414D01*
X65247061Y-66476603D01*
X65387222Y-66606652D01*
X65483312Y-66685799D01*
X65606075Y-66783623D01*
X65398646Y-66887963D01*
X65257635Y-66962979D01*
X65147892Y-67031964D01*
X65060354Y-67101761D01*
X64985961Y-67179214D01*
X64945135Y-67230517D01*
X64855544Y-67383535D01*
X64799479Y-67554304D01*
X64777785Y-67733897D01*
X64791308Y-67913386D01*
X64840895Y-68083845D01*
X64860221Y-68126443D01*
X64948743Y-68273465D01*
X65060295Y-68396700D01*
X65201841Y-68502816D01*
X65325705Y-68572095D01*
X65406326Y-68613723D01*
X65470509Y-68649026D01*
X65510271Y-68673483D01*
X65519300Y-68681764D01*
X65507862Y-68703337D01*
X65477119Y-68751157D01*
X65432421Y-68817059D01*
X65402046Y-68860587D01*
X65315113Y-68993866D01*
X65256186Y-69111771D01*
X65221314Y-69226699D01*
X65206550Y-69351044D01*
X65206854Y-69473233D01*
X65213479Y-69581412D01*
X65225225Y-69662297D01*
X65245167Y-69730881D01*
X65272820Y-69794802D01*
X65370168Y-69951736D01*
X65503131Y-70095611D01*
X65656222Y-70213636D01*
X65721498Y-70257949D01*
X65770160Y-70294385D01*
X65793565Y-70316375D01*
X65794467Y-70318671D01*
X65781415Y-70340368D01*
X65746608Y-70385300D01*
X65696568Y-70445200D01*
X65675374Y-70469643D01*
X65550941Y-70638904D01*
X65465073Y-70815537D01*
X65417487Y-70995531D01*
X65407897Y-71174874D01*
X65436017Y-71349555D01*
X65501563Y-71515560D01*
X65604249Y-71668879D01*
X65743789Y-71805499D01*
X65771909Y-71827341D01*
X65833143Y-71873414D01*
X65881145Y-71909759D01*
X65905675Y-71928619D01*
X65905827Y-71928741D01*
X65908169Y-71954104D01*
X65897649Y-72006395D01*
X65881918Y-72058055D01*
X65833937Y-72255156D01*
X65827349Y-72444983D01*
X65861578Y-72625830D01*
X65936052Y-72795990D01*
X66050197Y-72953754D01*
X66203439Y-73097416D01*
X66240759Y-73125799D01*
X66341989Y-73200109D01*
X66297692Y-73321046D01*
X66270792Y-73414547D01*
X66256635Y-73519833D01*
X66252903Y-73632483D01*
X66261971Y-73789588D01*
X66293358Y-73924467D01*
X66351996Y-74051743D01*
X66436965Y-74178309D01*
X66529180Y-74300802D01*
X66489907Y-74442434D01*
X66456630Y-74635246D01*
X66465150Y-74821908D01*
X66515267Y-75001601D01*
X66606782Y-75173506D01*
X66696370Y-75289914D01*
X66743615Y-75346425D01*
X66777074Y-75391224D01*
X66789300Y-75414049D01*
X66776715Y-75438145D01*
X66743606Y-75484684D01*
X66696940Y-75543918D01*
X66693405Y-75548217D01*
X66574024Y-75721639D01*
X66495579Y-75900541D01*
X66457880Y-76081774D01*
X66460736Y-76262191D01*
X66503955Y-76438647D01*
X66587348Y-76607994D01*
X66710723Y-76767085D01*
X66770926Y-76826868D01*
X66920596Y-76965439D01*
X66837562Y-77098128D01*
X66741477Y-77276813D01*
X66684016Y-77446676D01*
X66664044Y-77613445D01*
X66680430Y-77782845D01*
X66692020Y-77834067D01*
X66711716Y-77903110D01*
X66735970Y-77966558D01*
X66769926Y-78034987D01*
X66818726Y-78118976D01*
X66872999Y-78206197D01*
X66884826Y-78232567D01*
X66883094Y-78262593D01*
X66864759Y-78306114D01*
X66826775Y-78372970D01*
X66815646Y-78391511D01*
X66723953Y-78578381D01*
X66674535Y-78764297D01*
X66667336Y-78948538D01*
X66702299Y-79130385D01*
X66779367Y-79309116D01*
X66898482Y-79484012D01*
X66902491Y-79488931D01*
X66950338Y-79549138D01*
X66985353Y-79596566D01*
X67000758Y-79621974D01*
X67000967Y-79623138D01*
X66988195Y-79645084D01*
X66954699Y-79689292D01*
X66907704Y-79746230D01*
X66907265Y-79746743D01*
X66789323Y-79913376D01*
X66710227Y-80089589D01*
X66670566Y-80271525D01*
X66670930Y-80455330D01*
X66711908Y-80637149D01*
X66755249Y-80741675D01*
X66815368Y-80847385D01*
X66888764Y-80940549D01*
X66983338Y-81029295D01*
X67106990Y-81121755D01*
X67158007Y-81156106D01*
X67238174Y-81210065D01*
X67303381Y-81256044D01*
X67346572Y-81288925D01*
X67360800Y-81303223D01*
X67344035Y-81319433D01*
X67298860Y-81352358D01*
X67232955Y-81396586D01*
X67182220Y-81429094D01*
X67091623Y-81490633D01*
X67002781Y-81558547D01*
X66930269Y-81621440D01*
X66909018Y-81642727D01*
X66793484Y-81794332D01*
X66713607Y-81961115D01*
X66670918Y-82137112D01*
X66666947Y-82316363D01*
X66696385Y-82471016D01*
X66754197Y-82626374D01*
X66831571Y-82759244D01*
X66935150Y-82878253D01*
X67071579Y-82992027D01*
X67128876Y-83032589D01*
X67274601Y-83132159D01*
X67206576Y-83213897D01*
X67099304Y-83346868D01*
X67018510Y-83458358D01*
X66960272Y-83556348D01*
X66920671Y-83648823D01*
X66895786Y-83743764D01*
X66881698Y-83849154D01*
X66879233Y-83880479D01*
X66886355Y-84067962D01*
X66933610Y-84244651D01*
X67019600Y-84407944D01*
X67142924Y-84555234D01*
X67302182Y-84683918D01*
X67315951Y-84693017D01*
X67485581Y-84803503D01*
X67425570Y-84922410D01*
X67343183Y-85123129D01*
X67302397Y-85316530D01*
X67303176Y-85502934D01*
X67340419Y-85668067D01*
X67393904Y-85800853D01*
X67460791Y-85911079D01*
X67551950Y-86015432D01*
X67591437Y-86053505D01*
X67743661Y-86167859D01*
X67912296Y-86244583D01*
X68092547Y-86282687D01*
X68279618Y-86281181D01*
X68468712Y-86239073D01*
X68476627Y-86236401D01*
X68552896Y-86203558D01*
X68641696Y-86155612D01*
X68714285Y-86109347D01*
X68785020Y-86062223D01*
X68834778Y-86037329D01*
X68875399Y-86030153D01*
X68910791Y-86034447D01*
X68965751Y-86043922D01*
X69046444Y-86055589D01*
X69136514Y-86067102D01*
X69147067Y-86068349D01*
X69231210Y-86081524D01*
X69301405Y-86098560D01*
X69344711Y-86116191D01*
X69348725Y-86119240D01*
X69407959Y-86159125D01*
X69494443Y-86201058D01*
X69593816Y-86239295D01*
X69691719Y-86268089D01*
X69748192Y-86279080D01*
X69931046Y-86284021D01*
X70109980Y-86250400D01*
X70278528Y-86181713D01*
X70430226Y-86081455D01*
X70558607Y-85953122D01*
X70657208Y-85800210D01*
X70665444Y-85783140D01*
X70706600Y-85676997D01*
X70737729Y-85561266D01*
X70756074Y-85449898D01*
X70758879Y-85356841D01*
X70755219Y-85328785D01*
X70757786Y-85281455D01*
X70780838Y-85208574D01*
X70825806Y-85105865D01*
X70839421Y-85077528D01*
X70880087Y-84993296D01*
X70913736Y-84922324D01*
X70936028Y-84873845D01*
X70942482Y-84858436D01*
X70964436Y-84854490D01*
X71016602Y-84871410D01*
X71082227Y-84901761D01*
X71276788Y-84982370D01*
X71462507Y-85022428D01*
X71642253Y-85022067D01*
X71818894Y-84981415D01*
X71919907Y-84939973D01*
X72082176Y-84841323D01*
X72217216Y-84715228D01*
X72322369Y-84567152D01*
X72394977Y-84402560D01*
X72432382Y-84226918D01*
X72431926Y-84045689D01*
X72410869Y-83930588D01*
X72354478Y-83766457D01*
X72272722Y-83624174D01*
X72160267Y-83496602D01*
X72011780Y-83376604D01*
X71980889Y-83355309D01*
X71825293Y-83250314D01*
X71953746Y-83101437D01*
X72076797Y-82940683D01*
X72161650Y-82785509D01*
X72210706Y-82629506D01*
X72226369Y-82466267D01*
X72222759Y-82383795D01*
X72201480Y-82251436D01*
X72157930Y-82123352D01*
X72087867Y-81989491D01*
X72001827Y-81860207D01*
X71953023Y-81790842D01*
X71916214Y-81735940D01*
X71896556Y-81703324D01*
X71894822Y-81697770D01*
X71915352Y-81687245D01*
X71965487Y-81662699D01*
X72036620Y-81628327D01*
X72085477Y-81604884D01*
X72263388Y-81499405D01*
X72408856Y-81371358D01*
X72520921Y-81225041D01*
X72598624Y-81064750D01*
X72641005Y-80894781D01*
X72647104Y-80719431D01*
X72615962Y-80542996D01*
X72546619Y-80369773D01*
X72438116Y-80204057D01*
X72406730Y-80166552D01*
X72359532Y-80110074D01*
X72326173Y-80065335D01*
X72314068Y-80042568D01*
X72326656Y-80019044D01*
X72360006Y-79971589D01*
X72407891Y-79908888D01*
X72428628Y-79882838D01*
X72542456Y-79711627D01*
X72615353Y-79534164D01*
X72647597Y-79353886D01*
X72639468Y-79174225D01*
X72591244Y-78998618D01*
X72503203Y-78830500D01*
X72375626Y-78673304D01*
X72326588Y-78625953D01*
X72179703Y-78491894D01*
X72257779Y-78374304D01*
X72334786Y-78248293D01*
X72385531Y-78136644D01*
X72414613Y-78024740D01*
X72426630Y-77897961D01*
X72427695Y-77834067D01*
X72419214Y-77677873D01*
X72390663Y-77545675D01*
X72337381Y-77422036D01*
X72270826Y-77314552D01*
X72235331Y-77259753D01*
X72212793Y-77218775D01*
X72208508Y-77205836D01*
X72219407Y-77180213D01*
X72247318Y-77130442D01*
X72282574Y-77073076D01*
X72319748Y-77004479D01*
X72362796Y-76909205D01*
X72405722Y-76801214D01*
X72434675Y-76718920D01*
X72513253Y-76480171D01*
X72727514Y-76691015D01*
X72850405Y-76806175D01*
X72957778Y-76892170D01*
X73058648Y-76954336D01*
X73162024Y-76998010D01*
X73276920Y-77028529D01*
X73307651Y-77034571D01*
X73470231Y-77045045D01*
X73641394Y-77016882D01*
X73824144Y-76949570D01*
X73833651Y-76945163D01*
X73884229Y-76919337D01*
X73933471Y-76888439D01*
X73986642Y-76847924D01*
X74049006Y-76793253D01*
X74125830Y-76719882D01*
X74222378Y-76623269D01*
X74306945Y-76536888D01*
X74402272Y-76440439D01*
X74487052Y-76357383D01*
X74557193Y-76291504D01*
X74608602Y-76246588D01*
X74637185Y-76226420D01*
X74641697Y-76227333D01*
X74636932Y-76257886D01*
X74623427Y-76322327D01*
X74602798Y-76413495D01*
X74576665Y-76524232D01*
X74548160Y-76641245D01*
X74516863Y-76770581D01*
X74488333Y-76893517D01*
X74464570Y-77001045D01*
X74447573Y-77084157D01*
X74439972Y-77128634D01*
X74439600Y-77275245D01*
X74474066Y-77442348D01*
X74528811Y-77594761D01*
X74583981Y-77725873D01*
X74485175Y-77838178D01*
X74365146Y-78001209D01*
X74281813Y-78173757D01*
X74236709Y-78351112D01*
X74231367Y-78528563D01*
X74239669Y-78592694D01*
X74282289Y-78757005D01*
X74352190Y-78905601D01*
X74453427Y-79044482D01*
X74590053Y-79179645D01*
X74692483Y-79262817D01*
X74756467Y-79313383D01*
X74805022Y-79355009D01*
X74830105Y-79380681D01*
X74831859Y-79384332D01*
X74814402Y-79399474D01*
X74766413Y-79428737D01*
X74695447Y-79467764D01*
X74617832Y-79507806D01*
X74436362Y-79611286D01*
X74293170Y-79721420D01*
X74184315Y-79841737D01*
X74113516Y-79959423D01*
X74045087Y-80145492D01*
X74018552Y-80332258D01*
X74033915Y-80517660D01*
X74091179Y-80699639D01*
X74112070Y-80744413D01*
X74214197Y-80907670D01*
X74343372Y-81039651D01*
X74502120Y-81142544D01*
X74638233Y-81200581D01*
X74800883Y-81257949D01*
X74806908Y-81484428D01*
X74812933Y-81710908D01*
X74697759Y-81835309D01*
X74572223Y-81998359D01*
X74487574Y-82170651D01*
X74444021Y-82349693D01*
X74441777Y-82532993D01*
X74481053Y-82718062D01*
X74562059Y-82902407D01*
X74601700Y-82968459D01*
X74651351Y-83049134D01*
X74677336Y-83102175D01*
X74681699Y-83133581D01*
X74666478Y-83149352D01*
X74663586Y-83150428D01*
X74639737Y-83167678D01*
X74594436Y-83207463D01*
X74536083Y-83262300D01*
X74514931Y-83282877D01*
X74384293Y-83438708D01*
X74291151Y-83612034D01*
X74237267Y-83799095D01*
X74227989Y-83969591D01*
X74256538Y-84140808D01*
X74319105Y-84305827D01*
X74411880Y-84457732D01*
X74531052Y-84589605D01*
X74672810Y-84694529D01*
X74753202Y-84735711D01*
X74819922Y-84767521D01*
X74859652Y-84797681D01*
X74884927Y-84839711D01*
X74906310Y-84900875D01*
X74986418Y-85099773D01*
X75098229Y-85298797D01*
X75233440Y-85485685D01*
X75383745Y-85648176D01*
X75454728Y-85710588D01*
X75564344Y-85789117D01*
X75698092Y-85868495D01*
X75841624Y-85941381D01*
X75980591Y-86000435D01*
X76090503Y-86035842D01*
X76338368Y-86077189D01*
X76592568Y-86079572D01*
X76845800Y-86044102D01*
X77090757Y-85971891D01*
X77320135Y-85864050D01*
X77355137Y-85843420D01*
X77491903Y-85746730D01*
X77632175Y-85623786D01*
X77762768Y-85487241D01*
X77870497Y-85349745D01*
X77872166Y-85347309D01*
X77972344Y-85200693D01*
X78058780Y-85216255D01*
X78258309Y-85233613D01*
X78449831Y-85213989D01*
X78627504Y-85158712D01*
X78785486Y-85069112D01*
X78819241Y-85043124D01*
X78960122Y-84903127D01*
X79064084Y-84744828D01*
X79130016Y-84572232D01*
X79156806Y-84389340D01*
X79143344Y-84200156D01*
X79098878Y-84035900D01*
X79061524Y-83934009D01*
X79039203Y-83864105D01*
X79034431Y-83817732D01*
X79049729Y-83786436D01*
X79087613Y-83761761D01*
X79150603Y-83735252D01*
X79193512Y-83718180D01*
X79325683Y-83655869D01*
X79435371Y-83581686D01*
X79490238Y-83534217D01*
X79620700Y-83392853D01*
X79711336Y-83244730D01*
X79764648Y-83083822D01*
X79783138Y-82904106D01*
X79781689Y-82832354D01*
X79760069Y-82660273D01*
X79710874Y-82508291D01*
X79630761Y-82371192D01*
X79516385Y-82243764D01*
X79364402Y-82120794D01*
X79294892Y-82073362D01*
X79213736Y-82019683D01*
X79147425Y-81974861D01*
X79102911Y-81943662D01*
X79087133Y-81930914D01*
X79103728Y-81917558D01*
X79148762Y-81886116D01*
X79215111Y-81841464D01*
X79285705Y-81794966D01*
X79421874Y-81700026D01*
X79526399Y-81611511D01*
X79607280Y-81521004D01*
X79672518Y-81420085D01*
X79707355Y-81351305D01*
X79746371Y-81256282D01*
X79769031Y-81165809D01*
X79780506Y-81058185D01*
X79781550Y-81039843D01*
X79776340Y-80858544D01*
X79738861Y-80694355D01*
X79666534Y-80541502D01*
X79556779Y-80394209D01*
X79440929Y-80277078D01*
X79300823Y-80148697D01*
X79466715Y-79989040D01*
X79591021Y-79857079D01*
X79680290Y-79731011D01*
X79739061Y-79601705D01*
X79771874Y-79460029D01*
X79781483Y-79355986D01*
X79772752Y-79156588D01*
X79725876Y-78975551D01*
X79640849Y-78812860D01*
X79517664Y-78668501D01*
X79411243Y-78580177D01*
X79317863Y-78512897D01*
X79254380Y-78465651D01*
X79217982Y-78431599D01*
X79205857Y-78403902D01*
X79215193Y-78375720D01*
X79243178Y-78340213D01*
X79287000Y-78290542D01*
X79290484Y-78286479D01*
X79398373Y-78152382D01*
X79476475Y-78034214D01*
X79528804Y-77922422D01*
X79559378Y-77807452D01*
X79572213Y-77679751D01*
X79573264Y-77613795D01*
X79569850Y-77516537D01*
X79558067Y-77433691D01*
X79534244Y-77346941D01*
X79501507Y-77255718D01*
X79468963Y-77167819D01*
X79451196Y-77111390D01*
X79446809Y-77078777D01*
X79454404Y-77062329D01*
X79465168Y-77056658D01*
X79550346Y-77022452D01*
X79653526Y-76975271D01*
X79757887Y-76923297D01*
X79846605Y-76874711D01*
X79875324Y-76857176D01*
X79976843Y-76792031D01*
X80129946Y-76948692D01*
X80289418Y-77087661D01*
X80455664Y-77185444D01*
X80627996Y-77241786D01*
X80805724Y-77256431D01*
X80924391Y-77243365D01*
X81117428Y-77189120D01*
X81284431Y-77102064D01*
X81425882Y-76981722D01*
X81542262Y-76827620D01*
X81634056Y-76639283D01*
X81680122Y-76500567D01*
X81701938Y-76428222D01*
X81721374Y-76372316D01*
X81733880Y-76345539D01*
X81757129Y-76348257D01*
X81806369Y-76370492D01*
X81872606Y-76407928D01*
X81901449Y-76425938D01*
X82026988Y-76502560D01*
X82131986Y-76555874D01*
X82228307Y-76589816D01*
X82327815Y-76608318D01*
X82442374Y-76615316D01*
X82473800Y-76615722D01*
X82573048Y-76615034D01*
X82644993Y-76609558D01*
X82704622Y-76596396D01*
X82766923Y-76572647D01*
X82818173Y-76549110D01*
X82913077Y-76498431D01*
X83015297Y-76435132D01*
X83089342Y-76382835D01*
X83150885Y-76337021D01*
X83198175Y-76304717D01*
X83222632Y-76291710D01*
X83224051Y-76291958D01*
X83235889Y-76312962D01*
X83262025Y-76363123D01*
X83297929Y-76433680D01*
X83319871Y-76477347D01*
X83432545Y-76664096D01*
X83565392Y-76813787D01*
X83719004Y-76926897D01*
X83893978Y-77003905D01*
X84013466Y-77033731D01*
X84187571Y-77045059D01*
X84364122Y-77016658D01*
X84537436Y-76950343D01*
X84701827Y-76847930D01*
X84769464Y-76792260D01*
X84886611Y-76687848D01*
X85050747Y-76752747D01*
X85140993Y-76786766D01*
X85228760Y-76817071D01*
X85297064Y-76837841D01*
X85304842Y-76839839D01*
X85350031Y-76852048D01*
X85377706Y-76867364D01*
X85390361Y-76894359D01*
X85390487Y-76941607D01*
X85380577Y-77017681D01*
X85372257Y-77071664D01*
X85364738Y-77253298D01*
X85396025Y-77432485D01*
X85462795Y-77602630D01*
X85561723Y-77757136D01*
X85689488Y-77889408D01*
X85834024Y-77988179D01*
X85907728Y-78020964D01*
X86004574Y-78054516D01*
X86105966Y-78082532D01*
X86125659Y-78087027D01*
X86208597Y-78106058D01*
X86274616Y-78122909D01*
X86313620Y-78134927D01*
X86319569Y-78137947D01*
X86318288Y-78161593D01*
X86305453Y-78215267D01*
X86283571Y-78289068D01*
X86273294Y-78320667D01*
X86223626Y-78504718D01*
X86205752Y-78671797D01*
X86220164Y-78833431D01*
X86267354Y-79001152D01*
X86306481Y-79097949D01*
X86355003Y-79208247D01*
X86244173Y-79325434D01*
X86126661Y-79477406D01*
X86046943Y-79640718D01*
X86003671Y-79810587D01*
X85995494Y-79982230D01*
X86021065Y-80150863D01*
X86079034Y-80311703D01*
X86168054Y-80459967D01*
X86286775Y-80590872D01*
X86433847Y-80699634D01*
X86607924Y-80781469D01*
X86659508Y-80798366D01*
X86749467Y-80825267D01*
X86749467Y-81332760D01*
X86656180Y-81432490D01*
X86545319Y-81580125D01*
X86465073Y-81749213D01*
X86419653Y-81929184D01*
X86410800Y-82048451D01*
X86423660Y-82165331D01*
X86458609Y-82297327D01*
X86510204Y-82427401D01*
X86562275Y-82522483D01*
X86592973Y-82572231D01*
X86612826Y-82614703D01*
X86624260Y-82661351D01*
X86629706Y-82723629D01*
X86631592Y-82812989D01*
X86631848Y-82850567D01*
X86633953Y-82959490D01*
X86640356Y-83040086D01*
X86653336Y-83106311D01*
X86675172Y-83172122D01*
X86690611Y-83210400D01*
X86724121Y-83306381D01*
X86753602Y-83418064D01*
X86770332Y-83506733D01*
X86826245Y-83762766D01*
X86918770Y-84005479D01*
X87044706Y-84230523D01*
X87200850Y-84433548D01*
X87384001Y-84610204D01*
X87590958Y-84756144D01*
X87750916Y-84838872D01*
X87888042Y-84895573D01*
X88010615Y-84934869D01*
X88132490Y-84959499D01*
X88267517Y-84972203D01*
X88429551Y-84975720D01*
X88442800Y-84975691D01*
X88564115Y-84974464D01*
X88655459Y-84970613D01*
X88729187Y-84962441D01*
X88797651Y-84948254D01*
X88873205Y-84926356D01*
X88924980Y-84909507D01*
X89173009Y-84806822D01*
X89395222Y-84671449D01*
X89560976Y-84534219D01*
X89702217Y-84401370D01*
X89873171Y-84391681D01*
X90060062Y-84361689D01*
X90228719Y-84296840D01*
X90376461Y-84201649D01*
X90500609Y-84080631D01*
X90598482Y-83938302D01*
X90667400Y-83779177D01*
X90704683Y-83607772D01*
X90707650Y-83428600D01*
X90673622Y-83246179D01*
X90627344Y-83121159D01*
X90567435Y-82988150D01*
X90682695Y-82852240D01*
X90746274Y-82770464D01*
X90806171Y-82681904D01*
X90850327Y-82604509D01*
X90853335Y-82598240D01*
X90878489Y-82540004D01*
X90894697Y-82486300D01*
X90903866Y-82425054D01*
X90907900Y-82344192D01*
X90908717Y-82247317D01*
X90907653Y-82139557D01*
X90903162Y-82061949D01*
X90893296Y-82002334D01*
X90876105Y-81948556D01*
X90851986Y-81893444D01*
X90808869Y-81809040D01*
X90759686Y-81723562D01*
X90731485Y-81679719D01*
X90667715Y-81587033D01*
X90813790Y-81456248D01*
X90903319Y-81369449D01*
X90969789Y-81286401D01*
X91026735Y-81189572D01*
X91040124Y-81163071D01*
X91076171Y-81088054D01*
X91099406Y-81029587D01*
X91112638Y-80974176D01*
X91118672Y-80908328D01*
X91120316Y-80818551D01*
X91120374Y-80777331D01*
X91119221Y-80671771D01*
X91114152Y-80594636D01*
X91102737Y-80532045D01*
X91082549Y-80470115D01*
X91055017Y-80403809D01*
X90989669Y-80253634D01*
X91071830Y-80160392D01*
X91196149Y-79998685D01*
X91281113Y-79838438D01*
X91329098Y-79674005D01*
X91342633Y-79517160D01*
X91325585Y-79353301D01*
X91277722Y-79190054D01*
X91203970Y-79038842D01*
X91109254Y-78911086D01*
X91061175Y-78864354D01*
X91016302Y-78825323D01*
X90960297Y-78776348D01*
X90945833Y-78763659D01*
X90875144Y-78701593D01*
X90941033Y-78605827D01*
X90988267Y-78530376D01*
X91037767Y-78441010D01*
X91063652Y-78389022D01*
X91090014Y-78327985D01*
X91106746Y-78272382D01*
X91115965Y-78209407D01*
X91119786Y-78126257D01*
X91120383Y-78045733D01*
X91119371Y-77941948D01*
X91114732Y-77867311D01*
X91104060Y-77808654D01*
X91084951Y-77752809D01*
X91054999Y-77686609D01*
X91054661Y-77685900D01*
X91004153Y-77593909D01*
X90940142Y-77495555D01*
X90888932Y-77427708D01*
X90788926Y-77307100D01*
X90894089Y-77180733D01*
X91018216Y-77002623D01*
X91102670Y-76813195D01*
X91132433Y-76705054D01*
X91148551Y-76636739D01*
X91163018Y-76601073D01*
X91182982Y-76589298D01*
X91215594Y-76592652D01*
X91222986Y-76594112D01*
X91358745Y-76614007D01*
X91497421Y-76621847D01*
X91622407Y-76617126D01*
X91683415Y-76608158D01*
X91759428Y-76584635D01*
X91861099Y-76541797D01*
X91978898Y-76483864D01*
X92047563Y-76446844D01*
X92139124Y-76396327D01*
X92216794Y-76354231D01*
X92273425Y-76324373D01*
X92301872Y-76310570D01*
X92303645Y-76310067D01*
X92306805Y-76330058D01*
X92309067Y-76385348D01*
X92310308Y-76468908D01*
X92310403Y-76573711D01*
X92309743Y-76654025D01*
X92305717Y-76997983D01*
X92373481Y-77141039D01*
X92475859Y-77311982D01*
X92606535Y-77451823D01*
X92766017Y-77560944D01*
X92954816Y-77639724D01*
X93087449Y-77673626D01*
X93166011Y-77690121D01*
X93226497Y-77703838D01*
X93258666Y-77712422D01*
X93261239Y-77713616D01*
X93257650Y-77734888D01*
X93243253Y-77787479D01*
X93220575Y-77862531D01*
X93202431Y-77919662D01*
X93171018Y-78022545D01*
X93152563Y-78102823D01*
X93144572Y-78177305D01*
X93144556Y-78262801D01*
X93146049Y-78300099D01*
X93172889Y-78486943D01*
X93236670Y-78656531D01*
X93339577Y-78814082D01*
X93381986Y-78863760D01*
X93480467Y-78972703D01*
X93480467Y-79521383D01*
X93354610Y-79599066D01*
X93211706Y-79706642D01*
X93096820Y-79838163D01*
X93006878Y-79993067D01*
X92976646Y-80059276D01*
X92957330Y-80114883D01*
X92946513Y-80173023D01*
X92941781Y-80246834D01*
X92940717Y-80349453D01*
X92940717Y-80352900D01*
X92941740Y-80456800D01*
X92946411Y-80531575D01*
X92957125Y-80590414D01*
X92976282Y-80646505D01*
X93006133Y-80712733D01*
X93053345Y-80797718D01*
X93116999Y-80893862D01*
X93184185Y-80981820D01*
X93191342Y-80990288D01*
X93245318Y-81055389D01*
X93286655Y-81109116D01*
X93308947Y-81142974D01*
X93311095Y-81149038D01*
X93294535Y-81169673D01*
X93251860Y-81203180D01*
X93210554Y-81230685D01*
X93109314Y-81302973D01*
X93007802Y-81390790D01*
X92917506Y-81483116D01*
X92849911Y-81568929D01*
X92837668Y-81588479D01*
X92763229Y-81756461D01*
X92725290Y-81938751D01*
X92724782Y-82126707D01*
X92760572Y-82305097D01*
X92827819Y-82463946D01*
X92927655Y-82605941D01*
X93063512Y-82735246D01*
X93188789Y-82824912D01*
X93249979Y-82867207D01*
X93293817Y-82902995D01*
X93310942Y-82924626D01*
X93310948Y-82924806D01*
X93297929Y-82949479D01*
X93263043Y-82996903D01*
X93212815Y-83058425D01*
X93191190Y-83083556D01*
X93123974Y-83168683D01*
X93058999Y-83264502D01*
X93009392Y-83351520D01*
X93005981Y-83358567D01*
X92976168Y-83424884D01*
X92957108Y-83480885D01*
X92946428Y-83539692D01*
X92941755Y-83614431D01*
X92940717Y-83718225D01*
X92940717Y-83719498D01*
X92941471Y-83821378D01*
X92945597Y-83894399D01*
X92955884Y-83952030D01*
X92975125Y-84007741D01*
X93006111Y-84075003D01*
X93020428Y-84104130D01*
X93123178Y-84268496D01*
X93255219Y-84403351D01*
X93418991Y-84511069D01*
X93459300Y-84531255D01*
X93521831Y-84559743D01*
X93574523Y-84578528D01*
X93629130Y-84589620D01*
X93697408Y-84595030D01*
X93791113Y-84596767D01*
X93843118Y-84596886D01*
X94089353Y-84596956D01*
X94202951Y-84674975D01*
X94424371Y-84807448D01*
X94647861Y-84900291D01*
X94880916Y-84955859D01*
X95131028Y-84976507D01*
X95163217Y-84976750D01*
X95339289Y-84971300D01*
X95489381Y-84952774D01*
X95628692Y-84917908D01*
X95772421Y-84863437D01*
X95845717Y-84830185D01*
X95999370Y-84750402D01*
X96133198Y-84663064D01*
X96265258Y-84555924D01*
X96311087Y-84514540D01*
X96433217Y-84401968D01*
X96606686Y-84390348D01*
X96798348Y-84357528D01*
X96972197Y-84287744D01*
X97124502Y-84183955D01*
X97251530Y-84049123D01*
X97349549Y-83886207D01*
X97396829Y-83763795D01*
X97432904Y-83592029D01*
X97432529Y-83420863D01*
X97395005Y-83244561D01*
X97319633Y-83057384D01*
X97307867Y-83033633D01*
X97277048Y-82970036D01*
X97256987Y-82923661D01*
X97252039Y-82904876D01*
X97272169Y-82892387D01*
X97318875Y-82864128D01*
X97382374Y-82826015D01*
X97387620Y-82822877D01*
X97548503Y-82705129D01*
X97677980Y-82565445D01*
X97774099Y-82408501D01*
X97834907Y-82238973D01*
X97858453Y-82061537D01*
X97842784Y-81880871D01*
X97819121Y-81789171D01*
X97790141Y-81705967D01*
X97758834Y-81627850D01*
X97737271Y-81582124D01*
X97698267Y-81509597D01*
X97774825Y-81349290D01*
X97809472Y-81274264D01*
X97831707Y-81214964D01*
X97844272Y-81157694D01*
X97849907Y-81088756D01*
X97851354Y-80994453D01*
X97851383Y-80966733D01*
X97852128Y-80865345D01*
X97855884Y-80794735D01*
X97864933Y-80743353D01*
X97881556Y-80699648D01*
X97908036Y-80652073D01*
X97916200Y-80638650D01*
X98008234Y-80458684D01*
X98059450Y-80283552D01*
X98069870Y-80109570D01*
X98039519Y-79933051D01*
X97968418Y-79750311D01*
X97922335Y-79663670D01*
X97818037Y-79481773D01*
X97966357Y-79344451D01*
X98103026Y-79193485D01*
X98201609Y-79030232D01*
X98260982Y-78857709D01*
X98280020Y-78678932D01*
X98266594Y-78539502D01*
X98226736Y-78385001D01*
X98164729Y-78249229D01*
X98074265Y-78120907D01*
X97969940Y-78008925D01*
X97813330Y-77855699D01*
X97891009Y-77738706D01*
X97992496Y-77555312D01*
X98051886Y-77373907D01*
X98069330Y-77193773D01*
X98044980Y-77014196D01*
X98044106Y-77010756D01*
X97999638Y-76873086D01*
X97938253Y-76752206D01*
X97852698Y-76636315D01*
X97742549Y-76520213D01*
X97677768Y-76456832D01*
X97626167Y-76405270D01*
X97594144Y-76371984D01*
X97586800Y-76362983D01*
X97600997Y-76346635D01*
X97639324Y-76307414D01*
X97695383Y-76251780D01*
X97742549Y-76205753D01*
X97887081Y-76043610D01*
X97989605Y-75877644D01*
X98050358Y-75706782D01*
X98069574Y-75529953D01*
X98047491Y-75346088D01*
X97984343Y-75154115D01*
X97977648Y-75138656D01*
X97942393Y-75058600D01*
X97913166Y-74992222D01*
X97894537Y-74949903D01*
X97891000Y-74941861D01*
X97902525Y-74920117D01*
X97942932Y-74886300D01*
X98003472Y-74847731D01*
X98003473Y-74847730D01*
X98163171Y-74734324D01*
X98295863Y-74593790D01*
X98397938Y-74432147D01*
X98465786Y-74255416D01*
X98495795Y-74069615D01*
X98496967Y-74025080D01*
X98501025Y-73981045D01*
X98516681Y-73937934D01*
X98549158Y-73886308D01*
X98603678Y-73816730D01*
X98629258Y-73786003D01*
X98701989Y-73706132D01*
X98775754Y-73636445D01*
X98839185Y-73587435D01*
X98853904Y-73578652D01*
X98993816Y-73482535D01*
X99116741Y-73358097D01*
X99216165Y-73214436D01*
X99285573Y-73060653D01*
X99315441Y-72933983D01*
X99333450Y-72860225D01*
X99371758Y-72767070D01*
X99432884Y-72648742D01*
X99462996Y-72595317D01*
X99521745Y-72495119D01*
X99566811Y-72425136D01*
X99604112Y-72378060D01*
X99639563Y-72346585D01*
X99679083Y-72323402D01*
X99685808Y-72320150D01*
X99748698Y-72283069D01*
X99823923Y-72228513D01*
X99887212Y-72175329D01*
X100007189Y-72037915D01*
X100095149Y-71877349D01*
X100149168Y-71700253D01*
X100167322Y-71513247D01*
X100147688Y-71322954D01*
X100142142Y-71297818D01*
X100110820Y-71164487D01*
X100258974Y-71089878D01*
X100436099Y-70980926D01*
X100577996Y-70849411D01*
X100686514Y-70693205D01*
X100763498Y-70510179D01*
X100764255Y-70507756D01*
X100798414Y-70345151D01*
X100797395Y-70183331D01*
X100760497Y-70014750D01*
X100705057Y-69870797D01*
X100650804Y-69749778D01*
X100750576Y-69638808D01*
X100871010Y-69477750D01*
X100955014Y-69305160D01*
X101000991Y-69126053D01*
X101007344Y-68945444D01*
X100996833Y-68864917D01*
X100967166Y-68744241D01*
X100922393Y-68634000D01*
X100858142Y-68528114D01*
X100770045Y-68420503D01*
X100653730Y-68305085D01*
X100504828Y-68175779D01*
X100496724Y-68169067D01*
X100391383Y-68081985D01*
X100611476Y-67971510D01*
X100801747Y-67861845D01*
X100953114Y-67742034D01*
X101068480Y-67608586D01*
X101150746Y-67458009D01*
X101202815Y-67286810D01*
X101209449Y-67252148D01*
X101219337Y-67076661D01*
X101189993Y-66898502D01*
X101123416Y-66724614D01*
X101021602Y-66561933D01*
X101004618Y-66540410D01*
X100957678Y-66492970D01*
X100885537Y-66432221D01*
X100799101Y-66366954D01*
X100731953Y-66320655D01*
X100651703Y-66266459D01*
X100586432Y-66219942D01*
X100543201Y-66186305D01*
X100528967Y-66171187D01*
X100545751Y-66154140D01*
X100591145Y-66120229D01*
X100657708Y-66074784D01*
X100718579Y-66035365D01*
X100809286Y-65973601D01*
X100896309Y-65906994D01*
X100966700Y-65845769D01*
X100993470Y-65818280D01*
X101104740Y-65661816D01*
X101178588Y-65491484D01*
X101214961Y-65312940D01*
X101213810Y-65131836D01*
X101175083Y-64953825D01*
X101098729Y-64784562D01*
X101004039Y-64651594D01*
X100888169Y-64539502D01*
X100747073Y-64447368D01*
X100600983Y-64380439D01*
X100529472Y-64351925D01*
X100475177Y-64329609D01*
X100448465Y-64317766D01*
X100447499Y-64317173D01*
X100451276Y-64296299D01*
X100467635Y-64245338D01*
X100493504Y-64173536D01*
X100507208Y-64137461D01*
X100567418Y-63932688D01*
X100586931Y-63737306D01*
X100565965Y-63552467D01*
X100504739Y-63379319D01*
X100403472Y-63219014D01*
X100313721Y-63119747D01*
X100194271Y-63022599D01*
X100055726Y-62948117D01*
X99889219Y-62891965D01*
X99809000Y-62872843D01*
X99728414Y-62853386D01*
X99666541Y-62834409D01*
X99632851Y-62818996D01*
X99629383Y-62814375D01*
X99635362Y-62786105D01*
X99651252Y-62728505D01*
X99673981Y-62652541D01*
X99681353Y-62628834D01*
X99709896Y-62543499D01*
X99735633Y-62486959D01*
X99766389Y-62447031D01*
X99809982Y-62411530D01*
X99829520Y-62398032D01*
X99888011Y-62356503D01*
X99967086Y-62297748D01*
X100054340Y-62231069D01*
X100105633Y-62190989D01*
X100187227Y-62127746D01*
X100263670Y-62070492D01*
X100324574Y-62026906D01*
X100351761Y-62009025D01*
X100408914Y-61968449D01*
X100490804Y-61901748D01*
X100592663Y-61813156D01*
X100709726Y-61706910D01*
X100837227Y-61587244D01*
X100960549Y-61468059D01*
X101169991Y-61262802D01*
X101309854Y-61347235D01*
X101453111Y-61423446D01*
X101586303Y-61469578D01*
X101724552Y-61489577D01*
X101853938Y-61489157D01*
X102041833Y-61459013D01*
X102214535Y-61390738D01*
X102368177Y-61286993D01*
X102498897Y-61150437D01*
X102602827Y-60983730D01*
X102609968Y-60968960D01*
X102640768Y-60900659D01*
X102660446Y-60843856D01*
X102671465Y-60785227D01*
X102676289Y-60711452D01*
X102677382Y-60609208D01*
X102677383Y-60604400D01*
X102676388Y-60500776D01*
X102671792Y-60426331D01*
X102661181Y-60367929D01*
X102642138Y-60312431D01*
X102612247Y-60246701D01*
X102611222Y-60244567D01*
X102506338Y-60070459D01*
X102376345Y-59929642D01*
X102223740Y-59823580D01*
X102051024Y-59753738D01*
X101860694Y-59721579D01*
X101719564Y-59722184D01*
X101540110Y-59734848D01*
X101399663Y-59590368D01*
X101291221Y-59488002D01*
X101189290Y-59414576D01*
X101080202Y-59361816D01*
X100959082Y-59323716D01*
X100792848Y-59295446D01*
X100635491Y-59302349D01*
X100510444Y-59331944D01*
X100326021Y-59408777D01*
X100169952Y-59516277D01*
X100040719Y-59655852D01*
X99936804Y-59828908D01*
X99909713Y-59889054D01*
X99869028Y-59977856D01*
X99834844Y-60036569D01*
X99809996Y-60060470D01*
X99806725Y-60060710D01*
X99774934Y-60052210D01*
X99713828Y-60032672D01*
X99633881Y-60005512D01*
X99587558Y-59989233D01*
X99491826Y-59956746D01*
X99419057Y-59937676D01*
X99352996Y-59929492D01*
X99277391Y-59929667D01*
X99223289Y-59932569D01*
X99032833Y-59964320D01*
X98860269Y-60033116D01*
X98708506Y-60136405D01*
X98580454Y-60271638D01*
X98479023Y-60436265D01*
X98407122Y-60627736D01*
X98400254Y-60653837D01*
X98365402Y-60792583D01*
X98118976Y-60780836D01*
X98009777Y-60776385D01*
X97928930Y-60776349D01*
X97862542Y-60782399D01*
X97796719Y-60796206D01*
X97717570Y-60819439D01*
X97669277Y-60834911D01*
X97582502Y-60862596D01*
X97511295Y-60884539D01*
X97464899Y-60897935D01*
X97452319Y-60900733D01*
X97446546Y-60881070D01*
X97441977Y-60828085D01*
X97439199Y-60750787D01*
X97438633Y-60691296D01*
X97427227Y-60497405D01*
X97391399Y-60330920D01*
X97328740Y-60183082D01*
X97274718Y-60096029D01*
X97149145Y-59951909D01*
X96998217Y-59840695D01*
X96825417Y-59764298D01*
X96634224Y-59724629D01*
X96591967Y-59721138D01*
X96509918Y-59718306D01*
X96439372Y-59722816D01*
X96365444Y-59736993D01*
X96273251Y-59763162D01*
X96224922Y-59778476D01*
X96137838Y-59805549D01*
X96066929Y-59825713D01*
X96020991Y-59836578D01*
X96008293Y-59837282D01*
X96000458Y-59814065D01*
X95987010Y-59759743D01*
X95970482Y-59684757D01*
X95965558Y-59661049D01*
X95915845Y-59478747D01*
X95845397Y-59325740D01*
X95749133Y-59191992D01*
X95703161Y-59142544D01*
X95553870Y-59019743D01*
X95389510Y-58934254D01*
X95215331Y-58886255D01*
X95036581Y-58875918D01*
X94858511Y-58903420D01*
X94686370Y-58968935D01*
X94525406Y-59072638D01*
X94490253Y-59102142D01*
X94436568Y-59157547D01*
X94371576Y-59236643D01*
X94305446Y-59326640D01*
X94271671Y-59377087D01*
X94220395Y-59454821D01*
X94176772Y-59517199D01*
X94146122Y-59556842D01*
X94134628Y-59567233D01*
X94117786Y-59550648D01*
X94083009Y-59505539D01*
X94035437Y-59438871D01*
X93982371Y-59360858D01*
X93891891Y-59233124D01*
X93808675Y-59135760D01*
X93723682Y-59060073D01*
X93627868Y-58997366D01*
X93574986Y-58969126D01*
X93397253Y-58900504D01*
X93218433Y-58873885D01*
X93038110Y-58889320D01*
X92855873Y-58946864D01*
X92671309Y-59046569D01*
X92602020Y-59094396D01*
X92531478Y-59144209D01*
X92474369Y-59181337D01*
X92438639Y-59200782D01*
X92430915Y-59202070D01*
X92417853Y-59179758D01*
X92391241Y-59128370D01*
X92355752Y-59057041D01*
X92336752Y-59018020D01*
X92230600Y-58840187D01*
X92101742Y-58694294D01*
X91954136Y-58581843D01*
X91791742Y-58504336D01*
X91618520Y-58463275D01*
X91438427Y-58460160D01*
X91255424Y-58496495D01*
X91112363Y-58553602D01*
X91000806Y-58621367D01*
X90884490Y-58718699D01*
X90821586Y-58780886D01*
X90665971Y-58941631D01*
X90510970Y-58781519D01*
X90347830Y-58637633D01*
X90177662Y-58534754D01*
X90002119Y-58473092D01*
X89822856Y-58452860D01*
X89641527Y-58474268D01*
X89459787Y-58537528D01*
X89302313Y-58626984D01*
X89243150Y-58665218D01*
X89197973Y-58691461D01*
X89179040Y-58699400D01*
X89158483Y-58685253D01*
X89115438Y-58647062D01*
X89056861Y-58591195D01*
X89009424Y-58544059D01*
X88878472Y-58425870D01*
X88750217Y-58341825D01*
X88613733Y-58285989D01*
X88478161Y-58255477D01*
X88317867Y-58247861D01*
X88149880Y-58271188D01*
X87991968Y-58322581D01*
X87954577Y-58340275D01*
X87856504Y-58403860D01*
X87751437Y-58494655D01*
X87650689Y-58601701D01*
X87565572Y-58714037D01*
X87559974Y-58722617D01*
X87518202Y-58784386D01*
X87484246Y-58829015D01*
X87465127Y-58847321D01*
X87464642Y-58847381D01*
X87443034Y-58834236D01*
X87398537Y-58799045D01*
X87339395Y-58748445D01*
X87316475Y-58728067D01*
X87175031Y-58619869D01*
X87021708Y-58535612D01*
X86865127Y-58478543D01*
X86713908Y-58451906D01*
X86593782Y-58455956D01*
X86439956Y-58489168D01*
X86303095Y-58541509D01*
X86170250Y-58619098D01*
X86042134Y-58716640D01*
X85938052Y-58802980D01*
X85809301Y-58694979D01*
X85639028Y-58576315D01*
X85462318Y-58498163D01*
X85282771Y-58459907D01*
X85103991Y-58460933D01*
X84929579Y-58500628D01*
X84763139Y-58578375D01*
X84608272Y-58693562D01*
X84468581Y-58845574D01*
X84406141Y-58934284D01*
X84365033Y-58995942D01*
X84332665Y-59040525D01*
X84315690Y-59058905D01*
X84315300Y-59058975D01*
X84295710Y-59046079D01*
X84252011Y-59011412D01*
X84191877Y-58961166D01*
X84157447Y-58931619D01*
X83982127Y-58802487D01*
X83803815Y-58715208D01*
X83623908Y-58669803D01*
X83443804Y-58666293D01*
X83264900Y-58704699D01*
X83088596Y-58785044D01*
X82916287Y-58907348D01*
X82910304Y-58912425D01*
X82787708Y-59017040D01*
X82678379Y-58920838D01*
X82510873Y-58798232D01*
X82335682Y-58715741D01*
X82156719Y-58672768D01*
X81977900Y-58668715D01*
X81803142Y-58702987D01*
X81636360Y-58774986D01*
X81481469Y-58884114D01*
X81342385Y-59029774D01*
X81267139Y-59136057D01*
X81225414Y-59200558D01*
X81192680Y-59248250D01*
X81175025Y-59270326D01*
X81173919Y-59270900D01*
X81152416Y-59262451D01*
X81102270Y-59239971D01*
X81032995Y-59207757D01*
X81008601Y-59196218D01*
X80831714Y-59125581D01*
X80668830Y-59089859D01*
X80512185Y-59087661D01*
X80448967Y-59095954D01*
X80268853Y-59144202D01*
X80109062Y-59225154D01*
X79965551Y-59341588D01*
X79834279Y-59496286D01*
X79804064Y-59539538D01*
X79697710Y-59697147D01*
X79638170Y-59648065D01*
X79523878Y-59554784D01*
X79435092Y-59484939D01*
X79365449Y-59434099D01*
X79308588Y-59397833D01*
X79258149Y-59371708D01*
X79217119Y-59354746D01*
X79032862Y-59306294D01*
X78847520Y-59299505D01*
X78659654Y-59334487D01*
X78468537Y-59410991D01*
X78397934Y-59445437D01*
X78342073Y-59470738D01*
X78311566Y-59482124D01*
X78309787Y-59482337D01*
X78291878Y-59465225D01*
X78260281Y-59420445D01*
X78221636Y-59357459D01*
X78219300Y-59353416D01*
X78104153Y-59192097D01*
X77963778Y-59060430D01*
X77803245Y-58961312D01*
X77627623Y-58897637D01*
X77441979Y-58872304D01*
X77378407Y-58872896D01*
X77246597Y-58878979D01*
X77188827Y-58762731D01*
X77145839Y-58691876D01*
X77083512Y-58607964D01*
X77013656Y-58526607D01*
X76996794Y-58508900D01*
X76932918Y-58442184D01*
X76892317Y-58393036D01*
X76868382Y-58349039D01*
X76854506Y-58297774D01*
X76844080Y-58226825D01*
X76843256Y-58220386D01*
X76816218Y-58070565D01*
X76773352Y-57940879D01*
X76709804Y-57823734D01*
X76620716Y-57711532D01*
X76501232Y-57596677D01*
X76382121Y-57499043D01*
X76353621Y-57474084D01*
X76344192Y-57449506D01*
X76352235Y-57410533D01*
X76367719Y-57365900D01*
X76416218Y-57172289D01*
X76424036Y-56979830D01*
X76392111Y-56793207D01*
X76321377Y-56617104D01*
X76212771Y-56456204D01*
X76178093Y-56417061D01*
X76128938Y-56361482D01*
X76094144Y-56316360D01*
X76081467Y-56292130D01*
X76089513Y-56262420D01*
X76110390Y-56207368D01*
X76133535Y-56152766D01*
X76197091Y-55962157D01*
X76219239Y-55774635D01*
X76200899Y-55592975D01*
X76142995Y-55419955D01*
X76046448Y-55258352D01*
X75912182Y-55110941D01*
X75744855Y-54982899D01*
X75682039Y-54940891D01*
X75636157Y-54907283D01*
X75616209Y-54888713D01*
X75615985Y-54887876D01*
X75628851Y-54867559D01*
X75663458Y-54823325D01*
X75713557Y-54763016D01*
X75741117Y-54730841D01*
X75852117Y-54587763D01*
X75929982Y-54450622D01*
X75980369Y-54308413D01*
X75996674Y-54233927D01*
X76008527Y-54051749D01*
X75978988Y-53869354D01*
X75908846Y-53690105D01*
X75842674Y-53578089D01*
X75767742Y-53466821D01*
X75849264Y-53340690D01*
X75944064Y-53161265D01*
X75996713Y-52980540D01*
X76007389Y-52796716D01*
X75976271Y-52607994D01*
X75934446Y-52483662D01*
X75865375Y-52311008D01*
X75979183Y-52176745D01*
X76098292Y-52007780D01*
X76177416Y-51831076D01*
X76216314Y-51649906D01*
X76214740Y-51467544D01*
X76172452Y-51287263D01*
X76089205Y-51112336D01*
X76061606Y-51069293D01*
X76025049Y-51014620D01*
X75998110Y-50973189D01*
X75991324Y-50962148D01*
X75995240Y-50933759D01*
X76018863Y-50884323D01*
X76042937Y-50845731D01*
X76128498Y-50702375D01*
X76184466Y-50562477D01*
X76212261Y-50417088D01*
X76213305Y-50257258D01*
X76189018Y-50074037D01*
X76175926Y-50008051D01*
X76170784Y-49975121D01*
X76176655Y-49950668D01*
X76200457Y-49927809D01*
X76249107Y-49899660D01*
X76321265Y-49863417D01*
X76472448Y-49770253D01*
X76607138Y-49651478D01*
X76715869Y-49516518D01*
X76773420Y-49413178D01*
X76818856Y-49271644D01*
X76840534Y-49110130D01*
X76837443Y-48944356D01*
X76812539Y-48804099D01*
X76776144Y-48669646D01*
X76861233Y-48556898D01*
X76948828Y-48426344D01*
X77005923Y-48301948D01*
X77038326Y-48168095D01*
X77050090Y-48048983D01*
X77049345Y-47895277D01*
X77026095Y-47760057D01*
X76976399Y-47629060D01*
X76896313Y-47488023D01*
X76894031Y-47484468D01*
X76803502Y-47343766D01*
X76949922Y-47210132D01*
X77041940Y-47118864D01*
X77110643Y-47030768D01*
X77169568Y-46928178D01*
X77176279Y-46914755D01*
X77212190Y-46839992D01*
X77235335Y-46781644D01*
X77248513Y-46726231D01*
X77254522Y-46660274D01*
X77256158Y-46570293D01*
X77256217Y-46529664D01*
X77255205Y-46425525D01*
X77250589Y-46350581D01*
X77239992Y-46291713D01*
X77221041Y-46235801D01*
X77191360Y-46169726D01*
X77190889Y-46168733D01*
X77140759Y-46079558D01*
X77074965Y-45983744D01*
X77015227Y-45910631D01*
X76904893Y-45790112D01*
X76945361Y-45709547D01*
X77008188Y-45564262D01*
X77042684Y-45427959D01*
X77052811Y-45282247D01*
X77051025Y-45219188D01*
X77042721Y-45112883D01*
X77027177Y-45030027D01*
X76999967Y-44951830D01*
X76975157Y-44897158D01*
X76876113Y-44738561D01*
X76742335Y-44599336D01*
X76578950Y-44484598D01*
X76540994Y-44463904D01*
X76469634Y-44426628D01*
X76414526Y-44397515D01*
X76384963Y-44381486D01*
X76382475Y-44379972D01*
X76383198Y-44358566D01*
X76390177Y-44305299D01*
X76402058Y-44229955D01*
X76408090Y-44194626D01*
X76426044Y-43997650D01*
X76406831Y-43816597D01*
X76348988Y-43646142D01*
X76251047Y-43480957D01*
X76190349Y-43403149D01*
X76081075Y-43272816D01*
X76179072Y-43159733D01*
X76299847Y-42991264D01*
X76380306Y-42813578D01*
X76420447Y-42630368D01*
X76420272Y-42445328D01*
X76379781Y-42262150D01*
X76298972Y-42084529D01*
X76179072Y-41917567D01*
X76081075Y-41804484D01*
X76190399Y-41674150D01*
X76297609Y-41527453D01*
X76370175Y-41380716D01*
X76413958Y-41221589D01*
X76418941Y-41192539D01*
X76427641Y-41007571D01*
X76395607Y-40828167D01*
X76324383Y-40657695D01*
X76215511Y-40499522D01*
X76070536Y-40357015D01*
X76017032Y-40315464D01*
X75916660Y-40241784D01*
X75954579Y-40119950D01*
X75999905Y-39914661D01*
X76004475Y-39720748D01*
X75968245Y-39537979D01*
X75891169Y-39366120D01*
X75778456Y-39210895D01*
X75650348Y-39094339D01*
X75497674Y-39004296D01*
X75329983Y-38944230D01*
X75156823Y-38917604D01*
X74994842Y-38926628D01*
X74803642Y-38978336D01*
X74635517Y-39064820D01*
X74492547Y-39182314D01*
X74368810Y-39334002D01*
X74283476Y-39501584D01*
X74237604Y-39681601D01*
X74232251Y-39870596D01*
X74247954Y-39982096D01*
X74262494Y-40059693D01*
X74269639Y-40121799D01*
X74269162Y-40182197D01*
X74260836Y-40254668D01*
X74244434Y-40352994D01*
X74241577Y-40369067D01*
X74222913Y-40478554D01*
X74205568Y-40588815D01*
X74192104Y-40683176D01*
X74187339Y-40721749D01*
X74172741Y-40852182D01*
X74051587Y-40926963D01*
X73890322Y-41050590D01*
X73756788Y-41203293D01*
X73669418Y-41351323D01*
X73633685Y-41424314D01*
X73608266Y-41466202D01*
X73585590Y-41484253D01*
X73558085Y-41485732D01*
X73534035Y-41481251D01*
X73394529Y-41454498D01*
X73283758Y-41440298D01*
X73190309Y-41437770D01*
X73102769Y-41446035D01*
X73094152Y-41447381D01*
X73022365Y-41457912D01*
X72979279Y-41458530D01*
X72951871Y-41446487D01*
X72927120Y-41419033D01*
X72920850Y-41410802D01*
X72789996Y-41268775D01*
X72634550Y-41151477D01*
X72554453Y-41106960D01*
X72487986Y-41075448D01*
X72433807Y-41054936D01*
X72379431Y-41043073D01*
X72312369Y-41037507D01*
X72220134Y-41035887D01*
X72176662Y-41035817D01*
X72069874Y-41036765D01*
X71992078Y-41041167D01*
X71929946Y-41051354D01*
X71870153Y-41069660D01*
X71799369Y-41098417D01*
X71785994Y-41104205D01*
X71712722Y-41135261D01*
X71656412Y-41157649D01*
X71626495Y-41167671D01*
X71624068Y-41167705D01*
X71614473Y-41147152D01*
X71593585Y-41097818D01*
X71565854Y-41030218D01*
X71564787Y-41027584D01*
X71482327Y-40851921D01*
X71389143Y-40711365D01*
X71279048Y-40598934D01*
X71145855Y-40507646D01*
X71068768Y-40467799D01*
X71000814Y-40437182D01*
X70944132Y-40417624D01*
X70885422Y-40406678D01*
X70811384Y-40401892D01*
X70708721Y-40400817D01*
X70705133Y-40400817D01*
X70599728Y-40401993D01*
X70523686Y-40406981D01*
X70464069Y-40417968D01*
X70407938Y-40437139D01*
X70357362Y-40459599D01*
X70218539Y-40537100D01*
X70099412Y-40633278D01*
X69989203Y-40757567D01*
X69939554Y-40825316D01*
X69889028Y-40894837D01*
X69846110Y-40948688D01*
X69817246Y-40979010D01*
X69810285Y-40982900D01*
X69786676Y-40969570D01*
X69740780Y-40934110D01*
X69681222Y-40883318D01*
X69661308Y-40865498D01*
X69516636Y-40750037D01*
X69374861Y-40670976D01*
X69226678Y-40624175D01*
X69077984Y-40606114D01*
X68885480Y-40614056D01*
X68711742Y-40658109D01*
X68552853Y-40739986D01*
X68404894Y-40861398D01*
X68342345Y-40927673D01*
X68242216Y-41041242D01*
X68063814Y-41030112D01*
X67892694Y-41029872D01*
X67709495Y-41051503D01*
X67676036Y-41057399D01*
X67586746Y-41072368D01*
X67513714Y-41081957D01*
X67466416Y-41085074D01*
X67453869Y-41083024D01*
X67455031Y-41059042D01*
X67467850Y-41003576D01*
X67490116Y-40925144D01*
X67516602Y-40841358D01*
X67549088Y-40736957D01*
X67577279Y-40635446D01*
X67597576Y-40550402D01*
X67605323Y-40506650D01*
X67605936Y-40394590D01*
X67585871Y-40264067D01*
X67548721Y-40131304D01*
X67498077Y-40012525D01*
X67494444Y-40005750D01*
X67419454Y-39897606D01*
X67317001Y-39790307D01*
X67200347Y-39696259D01*
X67098343Y-39635220D01*
X66979800Y-39577081D01*
X66979800Y-39437771D01*
X66962373Y-39235479D01*
X66909200Y-39054522D01*
X66818945Y-38891574D01*
X66707283Y-38759937D01*
X66559918Y-38640318D01*
X66398659Y-38557563D01*
X66228758Y-38510779D01*
X66055465Y-38499072D01*
X65884029Y-38521550D01*
X65719701Y-38577318D01*
X65567732Y-38665483D01*
X65433370Y-38785152D01*
X65321867Y-38935431D01*
X65285867Y-39001826D01*
X65248023Y-39085330D01*
X65224913Y-39158351D01*
X65212082Y-39239221D01*
X65205758Y-39331295D01*
X65207555Y-39494332D01*
X65232719Y-39635529D01*
X65285208Y-39770668D01*
X65341269Y-39871650D01*
X65387386Y-39947119D01*
X65430600Y-40017967D01*
X65458658Y-40064090D01*
X65498360Y-40129530D01*
X65324147Y-40177273D01*
X65226930Y-40206962D01*
X65130545Y-40241419D01*
X65053793Y-40273852D01*
X65045346Y-40278016D01*
X64923871Y-40357799D01*
X64807199Y-40467436D01*
X64706633Y-40594951D01*
X64645299Y-40701937D01*
X64614287Y-40770640D01*
X64594470Y-40827587D01*
X64583366Y-40886126D01*
X64578498Y-40959606D01*
X64577385Y-41061375D01*
X64577383Y-41067567D01*
X64578341Y-41170862D01*
X64582910Y-41245287D01*
X64593630Y-41304291D01*
X64613043Y-41361323D01*
X64643690Y-41429832D01*
X64647258Y-41437383D01*
X64695915Y-41527229D01*
X64756180Y-41610650D01*
X64837546Y-41700013D01*
X64884150Y-41746016D01*
X65051167Y-41907082D01*
X64865276Y-42095866D01*
X64777554Y-42187870D01*
X64715222Y-42261418D01*
X64671530Y-42325601D01*
X64639728Y-42389514D01*
X64630863Y-42411650D01*
X64582579Y-42592403D01*
X64570678Y-42779413D01*
X64109190Y-42779413D01*
X64112263Y-42629654D01*
X64145843Y-42431194D01*
X64205675Y-42240797D01*
X64288425Y-42070240D01*
X64345905Y-41984659D01*
X64397955Y-41916417D01*
X64312818Y-41784693D01*
X64217483Y-41602150D01*
X64150364Y-41398527D01*
X64113585Y-41185131D01*
X64109270Y-40973269D01*
X64130391Y-40813567D01*
X64194700Y-40603183D01*
X64294551Y-40401861D01*
X64424414Y-40217792D01*
X64578760Y-40059169D01*
X64703674Y-39964177D01*
X64837588Y-39876133D01*
X64793462Y-39757475D01*
X64773401Y-39694906D01*
X64760161Y-39628422D01*
X64752452Y-39547039D01*
X64748984Y-39439770D01*
X64748441Y-39374233D01*
X64749040Y-39256763D01*
X64752834Y-39169434D01*
X64761426Y-39100082D01*
X64776423Y-39036544D01*
X64799428Y-38966657D01*
X64803841Y-38954401D01*
X64889250Y-38758836D01*
X64996559Y-38589649D01*
X65129671Y-38437803D01*
X65308675Y-38283835D01*
X65499789Y-38169450D01*
X65707226Y-38092772D01*
X65935202Y-38051925D01*
X66008819Y-38046345D01*
X66243937Y-38053258D01*
G37*
X66243937Y-38053258D02*
X66469093Y-38098177D01*
X66679965Y-38178648D01*
X66872227Y-38292219D01*
X67041556Y-38436435D01*
X67183629Y-38608845D01*
X67274226Y-38764336D01*
X67332035Y-38894720D01*
X67378607Y-39024056D01*
X67410474Y-39141219D01*
X67424172Y-39235087D01*
X67424444Y-39246389D01*
X67442375Y-39299911D01*
X67495295Y-39348288D01*
X67586874Y-39421732D01*
X67686117Y-39519320D01*
X67780791Y-39627826D01*
X67858667Y-39734026D01*
X67872625Y-39756254D01*
X67967031Y-39941430D01*
X68025742Y-40130479D01*
X68053223Y-40337818D01*
X68053335Y-40339692D01*
X68064763Y-40532568D01*
X68204906Y-40426251D01*
X68411784Y-40293014D01*
X68625911Y-40200840D01*
X68845314Y-40149950D01*
X69068022Y-40140560D01*
X69292063Y-40172891D01*
X69515463Y-40247161D01*
X69574928Y-40274199D01*
X69733156Y-40350304D01*
X69840704Y-40253609D01*
X69955534Y-40167052D01*
X70097749Y-40085200D01*
X70252481Y-40015355D01*
X70404864Y-39964817D01*
X70451133Y-39953824D01*
X70665564Y-39929580D01*
X70883136Y-39943840D01*
X71097434Y-39993927D01*
X71302041Y-40077165D01*
X71490543Y-40190877D01*
X71656523Y-40332389D01*
X71793565Y-40499023D01*
X71806987Y-40519376D01*
X71869672Y-40616769D01*
X71980611Y-40586645D01*
X72080717Y-40570397D01*
X72205564Y-40566014D01*
X72339457Y-40572830D01*
X72466701Y-40590176D01*
X72552429Y-40610958D01*
X72688096Y-40662750D01*
X72826272Y-40731872D01*
X72954198Y-40810880D01*
X73059114Y-40892329D01*
X73095364Y-40927735D01*
X73135770Y-40962340D01*
X73183512Y-40978750D01*
X73255829Y-40982900D01*
X73322838Y-40980197D01*
X73361698Y-40968360D01*
X73386443Y-40941798D01*
X73394556Y-40927635D01*
X73422314Y-40889888D01*
X73473209Y-40832808D01*
X73538940Y-40765406D01*
X73584697Y-40721260D01*
X73745261Y-40570150D01*
X73780816Y-40347900D01*
X73797990Y-40225233D01*
X73804499Y-40134458D01*
X73800782Y-40066617D01*
X73795841Y-40040983D01*
X73781175Y-39942698D01*
X73775934Y-39819148D01*
X73779806Y-39686269D01*
X73792478Y-39559995D01*
X73806788Y-39482480D01*
X73876274Y-39276849D01*
X73982253Y-39083209D01*
X74119419Y-38906871D01*
X74282462Y-38753141D01*
X74466075Y-38627328D01*
X74664949Y-38534740D01*
X74792714Y-38496555D01*
X74927349Y-38475127D01*
X75084136Y-38466220D01*
X75244788Y-38469834D01*
X75391018Y-38485970D01*
X75444053Y-38496555D01*
X75641643Y-38563097D01*
X75833034Y-38665140D01*
X76008683Y-38795988D01*
X76159045Y-38948939D01*
X76235456Y-39052041D01*
X76342288Y-39238062D01*
X76413254Y-39418457D01*
X76451379Y-39604320D01*
X76459689Y-39806746D01*
X76457234Y-39865325D01*
X76446211Y-40058649D01*
X76561422Y-40197983D01*
X76702774Y-40398975D01*
X76804489Y-40611349D01*
X76865762Y-40832977D01*
X76885800Y-41056983D01*
X76874868Y-41234037D01*
X76839529Y-41399474D01*
X76775970Y-41568551D01*
X76738103Y-41647987D01*
X76694097Y-41742783D01*
X76672302Y-41807402D01*
X76673380Y-41839243D01*
X76692311Y-41869345D01*
X76722911Y-41925311D01*
X76757568Y-41993058D01*
X76838013Y-42201622D01*
X76879005Y-42419488D01*
X76880543Y-42640612D01*
X76842627Y-42858950D01*
X76765257Y-43068457D01*
X76757568Y-43084242D01*
X76722054Y-43153611D01*
X76691664Y-43209078D01*
X76673380Y-43238057D01*
X76672429Y-43270489D01*
X76694497Y-43335487D01*
X76738103Y-43429313D01*
X76820180Y-43618839D01*
X76868485Y-43796944D01*
X76885686Y-43973756D01*
X76885800Y-43989891D01*
X76885800Y-44130488D01*
X77012404Y-44229954D01*
X77176189Y-44383784D01*
X77310329Y-44561829D01*
X77412802Y-44758304D01*
X77481585Y-44967422D01*
X77514655Y-45183396D01*
X77509991Y-45400441D01*
X77479193Y-45565483D01*
X77440027Y-45713650D01*
X77500236Y-45808900D01*
X77615425Y-46024077D01*
X77690979Y-46241343D01*
X77726070Y-46457737D01*
X77725464Y-46616075D01*
X77700774Y-46781050D01*
X77654248Y-46950747D01*
X77590491Y-47113392D01*
X77514105Y-47257213D01*
X77431019Y-47369001D01*
X77388188Y-47415685D01*
X77449202Y-47601834D01*
X77478988Y-47699731D01*
X77497224Y-47782823D01*
X77506461Y-47868462D01*
X77509249Y-47974005D01*
X77509217Y-48010233D01*
X77494471Y-48223783D01*
X77450277Y-48415033D01*
X77373626Y-48594745D01*
X77319929Y-48687230D01*
X77288468Y-48745918D01*
X77280512Y-48795750D01*
X77289034Y-48848697D01*
X77307032Y-48993489D01*
X77302045Y-49159019D01*
X77276029Y-49331819D01*
X77230940Y-49498421D01*
X77175102Y-49633057D01*
X77091933Y-49772872D01*
X76989309Y-49908004D01*
X76878259Y-50025003D01*
X76801047Y-50089180D01*
X76676530Y-50179817D01*
X76675331Y-50328828D01*
X76654565Y-50536605D01*
X76597865Y-50744273D01*
X76560462Y-50835983D01*
X76512286Y-50941817D01*
X76560650Y-51048072D01*
X76628635Y-51230290D01*
X76664108Y-51412949D01*
X76670006Y-51611755D01*
X76669298Y-51628619D01*
X76646559Y-51831091D01*
X76595616Y-52013083D01*
X76511964Y-52189192D01*
X76479502Y-52243567D01*
X76393783Y-52381150D01*
X76428396Y-52529317D01*
X76461777Y-52762246D01*
X76452870Y-52994401D01*
X76401656Y-53225971D01*
X76355097Y-53354007D01*
X76307774Y-53468182D01*
X76353149Y-53573659D01*
X76426776Y-53792111D01*
X76460041Y-54014144D01*
X76462467Y-54095650D01*
X76450101Y-54280656D01*
X76410322Y-54452550D01*
X76339106Y-54627814D01*
X76326107Y-54654136D01*
X76252704Y-54799895D01*
X76295889Y-54838977D01*
X76357276Y-54905868D01*
X76426327Y-54999213D01*
X76494356Y-55106418D01*
X76546640Y-55202546D01*
X76624257Y-55405216D01*
X76666095Y-55624448D01*
X76671385Y-55852998D01*
X76640096Y-56080265D01*
X76606059Y-56235167D01*
X76673304Y-56334804D01*
X76778672Y-56527797D01*
X76848459Y-56738299D01*
X76880394Y-56957694D01*
X76878812Y-57114550D01*
X76865765Y-57283735D01*
X76979438Y-57421545D01*
X77117169Y-57619184D01*
X77216337Y-57830441D01*
X77258725Y-57971209D01*
X77277156Y-58047792D01*
X77292665Y-58101149D01*
X77311502Y-58143548D01*
X77339918Y-58187258D01*
X77384161Y-58244550D01*
X77422235Y-58292213D01*
X77475924Y-58357467D01*
X77517050Y-58397562D01*
X77558876Y-58420876D01*
X77614670Y-58435790D01*
X77663764Y-58444784D01*
X77887597Y-58504867D01*
X78098065Y-58603314D01*
X78288590Y-58736703D01*
X78372181Y-58813290D01*
X78470222Y-58911330D01*
X78593469Y-58878348D01*
X78768985Y-58848439D01*
X78959095Y-58845187D01*
X79145974Y-58868025D01*
X79266906Y-58899762D01*
X79358206Y-58933171D01*
X79445437Y-58969743D01*
X79511587Y-59002277D01*
X79518304Y-59006163D01*
X79602749Y-59056520D01*
X79716317Y-58952725D01*
X79832400Y-58863256D01*
X79974351Y-58779249D01*
X80125828Y-58709420D01*
X80251300Y-58667342D01*
X80358650Y-58648284D01*
X80491204Y-58638617D01*
X80632890Y-58638337D01*
X80767635Y-58647435D01*
X80879366Y-58665905D01*
X80886163Y-58667614D01*
X81008553Y-58699329D01*
X81137844Y-58574766D01*
X81271141Y-58465693D01*
X81428319Y-58368005D01*
X81593674Y-58290365D01*
X81735380Y-58245055D01*
X81878979Y-58222180D01*
X82040146Y-58214197D01*
X82200398Y-58221086D01*
X82341252Y-58242829D01*
X82353033Y-58245686D01*
X82440392Y-58273431D01*
X82541758Y-58313957D01*
X82632550Y-58357166D01*
X82780717Y-58435527D01*
X82939467Y-58356463D01*
X83119860Y-58278793D01*
X83291480Y-58232363D01*
X83469415Y-58213443D01*
X83521550Y-58212567D01*
X83711721Y-58225717D01*
X83888382Y-58267840D01*
X84068059Y-58342942D01*
X84076307Y-58347074D01*
X84218126Y-58418570D01*
X84346088Y-58311868D01*
X84459943Y-58229831D01*
X84596047Y-58151614D01*
X84739127Y-58084805D01*
X84873906Y-58036995D01*
X84924883Y-58024296D01*
X85057095Y-58006600D01*
X85207365Y-58002043D01*
X85356493Y-58010343D01*
X85485278Y-58031217D01*
X85490894Y-58032600D01*
X85573231Y-58058453D01*
X85672383Y-58096971D01*
X85768166Y-58140253D01*
X85776575Y-58144435D01*
X85936100Y-58224570D01*
X86094075Y-58145197D01*
X86276771Y-58066243D01*
X86451252Y-58019510D01*
X86631876Y-58001402D01*
X86670457Y-58000900D01*
X86802718Y-58005857D01*
X86919124Y-58023164D01*
X87035155Y-58056475D01*
X87166290Y-58109446D01*
X87205455Y-58127206D01*
X87375694Y-58205710D01*
X87480622Y-58112740D01*
X87579829Y-58038323D01*
X87705891Y-57963411D01*
X87844094Y-57895532D01*
X87979727Y-57842215D01*
X88050372Y-57821194D01*
X88256070Y-57789745D01*
X88471267Y-57794399D01*
X88686846Y-57833236D01*
X88893690Y-57904337D01*
X89082682Y-58005783D01*
X89148441Y-58052287D01*
X89247115Y-58127607D01*
X89411166Y-58069547D01*
X89486800Y-58044389D01*
X89552642Y-58027748D01*
X89621159Y-58017960D01*
X89704820Y-58013362D01*
X89816093Y-58012289D01*
X89839800Y-58012341D01*
X89962492Y-58014086D01*
X90054780Y-58019380D01*
X90128541Y-58029682D01*
X90195653Y-58046449D01*
X90241967Y-58061728D01*
X90391993Y-58125001D01*
X90545032Y-58207344D01*
X90628258Y-58260781D01*
X90668227Y-58275737D01*
X90702342Y-58260781D01*
X90888203Y-58147634D01*
X91071840Y-58070043D01*
X91265565Y-58023806D01*
X91448731Y-58005953D01*
X91680379Y-58011678D01*
X91891109Y-58052196D01*
X92085784Y-58129408D01*
X92269272Y-58245216D01*
X92437192Y-58392256D01*
X92524251Y-58475620D01*
X92586447Y-58527328D01*
X92625476Y-58548688D01*
X92638275Y-58547619D01*
X92670373Y-58533147D01*
X92731251Y-58510517D01*
X92809224Y-58484015D01*
X92830684Y-58477074D01*
X92998861Y-58439128D01*
X93184834Y-58423671D01*
X93370183Y-58431268D01*
X93513061Y-58456166D01*
X93636891Y-58496610D01*
X93770412Y-58555145D01*
X93898457Y-58624087D01*
X94005859Y-58695753D01*
X94038194Y-58722182D01*
X94128769Y-58801908D01*
X94233243Y-58717808D01*
X94364112Y-58626719D01*
X94513834Y-58545475D01*
X94665141Y-58482726D01*
X94755683Y-58456068D01*
X94881595Y-58435696D01*
X95028374Y-58426399D01*
X95179287Y-58428173D01*
X95317603Y-58441010D01*
X95396894Y-58456301D01*
X95605429Y-58530066D01*
X95801297Y-58639681D01*
X95977653Y-58779741D01*
X96127655Y-58944844D01*
X96240946Y-59122733D01*
X96278769Y-59195621D01*
X96308507Y-59252348D01*
X96325378Y-59283817D01*
X96327384Y-59287214D01*
X96348639Y-59286365D01*
X96398604Y-59278073D01*
X96442599Y-59269180D01*
X96554385Y-59258435D01*
X96690332Y-59265944D01*
X96837269Y-59289994D01*
X96982027Y-59328874D01*
X97028992Y-59345387D01*
X97237528Y-59446080D01*
X97424585Y-59581582D01*
X97585901Y-59748029D01*
X97717215Y-59941554D01*
X97745618Y-59995235D01*
X97787943Y-60084463D01*
X97823517Y-60168068D01*
X97847114Y-60233372D01*
X97852827Y-60255404D01*
X97863718Y-60301437D01*
X97882132Y-60320361D01*
X97921736Y-60320286D01*
X97954257Y-60315581D01*
X98008612Y-60306820D01*
X98040376Y-60300842D01*
X98043589Y-60299829D01*
X98053771Y-60281570D01*
X98079303Y-60235151D01*
X98115241Y-60169565D01*
X98126318Y-60149317D01*
X98240929Y-59977738D01*
X98383379Y-59825930D01*
X98547634Y-59696900D01*
X98727662Y-59593658D01*
X98917430Y-59519211D01*
X99110907Y-59476567D01*
X99302060Y-59468734D01*
X99449342Y-59489574D01*
X99518899Y-59505225D01*
X99569004Y-59515426D01*
X99588787Y-59517968D01*
X99666033Y-59402152D01*
X99771429Y-59280580D01*
X99894011Y-59163690D01*
X100022816Y-59061917D01*
X100146880Y-58985702D01*
X100149040Y-58984609D01*
X100302594Y-58916259D01*
X100448351Y-58872852D01*
X100603181Y-58850477D01*
X100751217Y-58845078D01*
X100974642Y-58860306D01*
X101178675Y-58908486D01*
X101371252Y-58992418D01*
X101560312Y-59114903D01*
X101597883Y-59143865D01*
X101664952Y-59194861D01*
X101717574Y-59226157D01*
X101771834Y-59244041D01*
X101843813Y-59254801D01*
X101894217Y-59259726D01*
X102134309Y-59301364D01*
X102355991Y-59378836D01*
X102556353Y-59489190D01*
X102732487Y-59629476D01*
X102881483Y-59796743D01*
X103000433Y-59988041D01*
X103086428Y-60200418D01*
X103136559Y-60430925D01*
X103146048Y-60529621D01*
X103140778Y-60757837D01*
X103098455Y-60974472D01*
X103022627Y-61176733D01*
X102916839Y-61361826D01*
X102784639Y-61526957D01*
X102629573Y-61669333D01*
X102455187Y-61786161D01*
X102265028Y-61874646D01*
X102062643Y-61931996D01*
X101851577Y-61955417D01*
X101635378Y-61942116D01*
X101419168Y-61889831D01*
X101261619Y-61836786D01*
X101021243Y-62051384D01*
X100922868Y-62137645D01*
X100821533Y-62223826D01*
X100727761Y-62301142D01*
X100652075Y-62360809D01*
X100637378Y-62371817D01*
X100560523Y-62428990D01*
X100487812Y-62483906D01*
X100432996Y-62526166D01*
X100425930Y-62531754D01*
X100357970Y-62585859D01*
X100462066Y-62653311D01*
X100620567Y-62778081D01*
X100758680Y-62930535D01*
X100873304Y-63103814D01*
X100961339Y-63291061D01*
X101019685Y-63485415D01*
X101045241Y-63680018D01*
X101034906Y-63868010D01*
X101028026Y-63905337D01*
X101013037Y-63980448D01*
X101003075Y-64036762D01*
X100999928Y-64063988D01*
X101000258Y-64065030D01*
X101064478Y-64107584D01*
X101145488Y-64171177D01*
X101231394Y-64245714D01*
X101310303Y-64321101D01*
X101344833Y-64357519D01*
X101482986Y-64540934D01*
X101584077Y-64743943D01*
X101647190Y-64964101D01*
X101671406Y-65198963D01*
X101671654Y-65228472D01*
X101652172Y-65469839D01*
X101594221Y-65693922D01*
X101497310Y-65902134D01*
X101378392Y-66074624D01*
X101294291Y-66179098D01*
X101378017Y-66274216D01*
X101452783Y-66375666D01*
X101525768Y-66503749D01*
X101589281Y-66643179D01*
X101635633Y-66778670D01*
X101639898Y-66794805D01*
X101660459Y-66914885D01*
X101670077Y-67058910D01*
X101668792Y-67209941D01*
X101656645Y-67351038D01*
X101638360Y-67448399D01*
X101585156Y-67604672D01*
X101508610Y-67763513D01*
X101415977Y-67912782D01*
X101314514Y-68040340D01*
X101243432Y-68109112D01*
X101181129Y-68161536D01*
X101245566Y-68261953D01*
X101355297Y-68469538D01*
X101427404Y-68688369D01*
X101461645Y-68913131D01*
X101457776Y-69138506D01*
X101415552Y-69359180D01*
X101334731Y-69569836D01*
X101307867Y-69621400D01*
X101268459Y-69689502D01*
X101232182Y-69746534D01*
X101211733Y-69774194D01*
X101193653Y-69803161D01*
X101191014Y-69840667D01*
X101203182Y-69901450D01*
X101205805Y-69911778D01*
X101248497Y-70154826D01*
X101250360Y-70391059D01*
X101211703Y-70618348D01*
X101132835Y-70834558D01*
X101050406Y-70983613D01*
X100992675Y-71062985D01*
X100917654Y-71151116D01*
X100835340Y-71237593D01*
X100755733Y-71312007D01*
X100688832Y-71363945D01*
X100679641Y-71369673D01*
X100652813Y-71388208D01*
X100636171Y-71411476D01*
X100627031Y-71449369D01*
X100622711Y-71511775D01*
X100620920Y-71586183D01*
X100596094Y-71812548D01*
X100531131Y-72029703D01*
X100427935Y-72233378D01*
X100288414Y-72419303D01*
X100215245Y-72495119D01*
X100144292Y-72559043D01*
X100071548Y-72617773D01*
X100012382Y-72658927D01*
X100010770Y-72659883D01*
X99941189Y-72720884D01*
X99871407Y-72820533D01*
X99803423Y-72955203D01*
X99739236Y-73121264D01*
X99714645Y-73197052D01*
X99627303Y-73415214D01*
X99506980Y-73608128D01*
X99351913Y-73778146D01*
X99174093Y-73918373D01*
X99069250Y-73998529D01*
X98997287Y-74078131D01*
X98950384Y-74168272D01*
X98921278Y-74277104D01*
X98857295Y-74512496D01*
X98758822Y-74724167D01*
X98624530Y-74914705D01*
X98555648Y-74990572D01*
X98500868Y-75048137D01*
X98471104Y-75086582D01*
X98461449Y-75116729D01*
X98466997Y-75149405D01*
X98474084Y-75170489D01*
X98508287Y-75312309D01*
X98522634Y-75477809D01*
X98517326Y-75653387D01*
X98492562Y-75825442D01*
X98462751Y-75939650D01*
X98431825Y-76018254D01*
X98385579Y-76115917D01*
X98332277Y-76216543D01*
X98280181Y-76304033D01*
X98261346Y-76332006D01*
X98253296Y-76359794D01*
X98266421Y-76399900D01*
X98303953Y-76461787D01*
X98307434Y-76466966D01*
X98413150Y-76660412D01*
X98483823Y-76871511D01*
X98518572Y-77092918D01*
X98516517Y-77317286D01*
X98476777Y-77537270D01*
X98446948Y-77631275D01*
X98394784Y-77774983D01*
X98470288Y-77873317D01*
X98557854Y-78008618D01*
X98634672Y-78167731D01*
X98691978Y-78332180D01*
X98697234Y-78351805D01*
X98717911Y-78470533D01*
X98727774Y-78613360D01*
X98726840Y-78763464D01*
X98715126Y-78904020D01*
X98696574Y-79003929D01*
X98655751Y-79127305D01*
X98597264Y-79260569D01*
X98529443Y-79386649D01*
X98460618Y-79488480D01*
X98459270Y-79490175D01*
X98396050Y-79569367D01*
X98459392Y-79753135D01*
X98491866Y-79854966D01*
X98510977Y-79940206D01*
X98519880Y-80028414D01*
X98521731Y-80139146D01*
X98521728Y-80139610D01*
X98512009Y-80319623D01*
X98481960Y-80478410D01*
X98427318Y-80633909D01*
X98380464Y-80734070D01*
X98336319Y-80831805D01*
X98317439Y-80900551D01*
X98318576Y-80933529D01*
X98322252Y-80989183D01*
X98315773Y-81073127D01*
X98301052Y-81173072D01*
X98280003Y-81276731D01*
X98254539Y-81371815D01*
X98246554Y-81396168D01*
X98228020Y-81452751D01*
X98219973Y-81495663D01*
X98223106Y-81539017D01*
X98238111Y-81596928D01*
X98259763Y-81665184D01*
X98297830Y-81832205D01*
X98313540Y-82017372D01*
X98306418Y-82202648D01*
X98278133Y-82362095D01*
X98209961Y-82554534D01*
X98112577Y-82739198D01*
X97993227Y-82903960D01*
X97891277Y-83009317D01*
X97820291Y-83072817D01*
X97854861Y-83178650D01*
X97879927Y-83293704D01*
X97891660Y-83434611D01*
X97890279Y-83587116D01*
X97876006Y-83736968D01*
X97849061Y-83869913D01*
X97843873Y-83887733D01*
X97757950Y-84101578D01*
X97638339Y-84297364D01*
X97489690Y-84469389D01*
X97316657Y-84611952D01*
X97191991Y-84686805D01*
X97059821Y-84747946D01*
X96926361Y-84796395D01*
X96803583Y-84828405D01*
X96703460Y-84840228D01*
X96701765Y-84840233D01*
X96646703Y-84852846D01*
X96579292Y-84893359D01*
X96524903Y-84936959D01*
X96289423Y-85111714D01*
X96035234Y-85250272D01*
X95766550Y-85351902D01*
X95487585Y-85415872D01*
X95202551Y-85441450D01*
X94915663Y-85427905D01*
X94631132Y-85374503D01*
X94411800Y-85304043D01*
X94308793Y-85260226D01*
X94195986Y-85205740D01*
X94105191Y-85156554D01*
X94027802Y-85113161D01*
X93967033Y-85086716D01*
X93906053Y-85072438D01*
X93828027Y-85065545D01*
X93777108Y-85063365D01*
X93560506Y-85041774D01*
X93365569Y-84991261D01*
X93179652Y-84907681D01*
X93040063Y-84821848D01*
X92872993Y-84683714D01*
X92729508Y-84515267D01*
X92613321Y-84323575D01*
X92528145Y-84115704D01*
X92477694Y-83898722D01*
X92464834Y-83727077D01*
X92476453Y-83586360D01*
X92509136Y-83428888D01*
X92558539Y-83271767D01*
X92611672Y-83148804D01*
X92677095Y-83019201D01*
X92572291Y-82893266D01*
X92435087Y-82697299D01*
X92336694Y-82488469D01*
X92277119Y-82270836D01*
X92256369Y-82048460D01*
X92274452Y-81825402D01*
X92331373Y-81605721D01*
X92427142Y-81393479D01*
X92561764Y-81192735D01*
X92569255Y-81183393D01*
X92676442Y-81050804D01*
X92615733Y-80929393D01*
X92553553Y-80796082D01*
X92512328Y-80681203D01*
X92488272Y-80568839D01*
X92477598Y-80443074D01*
X92476049Y-80342317D01*
X92477970Y-80227198D01*
X92484592Y-80139187D01*
X92498143Y-80063131D01*
X92520851Y-79983875D01*
X92534826Y-79942627D01*
X92625971Y-79737515D01*
X92748722Y-79546963D01*
X92895101Y-79383358D01*
X92895135Y-79383327D01*
X92968889Y-79306553D01*
X93007592Y-79242223D01*
X93012537Y-79181071D01*
X92985018Y-79113830D01*
X92941537Y-79050787D01*
X92843091Y-78897153D01*
X92765166Y-78725391D01*
X92710342Y-78545348D01*
X92681194Y-78366868D01*
X92680301Y-78199797D01*
X92694684Y-78107896D01*
X92712224Y-78032476D01*
X92551304Y-77949844D01*
X92374331Y-77836740D01*
X92214945Y-77691257D01*
X92079380Y-77521175D01*
X91973868Y-77334269D01*
X91906360Y-77145148D01*
X91887682Y-77085886D01*
X91868998Y-77048372D01*
X91859833Y-77041364D01*
X91824968Y-77045393D01*
X91753197Y-77055445D01*
X91649413Y-77070818D01*
X91561271Y-77084225D01*
X91517164Y-77097946D01*
X91480392Y-77129854D01*
X91440542Y-77189647D01*
X91431838Y-77204829D01*
X91369518Y-77315137D01*
X91452565Y-77479836D01*
X91539984Y-77695799D01*
X91585159Y-77913727D01*
X91588159Y-78134595D01*
X91549057Y-78359379D01*
X91522861Y-78446965D01*
X91466116Y-78617354D01*
X91541856Y-78720532D01*
X91648808Y-78895028D01*
X91731597Y-79089608D01*
X91785898Y-79291482D01*
X91807387Y-79487862D01*
X91807565Y-79506233D01*
X91789918Y-79698637D01*
X91740047Y-79897335D01*
X91662560Y-80087744D01*
X91578029Y-80232758D01*
X91541598Y-80288176D01*
X91526237Y-80327342D01*
X91528923Y-80368812D01*
X91546020Y-80429152D01*
X91575210Y-80564653D01*
X91589623Y-80721931D01*
X91588607Y-80882856D01*
X91571513Y-81029299D01*
X91568168Y-81045894D01*
X91515741Y-81223354D01*
X91437454Y-81399431D01*
X91341902Y-81555212D01*
X91328757Y-81572859D01*
X91253022Y-81672077D01*
X91313703Y-81843280D01*
X91342021Y-81928821D01*
X91359949Y-82002123D01*
X91369724Y-82078195D01*
X91373587Y-82172045D01*
X91373992Y-82247317D01*
X91370746Y-82381634D01*
X91360653Y-82485364D01*
X91342412Y-82569891D01*
X91334024Y-82596567D01*
X91283660Y-82726979D01*
X91224583Y-82851990D01*
X91164175Y-82956549D01*
X91141809Y-82988585D01*
X91093887Y-83052520D01*
X91132373Y-83200251D01*
X91163922Y-83382655D01*
X91170369Y-83579633D01*
X91151070Y-83771208D01*
X91150800Y-83772721D01*
X91117507Y-83895183D01*
X91061600Y-84033975D01*
X90990102Y-84175197D01*
X90910035Y-84304949D01*
X90830107Y-84407492D01*
X90675421Y-84550825D01*
X90497368Y-84670936D01*
X90305757Y-84762605D01*
X90110398Y-84820611D01*
X90029235Y-84833722D01*
X89971388Y-84843508D01*
X89920298Y-84861279D01*
X89865186Y-84892687D01*
X89795271Y-84943380D01*
X89745378Y-84982502D01*
X89552877Y-85116275D01*
X89334859Y-85234957D01*
X89107551Y-85330490D01*
X88940217Y-85382237D01*
X88676811Y-85429578D01*
X88400438Y-85441987D01*
X88121533Y-85419807D01*
X87850537Y-85363380D01*
X87786633Y-85344401D01*
X87517358Y-85237677D01*
X87267359Y-85095356D01*
X87039569Y-84920893D01*
X86836920Y-84717744D01*
X86662345Y-84489362D01*
X86518776Y-84239202D01*
X86409145Y-83970720D01*
X86336386Y-83687370D01*
X86325583Y-83623150D01*
X86305429Y-83522954D01*
X86276606Y-83416831D01*
X86252947Y-83347983D01*
X86221678Y-83251670D01*
X86194002Y-83135916D01*
X86172592Y-83015660D01*
X86160120Y-82905838D01*
X86159095Y-82823330D01*
X86150926Y-82758546D01*
X86120112Y-82666775D01*
X86089224Y-82596567D01*
X86024091Y-82442423D01*
X85983510Y-82299878D01*
X85963524Y-82150807D01*
X85959788Y-82003819D01*
X85964600Y-81880514D01*
X85978496Y-81778239D01*
X86004790Y-81676085D01*
X86018502Y-81633606D01*
X86058877Y-81528121D01*
X86108186Y-81421403D01*
X86160802Y-81323909D01*
X86211100Y-81246097D01*
X86251965Y-81199637D01*
X86279252Y-81166659D01*
X86273556Y-81135345D01*
X86232049Y-81100470D01*
X86183258Y-81072753D01*
X86124586Y-81034705D01*
X86048829Y-80975349D01*
X85967817Y-80904298D01*
X85922214Y-80860653D01*
X85769983Y-80682332D01*
X85655946Y-80486915D01*
X85578388Y-80271427D01*
X85575035Y-80258494D01*
X85554793Y-80141088D01*
X85545091Y-80000735D01*
X85545944Y-79854197D01*
X85557367Y-79718235D01*
X85574486Y-79626951D01*
X85609911Y-79519882D01*
X85661804Y-79397722D01*
X85721489Y-79279173D01*
X85780288Y-79182937D01*
X85780889Y-79182084D01*
X85803647Y-79146326D01*
X85812258Y-79114397D01*
X85807354Y-79071678D01*
X85789568Y-79003549D01*
X85788740Y-79000596D01*
X85767681Y-78898846D01*
X85754562Y-78780748D01*
X85750268Y-78662576D01*
X85755686Y-78560603D01*
X85762567Y-78519677D01*
X85768732Y-78482458D01*
X85760709Y-78456602D01*
X85730780Y-78432794D01*
X85671225Y-78401715D01*
X85660484Y-78396449D01*
X85456452Y-78273878D01*
X85280759Y-78120988D01*
X85135821Y-77940928D01*
X85024053Y-77736847D01*
X84947871Y-77511892D01*
X84934004Y-77449438D01*
X84917868Y-77368941D01*
X84905075Y-77306450D01*
X84897663Y-77271875D01*
X84896688Y-77268130D01*
X84878516Y-77274950D01*
X84832643Y-77297580D01*
X84768432Y-77331372D01*
X84758308Y-77336840D01*
X84590271Y-77416924D01*
X84431600Y-77467082D01*
X84266515Y-77491441D01*
X84152084Y-77495400D01*
X83912544Y-77476103D01*
X83690252Y-77418167D01*
X83485058Y-77321520D01*
X83296812Y-77186093D01*
X83125363Y-77011813D01*
X83125075Y-77011471D01*
X83067341Y-76942858D01*
X82871112Y-77010471D01*
X82655014Y-77064811D01*
X82438737Y-77080333D01*
X82228697Y-77056866D01*
X82127796Y-77030386D01*
X82056361Y-77008818D01*
X82002972Y-76994741D01*
X81978143Y-76990899D01*
X81977615Y-76991209D01*
X81964119Y-77010816D01*
X81933357Y-77056310D01*
X81891611Y-77118397D01*
X81885493Y-77127519D01*
X81746291Y-77298911D01*
X81576513Y-77447923D01*
X81384601Y-77568598D01*
X81178996Y-77654984D01*
X81109394Y-77674998D01*
X80993612Y-77694967D01*
X80853422Y-77704915D01*
X80705600Y-77704626D01*
X80566921Y-77693887D01*
X80497496Y-77682827D01*
X80421404Y-77661659D01*
X80325548Y-77626758D01*
X80227346Y-77584637D01*
X80200306Y-77571702D01*
X80023814Y-77484817D01*
X80033814Y-77611817D01*
X80028953Y-77770661D01*
X79992756Y-77944114D01*
X79927752Y-78121380D01*
X79901650Y-78176410D01*
X79827512Y-78324133D01*
X79922909Y-78433186D01*
X80040161Y-78594024D01*
X80135831Y-78779317D01*
X80205372Y-78977146D01*
X80244235Y-79175596D01*
X80250932Y-79292661D01*
X80231408Y-79508816D01*
X80176719Y-79726705D01*
X80091024Y-79932855D01*
X80011790Y-80067437D01*
X79959013Y-80145106D01*
X80020968Y-80236906D01*
X80134903Y-80441986D01*
X80209856Y-80658618D01*
X80245983Y-80882224D01*
X80243443Y-81108226D01*
X80202392Y-81332046D01*
X80122989Y-81549106D01*
X80005390Y-81754830D01*
X79966904Y-81808111D01*
X79866707Y-81940406D01*
X79950778Y-82035915D01*
X80073087Y-82205929D01*
X80163225Y-82397634D01*
X80220702Y-82604644D01*
X80245028Y-82820571D01*
X80235714Y-83039029D01*
X80192269Y-83253629D01*
X80114203Y-83457984D01*
X80066652Y-83546587D01*
X79964594Y-83691875D01*
X79837102Y-83832041D01*
X79699441Y-83950731D01*
X79668923Y-83972602D01*
X79612410Y-84014336D01*
X79585196Y-84045340D01*
X79580004Y-84076202D01*
X79583790Y-84096507D01*
X79601887Y-84206974D01*
X79610045Y-84340538D01*
X79608186Y-84479128D01*
X79596230Y-84604673D01*
X79586259Y-84657685D01*
X79535335Y-84815429D01*
X79457840Y-84980720D01*
X79362288Y-85137417D01*
X79272288Y-85252855D01*
X79156550Y-85364146D01*
X79017478Y-85468917D01*
X78869762Y-85557323D01*
X78728095Y-85619523D01*
X78721861Y-85621627D01*
X78637429Y-85645442D01*
X78539172Y-85666722D01*
X78438117Y-85683843D01*
X78345289Y-85695177D01*
X78271717Y-85699099D01*
X78229171Y-85694281D01*
X78192739Y-85702681D01*
X78139999Y-85749768D01*
X78118651Y-85774211D01*
X77914576Y-85987043D01*
X77686363Y-86168538D01*
X77438322Y-86316413D01*
X77174760Y-86428388D01*
X76899988Y-86502178D01*
X76689718Y-86531043D01*
X76382833Y-86536092D01*
X76087613Y-86500810D01*
X75805692Y-86425798D01*
X75538702Y-86311661D01*
X75288277Y-86159001D01*
X75056050Y-85968420D01*
X74989975Y-85903739D01*
X74826058Y-85715819D01*
X74687604Y-85509382D01*
X74588998Y-85321699D01*
X74543449Y-85228494D01*
X74506600Y-85163879D01*
X74470487Y-85117528D01*
X74427149Y-85079116D01*
X74372365Y-85040795D01*
X74207611Y-84909621D01*
X74061096Y-84749776D01*
X73939252Y-84570310D01*
X73848509Y-84380268D01*
X73806788Y-84245153D01*
X73784365Y-84103188D01*
X73776227Y-83940933D01*
X73782383Y-83777625D01*
X73802846Y-83632503D01*
X73806422Y-83616552D01*
X73857596Y-83457418D01*
X73934516Y-83292447D01*
X74028373Y-83140258D01*
X74038156Y-83126724D01*
X74110644Y-83027976D01*
X74056067Y-82881063D01*
X74016365Y-82736312D01*
X73993101Y-82569465D01*
X73987186Y-82397089D01*
X73999534Y-82235751D01*
X74015919Y-82151802D01*
X74074096Y-81974292D01*
X74153719Y-81804826D01*
X74246146Y-81661275D01*
X74322318Y-81562066D01*
X74233517Y-81509926D01*
X74047220Y-81378135D01*
X73884545Y-81217772D01*
X73750330Y-81035231D01*
X73649409Y-80836901D01*
X73594501Y-80665325D01*
X73573107Y-80532244D01*
X73564406Y-80380068D01*
X73568395Y-80226421D01*
X73585071Y-80088930D01*
X73594594Y-80045139D01*
X73654513Y-79868550D01*
X73741826Y-79691417D01*
X73847772Y-79529911D01*
X73921066Y-79442477D01*
X73978087Y-79381123D01*
X74022105Y-79332820D01*
X74046576Y-79304794D01*
X74049467Y-79300713D01*
X74038880Y-79282016D01*
X74011007Y-79237206D01*
X73971673Y-79175638D01*
X73967982Y-79169923D01*
X73888885Y-79030005D01*
X73834193Y-78888359D01*
X73801013Y-78733883D01*
X73786448Y-78555478D01*
X73785187Y-78469067D01*
X73789978Y-78307349D01*
X73806391Y-78173605D01*
X73838108Y-78054224D01*
X73888810Y-77935598D01*
X73962178Y-77804116D01*
X73967397Y-77795495D01*
X74053073Y-77654470D01*
X74026861Y-77527310D01*
X74012524Y-77459770D01*
X74001524Y-77411639D01*
X73996780Y-77394803D01*
X73976580Y-77398576D01*
X73927712Y-77413706D01*
X73867731Y-77434448D01*
X73775922Y-77460410D01*
X73664417Y-77477925D01*
X73522808Y-77488550D01*
X73499133Y-77489613D01*
X73325654Y-77490718D01*
X73178664Y-77476517D01*
X73044368Y-77444719D01*
X72908974Y-77393037D01*
X72904101Y-77390865D01*
X72849486Y-77367772D01*
X72814012Y-77355346D01*
X72807292Y-77354685D01*
X72810791Y-77375666D01*
X72824700Y-77425997D01*
X72846030Y-77494873D01*
X72846494Y-77496308D01*
X72886672Y-77684571D01*
X72892532Y-77886928D01*
X72864342Y-78093061D01*
X72827587Y-78225066D01*
X72763181Y-78414982D01*
X72832358Y-78500232D01*
X72944617Y-78670025D01*
X73029036Y-78864718D01*
X73082331Y-79074729D01*
X73101190Y-79284744D01*
X73095592Y-79437115D01*
X73073849Y-79573324D01*
X73032209Y-79709376D01*
X72966923Y-79861273D01*
X72965191Y-79864916D01*
X72880081Y-80043682D01*
X72944166Y-80161249D01*
X73035652Y-80371650D01*
X73088895Y-80593461D01*
X73103244Y-80820129D01*
X73078045Y-81045101D01*
X73045009Y-81172357D01*
X72972343Y-81348787D01*
X72870647Y-81522097D01*
X72749345Y-81677756D01*
X72659487Y-81766967D01*
X72541242Y-81870687D01*
X72596661Y-82009212D01*
X72659110Y-82213337D01*
X72685682Y-82419385D01*
X72675106Y-82617508D01*
X72675075Y-82617711D01*
X72654306Y-82714836D01*
X72621836Y-82825530D01*
X72582414Y-82936620D01*
X72540789Y-83034934D01*
X72501708Y-83107297D01*
X72495194Y-83116709D01*
X72482801Y-83140777D01*
X72486867Y-83166695D01*
X72511770Y-83203661D01*
X72561887Y-83260872D01*
X72565894Y-83265260D01*
X72664645Y-83393234D01*
X72754212Y-83546269D01*
X72825299Y-83707094D01*
X72856692Y-83805699D01*
X72880660Y-83940552D01*
X72890850Y-84097887D01*
X72887310Y-84260173D01*
X72870087Y-84409881D01*
X72854828Y-84480400D01*
X72778749Y-84687848D01*
X72667109Y-84882020D01*
X72525197Y-85057617D01*
X72358305Y-85209341D01*
X72171722Y-85331894D01*
X71970738Y-85419977D01*
X71893937Y-85442732D01*
X71741655Y-85470154D01*
X71570575Y-85481608D01*
X71401492Y-85476115D01*
X71338796Y-85468913D01*
X71221043Y-85452009D01*
X71196271Y-85611348D01*
X71140693Y-85840022D01*
X71047605Y-86049822D01*
X70916171Y-86242355D01*
X70805272Y-86363446D01*
X70627692Y-86512499D01*
X70436560Y-86622976D01*
X70227897Y-86696590D01*
X69997726Y-86735055D01*
X69932416Y-86739584D01*
X69784775Y-86741338D01*
X69652614Y-86728499D01*
X69522673Y-86698221D01*
X69381690Y-86647660D01*
X69263858Y-86596160D01*
X69176369Y-86558982D01*
X69095925Y-86530275D01*
X69035076Y-86514300D01*
X69017250Y-86512400D01*
X68968638Y-86521940D01*
X68896427Y-86547307D01*
X68813941Y-86583621D01*
X68789148Y-86595939D01*
X68690996Y-86640887D01*
X68584120Y-86681709D01*
X68489990Y-86710287D01*
X68481244Y-86712356D01*
X68333565Y-86734877D01*
X68168143Y-86742210D01*
X68003995Y-86734394D01*
X67860140Y-86711468D01*
X67858475Y-86711067D01*
X67654382Y-86640942D01*
X67460133Y-86534290D01*
X67282817Y-86396831D01*
X67129522Y-86234281D01*
X67007337Y-86052360D01*
X66982423Y-86004400D01*
X66898019Y-85791913D01*
X66848833Y-85574736D01*
X66835631Y-85359808D01*
X66859174Y-85154069D01*
X66879902Y-85073067D01*
X66908642Y-84977817D01*
X66773542Y-84830911D01*
X66670315Y-84700953D01*
X66577361Y-84550741D01*
X66502781Y-84395086D01*
X66454680Y-84248800D01*
X66454391Y-84247567D01*
X66419725Y-84015440D01*
X66426439Y-83790470D01*
X66474860Y-83569669D01*
X66549013Y-83383123D01*
X66623387Y-83227764D01*
X66539688Y-83128502D01*
X66412745Y-82956412D01*
X66316842Y-82774019D01*
X66269028Y-82649483D01*
X66241688Y-82562575D01*
X66224519Y-82486256D01*
X66215345Y-82405239D01*
X66211992Y-82304239D01*
X66211804Y-82247317D01*
X66217535Y-82094301D01*
X66236172Y-81957395D01*
X66270867Y-81828294D01*
X66324773Y-81698690D01*
X66401041Y-81560278D01*
X66502825Y-81404750D01*
X66564786Y-81317258D01*
X66563413Y-81285156D01*
X66530127Y-81228055D01*
X66490702Y-81176526D01*
X66383845Y-81017527D01*
X66298627Y-80835187D01*
X66238635Y-80641036D01*
X66207456Y-80446604D01*
X66208174Y-80268233D01*
X66229670Y-80136088D01*
X66266136Y-79995152D01*
X66312715Y-79860786D01*
X66364551Y-79748350D01*
X66381835Y-79718911D01*
X66441455Y-79624673D01*
X66372043Y-79496661D01*
X66275409Y-79282122D01*
X66220313Y-79069540D01*
X66206545Y-78855533D01*
X66233897Y-78636715D01*
X66302158Y-78409704D01*
X66304408Y-78403840D01*
X66368089Y-78238708D01*
X66326639Y-78157458D01*
X66252237Y-77966455D01*
X66213696Y-77760002D01*
X66211455Y-77545826D01*
X66245951Y-77331658D01*
X66274391Y-77234933D01*
X66337556Y-77048549D01*
X66268530Y-76959766D01*
X66151020Y-76775501D01*
X66065119Y-76569079D01*
X66013957Y-76349662D01*
X66000165Y-76173871D01*
X66006134Y-76020234D01*
X66029441Y-75880629D01*
X66073759Y-75739529D01*
X66137908Y-75591551D01*
X66223018Y-75412785D01*
X66159010Y-75295217D01*
X66067101Y-75087317D01*
X66013417Y-74873948D01*
X65999101Y-74660938D01*
X66010122Y-74534096D01*
X66020448Y-74455348D01*
X66021268Y-74403138D01*
X66010560Y-74362341D01*
X65986305Y-74317828D01*
X65979849Y-74307464D01*
X65890818Y-74132052D01*
X65828389Y-73937296D01*
X65795533Y-73736279D01*
X65795218Y-73542084D01*
X65798772Y-73509437D01*
X65814445Y-73386391D01*
X65698924Y-73250216D01*
X65574342Y-73078422D01*
X65473218Y-72888307D01*
X65403771Y-72695412D01*
X65401998Y-72688734D01*
X65383629Y-72600420D01*
X65374779Y-72504983D01*
X65374458Y-72388221D01*
X65376741Y-72326897D01*
X65387072Y-72100811D01*
X65324499Y-72041147D01*
X65251476Y-71958256D01*
X65174358Y-71848727D01*
X65101629Y-71726343D01*
X65041774Y-71604889D01*
X65016442Y-71540712D01*
X64975329Y-71381573D01*
X64953230Y-71204004D01*
X64951540Y-71026776D01*
X64967881Y-70886826D01*
X64989987Y-70802334D01*
X65024864Y-70700148D01*
X65065636Y-70600073D01*
X65073017Y-70583928D01*
X65152281Y-70414039D01*
X65051073Y-70289290D01*
X64915321Y-70091384D01*
X64817252Y-69881024D01*
X64757536Y-69662423D01*
X64736846Y-69439794D01*
X64755853Y-69217352D01*
X64815230Y-68999311D01*
X64836768Y-68945257D01*
X64876768Y-68851198D01*
X64715937Y-68691257D01*
X64562117Y-68510289D01*
X64445313Y-68312998D01*
X64365621Y-68103771D01*
X64323138Y-67886999D01*
X64317960Y-67667070D01*
X64350182Y-67448372D01*
X64419902Y-67235295D01*
X64527214Y-67032227D01*
X64672216Y-66843557D01*
X64675397Y-66840074D01*
X64738170Y-66769490D01*
X64774847Y-66721657D01*
X64789571Y-66689699D01*
X64786485Y-66666741D01*
X64783154Y-66661220D01*
X64686583Y-66497673D01*
X64604038Y-66309787D01*
X64592162Y-66277067D01*
X64567022Y-66199828D01*
X64550599Y-66130389D01*
X64541094Y-66055596D01*
X64536707Y-65962297D01*
X64535670Y-65864317D01*
X64536876Y-65742953D01*
X64542277Y-65650484D01*
X64553518Y-65573548D01*
X64572245Y-65498783D01*
X64586185Y-65454197D01*
X64660823Y-65279014D01*
X64765975Y-65106024D01*
X64891800Y-64950217D01*
X64962968Y-64880213D01*
X65090718Y-64765498D01*
X65049572Y-64669508D01*
X64989369Y-64487051D01*
X64955672Y-64289790D01*
X64949690Y-64091614D01*
X64972630Y-63906412D01*
X64980366Y-63873805D01*
X65039916Y-63697347D01*
X65123977Y-63524692D01*
X65226094Y-63366275D01*
X65339812Y-63232534D01*
X65421827Y-63159974D01*
X65512473Y-63090761D01*
X65473681Y-62999421D01*
X65409746Y-62803939D01*
X65376088Y-62596540D01*
X65373832Y-62389887D01*
X65402831Y-62201639D01*
X65429025Y-62118607D01*
X65467958Y-62019450D01*
X65511469Y-61924855D01*
X65513956Y-61919954D01*
X65593383Y-61764425D01*
X65506460Y-61587253D01*
X65438778Y-61432731D01*
X65396473Y-61290399D01*
X65376150Y-61143737D01*
X65374410Y-60976223D01*
X65375461Y-60950064D01*
X65402167Y-60727657D01*
X65463224Y-60521810D01*
X65561650Y-60323850D01*
X65629886Y-60219325D01*
X65638624Y-60196704D01*
X65629817Y-60169056D01*
X65598905Y-60128631D01*
X65541325Y-60067678D01*
X65539591Y-60065913D01*
X65389958Y-59888882D01*
X65279874Y-59700797D01*
X65207215Y-59496776D01*
X65169853Y-59271940D01*
X65165559Y-59207400D01*
X65165113Y-59030638D01*
X65184450Y-58877144D01*
X65226976Y-58731147D01*
X65296095Y-58576878D01*
X65305741Y-58558202D01*
X65385028Y-58406421D01*
X65297879Y-58228421D01*
X65254974Y-58134190D01*
X65216968Y-58039002D01*
X65190291Y-57959329D01*
X65185098Y-57939379D01*
X65166818Y-57816890D01*
X65160529Y-57672775D01*
X65166014Y-57525635D01*
X65183057Y-57394071D01*
X65191885Y-57354472D01*
X65221527Y-57259883D01*
X65263344Y-57152813D01*
X65311467Y-57046169D01*
X65360027Y-56952861D01*
X65403154Y-56885796D01*
X65407419Y-56880448D01*
X65449822Y-56828913D01*
X65368840Y-56703618D01*
X65266027Y-56516695D01*
X65199452Y-56326405D01*
X65166677Y-56123378D01*
X65164278Y-55917333D01*
X65191025Y-55691912D01*
X65250740Y-55487725D01*
X65346219Y-55298301D01*
X65480256Y-55117168D01*
X65536815Y-55054510D01*
X65650705Y-54933871D01*
X65605688Y-54870651D01*
X65553570Y-54784561D01*
X65498938Y-54673174D01*
X65448843Y-54552432D01*
X65410339Y-54438277D01*
X65403699Y-54413994D01*
X65384025Y-54302147D01*
X65373690Y-54165799D01*
X65372943Y-54021793D01*
X65382035Y-53886974D01*
X65394686Y-53805650D01*
X65434110Y-53673094D01*
X65496696Y-53527147D01*
X65574896Y-53383554D01*
X65650689Y-53271574D01*
X65746320Y-53145998D01*
X65655638Y-53034665D01*
X65530263Y-52848196D01*
X65440575Y-52643859D01*
X65387276Y-52427624D01*
X65371067Y-52205459D01*
X65392651Y-51983333D01*
X65452729Y-51767214D01*
X65494999Y-51668292D01*
X65553692Y-51546002D01*
X65414788Y-51466563D01*
X65337356Y-51415289D01*
X65246216Y-51344436D01*
X65156089Y-51265789D01*
X65116750Y-51227971D01*
X64965552Y-51048306D01*
X64851850Y-50851210D01*
X64776539Y-50640530D01*
X64740517Y-50420112D01*
X64744680Y-50193803D01*
X64789926Y-49965449D01*
X64808525Y-49906232D01*
X64865324Y-49738481D01*
X64799701Y-49652232D01*
X64676550Y-49457060D01*
X64590513Y-49247200D01*
X64542021Y-49027977D01*
X64531507Y-48804714D01*
X64559404Y-48582735D01*
X64626143Y-48367361D01*
X64685223Y-48243134D01*
X64741803Y-48139177D01*
X64644388Y-48030828D01*
X64514737Y-47860234D01*
X64415053Y-47667857D01*
X64372953Y-47555150D01*
X64348575Y-47471632D01*
X64333522Y-47390023D01*
X64325896Y-47295611D01*
X64323798Y-47174150D01*
X64327957Y-47029813D01*
X64342927Y-46909618D01*
X64372527Y-46797601D01*
X64420576Y-46677800D01*
X64464393Y-46586426D01*
X64525429Y-46464368D01*
X64420624Y-46338432D01*
X64292524Y-46154719D01*
X64194503Y-45951030D01*
X64130039Y-45736718D01*
X64102607Y-45521137D01*
X64101868Y-45480817D01*
X64119735Y-45284030D01*
X64170268Y-45081618D01*
X64248868Y-44885864D01*
X64350936Y-44709049D01*
X64428149Y-44609568D01*
X64480707Y-44546538D01*
X64509847Y-44498501D01*
X64522295Y-44450726D01*
X64524779Y-44397901D01*
X64534915Y-44279475D01*
X64561814Y-44143668D01*
X64601163Y-44009813D01*
X64625525Y-43946427D01*
X64665949Y-43851370D01*
X64515833Y-43701818D01*
X64357003Y-43519257D01*
X64238319Y-43326712D01*
X64158064Y-43120484D01*
X64114520Y-42896876D01*
X64108267Y-42824400D01*
X64109190Y-42779413D01*
X64570678Y-42779413D01*
X64594507Y-42963489D01*
X64653414Y-43135441D01*
X64686744Y-43198926D01*
X64768268Y-43308305D01*
X64879873Y-43416107D01*
X65010094Y-43512613D01*
X65143710Y-43586400D01*
X65217775Y-43621963D01*
X65274334Y-43652527D01*
X65304344Y-43673070D01*
X65306907Y-43677038D01*
X65295789Y-43700467D01*
X65265314Y-43749891D01*
X65220804Y-43816911D01*
X65190676Y-43860503D01*
X65104992Y-43991915D01*
X65046559Y-44107453D01*
X65011439Y-44219868D01*
X64995696Y-44341910D01*
X64995392Y-44486330D01*
X64995621Y-44492145D01*
X64998594Y-44595075D01*
X64997131Y-44663165D01*
X64990553Y-44703745D01*
X64978183Y-44724140D01*
X64973903Y-44727058D01*
X64926927Y-44762380D01*
X64864958Y-44820689D01*
X64798290Y-44891016D01*
X64737213Y-44962394D01*
X64692022Y-45023859D01*
X64685727Y-45034115D01*
X64612822Y-45198713D01*
X64574307Y-45378433D01*
X64571454Y-45562142D01*
X64605381Y-45738222D01*
X64674876Y-45903539D01*
X64775595Y-46049172D01*
X64911410Y-46179902D01*
X65035679Y-46269144D01*
X65097210Y-46311282D01*
X65141493Y-46346372D01*
X65159254Y-46367042D01*
X65159281Y-46367428D01*
X65146433Y-46391000D01*
X65111972Y-46437823D01*
X65062296Y-46499404D01*
X65039675Y-46526178D01*
X64972896Y-46612022D01*
X64908208Y-46708212D01*
X64858520Y-46795402D01*
X64854467Y-46803733D01*
X64824519Y-46870198D01*
X64805401Y-46926274D01*
X64794715Y-46985150D01*
X64790064Y-47060015D01*
X64789050Y-47163567D01*
X64790227Y-47268972D01*
X64795215Y-47345014D01*
X64806201Y-47404631D01*
X64825373Y-47460761D01*
X64847833Y-47511338D01*
X64929586Y-47656286D01*
X65032402Y-47780945D01*
X65165384Y-47895732D01*
X65215305Y-47931738D01*
X65284382Y-47981433D01*
X65337757Y-48023013D01*
X65367534Y-48050177D01*
X65371133Y-48056102D01*
X65357890Y-48078164D01*
X65322602Y-48123030D01*
X65271926Y-48182391D01*
X65251633Y-48205225D01*
X65135355Y-48353332D01*
X65056143Y-48500529D01*
X65009966Y-48656058D01*
X64993939Y-48795988D01*
X64998625Y-48973591D01*
X65033005Y-49130838D01*
X65100274Y-49275096D01*
X65203628Y-49413736D01*
X65307634Y-49519283D01*
X65452086Y-49653023D01*
X65358305Y-49798780D01*
X65277481Y-49941915D01*
X65227513Y-50077585D01*
X65203692Y-50221288D01*
X65199990Y-50320010D01*
X65220227Y-50508596D01*
X65279072Y-50684634D01*
X65373523Y-50843383D01*
X65500582Y-50980102D01*
X65657248Y-51090048D01*
X65702024Y-51113450D01*
X65798288Y-51149946D01*
X65932269Y-51184393D01*
X66085588Y-51213358D01*
X66187160Y-51230302D01*
X66272520Y-51245085D01*
X66333574Y-51256265D01*
X66362229Y-51262400D01*
X66363270Y-51262819D01*
X66352641Y-51279359D01*
X66318077Y-51321326D01*
X66264415Y-51383091D01*
X66196488Y-51459025D01*
X66165394Y-51493212D01*
X66053042Y-51621874D01*
X65969093Y-51733006D01*
X65908633Y-51835195D01*
X65866746Y-51937027D01*
X65838518Y-52047089D01*
X65833789Y-52072479D01*
X65824888Y-52237177D01*
X65851727Y-52407849D01*
X65910986Y-52574140D01*
X65999348Y-52725696D01*
X66070451Y-52811020D01*
X66127039Y-52862379D01*
X66207094Y-52925606D01*
X66297758Y-52990827D01*
X66349394Y-53025200D01*
X66540523Y-53148177D01*
X66336556Y-53280308D01*
X66244038Y-53343986D01*
X66155752Y-53411288D01*
X66083535Y-53472857D01*
X66048470Y-53508003D01*
X65951634Y-53643502D01*
X65879081Y-53797646D01*
X65834596Y-53959023D01*
X65821964Y-54116218D01*
X65826820Y-54176432D01*
X65861347Y-54343415D01*
X65919697Y-54490166D01*
X66006598Y-54624429D01*
X66126776Y-54753946D01*
X66237836Y-54849626D01*
X66313214Y-54910958D01*
X66374625Y-54962783D01*
X66415511Y-54999439D01*
X66429371Y-55015024D01*
X66411599Y-55028679D01*
X66363299Y-55056979D01*
X66291875Y-55095773D01*
X66205944Y-55140293D01*
X66040064Y-55234134D01*
X65909683Y-55331149D01*
X65808073Y-55437494D01*
X65728503Y-55559322D01*
X65711440Y-55592564D01*
X65643375Y-55766266D01*
X65614186Y-55933334D01*
X65622697Y-56100841D01*
X65624836Y-56113694D01*
X65659576Y-56258507D01*
X65713026Y-56384858D01*
X65791457Y-56503978D01*
X65901143Y-56627100D01*
X65924682Y-56650546D01*
X65991669Y-56717231D01*
X66045728Y-56772818D01*
X66080694Y-56810850D01*
X66090800Y-56824503D01*
X66076684Y-56842893D01*
X66038417Y-56884404D01*
X65982117Y-56942564D01*
X65924804Y-57000107D01*
X65809118Y-57125966D01*
X65725623Y-57245408D01*
X65668054Y-57369724D01*
X65630150Y-57510205D01*
X65624248Y-57541979D01*
X65611787Y-57633565D01*
X65611940Y-57710909D01*
X65625393Y-57797275D01*
X65632779Y-57831327D01*
X65667268Y-57957598D01*
X65712265Y-58064664D01*
X65775583Y-58167857D01*
X65858973Y-58275250D01*
X65966487Y-58404441D01*
X65866663Y-58514879D01*
X65751771Y-58669109D01*
X65670111Y-58837764D01*
X65623968Y-59013736D01*
X65615625Y-59189922D01*
X65624836Y-59267528D01*
X65674375Y-59451875D01*
X65755850Y-59613063D01*
X65871343Y-59753621D01*
X66022937Y-59876082D01*
X66212716Y-59982977D01*
X66214179Y-59983673D01*
X66299880Y-60025658D01*
X66369376Y-60061989D01*
X66414951Y-60088478D01*
X66429140Y-60100332D01*
X66413938Y-60119166D01*
X66372863Y-60157740D01*
X66313163Y-60209430D01*
X66275433Y-60240713D01*
X66141730Y-60356200D01*
X66040054Y-60459214D01*
X65964622Y-60556323D01*
X65909652Y-60654094D01*
X65907704Y-60658314D01*
X65844456Y-60842870D01*
X65823312Y-61027046D01*
X65844054Y-61209487D01*
X65906464Y-61388836D01*
X66010322Y-61563738D01*
X66064637Y-61633610D01*
X66172574Y-61763236D01*
X66067300Y-61887610D01*
X65945088Y-62058970D01*
X65864989Y-62234297D01*
X65827004Y-62413249D01*
X65831131Y-62595484D01*
X65877371Y-62780659D01*
X65965723Y-62968432D01*
X66067834Y-63121764D01*
X66111317Y-63181280D01*
X66142369Y-63227042D01*
X66154299Y-63249190D01*
X66154300Y-63249228D01*
X66136444Y-63263031D01*
X66088410Y-63289988D01*
X66018500Y-63325605D01*
X65969092Y-63349461D01*
X65786211Y-63454969D01*
X65639689Y-63581565D01*
X65528471Y-63730527D01*
X65451505Y-63903132D01*
X65422672Y-64012026D01*
X65403150Y-64180594D01*
X65418141Y-64342357D01*
X65469196Y-64503136D01*
X65557863Y-64668755D01*
X65622621Y-64763197D01*
X65671529Y-64831581D01*
X65708957Y-64887156D01*
X65729073Y-64921128D01*
X65730967Y-64926636D01*
X65713114Y-64941900D01*
X65665114Y-64970106D01*
X65595304Y-65006562D01*
X65547257Y-65030043D01*
X65363445Y-65136996D01*
X65216383Y-65264783D01*
X65106183Y-65413248D01*
X65032955Y-65582234D01*
X64996811Y-65771584D01*
X64993939Y-65813988D01*
X64995657Y-65967374D01*
X65018592Y-66104564D01*
X65065981Y-66231323D01*
X65141059Y-66353414D01*
X65247061Y-66476603D01*
X65387222Y-66606652D01*
X65483312Y-66685799D01*
X65606075Y-66783623D01*
X65398646Y-66887963D01*
X65257635Y-66962979D01*
X65147892Y-67031964D01*
X65060354Y-67101761D01*
X64985961Y-67179214D01*
X64945135Y-67230517D01*
X64855544Y-67383535D01*
X64799479Y-67554304D01*
X64777785Y-67733897D01*
X64791308Y-67913386D01*
X64840895Y-68083845D01*
X64860221Y-68126443D01*
X64948743Y-68273465D01*
X65060295Y-68396700D01*
X65201841Y-68502816D01*
X65325705Y-68572095D01*
X65406326Y-68613723D01*
X65470509Y-68649026D01*
X65510271Y-68673483D01*
X65519300Y-68681764D01*
X65507862Y-68703337D01*
X65477119Y-68751157D01*
X65432421Y-68817059D01*
X65402046Y-68860587D01*
X65315113Y-68993866D01*
X65256186Y-69111771D01*
X65221314Y-69226699D01*
X65206550Y-69351044D01*
X65206854Y-69473233D01*
X65213479Y-69581412D01*
X65225225Y-69662297D01*
X65245167Y-69730881D01*
X65272820Y-69794802D01*
X65370168Y-69951736D01*
X65503131Y-70095611D01*
X65656222Y-70213636D01*
X65721498Y-70257949D01*
X65770160Y-70294385D01*
X65793565Y-70316375D01*
X65794467Y-70318671D01*
X65781415Y-70340368D01*
X65746608Y-70385300D01*
X65696568Y-70445200D01*
X65675374Y-70469643D01*
X65550941Y-70638904D01*
X65465073Y-70815537D01*
X65417487Y-70995531D01*
X65407897Y-71174874D01*
X65436017Y-71349555D01*
X65501563Y-71515560D01*
X65604249Y-71668879D01*
X65743789Y-71805499D01*
X65771909Y-71827341D01*
X65833143Y-71873414D01*
X65881145Y-71909759D01*
X65905675Y-71928619D01*
X65905827Y-71928741D01*
X65908169Y-71954104D01*
X65897649Y-72006395D01*
X65881918Y-72058055D01*
X65833937Y-72255156D01*
X65827349Y-72444983D01*
X65861578Y-72625830D01*
X65936052Y-72795990D01*
X66050197Y-72953754D01*
X66203439Y-73097416D01*
X66240759Y-73125799D01*
X66341989Y-73200109D01*
X66297692Y-73321046D01*
X66270792Y-73414547D01*
X66256635Y-73519833D01*
X66252903Y-73632483D01*
X66261971Y-73789588D01*
X66293358Y-73924467D01*
X66351996Y-74051743D01*
X66436965Y-74178309D01*
X66529180Y-74300802D01*
X66489907Y-74442434D01*
X66456630Y-74635246D01*
X66465150Y-74821908D01*
X66515267Y-75001601D01*
X66606782Y-75173506D01*
X66696370Y-75289914D01*
X66743615Y-75346425D01*
X66777074Y-75391224D01*
X66789300Y-75414049D01*
X66776715Y-75438145D01*
X66743606Y-75484684D01*
X66696940Y-75543918D01*
X66693405Y-75548217D01*
X66574024Y-75721639D01*
X66495579Y-75900541D01*
X66457880Y-76081774D01*
X66460736Y-76262191D01*
X66503955Y-76438647D01*
X66587348Y-76607994D01*
X66710723Y-76767085D01*
X66770926Y-76826868D01*
X66920596Y-76965439D01*
X66837562Y-77098128D01*
X66741477Y-77276813D01*
X66684016Y-77446676D01*
X66664044Y-77613445D01*
X66680430Y-77782845D01*
X66692020Y-77834067D01*
X66711716Y-77903110D01*
X66735970Y-77966558D01*
X66769926Y-78034987D01*
X66818726Y-78118976D01*
X66872999Y-78206197D01*
X66884826Y-78232567D01*
X66883094Y-78262593D01*
X66864759Y-78306114D01*
X66826775Y-78372970D01*
X66815646Y-78391511D01*
X66723953Y-78578381D01*
X66674535Y-78764297D01*
X66667336Y-78948538D01*
X66702299Y-79130385D01*
X66779367Y-79309116D01*
X66898482Y-79484012D01*
X66902491Y-79488931D01*
X66950338Y-79549138D01*
X66985353Y-79596566D01*
X67000758Y-79621974D01*
X67000967Y-79623138D01*
X66988195Y-79645084D01*
X66954699Y-79689292D01*
X66907704Y-79746230D01*
X66907265Y-79746743D01*
X66789323Y-79913376D01*
X66710227Y-80089589D01*
X66670566Y-80271525D01*
X66670930Y-80455330D01*
X66711908Y-80637149D01*
X66755249Y-80741675D01*
X66815368Y-80847385D01*
X66888764Y-80940549D01*
X66983338Y-81029295D01*
X67106990Y-81121755D01*
X67158007Y-81156106D01*
X67238174Y-81210065D01*
X67303381Y-81256044D01*
X67346572Y-81288925D01*
X67360800Y-81303223D01*
X67344035Y-81319433D01*
X67298860Y-81352358D01*
X67232955Y-81396586D01*
X67182220Y-81429094D01*
X67091623Y-81490633D01*
X67002781Y-81558547D01*
X66930269Y-81621440D01*
X66909018Y-81642727D01*
X66793484Y-81794332D01*
X66713607Y-81961115D01*
X66670918Y-82137112D01*
X66666947Y-82316363D01*
X66696385Y-82471016D01*
X66754197Y-82626374D01*
X66831571Y-82759244D01*
X66935150Y-82878253D01*
X67071579Y-82992027D01*
X67128876Y-83032589D01*
X67274601Y-83132159D01*
X67206576Y-83213897D01*
X67099304Y-83346868D01*
X67018510Y-83458358D01*
X66960272Y-83556348D01*
X66920671Y-83648823D01*
X66895786Y-83743764D01*
X66881698Y-83849154D01*
X66879233Y-83880479D01*
X66886355Y-84067962D01*
X66933610Y-84244651D01*
X67019600Y-84407944D01*
X67142924Y-84555234D01*
X67302182Y-84683918D01*
X67315951Y-84693017D01*
X67485581Y-84803503D01*
X67425570Y-84922410D01*
X67343183Y-85123129D01*
X67302397Y-85316530D01*
X67303176Y-85502934D01*
X67340419Y-85668067D01*
X67393904Y-85800853D01*
X67460791Y-85911079D01*
X67551950Y-86015432D01*
X67591437Y-86053505D01*
X67743661Y-86167859D01*
X67912296Y-86244583D01*
X68092547Y-86282687D01*
X68279618Y-86281181D01*
X68468712Y-86239073D01*
X68476627Y-86236401D01*
X68552896Y-86203558D01*
X68641696Y-86155612D01*
X68714285Y-86109347D01*
X68785020Y-86062223D01*
X68834778Y-86037329D01*
X68875399Y-86030153D01*
X68910791Y-86034447D01*
X68965751Y-86043922D01*
X69046444Y-86055589D01*
X69136514Y-86067102D01*
X69147067Y-86068349D01*
X69231210Y-86081524D01*
X69301405Y-86098560D01*
X69344711Y-86116191D01*
X69348725Y-86119240D01*
X69407959Y-86159125D01*
X69494443Y-86201058D01*
X69593816Y-86239295D01*
X69691719Y-86268089D01*
X69748192Y-86279080D01*
X69931046Y-86284021D01*
X70109980Y-86250400D01*
X70278528Y-86181713D01*
X70430226Y-86081455D01*
X70558607Y-85953122D01*
X70657208Y-85800210D01*
X70665444Y-85783140D01*
X70706600Y-85676997D01*
X70737729Y-85561266D01*
X70756074Y-85449898D01*
X70758879Y-85356841D01*
X70755219Y-85328785D01*
X70757786Y-85281455D01*
X70780838Y-85208574D01*
X70825806Y-85105865D01*
X70839421Y-85077528D01*
X70880087Y-84993296D01*
X70913736Y-84922324D01*
X70936028Y-84873845D01*
X70942482Y-84858436D01*
X70964436Y-84854490D01*
X71016602Y-84871410D01*
X71082227Y-84901761D01*
X71276788Y-84982370D01*
X71462507Y-85022428D01*
X71642253Y-85022067D01*
X71818894Y-84981415D01*
X71919907Y-84939973D01*
X72082176Y-84841323D01*
X72217216Y-84715228D01*
X72322369Y-84567152D01*
X72394977Y-84402560D01*
X72432382Y-84226918D01*
X72431926Y-84045689D01*
X72410869Y-83930588D01*
X72354478Y-83766457D01*
X72272722Y-83624174D01*
X72160267Y-83496602D01*
X72011780Y-83376604D01*
X71980889Y-83355309D01*
X71825293Y-83250314D01*
X71953746Y-83101437D01*
X72076797Y-82940683D01*
X72161650Y-82785509D01*
X72210706Y-82629506D01*
X72226369Y-82466267D01*
X72222759Y-82383795D01*
X72201480Y-82251436D01*
X72157930Y-82123352D01*
X72087867Y-81989491D01*
X72001827Y-81860207D01*
X71953023Y-81790842D01*
X71916214Y-81735940D01*
X71896556Y-81703324D01*
X71894822Y-81697770D01*
X71915352Y-81687245D01*
X71965487Y-81662699D01*
X72036620Y-81628327D01*
X72085477Y-81604884D01*
X72263388Y-81499405D01*
X72408856Y-81371358D01*
X72520921Y-81225041D01*
X72598624Y-81064750D01*
X72641005Y-80894781D01*
X72647104Y-80719431D01*
X72615962Y-80542996D01*
X72546619Y-80369773D01*
X72438116Y-80204057D01*
X72406730Y-80166552D01*
X72359532Y-80110074D01*
X72326173Y-80065335D01*
X72314068Y-80042568D01*
X72326656Y-80019044D01*
X72360006Y-79971589D01*
X72407891Y-79908888D01*
X72428628Y-79882838D01*
X72542456Y-79711627D01*
X72615353Y-79534164D01*
X72647597Y-79353886D01*
X72639468Y-79174225D01*
X72591244Y-78998618D01*
X72503203Y-78830500D01*
X72375626Y-78673304D01*
X72326588Y-78625953D01*
X72179703Y-78491894D01*
X72257779Y-78374304D01*
X72334786Y-78248293D01*
X72385531Y-78136644D01*
X72414613Y-78024740D01*
X72426630Y-77897961D01*
X72427695Y-77834067D01*
X72419214Y-77677873D01*
X72390663Y-77545675D01*
X72337381Y-77422036D01*
X72270826Y-77314552D01*
X72235331Y-77259753D01*
X72212793Y-77218775D01*
X72208508Y-77205836D01*
X72219407Y-77180213D01*
X72247318Y-77130442D01*
X72282574Y-77073076D01*
X72319748Y-77004479D01*
X72362796Y-76909205D01*
X72405722Y-76801214D01*
X72434675Y-76718920D01*
X72513253Y-76480171D01*
X72727514Y-76691015D01*
X72850405Y-76806175D01*
X72957778Y-76892170D01*
X73058648Y-76954336D01*
X73162024Y-76998010D01*
X73276920Y-77028529D01*
X73307651Y-77034571D01*
X73470231Y-77045045D01*
X73641394Y-77016882D01*
X73824144Y-76949570D01*
X73833651Y-76945163D01*
X73884229Y-76919337D01*
X73933471Y-76888439D01*
X73986642Y-76847924D01*
X74049006Y-76793253D01*
X74125830Y-76719882D01*
X74222378Y-76623269D01*
X74306945Y-76536888D01*
X74402272Y-76440439D01*
X74487052Y-76357383D01*
X74557193Y-76291504D01*
X74608602Y-76246588D01*
X74637185Y-76226420D01*
X74641697Y-76227333D01*
X74636932Y-76257886D01*
X74623427Y-76322327D01*
X74602798Y-76413495D01*
X74576665Y-76524232D01*
X74548160Y-76641245D01*
X74516863Y-76770581D01*
X74488333Y-76893517D01*
X74464570Y-77001045D01*
X74447573Y-77084157D01*
X74439972Y-77128634D01*
X74439600Y-77275245D01*
X74474066Y-77442348D01*
X74528811Y-77594761D01*
X74583981Y-77725873D01*
X74485175Y-77838178D01*
X74365146Y-78001209D01*
X74281813Y-78173757D01*
X74236709Y-78351112D01*
X74231367Y-78528563D01*
X74239669Y-78592694D01*
X74282289Y-78757005D01*
X74352190Y-78905601D01*
X74453427Y-79044482D01*
X74590053Y-79179645D01*
X74692483Y-79262817D01*
X74756467Y-79313383D01*
X74805022Y-79355009D01*
X74830105Y-79380681D01*
X74831859Y-79384332D01*
X74814402Y-79399474D01*
X74766413Y-79428737D01*
X74695447Y-79467764D01*
X74617832Y-79507806D01*
X74436362Y-79611286D01*
X74293170Y-79721420D01*
X74184315Y-79841737D01*
X74113516Y-79959423D01*
X74045087Y-80145492D01*
X74018552Y-80332258D01*
X74033915Y-80517660D01*
X74091179Y-80699639D01*
X74112070Y-80744413D01*
X74214197Y-80907670D01*
X74343372Y-81039651D01*
X74502120Y-81142544D01*
X74638233Y-81200581D01*
X74800883Y-81257949D01*
X74806908Y-81484428D01*
X74812933Y-81710908D01*
X74697759Y-81835309D01*
X74572223Y-81998359D01*
X74487574Y-82170651D01*
X74444021Y-82349693D01*
X74441777Y-82532993D01*
X74481053Y-82718062D01*
X74562059Y-82902407D01*
X74601700Y-82968459D01*
X74651351Y-83049134D01*
X74677336Y-83102175D01*
X74681699Y-83133581D01*
X74666478Y-83149352D01*
X74663586Y-83150428D01*
X74639737Y-83167678D01*
X74594436Y-83207463D01*
X74536083Y-83262300D01*
X74514931Y-83282877D01*
X74384293Y-83438708D01*
X74291151Y-83612034D01*
X74237267Y-83799095D01*
X74227989Y-83969591D01*
X74256538Y-84140808D01*
X74319105Y-84305827D01*
X74411880Y-84457732D01*
X74531052Y-84589605D01*
X74672810Y-84694529D01*
X74753202Y-84735711D01*
X74819922Y-84767521D01*
X74859652Y-84797681D01*
X74884927Y-84839711D01*
X74906310Y-84900875D01*
X74986418Y-85099773D01*
X75098229Y-85298797D01*
X75233440Y-85485685D01*
X75383745Y-85648176D01*
X75454728Y-85710588D01*
X75564344Y-85789117D01*
X75698092Y-85868495D01*
X75841624Y-85941381D01*
X75980591Y-86000435D01*
X76090503Y-86035842D01*
X76338368Y-86077189D01*
X76592568Y-86079572D01*
X76845800Y-86044102D01*
X77090757Y-85971891D01*
X77320135Y-85864050D01*
X77355137Y-85843420D01*
X77491903Y-85746730D01*
X77632175Y-85623786D01*
X77762768Y-85487241D01*
X77870497Y-85349745D01*
X77872166Y-85347309D01*
X77972344Y-85200693D01*
X78058780Y-85216255D01*
X78258309Y-85233613D01*
X78449831Y-85213989D01*
X78627504Y-85158712D01*
X78785486Y-85069112D01*
X78819241Y-85043124D01*
X78960122Y-84903127D01*
X79064084Y-84744828D01*
X79130016Y-84572232D01*
X79156806Y-84389340D01*
X79143344Y-84200156D01*
X79098878Y-84035900D01*
X79061524Y-83934009D01*
X79039203Y-83864105D01*
X79034431Y-83817732D01*
X79049729Y-83786436D01*
X79087613Y-83761761D01*
X79150603Y-83735252D01*
X79193512Y-83718180D01*
X79325683Y-83655869D01*
X79435371Y-83581686D01*
X79490238Y-83534217D01*
X79620700Y-83392853D01*
X79711336Y-83244730D01*
X79764648Y-83083822D01*
X79783138Y-82904106D01*
X79781689Y-82832354D01*
X79760069Y-82660273D01*
X79710874Y-82508291D01*
X79630761Y-82371192D01*
X79516385Y-82243764D01*
X79364402Y-82120794D01*
X79294892Y-82073362D01*
X79213736Y-82019683D01*
X79147425Y-81974861D01*
X79102911Y-81943662D01*
X79087133Y-81930914D01*
X79103728Y-81917558D01*
X79148762Y-81886116D01*
X79215111Y-81841464D01*
X79285705Y-81794966D01*
X79421874Y-81700026D01*
X79526399Y-81611511D01*
X79607280Y-81521004D01*
X79672518Y-81420085D01*
X79707355Y-81351305D01*
X79746371Y-81256282D01*
X79769031Y-81165809D01*
X79780506Y-81058185D01*
X79781550Y-81039843D01*
X79776340Y-80858544D01*
X79738861Y-80694355D01*
X79666534Y-80541502D01*
X79556779Y-80394209D01*
X79440929Y-80277078D01*
X79300823Y-80148697D01*
X79466715Y-79989040D01*
X79591021Y-79857079D01*
X79680290Y-79731011D01*
X79739061Y-79601705D01*
X79771874Y-79460029D01*
X79781483Y-79355986D01*
X79772752Y-79156588D01*
X79725876Y-78975551D01*
X79640849Y-78812860D01*
X79517664Y-78668501D01*
X79411243Y-78580177D01*
X79317863Y-78512897D01*
X79254380Y-78465651D01*
X79217982Y-78431599D01*
X79205857Y-78403902D01*
X79215193Y-78375720D01*
X79243178Y-78340213D01*
X79287000Y-78290542D01*
X79290484Y-78286479D01*
X79398373Y-78152382D01*
X79476475Y-78034214D01*
X79528804Y-77922422D01*
X79559378Y-77807452D01*
X79572213Y-77679751D01*
X79573264Y-77613795D01*
X79569850Y-77516537D01*
X79558067Y-77433691D01*
X79534244Y-77346941D01*
X79501507Y-77255718D01*
X79468963Y-77167819D01*
X79451196Y-77111390D01*
X79446809Y-77078777D01*
X79454404Y-77062329D01*
X79465168Y-77056658D01*
X79550346Y-77022452D01*
X79653526Y-76975271D01*
X79757887Y-76923297D01*
X79846605Y-76874711D01*
X79875324Y-76857176D01*
X79976843Y-76792031D01*
X80129946Y-76948692D01*
X80289418Y-77087661D01*
X80455664Y-77185444D01*
X80627996Y-77241786D01*
X80805724Y-77256431D01*
X80924391Y-77243365D01*
X81117428Y-77189120D01*
X81284431Y-77102064D01*
X81425882Y-76981722D01*
X81542262Y-76827620D01*
X81634056Y-76639283D01*
X81680122Y-76500567D01*
X81701938Y-76428222D01*
X81721374Y-76372316D01*
X81733880Y-76345539D01*
X81757129Y-76348257D01*
X81806369Y-76370492D01*
X81872606Y-76407928D01*
X81901449Y-76425938D01*
X82026988Y-76502560D01*
X82131986Y-76555874D01*
X82228307Y-76589816D01*
X82327815Y-76608318D01*
X82442374Y-76615316D01*
X82473800Y-76615722D01*
X82573048Y-76615034D01*
X82644993Y-76609558D01*
X82704622Y-76596396D01*
X82766923Y-76572647D01*
X82818173Y-76549110D01*
X82913077Y-76498431D01*
X83015297Y-76435132D01*
X83089342Y-76382835D01*
X83150885Y-76337021D01*
X83198175Y-76304717D01*
X83222632Y-76291710D01*
X83224051Y-76291958D01*
X83235889Y-76312962D01*
X83262025Y-76363123D01*
X83297929Y-76433680D01*
X83319871Y-76477347D01*
X83432545Y-76664096D01*
X83565392Y-76813787D01*
X83719004Y-76926897D01*
X83893978Y-77003905D01*
X84013466Y-77033731D01*
X84187571Y-77045059D01*
X84364122Y-77016658D01*
X84537436Y-76950343D01*
X84701827Y-76847930D01*
X84769464Y-76792260D01*
X84886611Y-76687848D01*
X85050747Y-76752747D01*
X85140993Y-76786766D01*
X85228760Y-76817071D01*
X85297064Y-76837841D01*
X85304842Y-76839839D01*
X85350031Y-76852048D01*
X85377706Y-76867364D01*
X85390361Y-76894359D01*
X85390487Y-76941607D01*
X85380577Y-77017681D01*
X85372257Y-77071664D01*
X85364738Y-77253298D01*
X85396025Y-77432485D01*
X85462795Y-77602630D01*
X85561723Y-77757136D01*
X85689488Y-77889408D01*
X85834024Y-77988179D01*
X85907728Y-78020964D01*
X86004574Y-78054516D01*
X86105966Y-78082532D01*
X86125659Y-78087027D01*
X86208597Y-78106058D01*
X86274616Y-78122909D01*
X86313620Y-78134927D01*
X86319569Y-78137947D01*
X86318288Y-78161593D01*
X86305453Y-78215267D01*
X86283571Y-78289068D01*
X86273294Y-78320667D01*
X86223626Y-78504718D01*
X86205752Y-78671797D01*
X86220164Y-78833431D01*
X86267354Y-79001152D01*
X86306481Y-79097949D01*
X86355003Y-79208247D01*
X86244173Y-79325434D01*
X86126661Y-79477406D01*
X86046943Y-79640718D01*
X86003671Y-79810587D01*
X85995494Y-79982230D01*
X86021065Y-80150863D01*
X86079034Y-80311703D01*
X86168054Y-80459967D01*
X86286775Y-80590872D01*
X86433847Y-80699634D01*
X86607924Y-80781469D01*
X86659508Y-80798366D01*
X86749467Y-80825267D01*
X86749467Y-81332760D01*
X86656180Y-81432490D01*
X86545319Y-81580125D01*
X86465073Y-81749213D01*
X86419653Y-81929184D01*
X86410800Y-82048451D01*
X86423660Y-82165331D01*
X86458609Y-82297327D01*
X86510204Y-82427401D01*
X86562275Y-82522483D01*
X86592973Y-82572231D01*
X86612826Y-82614703D01*
X86624260Y-82661351D01*
X86629706Y-82723629D01*
X86631592Y-82812989D01*
X86631848Y-82850567D01*
X86633953Y-82959490D01*
X86640356Y-83040086D01*
X86653336Y-83106311D01*
X86675172Y-83172122D01*
X86690611Y-83210400D01*
X86724121Y-83306381D01*
X86753602Y-83418064D01*
X86770332Y-83506733D01*
X86826245Y-83762766D01*
X86918770Y-84005479D01*
X87044706Y-84230523D01*
X87200850Y-84433548D01*
X87384001Y-84610204D01*
X87590958Y-84756144D01*
X87750916Y-84838872D01*
X87888042Y-84895573D01*
X88010615Y-84934869D01*
X88132490Y-84959499D01*
X88267517Y-84972203D01*
X88429551Y-84975720D01*
X88442800Y-84975691D01*
X88564115Y-84974464D01*
X88655459Y-84970613D01*
X88729187Y-84962441D01*
X88797651Y-84948254D01*
X88873205Y-84926356D01*
X88924980Y-84909507D01*
X89173009Y-84806822D01*
X89395222Y-84671449D01*
X89560976Y-84534219D01*
X89702217Y-84401370D01*
X89873171Y-84391681D01*
X90060062Y-84361689D01*
X90228719Y-84296840D01*
X90376461Y-84201649D01*
X90500609Y-84080631D01*
X90598482Y-83938302D01*
X90667400Y-83779177D01*
X90704683Y-83607772D01*
X90707650Y-83428600D01*
X90673622Y-83246179D01*
X90627344Y-83121159D01*
X90567435Y-82988150D01*
X90682695Y-82852240D01*
X90746274Y-82770464D01*
X90806171Y-82681904D01*
X90850327Y-82604509D01*
X90853335Y-82598240D01*
X90878489Y-82540004D01*
X90894697Y-82486300D01*
X90903866Y-82425054D01*
X90907900Y-82344192D01*
X90908717Y-82247317D01*
X90907653Y-82139557D01*
X90903162Y-82061949D01*
X90893296Y-82002334D01*
X90876105Y-81948556D01*
X90851986Y-81893444D01*
X90808869Y-81809040D01*
X90759686Y-81723562D01*
X90731485Y-81679719D01*
X90667715Y-81587033D01*
X90813790Y-81456248D01*
X90903319Y-81369449D01*
X90969789Y-81286401D01*
X91026735Y-81189572D01*
X91040124Y-81163071D01*
X91076171Y-81088054D01*
X91099406Y-81029587D01*
X91112638Y-80974176D01*
X91118672Y-80908328D01*
X91120316Y-80818551D01*
X91120374Y-80777331D01*
X91119221Y-80671771D01*
X91114152Y-80594636D01*
X91102737Y-80532045D01*
X91082549Y-80470115D01*
X91055017Y-80403809D01*
X90989669Y-80253634D01*
X91071830Y-80160392D01*
X91196149Y-79998685D01*
X91281113Y-79838438D01*
X91329098Y-79674005D01*
X91342633Y-79517160D01*
X91325585Y-79353301D01*
X91277722Y-79190054D01*
X91203970Y-79038842D01*
X91109254Y-78911086D01*
X91061175Y-78864354D01*
X91016302Y-78825323D01*
X90960297Y-78776348D01*
X90945833Y-78763659D01*
X90875144Y-78701593D01*
X90941033Y-78605827D01*
X90988267Y-78530376D01*
X91037767Y-78441010D01*
X91063652Y-78389022D01*
X91090014Y-78327985D01*
X91106746Y-78272382D01*
X91115965Y-78209407D01*
X91119786Y-78126257D01*
X91120383Y-78045733D01*
X91119371Y-77941948D01*
X91114732Y-77867311D01*
X91104060Y-77808654D01*
X91084951Y-77752809D01*
X91054999Y-77686609D01*
X91054661Y-77685900D01*
X91004153Y-77593909D01*
X90940142Y-77495555D01*
X90888932Y-77427708D01*
X90788926Y-77307100D01*
X90894089Y-77180733D01*
X91018216Y-77002623D01*
X91102670Y-76813195D01*
X91132433Y-76705054D01*
X91148551Y-76636739D01*
X91163018Y-76601073D01*
X91182982Y-76589298D01*
X91215594Y-76592652D01*
X91222986Y-76594112D01*
X91358745Y-76614007D01*
X91497421Y-76621847D01*
X91622407Y-76617126D01*
X91683415Y-76608158D01*
X91759428Y-76584635D01*
X91861099Y-76541797D01*
X91978898Y-76483864D01*
X92047563Y-76446844D01*
X92139124Y-76396327D01*
X92216794Y-76354231D01*
X92273425Y-76324373D01*
X92301872Y-76310570D01*
X92303645Y-76310067D01*
X92306805Y-76330058D01*
X92309067Y-76385348D01*
X92310308Y-76468908D01*
X92310403Y-76573711D01*
X92309743Y-76654025D01*
X92305717Y-76997983D01*
X92373481Y-77141039D01*
X92475859Y-77311982D01*
X92606535Y-77451823D01*
X92766017Y-77560944D01*
X92954816Y-77639724D01*
X93087449Y-77673626D01*
X93166011Y-77690121D01*
X93226497Y-77703838D01*
X93258666Y-77712422D01*
X93261239Y-77713616D01*
X93257650Y-77734888D01*
X93243253Y-77787479D01*
X93220575Y-77862531D01*
X93202431Y-77919662D01*
X93171018Y-78022545D01*
X93152563Y-78102823D01*
X93144572Y-78177305D01*
X93144556Y-78262801D01*
X93146049Y-78300099D01*
X93172889Y-78486943D01*
X93236670Y-78656531D01*
X93339577Y-78814082D01*
X93381986Y-78863760D01*
X93480467Y-78972703D01*
X93480467Y-79521383D01*
X93354610Y-79599066D01*
X93211706Y-79706642D01*
X93096820Y-79838163D01*
X93006878Y-79993067D01*
X92976646Y-80059276D01*
X92957330Y-80114883D01*
X92946513Y-80173023D01*
X92941781Y-80246834D01*
X92940717Y-80349453D01*
X92940717Y-80352900D01*
X92941740Y-80456800D01*
X92946411Y-80531575D01*
X92957125Y-80590414D01*
X92976282Y-80646505D01*
X93006133Y-80712733D01*
X93053345Y-80797718D01*
X93116999Y-80893862D01*
X93184185Y-80981820D01*
X93191342Y-80990288D01*
X93245318Y-81055389D01*
X93286655Y-81109116D01*
X93308947Y-81142974D01*
X93311095Y-81149038D01*
X93294535Y-81169673D01*
X93251860Y-81203180D01*
X93210554Y-81230685D01*
X93109314Y-81302973D01*
X93007802Y-81390790D01*
X92917506Y-81483116D01*
X92849911Y-81568929D01*
X92837668Y-81588479D01*
X92763229Y-81756461D01*
X92725290Y-81938751D01*
X92724782Y-82126707D01*
X92760572Y-82305097D01*
X92827819Y-82463946D01*
X92927655Y-82605941D01*
X93063512Y-82735246D01*
X93188789Y-82824912D01*
X93249979Y-82867207D01*
X93293817Y-82902995D01*
X93310942Y-82924626D01*
X93310948Y-82924806D01*
X93297929Y-82949479D01*
X93263043Y-82996903D01*
X93212815Y-83058425D01*
X93191190Y-83083556D01*
X93123974Y-83168683D01*
X93058999Y-83264502D01*
X93009392Y-83351520D01*
X93005981Y-83358567D01*
X92976168Y-83424884D01*
X92957108Y-83480885D01*
X92946428Y-83539692D01*
X92941755Y-83614431D01*
X92940717Y-83718225D01*
X92940717Y-83719498D01*
X92941471Y-83821378D01*
X92945597Y-83894399D01*
X92955884Y-83952030D01*
X92975125Y-84007741D01*
X93006111Y-84075003D01*
X93020428Y-84104130D01*
X93123178Y-84268496D01*
X93255219Y-84403351D01*
X93418991Y-84511069D01*
X93459300Y-84531255D01*
X93521831Y-84559743D01*
X93574523Y-84578528D01*
X93629130Y-84589620D01*
X93697408Y-84595030D01*
X93791113Y-84596767D01*
X93843118Y-84596886D01*
X94089353Y-84596956D01*
X94202951Y-84674975D01*
X94424371Y-84807448D01*
X94647861Y-84900291D01*
X94880916Y-84955859D01*
X95131028Y-84976507D01*
X95163217Y-84976750D01*
X95339289Y-84971300D01*
X95489381Y-84952774D01*
X95628692Y-84917908D01*
X95772421Y-84863437D01*
X95845717Y-84830185D01*
X95999370Y-84750402D01*
X96133198Y-84663064D01*
X96265258Y-84555924D01*
X96311087Y-84514540D01*
X96433217Y-84401968D01*
X96606686Y-84390348D01*
X96798348Y-84357528D01*
X96972197Y-84287744D01*
X97124502Y-84183955D01*
X97251530Y-84049123D01*
X97349549Y-83886207D01*
X97396829Y-83763795D01*
X97432904Y-83592029D01*
X97432529Y-83420863D01*
X97395005Y-83244561D01*
X97319633Y-83057384D01*
X97307867Y-83033633D01*
X97277048Y-82970036D01*
X97256987Y-82923661D01*
X97252039Y-82904876D01*
X97272169Y-82892387D01*
X97318875Y-82864128D01*
X97382374Y-82826015D01*
X97387620Y-82822877D01*
X97548503Y-82705129D01*
X97677980Y-82565445D01*
X97774099Y-82408501D01*
X97834907Y-82238973D01*
X97858453Y-82061537D01*
X97842784Y-81880871D01*
X97819121Y-81789171D01*
X97790141Y-81705967D01*
X97758834Y-81627850D01*
X97737271Y-81582124D01*
X97698267Y-81509597D01*
X97774825Y-81349290D01*
X97809472Y-81274264D01*
X97831707Y-81214964D01*
X97844272Y-81157694D01*
X97849907Y-81088756D01*
X97851354Y-80994453D01*
X97851383Y-80966733D01*
X97852128Y-80865345D01*
X97855884Y-80794735D01*
X97864933Y-80743353D01*
X97881556Y-80699648D01*
X97908036Y-80652073D01*
X97916200Y-80638650D01*
X98008234Y-80458684D01*
X98059450Y-80283552D01*
X98069870Y-80109570D01*
X98039519Y-79933051D01*
X97968418Y-79750311D01*
X97922335Y-79663670D01*
X97818037Y-79481773D01*
X97966357Y-79344451D01*
X98103026Y-79193485D01*
X98201609Y-79030232D01*
X98260982Y-78857709D01*
X98280020Y-78678932D01*
X98266594Y-78539502D01*
X98226736Y-78385001D01*
X98164729Y-78249229D01*
X98074265Y-78120907D01*
X97969940Y-78008925D01*
X97813330Y-77855699D01*
X97891009Y-77738706D01*
X97992496Y-77555312D01*
X98051886Y-77373907D01*
X98069330Y-77193773D01*
X98044980Y-77014196D01*
X98044106Y-77010756D01*
X97999638Y-76873086D01*
X97938253Y-76752206D01*
X97852698Y-76636315D01*
X97742549Y-76520213D01*
X97677768Y-76456832D01*
X97626167Y-76405270D01*
X97594144Y-76371984D01*
X97586800Y-76362983D01*
X97600997Y-76346635D01*
X97639324Y-76307414D01*
X97695383Y-76251780D01*
X97742549Y-76205753D01*
X97887081Y-76043610D01*
X97989605Y-75877644D01*
X98050358Y-75706782D01*
X98069574Y-75529953D01*
X98047491Y-75346088D01*
X97984343Y-75154115D01*
X97977648Y-75138656D01*
X97942393Y-75058600D01*
X97913166Y-74992222D01*
X97894537Y-74949903D01*
X97891000Y-74941861D01*
X97902525Y-74920117D01*
X97942932Y-74886300D01*
X98003472Y-74847731D01*
X98003473Y-74847730D01*
X98163171Y-74734324D01*
X98295863Y-74593790D01*
X98397938Y-74432147D01*
X98465786Y-74255416D01*
X98495795Y-74069615D01*
X98496967Y-74025080D01*
X98501025Y-73981045D01*
X98516681Y-73937934D01*
X98549158Y-73886308D01*
X98603678Y-73816730D01*
X98629258Y-73786003D01*
X98701989Y-73706132D01*
X98775754Y-73636445D01*
X98839185Y-73587435D01*
X98853904Y-73578652D01*
X98993816Y-73482535D01*
X99116741Y-73358097D01*
X99216165Y-73214436D01*
X99285573Y-73060653D01*
X99315441Y-72933983D01*
X99333450Y-72860225D01*
X99371758Y-72767070D01*
X99432884Y-72648742D01*
X99462996Y-72595317D01*
X99521745Y-72495119D01*
X99566811Y-72425136D01*
X99604112Y-72378060D01*
X99639563Y-72346585D01*
X99679083Y-72323402D01*
X99685808Y-72320150D01*
X99748698Y-72283069D01*
X99823923Y-72228513D01*
X99887212Y-72175329D01*
X100007189Y-72037915D01*
X100095149Y-71877349D01*
X100149168Y-71700253D01*
X100167322Y-71513247D01*
X100147688Y-71322954D01*
X100142142Y-71297818D01*
X100110820Y-71164487D01*
X100258974Y-71089878D01*
X100436099Y-70980926D01*
X100577996Y-70849411D01*
X100686514Y-70693205D01*
X100763498Y-70510179D01*
X100764255Y-70507756D01*
X100798414Y-70345151D01*
X100797395Y-70183331D01*
X100760497Y-70014750D01*
X100705057Y-69870797D01*
X100650804Y-69749778D01*
X100750576Y-69638808D01*
X100871010Y-69477750D01*
X100955014Y-69305160D01*
X101000991Y-69126053D01*
X101007344Y-68945444D01*
X100996833Y-68864917D01*
X100967166Y-68744241D01*
X100922393Y-68634000D01*
X100858142Y-68528114D01*
X100770045Y-68420503D01*
X100653730Y-68305085D01*
X100504828Y-68175779D01*
X100496724Y-68169067D01*
X100391383Y-68081985D01*
X100611476Y-67971510D01*
X100801747Y-67861845D01*
X100953114Y-67742034D01*
X101068480Y-67608586D01*
X101150746Y-67458009D01*
X101202815Y-67286810D01*
X101209449Y-67252148D01*
X101219337Y-67076661D01*
X101189993Y-66898502D01*
X101123416Y-66724614D01*
X101021602Y-66561933D01*
X101004618Y-66540410D01*
X100957678Y-66492970D01*
X100885537Y-66432221D01*
X100799101Y-66366954D01*
X100731953Y-66320655D01*
X100651703Y-66266459D01*
X100586432Y-66219942D01*
X100543201Y-66186305D01*
X100528967Y-66171187D01*
X100545751Y-66154140D01*
X100591145Y-66120229D01*
X100657708Y-66074784D01*
X100718579Y-66035365D01*
X100809286Y-65973601D01*
X100896309Y-65906994D01*
X100966700Y-65845769D01*
X100993470Y-65818280D01*
X101104740Y-65661816D01*
X101178588Y-65491484D01*
X101214961Y-65312940D01*
X101213810Y-65131836D01*
X101175083Y-64953825D01*
X101098729Y-64784562D01*
X101004039Y-64651594D01*
X100888169Y-64539502D01*
X100747073Y-64447368D01*
X100600983Y-64380439D01*
X100529472Y-64351925D01*
X100475177Y-64329609D01*
X100448465Y-64317766D01*
X100447499Y-64317173D01*
X100451276Y-64296299D01*
X100467635Y-64245338D01*
X100493504Y-64173536D01*
X100507208Y-64137461D01*
X100567418Y-63932688D01*
X100586931Y-63737306D01*
X100565965Y-63552467D01*
X100504739Y-63379319D01*
X100403472Y-63219014D01*
X100313721Y-63119747D01*
X100194271Y-63022599D01*
X100055726Y-62948117D01*
X99889219Y-62891965D01*
X99809000Y-62872843D01*
X99728414Y-62853386D01*
X99666541Y-62834409D01*
X99632851Y-62818996D01*
X99629383Y-62814375D01*
X99635362Y-62786105D01*
X99651252Y-62728505D01*
X99673981Y-62652541D01*
X99681353Y-62628834D01*
X99709896Y-62543499D01*
X99735633Y-62486959D01*
X99766389Y-62447031D01*
X99809982Y-62411530D01*
X99829520Y-62398032D01*
X99888011Y-62356503D01*
X99967086Y-62297748D01*
X100054340Y-62231069D01*
X100105633Y-62190989D01*
X100187227Y-62127746D01*
X100263670Y-62070492D01*
X100324574Y-62026906D01*
X100351761Y-62009025D01*
X100408914Y-61968449D01*
X100490804Y-61901748D01*
X100592663Y-61813156D01*
X100709726Y-61706910D01*
X100837227Y-61587244D01*
X100960549Y-61468059D01*
X101169991Y-61262802D01*
X101309854Y-61347235D01*
X101453111Y-61423446D01*
X101586303Y-61469578D01*
X101724552Y-61489577D01*
X101853938Y-61489157D01*
X102041833Y-61459013D01*
X102214535Y-61390738D01*
X102368177Y-61286993D01*
X102498897Y-61150437D01*
X102602827Y-60983730D01*
X102609968Y-60968960D01*
X102640768Y-60900659D01*
X102660446Y-60843856D01*
X102671465Y-60785227D01*
X102676289Y-60711452D01*
X102677382Y-60609208D01*
X102677383Y-60604400D01*
X102676388Y-60500776D01*
X102671792Y-60426331D01*
X102661181Y-60367929D01*
X102642138Y-60312431D01*
X102612247Y-60246701D01*
X102611222Y-60244567D01*
X102506338Y-60070459D01*
X102376345Y-59929642D01*
X102223740Y-59823580D01*
X102051024Y-59753738D01*
X101860694Y-59721579D01*
X101719564Y-59722184D01*
X101540110Y-59734848D01*
X101399663Y-59590368D01*
X101291221Y-59488002D01*
X101189290Y-59414576D01*
X101080202Y-59361816D01*
X100959082Y-59323716D01*
X100792848Y-59295446D01*
X100635491Y-59302349D01*
X100510444Y-59331944D01*
X100326021Y-59408777D01*
X100169952Y-59516277D01*
X100040719Y-59655852D01*
X99936804Y-59828908D01*
X99909713Y-59889054D01*
X99869028Y-59977856D01*
X99834844Y-60036569D01*
X99809996Y-60060470D01*
X99806725Y-60060710D01*
X99774934Y-60052210D01*
X99713828Y-60032672D01*
X99633881Y-60005512D01*
X99587558Y-59989233D01*
X99491826Y-59956746D01*
X99419057Y-59937676D01*
X99352996Y-59929492D01*
X99277391Y-59929667D01*
X99223289Y-59932569D01*
X99032833Y-59964320D01*
X98860269Y-60033116D01*
X98708506Y-60136405D01*
X98580454Y-60271638D01*
X98479023Y-60436265D01*
X98407122Y-60627736D01*
X98400254Y-60653837D01*
X98365402Y-60792583D01*
X98118976Y-60780836D01*
X98009777Y-60776385D01*
X97928930Y-60776349D01*
X97862542Y-60782399D01*
X97796719Y-60796206D01*
X97717570Y-60819439D01*
X97669277Y-60834911D01*
X97582502Y-60862596D01*
X97511295Y-60884539D01*
X97464899Y-60897935D01*
X97452319Y-60900733D01*
X97446546Y-60881070D01*
X97441977Y-60828085D01*
X97439199Y-60750787D01*
X97438633Y-60691296D01*
X97427227Y-60497405D01*
X97391399Y-60330920D01*
X97328740Y-60183082D01*
X97274718Y-60096029D01*
X97149145Y-59951909D01*
X96998217Y-59840695D01*
X96825417Y-59764298D01*
X96634224Y-59724629D01*
X96591967Y-59721138D01*
X96509918Y-59718306D01*
X96439372Y-59722816D01*
X96365444Y-59736993D01*
X96273251Y-59763162D01*
X96224922Y-59778476D01*
X96137838Y-59805549D01*
X96066929Y-59825713D01*
X96020991Y-59836578D01*
X96008293Y-59837282D01*
X96000458Y-59814065D01*
X95987010Y-59759743D01*
X95970482Y-59684757D01*
X95965558Y-59661049D01*
X95915845Y-59478747D01*
X95845397Y-59325740D01*
X95749133Y-59191992D01*
X95703161Y-59142544D01*
X95553870Y-59019743D01*
X95389510Y-58934254D01*
X95215331Y-58886255D01*
X95036581Y-58875918D01*
X94858511Y-58903420D01*
X94686370Y-58968935D01*
X94525406Y-59072638D01*
X94490253Y-59102142D01*
X94436568Y-59157547D01*
X94371576Y-59236643D01*
X94305446Y-59326640D01*
X94271671Y-59377087D01*
X94220395Y-59454821D01*
X94176772Y-59517199D01*
X94146122Y-59556842D01*
X94134628Y-59567233D01*
X94117786Y-59550648D01*
X94083009Y-59505539D01*
X94035437Y-59438871D01*
X93982371Y-59360858D01*
X93891891Y-59233124D01*
X93808675Y-59135760D01*
X93723682Y-59060073D01*
X93627868Y-58997366D01*
X93574986Y-58969126D01*
X93397253Y-58900504D01*
X93218433Y-58873885D01*
X93038110Y-58889320D01*
X92855873Y-58946864D01*
X92671309Y-59046569D01*
X92602020Y-59094396D01*
X92531478Y-59144209D01*
X92474369Y-59181337D01*
X92438639Y-59200782D01*
X92430915Y-59202070D01*
X92417853Y-59179758D01*
X92391241Y-59128370D01*
X92355752Y-59057041D01*
X92336752Y-59018020D01*
X92230600Y-58840187D01*
X92101742Y-58694294D01*
X91954136Y-58581843D01*
X91791742Y-58504336D01*
X91618520Y-58463275D01*
X91438427Y-58460160D01*
X91255424Y-58496495D01*
X91112363Y-58553602D01*
X91000806Y-58621367D01*
X90884490Y-58718699D01*
X90821586Y-58780886D01*
X90665971Y-58941631D01*
X90510970Y-58781519D01*
X90347830Y-58637633D01*
X90177662Y-58534754D01*
X90002119Y-58473092D01*
X89822856Y-58452860D01*
X89641527Y-58474268D01*
X89459787Y-58537528D01*
X89302313Y-58626984D01*
X89243150Y-58665218D01*
X89197973Y-58691461D01*
X89179040Y-58699400D01*
X89158483Y-58685253D01*
X89115438Y-58647062D01*
X89056861Y-58591195D01*
X89009424Y-58544059D01*
X88878472Y-58425870D01*
X88750217Y-58341825D01*
X88613733Y-58285989D01*
X88478161Y-58255477D01*
X88317867Y-58247861D01*
X88149880Y-58271188D01*
X87991968Y-58322581D01*
X87954577Y-58340275D01*
X87856504Y-58403860D01*
X87751437Y-58494655D01*
X87650689Y-58601701D01*
X87565572Y-58714037D01*
X87559974Y-58722617D01*
X87518202Y-58784386D01*
X87484246Y-58829015D01*
X87465127Y-58847321D01*
X87464642Y-58847381D01*
X87443034Y-58834236D01*
X87398537Y-58799045D01*
X87339395Y-58748445D01*
X87316475Y-58728067D01*
X87175031Y-58619869D01*
X87021708Y-58535612D01*
X86865127Y-58478543D01*
X86713908Y-58451906D01*
X86593782Y-58455956D01*
X86439956Y-58489168D01*
X86303095Y-58541509D01*
X86170250Y-58619098D01*
X86042134Y-58716640D01*
X85938052Y-58802980D01*
X85809301Y-58694979D01*
X85639028Y-58576315D01*
X85462318Y-58498163D01*
X85282771Y-58459907D01*
X85103991Y-58460933D01*
X84929579Y-58500628D01*
X84763139Y-58578375D01*
X84608272Y-58693562D01*
X84468581Y-58845574D01*
X84406141Y-58934284D01*
X84365033Y-58995942D01*
X84332665Y-59040525D01*
X84315690Y-59058905D01*
X84315300Y-59058975D01*
X84295710Y-59046079D01*
X84252011Y-59011412D01*
X84191877Y-58961166D01*
X84157447Y-58931619D01*
X83982127Y-58802487D01*
X83803815Y-58715208D01*
X83623908Y-58669803D01*
X83443804Y-58666293D01*
X83264900Y-58704699D01*
X83088596Y-58785044D01*
X82916287Y-58907348D01*
X82910304Y-58912425D01*
X82787708Y-59017040D01*
X82678379Y-58920838D01*
X82510873Y-58798232D01*
X82335682Y-58715741D01*
X82156719Y-58672768D01*
X81977900Y-58668715D01*
X81803142Y-58702987D01*
X81636360Y-58774986D01*
X81481469Y-58884114D01*
X81342385Y-59029774D01*
X81267139Y-59136057D01*
X81225414Y-59200558D01*
X81192680Y-59248250D01*
X81175025Y-59270326D01*
X81173919Y-59270900D01*
X81152416Y-59262451D01*
X81102270Y-59239971D01*
X81032995Y-59207757D01*
X81008601Y-59196218D01*
X80831714Y-59125581D01*
X80668830Y-59089859D01*
X80512185Y-59087661D01*
X80448967Y-59095954D01*
X80268853Y-59144202D01*
X80109062Y-59225154D01*
X79965551Y-59341588D01*
X79834279Y-59496286D01*
X79804064Y-59539538D01*
X79697710Y-59697147D01*
X79638170Y-59648065D01*
X79523878Y-59554784D01*
X79435092Y-59484939D01*
X79365449Y-59434099D01*
X79308588Y-59397833D01*
X79258149Y-59371708D01*
X79217119Y-59354746D01*
X79032862Y-59306294D01*
X78847520Y-59299505D01*
X78659654Y-59334487D01*
X78468537Y-59410991D01*
X78397934Y-59445437D01*
X78342073Y-59470738D01*
X78311566Y-59482124D01*
X78309787Y-59482337D01*
X78291878Y-59465225D01*
X78260281Y-59420445D01*
X78221636Y-59357459D01*
X78219300Y-59353416D01*
X78104153Y-59192097D01*
X77963778Y-59060430D01*
X77803245Y-58961312D01*
X77627623Y-58897637D01*
X77441979Y-58872304D01*
X77378407Y-58872896D01*
X77246597Y-58878979D01*
X77188827Y-58762731D01*
X77145839Y-58691876D01*
X77083512Y-58607964D01*
X77013656Y-58526607D01*
X76996794Y-58508900D01*
X76932918Y-58442184D01*
X76892317Y-58393036D01*
X76868382Y-58349039D01*
X76854506Y-58297774D01*
X76844080Y-58226825D01*
X76843256Y-58220386D01*
X76816218Y-58070565D01*
X76773352Y-57940879D01*
X76709804Y-57823734D01*
X76620716Y-57711532D01*
X76501232Y-57596677D01*
X76382121Y-57499043D01*
X76353621Y-57474084D01*
X76344192Y-57449506D01*
X76352235Y-57410533D01*
X76367719Y-57365900D01*
X76416218Y-57172289D01*
X76424036Y-56979830D01*
X76392111Y-56793207D01*
X76321377Y-56617104D01*
X76212771Y-56456204D01*
X76178093Y-56417061D01*
X76128938Y-56361482D01*
X76094144Y-56316360D01*
X76081467Y-56292130D01*
X76089513Y-56262420D01*
X76110390Y-56207368D01*
X76133535Y-56152766D01*
X76197091Y-55962157D01*
X76219239Y-55774635D01*
X76200899Y-55592975D01*
X76142995Y-55419955D01*
X76046448Y-55258352D01*
X75912182Y-55110941D01*
X75744855Y-54982899D01*
X75682039Y-54940891D01*
X75636157Y-54907283D01*
X75616209Y-54888713D01*
X75615985Y-54887876D01*
X75628851Y-54867559D01*
X75663458Y-54823325D01*
X75713557Y-54763016D01*
X75741117Y-54730841D01*
X75852117Y-54587763D01*
X75929982Y-54450622D01*
X75980369Y-54308413D01*
X75996674Y-54233927D01*
X76008527Y-54051749D01*
X75978988Y-53869354D01*
X75908846Y-53690105D01*
X75842674Y-53578089D01*
X75767742Y-53466821D01*
X75849264Y-53340690D01*
X75944064Y-53161265D01*
X75996713Y-52980540D01*
X76007389Y-52796716D01*
X75976271Y-52607994D01*
X75934446Y-52483662D01*
X75865375Y-52311008D01*
X75979183Y-52176745D01*
X76098292Y-52007780D01*
X76177416Y-51831076D01*
X76216314Y-51649906D01*
X76214740Y-51467544D01*
X76172452Y-51287263D01*
X76089205Y-51112336D01*
X76061606Y-51069293D01*
X76025049Y-51014620D01*
X75998110Y-50973189D01*
X75991324Y-50962148D01*
X75995240Y-50933759D01*
X76018863Y-50884323D01*
X76042937Y-50845731D01*
X76128498Y-50702375D01*
X76184466Y-50562477D01*
X76212261Y-50417088D01*
X76213305Y-50257258D01*
X76189018Y-50074037D01*
X76175926Y-50008051D01*
X76170784Y-49975121D01*
X76176655Y-49950668D01*
X76200457Y-49927809D01*
X76249107Y-49899660D01*
X76321265Y-49863417D01*
X76472448Y-49770253D01*
X76607138Y-49651478D01*
X76715869Y-49516518D01*
X76773420Y-49413178D01*
X76818856Y-49271644D01*
X76840534Y-49110130D01*
X76837443Y-48944356D01*
X76812539Y-48804099D01*
X76776144Y-48669646D01*
X76861233Y-48556898D01*
X76948828Y-48426344D01*
X77005923Y-48301948D01*
X77038326Y-48168095D01*
X77050090Y-48048983D01*
X77049345Y-47895277D01*
X77026095Y-47760057D01*
X76976399Y-47629060D01*
X76896313Y-47488023D01*
X76894031Y-47484468D01*
X76803502Y-47343766D01*
X76949922Y-47210132D01*
X77041940Y-47118864D01*
X77110643Y-47030768D01*
X77169568Y-46928178D01*
X77176279Y-46914755D01*
X77212190Y-46839992D01*
X77235335Y-46781644D01*
X77248513Y-46726231D01*
X77254522Y-46660274D01*
X77256158Y-46570293D01*
X77256217Y-46529664D01*
X77255205Y-46425525D01*
X77250589Y-46350581D01*
X77239992Y-46291713D01*
X77221041Y-46235801D01*
X77191360Y-46169726D01*
X77190889Y-46168733D01*
X77140759Y-46079558D01*
X77074965Y-45983744D01*
X77015227Y-45910631D01*
X76904893Y-45790112D01*
X76945361Y-45709547D01*
X77008188Y-45564262D01*
X77042684Y-45427959D01*
X77052811Y-45282247D01*
X77051025Y-45219188D01*
X77042721Y-45112883D01*
X77027177Y-45030027D01*
X76999967Y-44951830D01*
X76975157Y-44897158D01*
X76876113Y-44738561D01*
X76742335Y-44599336D01*
X76578950Y-44484598D01*
X76540994Y-44463904D01*
X76469634Y-44426628D01*
X76414526Y-44397515D01*
X76384963Y-44381486D01*
X76382475Y-44379972D01*
X76383198Y-44358566D01*
X76390177Y-44305299D01*
X76402058Y-44229955D01*
X76408090Y-44194626D01*
X76426044Y-43997650D01*
X76406831Y-43816597D01*
X76348988Y-43646142D01*
X76251047Y-43480957D01*
X76190349Y-43403149D01*
X76081075Y-43272816D01*
X76179072Y-43159733D01*
X76299847Y-42991264D01*
X76380306Y-42813578D01*
X76420447Y-42630368D01*
X76420272Y-42445328D01*
X76379781Y-42262150D01*
X76298972Y-42084529D01*
X76179072Y-41917567D01*
X76081075Y-41804484D01*
X76190399Y-41674150D01*
X76297609Y-41527453D01*
X76370175Y-41380716D01*
X76413958Y-41221589D01*
X76418941Y-41192539D01*
X76427641Y-41007571D01*
X76395607Y-40828167D01*
X76324383Y-40657695D01*
X76215511Y-40499522D01*
X76070536Y-40357015D01*
X76017032Y-40315464D01*
X75916660Y-40241784D01*
X75954579Y-40119950D01*
X75999905Y-39914661D01*
X76004475Y-39720748D01*
X75968245Y-39537979D01*
X75891169Y-39366120D01*
X75778456Y-39210895D01*
X75650348Y-39094339D01*
X75497674Y-39004296D01*
X75329983Y-38944230D01*
X75156823Y-38917604D01*
X74994842Y-38926628D01*
X74803642Y-38978336D01*
X74635517Y-39064820D01*
X74492547Y-39182314D01*
X74368810Y-39334002D01*
X74283476Y-39501584D01*
X74237604Y-39681601D01*
X74232251Y-39870596D01*
X74247954Y-39982096D01*
X74262494Y-40059693D01*
X74269639Y-40121799D01*
X74269162Y-40182197D01*
X74260836Y-40254668D01*
X74244434Y-40352994D01*
X74241577Y-40369067D01*
X74222913Y-40478554D01*
X74205568Y-40588815D01*
X74192104Y-40683176D01*
X74187339Y-40721749D01*
X74172741Y-40852182D01*
X74051587Y-40926963D01*
X73890322Y-41050590D01*
X73756788Y-41203293D01*
X73669418Y-41351323D01*
X73633685Y-41424314D01*
X73608266Y-41466202D01*
X73585590Y-41484253D01*
X73558085Y-41485732D01*
X73534035Y-41481251D01*
X73394529Y-41454498D01*
X73283758Y-41440298D01*
X73190309Y-41437770D01*
X73102769Y-41446035D01*
X73094152Y-41447381D01*
X73022365Y-41457912D01*
X72979279Y-41458530D01*
X72951871Y-41446487D01*
X72927120Y-41419033D01*
X72920850Y-41410802D01*
X72789996Y-41268775D01*
X72634550Y-41151477D01*
X72554453Y-41106960D01*
X72487986Y-41075448D01*
X72433807Y-41054936D01*
X72379431Y-41043073D01*
X72312369Y-41037507D01*
X72220134Y-41035887D01*
X72176662Y-41035817D01*
X72069874Y-41036765D01*
X71992078Y-41041167D01*
X71929946Y-41051354D01*
X71870153Y-41069660D01*
X71799369Y-41098417D01*
X71785994Y-41104205D01*
X71712722Y-41135261D01*
X71656412Y-41157649D01*
X71626495Y-41167671D01*
X71624068Y-41167705D01*
X71614473Y-41147152D01*
X71593585Y-41097818D01*
X71565854Y-41030218D01*
X71564787Y-41027584D01*
X71482327Y-40851921D01*
X71389143Y-40711365D01*
X71279048Y-40598934D01*
X71145855Y-40507646D01*
X71068768Y-40467799D01*
X71000814Y-40437182D01*
X70944132Y-40417624D01*
X70885422Y-40406678D01*
X70811384Y-40401892D01*
X70708721Y-40400817D01*
X70705133Y-40400817D01*
X70599728Y-40401993D01*
X70523686Y-40406981D01*
X70464069Y-40417968D01*
X70407938Y-40437139D01*
X70357362Y-40459599D01*
X70218539Y-40537100D01*
X70099412Y-40633278D01*
X69989203Y-40757567D01*
X69939554Y-40825316D01*
X69889028Y-40894837D01*
X69846110Y-40948688D01*
X69817246Y-40979010D01*
X69810285Y-40982900D01*
X69786676Y-40969570D01*
X69740780Y-40934110D01*
X69681222Y-40883318D01*
X69661308Y-40865498D01*
X69516636Y-40750037D01*
X69374861Y-40670976D01*
X69226678Y-40624175D01*
X69077984Y-40606114D01*
X68885480Y-40614056D01*
X68711742Y-40658109D01*
X68552853Y-40739986D01*
X68404894Y-40861398D01*
X68342345Y-40927673D01*
X68242216Y-41041242D01*
X68063814Y-41030112D01*
X67892694Y-41029872D01*
X67709495Y-41051503D01*
X67676036Y-41057399D01*
X67586746Y-41072368D01*
X67513714Y-41081957D01*
X67466416Y-41085074D01*
X67453869Y-41083024D01*
X67455031Y-41059042D01*
X67467850Y-41003576D01*
X67490116Y-40925144D01*
X67516602Y-40841358D01*
X67549088Y-40736957D01*
X67577279Y-40635446D01*
X67597576Y-40550402D01*
X67605323Y-40506650D01*
X67605936Y-40394590D01*
X67585871Y-40264067D01*
X67548721Y-40131304D01*
X67498077Y-40012525D01*
X67494444Y-40005750D01*
X67419454Y-39897606D01*
X67317001Y-39790307D01*
X67200347Y-39696259D01*
X67098343Y-39635220D01*
X66979800Y-39577081D01*
X66979800Y-39437771D01*
X66962373Y-39235479D01*
X66909200Y-39054522D01*
X66818945Y-38891574D01*
X66707283Y-38759937D01*
X66559918Y-38640318D01*
X66398659Y-38557563D01*
X66228758Y-38510779D01*
X66055465Y-38499072D01*
X65884029Y-38521550D01*
X65719701Y-38577318D01*
X65567732Y-38665483D01*
X65433370Y-38785152D01*
X65321867Y-38935431D01*
X65285867Y-39001826D01*
X65248023Y-39085330D01*
X65224913Y-39158351D01*
X65212082Y-39239221D01*
X65205758Y-39331295D01*
X65207555Y-39494332D01*
X65232719Y-39635529D01*
X65285208Y-39770668D01*
X65341269Y-39871650D01*
X65387386Y-39947119D01*
X65430600Y-40017967D01*
X65458658Y-40064090D01*
X65498360Y-40129530D01*
X65324147Y-40177273D01*
X65226930Y-40206962D01*
X65130545Y-40241419D01*
X65053793Y-40273852D01*
X65045346Y-40278016D01*
X64923871Y-40357799D01*
X64807199Y-40467436D01*
X64706633Y-40594951D01*
X64645299Y-40701937D01*
X64614287Y-40770640D01*
X64594470Y-40827587D01*
X64583366Y-40886126D01*
X64578498Y-40959606D01*
X64577385Y-41061375D01*
X64577383Y-41067567D01*
X64578341Y-41170862D01*
X64582910Y-41245287D01*
X64593630Y-41304291D01*
X64613043Y-41361323D01*
X64643690Y-41429832D01*
X64647258Y-41437383D01*
X64695915Y-41527229D01*
X64756180Y-41610650D01*
X64837546Y-41700013D01*
X64884150Y-41746016D01*
X65051167Y-41907082D01*
X64865276Y-42095866D01*
X64777554Y-42187870D01*
X64715222Y-42261418D01*
X64671530Y-42325601D01*
X64639728Y-42389514D01*
X64630863Y-42411650D01*
X64582579Y-42592403D01*
X64570678Y-42779413D01*
X64109190Y-42779413D01*
X64112263Y-42629654D01*
X64145843Y-42431194D01*
X64205675Y-42240797D01*
X64288425Y-42070240D01*
X64345905Y-41984659D01*
X64397955Y-41916417D01*
X64312818Y-41784693D01*
X64217483Y-41602150D01*
X64150364Y-41398527D01*
X64113585Y-41185131D01*
X64109270Y-40973269D01*
X64130391Y-40813567D01*
X64194700Y-40603183D01*
X64294551Y-40401861D01*
X64424414Y-40217792D01*
X64578760Y-40059169D01*
X64703674Y-39964177D01*
X64837588Y-39876133D01*
X64793462Y-39757475D01*
X64773401Y-39694906D01*
X64760161Y-39628422D01*
X64752452Y-39547039D01*
X64748984Y-39439770D01*
X64748441Y-39374233D01*
X64749040Y-39256763D01*
X64752834Y-39169434D01*
X64761426Y-39100082D01*
X64776423Y-39036544D01*
X64799428Y-38966657D01*
X64803841Y-38954401D01*
X64889250Y-38758836D01*
X64996559Y-38589649D01*
X65129671Y-38437803D01*
X65308675Y-38283835D01*
X65499789Y-38169450D01*
X65707226Y-38092772D01*
X65935202Y-38051925D01*
X66008819Y-38046345D01*
X66243937Y-38053258D01*
%TD*%
D11*
%TO.P,D1,1*%
%TO.N,Net-(D1-Pad1)*%
X85801200Y-63550800D03*
D12*
%TO.P,D1,2*%
%TO.N,Net-(BT1-Pad1)*%
X83261200Y-63550800D03*
%TD*%
M02*
